<?xml version="1.0" encoding="UTF-8" standalone="no"?>
<!-- Created with Inkscape (http://www.inkscape.org/) -->

<svg
   xmlns:osb="http://www.openswatchbook.org/uri/2009/osb"
   xmlns:dc="http://purl.org/dc/elements/1.1/"
   xmlns:cc="http://creativecommons.org/ns#"
   xmlns:rdf="http://www.w3.org/1999/02/22-rdf-syntax-ns#"
   xmlns:svg="http://www.w3.org/2000/svg"
   xmlns="http://www.w3.org/2000/svg"
   xmlns:sodipodi="http://sodipodi.sourceforge.net/DTD/sodipodi-0.dtd"
   xmlns:inkscape="http://www.inkscape.org/namespaces/inkscape"
   sodipodi:docname="grid-rectangular.svg"
   inkscape:export-filename="/home/sam/source-symbolic.png"
   inkscape:export-xdpi="270"
   inkscape:export-ydpi="270"
   height="16.003361"
   id="svg7384"
   style="enable-background:new"
   version="1.1"
   inkscape:version="0.91 r"
   width="16">
  <sodipodi:namedview
     inkscape:bbox-nodes="true"
     inkscape:bbox-paths="false"
     bordercolor="#666666"
     borderlayer="false"
     borderopacity="1"
     inkscape:current-layer="layer12"
     inkscape:cx="-9.5452956"
     inkscape:cy="2.0911827"
     gridtolerance="10"
     inkscape:guide-bbox="true"
     guidetolerance="10"
     id="namedview88"
     inkscape:object-nodes="true"
     inkscape:object-paths="true"
     objecttolerance="10"
     pagecolor="#f7f7f7"
     inkscape:pageopacity="0"
     inkscape:pageshadow="2"
     showborder="true"
     showgrid="false"
     showguides="true"
     inkscape:showpageshadow="false"
     inkscape:snap-bbox="true"
     inkscape:snap-bbox-edge-midpoints="false"
     inkscape:snap-bbox-midpoints="true"
     inkscape:snap-center="false"
     inkscape:snap-global="true"
     inkscape:snap-grids="true"
     inkscape:snap-intersection-paths="true"
     inkscape:snap-midpoints="true"
     inkscape:snap-nodes="true"
     inkscape:snap-object-midpoints="true"
     inkscape:snap-others="true"
     inkscape:snap-page="false"
     inkscape:snap-smooth-nodes="true"
     inkscape:snap-to-guides="true"
     inkscape:window-height="841"
     inkscape:window-maximized="1"
     inkscape:window-width="1600"
     inkscape:window-x="-4"
     inkscape:window-y="33"
     inkscape:zoom="12.239653">
    <inkscape:grid
       color="#000000"
       dotted="false"
       empcolor="#0800ff"
       empopacity="0.4627451"
       empspacing="4"
       enabled="true"
       id="grid4866"
       opacity="0.16470588"
       originx="-184.0002"
       originy="-296"
       snapvisiblegridlinesonly="true"
       spacingx="0.25px"
       spacingy="0.25px"
       type="xygrid"
       visible="true" />
  </sodipodi:namedview>
  <metadata
     id="metadata90">
    <rdf:RDF>
      <cc:Work
         rdf:about="">
        <dc:format>image/svg+xml</dc:format>
        <dc:type
           rdf:resource="http://purl.org/dc/dcmitype/StillImage" />
        <dc:title>Paper Symbolic Icon Theme</dc:title>
      </cc:Work>
    </rdf:RDF>
  </metadata>
  <title
     id="title8473">Paper Symbolic Icon Theme</title>
  <defs
     id="defs7386">
    <linearGradient
       id="linearGradient5606"
       osb:paint="solid">
      <stop
         id="stop5608"
         offset="0"
         style="stop-color:#000000;stop-opacity:1;" />
    </linearGradient>
  </defs>
  <g
     inkscape:groupmode="layer"
     id="layer12"
     inkscape:label="actions"
     style="display:inline"
     transform="translate(-425.0004,79.003361)">
    <path
       style="opacity:0.5;stroke:none"
       d="M 2 1.0039062 L 2 2.0039062 L 1 2.0039062 L 1 4.0039062 L 2 4.0039062 L 2 7.0039062 L 1 7.0039062 L 1 9.0039062 L 2 9.0039062 L 2 12.003906 L 1 12.003906 L 1 14.003906 L 2 14.003906 L 2 15.003906 L 4 15.003906 L 4 14.003906 L 7 14.003906 L 7 15.003906 L 9 15.003906 L 9 14.003906 L 12 14.003906 L 12 15.003906 L 14 15.003906 L 14 14.003906 L 15 14.003906 L 15 12.003906 L 14 12.003906 L 14 9.0039062 L 15 9.0039062 L 15 7.0039062 L 14 7.0039062 L 14 4.0039062 L 15 4.0039062 L 15 2.0039062 L 14 2.0039062 L 14 1.0039062 L 12 1.0039062 L 12 2.0039062 L 9 2.0039062 L 9 1.0039062 L 7 1.0039062 L 7 2.0039062 L 4 2.0039062 L 4 1.0039062 L 2 1.0039062 z M 4 4.0039062 L 7 4.0039062 L 7 7.0039062 L 4 7.0039062 L 4 4.0039062 z M 9 4.0039062 L 12 4.0039062 L 12 7.0039062 L 9 7.0039062 L 9 4.0039062 z M 4 9.0039062 L 7 9.0039062 L 7 12.003906 L 4 12.003906 L 4 9.0039062 z M 9 9.0039062 L 12 9.0039062 L 12 12.003906 L 9 12.003906 L 9 9.0039062 z "
       transform="translate(425.0004,-79.003361)"
       id="rect4161" />
  </g>
</svg>
