<?xml version="1.0" encoding="UTF-8" standalone="no"?>
<!-- Created with Inkscape (http://www.inkscape.org/) -->

<svg
   xmlns:osb="http://www.openswatchbook.org/uri/2009/osb"
   xmlns:dc="http://purl.org/dc/elements/1.1/"
   xmlns:cc="http://creativecommons.org/ns#"
   xmlns:rdf="http://www.w3.org/1999/02/22-rdf-syntax-ns#"
   xmlns:svg="http://www.w3.org/2000/svg"
   xmlns="http://www.w3.org/2000/svg"
   xmlns:sodipodi="http://sodipodi.sourceforge.net/DTD/sodipodi-0.dtd"
   xmlns:inkscape="http://www.inkscape.org/namespaces/inkscape"
   sodipodi:docname="im-google-talk.svg"
   inkscape:export-filename="/home/sam/source-symbolic.png"
   inkscape:export-xdpi="270"
   inkscape:export-ydpi="270"
   height="16"
   id="svg7384"
   style="enable-background:new"
   version="1.1"
   inkscape:version="0.91 r"
   width="16">
  <sodipodi:namedview
     inkscape:bbox-nodes="true"
     inkscape:bbox-paths="false"
     bordercolor="#666666"
     borderlayer="false"
     borderopacity="1"
     inkscape:current-layer="layer12"
     inkscape:cx="-3.396895"
     inkscape:cy="4.1989792"
     gridtolerance="10"
     inkscape:guide-bbox="true"
     guidetolerance="10"
     id="namedview88"
     inkscape:object-nodes="true"
     inkscape:object-paths="true"
     objecttolerance="10"
     pagecolor="#f7f7f7"
     inkscape:pageopacity="0"
     inkscape:pageshadow="2"
     showborder="true"
     showgrid="false"
     showguides="false"
     inkscape:showpageshadow="false"
     inkscape:snap-bbox="true"
     inkscape:snap-bbox-edge-midpoints="false"
     inkscape:snap-bbox-midpoints="true"
     inkscape:snap-center="false"
     inkscape:snap-global="true"
     inkscape:snap-grids="true"
     inkscape:snap-intersection-paths="true"
     inkscape:snap-midpoints="true"
     inkscape:snap-nodes="true"
     inkscape:snap-object-midpoints="true"
     inkscape:snap-others="true"
     inkscape:snap-page="false"
     inkscape:snap-smooth-nodes="true"
     inkscape:snap-to-guides="true"
     inkscape:window-height="842"
     inkscape:window-maximized="1"
     inkscape:window-width="1600"
     inkscape:window-x="-4"
     inkscape:window-y="32"
     inkscape:zoom="16.15">
    <inkscape:grid
       color="#000000"
       dotted="false"
       empcolor="#0800ff"
       empopacity="0.4627451"
       empspacing="4"
       enabled="true"
       id="grid4866"
       opacity="0.16470588"
       originx="-184.0002"
       originy="-336.00336"
       snapvisiblegridlinesonly="true"
       spacingx="0.25px"
       spacingy="0.25px"
       type="xygrid"
       visible="true" />
  </sodipodi:namedview>
  <metadata
     id="metadata90">
    <rdf:RDF>
      <cc:Work
         rdf:about="">
        <dc:format>image/svg+xml</dc:format>
        <dc:type
           rdf:resource="http://purl.org/dc/dcmitype/StillImage" />
        <dc:title>Paper Symbolic Icon Theme</dc:title>
      </cc:Work>
    </rdf:RDF>
  </metadata>
  <title
     id="title8473">Paper Symbolic Icon Theme</title>
  <defs
     id="defs7386">
    <linearGradient
       id="linearGradient5606"
       osb:paint="solid">
      <stop
         id="stop5608"
         offset="0"
         style="stop-color:#000000;stop-opacity:1;" />
    </linearGradient>
  </defs>
  <g
     inkscape:groupmode="layer"
     id="layer12"
     inkscape:label="actions"
     style="display:inline"
     transform="translate(-425.0004,119.00336)">
    <path
       style="opacity:0.5;fill:#000000;fill-opacity:1"
       d="m 433.78478,-118.00301 c -0.49361,0 -1.02865,0.0627 -1.60499,0.18337 -0.56518,0.12304 -1.10597,0.39885 -1.62139,0.82687 -0.38684,0.34639 -0.67461,0.73798 -0.86691,1.17767 -0.19231,0.42803 -0.28934,0.85898 -0.28934,1.28701 0,0.35513 0.0657,0.70864 0.19872,1.06377 0.1308,0.34406 0.32325,0.64912 0.57648,0.92028 0.25324,0.26883 0.56556,0.48973 0.93899,0.66059 0.37118,0.15919 0.79943,0.23918 1.27963,0.23918 l 0.28824,0 c 0.0961,-0.014 0.19319,-0.0259 0.28934,-0.0376 -0.0481,0.10905 -0.0909,0.21891 -0.12774,0.33029 -0.0352,0.098 -0.0523,0.22577 -0.0523,0.38497 0,0.28282 0.0526,0.51932 0.16158,0.71525 0.12019,0.18427 0.24697,0.36217 0.37778,0.53303 -0.20293,0.014 -0.44334,0.0331 -0.72061,0.0558 -0.27728,0.0251 -0.56966,0.0686 -0.88438,0.12984 -0.3125,0.0612 -0.63116,0.14121 -0.95427,0.23918 -0.3125,0.10963 -0.60713,0.25054 -0.88439,0.4214 -0.52884,0.31898 -0.88856,0.68556 -1.0831,1.10251 -0.20293,0.42802 -0.30572,0.80888 -0.30572,1.13894 0,0.34172 0.0788,0.66768 0.23366,0.97266 0.15708,0.31898 0.39743,0.60135 0.72279,0.8451 0.3231,0.24725 0.72737,0.44305 1.20757,0.58883 0.49306,0.14812 1.06348,0.22096 1.71419,0.22096 0.76864,0 1.44758,-0.10506 2.03736,-0.31207 0.60094,-0.19535 1.10053,-0.46037 1.498,-0.79043 0.39523,-0.31898 0.6967,-0.68556 0.90186,-1.1025 0.20292,-0.41461 0.30572,-0.83848 0.30572,-1.26651 0,-0.31897 -0.0417,-0.59901 -0.12666,-0.84509 -0.0827,-0.24376 -0.19861,-0.46466 -0.34284,-0.66059 -0.13081,-0.19594 -0.29465,-0.3804 -0.48696,-0.55125 -0.17888,-0.17086 -0.36671,-0.34395 -0.55902,-0.51481 l -0.64855,-0.5148 c -0.0961,-0.0845 -0.19889,-0.18247 -0.3079,-0.29385 -0.10677,-0.12071 -0.16159,-0.28728 -0.16159,-0.4943 0,-0.20993 0.0548,-0.38068 0.16159,-0.5148 0.10901,-0.13413 0.22265,-0.26425 0.34284,-0.38496 0.1923,-0.14812 0.38014,-0.30095 0.55902,-0.46014 0.18112,-0.17086 0.34273,-0.35532 0.48696,-0.55125 0.14423,-0.20702 0.26011,-0.43987 0.34284,-0.69704 0.0855,-0.25716 0.12664,-0.55804 0.12664,-0.89976 0,-0.34406 -0.0479,-0.64911 -0.14412,-0.92027 -0.0962,-0.26883 -0.20979,-0.5011 -0.34284,-0.69704 -0.1308,-0.2076 -0.27067,-0.38068 -0.41489,-0.5148 -0.14422,-0.14579 -0.27099,-0.26222 -0.37777,-0.34852 l 0,-0.004 1.11803,0 1.15407,-0.66172 -3.71552,0 z m -1.13442,0.60705 c 0.3712,0 0.69556,0.11643 0.97283,0.34852 0.28845,0.22101 0.52831,0.50105 0.72061,0.8451 0.19175,0.34172 0.33622,0.71063 0.43237,1.1025 0.0962,0.39128 0.14412,0.75194 0.14412,1.082 0,0.17261 -0.024,0.38748 -0.0721,0.64464 -0.048,0.25717 -0.17484,0.49002 -0.37777,0.69704 -0.14423,0.14812 -0.33206,0.26877 -0.55902,0.36674 -0.21475,0.0975 -0.43689,0.14759 -0.66493,0.14807 l -0.004,0 c -0.38321,-5.9e-4 -0.71798,-0.11226 -1.00559,-0.3303 -0.27727,-0.23209 -0.51084,-0.51504 -0.70314,-0.8451 -0.18112,-0.33006 -0.31875,-0.68585 -0.4149,-1.06605 -0.0855,-0.38079 -0.12774,-0.72235 -0.12774,-1.02733 0,-0.24551 0.0251,-0.48545 0.0731,-0.71754 0.0587,-0.23267 0.16724,-0.44643 0.32209,-0.64236 0.14423,-0.18486 0.32982,-0.33054 0.55902,-0.44192 0.22697,-0.10905 0.46386,-0.16401 0.70424,-0.16401 z m 0.63327,8.19017 0.25112,0 0.21619,0 c 0.061,0 0.1255,0.007 0.19761,0.0182 0.33653,0.24608 0.63116,0.46465 0.88439,0.66059 0.25324,0.19593 0.45762,0.38808 0.6147,0.5706 0.15486,0.18428 0.26963,0.36759 0.34174,0.55011 0.0833,0.19594 0.12775,0.41142 0.12775,0.64351 l 9.6e-4,-10e-4 c 0,0.57614 -0.22952,1.04778 -0.68568,1.41457 -0.44553,0.38079 -1.10154,0.57061 -1.96858,0.57061 -0.97381,0 -1.74926,-0.20719 -2.32561,-0.62414 -0.56573,-0.41694 -0.84727,-0.95546 -0.84727,-1.61616 0,-0.33239 0.0589,-0.60587 0.17907,-0.82688 0.1336,-0.22101 0.28375,-0.40432 0.45202,-0.55011 0.16771,-0.14812 0.33616,-0.2651 0.50443,-0.34965 0.18111,-0.0752 0.31874,-0.12955 0.4149,-0.16629 0.19173,-0.0612 0.39097,-0.11505 0.59613,-0.16287 0.20293,-0.0385 0.39537,-0.0683 0.57649,-0.0934 0.18113,-0.0117 0.33644,-0.0259 0.46949,-0.0376 z"
       id="path5128"
       inkscape:connector-curvature="0" />
  </g>
</svg>
