<?xml version="1.0" encoding="UTF-8" standalone="no"?>
<!-- Created with Inkscape (http://www.inkscape.org/) -->

<svg
   xmlns:dc="http://purl.org/dc/elements/1.1/"
   xmlns:cc="http://creativecommons.org/ns#"
   xmlns:rdf="http://www.w3.org/1999/02/22-rdf-syntax-ns#"
   xmlns:svg="http://www.w3.org/2000/svg"
   xmlns="http://www.w3.org/2000/svg"
   xmlns:sodipodi="http://sodipodi.sourceforge.net/DTD/sodipodi-0.dtd"
   xmlns:inkscape="http://www.inkscape.org/namespaces/inkscape"
   width="16"
   height="16"
   id="svg2"
   version="1.1"
   inkscape:version="0.91 r13725"
   viewBox="0 0 16 16"
   sodipodi:docname="kstars_hgrid.svg">
  <defs
     id="defs4">
    <style
       type="text/css"
       id="current-color-scheme">
      .ColorScheme-Text {
        color:#4d4d4d;
      }
      .ColorScheme-Background {
        color:#eff0f1;
      }
      .ColorScheme-Highlight {
        color:#3daee9;
      }
      .ColorScheme-ViewText {
        color:#31363b;
      }
      .ColorScheme-ViewBackground {
        color:#fcfcfc;
      }
      .ColorScheme-ViewHover {
        color:#93cee9;
      }
      .ColorScheme-ViewFocus{
        color:#3daee9;
      }
      .ColorScheme-ButtonText {
        color:#31363b;
      }
      .ColorScheme-ButtonBackground {
        color:#eff0f1;
      }
      .ColorScheme-ButtonHover {
        color:#93cee9;
      }
      .ColorScheme-ButtonFocus{
        color:#3daee9;
      }
      </style>
    <clipPath
       clipPathUnits="userSpaceOnUse"
       id="clipPath3979">
      <rect
         style="fill:#000000"
         id="rect3981"
         width="64"
         height="64"
         x="0.090115756"
         y="-0.090114839"
         clip-path="none" />
    </clipPath>
  </defs>
  <sodipodi:namedview
     id="base"
     pagecolor="#ffffff"
     bordercolor="#666666"
     borderopacity="1.0"
     inkscape:pageopacity="0.0"
     inkscape:pageshadow="2"
     inkscape:zoom="16"
     inkscape:cx="-7.240691"
     inkscape:cy="9.099579"
     inkscape:document-units="px"
     inkscape:current-layer="layer1"
     showgrid="false"
     inkscape:showpageshadow="false"
     units="px"
     inkscape:window-width="1600"
     inkscape:window-height="847"
     inkscape:window-x="0"
     inkscape:window-y="30"
     inkscape:window-maximized="1"
     inkscape:object-nodes="true"
     inkscape:snap-bbox="true"
     showguides="false">
    <inkscape:grid
       type="xygrid"
       id="grid4120" />
    <sodipodi:guide
       position="2,20.000017"
       orientation="18,0"
       id="guide4126" />
    <sodipodi:guide
       position="2,2.0000174"
       orientation="0,18"
       id="guide4128" />
    <sodipodi:guide
       position="20,2.0000174"
       orientation="-18,0"
       id="guide4130" />
    <sodipodi:guide
       position="20,20.000017"
       orientation="0,-18"
       id="guide4132" />
    <sodipodi:guide
       position="3,19.000017"
       orientation="16,0"
       id="guide4134" />
    <sodipodi:guide
       position="3,3.0000174"
       orientation="0,16"
       id="guide4136" />
    <sodipodi:guide
       position="19,3.0000174"
       orientation="-16,0"
       id="guide4138" />
    <sodipodi:guide
       position="19,19.000017"
       orientation="0,-16"
       id="guide4140" />
    <sodipodi:guide
       position="19,13.000017"
       orientation="-6,0"
       id="guide4199" />
    <sodipodi:guide
       position="19,19.000017"
       orientation="0,-6.0000172"
       id="guide4201" />
  </sodipodi:namedview>
  <metadata
     id="metadata7">
    <rdf:RDF>
      <cc:Work
         rdf:about="">
        <dc:format>image/svg+xml</dc:format>
        <dc:type
           rdf:resource="http://purl.org/dc/dcmitype/StillImage" />
        <dc:title></dc:title>
      </cc:Work>
    </rdf:RDF>
  </metadata>
  <g
     inkscape:label="Capa 1"
     inkscape:groupmode="layer"
     id="layer1"
     transform="translate(0,-1036.3622)">
    <path
       style="opacity:0.5;fill:#000000;fill-opacity:1;stroke:none"
       clip-path="url(#clipPath3979)"
       d="M 7.0292969,3 6.3261719,4.8085938 C 5.1833461,4.464661 4.0671267,4.0048523 3,3.4238281 L 3,4.8125 C 3.9327177,5.2774969 4.8919014,5.6700934 5.875,5.9707031 L 4.3808594,9.8164062 C 3.9115799,9.6023655 3.4530817,9.357457 3,9.0996094 l 0,1.4082026 c 0.3087318,0.159083 0.6167933,0.321021 0.9316406,0.462891 L 3,13.369141 3,16.787109 3.054687,16.646484 c 2.3067681,1.125432 4.795694,1.744565 7.306641,1.867188 l 0.002,0.486328 1.236328,0 0,-0.464844 C 14.129441,18.492831 16.651088,17.948264 19,16.890625 L 19,13.1875 18.308594,11.40625 C 18.542951,11.317482 18.768474,11.201572 19,11.103516 L 19,9.7578125 C 18.622576,9.9307686 18.245536,10.103756 17.859375,10.25 L 16.263672,6.1425781 C 17.194277,5.892995 18.109273,5.5703486 19,5.1777344 L 19,3.8046875 C 17.969815,4.2998874 16.904976,4.698391 15.814453,4.9824219 L 15.042969,3 13.705078,3 14.583984,5.2558594 C 13.590083,5.4395533 12.583694,5.5360425 11.576172,5.546875 L 11.570312,3 l -1.248046,0 0.0078,2.5175781 C 9.3931694,5.461217 8.4588807,5.3351463 7.5390625,5.1289062 L 8.3671875,3 7.0292969,3 Z m 0.054687,3.2949219 c 1.0694685,0.2502796 2.1564375,0.4002698 3.2480471,0.4609375 l 0.01172,4.5859376 C 8.70767,11.219971 7.0855765,10.87057 5.5292969,10.291016 L 7.0839844,6.2949219 Z m 7.9570321,0.1347656 1.642577,4.2187505 c -1.66071,0.496891 -3.378369,0.748636 -5.097655,0.742187 l -0.0078,-4.6054688 c 1.16097,-0.012105 2.31986,-0.1294896 3.46289,-0.3554687 z M 5.0800781,11.445312 c 1.7020608,0.634169 3.4770466,1.011483 5.2675779,1.134766 l 0.01172,4.695313 C 8.0026295,17.150863 5.670575,16.550685 3.5097656,15.478516 l 1.5703125,-4.033204 z m 12.0546879,0.359376 1.511718,3.878906 c -2.233304,1.034504 -4.636995,1.573146 -7.050781,1.615234 l -0.0078,-4.671875 c 1.871445,0.0056 3.741601,-0.272233 5.546875,-0.822265 z"
       transform="translate(-3,1033.3622)"
       id="path3368"
       inkscape:connector-curvature="0" />
  </g>
</svg>
