<?xml version="1.0" encoding="UTF-8" standalone="no"?>
<!-- Created with Inkscape (http://www.inkscape.org/) -->

<svg
   xmlns:osb="http://www.openswatchbook.org/uri/2009/osb"
   xmlns:dc="http://purl.org/dc/elements/1.1/"
   xmlns:cc="http://creativecommons.org/ns#"
   xmlns:rdf="http://www.w3.org/1999/02/22-rdf-syntax-ns#"
   xmlns:svg="http://www.w3.org/2000/svg"
   xmlns="http://www.w3.org/2000/svg"
   xmlns:sodipodi="http://sodipodi.sourceforge.net/DTD/sodipodi-0.dtd"
   xmlns:inkscape="http://www.inkscape.org/namespaces/inkscape"
   sodipodi:docname="tool-spray.svg"
   inkscape:export-filename="/home/sam/source-symbolic.png"
   inkscape:export-xdpi="270"
   inkscape:export-ydpi="270"
   height="16"
   id="svg7384"
   style="enable-background:new"
   version="1.1"
   inkscape:version="0.91 r"
   width="16">
  <sodipodi:namedview
     inkscape:bbox-nodes="true"
     inkscape:bbox-paths="false"
     bordercolor="#666666"
     borderlayer="false"
     borderopacity="1"
     inkscape:current-layer="layer12"
     inkscape:cx="7.7042678"
     inkscape:cy="1.2073171"
     gridtolerance="10"
     inkscape:guide-bbox="true"
     guidetolerance="10"
     id="namedview88"
     inkscape:object-nodes="true"
     inkscape:object-paths="true"
     objecttolerance="10"
     pagecolor="#f7f7f7"
     inkscape:pageopacity="0"
     inkscape:pageshadow="2"
     showborder="true"
     showgrid="false"
     showguides="true"
     inkscape:showpageshadow="false"
     inkscape:snap-bbox="true"
     inkscape:snap-bbox-edge-midpoints="false"
     inkscape:snap-bbox-midpoints="true"
     inkscape:snap-center="false"
     inkscape:snap-global="true"
     inkscape:snap-grids="true"
     inkscape:snap-intersection-paths="true"
     inkscape:snap-midpoints="true"
     inkscape:snap-nodes="true"
     inkscape:snap-object-midpoints="true"
     inkscape:snap-others="true"
     inkscape:snap-page="false"
     inkscape:snap-smooth-nodes="true"
     inkscape:snap-to-guides="true"
     inkscape:window-height="841"
     inkscape:window-maximized="1"
     inkscape:window-width="1600"
     inkscape:window-x="-4"
     inkscape:window-y="33"
     inkscape:zoom="13.12">
    <inkscape:grid
       color="#000000"
       dotted="false"
       empcolor="#0800ff"
       empopacity="0.4627451"
       empspacing="4"
       enabled="true"
       id="grid4866"
       opacity="0.16470588"
       originx="-24.000624"
       originy="-236.00334"
       snapvisiblegridlinesonly="true"
       spacingx="0.25px"
       spacingy="0.25px"
       type="xygrid"
       visible="true" />
  </sodipodi:namedview>
  <metadata
     id="metadata90">
    <rdf:RDF>
      <cc:Work
         rdf:about="">
        <dc:format>image/svg+xml</dc:format>
        <dc:type
           rdf:resource="http://purl.org/dc/dcmitype/StillImage" />
        <dc:title>Paper Symbolic Icon Theme</dc:title>
      </cc:Work>
    </rdf:RDF>
  </metadata>
  <title
     id="title8473">Paper Symbolic Icon Theme</title>
  <defs
     id="defs7386">
    <linearGradient
       id="linearGradient5606"
       osb:paint="solid">
      <stop
         id="stop5608"
         offset="0"
         style="stop-color:#000000;stop-opacity:1;" />
    </linearGradient>
  </defs>
  <g
     inkscape:groupmode="layer"
     id="layer12"
     inkscape:label="actions"
     style="display:inline"
     transform="translate(-265.00082,19.003342)">
    <g
       id="g4172"
       transform="matrix(0.98650562,0.16372743,-0.16372743,0.98650562,1.8824293,-44.846209)"
       style="opacity:0.5">
      <g
         id="g4162"
         style="">
        <path
           style="stroke:none"
           d="M 8.8066406 1.0683594 A 2 2 0 0 0 6.8457031 2.7402344 A 2 2 0 0 0 8.4902344 5.0410156 A 2 2 0 0 0 10.791016 3.3945312 A 2 2 0 0 0 9.1464844 1.09375 A 2 2 0 0 0 8.8066406 1.0683594 z M 4.5820312 2.4140625 A 1 1 0 0 0 3.5820312 3.4140625 A 1 1 0 0 0 4.5820312 4.4140625 A 1 1 0 0 0 5.5820312 3.4140625 A 1 1 0 0 0 4.5820312 2.4140625 z M 12.902344 3.3867188 A 1 1 0 0 0 11.902344 4.3867188 A 1 1 0 0 0 12.902344 5.3867188 A 1 1 0 0 0 13.902344 4.3867188 A 1 1 0 0 0 12.902344 3.3867188 z M 3.0546875 5.1816406 A 2 2 0 0 0 1.09375 6.8535156 A 2 2 0 0 0 2.7402344 9.1542969 A 2 2 0 0 0 5.0410156 7.5097656 A 2 2 0 0 0 3.3945312 5.2089844 A 2 2 0 0 0 3.0546875 5.1816406 z M 8.2402344 6.6074219 A 1 1 0 0 0 7.2402344 7.6074219 A 1 1 0 0 0 8.2402344 8.6074219 A 1 1 0 0 0 9.2402344 7.6074219 A 1 1 0 0 0 8.2402344 6.6074219 z M 12.919922 6.8183594 A 2 2 0 0 0 10.958984 8.4902344 A 2 2 0 0 0 12.605469 10.791016 A 2 2 0 0 0 14.90625 9.1464844 A 2 2 0 0 0 13.259766 6.8457031 A 2 2 0 0 0 12.919922 6.8183594 z M 2.9921875 10.400391 A 1 1 0 0 0 1.9921875 11.400391 A 1 1 0 0 0 2.9921875 12.400391 A 1 1 0 0 0 3.9921875 11.400391 A 1 1 0 0 0 2.9921875 10.400391 z M 7.1679688 10.931641 A 2 2 0 0 0 5.2089844 12.605469 A 2 2 0 0 0 6.8535156 14.90625 A 2 2 0 0 0 9.1542969 13.259766 A 2 2 0 0 0 7.5097656 10.958984 A 2 2 0 0 0 7.1679688 10.931641 z M 11.757812 12 A 1 1 0 0 0 10.757812 13 A 1 1 0 0 0 11.757812 14 A 1 1 0 0 0 12.757812 13 A 1 1 0 0 0 11.757812 12 z "
           transform="matrix(0.98650561,-0.16372743,0.16372743,0.98650561,263.79895,-17.585564)"
           id="path4157" />
      </g>
      <g
         transform="matrix(0,1,-1,0,261.99748,-284.00416)"
         id="g4166"
         style="" />
    </g>
  </g>
</svg>
