<?xml version="1.0" encoding="UTF-8" standalone="no"?>
<!-- Created with Inkscape (http://www.inkscape.org/) -->
<svg id="svg5048" xmlns:rdf="http://www.w3.org/1999/02/22-rdf-syntax-ns#" xmlns="http://www.w3.org/2000/svg" height="48" width="48" version="1.1" xmlns:cc="http://creativecommons.org/ns#" xmlns:xlink="http://www.w3.org/1999/xlink" xmlns:dc="http://purl.org/dc/elements/1.1/">
 <defs id="defs5050">
  <style id="current-color-scheme" type="text/css">.ColorScheme-Text {
        color:#31363b;
      }
      .ColorScheme-Background{
        color:#eff0f1;
      }
      .ColorScheme-ViewText {
        color:#31363b;
      }
      .ColorScheme-ViewBackground{
        color:#fcfcfc;
      }
      .ColorScheme-ViewHover {
        color:#3daee9;
      }
      .ColorScheme-ViewFocus{
        color:#3daee9;
      }
      .ColorScheme-ButtonText {
        color:#31363b;
      }
      .ColorScheme-ButtonBackground{
        color:#eff0f1;
      }
      .ColorScheme-ButtonHover {
        color:#3daee9;
      }
      .ColorScheme-ButtonFocus{
        color:#3daee9;
      }</style>
 </defs>
 <metadata id="metadata5053">
  <rdf:RDF>
   <cc:Work rdf:about="">
    <dc:format>image/svg+xml</dc:format>
    <dc:type rdf:resource="http://purl.org/dc/dcmitype/StillImage"/>
    <dc:title/>
   </cc:Work>
  </rdf:RDF>
 </metadata>
 <g id="layer1" transform="translate(0 -1004.4)">
  <rect id="rect3024" ry="10" fill-opacity="0" transform="translate(0 52.362)" height="60" width="20" y="543" x="864"/>
  <path id="path4077" style="enable-background:new" fill="#d70751" d="m36.281 1025.5c0.04003 1.0794-0.31361 1.6039-0.63346 2.5313l-0.5752 0.2873c-0.47021 0.9176 0.0467 0.5825-0.29004 1.3122-0.7349 0.6554-2.2269 2.05-2.7047 2.1778-0.34921-0.01 0.23621-0.4137 0.31273-0.5723-0.98268 0.6773-0.78872 1.0169-2.2919 1.4291l-0.04361-0.099c-3.7056 1.7512-8.8534-1.7186-8.7858-6.4523-0.03913 0.3002-0.11254 0.2251-0.1944 0.3457-0.19128-2.4352 1.1201-4.8811 3.332-5.8814 2.1633-1.0749 4.6994-0.6344 6.248 0.8171-0.85057-1.1195-2.545-2.3065-4.5517-2.1966-1.9667 0.032-3.807 1.287-4.4209 2.65-1.0071 0.6367-1.1246 2.4554-1.5632 2.7886-0.5912 4.3603 1.1108 6.2434 3.9903 8.4597 0.45197 0.3064 0.12723 0.3533 0.18773 0.5866-0.95644-0.4495-1.8319-1.1285-2.5526-1.9599 0.38257 0.5615 0.79495 1.1075 1.3283 1.5363-0.9026-0.306-2.1077-2.1948-2.4587-2.2717 1.5548 2.7958 6.3071 4.9031 8.797 3.8572-1.1522 0.043-2.6153 0.024-3.9089-0.4565-0.54495-0.281-1.283-0.8623-1.1508-0.9708 3.3969 1.2737 6.905 0.9641 9.8437-1.4015 0.74824-0.5852 1.565-1.5801 1.8012-1.5935-0.35544 0.537 0.06094 0.2582-0.2122 0.7322 0.74379-1.2066-0.3243-0.4914 0.76959-2.0836l0.40393 0.5584c-0.15126-1.0025 1.2389-2.2185 1.0974-3.8027 0.31896-0.4843 0.35545 0.5218 0.01743 1.636 0.46932-1.2362 0.12411-1.435 0.24422-2.4554 0.12946 0.3432 0.30162 0.7073 0.38925 1.0696-0.30606-1.1951 0.31273-2.0117 0.46665-2.7064-0.15214-0.067-0.47199 0.528-0.54583-0.8828 0.01115-0.6129 0.17037-0.3212 0.23132-0.4722-0.11922-0.069-0.43373-0.5392-0.62458-1.4403 0.13746-0.2122 0.37012 0.549 0.55874 0.5799-0.12144-0.7162-0.33008-1.2625-0.33898-1.8125-0.55162-1.1571-0.1953 0.1546-0.64192-0.4968-0.58721-1.8379 0.48667-0.4266 0.55963-1.2611 0.88881 1.2933 1.3955 3.2992 1.629 4.1297-0.17794-1.0128-0.46487-1.9943-0.81586-2.9436 0.27092 0.1147-0.4355-2.0832 0.35188-0.6277-0.84033-3.1027-3.5935-6.0022-6.127-7.362 0.30917 0.2845 0.70021 0.642 0.56052 0.6983-1.2607-0.7528-1.0392-0.8122-1.2198-1.1303-1.0254-0.4195-1.0939 0.034-1.7723 0.0008-1.9351-1.0311-2.3079-0.9217-4.0886-1.5668l0.08095 0.3806c-1.2816-0.4288-1.4934 0.1618-2.8782 0.0008-0.08404-0.066 0.44396-0.2395 0.87902-0.3025-1.2393 0.1643-1.1815-0.2457-2.3942 0.045 0.2985-0.2105 0.61523-0.3503 0.93374-0.529-1.0103 0.062-2.4129 0.5906-1.98 0.109-1.6482 0.7389-4.5758 1.7757-6.2186 3.3228l-0.05158-0.3467c-0.75268 0.9074-3.2826 2.71-3.4841 3.8863l-0.20151 0.047c-0.39102 0.6661-0.64504 1.4206-0.95555 2.1055-0.51202 0.877-0.75091 0.3378-0.67795 0.4754-1.0076 2.0514-1.5089 3.775-1.9409 5.1894 0.30784 0.4624 0.00697 2.7841 0.12367 4.6421-0.50536 9.178 6.4139 18.088 13.977 20.145 1.1086 0.399 2.7567 0.3847 4.1589 0.424-1.654-0.4753-1.8675-0.2516-3.4796-0.8159-1.1624-0.5504-1.4169-1.1779-2.2407-1.8959l0.32608 0.5786c-1.6148-0.5741-0.93908-0.7104-2.2532-1.1281l0.34832-0.4561c-0.5236-0.04-1.3866-0.8854-1.6224-1.355l-0.57297 0.023c-0.68775-0.8514-1.0547-1.4667-1.0276-1.9433l-0.18506 0.3315c-0.20953-0.3614-2.5317-3.1978-1.327-2.5375-0.22376-0.2046-0.52136-0.3337-0.84388-0.923l0.24512-0.281c-0.57875-0.7492-1.0668-1.7092-1.0294-2.0291 0.30917 0.4192 0.52359 0.4977 0.73622 0.5696-1.464-3.6472-1.5463-0.2005-2.6544-3.7125l0.23399-0.019c-0.17928-0.2729-0.28916-0.5673-0.43328-0.8573l0.10232-1.0208c-1.0534-1.2222-0.2945-5.2023-0.14191-7.3847 0.10454-0.8873 0.87947-1.8322 1.468-3.314l-0.35855-0.062c0.68596-1.2009 3.9156-4.8244 5.4121-4.6386 0.72466-0.914-0.14414 0-0.28604-0.2332 1.5921-1.6542 2.0926-1.1687 3.1669-1.4667 1.1579-0.6902-0.99424 0.2699-0.4453-0.263 2.0032-0.5133 1.4191-1.1678 4.0317-1.4283 0.2758 0.1573-0.63926 0.243-0.8688 0.4472 1.6682-0.8202 5.28-0.633 7.627 0.4548 2.7212 1.2782 5.7804 5.0545 5.9014 8.6075l0.13746 0.037c-0.0694 1.4126 0.2153 3.0464-0.27892 4.5466l0.33408-0.7108"/>
  <path id="path4381" opacity=".3" style="enable-background:new" transform="translate(0 1004.4)" d="m25.088 6.6816c-1.003 0.0299-1.902 0.1964-2.527 0.5039 0.229-0.2042 1.144-0.2899 0.869-0.4472-2.613 0.2605-2.028 0.9144-4.032 1.4277-0.549 0.5329 1.604-0.4265 0.446 0.2637-1.075 0.298-1.576-0.1874-3.168 1.4668 0.142 0.2335 1.012-0.6816 0.287 0.2325-1.497-0.1859-4.726 3.438-5.412 4.639l0.357 0.062c-0.588 1.482-1.362 2.425-1.467 3.313-0.1 1.441-0.4554 3.656-0.388 5.353 0.057-1.502 0.307-3.183 0.388-4.353 0.105-0.888 0.879-1.831 1.467-3.313l-0.357-0.062c0.686-1.201 3.915-4.825 5.412-4.639 0.725-0.914-0.145 0.001-0.287-0.233 1.592-1.6537 2.093-1.1683 3.168-1.4663 1.158-0.6902-0.995 0.2692-0.446-0.2637 2.004-0.5133 1.419-1.1672 4.032-1.4277 0.275 0.1573-0.64 0.243-0.869 0.4472 1.668-0.8202 5.279-0.6327 7.627 0.4551 2.721 1.2782 5.779 5.0544 5.9 8.6074l0.135 0.037c-0.008-0.342-0.012-0.677 0.004-1l-0.139-0.037c-0.121-3.553-3.179-7.3292-5.9-8.6074-1.467-0.6798-3.428-1.0088-5.1-0.959zm13.283 5.5254c-0.073 0.834-1.146-0.575-0.56 1.26 0.091 0 0.2 0.023 0.302 0.025 0.016-0.024 0.035-0.036 0.071-0.002 0.094-0.018 0.17-0.085 0.187-0.283 0.889 1.293 1.395 3.298 1.629 4.129-0.178-1.013-0.465-1.994-0.816-2.943 0.098 0.041 0.064-0.226 0.023-0.508-0.233-0.593-0.499-1.187-0.836-1.678zm0.822 0.578c0.031 0.21 0.064 0.423 0.051 0.533 0.059 0.053 0.141 0.169 0.291 0.448-0.089-0.33-0.211-0.657-0.342-0.981zm-13.089 2.035c-0.412 0.007-0.815 0.078-1.206 0.182-0.164 0.063-0.331 0.117-0.492 0.197-2.212 1.001-3.523 3.446-3.332 5.881 0.005-0.007 0.009-0.006 0.014-0.012 0.185-2.074 1.414-4.008 3.318-4.869 2.164-1.075 4.7-0.635 6.248 0.817-0.85-1.12-2.544-2.306-4.55-2.196zm12.185 0.34c-0.02 0-0.037 0.011-0.055 0.037 0.142 0.671 0.351 1.101 0.498 1.307-0.083-0.401-0.18-0.77-0.236-1.104-0.075-0.127-0.147-0.238-0.207-0.24zm0.486 1.533c-0.019 0.001-0.037 0.007-0.056 0.018 0.024 0.023 0.05 0.062 0.074 0.066-0.005-0.031-0.012-0.053-0.018-0.084zm-0.111 0.692c0.014 0.123 0.026 0.26 0.045 0.34 0.052-0.044 0.114-0.004 0.148-0.088-0.043-0.025-0.114-0.121-0.193-0.252zm-2.437 0.142c-0.01 0.418-0.006 0.85 0.005 1.293 0.009-0.435 0.006-0.868-0.005-1.293zm-28.1 0.866c-0.0376 0.123-0.0906 0.277-0.127 0.396 0.077 0.116 0.1159 0.347 0.1328 0.658 0.0089-0.401 0.0131-0.77-0.0058-1.054zm31.045 0.599c-0.088-0.039-0.231 0.136-0.352 0.024-0.153 0.446-0.263 0.953-0.134 1.566 0.111-0.624 0.386-1.139 0.486-1.59zm-0.856 0.637c-0.051 0.436-0.018 0.719 0 1 0.13 0.343 0.301 0.708 0.389 1.07-0.104-0.404-0.082-0.754-0.027-1.082-0.092-0.335-0.242-0.671-0.362-0.988zm-2.035 0.492l-0.072 0.152c-0.033 0.526-0.094 1.049-0.262 1.557l0.039-0.082c0.179-0.476 0.32-0.951 0.295-1.627zm1.881 0.213c-0.031 0.017-0.067 0.055-0.107 0.115 0.141 1.584-1.249 2.8-1.098 3.803l-0.404-0.559c-1.094 1.593-0.026 0.878-0.77 2.084 0.273-0.474-0.142-0.195 0.213-0.732-0.236 0.013-1.052 1.008-1.801 1.594-2.938 2.365-6.447 2.674-9.843 1.4-0.133 0.109 0.605 0.69 1.15 0.971 1.294 0.48 2.756 0.5 3.908 0.457-1.409 0.592-3.532 0.153-5.4-0.828 0.034 0.027 0.064 0.053 0.099 0.08 0.452 0.306 0.127 0.352 0.188 0.586-0.957-0.45-1.832-1.128-2.553-1.959 0.383 0.561 0.795 1.106 1.328 1.535-0.902-0.306-2.108-2.195-2.459-2.272 1.555 2.796 6.307 4.904 8.797 3.858-1.152 0.043-2.614 0.023-3.908-0.457-0.545-0.281-1.283-0.862-1.15-0.971 3.396 1.274 6.905 0.965 9.843-1.4 0.749-0.586 1.565-1.581 1.801-1.594-0.355 0.537 0.06 0.258-0.213 0.732 0.744-1.206-0.324-0.491 0.77-2.084l0.404 0.559c-0.151-1.003 1.239-2.219 1.098-3.803 0.082-0.125 0.144-0.144 0.187-0.094 0.11-0.64 0.079-1.107-0.08-1.021zm0.131 0.947c-0.007 0.045-0.023 0.103-0.033 0.151 0.089 0.22 0.043 0.892-0.188 1.652 0.35-0.92 0.246-1.266 0.221-1.803zm-18.27 0.213c-0.099 2.79 0.926 4.463 2.661 6.033-0.355-0.358-0.656-0.764-0.94-1.181 0.721 0.831 1.596 1.509 2.553 1.959-0.061-0.234 0.264-0.28-0.188-0.586-2.332-1.796-3.891-3.373-4.086-6.225zm-11.916 0.08c-0.0133 0.552-0.0137 1.109 0.0117 1.653 0.0024-0.266-0.0107-0.529 0.0039-0.795-0.0173-0.276-0.0133-0.569-0.0156-0.858zm0.0117 2.619c-0.0956 8.904 6.6289 17.383 13.983 19.383 1.108 0.399 2.756 0.385 4.158 0.424-1.654-0.475-1.869-0.252-3.481-0.816-0.489-0.232-0.804-0.48-1.082-0.741-6.919-2.111-13.192-9.882-13.578-18.25zm2.3769 2.205l-0.016 0.151c0.03 0.058 0.055 0.117 0.082 0.176l0.02-0.198c-0.032-0.037-0.057-0.086-0.086-0.129zm12.34 1.27c0.079 0.069 0.147 0.14 0.228 0.209 0.003 0.001 0.006 0.003 0.008 0.004-0.083-0.067-0.158-0.141-0.236-0.213zm-10.201 3.103c0.07 0.319 0.318 0.829 0.658 1.348 0.013 0.005 0.028 0.015 0.041 0.02-0.282-0.703-0.503-1.091-0.699-1.368z"/>
  <path id="path4386" opacity=".2" style="enable-background:new" d="m23.51 4c-1.01 0.062-2.414 0.591-1.981 0.1094-1.648 0.7389-4.574 1.7751-6.217 3.3222l-0.052-0.3457c-0.753 0.9074-3.283 2.7085-3.485 3.8851l-0.201 0.047c-0.391 0.666-0.644 1.42-0.955 2.105-0.512 0.877-0.7506 0.339-0.6776 0.477-1.0076 2.051-1.5095 3.775-1.9414 5.189 0.0717 0.108 0.1083 0.323 0.127 0.604 0.4091-1.344 0.8916-2.915 1.8144-4.793-0.073-0.138 0.1656 0.4 0.6776-0.477 0.311-0.685 0.564-1.439 0.955-2.105l0.201-0.047c0.202-1.177 2.732-2.9777 3.485-3.8851l0.052 0.3457c1.643-1.5471 4.569-2.5833 6.217-3.3222-0.433 0.4816 0.971-0.0474 1.981-0.1094-0.319 0.1787-0.635 0.3188-0.934 0.5293 1.213-0.2907 1.155 0.1194 2.395-0.0449-0.435 0.063-0.963 0.2367-0.879 0.3027 1.385 0.161 1.597-0.4307 2.879-0.0019l-0.082-0.3809c1.78 0.6451 2.152 0.5373 4.088 1.5684 0.678 0.0332 0.748-0.4215 1.773-0.002 0.181 0.3181-0.042 0.3781 1.219 1.1309 0.139-0.0563-0.252-0.4148-0.561-0.6993 2.264 1.2152 4.692 3.6627 5.785 6.3827-0.068-0.462-0.125-0.882 0.342-0.019-0.84-3.103-3.593-6.0039-6.127-7.3637 0.309 0.2845 0.7 0.643 0.561 0.6993-1.261-0.7528-1.038-0.8128-1.219-1.1309-1.025-0.4195-1.095 0.0352-1.773 0.002-1.936-1.0311-2.308-0.9233-4.088-1.5684l0.082 0.3809c-1.282-0.4288-1.494 0.1629-2.879 0.0019-0.084-0.066 0.444-0.2397 0.879-0.3027-1.24 0.1643-1.182-0.2458-2.395 0.0449 0.299-0.2105 0.615-0.3506 0.934-0.5293zm15.678 10.266c-0.076-0.001-0.025 0.318 0.019 0.619 0.381 0.969 0.648 1.936 0.793 2.451-0.178-1.013-0.465-1.994-0.816-2.943 0.037 0.015 0.054-0.018 0.06-0.075-0.018-0.016-0.045-0.052-0.056-0.052zm-1.377 0.201c-0.181-0.001-0.276 0.14 0 1.002 0.446 0.651 0.091-0.661 0.642 0.496 0.002 0.144 0.018 0.288 0.043 0.435 0.098 0.167 0.203 0.362 0.297 0.377-0.121-0.716-0.331-1.262-0.34-1.812-0.138-0.289-0.218-0.425-0.269-0.475-0.023 0.005-0.046 0.003-0.071 0.002-0.052 0.08-0.044 0.353-0.302-0.023-0.001-0.001 0-0.001 0-0.002zm-11.707 0.353c-1.967 0.032-3.808 1.288-4.422 2.651-1.008 0.636-1.124 2.454-1.563 2.787-0.112 0.828-0.141 1.567-0.096 2.236 0.014-0.394 0.036-0.794 0.096-1.236 0.439-0.333 0.555-2.151 1.563-2.787 0.485-1.078 1.742-2.077 3.216-2.469 2.047-0.789 4.323-0.33 5.756 1.014-0.85-1.12-2.544-2.306-4.55-2.196zm12.185 2.34c-0.02 0-0.037 0.011-0.055 0.037 0.122 0.576 0.29 0.956 0.43 1.188-0.011-0.1-0.03-0.142-0.037-0.276 0.005-0.291 0.046-0.371 0.092-0.398-0.148-0.14-0.311-0.547-0.43-0.551zm0.443 0.344c0.014 0.066 0.031 0.121 0.043 0.189 0.032-0.001 0.063-0.007 0.082-0.056-0.03-0.018-0.074-0.063-0.125-0.133zm-2.509 0.781c0.001 0.081 0.001 0.161 0.004 0.242 0.001-0.079-0.004-0.164 0-0.242h-0.004zm2.486 0.44c-0.041 0.034-0.077 0.114-0.082 0.384 0.031 0.595 0.106 0.825 0.193 0.907 0.13-0.377 0.284-0.717 0.352-1.024-0.12-0.053-0.337 0.268-0.463-0.267zm-2.477 1.095c-0.013 0.676-0.069 1.355-0.285 2.01l0.262-0.557c0.03-0.488 0.036-0.973 0.023-1.453zm-28.099 0.766c-0.0156 0.612-0.0308 1.304-0.0254 1.988 0.0183-0.758 0.0441-1.464 0.0254-1.988zm30.553 0.996c-0.003 0.012-0.006 0.023-0.008 0.035 0.007 0.028 0.02 0.055 0.027 0.082-0.01-0.04-0.011-0.077-0.019-0.117zm-0.37 0.047c-0.03 0.261-0.032 0.468-0.023 0.652 0.038-0.247 0.037-0.452 0.023-0.652zm-17.046 0.105c-0.037 0.283-0.106 0.24-0.182 0.334-0.03 0.336-0.04 0.673-0.014 1.012 0.082-0.121 0.156-0.045 0.196-0.346-0.068 4.734 5.079 8.205 8.785 6.454l0.045 0.099c1.503-0.412 1.308-0.752 2.291-1.43-0.077 0.159-0.662 0.563-0.313 0.573 0.478-0.128 1.97-1.523 2.705-2.178 0.337-0.73-0.181-0.395 0.289-1.313l0.576-0.287c0.32-0.927 0.673-1.452 0.633-2.531l-0.295 0.627c-0.106 0.284-0.218 0.557-0.338 0.904l-0.576 0.287c-0.47 0.918 0.048 0.583-0.289 1.313-0.735 0.655-2.227 2.05-2.705 2.178-0.349-0.01 0.236-0.414 0.313-0.573-0.983 0.678-0.788 1.018-2.291 1.43l-0.045-0.099c-3.706 1.751-8.853-1.72-8.785-6.454zm16.972 0.621c-0.039 0.228-0.092 0.473-0.17 0.729 0.101-0.265 0.149-0.465 0.188-0.652-0.008-0.019-0.008-0.065-0.018-0.077zm-30.123 1.872c-0.0028 0.322-0.0148 0.645 0 0.966 0.0028-0.254-0.0101-0.507 0.0039-0.761-0.0041-0.066-0.0007-0.138-0.0039-0.205zm1.9339 0.269c-0.047 1.212 0.035 2.302 0.443 2.902l0.086-0.871c-0.358-0.415-0.495-1.158-0.529-2.031zm10.56 2.113c0.675 1.214 1.963 2.277 3.397 3.03-0.33-0.256-0.649-0.51-0.946-0.762-0.901-0.314-2.101-2.191-2.451-2.268zm-10.051 1.116l-0.082 0.824c0.145 0.29 0.255 0.584 0.434 0.857l-0.234 0.02c0.894 2.835 1.13 1.186 1.955 2.345-0.016-0.071-0.043-0.156-0.037-0.203 0.309 0.42 0.523 0.499 0.736 0.571-1.464-3.648-1.546-0.201-2.654-3.713l0.234-0.02c-0.143-0.218-0.244-0.449-0.352-0.681zm2.036 4.843c-0.038 0.32 0.45 1.28 1.029 2.03l-0.246 0.281c0.322 0.589 0.622 0.717 0.846 0.922-1.205-0.661 1.116 2.175 1.326 2.537l0.185-0.33c-0.027 0.476 0.34 1.092 1.028 1.943l0.572-0.023c0.236 0.469 1.099 1.315 1.623 1.355l-0.348 0.455c1.314 0.418 0.637 0.555 2.252 1.129l-0.326-0.578c0.477 0.416 0.776 0.797 1.158 1.154 0.135 0.042 0.269 0.096 0.405 0.133 1.108 0.399 2.756 0.385 4.158 0.424-1.654-0.475-1.869-0.252-3.481-0.816-1.162-0.551-1.416-1.177-2.24-1.895l0.326 0.578c-1.615-0.574-0.938-0.711-2.252-1.129l0.348-0.455c-0.524-0.04-1.387-0.886-1.623-1.355l-0.572 0.023c-0.688-0.851-1.055-1.467-1.028-1.943l-0.185 0.33c-0.21-0.362-2.531-3.198-1.326-2.537-0.224-0.205-0.524-0.333-0.846-0.922l0.246-0.281c-0.118-0.153-0.227-0.316-0.334-0.479-0.2-0.069-0.405-0.157-0.695-0.551z" transform="translate(0 1004.4)" fill="#fff"/>
 </g>
</svg>
