<?xml version="1.0" encoding="UTF-8" standalone="no"?>
<!-- Created with Inkscape (http://www.inkscape.org/) -->

<svg
   xmlns:dc="http://purl.org/dc/elements/1.1/"
   xmlns:cc="http://creativecommons.org/ns#"
   xmlns:rdf="http://www.w3.org/1999/02/22-rdf-syntax-ns#"
   xmlns:svg="http://www.w3.org/2000/svg"
   xmlns="http://www.w3.org/2000/svg"
   xmlns:sodipodi="http://sodipodi.sourceforge.net/DTD/sodipodi-0.dtd"
   xmlns:inkscape="http://www.inkscape.org/namespaces/inkscape"
   id="svg4348"
   height="48"
   width="48"
   version="1.1"
   viewBox="0 0 48 48.000001"
   inkscape:version="0.91 r13725"
   sodipodi:docname="folder-orange.svg">
  <defs
     id="defs14" />
  <sodipodi:namedview
     pagecolor="#ffffff"
     bordercolor="#666666"
     borderopacity="1"
     objecttolerance="10"
     gridtolerance="10"
     guidetolerance="10"
     inkscape:pageopacity="0"
     inkscape:pageshadow="2"
     inkscape:window-width="1600"
     inkscape:window-height="847"
     id="namedview12"
     showgrid="false"
     inkscape:zoom="4.9166667"
     inkscape:cx="-9.4576271"
     inkscape:cy="24"
     inkscape:window-x="0"
     inkscape:window-y="30"
     inkscape:window-maximized="1"
     inkscape:current-layer="svg4348" />
  <metadata
     id="metadata4353">
    <rdf:RDF>
      <cc:Work
         rdf:about="">
        <dc:format>image/svg+xml</dc:format>
        <dc:type
           rdf:resource="http://purl.org/dc/dcmitype/StillImage" />
        <dc:title></dc:title>
      </cc:Work>
    </rdf:RDF>
  </metadata>
  <g
     id="g4185">
    <path
       inkscape:connector-curvature="0"
       style="fill:#cf9567;fill-opacity:1"
       d="m 3.99975,36.005 0,-28 c 0,-1.108 0.89878,-2.1224 2,-2 l 16,0 4,4 16.103,0 c 0,0 1.8975,0 1.8975,2 l 0,24 c 0,1.108 -0.892,2 -2,2 l -36,0 c -1.108,0 -2,-0.892 -2,-2 z"
       id="path4159" />
    <path
       inkscape:connector-curvature="0"
       style="fill:#d7a780;fill-opacity:1"
       d="m 43.99975,40.005 0,-28 c 0,-1.108 -0.89878,-2.1224 -2,-2 l -16,0 -4,4 -16,0 c -2,0 -2,1.9167 -2,1.9167 l 0,24.083 c 0,1.108 0.892,2 2,2 l 36,0 c 1.108,0 2,-0.892 2,-2 z"
       id="rect3454" />
    <path
       style="opacity:0.1;fill:#ffffff"
       inkscape:connector-curvature="0"
       d="m 5.99975,6.005 c -1.108,0 -2,0.892 -2,2 l 0,1 c 0,-1.108 0.892,-2 2,-2 l 16,0 4,4 0,-1 -4,-4 z"
       id="path4298" />
    <path
       style="opacity:0.1;fill:#ffffff"
       inkscape:connector-curvature="0"
       d="m 25.99975,10.005 -4,4 -16,0 c -2,0 -2,1.9062 -2,1.9062 l 0,1 c 0,0 0,-1.9062 2,-1.9062 l 16,0 4,-4 16,0 c 1.1012,-0.12236 2,0.892 2,2 l 0,-1 c 0,-1.108 -0.89878,-2.1224 -2,-2 l -16,0 z"
       id="path4161" />
    <path
       style="opacity:0.1"
       inkscape:connector-curvature="0"
       d="m 24.99975,10.005 -3,3 -16,0 c -2,0 -2,1.9062 -2,1.9062 l 0,1 c 0,0 0,-1.9062 2,-1.9062 l 16,0 3.5,-3.5 z"
       id="path4518" />
    <path
       style="opacity:0.3"
       inkscape:connector-curvature="0"
       d="m 3.99975,38.994 0,1.006 c 0,1.108 0.892,2 2,2 l 36,0 c 1.108,0 2,-0.892 2,-2 l 0,-1.0059 c 0,1.108 -0.892,2 -2,2 l -36,0 c -1.108,0 -2,-0.89201 -2,-2 z"
       id="path4494-3" />
  </g>
</svg>
