<?xml version="1.0" encoding="UTF-8" standalone="no"?>
<!-- Created with Inkscape (http://www.inkscape.org/) -->

<svg
   xmlns:dc="http://purl.org/dc/elements/1.1/"
   xmlns:cc="http://creativecommons.org/ns#"
   xmlns:rdf="http://www.w3.org/1999/02/22-rdf-syntax-ns#"
   xmlns:svg="http://www.w3.org/2000/svg"
   xmlns="http://www.w3.org/2000/svg"
   xmlns:sodipodi="http://sodipodi.sourceforge.net/DTD/sodipodi-0.dtd"
   xmlns:inkscape="http://www.inkscape.org/namespaces/inkscape"
   id="svg5048"
   height="48"
   width="48"
   version="1.1"
   inkscape:version="0.91 r"
   sodipodi:docname="start-here-xfce.svg">
  <sodipodi:namedview
     pagecolor="#ffffff"
     bordercolor="#666666"
     borderopacity="1"
     objecttolerance="10"
     gridtolerance="10"
     guidetolerance="10"
     inkscape:pageopacity="0"
     inkscape:pageshadow="2"
     inkscape:window-width="1600"
     inkscape:window-height="846"
     id="namedview14"
     showgrid="false"
     inkscape:zoom="3.52"
     inkscape:cx="24"
     inkscape:cy="24"
     inkscape:window-x="0"
     inkscape:window-y="26"
     inkscape:window-maximized="1"
     inkscape:current-layer="svg5048" />
  <defs
     id="defs5050">
    <style
       id="current-color-scheme"
       type="text/css">.ColorScheme-Text {
        color:#31363b;
      }
      .ColorScheme-Background{
        color:#eff0f1;
      }
      .ColorScheme-ViewText {
        color:#31363b;
      }
      .ColorScheme-ViewBackground{
        color:#fcfcfc;
      }
      .ColorScheme-ViewHover {
        color:#3daee9;
      }
      .ColorScheme-ViewFocus{
        color:#3daee9;
      }
      .ColorScheme-ButtonText {
        color:#31363b;
      }
      .ColorScheme-ButtonBackground{
        color:#eff0f1;
      }
      .ColorScheme-ButtonHover {
        color:#3daee9;
      }
      .ColorScheme-ButtonFocus{
        color:#3daee9;
      }</style>
    <clipPath
       id="clipPath-033233189">
      <g
         id="g4157"
         transform="translate(0,-1004.3622)">
        <path
           id="path4159"
           style="fill:#1890d0"
           transform="matrix(15.333333,0,0,11.5,414.99999,878.8622)"
           d="m -24 13 c 0 1.105 -0.672 2 -1.5 2 -0.828 0 -1.5 -0.895 -1.5 -2 0 -1.105 0.672 -2 1.5 -2 0.828 0 1.5 0.895 1.5 2 z" />
      </g>
    </clipPath>
  </defs>
  <metadata
     id="metadata5053">
    <rdf:RDF>
      <cc:Work
         rdf:about="">
        <dc:format>image/svg+xml</dc:format>
        <dc:type
           rdf:resource="http://purl.org/dc/dcmitype/StillImage" />
        <dc:title></dc:title>
      </cc:Work>
    </rdf:RDF>
  </metadata>
  <path
     style="fill:#285da4;fill-opacity:1"
     inkscape:connector-curvature="0"
     d="M 44.003,24 C 44.12703,31.8657 39.0539,39.451 31.784,42.428 24.6424,45.5206 15.773,43.9283 10.199,38.4791 4.5542,33.234 2.4937,24.5921 5.1291,17.3541 c 2.5482,-7.5016 9.915,-13.029 17.841,-13.326 7.7057,-0.4977 15.403,3.9685 18.844,10.87 1.4403,2.8006 2.1925,5.9493 2.1885,9.102 z"
     id="path4286" />
  <path
     style="opacity:0.3"
     inkscape:connector-curvature="0"
     d="M 43.979,23.418 A 20,20 0 0 1 24,43 20,20 0 0 1 4.022,23.582 20,20 0 0 0 4,24 20,20 0 0 0 24,44 20,20 0 0 0 44,24 20,20 0 0 0 43.979,23.418 Z"
     id="path4255" />
  <path
     style="opacity:0.2;fill:#ffffff"
     inkscape:connector-curvature="0"
     d="M 24,4 A 20,20 0 0 0 4,24 20,20 0 0 0 4.0215,24.582 20,20 0 0 1 23.9995,5 20,20 0 0 1 43.9785,24.418 20,20 0 0 0 43.9995,24 a 20,20 0 0 0 -20,-20 z"
     id="path4260" />
  <g
     transform="translate(0.938,0.99938385)"
     id="g4376"
     style="opacity:0.2;fill:#000000;fill-opacity:1">
    <g
       clip-path="url(#clipPath-033233189)"
       id="g4378"
       style="fill:#000000;fill-opacity:1">
      <!-- color: #2c65b5 -->
      <g
         id="g4380"
         style="fill:#000000;fill-opacity:1">
        <path
           id="path4382"
           style="fill:#000000;fill-opacity:1;fill-rule:nonzero;stroke:none"
           d="m 6.281,14.5 c -0.074,0.145 -0.148,0.289 -0.219,0.434 1.125,0.625 4.367,2.254 5.906,3.219 1.945,1.191 4.574,3.621 4.781,4.03 -2.023,3.523 -1.105,6.641 -1.344,6.973 -0.172,0.277 -1.762,2.023 -1.25,2.281 0.508,0.254 1.316,-0.145 1.438,-0.223 0.254,-0.156 0.516,-0.383 0.406,0.066 -0.215,0.918 -1.191,3.125 0.156,2.656 0.164,-0.094 2.332,-2.484 2.594,-2.566 4.313,1.125 9.137,0.609 10.03,0.191 0.465,0.031 1.781,0.859 2.531,1.254 0.75,0.391 2.793,1.371 2.188,-0.41 -0.188,-0.563 -1.531,-2 -1.313,-2.094 0.48,-0.191 1.668,0.496 2.125,0.625 1.367,0.383 1.551,-0.148 0.688,-1.316 -0.852,-1.168 -0.98,-0.988 -1.25,-1.527 -0.211,-0.434 0,-0.914 0.156,-1.031 0.277,-0.211 4.359,-2.477 5.316,-3.344 1.418,-1.289 0,-2.898 -0.348,-3.125 -2.941,-2.117 -5.961,-1.664 -6,-2 -0.02,-0.383 -0.012,-1.488 -0.063,-1.871 -0.293,-2.594 -1.492,-1.941 -1.656,-1.941 -1.199,0.188 -0.758,2.023 -0.25,3.75 0.039,0.441 -0.418,0.246 -0.688,-0.219 -0.922,-2.473 -1.309,-2.43 -1.563,-2.504 -0.246,-0.055 -1.113,0.473 -1.098,1.473 0.004,0.285 0.344,1.645 0.344,2.063 -0.566,0.496 -0.594,1.621 -1.188,2.031 -1.73,0.359 -5.887,-0.855 -6.406,-0.91 -1.797,-0.336 -2.582,1.012 -2.871,0.688 -2.332,-2.672 -5.895,-4.656 -7.438,-5 C 9.397,16.024 7.378,15.133 6.651,14.684 6.534,14.614 6.401,14.563 6.272,14.496 m 32.07,2.344 c -0.563,0.605 -0.465,2.867 -0.348,2.848 0.574,-0.117 0.52,-3.03 0.348,-2.848 m 1.629,0.344 c -0.066,-0.184 -1.547,1.895 -1.285,2.66 0.117,0.332 1.484,-2.078 1.285,-2.66 m -7.691,3.535 c 0.02,-0.02 0.043,0.008 0.066,0.031 0.172,0.57 0.363,1.113 1.496,1.25 0.133,0.016 -0.629,0.461 -1.152,0.188 -0.477,-0.289 -0.52,-1.34 -0.41,-1.469 m 2.938,2.871 c 0.105,-0.016 0.18,-0.012 0.254,0 0.277,0.07 -2.01,1.262 -2.188,1.098 -0.109,-0.105 1.219,-0.965 1.938,-1.098 m 0.594,0.754 c 0.238,0.02 -1.324,1.637 -1.5,1.469 -0.129,-0.117 1.012,-1.508 1.5,-1.469 m 0,0"
           inkscape:connector-curvature="0" />
      </g>
    </g>
  </g>
  <g
     id="g4299"
     transform="translate(0.938,-6.1614945e-4)">
    <g
       id="g4301"
       clip-path="url(#clipPath-033233189)">
      <!-- color: #2c65b5 -->
      <g
         id="g4303">
        <path
           inkscape:connector-curvature="0"
           d="m 6.281,14.5 c -0.074,0.145 -0.148,0.289 -0.219,0.434 1.125,0.625 4.367,2.254 5.906,3.219 1.945,1.191 4.574,3.621 4.781,4.03 -2.023,3.523 -1.105,6.641 -1.344,6.973 -0.172,0.277 -1.762,2.023 -1.25,2.281 0.508,0.254 1.316,-0.145 1.438,-0.223 0.254,-0.156 0.516,-0.383 0.406,0.066 -0.215,0.918 -1.191,3.125 0.156,2.656 0.164,-0.094 2.332,-2.484 2.594,-2.566 4.313,1.125 9.137,0.609 10.03,0.191 0.465,0.031 1.781,0.859 2.531,1.254 0.75,0.391 2.793,1.371 2.188,-0.41 -0.188,-0.563 -1.531,-2 -1.313,-2.094 0.48,-0.191 1.668,0.496 2.125,0.625 1.367,0.383 1.551,-0.148 0.688,-1.316 -0.852,-1.168 -0.98,-0.988 -1.25,-1.527 -0.211,-0.434 0,-0.914 0.156,-1.031 0.277,-0.211 4.359,-2.477 5.316,-3.344 1.418,-1.289 0,-2.898 -0.348,-3.125 -2.941,-2.117 -5.961,-1.664 -6,-2 -0.02,-0.383 -0.012,-1.488 -0.063,-1.871 -0.293,-2.594 -1.492,-1.941 -1.656,-1.941 -1.199,0.188 -0.758,2.023 -0.25,3.75 0.039,0.441 -0.418,0.246 -0.688,-0.219 -0.922,-2.473 -1.309,-2.43 -1.563,-2.504 -0.246,-0.055 -1.113,0.473 -1.098,1.473 0.004,0.285 0.344,1.645 0.344,2.063 -0.566,0.496 -0.594,1.621 -1.188,2.031 -1.73,0.359 -5.887,-0.855 -6.406,-0.91 -1.797,-0.336 -2.582,1.012 -2.871,0.688 -2.332,-2.672 -5.895,-4.656 -7.438,-5 C 9.397,16.024 7.378,15.133 6.651,14.684 6.534,14.614 6.401,14.563 6.272,14.496 m 32.07,2.344 c -0.563,0.605 -0.465,2.867 -0.348,2.848 0.574,-0.117 0.52,-3.03 0.348,-2.848 m 1.629,0.344 c -0.066,-0.184 -1.547,1.895 -1.285,2.66 0.117,0.332 1.484,-2.078 1.285,-2.66 m -7.691,3.535 c 0.02,-0.02 0.043,0.008 0.066,0.031 0.172,0.57 0.363,1.113 1.496,1.25 0.133,0.016 -0.629,0.461 -1.152,0.188 -0.477,-0.289 -0.52,-1.34 -0.41,-1.469 m 2.938,2.871 c 0.105,-0.016 0.18,-0.012 0.254,0 0.277,0.07 -2.01,1.262 -2.188,1.098 -0.109,-0.105 1.219,-0.965 1.938,-1.098 m 0.594,0.754 c 0.238,0.02 -1.324,1.637 -1.5,1.469 -0.129,-0.117 1.012,-1.508 1.5,-1.469 m 0,0"
           style="fill:#f9f9f9;fill-opacity:1;fill-rule:nonzero;stroke:none"
           id="path4305" />
      </g>
    </g>
  </g>
</svg>
