<?xml version="1.0" encoding="UTF-8" standalone="no"?>
<!-- Created with Inkscape (http://www.inkscape.org/) -->

<svg
   xmlns:dc="http://purl.org/dc/elements/1.1/"
   xmlns:cc="http://creativecommons.org/ns#"
   xmlns:rdf="http://www.w3.org/1999/02/22-rdf-syntax-ns#"
   xmlns:svg="http://www.w3.org/2000/svg"
   xmlns="http://www.w3.org/2000/svg"
   xmlns:sodipodi="http://sodipodi.sourceforge.net/DTD/sodipodi-0.dtd"
   xmlns:inkscape="http://www.inkscape.org/namespaces/inkscape"
   width="24"
   height="24"
   id="svg3049"
   version="1.1"
   inkscape:version="0.91 r13725"
   sodipodi:docname="escape-direction-horizontal.svg"
   inkscape:export-filename="/home/uri/.kde/share/icons/NITRUX-KDE/16x16/actions/view-right-new.png"
   inkscape:export-xdpi="30"
   inkscape:export-ydpi="30">
  <defs
     id="defs3051">
    <style
       type="text/css"
       id="current-color-scheme">
      .ColorScheme-Text {
        color:#4d4d4d;
      }
      .ColorScheme-Background {
        color:#eff0f1;
      }
      .ColorScheme-Highlight {
        color:#3daee9;
      }
      .ColorScheme-ViewText {
        color:#31363b;
      }
      .ColorScheme-ViewBackground {
        color:#fcfcfc;
      }
      .ColorScheme-ViewHover {
        color:#93cee9;
      }
      .ColorScheme-ViewFocus{
        color:#3daee9;
      }
      .ColorScheme-ButtonText {
        color:#31363b;
      }
      .ColorScheme-ButtonBackground {
        color:#eff0f1;
      }
      .ColorScheme-ButtonHover {
        color:#93cee9;
      }
      .ColorScheme-ButtonFocus{
        color:#3daee9;
      }
      </style>
  </defs>
  <sodipodi:namedview
     id="base"
     pagecolor="#ffffff"
     bordercolor="#666666"
     borderopacity="1.0"
     inkscape:pageopacity="0.0"
     inkscape:pageshadow="2"
     inkscape:zoom="21.53"
     inkscape:cx="3.3432556"
     inkscape:cy="8.2713128"
     inkscape:document-units="px"
     inkscape:current-layer="layer1-6"
     showgrid="false"
     fit-margin-top="0"
     fit-margin-left="0"
     fit-margin-right="0"
     fit-margin-bottom="0"
     inkscape:window-width="1600"
     inkscape:window-height="847"
     inkscape:window-x="0"
     inkscape:window-y="30"
     inkscape:window-maximized="1"
     inkscape:showpageshadow="false"
     borderlayer="true"
     inkscape:snap-bbox="true"
     inkscape:snap-global="true"
     showguides="false">
    <inkscape:grid
       type="xygrid"
       id="grid4085" />
    <sodipodi:guide
       position="2.0000044,14.00003"
       orientation="12,0"
       id="guide4075" />
    <sodipodi:guide
       position="2.0000044,2.0000296"
       orientation="4.2285741e-06,1"
       id="guide4077" />
    <sodipodi:guide
       position="14,9"
       orientation="-12,0"
       id="guide4079" />
    <sodipodi:guide
       position="14,14"
       orientation="0,-12"
       id="guide4081" />
  </sodipodi:namedview>
  <metadata
     id="metadata3054">
    <rdf:RDF>
      <cc:Work
         rdf:about="">
        <dc:format>image/svg+xml</dc:format>
        <dc:type
           rdf:resource="http://purl.org/dc/dcmitype/StillImage" />
        <dc:title></dc:title>
      </cc:Work>
    </rdf:RDF>
  </metadata>
  <g
     inkscape:label="Capa 1"
     inkscape:groupmode="layer"
     id="layer1"
     transform="translate(-421.71429,-523.79074)">
    <g
       transform="matrix(0.75,0,0,0.74999813,421.46429,-241.22897)"
       id="layer1-0"
       inkscape:label="Capa 1">
      <g
         transform="translate(6.2937501e-7,-2.041003e-4)"
         id="layer1-6"
         inkscape:label="Capa 1">
        <text
           transform="scale(0.99999872,1.0000013)"
           sodipodi:linespacing="125%"
           id="text3781"
           y="1053.0374"
           x="16.914654"
           style="font-style:normal;font-weight:normal;font-size:12.00001526px;line-height:125%;font-family:Sans;letter-spacing:0px;word-spacing:0px;fill:#ffffff;fill-opacity:1;stroke:none"
           xml:space="preserve"><tspan
             id="tspan3783"
             sodipodi:role="line"
             x="16.914654"
             y="1053.0374" /></text>
        <path
           style="color:#ffffff;display:inline;overflow:visible;visibility:visible;opacity:0.72;fill:#ffffff;fill-opacity:1;fill-rule:evenodd;stroke:none;stroke-width:1;marker:none;enable-background:accumulate"
           d="m 6.9999562,1045.3625 18.6667538,0 0,-18.6668 -18.6667538,0 0,18.6668 z m 2.6666934,-2.6667 0,-5.3334 4.3697894,0 c 0.227199,0.3908 0.544798,0.7158 0.932297,0.948 0.02,0.012 0.042,0.022 0.062,0.034 0.1591,0.09 0.327999,0.163 0.505199,0.2188 0.051,0.016 0.1013,0.031 0.1537,0.044 0.207299,0.052 0.419899,0.089 0.643198,0.089 0.223299,0 0.435899,-0.037 0.643198,-0.089 0.052,-0.013 0.1026,-0.028 0.1537,-0.044 0.1772,-0.056 0.346099,-0.1291 0.505199,-0.2188 0.021,-0.012 0.042,-0.022 0.062,-0.034 0.387499,-0.2322 0.705098,-0.5572 0.932297,-0.948 l 4.369789,0 0,5.3334 -13.3333664,0 z m 0,-8 0,-5.3334 13.3333664,0 0,5.3334 -4.369789,0 c -0.227199,-0.3908 -0.544798,-0.7158 -0.932297,-0.948 -0.02,-0.012 -0.042,-0.022 -0.062,-0.034 -0.1591,-0.09 -0.327999,-0.163 -0.505199,-0.2188 -0.051,-0.016 -0.1013,-0.031 -0.1537,-0.044 -0.207299,-0.052 -0.419899,-0.089 -0.643198,-0.089 -0.223299,0 -0.435899,0.037 -0.643198,0.089 -0.052,0.013 -0.1026,0.028 -0.1537,0.044 -0.1772,0.056 -0.346099,0.1291 -0.505199,0.2188 -0.021,0.012 -0.042,0.022 -0.062,0.034 -0.387499,0.2322 -0.705098,0.5572 -0.932297,0.948 l -4.3697894,0 z"
           id="rect4152-9-3-4"
           inkscape:connector-curvature="0" />
      </g>
    </g>
  </g>
</svg>
