<?xml version="1.0" encoding="UTF-8" standalone="no"?>
<!-- Created with Inkscape (http://www.inkscape.org/) -->

<svg
   xmlns:osb="http://www.openswatchbook.org/uri/2009/osb"
   xmlns:dc="http://purl.org/dc/elements/1.1/"
   xmlns:cc="http://creativecommons.org/ns#"
   xmlns:rdf="http://www.w3.org/1999/02/22-rdf-syntax-ns#"
   xmlns:svg="http://www.w3.org/2000/svg"
   xmlns="http://www.w3.org/2000/svg"
   xmlns:sodipodi="http://sodipodi.sourceforge.net/DTD/sodipodi-0.dtd"
   xmlns:inkscape="http://www.inkscape.org/namespaces/inkscape"
   sodipodi:docname="edit-image-face-recognize.svg"
   inkscape:export-filename="/home/sam/source-symbolic.png"
   inkscape:export-xdpi="270"
   inkscape:export-ydpi="270"
   height="24"
   id="svg7384"
   style="enable-background:new"
   version="1.1"
   inkscape:version="0.91 r13725"
   width="24">
  <sodipodi:namedview
     inkscape:bbox-nodes="true"
     inkscape:bbox-paths="true"
     bordercolor="#666666"
     borderlayer="false"
     borderopacity="1"
     inkscape:current-layer="layer1"
     inkscape:cx="-11.563371"
     inkscape:cy="3.6080402"
     gridtolerance="10"
     inkscape:guide-bbox="true"
     guidetolerance="10"
     id="namedview88"
     inkscape:object-nodes="true"
     inkscape:object-paths="true"
     objecttolerance="10"
     pagecolor="#f7f7f7"
     inkscape:pageopacity="1"
     inkscape:pageshadow="2"
     showborder="true"
     showgrid="false"
     showguides="true"
     inkscape:showpageshadow="false"
     inkscape:snap-bbox="true"
     inkscape:snap-bbox-edge-midpoints="false"
     inkscape:snap-bbox-midpoints="false"
     inkscape:snap-center="false"
     inkscape:snap-global="true"
     inkscape:snap-grids="true"
     inkscape:snap-intersection-paths="true"
     inkscape:snap-midpoints="true"
     inkscape:snap-nodes="true"
     inkscape:snap-object-midpoints="true"
     inkscape:snap-others="true"
     inkscape:snap-page="false"
     inkscape:snap-smooth-nodes="true"
     inkscape:snap-to-guides="true"
     inkscape:window-height="847"
     inkscape:window-maximized="1"
     inkscape:window-width="1600"
     inkscape:window-x="0"
     inkscape:window-y="30"
     inkscape:zoom="15.07">
    <inkscape:grid
       color="#000000"
       dotted="false"
       empcolor="#808080"
       empopacity="0.4627451"
       empspacing="4"
       enabled="true"
       id="grid4866"
       opacity="0.16470588"
       originx="-466.0002px"
       originy="-610px"
       snapvisiblegridlinesonly="true"
       spacingx="0.25px"
       spacingy="0.25px"
       type="xygrid"
       visible="true" />
  </sodipodi:namedview>
  <metadata
     id="metadata90">
    <rdf:RDF>
      <cc:Work
         rdf:about="">
        <dc:format>image/svg+xml</dc:format>
        <dc:type
           rdf:resource="http://purl.org/dc/dcmitype/StillImage" />
        <dc:title>Paper Symbolic Icon Theme</dc:title>
      </cc:Work>
    </rdf:RDF>
  </metadata>
  <title
     id="title8473">Paper Symbolic Icon Theme</title>
  <defs
     id="defs7386">
    <linearGradient
       id="linearGradient5606"
       osb:paint="solid">
      <stop
         id="stop5608"
         offset="0"
         style="stop-color:#000000;stop-opacity:1;" />
    </linearGradient>
    <filter
       inkscape:collect="always"
       id="filter7554"
       style="color-interpolation-filters:sRGB">
      <feBlend
         inkscape:collect="always"
         id="feBlend7556"
         in2="BackgroundImage"
         mode="darken" />
    </filter>
  </defs>
  <g
     inkscape:groupmode="layer"
     id="layer9"
     inkscape:label="status"
     style="display:inline"
     transform="translate(-707.0004,401)" />
  <g
     inkscape:groupmode="layer"
     id="layer10"
     inkscape:label="devices"
     style="display:inline;filter:url(#filter7554)"
     transform="translate(-707.0004,401)" />
  <g
     inkscape:groupmode="layer"
     id="layer1"
     inkscape:label="places"
     style="display:inline"
     transform="translate(-466.0002,-216)">
    <g
       id="g4162"
       transform="translate(1.9999864,2)" />
    <g
       transform="translate(445.00024,198.00001)"
       id="g4453"
       style="opacity:0.5;fill:#000000;fill-opacity:1">
      <path
         style="color:#000000;display:inline;overflow:visible;visibility:visible;opacity:1;fill:#000000;fill-opacity:1;fill-rule:nonzero;stroke:none;stroke-width:1;marker:none;enable-background:accumulate"
         d="m 7.9941406,2 c -1.87003,0 -3.3939237,1.5344279 -3.4492187,3.4511719 -0.04593,0.01147 -0.091542,0.029884 -0.1347657,0.052734 -0.4300459,0.22704 -0.5403377,0.9361549 -0.2460937,1.5917969 0.236714,0.527446 0.6575235,0.853858 1.0390625,0.84375 C 5.490346,9.6922974 6.6335506,11 7.9941406,11 c 0.0041,0 0.00759,2e-5 0.011719,0 1.360591,0 2.5037934,-1.3077029 2.7910154,-3.0605469 0.381539,0.01009 0.802349,-0.316294 1.039063,-0.84375 0.294242,-0.655642 0.183942,-1.3647568 -0.246094,-1.5917969 -0.04328,-0.02285 -0.08878,-0.041264 -0.134766,-0.052734 C 11.399758,3.5344376 9.8758904,2 8.0058594,2 c -0.0041,-2e-5 -0.00759,0 -0.011719,0 z M 12,10 l 0,3 2,0 0,-3 -2,0 z m -6.4941406,1.011719 c -2.46908,0.258151 -4.268175,0.889525 -4.484375,1.636719 -0.003,0.0071 0.002,0.01631 0,0.02344 -0.007,0.02689 -0.00677,0.05082 -0.00977,0.07813 C 1.010723,12.762322 1,12.770573 1,12.783203 c -9e-5,0.0041 0,0.0058 0,0.0098 l 0,1.849609 C 1,14.840082 1.1557094,15 1.3496094,15 L 9,15 9,12.066406 c -0.3212454,0.09898 -0.6753204,0.160157 -1.0546875,0.160156 -1.16985,0 -2.1456031,-0.519137 -2.4394531,-1.214843 z M 12,14 l 0,1 2,0 0,-1 -2,0 z"
         transform="translate(25,21.99999)"
         id="path4451"
         inkscape:connector-curvature="0" />
    </g>
  </g>
  <g
     inkscape:groupmode="layer"
     id="layer14"
     inkscape:label="mimetypes"
     style="display:inline"
     transform="translate(-707.0004,401)" />
  <g
     inkscape:groupmode="layer"
     id="layer15"
     inkscape:label="emblems"
     style="display:inline"
     transform="translate(-707.0004,401)" />
  <g
     inkscape:groupmode="layer"
     id="g71291"
     inkscape:label="emotes"
     style="display:inline"
     transform="translate(-707.0004,401)" />
  <g
     inkscape:groupmode="layer"
     id="layer2"
     inkscape:label="categories"
     style="display:inline"
     transform="translate(-466.0002,-65.999996)" />
  <g
     inkscape:groupmode="layer"
     id="g6058"
     inkscape:label="apps"
     style="display:inline"
     transform="translate(-466.0002,-65.999996)" />
  <g
     inkscape:groupmode="layer"
     id="layer12"
     inkscape:label="actions"
     style="display:inline"
     transform="translate(-707.0004,401)" />
</svg>
