<?xml version="1.0" encoding="UTF-8" standalone="no"?>
<!-- Created with Inkscape (http://www.inkscape.org/) -->

<svg
   xmlns:dc="http://purl.org/dc/elements/1.1/"
   xmlns:cc="http://creativecommons.org/ns#"
   xmlns:rdf="http://www.w3.org/1999/02/22-rdf-syntax-ns#"
   xmlns:svg="http://www.w3.org/2000/svg"
   xmlns="http://www.w3.org/2000/svg"
   xmlns:sodipodi="http://sodipodi.sourceforge.net/DTD/sodipodi-0.dtd"
   xmlns:inkscape="http://www.inkscape.org/namespaces/inkscape"
   width="24"
   height="24"
   id="svg2"
   version="1.1"
   inkscape:version="0.91 r13725"
   viewBox="0 0 24 24"
   sodipodi:docname="kstars_grid.svg">
  <defs
     id="defs4">
    <style
       type="text/css"
       id="current-color-scheme">
      .ColorScheme-Text {
        color:#4d4d4d;
      }
      .ColorScheme-Background {
        color:#eff0f1;
      }
      .ColorScheme-Highlight {
        color:#3daee9;
      }
      .ColorScheme-ViewText {
        color:#31363b;
      }
      .ColorScheme-ViewBackground {
        color:#fcfcfc;
      }
      .ColorScheme-ViewHover {
        color:#93cee9;
      }
      .ColorScheme-ViewFocus{
        color:#3daee9;
      }
      .ColorScheme-ButtonText {
        color:#31363b;
      }
      .ColorScheme-ButtonBackground {
        color:#eff0f1;
      }
      .ColorScheme-ButtonHover {
        color:#93cee9;
      }
      .ColorScheme-ButtonFocus{
        color:#3daee9;
      }
      </style>
    <clipPath
       clipPathUnits="userSpaceOnUse"
       id="clipPath3979">
      <rect
         style="fill:#000000"
         id="rect3981"
         width="64"
         height="64"
         x="0.090115756"
         y="-0.090114839"
         clip-path="none" />
    </clipPath>
    <clipPath
       clipPathUnits="userSpaceOnUse"
       id="clipPath3975">
      <rect
         style="fill:#000000"
         id="rect3977"
         width="64"
         height="64"
         x="0.090115756"
         y="-0.090114839"
         clip-path="none" />
    </clipPath>
    <clipPath
       clipPathUnits="userSpaceOnUse"
       id="clipPath3971">
      <rect
         style="fill:#000000"
         id="rect3973"
         width="64"
         height="64"
         x="0.090115756"
         y="-0.090114839"
         clip-path="none" />
    </clipPath>
    <clipPath
       clipPathUnits="userSpaceOnUse"
       id="clipPath3967">
      <rect
         style="fill:#000000"
         id="rect3969"
         width="64"
         height="64"
         x="0.090115756"
         y="-0.090114839"
         clip-path="none" />
    </clipPath>
    <clipPath
       clipPathUnits="userSpaceOnUse"
       id="clipPath3963">
      <rect
         style="fill:#000000"
         id="rect3965"
         width="64"
         height="64"
         x="0.090115756"
         y="-0.090114839"
         clip-path="none" />
    </clipPath>
    <clipPath
       clipPathUnits="userSpaceOnUse"
       id="clipPath3959">
      <rect
         style="fill:#000000"
         id="rect3961"
         width="64"
         height="64"
         x="0.090115756"
         y="-0.090114839"
         clip-path="none" />
    </clipPath>
  </defs>
  <sodipodi:namedview
     id="base"
     pagecolor="#ffffff"
     bordercolor="#666666"
     borderopacity="1.0"
     inkscape:pageopacity="0.0"
     inkscape:pageshadow="2"
     inkscape:zoom="16"
     inkscape:cx="-6.1984362"
     inkscape:cy="9.099579"
     inkscape:document-units="px"
     inkscape:current-layer="layer1"
     showgrid="false"
     inkscape:showpageshadow="false"
     units="px"
     inkscape:window-width="1600"
     inkscape:window-height="847"
     inkscape:window-x="0"
     inkscape:window-y="30"
     inkscape:window-maximized="1"
     inkscape:object-nodes="true"
     inkscape:snap-bbox="true"
     showguides="false">
    <inkscape:grid
       type="xygrid"
       id="grid4120" />
    <sodipodi:guide
       position="2,20.000017"
       orientation="18,0"
       id="guide4126" />
    <sodipodi:guide
       position="2,2.0000174"
       orientation="0,18"
       id="guide4128" />
    <sodipodi:guide
       position="20,2.0000174"
       orientation="-18,0"
       id="guide4130" />
    <sodipodi:guide
       position="20,20.000017"
       orientation="0,-18"
       id="guide4132" />
    <sodipodi:guide
       position="3,19.000017"
       orientation="16,0"
       id="guide4134" />
    <sodipodi:guide
       position="3,3.0000174"
       orientation="0,16"
       id="guide4136" />
    <sodipodi:guide
       position="19,3.0000174"
       orientation="-16,0"
       id="guide4138" />
    <sodipodi:guide
       position="19,19.000017"
       orientation="0,-16"
       id="guide4140" />
    <sodipodi:guide
       position="19,13.000017"
       orientation="-6,0"
       id="guide4199" />
    <sodipodi:guide
       position="19,19.000017"
       orientation="0,-6.0000172"
       id="guide4201" />
  </sodipodi:namedview>
  <metadata
     id="metadata7">
    <rdf:RDF>
      <cc:Work
         rdf:about="">
        <dc:format>image/svg+xml</dc:format>
        <dc:type
           rdf:resource="http://purl.org/dc/dcmitype/StillImage" />
        <dc:title></dc:title>
      </cc:Work>
    </rdf:RDF>
  </metadata>
  <g
     inkscape:label="Capa 1"
     inkscape:groupmode="layer"
     id="layer1"
     transform="translate(0,-1028.3622)">
    <path
       style="opacity:0.5;fill:#000000;fill-opacity:1;stroke:none;stroke-width:5;stroke-miterlimit:4;stroke-dasharray:none;stroke-opacity:1"
       d="m 7.5253906,1032.3622 2.9023434,1.2793 c -0.4821517,0.9291 -1.0939315,1.7763 -1.8007808,2.5352 l -3.8085937,-3.795 -0.8066406,0 0,0.9493 3.7226562,3.705 c -0.7208314,0.6239 -1.5137907,1.1629 -2.375,1.5938 l -0.7910156,-1.7852 0,0 -0.5390625,-1.2558 -0.013672,3.0234 0.2246093,0.5059 c -0.081462,0.03 -0.1579058,0.071 -0.2402343,0.1 l 0,1.3086 c 0.2534342,-0.079 0.4938266,-0.1854 0.7402343,-0.2793 l 1.9355469,4.3652 c -0.8615948,0.3347 -1.7534657,0.6144 -2.6757811,0.8141 l 0,1.2695 c 1.0991768,-0.2218 2.1575819,-0.5514 3.1777344,-0.957 l 1.1347656,2.5625 1.3320312,0 -1.3496094,-3.0469 c 1.6841497,-0.8013 3.2270901,-1.8474 4.5878901,-3.0918 l 3.423829,3.4082 c -1.118345,1.0409 -2.332042,1.9809 -3.636719,2.791 l 2.220703,0 c 0.806228,-0.59 1.56484,-1.2387 2.292969,-1.9199 l 1.867187,1.8594 0.888672,0.01 0.0059,-0.8555 -1.884765,-1.877 c 0.685699,-0.708 1.340961,-1.4456 1.939412,-2.2305 l 0,-2.1484 c -0.823057,1.2604 -1.769656,2.4306 -2.8125,3.5078 l -3.419922,-3.4082 c 1.332993,-1.3905 2.453589,-2.9837 3.308594,-4.7324 l 2.859375,1.2597 0.0039,-1.3457 -2.367181,-1.0253 c 0.405262,-0.9881 0.7385,-2.0122 0.970703,-3.0762 l -1.269531,0 c -0.208635,0.8916 -0.490336,1.7529 -0.830079,2.5859 l -4.404297,-1.9082 c 0.09049,-0.2264 0.195793,-0.4452 0.273438,-0.6777 l -1.316406,0 c -0.02451,0.066 -0.05831,0.1263 -0.08398,0.1914 l -0.480469,-0.209 -2.9062503,0 z m 4.0292974,1.7754 4.392578,1.9336 c -0.791777,1.6093 -1.827767,3.075 -3.054688,4.3574 l -3.3925779,-3.3809 c 0.8129559,-0.867 1.5075849,-1.8427 2.0546879,-2.9101 z m -2.945313,3.7695 3.398437,3.3828 c -1.253332,1.1378 -2.6693458,2.0968 -4.2148432,2.834 l -1.9335938,-4.3672 c 0.9997328,-0.4962 1.9198465,-1.12 2.75,-1.8496 z"
       id="path3366"
       inkscape:connector-curvature="0" />
  </g>
</svg>
