<?xml version="1.0" encoding="UTF-8" standalone="no"?>
<!-- Created with Inkscape (http://www.inkscape.org/) -->

<svg
   xmlns:dc="http://purl.org/dc/elements/1.1/"
   xmlns:cc="http://creativecommons.org/ns#"
   xmlns:rdf="http://www.w3.org/1999/02/22-rdf-syntax-ns#"
   xmlns:svg="http://www.w3.org/2000/svg"
   xmlns="http://www.w3.org/2000/svg"
   xmlns:sodipodi="http://sodipodi.sourceforge.net/DTD/sodipodi-0.dtd"
   xmlns:inkscape="http://www.inkscape.org/namespaces/inkscape"
   width="32"
   height="32"
   viewBox="0 0 32 32"
   id="svg4222"
   version="1.1"
   inkscape:version="0.91 r"
   sodipodi:docname="user-desktop.svg">
  <defs
     id="defs4224" />
  <sodipodi:namedview
     id="base"
     pagecolor="#ffffff"
     bordercolor="#666666"
     borderopacity="1.0"
     inkscape:pageopacity="0.0"
     inkscape:pageshadow="2"
     inkscape:zoom="14.06"
     inkscape:cx="18.42743"
     inkscape:cy="16.66402"
     inkscape:document-units="px"
     inkscape:current-layer="layer1"
     showgrid="false"
     units="px"
     inkscape:window-width="1535"
     inkscape:window-height="876"
     inkscape:window-x="65"
     inkscape:window-y="24"
     inkscape:window-maximized="1" />
  <metadata
     id="metadata4227">
    <rdf:RDF>
      <cc:Work
         rdf:about="">
        <dc:format>image/svg+xml</dc:format>
        <dc:type
           rdf:resource="http://purl.org/dc/dcmitype/StillImage" />
        <dc:title></dc:title>
      </cc:Work>
    </rdf:RDF>
  </metadata>
  <g
     inkscape:label="Layer 1"
     inkscape:groupmode="layer"
     id="layer1"
     transform="translate(0,-1020.3622)">
    <path
       style="fill:#4ab3e4;fill-opacity:1;stroke:none"
       d="m 3,1028.3622 0,17.7778 c 0,0.6771 0.5575,1.2222 1.25,1.2222 l 22.5,0 c 0.6925,0 1.25,-0.5451 1.25,-1.2222 l 0,-17.7778 z"
       id="rect4203"
       inkscape:connector-curvature="0"
       sodipodi:nodetypes="csssscc" />
    <path
       style="fill:#4d4d4d;fill-opacity:1;stroke:none"
       d="m 4.25,1025.3622 c -0.6925,0 -1.25,0.5451 -1.25,1.2222 l 0,1.7778 25,0 0,-1.7778 c 0,-0.6771 -0.5575,-1.2222 -1.25,-1.2222 z"
       id="rect3328"
       inkscape:connector-curvature="0"
       sodipodi:nodetypes="ssccsss" />
    <path
       inkscape:connector-curvature="0"
       style="opacity:1;fill:#4d4d4d;fill-opacity:1;stroke:none;stroke-width:3;stroke-linecap:round;stroke-linejoin:round;stroke-miterlimit:4;stroke-dasharray:none;stroke-opacity:1"
       d="m 10.3,1044.3622 c -0.7202,0 -1.3,0.669 -1.3,1.5 l 0,1.5 13,0 0,-1.5 c 0,-0.831 -0.5798,-1.5 -1.3,-1.5 l -10.4,0 z"
       id="rect4155" />
    <path
       inkscape:connector-curvature="0"
       style="opacity:0.2;fill:#ffffff;fill-opacity:1;stroke:none"
       d="m 4.25,1025.3622 c -0.6925,0 -1.25,0.5456 -1.25,1.2227 l 0,1 c 0,-0.6771 0.5575,-1.2227 1.25,-1.2227 l 22.5,0 c 0.6925,0 1.25,0.5456 1.25,1.2227 l 0,-1 c 0,-0.6771 -0.5575,-1.2227 -1.25,-1.2227 l -22.5,0 z"
       id="path4162" />
    <path
       inkscape:connector-curvature="0"
       style="opacity:0.3;fill:#000000;fill-opacity:1;stroke:none"
       d="m 3,1045.1395 0,1 c 0,0.6771 0.5575,1.2227 1.25,1.2227 l 22.5,0 c 0.6925,0 1.25,-0.5456 1.25,-1.2227 l 0,-1 c 0,0.6771 -0.5575,1.2227 -1.25,1.2227 l -22.5,0 c -0.6925,0 -1.25,-0.5456 -1.25,-1.2227 z"
       id="path4167" />
  </g>
</svg>
