<?xml version="1.0" encoding="UTF-8" standalone="no"?>
<!-- Created with Inkscape (http://www.inkscape.org/) -->
<svg id="svg5453" xmlns:rdf="http://www.w3.org/1999/02/22-rdf-syntax-ns#" xmlns="http://www.w3.org/2000/svg" height="32" width="32" version="1.1" xmlns:cc="http://creativecommons.org/ns#" xmlns:dc="http://purl.org/dc/elements/1.1/">
 <metadata id="metadata5458">
  <rdf:RDF>
   <cc:Work rdf:about="">
    <dc:format>image/svg+xml</dc:format>
    <dc:type rdf:resource="http://purl.org/dc/dcmitype/StillImage"/>
    <dc:title/>
   </cc:Work>
  </rdf:RDF>
 </metadata>
 <g id="layer1" transform="translate(-384.57 -515.8)">
  <path id="path4243" transform="translate(384.57 515.8)" fill="#f4b43f" d="m15.619 3a1.9502 1.9489 0 0 0 -1.107 3.5098l2.215 1.7031h-10.776a1.9502 1.9489 0 1 0 0.0002 3.8981h4.8868l-7.9845 5.797a1.9502 1.9489 0 1 0 2.291 3.153l4.0821-2.963a10.4 10.393 0 0 0 -0.0254 0.507 10.4 10.393 0 0 0 10.399 10.395 10.4 10.393 0 0 0 10.4 -10.395 10.4 10.393 0 0 0 -4.521 -8.57 1.9502 1.9489 0 0 0 -0.139 -0.119l-8.451-6.4961a1.9502 1.9489 0 0 0 -1.27 -0.4199zm4.381 10a6 6 0 0 1 6 6 6 6 0 0 1 -6 6 6 6 0 0 1 -6 -6 6 6 0 0 1 6 -6z"/>
  <circle id="path4178" cy="534.8" cx="404.57" r="3" fill="#408ef4"/>
  <path id="path4246" opacity=".3" transform="translate(384.57 515.8)" d="m13.795 4.4531a1.9502 1.9489 0 0 0 0.717 2.0567l0.914 0.7031h1.301l-2.215-1.7031a1.9502 1.9489 0 0 1 -0.717 -1.0567zm-9.7286 5.209a1.9505 1.9492 0 0 0 1.8848 2.4489h3.5097l1.3771-1h-4.8868a1.9505 1.9492 0 0 1 -1.8848 -1.4489zm15.934 2.3379a6 6 0 0 0 -6 6 6 6 0 0 0 0.025 0.498 6 6 0 0 1 5.975 -5.498 6 6 0 0 1 5.975 5.502 6 6 0 0 0 0.025 -0.502 6 6 0 0 0 -6 -6zm-10.773 5.098l-4.0821 2.963a1.9502 1.9489 0 0 1 -3.0781 -1.045 1.9502 1.9489 0 0 0 3.0781 2.045l4.0821-2.963a10.4 10.393 0 0 1 -0.0254 -0.493 10.4 10.393 0 0 1 0.0254 -0.507zm0 1.004a10.4 10.393 0 0 0 -0.0254 0.503 10.4 10.393 0 0 0 10.399 10.395 10.4 10.393 0 0 0 10.4 -10.395 10.4 10.393 0 0 0 -0.021 -0.404 10.4 10.393 0 0 1 -10.379 9.799 10.4 10.393 0 0 1 -10.373 -9.898zm7.8164 0.384a3 3 0 0 0 -0.043 0.514 3 3 0 0 0 3 3 3 3 0 0 0 3 -3 3 3 0 0 0 -0.043 -0.486 3 3 0 0 1 -2.957 2.486 3 3 0 0 1 -2.957 -2.514z"/>
  <path id="path4251" opacity=".2" transform="translate(384.57 515.8)" fill="#fff" d="m15.619 3a1.9502 1.9489 0 0 0 -1.824 2.4531 1.9502 1.9489 0 0 1 1.824 -1.4531 1.9502 1.9489 0 0 1 1.27 0.4199l8.451 6.4961a1.9502 1.9489 0 0 1 0.139 0.119 10.4 10.393 0 0 1 4.5 8.166 10.4 10.393 0 0 0 0.021 -0.596 10.4 10.393 0 0 0 -4.521 -8.57 1.9502 1.9489 0 0 0 -0.139 -0.119l-8.451-6.4961a1.9502 1.9489 0 0 0 -1.27 -0.4199zm-9.6678 5.2129a1.9505 1.9492 0 0 0 -1.8848 2.4491 1.9505 1.9492 0 0 1 1.8848 -1.4491h10.776l-1.301-1h-9.4748zm3.5097 4.8981l-6.6074 4.797a1.9502 1.9489 0 0 0 -0.7871 2.108 1.9502 1.9489 0 0 1 0.7871 -1.108l7.9845-5.797h-1.3771zm10.539 2.889a3 3 0 0 0 -3 3 3 3 0 0 0 0.043 0.486 3 3 0 0 1 2.957 -2.486 3 3 0 0 1 2.957 2.514 3 3 0 0 0 0.043 -0.514 3 3 0 0 0 -3 -3zm-5.975 3.498a6 6 0 0 0 -0.025 0.502 6 6 0 0 0 6 6 6 6 0 0 0 6 -6 6 6 0 0 0 -0.025 -0.498 6 6 0 0 1 -5.975 5.498 6 6 0 0 1 -5.975 -5.502z"/>
 </g>
</svg>
