<?xml version="1.0" encoding="UTF-8" standalone="no"?>
<!-- Created with Inkscape (http://www.inkscape.org/) -->

<svg
   xmlns:dc="http://purl.org/dc/elements/1.1/"
   xmlns:cc="http://creativecommons.org/ns#"
   xmlns:rdf="http://www.w3.org/1999/02/22-rdf-syntax-ns#"
   xmlns:svg="http://www.w3.org/2000/svg"
   xmlns="http://www.w3.org/2000/svg"
   xmlns:sodipodi="http://sodipodi.sourceforge.net/DTD/sodipodi-0.dtd"
   xmlns:inkscape="http://www.inkscape.org/namespaces/inkscape"
   width="32"
   height="32"
   viewBox="0 0 32 32.000001"
   id="svg4398"
   version="1.1"
   inkscape:version="0.91 r"
   sodipodi:docname="devassistant.svg">
  <defs
     id="defs4400" />
  <sodipodi:namedview
     id="base"
     pagecolor="#ffffff"
     bordercolor="#666666"
     borderopacity="1.0"
     inkscape:pageopacity="0.0"
     inkscape:pageshadow="2"
     inkscape:zoom="17.31"
     inkscape:cx="24.176345"
     inkscape:cy="13.790094"
     inkscape:document-units="px"
     inkscape:current-layer="layer1"
     showgrid="false"
     units="px"
     inkscape:window-width="1600"
     inkscape:window-height="846"
     inkscape:window-x="0"
     inkscape:window-y="26"
     inkscape:window-maximized="1" />
  <metadata
     id="metadata4403">
    <rdf:RDF>
      <cc:Work
         rdf:about="">
        <dc:format>image/svg+xml</dc:format>
        <dc:type
           rdf:resource="http://purl.org/dc/dcmitype/StillImage" />
        <dc:title></dc:title>
      </cc:Work>
    </rdf:RDF>
  </metadata>
  <g
     inkscape:label="Layer 1"
     inkscape:groupmode="layer"
     id="layer1"
     transform="translate(0,-1020.3622)">
    <g
       id="g5077"
       transform="translate(0,0.5)">
      <path
         inkscape:connector-curvature="0"
         style="fill:#3e50b4;fill-opacity:1;stroke:none"
         d="m 30,1047.8622 0,-22 c 0,-2 -2,-2 -2,-2 l -26,0 28,24 z m -5,-10.8711 -9.48242,-8.1289 9.48242,0 0,8.1289 z"
         id="path4492" />
      <path
         inkscape:connector-curvature="0"
         id="rect4255"
         d="m 2,1023.8622 0,22 c 0,2 2,2 2,2 l 26,0 -28,-24 z m 5,10.8711 9.48242,8.1289 -9.48242,0 0,-8.1289 z"
         style="fill:#02a8f3;fill-opacity:1;stroke:none" />
      <path
         inkscape:connector-curvature="0"
         id="path4512"
         d="m 2,1023.8622 1.166016,1 24.833984,0 c 0,0 2,0 2,2 l 0,-1 c 0,-2 -2,-2 -2,-2 l -26,0 z m 13.51758,6 9.48242,8.1289 0,-1 -8.31641,-7.1289 -1.16601,0 z"
         style="opacity:0.2;fill:#ffffff;fill-opacity:1;stroke:none" />
      <path
         inkscape:connector-curvature="0"
         id="path4535"
         d="m 2,1023.8622 0,1 26.83398,23 1.16602,0 -28,-24 z m 5,19 0,1 9.48242,0 -1.16601,-1 -8.31641,0 z"
         style="opacity:0.2;fill:#ffffff;fill-opacity:1;stroke:none" />
      <path
         style="opacity:0.1;fill:#000000;fill-opacity:1;stroke:none"
         d="m 30,1047.8622 -1.16602,-1 -24.83398,0 c 0,0 -2,0 -2,-2 l 0,1 c 0,2 2,2 2,2 l 26,0 z m -13.51758,-6 L 7,1033.7333 l 0,1 8.31641,7.1289 1.16601,0 z"
         id="path4544"
         inkscape:connector-curvature="0" />
      <path
         style="opacity:0.1;fill:#000000;fill-opacity:1;stroke:none"
         d="m 30,1047.8622 0,-1 -26.83398,-23 -1.16602,0 28,24 z m -5,-19 0,-1 -9.48242,0 1.16601,1 8.31641,0 z"
         id="path4546"
         inkscape:connector-curvature="0" />
    </g>
  </g>
</svg>
