<?xml version="1.0" encoding="UTF-8" standalone="no"?>
<!-- Created with Inkscape (http://www.inkscape.org/) -->

<svg
   xmlns:dc="http://purl.org/dc/elements/1.1/"
   xmlns:cc="http://creativecommons.org/ns#"
   xmlns:rdf="http://www.w3.org/1999/02/22-rdf-syntax-ns#"
   xmlns:svg="http://www.w3.org/2000/svg"
   xmlns="http://www.w3.org/2000/svg"
   xmlns:sodipodi="http://sodipodi.sourceforge.net/DTD/sodipodi-0.dtd"
   xmlns:inkscape="http://www.inkscape.org/namespaces/inkscape"
   id="svg2817"
   height="32"
   width="32"
   version="1.0"
   inkscape:version="0.91 r"
   sodipodi:docname="evernote.svg">
  <defs
     id="defs225" />
  <sodipodi:namedview
     pagecolor="#ffffff"
     bordercolor="#666666"
     borderopacity="1"
     objecttolerance="10"
     gridtolerance="10"
     guidetolerance="10"
     inkscape:pageopacity="0"
     inkscape:pageshadow="2"
     inkscape:window-width="1547"
     inkscape:window-height="876"
     id="namedview223"
     showgrid="false"
     inkscape:zoom="9.28"
     inkscape:cx="24"
     inkscape:cy="24"
     inkscape:window-x="53"
     inkscape:window-y="24"
     inkscape:window-maximized="1"
     inkscape:current-layer="svg2817" />
  <metadata
     id="metadata57">
    <rdf:RDF>
      <cc:Work
         rdf:about="">
        <dc:format>image/svg+xml</dc:format>
        <dc:type
           rdf:resource="http://purl.org/dc/dcmitype/StillImage" />
        <dc:title></dc:title>
      </cc:Work>
    </rdf:RDF>
  </metadata>
  <text
     id="text4087-2-6-5"
     font-size="12.666px"
     xml:space="preserve"
     y="-5.1873989"
     x="877.22626"
     style="font-size:12.66600037px;font-family:'Bitstream Vera Sans';opacity:0.8;fill:#000000"><tspan
       id="tspan4089-7-2-9"
       y="-5.1873989"
       x="877.22626" /></text>
  <text
     id="text4087-2-6-5-5"
     font-size="12.666px"
     xml:space="preserve"
     y="-45.929108"
     x="901.18719"
     style="font-size:12.66600037px;font-family:'Bitstream Vera Sans';opacity:0.8;fill:#000000"><tspan
       id="tspan4089-7-2-9-6"
       y="-45.929108"
       x="901.18719" /></text>
  <text
     id="text4087-2-6-5-2"
     font-size="12.666px"
     xml:space="preserve"
     y="-76.007248"
     x="-569.37115"
     style="font-size:12.66600037px;font-family:'Bitstream Vera Sans';opacity:0.8;fill:#000000"><tspan
       id="tspan4089-7-2-9-2"
       y="-76.007248"
       x="-569.37115" /></text>
  <text
     id="text4087-2-6-5-59"
     font-size="12.666px"
     xml:space="preserve"
     y="669.5462"
     x="-2393.0571"
     style="font-size:12.66600037px;font-family:'Bitstream Vera Sans';opacity:0.8;fill:#000000"><tspan
       id="tspan4089-7-2-9-4"
       y="669.5462"
       x="-2393.0571" /></text>
  <text
     id="text4087-2-6-5-1"
     font-size="12.666px"
     xml:space="preserve"
     y="-461.32822"
     x="-454.88007"
     style="font-size:12.66600037px;font-family:'Bitstream Vera Sans';opacity:0.8;fill:#000000"><tspan
       id="tspan4089-7-2-9-7"
       y="-461.32822"
       x="-454.88007" /></text>
  <text
     id="text4087-2-6-5-7"
     font-size="12.666px"
     xml:space="preserve"
     y="-874.79834"
     x="352.72208"
     style="font-size:12.66600037px;font-family:'Bitstream Vera Sans';opacity:0.8;fill:#000000"><tspan
       id="tspan4089-7-2-9-1"
       y="-874.79834"
       x="352.72208" /></text>
  <text
     id="text4087-2-6-5-5-3"
     font-size="12.666px"
     xml:space="preserve"
     y="-915.54004"
     x="376.68301"
     style="font-size:12.66600037px;font-family:'Bitstream Vera Sans';opacity:0.8;fill:#000000"><tspan
       id="tspan4089-7-2-9-6-5"
       y="-915.54004"
       x="376.68301" /></text>
  <text
     id="text4087-2-6-5-3"
     font-size="12.666px"
     xml:space="preserve"
     y="-922.74994"
     x="-1114.7802"
     style="font-size:12.66600037px;font-family:'Bitstream Vera Sans';opacity:0.8;fill:#000000"><tspan
       id="tspan4089-7-2-9-18"
       y="-922.74994"
       x="-1114.7802" /></text>
  <text
     id="text4087-2-6-5-4"
     font-size="12.666px"
     xml:space="preserve"
     y="-1195.9841"
     x="345.7626"
     style="font-size:12.66600037px;font-family:'Bitstream Vera Sans';opacity:0.8;fill:#000000"><tspan
       id="tspan4089-7-2-9-9"
       y="-1195.9841"
       x="345.7626" /></text>
  <text
     id="text4087-2-6-5-7-1"
     font-size="12.666px"
     xml:space="preserve"
     y="-569.29272"
     x="1831.8861"
     style="font-size:12.66600037px;font-family:'Bitstream Vera Sans';opacity:0.8;fill:#000000"><tspan
       id="tspan4089-7-2-9-1-8"
       y="-569.29272"
       x="1831.8861" /></text>
  <text
     id="text4087-2-6-5-5-5"
     font-size="12.666px"
     xml:space="preserve"
     y="-610.03448"
     x="1855.8469"
     style="font-size:12.66600037px;font-family:'Bitstream Vera Sans';opacity:0.8;fill:#000000"><tspan
       id="tspan4089-7-2-9-6-9"
       y="-610.03448"
       x="1855.8469" /></text>
  <text
     id="text4087-2-6-5-75"
     font-size="12.666px"
     xml:space="preserve"
     y="-617.24438"
     x="364.38376"
     style="font-size:12.66600037px;font-family:'Bitstream Vera Sans';opacity:0.8;fill:#000000"><tspan
       id="tspan4089-7-2-9-3"
       y="-617.24438"
       x="364.38376" /></text>
  <text
     id="text4087-2-6-5-4-8"
     font-size="12.666px"
     xml:space="preserve"
     y="-890.47839"
     x="1824.9266"
     style="font-size:12.66600037px;font-family:'Bitstream Vera Sans';opacity:0.8;fill:#000000"><tspan
       id="tspan4089-7-2-9-9-8"
       y="-890.47839"
       x="1824.9266" /></text>
  <text
     id="text4087-2-6-5-45"
     font-size="12.666px"
     xml:space="preserve"
     y="-665.33569"
     x="-573.43256"
     style="font-size:12.66600037px;font-family:'Bitstream Vera Sans';opacity:0.8;fill:#000000"><tspan
       id="tspan4089-7-2-9-75"
       y="-665.33569"
       x="-573.43256" /></text>
  <text
     id="text4087-2-6-5-59-7"
     font-size="12.666px"
     xml:space="preserve"
     y="80.217857"
     x="-2397.1182"
     style="font-size:12.66600037px;font-family:'Bitstream Vera Sans';opacity:0.8;fill:#000000"><tspan
       id="tspan4089-7-2-9-4-0"
       y="80.217857"
       x="-2397.1182" /></text>
  <text
     id="text4087-2-6-5-8"
     font-size="12.666px"
     xml:space="preserve"
     y="173.09"
     x="-682.36279"
     style="font-size:12.66600037px;font-family:'Bitstream Vera Sans';opacity:0.8;fill:#000000"><tspan
       id="tspan4089-7-2-9-19"
       y="173.09"
       x="-682.36279" /></text>
  <text
     id="text4087-2-6-5-7-5"
     font-size="12.666px"
     xml:space="preserve"
     y="-6.0921478"
     x="426.66153"
     style="font-size:12.66600037px;font-family:'Bitstream Vera Sans';opacity:0.8;fill:#000000"><tspan
       id="tspan4089-7-2-9-1-2"
       y="-6.0921478"
       x="426.66153" /></text>
  <text
     id="text4087-2-6-5-5-0"
     font-size="12.666px"
     xml:space="preserve"
     y="-46.833855"
     x="450.62247"
     style="font-size:12.66600037px;font-family:'Bitstream Vera Sans';opacity:0.8;fill:#000000"><tspan
       id="tspan4089-7-2-9-6-2"
       y="-46.833855"
       x="450.62247" /></text>
  <text
     id="text4087-2-6-5-26"
     font-size="12.666px"
     xml:space="preserve"
     y="-54.043827"
     x="-1040.8407"
     style="font-size:12.66600037px;font-family:'Bitstream Vera Sans';opacity:0.8;fill:#000000"><tspan
       id="tspan4089-7-2-9-90"
       y="-54.043827"
       x="-1040.8407" /></text>
  <text
     id="text4087-2-6-5-4-3"
     font-size="12.666px"
     xml:space="preserve"
     y="-327.27789"
     x="419.70206"
     style="font-size:12.66600037px;font-family:'Bitstream Vera Sans';opacity:0.8;fill:#000000"><tspan
       id="tspan4089-7-2-9-9-5"
       y="-327.27789"
       x="419.70206" /></text>
  <text
     id="text4087-2-6-5-55"
     font-size="12.666px"
     xml:space="preserve"
     y="-56.758072"
     x="-608.03253"
     style="font-size:12.66600037px;font-family:'Bitstream Vera Sans';opacity:0.8;fill:#000000"><tspan
       id="tspan4089-7-2-9-32"
       y="-56.758072"
       x="-608.03253" /></text>
  <text
     id="text4087-2-6-5-59-9"
     font-size="12.666px"
     xml:space="preserve"
     y="688.79541"
     x="-2431.7185"
     style="font-size:12.66600037px;font-family:'Bitstream Vera Sans';opacity:0.8;fill:#000000"><tspan
       id="tspan4089-7-2-9-4-1"
       y="688.79541"
       x="-2431.7185" /></text>
  <text
     id="text4087-2-6-5-1-8"
     font-size="12.666px"
     xml:space="preserve"
     y="-918.28857"
     x="-456.93948"
     style="font-size:12.66600037px;font-family:'Bitstream Vera Sans';opacity:0.8;fill:#000000"><tspan
       id="tspan4089-7-2-9-7-8"
       y="-918.28857"
       x="-456.93948" /></text>
  <text
     id="text4087-2-6-5-7-8"
     font-size="12.666px"
     xml:space="preserve"
     y="-1331.7588"
     x="350.66266"
     style="font-size:12.66600037px;font-family:'Bitstream Vera Sans';opacity:0.8;fill:#000000"><tspan
       id="tspan4089-7-2-9-1-9"
       y="-1331.7588"
       x="350.66266" /></text>
  <text
     id="text4087-2-6-5-5-52"
     font-size="12.666px"
     xml:space="preserve"
     y="-1372.5005"
     x="374.62357"
     style="font-size:12.66600037px;font-family:'Bitstream Vera Sans';opacity:0.8;fill:#000000"><tspan
       id="tspan4089-7-2-9-6-4"
       y="-1372.5005"
       x="374.62357" /></text>
  <text
     id="text4087-2-6-5-3-4"
     font-size="12.666px"
     xml:space="preserve"
     y="-1379.7104"
     x="-1116.8396"
     style="font-size:12.66600037px;font-family:'Bitstream Vera Sans';opacity:0.8;fill:#000000"><tspan
       id="tspan4089-7-2-9-18-3"
       y="-1379.7104"
       x="-1116.8396" /></text>
  <text
     id="text4087-2-6-5-4-7"
     font-size="12.666px"
     xml:space="preserve"
     y="-1652.9446"
     x="343.70316"
     style="font-size:12.66600037px;font-family:'Bitstream Vera Sans';opacity:0.8;fill:#000000"><tspan
       id="tspan4089-7-2-9-9-54"
       y="-1652.9446"
       x="343.70316" /></text>
  <text
     id="text4087-2-6-5-7-1-2"
     font-size="12.666px"
     xml:space="preserve"
     y="-1026.2533"
     x="1829.8265"
     style="font-size:12.66600037px;font-family:'Bitstream Vera Sans';opacity:0.8;fill:#000000"><tspan
       id="tspan4089-7-2-9-1-8-0"
       y="-1026.2533"
       x="1829.8265" /></text>
  <text
     id="text4087-2-6-5-5-5-6"
     font-size="12.666px"
     xml:space="preserve"
     y="-1066.9949"
     x="1853.7874"
     style="font-size:12.66600037px;font-family:'Bitstream Vera Sans';opacity:0.8;fill:#000000"><tspan
       id="tspan4089-7-2-9-6-9-8"
       y="-1066.9949"
       x="1853.7874" /></text>
  <text
     id="text4087-2-6-5-75-4"
     font-size="12.666px"
     xml:space="preserve"
     y="-1074.2048"
     x="362.32431"
     style="font-size:12.66600037px;font-family:'Bitstream Vera Sans';opacity:0.8;fill:#000000"><tspan
       id="tspan4089-7-2-9-3-9"
       y="-1074.2048"
       x="362.32431" /></text>
  <text
     id="text4087-2-6-5-4-8-1"
     font-size="12.666px"
     xml:space="preserve"
     y="-1347.439"
     x="1822.8671"
     style="font-size:12.66600037px;font-family:'Bitstream Vera Sans';opacity:0.8;fill:#000000"><tspan
       id="tspan4089-7-2-9-9-8-8"
       y="-1347.439"
       x="1822.8671" /></text>
  <text
     id="text4087-2-6-5-45-0"
     font-size="12.666px"
     xml:space="preserve"
     y="-1122.2961"
     x="-575.492"
     style="font-size:12.66600037px;font-family:'Bitstream Vera Sans';opacity:0.8;fill:#000000"><tspan
       id="tspan4089-7-2-9-75-2"
       y="-1122.2961"
       x="-575.492" /></text>
  <text
     id="text4087-2-6-5-59-5"
     font-size="12.666px"
     xml:space="preserve"
     y="-376.74261"
     x="-2399.1777"
     style="font-size:12.66600037px;font-family:'Bitstream Vera Sans';opacity:0.8;fill:#000000"><tspan
       id="tspan4089-7-2-9-4-00"
       y="-376.74261"
       x="-2399.1777" /></text>
  <text
     id="text4087-2-6-5-264"
     font-size="12.666px"
     xml:space="preserve"
     y="-283.87045"
     x="-684.42224"
     style="font-size:12.66600037px;font-family:'Bitstream Vera Sans';opacity:0.8;fill:#000000"><tspan
       id="tspan4089-7-2-9-8"
       y="-283.87045"
       x="-684.42224" /></text>
  <text
     id="text4087-2-6-5-42"
     font-size="12.666px"
     xml:space="preserve"
     y="-42.956276"
     x="155.5923"
     style="font-size:12.66600037px;font-family:'Bitstream Vera Sans';opacity:0.8;fill:#000000"><tspan
       id="tspan4089-7-2-9-93"
       y="-42.956276"
       x="155.5923" /></text>
  <text
     id="text4087-2-6-5-5-05"
     font-size="12.666px"
     xml:space="preserve"
     y="-83.697998"
     x="179.55324"
     style="font-size:12.66600037px;font-family:'Bitstream Vera Sans';opacity:0.8;fill:#000000"><tspan
       id="tspan4089-7-2-9-6-49"
       y="-83.697998"
       x="179.55324" /></text>
  <text
     id="text4087-2-6-5-1-4"
     font-size="12.666px"
     xml:space="preserve"
     y="-277.72662"
     x="-1090.2634"
     style="font-size:12.66600037px;font-family:'Bitstream Vera Sans';opacity:0.8;fill:#000000"><tspan
       id="tspan4089-7-2-9-7-7"
       y="-277.72662"
       x="-1090.2634" /></text>
  <text
     id="text4087-2-6-5-7-56"
     font-size="12.666px"
     xml:space="preserve"
     y="-691.19678"
     x="-282.66141"
     style="font-size:12.66600037px;font-family:'Bitstream Vera Sans';opacity:0.8;fill:#000000"><tspan
       id="tspan4089-7-2-9-1-1"
       y="-691.19678"
       x="-282.66141" /></text>
  <text
     id="text4087-2-6-5-5-8"
     font-size="12.666px"
     xml:space="preserve"
     y="-731.93848"
     x="-258.70047"
     style="font-size:12.66600037px;font-family:'Bitstream Vera Sans';opacity:0.8;fill:#000000"><tspan
       id="tspan4089-7-2-9-6-7"
       y="-731.93848"
       x="-258.70047" /></text>
  <text
     id="text4087-2-6-5-3-42"
     font-size="12.666px"
     xml:space="preserve"
     y="-739.14838"
     x="-1750.1636"
     style="font-size:12.66600037px;font-family:'Bitstream Vera Sans';opacity:0.8;fill:#000000"><tspan
       id="tspan4089-7-2-9-18-39"
       y="-739.14838"
       x="-1750.1636" /></text>
  <text
     id="text4087-2-6-5-4-4"
     font-size="12.666px"
     xml:space="preserve"
     y="-1012.3825"
     x="-289.62085"
     style="font-size:12.66600037px;font-family:'Bitstream Vera Sans';opacity:0.8;fill:#000000"><tspan
       id="tspan4089-7-2-9-9-3"
       y="-1012.3825"
       x="-289.62085" /></text>
  <text
     id="text4087-2-6-5-7-1-0"
     font-size="12.666px"
     xml:space="preserve"
     y="-385.69113"
     x="1196.5026"
     style="font-size:12.66600037px;font-family:'Bitstream Vera Sans';opacity:0.8;fill:#000000"><tspan
       id="tspan4089-7-2-9-1-8-5"
       y="-385.69113"
       x="1196.5026" /></text>
  <text
     id="text4087-2-6-5-5-5-5"
     font-size="12.666px"
     xml:space="preserve"
     y="-426.43286"
     x="1220.4634"
     style="font-size:12.66600037px;font-family:'Bitstream Vera Sans';opacity:0.8;fill:#000000"><tspan
       id="tspan4089-7-2-9-6-9-2"
       y="-426.43286"
       x="1220.4634" /></text>
  <text
     id="text4087-2-6-5-75-9"
     font-size="12.666px"
     xml:space="preserve"
     y="-433.64282"
     x="-270.99973"
     style="font-size:12.66600037px;font-family:'Bitstream Vera Sans';opacity:0.8;fill:#000000"><tspan
       id="tspan4089-7-2-9-3-1"
       y="-433.64282"
       x="-270.99973" /></text>
  <text
     id="text4087-2-6-5-4-8-18"
     font-size="12.666px"
     xml:space="preserve"
     y="-706.87689"
     x="1189.5431"
     style="font-size:12.66600037px;font-family:'Bitstream Vera Sans';opacity:0.8;fill:#000000"><tspan
       id="tspan4089-7-2-9-9-8-4"
       y="-706.87689"
       x="1189.5431" /></text>
  <text
     id="text4087-2-6-5-45-3"
     font-size="12.666px"
     xml:space="preserve"
     y="-481.7341"
     x="-1208.816"
     style="font-size:12.66600037px;font-family:'Bitstream Vera Sans';opacity:0.8;fill:#000000"><tspan
       id="tspan4089-7-2-9-75-7"
       y="-481.7341"
       x="-1208.816" /></text>
  <text
     id="text4087-2-6-5-59-8"
     font-size="12.666px"
     xml:space="preserve"
     y="263.81946"
     x="-3032.5017"
     style="font-size:12.66600037px;font-family:'Bitstream Vera Sans';opacity:0.8;fill:#000000"><tspan
       id="tspan4089-7-2-9-4-2"
       y="263.81946"
       x="-3032.5017" /></text>
  <g
     id="layer4-0"
     transform="matrix(0.90475,0,0,0.90475,-716.75,-692.29)">
    <text
       id="text4087-2-6-5-20"
       font-size="14px"
       xml:space="preserve"
       y="1159.4154"
       x="-664.2738"
       style="font-size:14px;font-family:'Bitstream Vera Sans';opacity:0.8;fill:#000000"><tspan
         id="tspan4089-7-2-9-82"
         y="1159.4154"
         x="-664.2738" /></text>
  </g>
  <text
     id="text4087-2-6-5-9"
     font-size="12.666px"
     xml:space="preserve"
     y="2.0505886"
     x="877.22626"
     style="font-size:12.66600037px;font-family:'Bitstream Vera Sans';opacity:0.8;fill:#000000"><tspan
       id="tspan4089-7-2-9-43"
       y="2.0505886"
       x="877.22626" /></text>
  <text
     id="text4087-2-6-5-5-51"
     font-size="12.666px"
     xml:space="preserve"
     y="-38.691116"
     x="901.18719"
     style="font-size:12.66600037px;font-family:'Bitstream Vera Sans';opacity:0.8;fill:#000000"><tspan
       id="tspan4089-7-2-9-6-74"
       y="-38.691116"
       x="901.18719" /></text>
  <text
     id="text4087-2-6-5-2-3"
     font-size="12.666px"
     xml:space="preserve"
     y="-68.769257"
     x="-569.37115"
     style="font-size:12.66600037px;font-family:'Bitstream Vera Sans';opacity:0.8;fill:#000000"><tspan
       id="tspan4089-7-2-9-2-1"
       y="-68.769257"
       x="-569.37115" /></text>
  <text
     id="text4087-2-6-5-59-4"
     font-size="12.666px"
     xml:space="preserve"
     y="676.78418"
     x="-2393.0571"
     style="font-size:12.66600037px;font-family:'Bitstream Vera Sans';opacity:0.8;fill:#000000"><tspan
       id="tspan4089-7-2-9-4-6"
       y="676.78418"
       x="-2393.0571" /></text>
  <text
     id="text4087-2-6-5-1-9"
     font-size="12.666px"
     xml:space="preserve"
     y="-454.09021"
     x="-454.88007"
     style="font-size:12.66600037px;font-family:'Bitstream Vera Sans';opacity:0.8;fill:#000000"><tspan
       id="tspan4089-7-2-9-7-4"
       y="-454.09021"
       x="-454.88007" /></text>
  <text
     id="text4087-2-6-5-7-2"
     font-size="12.666px"
     xml:space="preserve"
     y="-867.5603"
     x="352.72208"
     style="font-size:12.66600037px;font-family:'Bitstream Vera Sans';opacity:0.8;fill:#000000"><tspan
       id="tspan4089-7-2-9-1-26"
       y="-867.5603"
       x="352.72208" /></text>
  <text
     id="text4087-2-6-5-5-3-4"
     font-size="12.666px"
     xml:space="preserve"
     y="-908.30206"
     x="376.68301"
     style="font-size:12.66600037px;font-family:'Bitstream Vera Sans';opacity:0.8;fill:#000000"><tspan
       id="tspan4089-7-2-9-6-5-1"
       y="-908.30206"
       x="376.68301" /></text>
  <text
     id="text4087-2-6-5-3-2"
     font-size="12.666px"
     xml:space="preserve"
     y="-915.51196"
     x="-1114.7802"
     style="font-size:12.66600037px;font-family:'Bitstream Vera Sans';opacity:0.8;fill:#000000"><tspan
       id="tspan4089-7-2-9-18-8"
       y="-915.51196"
       x="-1114.7802" /></text>
  <text
     id="text4087-2-6-5-4-89"
     font-size="12.666px"
     xml:space="preserve"
     y="-1188.7461"
     x="345.7626"
     style="font-size:12.66600037px;font-family:'Bitstream Vera Sans';opacity:0.8;fill:#000000"><tspan
       id="tspan4089-7-2-9-9-2"
       y="-1188.7461"
       x="345.7626" /></text>
  <text
     id="text4087-2-6-5-7-1-8"
     font-size="12.666px"
     xml:space="preserve"
     y="-562.05475"
     x="1831.8861"
     style="font-size:12.66600037px;font-family:'Bitstream Vera Sans';opacity:0.8;fill:#000000"><tspan
       id="tspan4089-7-2-9-1-8-8"
       y="-562.05475"
       x="1831.8861" /></text>
  <text
     id="text4087-2-6-5-5-5-8"
     font-size="12.666px"
     xml:space="preserve"
     y="-602.79651"
     x="1855.8469"
     style="font-size:12.66600037px;font-family:'Bitstream Vera Sans';opacity:0.8;fill:#000000"><tspan
       id="tspan4089-7-2-9-6-9-6"
       y="-602.79651"
       x="1855.8469" /></text>
  <text
     id="text4087-2-6-5-75-8"
     font-size="12.666px"
     xml:space="preserve"
     y="-610.00641"
     x="364.38376"
     style="font-size:12.66600037px;font-family:'Bitstream Vera Sans';opacity:0.8;fill:#000000"><tspan
       id="tspan4089-7-2-9-3-3"
       y="-610.00641"
       x="364.38376" /></text>
  <text
     id="text4087-2-6-5-4-8-8"
     font-size="12.666px"
     xml:space="preserve"
     y="-883.24036"
     x="1824.9266"
     style="font-size:12.66600037px;font-family:'Bitstream Vera Sans';opacity:0.8;fill:#000000"><tspan
       id="tspan4089-7-2-9-9-8-3"
       y="-883.24036"
       x="1824.9266" /></text>
  <text
     id="text4087-2-6-5-45-33"
     font-size="12.666px"
     xml:space="preserve"
     y="-658.09772"
     x="-573.43256"
     style="font-size:12.66600037px;font-family:'Bitstream Vera Sans';opacity:0.8;fill:#000000"><tspan
       id="tspan4089-7-2-9-75-8"
       y="-658.09772"
       x="-573.43256" /></text>
  <text
     id="text4087-2-6-5-59-7-0"
     font-size="12.666px"
     xml:space="preserve"
     y="87.455849"
     x="-2397.1182"
     style="font-size:12.66600037px;font-family:'Bitstream Vera Sans';opacity:0.8;fill:#000000"><tspan
       id="tspan4089-7-2-9-4-0-4"
       y="87.455849"
       x="-2397.1182" /></text>
  <text
     id="text4087-2-6-5-8-7"
     font-size="12.666px"
     xml:space="preserve"
     y="180.32799"
     x="-682.36279"
     style="font-size:12.66600037px;font-family:'Bitstream Vera Sans';opacity:0.8;fill:#000000"><tspan
       id="tspan4089-7-2-9-19-6"
       y="180.32799"
       x="-682.36279" /></text>
  <text
     id="text4087-2-6-5-7-5-8"
     font-size="12.666px"
     xml:space="preserve"
     y="1.1458397"
     x="426.66153"
     style="font-size:12.66600037px;font-family:'Bitstream Vera Sans';opacity:0.8;fill:#000000"><tspan
       id="tspan4089-7-2-9-1-2-9"
       y="1.1458397"
       x="426.66153" /></text>
  <text
     id="text4087-2-6-5-5-0-0"
     font-size="12.666px"
     xml:space="preserve"
     y="-39.595863"
     x="450.62247"
     style="font-size:12.66600037px;font-family:'Bitstream Vera Sans';opacity:0.8;fill:#000000"><tspan
       id="tspan4089-7-2-9-6-2-6"
       y="-39.595863"
       x="450.62247" /></text>
  <text
     id="text4087-2-6-5-26-8"
     font-size="12.666px"
     xml:space="preserve"
     y="-46.805836"
     x="-1040.8407"
     style="font-size:12.66600037px;font-family:'Bitstream Vera Sans';opacity:0.8;fill:#000000"><tspan
       id="tspan4089-7-2-9-90-7"
       y="-46.805836"
       x="-1040.8407" /></text>
  <text
     id="text4087-2-6-5-4-3-9"
     font-size="12.666px"
     xml:space="preserve"
     y="-320.03989"
     x="419.70206"
     style="font-size:12.66600037px;font-family:'Bitstream Vera Sans';opacity:0.8;fill:#000000"><tspan
       id="tspan4089-7-2-9-9-5-0"
       y="-320.03989"
       x="419.70206" /></text>
  <text
     id="text4087-2-6-5-55-3"
     font-size="12.666px"
     xml:space="preserve"
     y="-49.520081"
     x="-608.03253"
     style="font-size:12.66600037px;font-family:'Bitstream Vera Sans';opacity:0.8;fill:#000000"><tspan
       id="tspan4089-7-2-9-32-3"
       y="-49.520081"
       x="-608.03253" /></text>
  <text
     id="text4087-2-6-5-59-9-3"
     font-size="12.666px"
     xml:space="preserve"
     y="696.03345"
     x="-2431.7185"
     style="font-size:12.66600037px;font-family:'Bitstream Vera Sans';opacity:0.8;fill:#000000"><tspan
       id="tspan4089-7-2-9-4-1-7"
       y="696.03345"
       x="-2431.7185" /></text>
  <text
     id="text4087-2-6-5-1-8-3"
     font-size="12.666px"
     xml:space="preserve"
     y="-911.0506"
     x="-456.93948"
     style="font-size:12.66600037px;font-family:'Bitstream Vera Sans';opacity:0.8;fill:#000000"><tspan
       id="tspan4089-7-2-9-7-8-2"
       y="-911.0506"
       x="-456.93948" /></text>
  <text
     id="text4087-2-6-5-7-8-6"
     font-size="12.666px"
     xml:space="preserve"
     y="-1324.5208"
     x="350.66266"
     style="font-size:12.66600037px;font-family:'Bitstream Vera Sans';opacity:0.8;fill:#000000"><tspan
       id="tspan4089-7-2-9-1-9-5"
       y="-1324.5208"
       x="350.66266" /></text>
  <text
     id="text4087-2-6-5-5-52-2"
     font-size="12.666px"
     xml:space="preserve"
     y="-1365.2626"
     x="374.62357"
     style="font-size:12.66600037px;font-family:'Bitstream Vera Sans';opacity:0.8;fill:#000000"><tspan
       id="tspan4089-7-2-9-6-4-6"
       y="-1365.2626"
       x="374.62357" /></text>
  <text
     id="text4087-2-6-5-3-4-5"
     font-size="12.666px"
     xml:space="preserve"
     y="-1372.4724"
     x="-1116.8396"
     style="font-size:12.66600037px;font-family:'Bitstream Vera Sans';opacity:0.8;fill:#000000"><tspan
       id="tspan4089-7-2-9-18-3-8"
       y="-1372.4724"
       x="-1116.8396" /></text>
  <text
     id="text4087-2-6-5-4-7-7"
     font-size="12.666px"
     xml:space="preserve"
     y="-1645.7065"
     x="343.70316"
     style="font-size:12.66600037px;font-family:'Bitstream Vera Sans';opacity:0.8;fill:#000000"><tspan
       id="tspan4089-7-2-9-9-54-9"
       y="-1645.7065"
       x="343.70316" /></text>
  <text
     id="text4087-2-6-5-7-1-2-6"
     font-size="12.666px"
     xml:space="preserve"
     y="-1019.0153"
     x="1829.8265"
     style="font-size:12.66600037px;font-family:'Bitstream Vera Sans';opacity:0.8;fill:#000000"><tspan
       id="tspan4089-7-2-9-1-8-0-0"
       y="-1019.0153"
       x="1829.8265" /></text>
  <text
     id="text4087-2-6-5-5-5-6-4"
     font-size="12.666px"
     xml:space="preserve"
     y="-1059.757"
     x="1853.7874"
     style="font-size:12.66600037px;font-family:'Bitstream Vera Sans';opacity:0.8;fill:#000000"><tspan
       id="tspan4089-7-2-9-6-9-8-1"
       y="-1059.757"
       x="1853.7874" /></text>
  <text
     id="text4087-2-6-5-75-4-0"
     font-size="12.666px"
     xml:space="preserve"
     y="-1066.9668"
     x="362.32431"
     style="font-size:12.66600037px;font-family:'Bitstream Vera Sans';opacity:0.8;fill:#000000"><tspan
       id="tspan4089-7-2-9-3-9-4"
       y="-1066.9668"
       x="362.32431" /></text>
  <text
     id="text4087-2-6-5-4-8-1-8"
     font-size="12.666px"
     xml:space="preserve"
     y="-1340.2009"
     x="1822.8671"
     style="font-size:12.66600037px;font-family:'Bitstream Vera Sans';opacity:0.8;fill:#000000"><tspan
       id="tspan4089-7-2-9-9-8-8-7"
       y="-1340.2009"
       x="1822.8671" /></text>
  <text
     id="text4087-2-6-5-45-0-0"
     font-size="12.666px"
     xml:space="preserve"
     y="-1115.0581"
     x="-575.492"
     style="font-size:12.66600037px;font-family:'Bitstream Vera Sans';opacity:0.8;fill:#000000"><tspan
       id="tspan4089-7-2-9-75-2-8"
       y="-1115.0581"
       x="-575.492" /></text>
  <text
     id="text4087-2-6-5-59-5-6"
     font-size="12.666px"
     xml:space="preserve"
     y="-369.50461"
     x="-2399.1777"
     style="font-size:12.66600037px;font-family:'Bitstream Vera Sans';opacity:0.8;fill:#000000"><tspan
       id="tspan4089-7-2-9-4-00-2"
       y="-369.50461"
       x="-2399.1777" /></text>
  <text
     id="text4087-2-6-5-264-4"
     font-size="12.666px"
     xml:space="preserve"
     y="-276.63245"
     x="-684.42224"
     style="font-size:12.66600037px;font-family:'Bitstream Vera Sans';opacity:0.8;fill:#000000"><tspan
       id="tspan4089-7-2-9-8-7"
       y="-276.63245"
       x="-684.42224" /></text>
  <text
     id="text4087-2-6-5-42-9"
     font-size="12.666px"
     xml:space="preserve"
     y="-35.718292"
     x="155.5923"
     style="font-size:12.66600037px;font-family:'Bitstream Vera Sans';opacity:0.8;fill:#000000"><tspan
       id="tspan4089-7-2-9-93-3"
       y="-35.718292"
       x="155.5923" /></text>
  <text
     id="text4087-2-6-5-5-05-9"
     font-size="12.666px"
     xml:space="preserve"
     y="-76.460007"
     x="179.55324"
     style="font-size:12.66600037px;font-family:'Bitstream Vera Sans';opacity:0.8;fill:#000000"><tspan
       id="tspan4089-7-2-9-6-49-2"
       y="-76.460007"
       x="179.55324" /></text>
  <text
     id="text4087-2-6-5-1-4-8"
     font-size="12.666px"
     xml:space="preserve"
     y="-270.48859"
     x="-1090.2634"
     style="font-size:12.66600037px;font-family:'Bitstream Vera Sans';opacity:0.8;fill:#000000"><tspan
       id="tspan4089-7-2-9-7-7-3"
       y="-270.48859"
       x="-1090.2634" /></text>
  <text
     id="text4087-2-6-5-7-56-0"
     font-size="12.666px"
     xml:space="preserve"
     y="-683.9588"
     x="-282.66141"
     style="font-size:12.66600037px;font-family:'Bitstream Vera Sans';opacity:0.8;fill:#000000"><tspan
       id="tspan4089-7-2-9-1-1-1"
       y="-683.9588"
       x="-282.66141" /></text>
  <text
     id="text4087-2-6-5-5-8-7"
     font-size="12.666px"
     xml:space="preserve"
     y="-724.7005"
     x="-258.70047"
     style="font-size:12.66600037px;font-family:'Bitstream Vera Sans';opacity:0.8;fill:#000000"><tspan
       id="tspan4089-7-2-9-6-7-8"
       y="-724.7005"
       x="-258.70047" /></text>
  <text
     id="text4087-2-6-5-3-42-9"
     font-size="12.666px"
     xml:space="preserve"
     y="-731.91046"
     x="-1750.1636"
     style="font-size:12.66600037px;font-family:'Bitstream Vera Sans';opacity:0.8;fill:#000000"><tspan
       id="tspan4089-7-2-9-18-39-1"
       y="-731.91046"
       x="-1750.1636" /></text>
  <text
     id="text4087-2-6-5-4-4-5"
     font-size="12.666px"
     xml:space="preserve"
     y="-1005.1445"
     x="-289.62085"
     style="font-size:12.66600037px;font-family:'Bitstream Vera Sans';opacity:0.8;fill:#000000"><tspan
       id="tspan4089-7-2-9-9-3-4"
       y="-1005.1445"
       x="-289.62085" /></text>
  <text
     id="text4087-2-6-5-7-1-0-9"
     font-size="12.666px"
     xml:space="preserve"
     y="-378.45316"
     x="1196.5026"
     style="font-size:12.66600037px;font-family:'Bitstream Vera Sans';opacity:0.8;fill:#000000"><tspan
       id="tspan4089-7-2-9-1-8-5-2"
       y="-378.45316"
       x="1196.5026" /></text>
  <text
     id="text4087-2-6-5-5-5-5-5"
     font-size="12.666px"
     xml:space="preserve"
     y="-419.19489"
     x="1220.4634"
     style="font-size:12.66600037px;font-family:'Bitstream Vera Sans';opacity:0.8;fill:#000000"><tspan
       id="tspan4089-7-2-9-6-9-2-7"
       y="-419.19489"
       x="1220.4634" /></text>
  <text
     id="text4087-2-6-5-75-9-4"
     font-size="12.666px"
     xml:space="preserve"
     y="-426.40482"
     x="-270.99973"
     style="font-size:12.66600037px;font-family:'Bitstream Vera Sans';opacity:0.8;fill:#000000"><tspan
       id="tspan4089-7-2-9-3-1-9"
       y="-426.40482"
       x="-270.99973" /></text>
  <text
     id="text4087-2-6-5-4-8-18-9"
     font-size="12.666px"
     xml:space="preserve"
     y="-699.63892"
     x="1189.5431"
     style="font-size:12.66600037px;font-family:'Bitstream Vera Sans';opacity:0.8;fill:#000000"><tspan
       id="tspan4089-7-2-9-9-8-4-4"
       y="-699.63892"
       x="1189.5431" /></text>
  <text
     id="text4087-2-6-5-45-3-5"
     font-size="12.666px"
     xml:space="preserve"
     y="-474.49609"
     x="-1208.816"
     style="font-size:12.66600037px;font-family:'Bitstream Vera Sans';opacity:0.8;fill:#000000"><tspan
       id="tspan4089-7-2-9-75-7-9"
       y="-474.49609"
       x="-1208.816" /></text>
  <text
     id="text4087-2-6-5-59-8-3"
     font-size="12.666px"
     xml:space="preserve"
     y="271.05743"
     x="-3032.5017"
     style="font-size:12.66600037px;font-family:'Bitstream Vera Sans';opacity:0.8;fill:#000000"><tspan
       id="tspan4089-7-2-9-4-2-5"
       y="271.05743"
       x="-3032.5017" /></text>
  <g
     id="layer4-0-7"
     transform="matrix(0.90475,0,0,0.90475,-716.75,-685.05)">
    <text
       id="text4087-2-6-5-20-0"
       font-size="14px"
       xml:space="preserve"
       y="1159.4154"
       x="-664.2738"
       style="font-size:14px;font-family:'Bitstream Vera Sans';opacity:0.8;fill:#000000"><tspan
         id="tspan4089-7-2-9-82-8"
         y="1159.4154"
         x="-664.2738" /></text>
  </g>
  <text
     id="text7276"
     font-size="12.666px"
     xml:space="preserve"
     y="-377.22546"
     x="435.90427"
     style="font-size:12.66600037px;font-family:'Droid Sans';fill:#000000"><tspan
       id="tspan7278"
       y="-377.22546"
       x="435.90427" /><tspan
       id="tspan7280"
       y="-361.3924"
       x="435.90427" /></text>
  <text
     id="text4087-2-6-5-51"
     font-size="12.666px"
     xml:space="preserve"
     y="-859.27002"
     x="901.0882"
     style="font-size:12.66600037px;font-family:'Bitstream Vera Sans';opacity:0.8;fill:#000000"><tspan
       id="tspan4089-7-2-9-97"
       y="-859.27002"
       x="901.0882" /></text>
  <text
     id="text4087-2-6-5-59-2"
     font-size="12.666px"
     xml:space="preserve"
     y="-113.71655"
     x="-922.59778"
     style="font-size:12.66600037px;font-family:'Bitstream Vera Sans';opacity:0.8;fill:#000000"><tspan
       id="tspan4089-7-2-9-4-4"
       y="-113.71655"
       x="-922.59778" /></text>
  <text
     id="text4087-2-6-5-7-7"
     font-size="12.666px"
     xml:space="preserve"
     y="-1144.2659"
     x="1628.1677"
     style="font-size:12.66600037px;font-family:'Bitstream Vera Sans';opacity:0.8;fill:#000000"><tspan
       id="tspan4089-7-2-9-1-6"
       y="-1144.2659"
       x="1628.1677" /></text>
  <text
     id="text4087-2-6-5-5-6"
     font-size="12.666px"
     xml:space="preserve"
     y="-1185.0076"
     x="1652.1285"
     style="font-size:12.66600037px;font-family:'Bitstream Vera Sans';opacity:0.8;fill:#000000"><tspan
       id="tspan4089-7-2-9-6-53"
       y="-1185.0076"
       x="1652.1285" /></text>
  <text
     id="text4087-2-6-5-54"
     font-size="12.666px"
     xml:space="preserve"
     y="-1192.2175"
     x="160.66542"
     style="font-size:12.66600037px;font-family:'Bitstream Vera Sans';opacity:0.8;fill:#000000"><tspan
       id="tspan4089-7-2-9-0"
       y="-1192.2175"
       x="160.66542" /></text>
  <text
     id="text4087-2-6-5-4-1"
     font-size="12.666px"
     xml:space="preserve"
     y="-1465.4517"
     x="1621.2083"
     style="font-size:12.66600037px;font-family:'Bitstream Vera Sans';opacity:0.8;fill:#000000"><tspan
       id="tspan4089-7-2-9-9-28"
       y="-1465.4517"
       x="1621.2083" /></text>
  <path
     style="color:#000000;fill:#7ec242;fill-opacity:1"
     d="m 14.091797,2.0029558 c -0.931147,-0.019831 -1.740331,0.063298 -2.070313,0.1543021 -0.520769,0.1388347 -1.102693,0.4344615 -1.421875,0.8847958 -0.217189,0.3021671 -0.359375,0.6887687 -0.359375,1.226604 0,0.3033354 0.0111,1.0228301 0.01953,1.6621658 0.0084,0.6486691 0.01563,1.2168382 0.01563,1.2168382 0,0.5716684 -0.4725803,1.032124 -1.0605472,1.0449574 l -2.6933594,0 c -0.5759681,0 -1.0133227,0.09403 -1.3457032,0.2421957 C 4.8397954,8.586481 4.6006647,8.7823912 4.421875,9.0227254 4.0594968,9.4940604 4,10.074644 4,10.667313 c 0,-10e-7 0.00495,0.475348 0.125,1.418017 0.1019943,0.731502 0.9051186,5.804755 1.671875,7.340092 0.2975834,0.600835 0.4949581,0.848486 1.078125,1.113319 1.2995263,0.542503 4.273787,1.149644 5.662109,1.322311 1.393121,0.172666 2.262433,0.538241 2.783203,-0.517596 0.0036,0 0.106453,-0.265031 0.248047,-0.652366 0.451174,-1.332336 0.511719,-2.520352 0.511719,-3.379021 0,-0.084 0.132813,-0.08866 0.132813,0 0,0.606669 -0.119997,2.747998 1.537109,3.324332 0.656363,0.226335 2.010703,0.427671 3.390625,0.584004 1.249129,0.138835 2.152344,0.617593 2.152344,3.744268 0,1.901672 -0.40829,2.152416 -2.542969,2.152417 -1.733903,0 -2.396485,0.04747 -2.396484,-1.298873 0,-1.08967 1.103214,-0.964876 1.917968,-0.964876 0.361179,0 0.09766,-0.267077 0.09766,-0.935578 0,-0.663836 0.427822,-1.05163 0.02344,-1.05863 -2.816241,-0.07583 -4.476562,-0.0049 -4.476562,3.435663 C 15.916015,29.420305 17.142004,30 21.142578,30 c 3.136623,0 4.244336,-0.104731 5.539063,-4.023575 0.255586,-0.774669 0.879527,-3.138272 1.253906,-7.109615 0.235198,-2.507174 -0.226571,-10.0792825 -0.59375,-11.9984546 l 0,-0.00195 C 27.129408,5.7475662 26.453148,5.2016932 25.833984,4.9835258 25.170422,4.7478588 23.823072,4.510368 22.134766,4.3155343 20.771643,4.156867 19.172225,4.1660586 18.205078,4.1963897 18.089885,3.4217224 17.532922,2.718269 16.910156,2.4697685 16.079804,2.1466006 15.024145,2.0227896 14.091797,2.0029558 Z M 22.556641,14.00141 c 1.265037,0.04149 1.438625,1.208718 1.443359,1.998115 -0.532524,-0.232786 -1.183259,-0.382864 -1.900391,-0.408217 l -0.0039,0 c -0.381049,-0.01729 -0.748972,0.0142 -1.095703,0.06836 0.105319,-0.764044 0.42769,-1.699746 1.556641,-1.658259 z"
     id="path4404"
     inkscape:connector-curvature="0" />
  <path
     style="color:#000000;fill:#000000;fill-opacity:1;opacity:0.3"
     d="M 10.25 4.1210938 C 10.247309 4.1711687 10.240234 4.2165893 10.240234 4.2695312 C 10.240234 4.5728666 10.251336 5.2923049 10.259766 5.9316406 C 10.261667 6.0784527 10.261961 6.0741201 10.263672 6.2070312 C 10.264903 6.1865644 10.275391 6.1692143 10.275391 6.1484375 C 10.275391 6.1484375 10.268166 5.5803097 10.259766 4.9316406 C 10.255655 4.6198601 10.253784 4.4134404 10.25 4.1210938 z M 4.0292969 10.132812 C 4.0113417 10.308494 4 10.487288 4 10.667969 C 4 10.667968 4.00495 11.143268 4.125 12.085938 C 4.2269943 12.81744 5.0301186 17.890444 5.796875 19.425781 C 6.0944584 20.026616 6.2918331 20.27423 6.875 20.539062 C 8.1745263 21.081565 11.148787 21.688661 12.537109 21.861328 C 13.93023 22.033994 14.799542 22.399587 15.320312 21.34375 C 15.323913 21.34375 15.426765 21.078741 15.568359 20.691406 C 16.019533 19.35907 16.080078 18.171169 16.080078 17.3125 C 16.080078 17.2285 16.212891 17.22384 16.212891 17.3125 C 16.212891 17.919169 16.092894 20.060385 17.75 20.636719 C 18.406363 20.863054 19.760703 21.06437 21.140625 21.220703 C 22.321101 21.351908 23.183155 21.8156 23.275391 24.501953 C 23.285945 24.33691 23.292969 24.164746 23.292969 23.964844 C 23.292969 20.838169 22.389754 20.359538 21.140625 20.220703 C 19.760703 20.06437 18.406363 19.863054 17.75 19.636719 C 16.092894 19.060385 16.212891 16.919169 16.212891 16.3125 C 16.212891 16.22384 16.080078 16.2285 16.080078 16.3125 C 16.080078 17.171169 16.019533 18.35907 15.568359 19.691406 C 15.426765 20.078741 15.323913 20.34375 15.320312 20.34375 C 14.799542 21.399587 13.93023 21.033994 12.537109 20.861328 C 11.148787 20.688661 8.1745263 20.081565 6.875 19.539062 C 6.2918331 19.27423 6.0944584 19.026616 5.796875 18.425781 C 5.0301186 16.890444 4.2269943 11.81744 4.125 11.085938 C 4.0711578 10.663152 4.0467715 10.36687 4.0292969 10.132812 z M 22.556641 13.001953 C 21.42769 12.960466 21.105319 13.896112 21 14.660156 C 21.110116 14.642956 21.225712 14.632885 21.339844 14.621094 C 21.571487 14.250023 21.942258 13.979376 22.556641 14.001953 C 23.305486 14.026513 23.666491 14.447598 23.841797 14.949219 C 23.891479 14.968756 23.952186 14.979099 24 15 C 23.995266 14.210603 23.821678 13.043443 22.556641 13.001953 z M 27.992188 16.169922 C 27.988584 16.835781 27.975509 17.441196 27.935547 17.867188 C 27.561168 21.838531 26.937227 24.201894 26.681641 24.976562 C 25.386914 28.895407 24.279201 29 21.142578 29 C 17.397134 29 16.099555 28.463654 15.947266 25.833984 C 15.938828 25.991249 15.916016 26.120818 15.916016 26.294922 C 15.916009 29.420431 17.142004 30 21.142578 30 C 24.279201 30 25.386914 29.895407 26.681641 25.976562 C 26.937227 25.201894 27.561168 22.838531 27.935547 18.867188 C 27.994928 18.234197 28.00892 17.276126 27.992188 16.169922 z M 20.376953 22.859375 C 20.376073 22.880603 20.369141 22.89614 20.369141 22.917969 C 20.369141 23.163568 20.400643 23.338524 20.427734 23.482422 C 20.52888 23.087577 20.698101 22.864664 20.392578 22.859375 C 20.387079 22.859227 20.382443 22.859522 20.376953 22.859375 z M 20.382812 23.818359 C 20.353226 23.833653 20.331362 23.853516 20.271484 23.853516 C 19.45673 23.853516 18.353516 23.728689 18.353516 24.818359 C 18.353515 25.064178 18.383024 25.250448 18.429688 25.412109 C 18.684932 24.771063 19.579305 24.853516 20.271484 24.853516 C 20.632663 24.853516 20.369141 24.58647 20.369141 23.917969 C 20.369141 23.88084 20.380356 23.853743 20.382812 23.818359 z "
     id="path4409" />
  <path
     style="color:#000000;fill:#ffffff;fill-opacity:1;opacity:0.1"
     d="M 14.091797 2.0039062 C 13.16065 1.9840753 12.351466 2.067199 12.021484 2.1582031 C 11.500715 2.2970378 10.918791 2.5926344 10.599609 3.0429688 C 10.38242 3.3451359 10.240234 3.731696 10.240234 4.2695312 C 10.240234 4.4249411 10.246025 4.8139557 10.25 5.1210938 C 10.27465 4.6624596 10.403799 4.315392 10.599609 4.0429688 C 10.918791 3.5926344 11.500715 3.2970378 12.021484 3.1582031 C 12.351466 3.067199 13.16065 2.9840753 14.091797 3.0039062 C 15.024145 3.0237401 16.079804 3.1475352 16.910156 3.4707031 C 17.532922 3.7192036 18.089885 4.4225983 18.205078 5.1972656 C 19.172225 5.1669345 20.771643 5.1577389 22.134766 5.3164062 C 23.823072 5.51124 25.170422 5.748708 25.833984 5.984375 C 26.453148 6.2025424 27.129408 6.7483483 27.341797 7.8671875 L 27.341797 7.8691406 C 27.616274 9.3037764 27.942645 13.894626 27.992188 17.169922 C 28.009792 13.916866 27.646589 8.4622279 27.341797 6.8691406 L 27.341797 6.8671875 C 27.129408 5.7483483 26.453148 5.2025424 25.833984 4.984375 C 25.170422 4.748708 23.823072 4.51124 22.134766 4.3164062 C 20.771643 4.1577389 19.172225 4.1669345 18.205078 4.1972656 C 18.089885 3.4225983 17.532922 2.7192036 16.910156 2.4707031 C 16.079804 2.1475352 15.024145 2.0237401 14.091797 2.0039062 z M 10.263672 7.2070312 C 10.231024 7.7497046 9.7814415 8.1809924 9.2148438 8.1933594 L 6.5214844 8.1933594 C 5.9455163 8.1933594 5.5081617 8.2873812 5.1757812 8.4355469 C 4.8397925 8.5872131 4.6006647 8.7831033 4.421875 9.0234375 C 4.0594968 9.4947725 4 10.0753 4 10.667969 C 4 10.667968 4.007809 10.845001 4.0292969 11.132812 C 4.0702381 10.732224 4.1699713 10.351081 4.421875 10.023438 C 4.6006647 9.7831037 4.8397925 9.5872131 5.1757812 9.4355469 C 5.5081617 9.2873812 5.9455163 9.1933594 6.5214844 9.1933594 L 9.2148438 9.1933594 C 9.8028106 9.180526 10.275391 8.7201059 10.275391 8.1484375 C 10.275391 8.1484375 10.269521 7.6613698 10.263672 7.2070312 z M 22.095703 15.591797 C 21.835669 15.579998 21.58509 15.595757 21.339844 15.621094 C 21.145834 15.931879 21.048004 16.31191 21 16.660156 C 21.346731 16.605996 21.714654 16.574507 22.095703 16.591797 L 22.099609 16.591797 C 22.816741 16.61715 23.467476 16.767214 24 17 C 23.998068 16.677891 23.962638 16.294994 23.841797 15.949219 C 23.338145 15.751161 22.752352 15.614874 22.099609 15.591797 L 22.095703 15.591797 z M 19.392578 22.84375 C 17.188121 22.853565 15.916016 23.284429 15.916016 26.294922 C 15.916015 26.494246 15.936892 26.654858 15.947266 26.833984 C 16.105246 23.889531 17.713001 23.788085 20.376953 23.859375 C 20.402847 23.235035 20.783663 22.866145 20.392578 22.859375 C 20.040548 22.849896 19.707501 22.842348 19.392578 22.84375 z M 20.427734 24.482422 C 20.402494 24.580954 20.391092 24.699083 20.382812 24.818359 C 20.466123 24.775296 20.462159 24.665267 20.427734 24.482422 z M 23.275391 25.501953 C 23.185542 26.906966 22.660283 27.117187 20.75 27.117188 C 19.332677 27.117188 18.6386 27.135867 18.429688 26.412109 C 18.384488 26.525629 18.353516 26.654426 18.353516 26.818359 C 18.353515 28.164702 19.016097 28.117188 20.75 28.117188 C 22.884679 28.117186 23.292969 27.866516 23.292969 25.964844 C 23.292969 25.792999 23.280755 25.658184 23.275391 25.501953 z "
     id="path4414" />
</svg>
