<?xml version="1.0" encoding="UTF-8" standalone="no"?>
<!-- Created with Inkscape (http://www.inkscape.org/) -->

<svg
   xmlns:dc="http://purl.org/dc/elements/1.1/"
   xmlns:cc="http://creativecommons.org/ns#"
   xmlns:rdf="http://www.w3.org/1999/02/22-rdf-syntax-ns#"
   xmlns:svg="http://www.w3.org/2000/svg"
   xmlns="http://www.w3.org/2000/svg"
   xmlns:sodipodi="http://sodipodi.sourceforge.net/DTD/sodipodi-0.dtd"
   xmlns:inkscape="http://www.inkscape.org/namespaces/inkscape"
   width="32"
   height="32"
   id="svg4426"
   sodipodi:version="0.32"
   inkscape:version="0.91 r13725"
   version="1.0"
   sodipodi:docname="gambas3.svg"
   inkscape:output_extension="org.inkscape.output.svg.inkscape">
  <title
     id="title3158">Gambas logo</title>
  <defs
     id="defs4428" />
  <sodipodi:namedview
     id="base"
     pagecolor="#4c4c4c"
     bordercolor="#666666"
     borderopacity="1.0"
     gridtolerance="10000"
     guidetolerance="10"
     objecttolerance="10"
     inkscape:pageopacity="0"
     inkscape:pageshadow="2"
     inkscape:zoom="1"
     inkscape:cx="24.255801"
     inkscape:cy="13.882776"
     inkscape:document-units="px"
     inkscape:current-layer="layer1"
     showgrid="false"
     inkscape:window-width="1600"
     inkscape:window-height="845"
     inkscape:window-x="0"
     inkscape:window-y="31"
     inkscape:window-maximized="1" />
  <metadata
     id="metadata4431">
    <rdf:RDF>
      <cc:Work
         rdf:about="">
        <dc:format>image/svg+xml</dc:format>
        <dc:type
           rdf:resource="http://purl.org/dc/dcmitype/StillImage" />
        <dc:title>Gambas logo</dc:title>
        <dc:date>2008-09-15</dc:date>
        <dc:creator>
          <cc:Agent>
            <dc:title>Fabien Bodard</dc:title>
          </cc:Agent>
        </dc:creator>
        <dc:rights>
          <cc:Agent>
            <dc:title>Creative Commons</dc:title>
          </cc:Agent>
        </dc:rights>
        <dc:publisher>
          <cc:Agent>
            <dc:title>Fabien Bodard</dc:title>
          </cc:Agent>
        </dc:publisher>
        <dc:identifier>gbFBodard150908</dc:identifier>
        <dc:relation>http://gambas.sf.net</dc:relation>
        <dc:subject>
          <rdf:Bag>
            <rdf:li>gambas3 logo basic shrimp</rdf:li>
          </rdf:Bag>
        </dc:subject>
        <dc:description>A pretty shrimp, a malicious new gambas logo... we got the power!</dc:description>
        <dc:contributor>
          <cc:Agent>
            <dc:title>Fabien Bodard</dc:title>
          </cc:Agent>
        </dc:contributor>
        <cc:license
           rdf:resource="http://creativecommons.org/licenses/by-sa/3.0/" />
      </cc:Work>
      <cc:License
         rdf:about="http://creativecommons.org/licenses/by-sa/3.0/">
        <cc:permits
           rdf:resource="http://creativecommons.org/ns#Reproduction" />
        <cc:permits
           rdf:resource="http://creativecommons.org/ns#Distribution" />
        <cc:requires
           rdf:resource="http://creativecommons.org/ns#Notice" />
        <cc:requires
           rdf:resource="http://creativecommons.org/ns#Attribution" />
        <cc:permits
           rdf:resource="http://creativecommons.org/ns#DerivativeWorks" />
        <cc:requires
           rdf:resource="http://creativecommons.org/ns#ShareAlike" />
      </cc:License>
    </rdf:RDF>
  </metadata>
  <g
     inkscape:label="Layer 1"
     inkscape:groupmode="layer"
     id="layer1"
     transform="translate(0,-224)">
    <path
       inkscape:connector-curvature="0"
       style="fill:#82b5df;fill-opacity:1;fill-rule:evenodd;stroke:none;stroke-width:1.74183249;stroke-linecap:butt;stroke-linejoin:miter;stroke-miterlimit:4;stroke-dasharray:none;stroke-opacity:1"
       d="m 23.276711,226.00112 c -3.038529,0.86561 -4.936573,6.11618 -4.610343,5.99255 l 0.04688,1.21683 c 0.473397,0.0258 0.906663,0.0859 1.23255,0.19688 1.17111,0.39866 2.655612,-0.32193 3.614928,-0.93792 0.02154,-0.23927 0.03359,-0.47446 0.03033,-0.69865 0.517984,-0.4375 1.085823,-0.99342 1.24358,-1.44242 0.311094,-0.88542 0.590251,-2.63009 0.09375,-3.32373 -0.250311,-0.34969 -0.610994,1.12118 -0.62179,1.24144 -0.0198,0.22054 -0.552581,-0.23022 -0.718298,-0.0861 -0.308265,0.26803 -0.01215,0.86511 -0.133733,0.84904 -0.158881,-0.021 -0.211113,-0.30387 -0.36949,-0.27754 -0.418667,0.35178 -0.656416,0.77841 -0.839622,1.19495 -0.11683,-0.0321 -0.232888,-0.0668 -0.341916,-0.11348 -0.157454,-0.0676 -0.139357,-0.48541 -0.0841,-0.6508 0.06899,-0.20648 0.432812,-0.0636 0.529417,-0.2584 0.105159,-0.21203 -0.09922,-0.5799 0.04963,-0.76291 0.0877,-0.10784 0.25228,0.0399 0.33778,-0.0697 0.272111,-0.34898 0.722939,-2.12197 0.540447,-2.06998 z"
       id="path4508" />
    <path
       inkscape:connector-curvature="0"
       style="fill:#3398c3;fill-opacity:1;fill-rule:evenodd;stroke:none;stroke-width:1.72886324;stroke-linecap:butt;stroke-linejoin:miter;stroke-miterlimit:4;stroke-dasharray:none;stroke-opacity:1"
       d="m 27.873267,229.73775 c -0.300741,1.05354 -0.680894,1.74354 -1.126391,2.18619 0.06311,-0.26836 0.06059,-0.56312 -0.02206,-0.89006 l -1.301485,1.40687 c 0.08497,-0.2398 0.137038,-0.49362 0.07721,-0.79162 l -1.246337,1.06507 c 0.203578,-0.26149 0.312183,-0.57054 0.284011,-0.97757 0.01805,0.0341 -2.699625,2.31508 -4.59242,1.67075 -1.577271,-0.53692 -5.321591,-0.14849 -6.980313,1.85533 -5.0392861,0.50367 -9.3308831,5.14 -8.9408127,8.69282 0.4065011,3.70247 4.0282373,5.97076 4.8984894,6.19627 0.2075083,0.0668 0.3975805,0.0956 0.577672,0.10665 0.2145193,1.44653 1.1573973,3.00577 2.3175793,3.62862 1.013324,0.544 3.674212,-1.05414 3.674212,-1.05414 -1.746296,-1.03305 -2.850814,-2.04495 -3.674212,-3.07626 1.299471,-0.086 3.159412,0.38942 4.899869,0.74651 0.224097,-0.0161 -0.01991,-2.44945 -2.230722,-3.12001 -1.142755,-0.34661 -3.294724,-0.53762 -4.377345,0.52501 -0.3940488,-0.9245 -0.7232914,-2.5125 0.08134,-3.55752 0.836734,-1.08672 3.526817,-1.891 4.735804,-1.99752 0.113105,0.0498 0.222953,0.10976 0.337779,0.15177 4.001052,1.29278 13.96958,-6.34103 12.608131,-12.76716 z"
       id="path4520" />
    <path
       style="fill:#000000;fill-opacity:1;fill-rule:evenodd;stroke:none;stroke-width:1.72886324;stroke-linecap:butt;stroke-linejoin:miter;stroke-miterlimit:4;stroke-dasharray:none;stroke-opacity:1;opacity:0.3"
       d="M 27.976562 6.4882812 C 27.492847 12.461172 18.907907 18.682717 15.265625 17.505859 C 15.150799 17.463849 15.040839 17.403316 14.927734 17.353516 C 13.718747 17.460036 11.02814 18.264842 10.191406 19.351562 C 9.7273825 19.954216 9.6590119 20.728516 9.7441406 21.460938 C 9.8061994 21.062621 9.9384817 20.68005 10.191406 20.351562 C 11.02814 19.264842 13.718747 18.460036 14.927734 18.353516 C 15.040839 18.403316 15.150799 18.463849 15.265625 18.505859 C 19.112079 19.748687 28.4685 12.741286 27.976562 6.4882812 z M 4.0371094 19.023438 C 4.0046627 19.339134 3.9921062 19.651919 4.0253906 19.955078 C 4.4318917 23.657548 8.053576 25.926834 8.9238281 26.152344 C 9.1313364 26.219144 9.3199085 26.246762 9.5 26.257812 C 9.7145193 27.704342 10.658177 29.263869 11.818359 29.886719 C 12.831683 30.430719 15.492188 28.832031 15.492188 28.832031 C 15.17881 28.646648 14.908893 28.461599 14.634766 28.277344 C 13.766577 28.705562 12.473202 29.238269 11.818359 28.886719 C 10.658177 28.263869 9.7145193 26.704342 9.5 25.257812 C 9.3199085 25.246762 9.1313364 25.219144 8.9238281 25.152344 C 8.0590684 24.928257 4.481137 22.684527 4.0371094 19.023438 z M 11.818359 24.755859 C 12.092825 25.099629 12.41533 25.442244 12.765625 25.783203 C 13.944444 25.883991 15.364085 26.225969 16.71875 26.503906 C 16.814149 26.497052 16.81098 26.044876 16.621094 25.484375 C 14.908947 25.129845 13.093601 24.671463 11.818359 24.755859 z "
       transform="translate(0,224)"
       id="path4481" />
    <path
       style="fill:#ffffff;fill-opacity:1;fill-rule:evenodd;stroke:none;stroke-width:1.72886324;stroke-linecap:butt;stroke-linejoin:miter;stroke-miterlimit:4;stroke-dasharray:none;stroke-opacity:1;opacity:0.2"
       d="M 27.873047 5.7382812 C 27.572306 6.7918212 27.191591 7.4811781 26.746094 7.9238281 C 26.809204 7.6554681 26.807259 7.3601431 26.724609 7.0332031 L 25.423828 8.4414062 C 25.508798 8.2016062 25.559828 7.9464375 25.5 7.6484375 L 24.253906 8.7148438 C 24.457484 8.4533537 24.567235 8.1433581 24.539062 7.7363281 C 24.557112 7.7704281 21.838107 10.052533 19.945312 9.4082031 C 18.368042 8.8712831 14.623566 9.2598519 12.964844 11.263672 C 7.9255577 11.767342 3.6353202 16.402258 4.0253906 19.955078 C 4.0279562 19.978445 4.0342892 20.000185 4.0371094 20.023438 C 4.3849151 16.639384 8.3555562 12.724364 12.964844 12.263672 C 14.623566 10.259852 18.368042 9.8712831 19.945312 10.408203 C 21.838107 11.052533 24.557112 8.7704281 24.539062 8.7363281 C 24.567235 9.1433581 24.457484 9.4533537 24.253906 9.7148438 L 25.5 8.6484375 C 25.559828 8.9464375 25.508798 9.2016062 25.423828 9.4414062 L 26.724609 8.0332031 C 26.807259 8.3601431 26.809204 8.6554681 26.746094 8.9238281 C 27.191591 8.4811781 27.572306 7.7918212 27.873047 6.7382812 C 27.925652 6.9865823 27.95679 7.2369587 27.976562 7.4882812 C 28.024209 6.8999437 27.995126 6.3145048 27.873047 5.7382812 z M 9.7441406 22.460938 C 9.6087712 23.329789 9.8391899 24.274307 10.109375 24.908203 C 11.191996 23.845573 13.345526 24.036203 14.488281 24.382812 C 15.757941 24.767912 16.364928 25.728232 16.621094 26.484375 C 16.653624 26.491111 16.686299 26.497248 16.71875 26.503906 C 16.942847 26.487806 16.699093 24.053372 14.488281 23.382812 C 13.345526 23.036203 11.191996 22.845573 10.109375 23.908203 C 9.9425706 23.516854 9.8066278 22.998557 9.7441406 22.460938 z M 11.818359 26.755859 C 12.493996 27.602098 13.38132 28.434834 14.634766 29.277344 C 15.11004 29.042923 15.492188 28.832031 15.492188 28.832031 C 14.32799 28.143331 13.466215 27.465121 12.765625 26.783203 C 12.429912 26.7545 12.106402 26.736797 11.818359 26.755859 z "
       transform="translate(0,224)"
       id="path4476" />
    <path
       inkscape:connector-curvature="0"
       style="fill:#3398c3;fill-opacity:1;fill-rule:evenodd;stroke:#000000;stroke-width:0.12276424px;stroke-linecap:butt;stroke-linejoin:miter;stroke-opacity:1"
       d="m 16.31247,243.22208 c -0.02156,0.0433 -0.701288,-0.33533 -0.943315,-0.41955 -0.275206,-0.0957 -0.651605,0.60232 -0.479389,0.83909 0.245487,0.33751 1.015404,0.41845 0.974244,0.45062 l 0.44846,-0.87016 z"
       id="path4584"
       sodipodi:nodetypes="csscc" />
    <path
       inkscape:connector-curvature="0"
       style="fill:#82b5df;fill-opacity:1;fill-rule:evenodd;stroke:none;stroke-width:1.72886324;stroke-linecap:butt;stroke-linejoin:miter;stroke-miterlimit:4;stroke-dasharray:none;stroke-opacity:1"
       d="m 16.759924,240.00018 c -0.296329,0.004 -0.6516,0.0972 -1.031067,0.31196 -0.56153,0.31779 -1.422814,2.56545 -1.711371,3.31838 -1.172528,1.02834 -1.266401,3.39512 -0.614395,4.57075 2.530826,4.56334 9.470842,7.28029 11.415391,4.9437 -0.412119,-0.64487 -1.13766,-0.73912 -2.078961,-1.39918 -0.201128,0.0375 -0.375277,0.11748 -0.50547,0.26623 l -0.510709,-0.87405 c -0.196519,0.0308 -0.359312,-0.25756 -0.552348,0.083 -0.365641,-0.26711 -0.344885,-0.36687 -0.275485,-0.57847 0.06194,-0.15947 0.138856,-0.28501 0.218127,-0.40739 0.5511,0.1836 1.138242,0.38733 1.521371,0.54375 0.218974,0.0894 0.04158,-0.64238 0.276589,-0.66148 0.326933,-0.0266 0.400199,0.8267 0.727456,0.84866 0.281684,0.0189 0.401875,-0.83435 0.649969,-0.69648 0.374985,0.20838 1.804588,1.43523 1.706131,0.81421 -0.215052,-1.35648 -1.909408,-2.87033 -2.924443,-3.4556 -0.511966,-0.29519 -1.496735,-0.43583 -2.287987,-0.50506 -0.891302,-1.26384 -2.358572,-2.76276 -3.508779,-3.40281 -0.06421,-0.0357 -0.125188,-0.0646 -0.187793,-0.0969 0.322044,-0.93035 0.863751,-2.39625 0.450042,-3.25119 -0.111741,-0.23093 -0.39527,-0.37637 -0.776268,-0.37211 z"
       id="path4596" />
    <circle
       r="1.5"
       cy="236.5"
       cx="18.5"
       id="circle4506"
       style="fill:#000000;fill-opacity:1;fill-rule:evenodd;stroke:none;opacity:0.2" />
    <circle
       style="fill:#ffffff;fill-opacity:1;fill-rule:evenodd;stroke:none"
       id="path3985"
       cx="18.5"
       cy="235.5"
       r="1.5" />
    <path
       style="fill:#ffffff;fill-opacity:1;fill-rule:evenodd;stroke:none;stroke-width:1.74183249;stroke-linecap:butt;stroke-linejoin:miter;stroke-miterlimit:4;stroke-dasharray:none;stroke-opacity:1;opacity:0.2"
       d="M 23.277344 2.0019531 C 20.238815 2.8675631 18.339786 8.1177706 18.666016 7.9941406 L 18.691406 8.6582031 C 18.977276 7.5644162 20.648682 3.8969929 23.125 3.0605469 C 23.278081 2.5142332 23.379796 1.9727655 23.277344 2.0019531 z M 24.830078 2.953125 C 24.593205 3.0020379 24.316087 4.1408662 24.306641 4.2460938 C 24.286841 4.4666337 23.753608 4.0160362 23.587891 4.1601562 C 23.279626 4.4281863 23.576661 5.0258356 23.455078 5.0097656 C 23.296197 4.9887656 23.244315 4.7060919 23.085938 4.7324219 C 22.750224 5.014501 22.545169 5.3451475 22.376953 5.6796875 C 22.383138 5.7618336 22.381049 5.8409055 22.349609 5.9042969 C 22.253004 6.0990969 21.889302 5.9556294 21.820312 6.1621094 C 21.765055 6.3274994 21.746843 6.7449 21.904297 6.8125 C 22.013325 6.85918 22.129264 6.8936812 22.246094 6.9257812 C 22.4293 6.5092413 22.667271 6.0822487 23.085938 5.7304688 C 23.244315 5.7041387 23.296197 5.9887656 23.455078 6.0097656 C 23.576661 6.0258356 23.279626 5.4281863 23.587891 5.1601562 C 23.753608 5.0160362 24.286841 5.4666337 24.306641 5.2460938 C 24.317437 5.1258337 24.677423 3.6542162 24.927734 4.0039062 C 25.054371 4.1808248 25.129912 4.4270137 25.167969 4.7089844 C 25.230199 4.034443 25.191198 3.3719799 24.927734 3.0039062 C 24.896445 2.960195 24.863917 2.9461374 24.830078 2.953125 z "
       transform="translate(0,224)"
       id="path4496" />
    <path
       style="fill:#000000;fill-opacity:1;fill-rule:evenodd;stroke:none;stroke-width:1.74183249;stroke-linecap:butt;stroke-linejoin:miter;stroke-miterlimit:4;stroke-dasharray:none;stroke-opacity:1;opacity:0.3"
       d="M 23.277344 2.0019531 C 23.225271 2.0167874 23.176397 2.0431861 23.125 2.0605469 C 23.005408 2.4873467 22.855674 2.9172526 22.736328 3.0703125 C 22.650828 3.1799125 22.486138 3.032785 22.398438 3.140625 C 22.249588 3.323635 22.454768 3.6922669 22.349609 3.9042969 C 22.253004 4.0990969 21.889302 3.9556294 21.820312 4.1621094 C 21.765055 4.3274994 21.746843 4.7449 21.904297 4.8125 C 22.013325 4.85918 22.129264 4.8936812 22.246094 4.9257812 C 22.282394 4.8432489 22.335388 4.7623513 22.376953 4.6796875 C 22.362451 4.4870731 22.29409 4.2689199 22.398438 4.140625 C 22.486138 4.032785 22.650828 4.1799125 22.736328 4.0703125 C 23.008439 3.7213325 23.459836 1.9499631 23.277344 2.0019531 z M 25.167969 3.7089844 C 25.112925 4.3056258 24.979999 4.9125449 24.833984 5.328125 C 24.676227 5.777125 24.109781 6.3339844 23.591797 6.7714844 C 23.595057 6.9956744 23.582087 7.22948 23.560547 7.46875 C 22.601231 8.08474 21.116422 8.8068631 19.945312 8.4082031 C 19.619426 8.2972231 19.186288 8.2367375 18.712891 8.2109375 L 18.691406 7.6582031 C 18.636987 7.8664226 18.614738 8.013573 18.666016 7.9941406 L 18.712891 9.2109375 C 19.186288 9.2367375 19.619426 9.2972231 19.945312 9.4082031 C 21.116422 9.8068631 22.601231 9.08474 23.560547 8.46875 C 23.582087 8.22948 23.595057 7.9956744 23.591797 7.7714844 C 24.109781 7.3339844 24.676227 6.777125 24.833984 6.328125 C 25.065731 5.6685386 25.27912 4.5325287 25.167969 3.7089844 z "
       transform="translate(0,224)"
       id="path4501" />
    <path
       style="fill:#ffffff;fill-opacity:1;fill-rule:evenodd;stroke:none;stroke-width:1.72886324;stroke-linecap:butt;stroke-linejoin:miter;stroke-miterlimit:4;stroke-dasharray:none;stroke-opacity:1;opacity:0.2"
       d="M 16.759766 16 C 16.463437 16.004 16.107983 16.09774 15.728516 16.3125 C 15.166986 16.63029 14.306135 18.877929 14.017578 19.630859 C 13.209627 20.339455 12.923757 21.678091 13.03125 22.830078 C 13.124202 21.973945 13.438459 21.138763 14.017578 20.630859 C 14.306135 19.877929 15.166986 17.63029 15.728516 17.3125 C 16.107983 17.09774 16.463437 17.004 16.759766 17 C 17.140764 16.99574 17.425368 17.142117 17.537109 17.373047 C 17.582932 17.46774 17.610788 17.571561 17.634766 17.679688 C 17.70957 17.193259 17.709813 16.729942 17.537109 16.373047 C 17.425368 16.142117 17.140764 15.99574 16.759766 16 z M 17.365234 19.783203 C 17.270224 20.086439 17.171999 20.374423 17.085938 20.623047 C 17.148542 20.655347 17.209228 20.685003 17.273438 20.720703 C 18.423644 21.360753 19.891901 22.859207 20.783203 24.123047 C 21.574455 24.192277 22.558346 24.333716 23.070312 24.628906 C 23.855966 25.081915 25.040039 26.092233 25.638672 27.154297 C 25.858258 27.258783 26.029686 27.295866 25.996094 27.083984 C 25.781042 25.727504 24.085347 24.214176 23.070312 23.628906 C 22.558346 23.333716 21.574455 23.192277 20.783203 23.123047 C 19.914369 21.891066 18.501476 20.44865 17.365234 19.783203 z M 21.113281 27.234375 C 21.03401 27.356755 20.958424 27.483108 20.896484 27.642578 C 20.827084 27.854178 20.806234 27.953593 21.171875 28.220703 C 21.364911 27.880143 21.526137 28.169472 21.722656 28.138672 L 22.234375 29.011719 C 22.364568 28.862969 22.539106 28.783594 22.740234 28.746094 C 23.33627 29.164047 23.832244 29.361701 24.230469 29.609375 C 24.453398 29.483643 24.658057 29.337152 24.818359 29.144531 C 24.40624 28.499661 23.681535 28.406154 22.740234 27.746094 C 22.730514 27.747906 22.722483 27.751893 22.712891 27.753906 C 22.695773 27.777643 22.674378 27.790697 22.640625 27.779297 C 22.483771 27.823251 22.34132 27.889531 22.234375 28.011719 L 21.955078 27.535156 C 21.668821 27.432698 21.418109 27.335929 21.113281 27.234375 z "
       transform="translate(0,224)"
       id="path4509" />
    <path
       style="fill:#000000;fill-opacity:1;fill-rule:evenodd;stroke:none;stroke-width:1.72886324;stroke-linecap:butt;stroke-linejoin:miter;stroke-miterlimit:4;stroke-dasharray:none;stroke-opacity:1;opacity:0.3"
       d="M 17.634766 16.679688 C 17.530376 17.358494 17.273544 18.081072 17.085938 18.623047 C 17.148542 18.655347 17.209228 18.685003 17.273438 18.720703 C 17.302432 18.736837 17.335851 18.765995 17.365234 18.783203 C 17.586375 18.077411 17.769417 17.286896 17.634766 16.679688 z M 13.03125 21.830078 C 12.936005 22.707336 13.072368 23.606193 13.402344 24.201172 C 15.93317 28.764512 22.87381 31.481121 24.818359 29.144531 C 24.667196 28.907996 24.461148 28.752845 24.230469 28.609375 C 21.749143 30.008836 15.724537 27.388326 13.402344 23.201172 C 13.199614 22.83563 13.079755 22.349897 13.03125 21.830078 z M 22.912109 25.117188 C 22.6771 25.136288 22.85374 25.868697 22.634766 25.779297 C 22.251637 25.622877 21.664381 25.417975 21.113281 25.234375 C 21.03401 25.356755 20.958424 25.483108 20.896484 25.642578 C 20.827084 25.854178 20.806234 25.953593 21.171875 26.220703 C 21.364911 25.880143 21.526137 26.169472 21.722656 26.138672 L 21.955078 26.535156 C 22.186348 26.617933 22.463555 26.709397 22.634766 26.779297 C 22.637252 26.780312 22.63824 26.778491 22.640625 26.779297 C 22.665495 26.772328 22.68704 26.759333 22.712891 26.753906 C 22.801101 26.631585 22.717528 26.133002 22.912109 26.117188 C 23.239042 26.090587 23.311415 26.944837 23.638672 26.966797 C 23.920356 26.985697 24.040969 26.131661 24.289062 26.269531 C 24.664047 26.477911 26.094551 27.705004 25.996094 27.083984 C 25.947495 26.777441 25.813451 26.464381 25.638672 26.154297 C 25.214657 25.952537 24.536109 25.406815 24.289062 25.269531 C 24.040969 25.131661 23.920356 25.985697 23.638672 25.966797 C 23.311415 25.944837 23.239042 25.090587 22.912109 25.117188 z "
       transform="translate(0,224)"
       id="path4514" />
  </g>
</svg>
