<?xml version="1.0" encoding="UTF-8" standalone="no"?>
<!-- Created with Inkscape (http://www.inkscape.org/) -->

<svg
   xmlns:dc="http://purl.org/dc/elements/1.1/"
   xmlns:cc="http://creativecommons.org/ns#"
   xmlns:rdf="http://www.w3.org/1999/02/22-rdf-syntax-ns#"
   xmlns:svg="http://www.w3.org/2000/svg"
   xmlns="http://www.w3.org/2000/svg"
   xmlns:sodipodi="http://sodipodi.sourceforge.net/DTD/sodipodi-0.dtd"
   xmlns:inkscape="http://www.inkscape.org/namespaces/inkscape"
   id="svg2817"
   height="32"
   width="32"
   version="1.0"
   inkscape:version="0.91 r"
   sodipodi:docname="gitkraken.svg">
  <defs
     id="defs221" />
  <sodipodi:namedview
     pagecolor="#ffffff"
     bordercolor="#666666"
     borderopacity="1"
     objecttolerance="10"
     gridtolerance="10"
     guidetolerance="10"
     inkscape:pageopacity="0"
     inkscape:pageshadow="2"
     inkscape:window-width="1535"
     inkscape:window-height="876"
     id="namedview219"
     showgrid="false"
     inkscape:zoom="1"
     inkscape:cx="3.0974132"
     inkscape:cy="11.497628"
     inkscape:window-x="65"
     inkscape:window-y="24"
     inkscape:window-maximized="1"
     inkscape:current-layer="svg2817" />
  <metadata
     id="metadata57">
    <rdf:RDF>
      <cc:Work
         rdf:about="">
        <dc:format>image/svg+xml</dc:format>
        <dc:type
           rdf:resource="http://purl.org/dc/dcmitype/StillImage" />
        <dc:title></dc:title>
      </cc:Work>
    </rdf:RDF>
  </metadata>
  <text
     id="text4087-2-6-5"
     font-size="12.666px"
     xml:space="preserve"
     y="-5.1873989"
     x="877.22626"
     style="font-size:12.66600037px;font-family:'Bitstream Vera Sans';opacity:0.8;fill:#000000"><tspan
       id="tspan4089-7-2-9"
       y="-5.1873989"
       x="877.22626" /></text>
  <text
     id="text4087-2-6-5-5"
     font-size="12.666px"
     xml:space="preserve"
     y="-45.929108"
     x="901.18719"
     style="font-size:12.66600037px;font-family:'Bitstream Vera Sans';opacity:0.8;fill:#000000"><tspan
       id="tspan4089-7-2-9-6"
       y="-45.929108"
       x="901.18719" /></text>
  <text
     id="text4087-2-6-5-2"
     font-size="12.666px"
     xml:space="preserve"
     y="-76.007248"
     x="-569.37115"
     style="font-size:12.66600037px;font-family:'Bitstream Vera Sans';opacity:0.8;fill:#000000"><tspan
       id="tspan4089-7-2-9-2"
       y="-76.007248"
       x="-569.37115" /></text>
  <text
     id="text4087-2-6-5-59"
     font-size="12.666px"
     xml:space="preserve"
     y="669.5462"
     x="-2393.0571"
     style="font-size:12.66600037px;font-family:'Bitstream Vera Sans';opacity:0.8;fill:#000000"><tspan
       id="tspan4089-7-2-9-4"
       y="669.5462"
       x="-2393.0571" /></text>
  <text
     id="text4087-2-6-5-1"
     font-size="12.666px"
     xml:space="preserve"
     y="-461.32822"
     x="-454.88007"
     style="font-size:12.66600037px;font-family:'Bitstream Vera Sans';opacity:0.8;fill:#000000"><tspan
       id="tspan4089-7-2-9-7"
       y="-461.32822"
       x="-454.88007" /></text>
  <text
     id="text4087-2-6-5-7"
     font-size="12.666px"
     xml:space="preserve"
     y="-874.79834"
     x="352.72208"
     style="font-size:12.66600037px;font-family:'Bitstream Vera Sans';opacity:0.8;fill:#000000"><tspan
       id="tspan4089-7-2-9-1"
       y="-874.79834"
       x="352.72208" /></text>
  <text
     id="text4087-2-6-5-5-3"
     font-size="12.666px"
     xml:space="preserve"
     y="-915.54004"
     x="376.68301"
     style="font-size:12.66600037px;font-family:'Bitstream Vera Sans';opacity:0.8;fill:#000000"><tspan
       id="tspan4089-7-2-9-6-5"
       y="-915.54004"
       x="376.68301" /></text>
  <text
     id="text4087-2-6-5-3"
     font-size="12.666px"
     xml:space="preserve"
     y="-922.74994"
     x="-1114.7802"
     style="font-size:12.66600037px;font-family:'Bitstream Vera Sans';opacity:0.8;fill:#000000"><tspan
       id="tspan4089-7-2-9-18"
       y="-922.74994"
       x="-1114.7802" /></text>
  <text
     id="text4087-2-6-5-4"
     font-size="12.666px"
     xml:space="preserve"
     y="-1195.9841"
     x="345.7626"
     style="font-size:12.66600037px;font-family:'Bitstream Vera Sans';opacity:0.8;fill:#000000"><tspan
       id="tspan4089-7-2-9-9"
       y="-1195.9841"
       x="345.7626" /></text>
  <text
     id="text4087-2-6-5-7-1"
     font-size="12.666px"
     xml:space="preserve"
     y="-569.29272"
     x="1831.8861"
     style="font-size:12.66600037px;font-family:'Bitstream Vera Sans';opacity:0.8;fill:#000000"><tspan
       id="tspan4089-7-2-9-1-8"
       y="-569.29272"
       x="1831.8861" /></text>
  <text
     id="text4087-2-6-5-5-5"
     font-size="12.666px"
     xml:space="preserve"
     y="-610.03448"
     x="1855.8469"
     style="font-size:12.66600037px;font-family:'Bitstream Vera Sans';opacity:0.8;fill:#000000"><tspan
       id="tspan4089-7-2-9-6-9"
       y="-610.03448"
       x="1855.8469" /></text>
  <text
     id="text4087-2-6-5-75"
     font-size="12.666px"
     xml:space="preserve"
     y="-617.24438"
     x="364.38376"
     style="font-size:12.66600037px;font-family:'Bitstream Vera Sans';opacity:0.8;fill:#000000"><tspan
       id="tspan4089-7-2-9-3"
       y="-617.24438"
       x="364.38376" /></text>
  <text
     id="text4087-2-6-5-4-8"
     font-size="12.666px"
     xml:space="preserve"
     y="-890.47839"
     x="1824.9266"
     style="font-size:12.66600037px;font-family:'Bitstream Vera Sans';opacity:0.8;fill:#000000"><tspan
       id="tspan4089-7-2-9-9-8"
       y="-890.47839"
       x="1824.9266" /></text>
  <text
     id="text4087-2-6-5-45"
     font-size="12.666px"
     xml:space="preserve"
     y="-665.33569"
     x="-573.43256"
     style="font-size:12.66600037px;font-family:'Bitstream Vera Sans';opacity:0.8;fill:#000000"><tspan
       id="tspan4089-7-2-9-75"
       y="-665.33569"
       x="-573.43256" /></text>
  <text
     id="text4087-2-6-5-59-7"
     font-size="12.666px"
     xml:space="preserve"
     y="80.217857"
     x="-2397.1182"
     style="font-size:12.66600037px;font-family:'Bitstream Vera Sans';opacity:0.8;fill:#000000"><tspan
       id="tspan4089-7-2-9-4-0"
       y="80.217857"
       x="-2397.1182" /></text>
  <text
     id="text4087-2-6-5-8"
     font-size="12.666px"
     xml:space="preserve"
     y="173.09"
     x="-682.36279"
     style="font-size:12.66600037px;font-family:'Bitstream Vera Sans';opacity:0.8;fill:#000000"><tspan
       id="tspan4089-7-2-9-19"
       y="173.09"
       x="-682.36279" /></text>
  <text
     id="text4087-2-6-5-7-5"
     font-size="12.666px"
     xml:space="preserve"
     y="-6.0921478"
     x="426.66153"
     style="font-size:12.66600037px;font-family:'Bitstream Vera Sans';opacity:0.8;fill:#000000"><tspan
       id="tspan4089-7-2-9-1-2"
       y="-6.0921478"
       x="426.66153" /></text>
  <text
     id="text4087-2-6-5-5-0"
     font-size="12.666px"
     xml:space="preserve"
     y="-46.833855"
     x="450.62247"
     style="font-size:12.66600037px;font-family:'Bitstream Vera Sans';opacity:0.8;fill:#000000"><tspan
       id="tspan4089-7-2-9-6-2"
       y="-46.833855"
       x="450.62247" /></text>
  <text
     id="text4087-2-6-5-26"
     font-size="12.666px"
     xml:space="preserve"
     y="-54.043827"
     x="-1040.8407"
     style="font-size:12.66600037px;font-family:'Bitstream Vera Sans';opacity:0.8;fill:#000000"><tspan
       id="tspan4089-7-2-9-90"
       y="-54.043827"
       x="-1040.8407" /></text>
  <text
     id="text4087-2-6-5-4-3"
     font-size="12.666px"
     xml:space="preserve"
     y="-327.27789"
     x="419.70206"
     style="font-size:12.66600037px;font-family:'Bitstream Vera Sans';opacity:0.8;fill:#000000"><tspan
       id="tspan4089-7-2-9-9-5"
       y="-327.27789"
       x="419.70206" /></text>
  <text
     id="text4087-2-6-5-55"
     font-size="12.666px"
     xml:space="preserve"
     y="-56.758072"
     x="-608.03253"
     style="font-size:12.66600037px;font-family:'Bitstream Vera Sans';opacity:0.8;fill:#000000"><tspan
       id="tspan4089-7-2-9-32"
       y="-56.758072"
       x="-608.03253" /></text>
  <text
     id="text4087-2-6-5-59-9"
     font-size="12.666px"
     xml:space="preserve"
     y="688.79541"
     x="-2431.7185"
     style="font-size:12.66600037px;font-family:'Bitstream Vera Sans';opacity:0.8;fill:#000000"><tspan
       id="tspan4089-7-2-9-4-1"
       y="688.79541"
       x="-2431.7185" /></text>
  <text
     id="text4087-2-6-5-1-8"
     font-size="12.666px"
     xml:space="preserve"
     y="-918.28857"
     x="-456.93948"
     style="font-size:12.66600037px;font-family:'Bitstream Vera Sans';opacity:0.8;fill:#000000"><tspan
       id="tspan4089-7-2-9-7-8"
       y="-918.28857"
       x="-456.93948" /></text>
  <text
     id="text4087-2-6-5-7-8"
     font-size="12.666px"
     xml:space="preserve"
     y="-1331.7588"
     x="350.66266"
     style="font-size:12.66600037px;font-family:'Bitstream Vera Sans';opacity:0.8;fill:#000000"><tspan
       id="tspan4089-7-2-9-1-9"
       y="-1331.7588"
       x="350.66266" /></text>
  <text
     id="text4087-2-6-5-5-52"
     font-size="12.666px"
     xml:space="preserve"
     y="-1372.5005"
     x="374.62357"
     style="font-size:12.66600037px;font-family:'Bitstream Vera Sans';opacity:0.8;fill:#000000"><tspan
       id="tspan4089-7-2-9-6-4"
       y="-1372.5005"
       x="374.62357" /></text>
  <text
     id="text4087-2-6-5-3-4"
     font-size="12.666px"
     xml:space="preserve"
     y="-1379.7104"
     x="-1116.8396"
     style="font-size:12.66600037px;font-family:'Bitstream Vera Sans';opacity:0.8;fill:#000000"><tspan
       id="tspan4089-7-2-9-18-3"
       y="-1379.7104"
       x="-1116.8396" /></text>
  <text
     id="text4087-2-6-5-4-7"
     font-size="12.666px"
     xml:space="preserve"
     y="-1652.9446"
     x="343.70316"
     style="font-size:12.66600037px;font-family:'Bitstream Vera Sans';opacity:0.8;fill:#000000"><tspan
       id="tspan4089-7-2-9-9-54"
       y="-1652.9446"
       x="343.70316" /></text>
  <text
     id="text4087-2-6-5-7-1-2"
     font-size="12.666px"
     xml:space="preserve"
     y="-1026.2533"
     x="1829.8265"
     style="font-size:12.66600037px;font-family:'Bitstream Vera Sans';opacity:0.8;fill:#000000"><tspan
       id="tspan4089-7-2-9-1-8-0"
       y="-1026.2533"
       x="1829.8265" /></text>
  <text
     id="text4087-2-6-5-5-5-6"
     font-size="12.666px"
     xml:space="preserve"
     y="-1066.9949"
     x="1853.7874"
     style="font-size:12.66600037px;font-family:'Bitstream Vera Sans';opacity:0.8;fill:#000000"><tspan
       id="tspan4089-7-2-9-6-9-8"
       y="-1066.9949"
       x="1853.7874" /></text>
  <text
     id="text4087-2-6-5-75-4"
     font-size="12.666px"
     xml:space="preserve"
     y="-1074.2048"
     x="362.32431"
     style="font-size:12.66600037px;font-family:'Bitstream Vera Sans';opacity:0.8;fill:#000000"><tspan
       id="tspan4089-7-2-9-3-9"
       y="-1074.2048"
       x="362.32431" /></text>
  <text
     id="text4087-2-6-5-4-8-1"
     font-size="12.666px"
     xml:space="preserve"
     y="-1347.439"
     x="1822.8671"
     style="font-size:12.66600037px;font-family:'Bitstream Vera Sans';opacity:0.8;fill:#000000"><tspan
       id="tspan4089-7-2-9-9-8-8"
       y="-1347.439"
       x="1822.8671" /></text>
  <text
     id="text4087-2-6-5-45-0"
     font-size="12.666px"
     xml:space="preserve"
     y="-1122.2961"
     x="-575.492"
     style="font-size:12.66600037px;font-family:'Bitstream Vera Sans';opacity:0.8;fill:#000000"><tspan
       id="tspan4089-7-2-9-75-2"
       y="-1122.2961"
       x="-575.492" /></text>
  <text
     id="text4087-2-6-5-59-5"
     font-size="12.666px"
     xml:space="preserve"
     y="-376.74261"
     x="-2399.1777"
     style="font-size:12.66600037px;font-family:'Bitstream Vera Sans';opacity:0.8;fill:#000000"><tspan
       id="tspan4089-7-2-9-4-00"
       y="-376.74261"
       x="-2399.1777" /></text>
  <text
     id="text4087-2-6-5-264"
     font-size="12.666px"
     xml:space="preserve"
     y="-283.87045"
     x="-684.42224"
     style="font-size:12.66600037px;font-family:'Bitstream Vera Sans';opacity:0.8;fill:#000000"><tspan
       id="tspan4089-7-2-9-8"
       y="-283.87045"
       x="-684.42224" /></text>
  <text
     id="text4087-2-6-5-42"
     font-size="12.666px"
     xml:space="preserve"
     y="-42.956276"
     x="155.5923"
     style="font-size:12.66600037px;font-family:'Bitstream Vera Sans';opacity:0.8;fill:#000000"><tspan
       id="tspan4089-7-2-9-93"
       y="-42.956276"
       x="155.5923" /></text>
  <text
     id="text4087-2-6-5-5-05"
     font-size="12.666px"
     xml:space="preserve"
     y="-83.697998"
     x="179.55324"
     style="font-size:12.66600037px;font-family:'Bitstream Vera Sans';opacity:0.8;fill:#000000"><tspan
       id="tspan4089-7-2-9-6-49"
       y="-83.697998"
       x="179.55324" /></text>
  <text
     id="text4087-2-6-5-1-4"
     font-size="12.666px"
     xml:space="preserve"
     y="-277.72662"
     x="-1090.2634"
     style="font-size:12.66600037px;font-family:'Bitstream Vera Sans';opacity:0.8;fill:#000000"><tspan
       id="tspan4089-7-2-9-7-7"
       y="-277.72662"
       x="-1090.2634" /></text>
  <text
     id="text4087-2-6-5-7-56"
     font-size="12.666px"
     xml:space="preserve"
     y="-691.19678"
     x="-282.66141"
     style="font-size:12.66600037px;font-family:'Bitstream Vera Sans';opacity:0.8;fill:#000000"><tspan
       id="tspan4089-7-2-9-1-1"
       y="-691.19678"
       x="-282.66141" /></text>
  <text
     id="text4087-2-6-5-5-8"
     font-size="12.666px"
     xml:space="preserve"
     y="-731.93848"
     x="-258.70047"
     style="font-size:12.66600037px;font-family:'Bitstream Vera Sans';opacity:0.8;fill:#000000"><tspan
       id="tspan4089-7-2-9-6-7"
       y="-731.93848"
       x="-258.70047" /></text>
  <text
     id="text4087-2-6-5-3-42"
     font-size="12.666px"
     xml:space="preserve"
     y="-739.14838"
     x="-1750.1636"
     style="font-size:12.66600037px;font-family:'Bitstream Vera Sans';opacity:0.8;fill:#000000"><tspan
       id="tspan4089-7-2-9-18-39"
       y="-739.14838"
       x="-1750.1636" /></text>
  <text
     id="text4087-2-6-5-4-4"
     font-size="12.666px"
     xml:space="preserve"
     y="-1012.3825"
     x="-289.62085"
     style="font-size:12.66600037px;font-family:'Bitstream Vera Sans';opacity:0.8;fill:#000000"><tspan
       id="tspan4089-7-2-9-9-3"
       y="-1012.3825"
       x="-289.62085" /></text>
  <text
     id="text4087-2-6-5-7-1-0"
     font-size="12.666px"
     xml:space="preserve"
     y="-385.69113"
     x="1196.5026"
     style="font-size:12.66600037px;font-family:'Bitstream Vera Sans';opacity:0.8;fill:#000000"><tspan
       id="tspan4089-7-2-9-1-8-5"
       y="-385.69113"
       x="1196.5026" /></text>
  <text
     id="text4087-2-6-5-5-5-5"
     font-size="12.666px"
     xml:space="preserve"
     y="-426.43286"
     x="1220.4634"
     style="font-size:12.66600037px;font-family:'Bitstream Vera Sans';opacity:0.8;fill:#000000"><tspan
       id="tspan4089-7-2-9-6-9-2"
       y="-426.43286"
       x="1220.4634" /></text>
  <text
     id="text4087-2-6-5-75-9"
     font-size="12.666px"
     xml:space="preserve"
     y="-433.64282"
     x="-270.99973"
     style="font-size:12.66600037px;font-family:'Bitstream Vera Sans';opacity:0.8;fill:#000000"><tspan
       id="tspan4089-7-2-9-3-1"
       y="-433.64282"
       x="-270.99973" /></text>
  <text
     id="text4087-2-6-5-4-8-18"
     font-size="12.666px"
     xml:space="preserve"
     y="-706.87689"
     x="1189.5431"
     style="font-size:12.66600037px;font-family:'Bitstream Vera Sans';opacity:0.8;fill:#000000"><tspan
       id="tspan4089-7-2-9-9-8-4"
       y="-706.87689"
       x="1189.5431" /></text>
  <text
     id="text4087-2-6-5-45-3"
     font-size="12.666px"
     xml:space="preserve"
     y="-481.7341"
     x="-1208.816"
     style="font-size:12.66600037px;font-family:'Bitstream Vera Sans';opacity:0.8;fill:#000000"><tspan
       id="tspan4089-7-2-9-75-7"
       y="-481.7341"
       x="-1208.816" /></text>
  <text
     id="text4087-2-6-5-59-8"
     font-size="12.666px"
     xml:space="preserve"
     y="263.81946"
     x="-3032.5017"
     style="font-size:12.66600037px;font-family:'Bitstream Vera Sans';opacity:0.8;fill:#000000"><tspan
       id="tspan4089-7-2-9-4-2"
       y="263.81946"
       x="-3032.5017" /></text>
  <g
     id="layer4-0"
     transform="matrix(0.90475,0,0,0.90475,-716.75,-692.29)">
    <text
       id="text4087-2-6-5-20"
       font-size="14px"
       xml:space="preserve"
       y="1159.4154"
       x="-664.2738"
       style="font-size:14px;font-family:'Bitstream Vera Sans';opacity:0.8;fill:#000000"><tspan
         id="tspan4089-7-2-9-82"
         y="1159.4154"
         x="-664.2738" /></text>
  </g>
  <text
     id="text4087-2-6-5-9"
     font-size="12.666px"
     xml:space="preserve"
     y="2.0505886"
     x="877.22626"
     style="font-size:12.66600037px;font-family:'Bitstream Vera Sans';opacity:0.8;fill:#000000"><tspan
       id="tspan4089-7-2-9-43"
       y="2.0505886"
       x="877.22626" /></text>
  <text
     id="text4087-2-6-5-5-51"
     font-size="12.666px"
     xml:space="preserve"
     y="-38.691116"
     x="901.18719"
     style="font-size:12.66600037px;font-family:'Bitstream Vera Sans';opacity:0.8;fill:#000000"><tspan
       id="tspan4089-7-2-9-6-74"
       y="-38.691116"
       x="901.18719" /></text>
  <text
     id="text4087-2-6-5-2-3"
     font-size="12.666px"
     xml:space="preserve"
     y="-68.769257"
     x="-569.37115"
     style="font-size:12.66600037px;font-family:'Bitstream Vera Sans';opacity:0.8;fill:#000000"><tspan
       id="tspan4089-7-2-9-2-1"
       y="-68.769257"
       x="-569.37115" /></text>
  <text
     id="text4087-2-6-5-59-4"
     font-size="12.666px"
     xml:space="preserve"
     y="676.78418"
     x="-2393.0571"
     style="font-size:12.66600037px;font-family:'Bitstream Vera Sans';opacity:0.8;fill:#000000"><tspan
       id="tspan4089-7-2-9-4-6"
       y="676.78418"
       x="-2393.0571" /></text>
  <text
     id="text4087-2-6-5-1-9"
     font-size="12.666px"
     xml:space="preserve"
     y="-454.09021"
     x="-454.88007"
     style="font-size:12.66600037px;font-family:'Bitstream Vera Sans';opacity:0.8;fill:#000000"><tspan
       id="tspan4089-7-2-9-7-4"
       y="-454.09021"
       x="-454.88007" /></text>
  <text
     id="text4087-2-6-5-7-2"
     font-size="12.666px"
     xml:space="preserve"
     y="-867.5603"
     x="352.72208"
     style="font-size:12.66600037px;font-family:'Bitstream Vera Sans';opacity:0.8;fill:#000000"><tspan
       id="tspan4089-7-2-9-1-26"
       y="-867.5603"
       x="352.72208" /></text>
  <text
     id="text4087-2-6-5-5-3-4"
     font-size="12.666px"
     xml:space="preserve"
     y="-908.30206"
     x="376.68301"
     style="font-size:12.66600037px;font-family:'Bitstream Vera Sans';opacity:0.8;fill:#000000"><tspan
       id="tspan4089-7-2-9-6-5-1"
       y="-908.30206"
       x="376.68301" /></text>
  <text
     id="text4087-2-6-5-3-2"
     font-size="12.666px"
     xml:space="preserve"
     y="-915.51196"
     x="-1114.7802"
     style="font-size:12.66600037px;font-family:'Bitstream Vera Sans';opacity:0.8;fill:#000000"><tspan
       id="tspan4089-7-2-9-18-8"
       y="-915.51196"
       x="-1114.7802" /></text>
  <text
     id="text4087-2-6-5-4-89"
     font-size="12.666px"
     xml:space="preserve"
     y="-1188.7461"
     x="345.7626"
     style="font-size:12.66600037px;font-family:'Bitstream Vera Sans';opacity:0.8;fill:#000000"><tspan
       id="tspan4089-7-2-9-9-2"
       y="-1188.7461"
       x="345.7626" /></text>
  <text
     id="text4087-2-6-5-7-1-8"
     font-size="12.666px"
     xml:space="preserve"
     y="-562.05475"
     x="1831.8861"
     style="font-size:12.66600037px;font-family:'Bitstream Vera Sans';opacity:0.8;fill:#000000"><tspan
       id="tspan4089-7-2-9-1-8-8"
       y="-562.05475"
       x="1831.8861" /></text>
  <text
     id="text4087-2-6-5-5-5-8"
     font-size="12.666px"
     xml:space="preserve"
     y="-602.79651"
     x="1855.8469"
     style="font-size:12.66600037px;font-family:'Bitstream Vera Sans';opacity:0.8;fill:#000000"><tspan
       id="tspan4089-7-2-9-6-9-6"
       y="-602.79651"
       x="1855.8469" /></text>
  <text
     id="text4087-2-6-5-75-8"
     font-size="12.666px"
     xml:space="preserve"
     y="-610.00641"
     x="364.38376"
     style="font-size:12.66600037px;font-family:'Bitstream Vera Sans';opacity:0.8;fill:#000000"><tspan
       id="tspan4089-7-2-9-3-3"
       y="-610.00641"
       x="364.38376" /></text>
  <text
     id="text4087-2-6-5-4-8-8"
     font-size="12.666px"
     xml:space="preserve"
     y="-883.24036"
     x="1824.9266"
     style="font-size:12.66600037px;font-family:'Bitstream Vera Sans';opacity:0.8;fill:#000000"><tspan
       id="tspan4089-7-2-9-9-8-3"
       y="-883.24036"
       x="1824.9266" /></text>
  <text
     id="text4087-2-6-5-45-33"
     font-size="12.666px"
     xml:space="preserve"
     y="-658.09772"
     x="-573.43256"
     style="font-size:12.66600037px;font-family:'Bitstream Vera Sans';opacity:0.8;fill:#000000"><tspan
       id="tspan4089-7-2-9-75-8"
       y="-658.09772"
       x="-573.43256" /></text>
  <text
     id="text4087-2-6-5-59-7-0"
     font-size="12.666px"
     xml:space="preserve"
     y="87.455849"
     x="-2397.1182"
     style="font-size:12.66600037px;font-family:'Bitstream Vera Sans';opacity:0.8;fill:#000000"><tspan
       id="tspan4089-7-2-9-4-0-4"
       y="87.455849"
       x="-2397.1182" /></text>
  <text
     id="text4087-2-6-5-8-7"
     font-size="12.666px"
     xml:space="preserve"
     y="180.32799"
     x="-682.36279"
     style="font-size:12.66600037px;font-family:'Bitstream Vera Sans';opacity:0.8;fill:#000000"><tspan
       id="tspan4089-7-2-9-19-6"
       y="180.32799"
       x="-682.36279" /></text>
  <text
     id="text4087-2-6-5-7-5-8"
     font-size="12.666px"
     xml:space="preserve"
     y="1.1458397"
     x="426.66153"
     style="font-size:12.66600037px;font-family:'Bitstream Vera Sans';opacity:0.8;fill:#000000"><tspan
       id="tspan4089-7-2-9-1-2-9"
       y="1.1458397"
       x="426.66153" /></text>
  <text
     id="text4087-2-6-5-5-0-0"
     font-size="12.666px"
     xml:space="preserve"
     y="-39.595863"
     x="450.62247"
     style="font-size:12.66600037px;font-family:'Bitstream Vera Sans';opacity:0.8;fill:#000000"><tspan
       id="tspan4089-7-2-9-6-2-6"
       y="-39.595863"
       x="450.62247" /></text>
  <text
     id="text4087-2-6-5-26-8"
     font-size="12.666px"
     xml:space="preserve"
     y="-46.805836"
     x="-1040.8407"
     style="font-size:12.66600037px;font-family:'Bitstream Vera Sans';opacity:0.8;fill:#000000"><tspan
       id="tspan4089-7-2-9-90-7"
       y="-46.805836"
       x="-1040.8407" /></text>
  <text
     id="text4087-2-6-5-4-3-9"
     font-size="12.666px"
     xml:space="preserve"
     y="-320.03989"
     x="419.70206"
     style="font-size:12.66600037px;font-family:'Bitstream Vera Sans';opacity:0.8;fill:#000000"><tspan
       id="tspan4089-7-2-9-9-5-0"
       y="-320.03989"
       x="419.70206" /></text>
  <text
     id="text4087-2-6-5-55-3"
     font-size="12.666px"
     xml:space="preserve"
     y="-49.520081"
     x="-608.03253"
     style="font-size:12.66600037px;font-family:'Bitstream Vera Sans';opacity:0.8;fill:#000000"><tspan
       id="tspan4089-7-2-9-32-3"
       y="-49.520081"
       x="-608.03253" /></text>
  <text
     id="text4087-2-6-5-59-9-3"
     font-size="12.666px"
     xml:space="preserve"
     y="696.03345"
     x="-2431.7185"
     style="font-size:12.66600037px;font-family:'Bitstream Vera Sans';opacity:0.8;fill:#000000"><tspan
       id="tspan4089-7-2-9-4-1-7"
       y="696.03345"
       x="-2431.7185" /></text>
  <text
     id="text4087-2-6-5-1-8-3"
     font-size="12.666px"
     xml:space="preserve"
     y="-911.0506"
     x="-456.93948"
     style="font-size:12.66600037px;font-family:'Bitstream Vera Sans';opacity:0.8;fill:#000000"><tspan
       id="tspan4089-7-2-9-7-8-2"
       y="-911.0506"
       x="-456.93948" /></text>
  <text
     id="text4087-2-6-5-7-8-6"
     font-size="12.666px"
     xml:space="preserve"
     y="-1324.5208"
     x="350.66266"
     style="font-size:12.66600037px;font-family:'Bitstream Vera Sans';opacity:0.8;fill:#000000"><tspan
       id="tspan4089-7-2-9-1-9-5"
       y="-1324.5208"
       x="350.66266" /></text>
  <text
     id="text4087-2-6-5-5-52-2"
     font-size="12.666px"
     xml:space="preserve"
     y="-1365.2626"
     x="374.62357"
     style="font-size:12.66600037px;font-family:'Bitstream Vera Sans';opacity:0.8;fill:#000000"><tspan
       id="tspan4089-7-2-9-6-4-6"
       y="-1365.2626"
       x="374.62357" /></text>
  <text
     id="text4087-2-6-5-3-4-5"
     font-size="12.666px"
     xml:space="preserve"
     y="-1372.4724"
     x="-1116.8396"
     style="font-size:12.66600037px;font-family:'Bitstream Vera Sans';opacity:0.8;fill:#000000"><tspan
       id="tspan4089-7-2-9-18-3-8"
       y="-1372.4724"
       x="-1116.8396" /></text>
  <text
     id="text4087-2-6-5-4-7-7"
     font-size="12.666px"
     xml:space="preserve"
     y="-1645.7065"
     x="343.70316"
     style="font-size:12.66600037px;font-family:'Bitstream Vera Sans';opacity:0.8;fill:#000000"><tspan
       id="tspan4089-7-2-9-9-54-9"
       y="-1645.7065"
       x="343.70316" /></text>
  <text
     id="text4087-2-6-5-7-1-2-6"
     font-size="12.666px"
     xml:space="preserve"
     y="-1019.0153"
     x="1829.8265"
     style="font-size:12.66600037px;font-family:'Bitstream Vera Sans';opacity:0.8;fill:#000000"><tspan
       id="tspan4089-7-2-9-1-8-0-0"
       y="-1019.0153"
       x="1829.8265" /></text>
  <text
     id="text4087-2-6-5-5-5-6-4"
     font-size="12.666px"
     xml:space="preserve"
     y="-1059.757"
     x="1853.7874"
     style="font-size:12.66600037px;font-family:'Bitstream Vera Sans';opacity:0.8;fill:#000000"><tspan
       id="tspan4089-7-2-9-6-9-8-1"
       y="-1059.757"
       x="1853.7874" /></text>
  <text
     id="text4087-2-6-5-75-4-0"
     font-size="12.666px"
     xml:space="preserve"
     y="-1066.9668"
     x="362.32431"
     style="font-size:12.66600037px;font-family:'Bitstream Vera Sans';opacity:0.8;fill:#000000"><tspan
       id="tspan4089-7-2-9-3-9-4"
       y="-1066.9668"
       x="362.32431" /></text>
  <text
     id="text4087-2-6-5-4-8-1-8"
     font-size="12.666px"
     xml:space="preserve"
     y="-1340.2009"
     x="1822.8671"
     style="font-size:12.66600037px;font-family:'Bitstream Vera Sans';opacity:0.8;fill:#000000"><tspan
       id="tspan4089-7-2-9-9-8-8-7"
       y="-1340.2009"
       x="1822.8671" /></text>
  <text
     id="text4087-2-6-5-45-0-0"
     font-size="12.666px"
     xml:space="preserve"
     y="-1115.0581"
     x="-575.492"
     style="font-size:12.66600037px;font-family:'Bitstream Vera Sans';opacity:0.8;fill:#000000"><tspan
       id="tspan4089-7-2-9-75-2-8"
       y="-1115.0581"
       x="-575.492" /></text>
  <text
     id="text4087-2-6-5-59-5-6"
     font-size="12.666px"
     xml:space="preserve"
     y="-369.50461"
     x="-2399.1777"
     style="font-size:12.66600037px;font-family:'Bitstream Vera Sans';opacity:0.8;fill:#000000"><tspan
       id="tspan4089-7-2-9-4-00-2"
       y="-369.50461"
       x="-2399.1777" /></text>
  <text
     id="text4087-2-6-5-264-4"
     font-size="12.666px"
     xml:space="preserve"
     y="-276.63245"
     x="-684.42224"
     style="font-size:12.66600037px;font-family:'Bitstream Vera Sans';opacity:0.8;fill:#000000"><tspan
       id="tspan4089-7-2-9-8-7"
       y="-276.63245"
       x="-684.42224" /></text>
  <text
     id="text4087-2-6-5-42-9"
     font-size="12.666px"
     xml:space="preserve"
     y="-35.718292"
     x="155.5923"
     style="font-size:12.66600037px;font-family:'Bitstream Vera Sans';opacity:0.8;fill:#000000"><tspan
       id="tspan4089-7-2-9-93-3"
       y="-35.718292"
       x="155.5923" /></text>
  <text
     id="text4087-2-6-5-5-05-9"
     font-size="12.666px"
     xml:space="preserve"
     y="-76.460007"
     x="179.55324"
     style="font-size:12.66600037px;font-family:'Bitstream Vera Sans';opacity:0.8;fill:#000000"><tspan
       id="tspan4089-7-2-9-6-49-2"
       y="-76.460007"
       x="179.55324" /></text>
  <text
     id="text4087-2-6-5-1-4-8"
     font-size="12.666px"
     xml:space="preserve"
     y="-270.48859"
     x="-1090.2634"
     style="font-size:12.66600037px;font-family:'Bitstream Vera Sans';opacity:0.8;fill:#000000"><tspan
       id="tspan4089-7-2-9-7-7-3"
       y="-270.48859"
       x="-1090.2634" /></text>
  <text
     id="text4087-2-6-5-7-56-0"
     font-size="12.666px"
     xml:space="preserve"
     y="-683.9588"
     x="-282.66141"
     style="font-size:12.66600037px;font-family:'Bitstream Vera Sans';opacity:0.8;fill:#000000"><tspan
       id="tspan4089-7-2-9-1-1-1"
       y="-683.9588"
       x="-282.66141" /></text>
  <text
     id="text4087-2-6-5-5-8-7"
     font-size="12.666px"
     xml:space="preserve"
     y="-724.7005"
     x="-258.70047"
     style="font-size:12.66600037px;font-family:'Bitstream Vera Sans';opacity:0.8;fill:#000000"><tspan
       id="tspan4089-7-2-9-6-7-8"
       y="-724.7005"
       x="-258.70047" /></text>
  <text
     id="text4087-2-6-5-3-42-9"
     font-size="12.666px"
     xml:space="preserve"
     y="-731.91046"
     x="-1750.1636"
     style="font-size:12.66600037px;font-family:'Bitstream Vera Sans';opacity:0.8;fill:#000000"><tspan
       id="tspan4089-7-2-9-18-39-1"
       y="-731.91046"
       x="-1750.1636" /></text>
  <text
     id="text4087-2-6-5-4-4-5"
     font-size="12.666px"
     xml:space="preserve"
     y="-1005.1445"
     x="-289.62085"
     style="font-size:12.66600037px;font-family:'Bitstream Vera Sans';opacity:0.8;fill:#000000"><tspan
       id="tspan4089-7-2-9-9-3-4"
       y="-1005.1445"
       x="-289.62085" /></text>
  <text
     id="text4087-2-6-5-7-1-0-9"
     font-size="12.666px"
     xml:space="preserve"
     y="-378.45316"
     x="1196.5026"
     style="font-size:12.66600037px;font-family:'Bitstream Vera Sans';opacity:0.8;fill:#000000"><tspan
       id="tspan4089-7-2-9-1-8-5-2"
       y="-378.45316"
       x="1196.5026" /></text>
  <text
     id="text4087-2-6-5-5-5-5-5"
     font-size="12.666px"
     xml:space="preserve"
     y="-419.19489"
     x="1220.4634"
     style="font-size:12.66600037px;font-family:'Bitstream Vera Sans';opacity:0.8;fill:#000000"><tspan
       id="tspan4089-7-2-9-6-9-2-7"
       y="-419.19489"
       x="1220.4634" /></text>
  <text
     id="text4087-2-6-5-75-9-4"
     font-size="12.666px"
     xml:space="preserve"
     y="-426.40482"
     x="-270.99973"
     style="font-size:12.66600037px;font-family:'Bitstream Vera Sans';opacity:0.8;fill:#000000"><tspan
       id="tspan4089-7-2-9-3-1-9"
       y="-426.40482"
       x="-270.99973" /></text>
  <text
     id="text4087-2-6-5-4-8-18-9"
     font-size="12.666px"
     xml:space="preserve"
     y="-699.63892"
     x="1189.5431"
     style="font-size:12.66600037px;font-family:'Bitstream Vera Sans';opacity:0.8;fill:#000000"><tspan
       id="tspan4089-7-2-9-9-8-4-4"
       y="-699.63892"
       x="1189.5431" /></text>
  <text
     id="text4087-2-6-5-45-3-5"
     font-size="12.666px"
     xml:space="preserve"
     y="-474.49609"
     x="-1208.816"
     style="font-size:12.66600037px;font-family:'Bitstream Vera Sans';opacity:0.8;fill:#000000"><tspan
       id="tspan4089-7-2-9-75-7-9"
       y="-474.49609"
       x="-1208.816" /></text>
  <text
     id="text4087-2-6-5-59-8-3"
     font-size="12.666px"
     xml:space="preserve"
     y="271.05743"
     x="-3032.5017"
     style="font-size:12.66600037px;font-family:'Bitstream Vera Sans';opacity:0.8;fill:#000000"><tspan
       id="tspan4089-7-2-9-4-2-5"
       y="271.05743"
       x="-3032.5017" /></text>
  <g
     id="layer4-0-7"
     transform="matrix(0.90475,0,0,0.90475,-716.75,-685.05)">
    <text
       id="text4087-2-6-5-20-0"
       font-size="14px"
       xml:space="preserve"
       y="1159.4154"
       x="-664.2738"
       style="font-size:14px;font-family:'Bitstream Vera Sans';opacity:0.8;fill:#000000"><tspan
         id="tspan4089-7-2-9-82-8"
         y="1159.4154"
         x="-664.2738" /></text>
  </g>
  <text
     id="text7276"
     font-size="12.666px"
     xml:space="preserve"
     y="-377.22546"
     x="435.90427"
     style="font-size:12.66600037px;font-family:'Droid Sans';fill:#000000"><tspan
       id="tspan7278"
       y="-377.22546"
       x="435.90427" /><tspan
       id="tspan7280"
       y="-361.3924"
       x="435.90427" /></text>
  <text
     id="text4087-2-6-5-51"
     font-size="12.666px"
     xml:space="preserve"
     y="-859.27002"
     x="901.0882"
     style="font-size:12.66600037px;font-family:'Bitstream Vera Sans';opacity:0.8;fill:#000000"><tspan
       id="tspan4089-7-2-9-97"
       y="-859.27002"
       x="901.0882" /></text>
  <text
     id="text4087-2-6-5-59-2"
     font-size="12.666px"
     xml:space="preserve"
     y="-113.71655"
     x="-922.59778"
     style="font-size:12.66600037px;font-family:'Bitstream Vera Sans';opacity:0.8;fill:#000000"><tspan
       id="tspan4089-7-2-9-4-4"
       y="-113.71655"
       x="-922.59778" /></text>
  <text
     id="text4087-2-6-5-7-7"
     font-size="12.666px"
     xml:space="preserve"
     y="-1144.2659"
     x="1628.1677"
     style="font-size:12.66600037px;font-family:'Bitstream Vera Sans';opacity:0.8;fill:#000000"><tspan
       id="tspan4089-7-2-9-1-6"
       y="-1144.2659"
       x="1628.1677" /></text>
  <text
     id="text4087-2-6-5-5-6"
     font-size="12.666px"
     xml:space="preserve"
     y="-1185.0076"
     x="1652.1285"
     style="font-size:12.66600037px;font-family:'Bitstream Vera Sans';opacity:0.8;fill:#000000"><tspan
       id="tspan4089-7-2-9-6-53"
       y="-1185.0076"
       x="1652.1285" /></text>
  <text
     id="text4087-2-6-5-54"
     font-size="12.666px"
     xml:space="preserve"
     y="-1192.2175"
     x="160.66542"
     style="font-size:12.66600037px;font-family:'Bitstream Vera Sans';opacity:0.8;fill:#000000"><tspan
       id="tspan4089-7-2-9-0"
       y="-1192.2175"
       x="160.66542" /></text>
  <text
     id="text4087-2-6-5-4-1"
     font-size="12.666px"
     xml:space="preserve"
     y="-1465.4517"
     x="1621.2083"
     style="font-size:12.66600037px;font-family:'Bitstream Vera Sans';opacity:0.8;fill:#000000"><tspan
       id="tspan4089-7-2-9-9-28"
       y="-1465.4517"
       x="1621.2083" /></text>
  <rect
     style="fill:#4d4d4d;fill-opacity:1"
     x="-30"
     y="-29.998755"
     width="28"
     height="27.997511"
     ry="13.998755"
     rx="14"
     transform="matrix(0,-1,-1,0,0,0)"
     id="rect4203-4" />
  <path
     id="path5384"
     d="m 10.049804,10.276168 c -1.86837,1.646942 -3.0498044,4.052603 -3.0498044,6.750599 0,3.644608 2.1490744,6.762315 5.2499994,8.180415 l 0,0.07032 0.145019,0 c 0.433539,0.188861 0.88903,0.334029 1.354982,0.454142 l 0,1.527968 A 10.5,10.500933 0 0 1 5.4999996,17.026767 10.5,10.500933 0 0 1 5.9423826,14.026501 l -1.5512696,0 A 11.999999,12.001066 0 0 0 3.9999996,17.026767 11.999999,12.001066 0 0 0 15.249999,29 l 0,-0.722233 0,-0.788156 0,-3.789887 c 0.258402,0.04049 0.51514,0.07195 0.766114,0.07764 0.259595,-0.01061 0.496574,-0.04237 0.733886,-0.07325 l 0,3.795748 0,0.7779 0,0.711977 A 11.999999,12.001066 0 0 0 28,17.026767 11.999999,12.001066 0 0 0 27.603027,14.026501 l -1.549805,0 a 10.5,10.500933 0 0 1 0.446777,3.000266 10.5,10.500933 0 0 1 -8.25,10.243098 l 0,-1.538223 c 0.465952,-0.120112 0.921443,-0.26528 1.354981,-0.454141 l 0.145019,0 0,-0.07032 c 3.100926,-1.418095 5.25,-4.535802 5.25,-8.18041 0,-2.697996 -1.181435,-5.103657 -3.049805,-6.750599 l -2.686523,0 c 2.50887,1.21054 4.236328,3.76826 4.236328,6.750599 0,2.785528 -1.507382,5.201874 -3.75,6.495694 l 0,-0.972742 c 0.518232,-0.500294 0.547143,-1.256021 0.01758,-1.826822 l -0.295899,-0.3179 0.101077,-0.58306 c 0.149826,-0.868069 0.508548,-1.520848 1.038574,-1.889816 0.239235,-0.166541 0.481752,-0.356853 0.539062,-0.424843 0.12827,-0.152153 0.134641,-0.913747 0.01171,-1.352169 -0.337042,-1.202082 -2.104167,-3.76232 -3.408691,-4.938429 -0.741007,-0.66806 -1.321544,-0.971855 -1.882324,-0.937583 -0.336469,0.02056 -0.664826,0.163039 -1.018067,0.421913 -0.47122,0.345337 -1.679906,1.613785 -2.251464,2.364468 -1.22079,1.603386 -1.851561,2.898661 -1.851561,3.798677 0,0.596652 0.05338,0.692558 0.569825,1.035736 0.571243,0.379599 0.901704,0.935826 1.075193,1.812174 l 0.137697,0.700257 -0.216798,0.194843 c -0.356374,0.321623 -0.506026,0.682104 -0.46289,1.119238 0.02964,0.300373 0.183736,0.596888 0.396972,0.821852 l 0,0.974206 c -2.24262,-1.29382 -3.750002,-3.710166 -3.750002,-6.495694 0,-2.982339 1.727458,-5.540059 4.236328,-6.750599 l -2.686523,0 z M 13.75,20.777101 A 0.74999999,0.75006666 0 0 1 14.5,21.527167 0.74999999,0.75006666 0 0 1 13.75,22.277234 0.74999999,0.75006666 0 0 1 12.999999,21.527167 0.74999999,0.75006666 0 0 1 13.75,20.777101 Z m 4.499999,0 a 0.74999999,0.75006666 0 0 1 0.75,0.750066 0.74999999,0.75006666 0 0 1 -0.75,0.750067 A 0.74999999,0.75006666 0 0 1 17.5,21.527167 0.74999999,0.75006666 0 0 1 18.249999,20.777101 Z"
     style="opacity:0.2;fill:#000000;fill-opacity:1"
     inkscape:connector-curvature="0" />
  <path
     inkscape:connector-curvature="0"
     style="fill:#3fb2ab;fill-opacity:1"
     d="m 10.049804,9.276168 c -1.86837,1.646942 -3.0498044,4.052603 -3.0498044,6.750599 0,3.644608 2.1490744,6.762315 5.2499994,8.180415 l 0,0.07032 0.145019,0 c 0.433539,0.188861 0.88903,0.334029 1.354982,0.454142 l 0,1.527968 A 10.5,10.500933 0 0 1 5.4999996,16.026767 10.5,10.500933 0 0 1 5.9423826,13.026501 l -1.5512696,0 A 11.999999,12.001066 0 0 0 3.9999996,16.026767 11.999999,12.001066 0 0 0 15.249999,28 l 0,-0.722233 0,-0.788156 0,-3.789887 c 0.258402,0.04049 0.51514,0.07195 0.766114,0.07764 0.259595,-0.01061 0.496574,-0.04237 0.733886,-0.07325 l 0,3.795748 0,0.7779 0,0.711977 A 11.999999,12.001066 0 0 0 28,16.026767 11.999999,12.001066 0 0 0 27.603027,13.026501 l -1.549805,0 a 10.5,10.500933 0 0 1 0.446777,3.000266 10.5,10.500933 0 0 1 -8.25,10.243098 l 0,-1.538223 c 0.465952,-0.120112 0.921443,-0.26528 1.354981,-0.454141 l 0.145019,0 0,-0.07032 c 3.100926,-1.418095 5.25,-4.535802 5.25,-8.18041 0,-2.697996 -1.181435,-5.103657 -3.049805,-6.750599 l -2.686523,0 c 2.50887,1.21054 4.236328,3.76826 4.236328,6.750599 0,2.785528 -1.507382,5.201874 -3.75,6.495694 l 0,-0.972742 c 0.518232,-0.500294 0.547143,-1.256021 0.01758,-1.826822 l -0.295899,-0.3179 0.101077,-0.58306 c 0.149826,-0.868069 0.508548,-1.520848 1.038574,-1.889816 0.239235,-0.166541 0.481752,-0.356853 0.539062,-0.424843 0.12827,-0.152153 0.134641,-0.913747 0.01171,-1.352169 -0.337042,-1.202082 -2.104167,-3.76232 -3.408691,-4.938429 -0.741007,-0.66806 -1.321544,-0.971855 -1.882324,-0.937583 -0.336469,0.02056 -0.664826,0.163039 -1.018067,0.421913 -0.47122,0.345337 -1.679906,1.613785 -2.251464,2.364468 -1.22079,1.603386 -1.851561,2.898661 -1.851561,3.798677 0,0.596652 0.05338,0.692558 0.569825,1.035736 0.571243,0.379599 0.901704,0.935826 1.075193,1.812174 l 0.137697,0.700257 -0.216798,0.194843 c -0.356374,0.321623 -0.506026,0.682104 -0.46289,1.119238 0.02964,0.300373 0.183736,0.596888 0.396972,0.821852 l 0,0.974206 c -2.24262,-1.29382 -3.750002,-3.710166 -3.750002,-6.495694 0,-2.982339 1.727458,-5.540059 4.236328,-6.750599 l -2.686523,0 z M 13.75,19.777101 A 0.74999999,0.75006666 0 0 1 14.5,20.527167 0.74999999,0.75006666 0 0 1 13.75,21.277234 0.74999999,0.75006666 0 0 1 12.999999,20.527167 0.74999999,0.75006666 0 0 1 13.75,19.777101 Z m 4.499999,0 a 0.74999999,0.75006666 0 0 1 0.75,0.750066 0.74999999,0.75006666 0 0 1 -0.75,0.750067 A 0.74999999,0.75006666 0 0 1 17.5,20.527167 0.74999999,0.75006666 0 0 1 18.249999,19.777101 Z"
     id="path4377" />
  <path
     style="fill:#000000;fill-opacity:1;opacity:0.3"
     d="M 2.0273438 15.5 C 2.0214751 15.66736 2.0019531 15.831158 2.0019531 16 C 2.0019531 23.756 8.2446895 30 16 30 C 23.755311 30 29.998047 23.756 29.998047 16 C 29.998047 15.831158 29.978525 15.66736 29.972656 15.5 C 29.708938 23.020568 23.586484 29 16 29 C 8.4135163 29 2.2910622 23.020568 2.0273438 15.5 z "
     id="rect5386" />
  <path
     style="fill:#ffffff;fill-opacity:1;opacity:0.2"
     d="M 16 2 C 8.2446895 2 2.0019531 8.244 2.0019531 16 C 2.0019531 16.168842 2.0214751 16.33264 2.0273438 16.5 C 2.2910622 8.9794325 8.4135163 3 16 3 C 23.586484 3 29.708938 8.9794325 29.972656 16.5 C 29.978525 16.33264 29.998047 16.168842 29.998047 16 C 29.998047 8.244 23.755311 2 16 2 z "
     id="rect5391" />
</svg>
