<?xml version="1.0" encoding="UTF-8" standalone="no"?>
<!-- Created with Inkscape (http://www.inkscape.org/) -->

<svg
   xmlns:dc="http://purl.org/dc/elements/1.1/"
   xmlns:cc="http://creativecommons.org/ns#"
   xmlns:rdf="http://www.w3.org/1999/02/22-rdf-syntax-ns#"
   xmlns:svg="http://www.w3.org/2000/svg"
   xmlns="http://www.w3.org/2000/svg"
   xmlns:xlink="http://www.w3.org/1999/xlink"
   xmlns:sodipodi="http://sodipodi.sourceforge.net/DTD/sodipodi-0.dtd"
   xmlns:inkscape="http://www.inkscape.org/namespaces/inkscape"
   version="1.0"
   width="32"
   height="32"
   id="svg2408"
   inkscape:version="0.91 r"
   sodipodi:docname="gnome-pie.svg">
  <sodipodi:namedview
     pagecolor="#ffffff"
     bordercolor="#666666"
     borderopacity="1"
     objecttolerance="10"
     gridtolerance="10"
     guidetolerance="10"
     inkscape:pageopacity="1"
     inkscape:pageshadow="2"
     inkscape:window-width="1600"
     inkscape:window-height="846"
     id="namedview93"
     showgrid="false"
     inkscape:zoom="1"
     inkscape:cx="10.308142"
     inkscape:cy="15.10012"
     inkscape:window-x="0"
     inkscape:window-y="26"
     inkscape:window-maximized="1"
     inkscape:current-layer="svg2408"
     showguides="true"
     inkscape:guide-bbox="true"
     inkscape:snap-center="false"
     inkscape:snap-object-midpoints="false" />
  <defs
     id="defs2410">
    <linearGradient
       id="linearGradient3637">
      <stop
         id="stop3639"
         style="stop-color:#f0f0f0;stop-opacity:1"
         offset="0" />
      <stop
         id="stop3641"
         style="stop-color:#aaaaaa;stop-opacity:1"
         offset="1" />
    </linearGradient>
    <linearGradient
       x1="45.447727"
       y1="92.539597"
       x2="45.447727"
       y2="7.0165396"
       id="ButtonShadow"
       gradientUnits="userSpaceOnUse"
       gradientTransform="scale(1.0058652,0.994169)">
      <stop
         id="stop3750"
         style="stop-color:#000000;stop-opacity:1"
         offset="0" />
      <stop
         id="stop3752"
         style="stop-color:#000000;stop-opacity:0.58823532"
         offset="1" />
    </linearGradient>
    <linearGradient
       id="linearGradient3737">
      <stop
         id="stop3739"
         style="stop-color:#ffffff;stop-opacity:1"
         offset="0" />
      <stop
         id="stop3741"
         style="stop-color:#ffffff;stop-opacity:0"
         offset="1" />
    </linearGradient>
    <linearGradient
       id="linearGradient3700">
      <stop
         id="stop3702"
         style="stop-color:#2276c5;stop-opacity:1"
         offset="0" />
      <stop
         id="stop3704"
         style="stop-color:#68baf4;stop-opacity:1"
         offset="1" />
    </linearGradient>
    <filter
       id="filter3174"
       style="color-interpolation-filters:sRGB">
      <feGaussianBlur
         id="feGaussianBlur3176"
         stdDeviation="1.71" />
    </filter>
    <linearGradient
       x1="36.357143"
       y1="6"
       x2="36.357143"
       y2="63.893143"
       id="linearGradient3188"
       xlink:href="#linearGradient3737"
       gradientUnits="userSpaceOnUse" />
    <filter
       x="-0.192"
       y="-0.192"
       width="1.3839999"
       height="1.3839999"
       id="filter3794"
       style="color-interpolation-filters:sRGB">
      <feGaussianBlur
         id="feGaussianBlur3796"
         stdDeviation="5.28" />
    </filter>
    <linearGradient
       x1="48"
       y1="20.220806"
       x2="48"
       y2="138.66119"
       id="linearGradient3613"
       xlink:href="#linearGradient3737"
       gradientUnits="userSpaceOnUse" />
    <radialGradient
       cx="48"
       cy="90.171875"
       r="42"
       fx="48"
       fy="90.171875"
       id="radialGradient3619"
       xlink:href="#linearGradient3737"
       gradientUnits="userSpaceOnUse"
       gradientTransform="matrix(1.1573129,0,0,0.99590774,-7.5510206,0.19713193)" />
    <clipPath
       id="clipPath3613">
      <rect
         width="84"
         height="84"
         rx="6"
         ry="6"
         x="6"
         y="6"
         id="rect3615"
         style="fill:#ffffff;fill-opacity:1;fill-rule:nonzero;stroke:none" />
    </clipPath>
    <linearGradient
       x1="48"
       y1="90"
       x2="48"
       y2="5.9877172"
       id="linearGradient2843"
       xlink:href="#linearGradient3700"
       gradientUnits="userSpaceOnUse"
       gradientTransform="translate(0,100)" />
    <clipPath
       id="clipPath3625">
      <path
         d="M 0,0 0,96 96,96 96,0 0,0 Z m 12,6 72,0 c 3.324,0 6,2.676 6,6 l 0,72 c 0,3.324 -2.676,6 -6,6 L 12,90 C 8.676,90 6,87.324 6,84 L 6,12 C 6,8.676 8.676,6 12,6 Z"
         inkscape:connector-curvature="0"
         id="path3627"
         style="fill:#ffffff;fill-opacity:1;stroke:none" />
    </clipPath>
    <linearGradient
       x1="44.512066"
       y1="6"
       x2="44.512066"
       y2="90.015434"
       id="linearGradient3643"
       xlink:href="#linearGradient3637"
       gradientUnits="userSpaceOnUse" />
    <clipPath
       id="clipPath3649">
      <rect
         width="76"
         height="76"
         rx="4"
         ry="4"
         x="10"
         y="10"
         id="rect3651"
         style="fill:#ffffff;fill-opacity:1;fill-rule:nonzero;stroke:none" />
    </clipPath>
    <filter
       id="filter3657"
       style="color-interpolation-filters:sRGB">
      <feGaussianBlur
         id="feGaussianBlur3659"
         stdDeviation="1.14" />
    </filter>
  </defs>
  <metadata
     id="metadata2413">
    <rdf:RDF>
      <cc:Work
         rdf:about="">
        <dc:format>image/svg+xml</dc:format>
        <dc:type
           rdf:resource="http://purl.org/dc/dcmitype/StillImage" />
        <dc:title></dc:title>
      </cc:Work>
    </rdf:RDF>
  </metadata>
  <g
     id="layer2"
     style="display:none"
     transform="translate(0,-64)">
    <rect
       width="86"
       height="85"
       rx="6"
       ry="6"
       x="5"
       y="7"
       clip-path="url(#clipPath3625)"
       id="rect3745"
       style="opacity:0.9;fill:url(#ButtonShadow);fill-opacity:1;fill-rule:nonzero;stroke:none;filter:url(#filter3174)" />
  </g>
  <g
     id="layer1"
     style="display:none"
     transform="translate(0,-64)">
    <rect
       width="84"
       height="84"
       rx="6"
       ry="6"
       x="6"
       y="6"
       id="rect2419"
       style="opacity:0.8;fill:#000000;fill-opacity:1;fill-rule:nonzero;stroke:none" />
    <path
       d="m 14,10 c -2.216,0 -4,1.784 -4,4 l 0,68 c 0,2.216 1.784,4 4,4 l 68,0 c 2.216,0 4,-1.784 4,-4 l 0,-68 c 0,-2.216 -1.784,-4 -4,-4 l -68,0 z m 0,3.0625 68,0 c 0.578769,0 0.9375,0.358731 0.9375,0.9375 l 0,68 c 0,0.578769 -0.358731,0.9375 -0.9375,0.9375 l -68,0 c -0.578769,0 -0.9375,-0.358731 -0.9375,-0.9375 l 0,-68 c 0,-0.578769 0.358731,-0.9375 0.9375,-0.9375 z"
       inkscape:connector-curvature="0"
       id="rect3726"
       style="opacity:0.07999998;fill:#000000;fill-opacity:1;fill-rule:nonzero;stroke:none" />
    <path
       d="M 12,6 C 8.676,6 6,8.676 6,12 l 0,72 c 0,3.324 2.676,6 6,6 l 72,0 c 3.324,0 6,-2.676 6,-6 L 90,12 C 90,8.676 87.324,6 84,6 L 12,6 Z m 2,4 68,0 c 2.216,0 4,1.784 4,4 l 0,68 c 0,2.216 -1.784,4 -4,4 l -68,0 c -2.216,0 -4,-1.784 -4,-4 l 0,-68 c 0,-2.216 1.784,-4 4,-4 z"
       inkscape:connector-curvature="0"
       id="rect3629"
       style="fill:url(#linearGradient3643);fill-opacity:1;fill-rule:nonzero;stroke:none" />
    <path
       d="M 12,6 C 8.676,6 6,8.676 6,12 l 0,2 0,68 0,2 c 0,0.334721 0.04135,0.6507 0.09375,0.96875 0.0487,0.295596 0.09704,0.596915 0.1875,0.875 0.00988,0.03038 0.020892,0.0636 0.03125,0.09375 0.098865,0.287771 0.2348802,0.547452 0.375,0.8125 0.1445918,0.273507 0.3156161,0.535615 0.5,0.78125 0.1843839,0.245635 0.3737765,0.473472 0.59375,0.6875 0.439947,0.428056 0.94291,0.814526 1.5,1.09375 0.278545,0.139612 0.5734731,0.246947 0.875,0.34375 -0.2562018,-0.100222 -0.4867109,-0.236272 -0.71875,-0.375 -0.00741,-0.0044 -0.023866,0.0045 -0.03125,0 -0.031933,-0.0193 -0.062293,-0.04251 -0.09375,-0.0625 -0.120395,-0.0767 -0.2310226,-0.163513 -0.34375,-0.25 -0.1061728,-0.0808 -0.2132809,-0.161112 -0.3125,-0.25 C 8.4783201,88.557317 8.3087904,88.373362 8.15625,88.1875 8.0486711,88.057245 7.9378561,87.922215 7.84375,87.78125 7.818661,87.74287 7.805304,87.69538 7.78125,87.65625 7.716487,87.553218 7.6510225,87.451733 7.59375,87.34375 7.4927417,87.149044 7.3880752,86.928049 7.3125,86.71875 7.30454,86.69694 7.288911,86.6782 7.28125,86.65625 7.2494249,86.5643 7.2454455,86.469419 7.21875,86.375 7.1884177,86.268382 7.1483606,86.171969 7.125,86.0625 7.0521214,85.720988 7,85.364295 7,85 L 7,83 7,15 7,13 C 7,10.218152 9.2181517,8 12,8 l 2,0 68,0 2,0 c 2.781848,0 5,2.218152 5,5 l 0,2 0,68 0,2 c 0,0.364295 -0.05212,0.720988 -0.125,1.0625 -0.04415,0.206893 -0.08838,0.397658 -0.15625,0.59375 -0.0077,0.02195 -0.0233,0.04069 -0.03125,0.0625 -0.06274,0.173739 -0.138383,0.367449 -0.21875,0.53125 -0.04158,0.0828 -0.07904,0.169954 -0.125,0.25 -0.0546,0.09721 -0.126774,0.18835 -0.1875,0.28125 -0.09411,0.140965 -0.204921,0.275995 -0.3125,0.40625 -0.143174,0.17445 -0.303141,0.346998 -0.46875,0.5 -0.01117,0.0102 -0.01998,0.02115 -0.03125,0.03125 -0.138386,0.125556 -0.285091,0.234436 -0.4375,0.34375 -0.102571,0.07315 -0.204318,0.153364 -0.3125,0.21875 -0.0074,0.0045 -0.02384,-0.0044 -0.03125,0 -0.232039,0.138728 -0.462548,0.274778 -0.71875,0.375 0.301527,-0.0968 0.596455,-0.204138 0.875,-0.34375 0.55709,-0.279224 1.060053,-0.665694 1.5,-1.09375 0.219973,-0.214028 0.409366,-0.441865 0.59375,-0.6875 0.184384,-0.245635 0.355408,-0.507743 0.5,-0.78125 0.14012,-0.265048 0.276135,-0.524729 0.375,-0.8125 0.01041,-0.03078 0.02133,-0.06274 0.03125,-0.09375 0.09046,-0.278085 0.1388,-0.579404 0.1875,-0.875 C 89.95865,84.6507 90,84.334721 90,84 l 0,-2 0,-68 0,-2 C 90,8.676 87.324,6 84,6 L 12,6 Z"
       inkscape:connector-curvature="0"
       id="rect3728"
       style="fill:url(#linearGradient3188);fill-opacity:1;fill-rule:nonzero;stroke:none" />
    <path
       d="M 12,90 C 8.676,90 6,87.324 6,84 L 6,82 6,14 6,12 c 0,-0.334721 0.04135,-0.6507 0.09375,-0.96875 0.0487,-0.295596 0.09704,-0.596915 0.1875,-0.875 C 6.29113,10.12587 6.302142,10.09265 6.3125,10.0625 6.411365,9.774729 6.5473802,9.515048 6.6875,9.25 6.8320918,8.976493 7.0031161,8.714385 7.1875,8.46875 7.3718839,8.223115 7.5612765,7.995278 7.78125,7.78125 8.221197,7.353194 8.72416,6.966724 9.28125,6.6875 9.559795,6.547888 9.8547231,6.440553 10.15625,6.34375 9.9000482,6.443972 9.6695391,6.580022 9.4375,6.71875 c -0.00741,0.0044 -0.023866,-0.0045 -0.03125,0 -0.031933,0.0193 -0.062293,0.04251 -0.09375,0.0625 -0.120395,0.0767 -0.2310226,0.163513 -0.34375,0.25 -0.1061728,0.0808 -0.2132809,0.161112 -0.3125,0.25 C 8.4783201,7.442683 8.3087904,7.626638 8.15625,7.8125 8.0486711,7.942755 7.9378561,8.077785 7.84375,8.21875 7.818661,8.25713 7.805304,8.30462 7.78125,8.34375 7.716487,8.446782 7.6510225,8.548267 7.59375,8.65625 7.4927417,8.850956 7.3880752,9.071951 7.3125,9.28125 7.30454,9.30306 7.288911,9.3218 7.28125,9.34375 7.2494249,9.4357 7.2454455,9.530581 7.21875,9.625 7.1884177,9.731618 7.1483606,9.828031 7.125,9.9375 7.0521214,10.279012 7,10.635705 7,11 l 0,2 0,68 0,2 c 0,2.781848 2.2181517,5 5,5 l 2,0 68,0 2,0 c 2.781848,0 5,-2.218152 5,-5 l 0,-2 0,-68 0,-2 C 89,10.635705 88.94788,10.279012 88.875,9.9375 88.83085,9.730607 88.78662,9.539842 88.71875,9.34375 88.71105,9.3218 88.69545,9.30306 88.6875,9.28125 88.62476,9.107511 88.549117,8.913801 88.46875,8.75 88.42717,8.6672 88.38971,8.580046 88.34375,8.5 88.28915,8.40279 88.216976,8.31165 88.15625,8.21875 88.06214,8.077785 87.951329,7.942755 87.84375,7.8125 87.700576,7.63805 87.540609,7.465502 87.375,7.3125 87.36383,7.3023 87.35502,7.29135 87.34375,7.28125 87.205364,7.155694 87.058659,7.046814 86.90625,6.9375 86.803679,6.86435 86.701932,6.784136 86.59375,6.71875 c -0.0074,-0.0045 -0.02384,0.0044 -0.03125,0 -0.232039,-0.138728 -0.462548,-0.274778 -0.71875,-0.375 0.301527,0.0968 0.596455,0.204138 0.875,0.34375 0.55709,0.279224 1.060053,0.665694 1.5,1.09375 0.219973,0.214028 0.409366,0.441865 0.59375,0.6875 0.184384,0.245635 0.355408,0.507743 0.5,0.78125 0.14012,0.265048 0.276135,0.524729 0.375,0.8125 0.01041,0.03078 0.02133,0.06274 0.03125,0.09375 0.09046,0.278085 0.1388,0.579404 0.1875,0.875 C 89.95865,11.3493 90,11.665279 90,12 l 0,2 0,68 0,2 c 0,3.324 -2.676,6 -6,6 l -72,0 z"
       inkscape:connector-curvature="0"
       id="path3615"
       style="opacity:0.6;fill:url(#radialGradient3619);fill-opacity:1;fill-rule:nonzero;stroke:none" />
    <rect
       width="84"
       height="84"
       rx="6"
       ry="6"
       x="6"
       y="106"
       id="rect2841"
       style="fill:url(#linearGradient2843);fill-opacity:1;fill-rule:nonzero;stroke:none" />
    <rect
       width="76"
       height="76"
       rx="4"
       ry="4"
       x="10"
       y="110"
       id="rect3634"
       style="fill:#ff0000;fill-opacity:1;fill-rule:nonzero;stroke:none" />
    <path
       d="m 14,9 c -2.752703,0 -5,2.247297 -5,5 l 0,68 c 0,2.752703 2.247297,5 5,5 l 68,0 c 2.752703,0 5,-2.247297 5,-5 L 87,14 C 87,11.247297 84.752703,9 82,9 L 14,9 Z m 0,2 68,0 c 1.679297,0 3,1.320703 3,3 l 0,68 c 0,1.679297 -1.320703,3 -3,3 l -68,0 c -1.679297,0 -3,-1.320703 -3,-3 l 0,-68 c 0,-1.679297 1.320703,-3 3,-3 z"
       inkscape:connector-curvature="0"
       transform="translate(-110,0)"
       clip-path="url(#clipPath3649)"
       id="rect3647"
       style="color:#000000;font-style:normal;font-variant:normal;font-weight:normal;font-stretch:normal;font-size:medium;line-height:normal;font-family:'Abandoned Bitplane';-inkscape-font-specification:'Abandoned Bitplane';text-indent:0;text-align:start;text-decoration:none;text-decoration-line:none;letter-spacing:normal;word-spacing:normal;text-transform:none;direction:ltr;block-progression:tb;writing-mode:lr-tb;text-anchor:start;display:inline;overflow:visible;visibility:visible;fill:#000000;fill-opacity:1;stroke:none;stroke-width:2;marker:none;filter:url(#filter3657);enable-background:accumulate" />
    <path
       d="m 14.089286,10 c -2.216,0 -4,1.784 -4,4 l 0,68 c 0,2.216 1.784,4 4,4 l 68,0 c 2.216,0 4,-1.784 4,-4 l 0,-68 c 0,-2.216 -1.784,-4 -4,-4 l -68,0 z m 0,2 68,0 c 1.140301,0 2,0.859699 2,2 l 0,68 c 0,1.140301 -0.859699,2 -2,2 l -68,0 c -1.140301,0 -2,-0.859699 -2,-2 l 0,-68 c 0,-1.140301 0.859699,-2 2,-2 z"
       inkscape:connector-curvature="0"
       id="path3709"
       style="opacity:0.16000001;fill:#000000;fill-opacity:1;fill-rule:nonzero;stroke:none" />
    <path
       d="m 14,10 c -2.216,0 -4,1.784 -4,4 l 0,68 c 0,2.216 1.784,4 4,4 l 68,0 c 2.216,0 4,-1.784 4,-4 l 0,-68 c 0,-2.216 -1.784,-4 -4,-4 l -68,0 z m 0,1 68,0 c 1.673848,0 3,1.326152 3,3 l 0,68 c 0,1.673848 -1.326152,3 -3,3 l -68,0 c -1.673848,0 -3,-1.326152 -3,-3 l 0,-68 c 0,-1.673848 1.326152,-3 3,-3 z"
       inkscape:connector-curvature="0"
       id="path3707"
       style="opacity:0.36000001;fill:#000000;fill-opacity:1;fill-rule:nonzero;stroke:none" />
  </g>
  <g
     id="layer5"
     style="display:none"
     transform="translate(0,-64)">
    <rect
       width="66"
       height="66"
       rx="12"
       ry="12"
       x="15"
       y="15"
       clip-path="url(#clipPath3613)"
       id="rect3171"
       style="opacity:0.1;fill:url(#linearGradient3613);fill-opacity:1;fill-rule:nonzero;stroke:#ffffff;stroke-width:0.5;stroke-linecap:round;stroke-linejoin:miter;stroke-miterlimit:4;stroke-dasharray:none;stroke-dashoffset:0;stroke-opacity:1;filter:url(#filter3794)" />
  </g>
  <path
     style="fill:#ffcf3f;fill-opacity:1;stroke:none"
     inkscape:transform-center-x="2.200373"
     inkscape:transform-center-y="3.8111585"
     d="m 11.488633,23.395982 c 1.438158,0.822149 1.937532,2.654492 1.115384,4.092649 -0.82215,1.43816 -2.6544914,1.937534 -4.0926492,1.115384 C 7.0732089,27.781866 6.5738357,25.949523 7.3959843,24.511366 8.2181335,23.073208 10.050476,22.573834 11.488633,23.395982 Z"
     id="path3905"
     inkscape:export-filename="/home/simon/Desktop/gnome-pie-symbolic.png"
     inkscape:export-xdpi="1637.5708"
     inkscape:export-ydpi="1637.5708"
     inkscape:connector-curvature="0" />
  <path
     inkscape:connector-curvature="0"
     inkscape:export-ydpi="1637.5708"
     inkscape:export-xdpi="1637.5708"
     inkscape:export-filename="/home/simon/Desktop/gnome-pie-symbolic.png"
     id="path4298"
     d="m 8.2367378,15.461982 c 1.6778511,0.959173 2.2604542,3.096904 1.3012804,4.774756 C 8.5788446,21.91459 6.4411131,22.497193 4.763262,21.538018 3.0854108,20.578845 2.502808,18.441112 3.4619819,16.76326 4.4211559,15.085411 6.5588868,14.502809 8.2367378,15.461982 Z"
     inkscape:transform-center-y="3.8399602"
     inkscape:transform-center-x="2.2170016"
     style="fill:#7cc327;fill-opacity:1;stroke:none" />
  <path
     style="fill:#27adc3;fill-opacity:1;stroke:none"
     inkscape:transform-center-x="2.8111494"
     inkscape:transform-center-y="-5.2946764"
     d="M 10.984844,6.5279782 C 12.902388,7.6241754 13.56822,10.067298 12.472021,11.984843 11.375822,13.902387 8.9327006,14.56822 7.015156,13.472019 5.0976123,12.375821 4.4317806,9.9326994 5.5279794,8.015154 6.624178,6.0976122 9.0672993,5.43178 10.984844,6.5279782 Z"
     id="path4310"
     inkscape:export-filename="/home/simon/Desktop/gnome-pie-symbolic.png"
     inkscape:export-xdpi="1637.5708"
     inkscape:export-ydpi="1637.5708"
     inkscape:connector-curvature="0" />
  <path
     inkscape:connector-curvature="0"
     inkscape:export-ydpi="1637.5708"
     inkscape:export-xdpi="1637.5708"
     inkscape:export-filename="/home/simon/Desktop/gnome-pie-symbolic.png"
     id="path4322"
     d="m 24.229161,3.7259703 c 2.636622,1.5072724 3.552141,4.8665651 2.044868,7.5031887 -1.507274,2.636625 -4.866565,3.552143 -7.503188,2.044868 -2.636624,-1.507272 -3.552142,-4.8665659 -2.044869,-7.5031892 1.507273,-2.6366205 4.866565,-3.5521397 7.503189,-2.0448675 z"
     inkscape:transform-center-y="3.7663418"
     inkscape:transform-center-x="2.1744985"
     style="fill:#ffcf3f;fill-opacity:1;stroke:none" />
  <path
     style="fill:#7cc327;fill-opacity:1;stroke:none"
     inkscape:transform-center-x="2.1131213"
     inkscape:transform-center-y="3.6600338"
     d="m 26.984844,15.527977 c 1.917544,1.096198 2.583375,3.539321 1.487177,5.456865 -1.096199,1.917546 -3.53932,2.583378 -5.456865,1.487177 -1.917544,-1.096198 -2.583376,-3.539321 -1.487176,-5.456865 1.096198,-1.917542 3.539319,-2.583374 5.456864,-1.487177 z"
     id="path4334"
     inkscape:export-filename="/home/simon/Desktop/gnome-pie-symbolic.png"
     inkscape:export-xdpi="1637.5708"
     inkscape:export-ydpi="1637.5708"
     inkscape:connector-curvature="0" />
  <path
     inkscape:connector-curvature="0"
     inkscape:export-ydpi="1637.5708"
     inkscape:export-xdpi="1637.5708"
     inkscape:export-filename="/home/simon/Desktop/gnome-pie-symbolic.png"
     id="path4346"
     d="m 21.068645,22.37206 c 1.727514,0.866338 2.425634,2.969072 1.559295,4.696586 -0.866339,1.727514 -2.969072,2.425633 -4.696586,1.559293 -1.727513,-0.866338 -2.425633,-2.969072 -1.559294,-4.696587 0.86634,-1.727511 2.969072,-2.425631 4.696585,-1.559292 z"
     inkscape:transform-center-y="3.8663726"
     inkscape:transform-center-x="2.2322509"
     style="fill:#27adc3;fill-opacity:1;stroke:none" />
  <path
     style="fill:#ffffff;fill-opacity:1;stroke:none;opacity:0.2"
     d="M 21.625 3.0019531 C 19.674661 2.9596361 17.762813 3.9588078 16.726562 5.7714844 C 16.143486 6.7914416 15.925905 7.9188864 16.027344 9.0058594 C 16.095751 8.242055 16.320993 7.4809336 16.726562 6.7714844 C 17.762813 4.9588078 19.674661 3.9596361 21.625 4.0019531 C 22.511518 4.0211881 23.404571 4.2555399 24.228516 4.7265625 C 25.845181 5.6507583 26.811872 7.2712526 26.972656 8.9941406 C 27.158724 6.9191195 26.155872 4.8283705 24.228516 3.7265625 C 23.404571 3.2555399 22.511518 3.0211881 21.625 3.0019531 z M 9.2832031 6.0097656 C 9.0896899 5.9962403 8.8971163 5.9973224 8.7050781 6.0117188 C 7.4248238 6.1076942 6.2124678 6.8171614 5.5273438 8.015625 C 5.0861437 8.787402 4.9444057 9.6428881 5.0410156 10.462891 C 5.1078663 9.9671426 5.2638059 9.4766233 5.5273438 9.015625 C 6.2124678 7.8171614 7.4248238 7.1076941 8.7050781 7.0117188 C 9.4732307 6.9541335 10.265296 7.1162693 10.984375 7.5273438 C 12.129541 8.1819975 12.815051 9.318518 12.958984 10.535156 C 13.170138 8.9688607 12.440876 7.3599779 10.984375 6.5273438 C 10.445066 6.219038 9.8637427 6.0503417 9.2832031 6.0097656 z M 6.7480469 15.007812 C 6.5787457 14.995795 6.4102208 14.997169 6.2421875 15.009766 C 5.1219652 15.093744 4.0623744 15.715016 3.4628906 16.763672 C 3.0632149 17.462812 2.9455182 18.238486 3.0488281 18.978516 C 3.1115112 18.562674 3.241591 18.150784 3.4628906 17.763672 C 4.0623744 16.715016 5.1219652 16.093746 6.2421875 16.009766 C 6.9143209 15.959379 7.607134 16.103201 8.2363281 16.462891 C 9.215441 17.022618 9.8068694 17.985044 9.9511719 19.021484 C 10.160308 17.634863 9.5271571 16.200816 8.2363281 15.462891 C 7.7644326 15.193123 7.2559503 15.043866 6.7480469 15.007812 z M 25.283203 15.009766 C 25.08969 14.99624 24.897116 14.997322 24.705078 15.011719 C 23.424824 15.107694 22.212468 15.817161 21.527344 17.015625 C 21.085876 17.78787 20.944041 18.642435 21.041016 19.462891 C 21.107866 18.967143 21.263806 18.476623 21.527344 18.015625 C 22.212468 16.817161 23.424824 16.107689 24.705078 16.011719 C 25.473231 15.954133 26.265296 16.11627 26.984375 16.527344 C 28.129541 17.181998 28.815051 18.318518 28.958984 19.535156 C 29.170138 17.968861 28.440876 16.359979 26.984375 15.527344 C 26.445066 15.219038 25.863743 15.050342 25.283203 15.009766 z M 19.728516 22.007812 C 18.367718 21.919649 17.020849 22.636007 16.371094 23.931641 C 16.033291 24.605232 15.940453 25.335072 16.046875 26.027344 C 16.09752 25.655569 16.193525 25.285721 16.371094 24.931641 C 17.020849 23.636007 18.367718 22.919653 19.728516 23.007812 C 20.182115 23.037201 20.636481 23.154509 21.068359 23.371094 C 22.122282 23.89963 22.786614 24.889505 22.953125 25.972656 C 23.150144 24.530197 22.44218 23.060057 21.068359 22.371094 C 20.636481 22.154509 20.182115 22.037201 19.728516 22.007812 z M 9.7792969 23.007812 C 8.819106 23.079794 7.9103276 23.61287 7.3964844 24.511719 C 7.040171 25.135006 6.9457475 25.829465 7.0546875 26.486328 C 7.1127047 26.152402 7.2185276 25.823013 7.3964844 25.511719 C 7.9103276 24.61287 8.819106 24.079792 9.7792969 24.007812 C 10.355411 23.964623 10.948972 24.088179 11.488281 24.396484 C 12.302871 24.862159 12.80268 25.653296 12.945312 26.511719 C 13.155091 25.303081 12.614989 24.040587 11.488281 23.396484 C 10.948972 23.088179 10.355411 22.964624 9.7792969 23.007812 z "
     id="path4626" />
  <path
     style="fill:#000000;fill-opacity:1;stroke:none;opacity:0.3"
     d="M 26.972656 7.9941406 C 26.904033 8.7572923 26.678662 9.5196693 26.273438 10.228516 C 24.766164 12.865141 21.408107 13.780712 18.771484 12.273438 C 17.154933 11.349307 16.188231 9.7286105 16.027344 8.0058594 C 15.841275 10.08088 16.844126 12.171629 18.771484 13.273438 C 21.408107 14.780712 24.766164 13.865141 26.273438 11.228516 C 26.856514 10.208558 27.074095 9.0811136 26.972656 7.9941406 z M 5.0410156 9.4628906 C 4.8290222 11.029776 5.5585425 12.639689 7.015625 13.472656 C 8.9331696 14.568857 11.376457 13.901919 12.472656 11.984375 C 12.9142 11.211996 13.056063 10.355741 12.958984 9.5351562 C 12.892146 10.030953 12.73622 10.523332 12.472656 10.984375 C 11.376457 12.901919 8.9331696 13.568857 7.015625 12.472656 C 5.8704595 11.818002 5.1849495 10.679529 5.0410156 9.4628906 z M 3.0488281 17.978516 C 2.8396921 19.365137 3.4728429 20.799184 4.7636719 21.537109 C 6.441523 22.496284 8.5779358 21.91418 9.5371094 20.236328 C 9.9371282 19.536588 10.054975 18.76013 9.9511719 18.019531 C 9.8884888 18.435373 9.758409 18.849216 9.5371094 19.236328 C 8.5779358 20.91418 6.441523 21.496284 4.7636719 20.537109 C 3.7849602 19.977612 3.1934497 19.014469 3.0488281 17.978516 z M 21.041016 18.462891 C 20.829022 20.029776 21.558542 21.639689 23.015625 22.472656 C 24.93317 23.568857 27.376457 22.901921 28.472656 20.984375 C 28.914467 20.21153 29.056427 19.356192 28.958984 18.535156 C 28.892146 19.030953 28.736219 19.523332 28.472656 19.984375 C 27.376457 21.901921 24.93317 22.568857 23.015625 21.472656 C 21.870459 20.818002 21.184949 19.679529 21.041016 18.462891 z M 22.953125 24.972656 C 22.902402 25.344021 22.806282 25.714666 22.628906 26.068359 C 21.762567 27.795873 19.659155 28.495246 17.931641 27.628906 C 16.877645 27.100334 16.213328 26.10863 16.046875 25.025391 C 15.84896 26.468458 16.557217 27.939641 17.931641 28.628906 C 19.659155 29.495246 21.762567 28.795873 22.628906 27.068359 C 22.966709 26.394768 23.059547 25.664928 22.953125 24.972656 z M 7.0566406 25.486328 C 6.8457717 26.695657 7.3843006 27.959007 8.5117188 28.603516 C 9.9498765 29.425666 11.781366 28.926441 12.603516 27.488281 C 12.960231 26.864291 13.052913 26.169232 12.943359 25.511719 C 12.885318 25.845503 12.781399 26.177116 12.603516 26.488281 C 11.781366 27.926441 9.9498766 28.425666 8.5117188 27.603516 C 7.6972325 27.1379 7.199349 26.344624 7.0566406 25.486328 z "
     id="path4639" />
</svg>
