<?xml version="1.0" encoding="UTF-8" standalone="no"?>
<!-- Created with Inkscape (http://www.inkscape.org/) -->

<svg
   xmlns:dc="http://purl.org/dc/elements/1.1/"
   xmlns:cc="http://creativecommons.org/ns#"
   xmlns:rdf="http://www.w3.org/1999/02/22-rdf-syntax-ns#"
   xmlns:svg="http://www.w3.org/2000/svg"
   xmlns="http://www.w3.org/2000/svg"
   xmlns:sodipodi="http://sodipodi.sourceforge.net/DTD/sodipodi-0.dtd"
   xmlns:inkscape="http://www.inkscape.org/namespaces/inkscape"
   id="svg2817"
   height="32"
   width="32"
   version="1.0"
   inkscape:version="0.91 r"
   sodipodi:docname="kdiamond.svg">
  <sodipodi:namedview
     pagecolor="#ffffff"
     bordercolor="#666666"
     borderopacity="1"
     objecttolerance="10"
     gridtolerance="10"
     guidetolerance="10"
     inkscape:pageopacity="0"
     inkscape:pageshadow="2"
     inkscape:window-width="1600"
     inkscape:window-height="843"
     id="namedview21"
     showgrid="false"
     inkscape:zoom="12.239653"
     inkscape:cx="13.137693"
     inkscape:cy="19.89345"
     inkscape:window-x="-4"
     inkscape:window-y="31"
     inkscape:window-maximized="1"
     inkscape:current-layer="svg2817"
     showguides="false" />
  <metadata
     id="metadata57">
    <rdf:RDF>
      <cc:Work
         rdf:about="">
        <dc:format>image/svg+xml</dc:format>
        <dc:type
           rdf:resource="http://purl.org/dc/dcmitype/StillImage" />
        <dc:title></dc:title>
      </cc:Work>
    </rdf:RDF>
  </metadata>
  <defs
     id="defs2819" />
  <rect
     id="rect3351"
     transform="matrix(-0.70710678,-0.70710678,-0.70710678,0.70710678,0,0)"
     rx="0.43703648"
     ry="0.43703648"
     height="8.7407293"
     width="8.7407293"
     y="-4.3703694"
     x="-17.098284"
     style="fill:#69b3de;fill-opacity:1" />
  <rect
     style="fill:#f0cc57;fill-opacity:1"
     x="-26.997784"
     y="-14.269861"
     width="8.7407293"
     height="8.7407293"
     ry="0.43703648"
     rx="0.43703648"
     transform="matrix(-0.70710678,-0.70710678,-0.70710678,0.70710678,0,0)"
     id="rect4142" />
  <rect
     style="fill:#e94a63"
     x="-26.99778"
     y="5.5291286"
     width="8.7407293"
     height="8.7407293"
     ry="0.43703648"
     rx="0.43703648"
     transform="matrix(-0.70710678,-0.70710678,-0.70710678,0.70710678,0,0)"
     id="rect4150" />
  <rect
     id="rect4152"
     transform="matrix(-0.70710678,-0.70710678,-0.70710678,0.70710678,0,0)"
     rx="0.43703648"
     ry="0.43703648"
     height="8.7407293"
     width="8.7407293"
     y="-4.3703642"
     x="-36.897278"
     style="fill:#69b746;fill-opacity:1" />
  <path
     inkscape:connector-curvature="0"
     style="opacity:0.3;fill:#000000;fill-opacity:1"
     d="M 3.3203125,8.5 3.1289062,8.6914062 c -0.1712034,0.1712036 -0.1712034,0.445984 0,0.6171876 l 5.5625,5.5625002 c 0.1712036,0.171203 0.445984,0.171203 0.6171876,0 L 14.871094,9.3085938 c 0.171203,-0.1712036 0.171203,-0.445984 0,-0.6171876 L 14.679688,8.5 9.3085938,13.871094 c -0.1712035,0.171203 -0.445984,0.171203 -0.6171876,0 L 3.3203125,8.5 Z m 13.9999995,0 -0.191406,0.1914062 c -0.171203,0.1712036 -0.171203,0.445984 0,0.6171876 l 5.5625,5.5625002 c 0.171204,0.171203 0.445984,0.171203 0.617188,0 l 5.5625,-5.5625002 c 0.171203,-0.1712036 0.171203,-0.445984 0,-0.6171876 L 28.679688,8.5 23.308594,13.871094 c -0.171204,0.171203 -0.445984,0.171203 -0.617188,0 L 17.320312,8.5 Z m -13.9999995,14 -0.1914063,0.191406 c -0.1712034,0.171204 -0.1712034,0.445984 0,0.617188 l 5.5625,5.5625 c 0.1712036,0.171203 0.445984,0.171203 0.6171876,0 l 5.5625002,-5.5625 c 0.171203,-0.171204 0.171203,-0.445984 0,-0.617188 L 14.679688,22.5 9.3085938,27.871094 c -0.1712035,0.171203 -0.445984,0.171203 -0.6171876,0 L 3.3203125,22.5 Z m 13.9999995,0 -0.191406,0.191406 c -0.171203,0.171204 -0.171203,0.445984 0,0.617188 l 5.5625,5.5625 c 0.171204,0.171203 0.445984,0.171203 0.617188,0 l 5.5625,-5.5625 c 0.171203,-0.171204 0.171203,-0.445984 0,-0.617188 L 28.679688,22.5 23.308594,27.871094 c -0.171204,0.171203 -0.445984,0.171203 -0.617188,0 L 17.320312,22.5 Z"
     id="rect4226" />
  <path
     inkscape:connector-curvature="0"
     style="opacity:0.1;fill:#ffffff;fill-opacity:1"
     d="M 9,3 C 8.8882851,3 8.7770081,3.0433045 8.6914062,3.1289062 l -5.5625,5.5625 c -0.1712034,0.1712036 -0.1712034,0.445984 0,0.6171876 L 3.3203125,9.5 8.6914062,4.1289062 C 8.7770081,4.0433041 8.8882851,4 9,4 9.1117149,4 9.2229919,4.0433046 9.3085938,4.1289062 L 14.679688,9.5 14.871094,9.3085938 c 0.171203,-0.1712036 0.171203,-0.445984 0,-0.6171876 l -5.5625002,-5.5625 C 9.2229919,3.0433046 9.1117149,3 9,3 Z m 14,0 c -0.111715,0 -0.222992,0.043305 -0.308594,0.1289062 l -5.5625,5.5625 c -0.171203,0.1712036 -0.171203,0.445984 0,0.6171876 L 17.320312,9.5 22.691406,4.1289062 C 22.777008,4.0433041 22.888285,4 23,4 c 0.111715,0 0.222992,0.043305 0.308594,0.1289062 L 28.679688,9.5 28.871094,9.3085938 c 0.171203,-0.1712036 0.171203,-0.445984 0,-0.6171876 l -5.5625,-5.5625 C 23.222992,3.0433046 23.111715,3 23,3 Z M 9,17 c -0.1117149,0 -0.2229919,0.04331 -0.3085938,0.128906 l -5.5625,5.5625 c -0.1712034,0.171204 -0.1712034,0.445984 0,0.617188 L 3.3203125,23.5 8.6914062,18.128906 C 8.7770081,18.04331 8.8882851,18 9,18 c 0.1117149,0 0.2229919,0.04331 0.3085938,0.128906 L 14.679688,23.5 14.871094,23.308594 c 0.171203,-0.171204 0.171203,-0.445984 0,-0.617188 l -5.5625002,-5.5625 C 9.2229919,17.043305 9.1117149,17 9,17 Z m 14,0 c -0.111715,0 -0.222992,0.04331 -0.308594,0.128906 l -5.5625,5.5625 c -0.171203,0.171204 -0.171203,0.445984 0,0.617188 L 17.320312,23.5 22.691406,18.128906 C 22.777008,18.04331 22.888285,18 23,18 c 0.111715,0 0.222992,0.04331 0.308594,0.128906 L 28.679688,23.5 28.871094,23.308594 c 0.171203,-0.171204 0.171203,-0.445984 0,-0.617188 l -5.5625,-5.5625 C 23.222992,17.043305 23.111715,17 23,17 Z"
     id="path4235" />
</svg>
