<?xml version="1.0" encoding="UTF-8" standalone="no"?>
<!-- Created with Inkscape (http://www.inkscape.org/) -->

<svg
   xmlns:dc="http://purl.org/dc/elements/1.1/"
   xmlns:cc="http://creativecommons.org/ns#"
   xmlns:rdf="http://www.w3.org/1999/02/22-rdf-syntax-ns#"
   xmlns:svg="http://www.w3.org/2000/svg"
   xmlns="http://www.w3.org/2000/svg"
   xmlns:sodipodi="http://sodipodi.sourceforge.net/DTD/sodipodi-0.dtd"
   xmlns:inkscape="http://www.inkscape.org/namespaces/inkscape"
   width="32"
   height="32"
   viewBox="0 0 32 32.000001"
   id="svg4231"
   version="1.1"
   inkscape:version="0.91 r"
   sodipodi:docname="password-manager.svg">
  <defs
     id="defs4233" />
  <sodipodi:namedview
     id="base"
     pagecolor="#ffffff"
     bordercolor="#666666"
     borderopacity="1.0"
     inkscape:pageopacity="0.0"
     inkscape:pageshadow="2"
     inkscape:zoom="14.06"
     inkscape:cx="25.318975"
     inkscape:cy="20.228419"
     inkscape:document-units="px"
     inkscape:current-layer="layer1"
     showgrid="false"
     units="px"
     inkscape:window-width="1600"
     inkscape:window-height="846"
     inkscape:window-x="0"
     inkscape:window-y="26"
     inkscape:window-maximized="1" />
  <metadata
     id="metadata4236">
    <rdf:RDF>
      <cc:Work
         rdf:about="">
        <dc:format>image/svg+xml</dc:format>
        <dc:type
           rdf:resource="http://purl.org/dc/dcmitype/StillImage" />
        <dc:title></dc:title>
      </cc:Work>
    </rdf:RDF>
  </metadata>
  <g
     inkscape:label="Layer 1"
     inkscape:groupmode="layer"
     id="layer1"
     transform="translate(0,-1020.3622)">
    <g
       id="g4895"
       transform="translate(0,0.5)">
      <path
         style="opacity:1;fill:#4bae4f;fill-opacity:1;stroke:none;stroke-width:8;stroke-linecap:round;stroke-linejoin:miter;stroke-miterlimit:4;stroke-dasharray:none;stroke-opacity:1"
         d="m 10,1027.8622 a 8,8 0 0 0 -8,8 8,8 0 0 0 8,8 8,8 0 0 0 7.41016,-5 l 4.58984,0 0,3 5,0 0,-3 3,0 0,-6 -12.58789,0 a 8,8 0 0 0 -7.41211,-5 z"
         id="path4462"
         inkscape:connector-curvature="0" />
      <circle
         r="3.0000005"
         cy="1036.8622"
         cx="10"
         id="circle4464"
         style="opacity:0.2;fill:#000000;fill-opacity:1;stroke:none;stroke-width:8;stroke-linecap:round;stroke-linejoin:miter;stroke-miterlimit:4;stroke-dasharray:none;stroke-opacity:1" />
      <circle
         style="opacity:1;fill:#f9f9f9;fill-opacity:1;stroke:none;stroke-width:8;stroke-linecap:round;stroke-linejoin:miter;stroke-miterlimit:4;stroke-dasharray:none;stroke-opacity:1"
         id="circle4466"
         cx="10"
         cy="1035.8622"
         r="3.0000005" />
      <path
         style="opacity:0.2;fill:#ffffff;fill-opacity:1;stroke:none;stroke-width:8;stroke-linecap:round;stroke-linejoin:miter;stroke-miterlimit:4;stroke-dasharray:none;stroke-opacity:1"
         d="m 10,1027.8622 a 8,8 0 0 0 -8,8 8,8 0 0 0 0.02148,0.4238 8,8 0 0 1 7.97852,-7.4238 8,8 0 0 1 7.41211,5 l 12.58789,0 0,-1 -12.58789,0 a 8,8 0 0 0 -7.41211,-5 z"
         id="path4476"
         inkscape:connector-curvature="0" />
      <path
         id="path4890"
         transform="translate(0,1020.3622)"
         d="M 2.0214844,14.923828 A 8,8 0 0 0 2,15.5 a 8,8 0 0 0 8,8 8,8 0 0 0 7.410156,-5 L 22,18.5 l 0,-1 -4.589844,0 A 8,8 0 0 1 10,22.5 8,8 0 0 1 2.0214844,14.923828 Z M 27,17.5 l 0,1 3,0 0,-1 -3,0 z m -5,3 0,1 5,0 0,-1 -5,0 z"
         style="opacity:0.3;fill:#000000;fill-opacity:1;stroke:none;stroke-width:8;stroke-linecap:round;stroke-linejoin:miter;stroke-miterlimit:4;stroke-dasharray:none;stroke-opacity:1"
         inkscape:connector-curvature="0" />
    </g>
  </g>
</svg>
