<?xml version="1.0" encoding="UTF-8" standalone="no"?>
<!-- Created with Inkscape (http://www.inkscape.org/) -->

<svg
   xmlns:dc="http://purl.org/dc/elements/1.1/"
   xmlns:cc="http://creativecommons.org/ns#"
   xmlns:rdf="http://www.w3.org/1999/02/22-rdf-syntax-ns#"
   xmlns:svg="http://www.w3.org/2000/svg"
   xmlns="http://www.w3.org/2000/svg"
   xmlns:xlink="http://www.w3.org/1999/xlink"
   xmlns:sodipodi="http://sodipodi.sourceforge.net/DTD/sodipodi-0.dtd"
   xmlns:inkscape="http://www.inkscape.org/namespaces/inkscape"
   width="32"
   height="32"
   viewBox="0 0 32 32.000001"
   id="svg4779"
   version="1.1"
   inkscape:version="0.91 r"
   sodipodi:docname="synapse.svg">
  <defs
     id="defs4781">
    <linearGradient
       inkscape:collect="always"
       id="linearGradient4153">
      <stop
         style="stop-color:#000000;stop-opacity:1"
         offset="0"
         id="stop4155" />
      <stop
         style="stop-color:#000000;stop-opacity:0"
         offset="1"
         id="stop4157" />
    </linearGradient>
    <linearGradient
       inkscape:collect="always"
       xlink:href="#linearGradient4153"
       id="linearGradient4159"
       x1="-1036.3622"
       y1="-15.999599"
       x2="-1022.3622"
       y2="-15.999599"
       gradientUnits="userSpaceOnUse"
       gradientTransform="matrix(0,-1,-1,0,0,0)" />
  </defs>
  <sodipodi:namedview
     id="base"
     pagecolor="#ffffff"
     bordercolor="#666666"
     borderopacity="1.0"
     inkscape:pageopacity="0.0"
     inkscape:pageshadow="2"
     inkscape:zoom="17.31"
     inkscape:cx="15.40973"
     inkscape:cy="-0.17480019"
     inkscape:document-units="px"
     inkscape:current-layer="layer1"
     showgrid="false"
     units="px"
     inkscape:window-width="1600"
     inkscape:window-height="847"
     inkscape:window-x="0"
     inkscape:window-y="26"
     inkscape:window-maximized="1" />
  <metadata
     id="metadata4784">
    <rdf:RDF>
      <cc:Work
         rdf:about="">
        <dc:format>image/svg+xml</dc:format>
        <dc:type
           rdf:resource="http://purl.org/dc/dcmitype/StillImage" />
        <dc:title />
      </cc:Work>
    </rdf:RDF>
  </metadata>
  <g
     inkscape:label="Layer 1"
     inkscape:groupmode="layer"
     id="layer1"
     transform="translate(0,-1020.3622)">
    <rect
       id="rect4255-5"
       ry="14"
       rx="14"
       transform="matrix(0,-1,-1,0,0,0)"
       height="28"
       width="28"
       y="-29.999599"
       x="-1050.3622"
       style="fill:#20b293;fill-opacity:1" />
    <path
       inkscape:connector-curvature="0"
       style="opacity:0.8;fill:#ffffff;fill-opacity:1"
       d="m 15.097257,1027.3622 0,2.0256 c -2.9638,0.3572 -5.367557,2.4612 -6.097657,5.2166 l 1.873047,0 c 0.7686,-1.9904 2.806715,-3.5424 5.028515,-3.5264 0.0546,0 0.109529,0 0.161329,0 0.8092,0.01 1.602584,0.2 2.321484,0.5489 1.2964,0.5677 2.258572,1.6877 2.726172,2.9802 l 1.889453,0 c -0.7301,-2.7554 -3.133857,-4.8601 -6.097657,-5.2167 l 0,-2.0255 -1.804686,0 z m 0.902343,5.1734 c -2.1987,0 -3.978516,1.7251 -3.978516,3.8699 0,0 -0.0273,0.3622 0.0875,0.7734 l 6.111328,0 c -0.1666,0.4486 -0.462262,0.8517 -0.864062,1.1196 -0.924,0.711 -2.324219,0.4513 -3.111718,-0.3434 l -1.892189,0 c 0.615301,1.3659 2.015257,2.3203 3.647657,2.3203 2.1987,0 3.978516,-1.7307 3.978516,-3.8699 0,0 -1.96e-4,-0.3975 -0.0793,-0.7735 l -6.112694,0 c 0.3444,-0.8466 1.167107,-1.5304 2.120508,-1.5387 0.0462,0 0.09599,0 0.142186,0 0.639801,0.014 1.260679,0.3083 1.692579,0.768 l 1.90586,0 c -0.615299,-1.3659 -2.018055,-2.323 -3.647655,-2.323 z m -7,5.5844 c 0.7301,2.7554 3.133857,4.8601 6.097657,5.2167 l 0,2.0255 1.804686,0 0,-2.0255 c 2.9638,-0.36 5.367557,-2.4613 6.097657,-5.2167 l -1.862109,0 c -0.7301,2.0908 -2.989241,3.602 -5.269141,3.5238 -2.2232,0.011 -4.234934,-1.5334 -4.990234,-3.5238 l -1.878516,0 z"
       id="rect4451" />
    <path
       style="opacity:0.1;fill:url(#linearGradient4159);fill-opacity:1"
       d="m 29.999599,1036.3622 c 0,-7.756 -6.244,-14 -14,-14 -7.7559995,0 -13.9999995,6.244 -13.9999995,14 z"
       id="rect4150"
       inkscape:connector-curvature="0"
       sodipodi:nodetypes="cscc" />
    <path
       style="opacity:0.1;fill:#ffffff"
       inkscape:connector-curvature="0"
       id="rect4570"
       d="m 15.9996,1022.3622 c -7.756,0 -14,6.244 -14,14 0,0.169 0.0195,0.333 0.0254,0.5 0.2637,-7.5206 6.3874,-13.5 13.975,-13.5 7.5872,0 13.711,5.9794 13.975,13.5 0.006,-0.1674 0.0254,-0.3312 0.0254,-0.5 0,-7.756 -6.244,-14 -14,-14 z" />
    <path
       style="opacity:0.3"
       inkscape:connector-curvature="0"
       id="rect4558"
       d="m 2.025,1035.8622 c -0.0059,0.167 -0.0254,0.331 -0.0254,0.5 0,7.756 6.244,14 14,14 7.756,0 14,-6.244 14,-14 0,-0.1688 -0.01952,-0.3326 -0.02539,-0.5 -0.264,7.521 -6.388,13.5 -13.975,13.5 -7.5872,0 -13.711,-5.979 -13.975,-13.5 z" />
  </g>
</svg>
