<?xml version="1.0" encoding="UTF-8" standalone="no"?>
<!-- Created with Inkscape (http://www.inkscape.org/) -->

<svg
   xmlns:dc="http://purl.org/dc/elements/1.1/"
   xmlns:cc="http://creativecommons.org/ns#"
   xmlns:rdf="http://www.w3.org/1999/02/22-rdf-syntax-ns#"
   xmlns:svg="http://www.w3.org/2000/svg"
   xmlns="http://www.w3.org/2000/svg"
   xmlns:sodipodi="http://sodipodi.sourceforge.net/DTD/sodipodi-0.dtd"
   xmlns:inkscape="http://www.inkscape.org/namespaces/inkscape"
   width="32"
   height="32"
   viewBox="0 0 32 32.000001"
   id="svg4222"
   version="1.1"
   inkscape:version="0.91 r13725"
   sodipodi:docname="wingpanel.svg">
  <defs
     id="defs4224" />
  <sodipodi:namedview
     id="base"
     pagecolor="#ffffff"
     bordercolor="#666666"
     borderopacity="1.0"
     inkscape:pageopacity="0.0"
     inkscape:pageshadow="2"
     inkscape:zoom="19.88"
     inkscape:cx="8.3435425"
     inkscape:cy="17.943771"
     inkscape:document-units="px"
     inkscape:current-layer="layer1"
     showgrid="false"
     units="px"
     inkscape:window-width="1600"
     inkscape:window-height="845"
     inkscape:window-x="0"
     inkscape:window-y="31"
     inkscape:window-maximized="1" />
  <metadata
     id="metadata4227">
    <rdf:RDF>
      <cc:Work
         rdf:about="">
        <dc:format>image/svg+xml</dc:format>
        <dc:type
           rdf:resource="http://purl.org/dc/dcmitype/StillImage" />
        <dc:title></dc:title>
      </cc:Work>
    </rdf:RDF>
  </metadata>
  <g
     inkscape:label="Layer 1"
     inkscape:groupmode="layer"
     id="layer1"
     transform="translate(0,-1020.3622)">
    <path
       inkscape:connector-curvature="0"
       style="fill:#4ab3e4;fill-opacity:1;stroke:none"
       d="m 3.4,1024.3622 c -0.7756,0 -1.4,0.6194 -1.4,1.3889 l 0,1.3888 0,19.4445 0,1.3889 c 0,0.7694 0.6244,1.3889 1.4,1.3889 l 25.2,0 c 0.7756,0 1.4,-0.6195 1.4,-1.3889 l 0,-1.3889 0,-19.4445 0,-1.3888 c 0,-0.7695 -0.6244,-1.3889 -1.4,-1.3889 l -25.2,0 z"
       id="rect4203" />
    <path
       style="fill:#4d4d4d;fill-opacity:1;stroke:none"
       d="m 3.4,1024.3622 c -0.7756,0 -1.4,0.6194 -1.4,1.3889 l 0,1.6111 28,0 0,-1.6111 c 0,-0.7695 -0.6244,-1.3889 -1.4,-1.3889 z"
       id="rect3328"
       inkscape:connector-curvature="0"
       sodipodi:nodetypes="ssccsss" />
    <path
       style="fill:#ffffff;fill-opacity:1;stroke:none;opacity:0.1"
       d="M 3.4003906 4 C 2.6247906 4 2 4.6191719 2 5.3886719 L 2 6.3886719 C 2 5.6191719 2.6247906 5 3.4003906 5 L 28.599609 5 C 29.375209 5 30 5.6191719 30 6.3886719 L 30 5.3886719 C 30 4.6191719 29.375209 4 28.599609 4 L 3.4003906 4 z "
       transform="translate(0,1020.3622)"
       id="path4144" />
    <path
       style="fill:#000000;fill-opacity:1;stroke:none;opacity:0.3"
       d="M 2 26.611328 L 2 27.611328 C 2 28.380728 2.6247906 29 3.4003906 29 L 28.599609 29 C 29.375209 29 30 28.380728 30 27.611328 L 30 26.611328 C 30 27.380728 29.375209 28 28.599609 28 L 3.4003906 28 C 2.6247906 28 2 27.380728 2 26.611328 z "
       transform="translate(0,1020.3622)"
       id="path4136" />
  </g>
</svg>
