<?xml version="1.0" encoding="UTF-8" standalone="no"?>
<!-- Created with Inkscape (http://www.inkscape.org/) -->

<svg
   xmlns:osb="http://www.openswatchbook.org/uri/2009/osb"
   xmlns:dc="http://purl.org/dc/elements/1.1/"
   xmlns:cc="http://creativecommons.org/ns#"
   xmlns:rdf="http://www.w3.org/1999/02/22-rdf-syntax-ns#"
   xmlns:svg="http://www.w3.org/2000/svg"
   xmlns="http://www.w3.org/2000/svg"
   xmlns:sodipodi="http://sodipodi.sourceforge.net/DTD/sodipodi-0.dtd"
   xmlns:inkscape="http://www.inkscape.org/namespaces/inkscape"
   sodipodi:docname="folder-java.svg"
   inkscape:export-filename="/home/sam/source-symbolic.png"
   inkscape:export-xdpi="270"
   inkscape:export-ydpi="270"
   height="16"
   id="svg7384"
   style="enable-background:new"
   version="1.1"
   inkscape:version="0.91 r13725"
   width="16">
  <sodipodi:namedview
     inkscape:bbox-nodes="true"
     inkscape:bbox-paths="false"
     bordercolor="#666666"
     borderlayer="false"
     borderopacity="1"
     inkscape:current-layer="layer12"
     inkscape:cx="-1.1831781"
     inkscape:cy="6.8864241"
     gridtolerance="10"
     inkscape:guide-bbox="true"
     guidetolerance="10"
     id="namedview88"
     inkscape:object-nodes="true"
     inkscape:object-paths="true"
     objecttolerance="10"
     pagecolor="#f7f7f7"
     inkscape:pageopacity="0"
     inkscape:pageshadow="2"
     showborder="true"
     showgrid="false"
     showguides="true"
     inkscape:showpageshadow="false"
     inkscape:snap-bbox="true"
     inkscape:snap-bbox-edge-midpoints="false"
     inkscape:snap-bbox-midpoints="true"
     inkscape:snap-center="false"
     inkscape:snap-global="true"
     inkscape:snap-grids="true"
     inkscape:snap-intersection-paths="true"
     inkscape:snap-midpoints="true"
     inkscape:snap-nodes="true"
     inkscape:snap-object-midpoints="true"
     inkscape:snap-others="true"
     inkscape:snap-page="false"
     inkscape:snap-smooth-nodes="true"
     inkscape:snap-to-guides="true"
     inkscape:window-height="846"
     inkscape:window-maximized="1"
     inkscape:window-width="1548"
     inkscape:window-x="52"
     inkscape:window-y="30"
     inkscape:zoom="30.14">
    <inkscape:grid
       color="#ffffff"
       dotted="false"
       empcolor="#0800ff"
       empopacity="0.4627451"
       empspacing="4"
       enabled="true"
       id="grid4866"
       opacity="0.16470588"
       originx="-244.0004"
       originy="-316.00672"
       snapvisiblegridlinesonly="true"
       spacingx="0.25px"
       spacingy="0.25px"
       type="xygrid"
       visible="true" />
  </sodipodi:namedview>
  <metadata
     id="metadata90">
    <rdf:RDF>
      <cc:Work
         rdf:about="">
        <dc:format>image/svg+xml</dc:format>
        <dc:type
           rdf:resource="http://purl.org/dc/dcmitype/StillImage" />
        <dc:title>Paper Symbolic Icon Theme</dc:title>
      </cc:Work>
    </rdf:RDF>
  </metadata>
  <title
     id="title8473">Paper Symbolic Icon Theme</title>
  <defs
     id="defs7386">
    <linearGradient
       id="linearGradient5606"
       osb:paint="solid">
      <stop
         id="stop5608"
         offset="0"
         style="stop-color:#ffffff;stop-opacity:1;" />
    </linearGradient>
  </defs>
  <g
     inkscape:groupmode="layer"
     id="layer12"
     inkscape:label="actions"
     style="display:inline"
     transform="translate(-485.0006,99.00672)">
    <g
       style="display:inline;opacity:0.72;fill:#ffffff;fill-opacity:1;enable-background:new"
       id="g3928"
       transform="matrix(0.27398298,0,0,0.27398298,514.55037,-105.81773)" />
    <path
       inkscape:connector-curvature="0"
       style="opacity:0.72;fill:#ffffff;fill-opacity:1;stroke:none;stroke-width:1;stroke-linecap:round;stroke-linejoin:round;stroke-miterlimit:3.42857146;stroke-dasharray:none;stroke-opacity:1"
       d="m 491.17248,-98.00672 c 0,0 0.82433,0.46523 0.24218,1.6875 -0.88087,1.84243 0.8125,2.263672 0.8125,2.263672 0,0 -0.53722,-0.432535 0.17969,-1.953125 0.79241,-1.68485 -1.23437,-1.998047 -1.23437,-1.998047 z m 3.19921,1.839844 c 0,0 -1.6425,0.630002 -0.58398,2.351562 0.70012,1.14095 -0.0762,1.707032 -0.0762,1.707032 0,0 1.98461,-0.563332 1.02734,-2.138672 -0.86069,-1.42386 -0.36718,-1.919922 -0.36718,-1.919922 z m -4.72851,0.04687 c 0,0 -1.43722,1.095226 -0.0137,2.441406 0.94142,0.895765 0.32422,1.67188 0.32422,1.67188 0,0 1.78257,-1.132604 0.49414,-2.371094 -1.16339,-1.11722 -0.80469,-1.742187 -0.80469,-1.742187 z m 0.31055,4.113286 -3.95313,0 2,8 8,0 0.27539,-1.097656 c 0.23299,0.0581 0.47365,0.09766 0.72461,0.09766 1.65685,0 3,-1.34315 3,-3 0,-1.40589 -0.97018,-2.577134 -2.27539,-2.902344 l 0.27539,-1.097656 -8.04687,0 z m 7.53125,2.0625 a 1,1.9999973 15 0 1 0.0332,0.0059 1,1.9999973 15 0 1 0.44921,2.191407 1,1.9999973 15 0 1 -1.45117,1.677734 l 0.96875,-3.875 z"
       id="rect4153" />
  </g>
</svg>
