<?xml version="1.0" encoding="UTF-8" standalone="no"?>
<!-- Created with Inkscape (http://www.inkscape.org/) -->

<svg
   xmlns:sketch="http://www.bohemiancoding.com/sketch/ns"
   xmlns:dc="http://purl.org/dc/elements/1.1/"
   xmlns:cc="http://creativecommons.org/ns#"
   xmlns:rdf="http://www.w3.org/1999/02/22-rdf-syntax-ns#"
   xmlns:svg="http://www.w3.org/2000/svg"
   xmlns="http://www.w3.org/2000/svg"
   xmlns:sodipodi="http://sodipodi.sourceforge.net/DTD/sodipodi-0.dtd"
   xmlns:inkscape="http://www.inkscape.org/namespaces/inkscape"
   width="16"
   height="16"
   id="svg2"
   version="1.1"
   inkscape:version="0.91 r13725"
   viewBox="0 0 16 16"
   sodipodi:docname="folder-github.svg">
  <defs
     id="defs4" />
  <sodipodi:namedview
     id="base"
     pagecolor="#ffffff"
     bordercolor="#666666"
     borderopacity="1.0"
     inkscape:pageopacity="0.0"
     inkscape:pageshadow="2"
     inkscape:zoom="19.88"
     inkscape:cx="8.3461007"
     inkscape:cy="8.3125286"
     inkscape:document-units="px"
     inkscape:current-layer="layer1"
     showgrid="false"
     inkscape:showpageshadow="false"
     borderlayer="true"
     units="px"
     inkscape:window-width="1600"
     inkscape:window-height="847"
     inkscape:window-x="0"
     inkscape:window-y="30"
     inkscape:window-maximized="1"
     inkscape:snap-global="true"
     inkscape:snap-bbox="true"
     showguides="false">
    <inkscape:grid
       type="xygrid"
       id="grid4062" />
    <sodipodi:guide
       position="2,14.000017"
       orientation="12,0"
       id="guide4066" />
    <sodipodi:guide
       position="2,2.0000174"
       orientation="0,12"
       id="guide4068" />
    <sodipodi:guide
       position="14,2.0000174"
       orientation="-12,0"
       id="guide4070" />
    <sodipodi:guide
       position="14,14.000017"
       orientation="0,-12"
       id="guide4072" />
  </sodipodi:namedview>
  <metadata
     id="metadata7">
    <rdf:RDF>
      <cc:Work
         rdf:about="">
        <dc:format>image/svg+xml</dc:format>
        <dc:type
           rdf:resource="http://purl.org/dc/dcmitype/StillImage" />
        <dc:title></dc:title>
      </cc:Work>
    </rdf:RDF>
  </metadata>
  <g
     inkscape:label="Capa 1"
     inkscape:groupmode="layer"
     id="layer1"
     transform="translate(0,-1036.3622)">
    <path
       style="fill:#ffffff;fill-opacity:1;stroke:none;stroke-width:0.29356915;stroke-opacity:1;opacity:0.72"
       inkscape:connector-curvature="0"
       sketch:type="MSShapeGroup"
       id="Github"
       d="m 14.060678,1040.8628 c -0.6259,-1.0755 -1.474979,-1.9269 -2.547342,-2.5546 -1.072589,-0.6276 -2.2435125,-0.9414 -3.5135465,-0.9414 -1.269924,0 -2.441176,0.3139 -3.513543,0.9414 -1.072478,0.6277 -1.921554,1.4791 -2.547457,2.5546 -0.625899,1.0755 -0.938793,2.2499 -0.938793,3.5233 0,1.5294 0.445009,2.9049 1.335256,4.1265 0.890129,1.2217 2.04002,2.0671 3.449667,2.5362 0.164112,0.03 0.285597,0.01 0.364576,-0.064 0.07898,-0.073 0.118468,-0.1646 0.118468,-0.2742 0,-0.018 -0.0015,-0.1827 -0.0045,-0.4935 -0.0032,-0.3108 -0.0045,-0.582 -0.0045,-0.8133 l -0.209641,0.036 c -0.133681,0.024 -0.302266,0.035 -0.505865,0.032 -0.203488,0 -0.414694,-0.024 -0.633393,-0.064 -0.218816,-0.04 -0.422304,-0.1308 -0.610689,-0.274 -0.188273,-0.1432 -0.321954,-0.3307 -0.400936,-0.5621 l -0.09116,-0.2103 c -0.06074,-0.14 -0.156393,-0.2955 -0.287054,-0.466 -0.130662,-0.1707 -0.262776,-0.2864 -0.39646,-0.3473 l -0.06377,-0.046 c -0.04251,-0.03 -0.082,-0.067 -0.118467,-0.1098 -0.03647,-0.043 -0.06377,-0.085 -0.082,-0.128 -0.01823,-0.043 -0.0032,-0.078 0.04554,-0.1053 0.04866,-0.027 0.136701,-0.041 0.264344,-0.041 l 0.182233,0.027 c 0.121487,0.024 0.271841,0.097 0.451159,0.2193 0.179215,0.1218 0.326546,0.2802 0.441991,0.4751 0.139836,0.2499 0.30831,0.4403 0.505867,0.5713 0.197446,0.131 0.396463,0.1964 0.596925,0.1964 0.200468,0 0.373641,-0.015 0.519515,-0.046 0.145768,-0.03 0.282467,-0.076 0.410108,-0.1371 0.05471,-0.4083 0.203602,-0.7221 0.446578,-0.9414 -0.346342,-0.037 -0.65767,-0.092 -0.934211,-0.1646 -0.276424,-0.073 -0.562023,-0.1919 -0.856681,-0.3566 -0.294772,-0.1645 -0.539314,-0.3686 -0.73374,-0.6123 -0.194429,-0.2438 -0.353952,-0.5637 -0.47846,-0.9597 -0.124511,-0.3961 -0.18682,-0.853 -0.18682,-1.371 0,-0.7373 0.240067,-1.3649 0.720093,-1.8828 -0.224855,-0.5544 -0.203601,-1.1759 0.06377,-1.8644 0.176192,-0.055 0.437516,-0.014 0.783858,0.1234 0.346345,0.137 0.599947,0.2545 0.761038,0.3519 0.161088,0.097 0.290183,0.1798 0.387396,0.2468 0.565155,-0.1584 1.148436,-0.2376 1.74995,-0.2376 0.601515,0 1.184905,0.079 1.750171,0.2376 l 0.3463425,-0.2194 c 0.236828,-0.1462 0.516495,-0.2803 0.838341,-0.4021 0.322066,-0.1219 0.568286,-0.1554 0.738436,-0.1005 0.273408,0.6885 0.297681,1.31 0.07283,1.8644 0.480027,0.518 0.720097,1.1456 0.720097,1.8829 0,0.5179 -0.06243,0.9763 -0.186821,1.3754 -0.124621,0.3993 -0.285487,0.719 -0.482932,0.9597 -0.19756,0.2407 -0.44367,0.4433 -0.738331,0.6078 -0.294769,0.1646 -0.580371,0.2834 -0.856795,0.3565 -0.2765365,0.073 -0.5878645,0.1281 -0.9342055,0.1647 0.315912,0.2742 0.47387,0.7067 0.47387,1.2978 l 0,1.9283 c 0,0.1096 0.03804,0.201 0.113993,0.274 0.07596,0.073 0.1958835,0.094 0.3599915,0.064 1.409758,-0.4692 2.559649,-1.3145 3.449782,-2.5363 0.890129,-1.2215 1.335253,-2.597 1.335253,-4.1266 -3e-4,-1.2731 -0.313454,-2.4474 -0.939133,-3.5229 l 0,0 z" />
  </g>
</svg>
