<?xml version="1.0" encoding="UTF-8" standalone="no"?>
<!-- Created with Inkscape (http://www.inkscape.org/) -->

<svg
   xmlns:dc="http://purl.org/dc/elements/1.1/"
   xmlns:cc="http://creativecommons.org/ns#"
   xmlns:rdf="http://www.w3.org/1999/02/22-rdf-syntax-ns#"
   xmlns:svg="http://www.w3.org/2000/svg"
   xmlns="http://www.w3.org/2000/svg"
   xmlns:xlink="http://www.w3.org/1999/xlink"
   xmlns:sodipodi="http://sodipodi.sourceforge.net/DTD/sodipodi-0.dtd"
   xmlns:inkscape="http://www.inkscape.org/namespaces/inkscape"
   width="22"
   height="22"
   id="svg3869"
   version="1.1"
   inkscape:version="0.91 r13725"
   sodipodi:docname="distribute-graph-directed.svg">
  <defs
     id="defs3871">
    <style
       type="text/css"
       id="current-color-scheme">
      .ColorScheme-Text {
        color:#4d4d4d;
      }
      .ColorScheme-Background {
        color:#eff0f1;
      }
      .ColorScheme-Highlight {
        color:#3daee9;
      }
      .ColorScheme-ViewText {
        color:#31363b;
      }
      .ColorScheme-ViewBackground {
        color:#fcfcfc;
      }
      .ColorScheme-ViewHover {
        color:#93cee9;
      }
      .ColorScheme-ViewFocus{
        color:#3daee9;
      }
      .ColorScheme-ButtonText {
        color:#31363b;
      }
      .ColorScheme-ButtonBackground {
        color:#eff0f1;
      }
      .ColorScheme-ButtonHover {
        color:#93cee9;
      }
      .ColorScheme-ButtonFocus{
        color:#3daee9;
      }
      </style>
  </defs>
  <sodipodi:namedview
     id="base"
     pagecolor="#ffffff"
     bordercolor="#666666"
     borderopacity="1.0"
     inkscape:pageopacity="0.0"
     inkscape:pageshadow="2"
     inkscape:zoom="17.31"
     inkscape:cx="-1.8657095"
     inkscape:cy="12.032563"
     inkscape:document-units="px"
     inkscape:current-layer="layer1"
     showgrid="false"
     fit-margin-top="0"
     fit-margin-left="0"
     fit-margin-right="0"
     fit-margin-bottom="0"
     inkscape:window-width="1600"
     inkscape:window-height="847"
     inkscape:window-x="0"
     inkscape:window-y="30"
     inkscape:window-maximized="1"
     inkscape:showpageshadow="false"
     showguides="false">
    <inkscape:grid
       type="xygrid"
       id="grid4132" />
    <sodipodi:guide
       position="2,20.000017"
       orientation="18,0"
       id="guide4138" />
    <sodipodi:guide
       position="2,2.0000174"
       orientation="0,18"
       id="guide4140" />
    <sodipodi:guide
       position="20,2.0000174"
       orientation="-18,0"
       id="guide4142" />
    <sodipodi:guide
       position="20,20.000017"
       orientation="0,-18"
       id="guide4144" />
    <sodipodi:guide
       position="3,19.000017"
       orientation="16,0"
       id="guide4146" />
    <sodipodi:guide
       position="3,3.0000174"
       orientation="0,16"
       id="guide4148" />
    <sodipodi:guide
       position="19,3.0000174"
       orientation="-16,0"
       id="guide4150" />
    <sodipodi:guide
       position="19,19.000017"
       orientation="0,-16"
       id="guide4152" />
  </sodipodi:namedview>
  <metadata
     id="metadata3874">
    <rdf:RDF>
      <cc:Work
         rdf:about="">
        <dc:format>image/svg+xml</dc:format>
        <dc:type
           rdf:resource="http://purl.org/dc/dcmitype/StillImage" />
        <dc:title></dc:title>
      </cc:Work>
    </rdf:RDF>
  </metadata>
  <g
     inkscape:label="Capa 1"
     inkscape:groupmode="layer"
     id="layer1"
     transform="translate(-326,-534.3622)">
    <g
       transform="translate(-52.85714,-5.71427)"
       id="layer1-9"
       inkscape:label="Capa 1">
      <use
         transform="matrix(0.34051305,0,0,0.34051309,265.32904,475.96692)"
         style="fill:#8ab3df;fill-opacity:0.728823529;stroke:#0000ff;stroke-opacity:1"
         x="0"
         y="0"
         id="use15554"
         width="1250"
         height="1250"
         xlink:href="#path5724" />
      <path
         style="fill:#ffffff;fill-opacity:1;stroke:none;opacity:0.72"
         d="M 4.5 3 A 1.4999964 1.5 0 0 0 3 4.5 A 1.4999964 1.5 0 0 0 4.5 6 A 1.4999964 1.5 0 0 0 6 4.5 A 1.4999964 1.5 0 0 0 4.5 3 z M 17.5 3 A 1.4999964 1.5 0 0 0 16 4.5 A 1.4999964 1.5 0 0 0 17.5 6 A 1.4999964 1.5 0 0 0 19 4.5 A 1.4999964 1.5 0 0 0 17.5 3 z M 15.78125 5.5625 L 11.9375 9.75 L 12.6875 10.4375 L 16.53125 6.25 C 16.389586 6.1146083 16.057853 5.827192 15.78125 5.5625 z M 6.21875 5.625 L 5.46875 6.3125 L 9.2773438 10.414062 L 10.03125 9.71875 L 6.21875 5.625 z M 11 10 A 1.4999964 1.5 0 0 0 9.5 11.5 A 1.4999964 1.5 0 0 0 11 13 A 1.4999964 1.5 0 0 0 12.5 11.5 A 1.4999964 1.5 0 0 0 11 10 z M 10.5 13.4375 L 10.5 15.5625 L 11.5 15.5625 L 11.5 13.4375 C 11.102857 13.4419 10.795206 13.438196 10.5 13.4375 z M 11 16 A 1.4999964 1.5 0 0 0 9.5 17.5 A 1.4999964 1.5 0 0 0 11 19 A 1.4999964 1.5 0 0 0 12.5 17.5 A 1.4999964 1.5 0 0 0 11 16 z "
         transform="translate(378.85714,540.07647)"
         id="path4453-3" />
    </g>
  </g>
</svg>
