<?xml version="1.0" encoding="UTF-8" standalone="no"?>
<!-- Created with Inkscape (http://www.inkscape.org/) -->

<svg
   xmlns:osb="http://www.openswatchbook.org/uri/2009/osb"
   xmlns:dc="http://purl.org/dc/elements/1.1/"
   xmlns:cc="http://creativecommons.org/ns#"
   xmlns:rdf="http://www.w3.org/1999/02/22-rdf-syntax-ns#"
   xmlns:svg="http://www.w3.org/2000/svg"
   xmlns="http://www.w3.org/2000/svg"
   xmlns:sodipodi="http://sodipodi.sourceforge.net/DTD/sodipodi-0.dtd"
   xmlns:inkscape="http://www.inkscape.org/namespaces/inkscape"
   sodipodi:docname="im-gadugadu.svg"
   inkscape:export-filename="/home/sam/source-symbolic.png"
   inkscape:export-xdpi="270"
   inkscape:export-ydpi="270"
   height="22"
   id="svg7384"
   style="enable-background:new"
   version="1.1"
   inkscape:version="0.91 r"
   width="22">
  <sodipodi:namedview
     inkscape:bbox-nodes="true"
     inkscape:bbox-paths="false"
     bordercolor="#666666"
     borderlayer="false"
     borderopacity="1"
     inkscape:current-layer="layer12"
     inkscape:cx="-13.425344"
     inkscape:cy="4.0567317"
     gridtolerance="10"
     inkscape:guide-bbox="true"
     guidetolerance="10"
     id="namedview88"
     inkscape:object-nodes="true"
     inkscape:object-paths="true"
     objecttolerance="10"
     pagecolor="#f7f7f7"
     inkscape:pageopacity="0"
     inkscape:pageshadow="2"
     showborder="true"
     showgrid="false"
     showguides="false"
     inkscape:showpageshadow="false"
     inkscape:snap-bbox="true"
     inkscape:snap-bbox-edge-midpoints="false"
     inkscape:snap-bbox-midpoints="true"
     inkscape:snap-center="false"
     inkscape:snap-global="true"
     inkscape:snap-grids="true"
     inkscape:snap-intersection-paths="true"
     inkscape:snap-midpoints="true"
     inkscape:snap-nodes="true"
     inkscape:snap-object-midpoints="true"
     inkscape:snap-others="true"
     inkscape:snap-page="false"
     inkscape:snap-smooth-nodes="true"
     inkscape:snap-to-guides="true"
     inkscape:window-height="849"
     inkscape:window-maximized="1"
     inkscape:window-width="1600"
     inkscape:window-x="0"
     inkscape:window-y="26"
     inkscape:zoom="14.06">
    <inkscape:grid
       color="#ffffff"
       dotted="false"
       empcolor="#0800ff"
       empopacity="0.4627451"
       empspacing="4"
       enabled="true"
       id="grid4866"
       opacity="0.16470588"
       originx="-184.0002"
       originy="-336.00336"
       snapvisiblegridlinesonly="true"
       spacingx="0.25px"
       spacingy="0.25px"
       type="xygrid"
       visible="true" />
  </sodipodi:namedview>
  <metadata
     id="metadata90">
    <rdf:RDF>
      <cc:Work
         rdf:about="">
        <dc:format>image/svg+xml</dc:format>
        <dc:type
           rdf:resource="http://purl.org/dc/dcmitype/StillImage" />
        <dc:title>Paper Symbolic Icon Theme</dc:title>
      </cc:Work>
    </rdf:RDF>
  </metadata>
  <title
     id="title8473">Paper Symbolic Icon Theme</title>
  <defs
     id="defs7386">
    <linearGradient
       id="linearGradient5606"
       osb:paint="solid">
      <stop
         id="stop5608"
         offset="0"
         style="stop-color:#ffffff;stop-opacity:1;" />
    </linearGradient>
  </defs>
  <g
     inkscape:groupmode="layer"
     id="layer12"
     inkscape:label="actions"
     style="display:inline"
     transform="translate(-425.0004,119.00336)">
    <path
       style="opacity:0.72;fill:#ffffff;fill-opacity:1;stroke:none"
       d="m 436.0004,-116.00336 -1.11523,3.13477 c -0.55265,0.12651 -1.06699,0.34564 -1.53321,0.63867 l -3.00781,-1.42969 1.42969,3.00781 c -0.29303,0.46622 -0.51216,0.98055 -0.63867,1.53321 l -3.13477,1.11523 3.13477,1.11523 c 0.12651,0.55265 0.34564,1.06698 0.63867,1.53321 l -1.42969,3.00781 3.00977,-1.43164 c 0.46588,0.29261 0.97911,0.51423 1.53125,0.64062 l 1.11523,3.13477 1.11523,-3.13477 c 0.55214,-0.12639 1.06537,-0.34801 1.53125,-0.64062 l 3.00977,1.43164 -1.43164,-3.00977 c 0.29261,-0.46588 0.51423,-0.97911 0.64062,-1.53125 l 3.13477,-1.11523 -3.13477,-1.11523 c -0.12639,-0.55214 -0.34801,-1.06537 -0.64062,-1.53125 l 1.43164,-3.00977 -3.00781,1.42969 c -0.46623,-0.29303 -0.98056,-0.51216 -1.53321,-0.63867 l -1.11523,-3.13477 z m -2,6 a 1,1 0 0 1 1,1 1,1 0 0 1 -1,1 1,1 0 0 1 -1,-1 1,1 0 0 1 1,-1 z m 4,0 a 1,1 0 0 1 1,1 1,1 0 0 1 -1,1 1,1 0 0 1 -1,-1 1,1 0 0 1 1,-1 z m 0.49805,3.49609 a 0.50005,0.50005 0 0 1 0.31445,0.89453 c 0,0 -1.29532,1.10538 -2.81055,1.10938 -1.51035,0.004 -2.80859,-1.07422 -2.80859,-1.07422 a 0.50005,0.50005 0 1 1 0.61328,-0.78906 c 0,0 1.20332,0.86628 2.19336,0.86328 0.98518,-0.002 2.18945,-0.89063 2.18945,-0.89063 a 0.50005,0.50005 0 0 1 0.3086,-0.11328 z"
       id="path4646-0"
       inkscape:connector-curvature="0" />
  </g>
</svg>
