<?xml version="1.0" encoding="UTF-8" standalone="no"?>
<!-- Created with Inkscape (http://www.inkscape.org/) -->

<svg
   xmlns:dc="http://purl.org/dc/elements/1.1/"
   xmlns:cc="http://creativecommons.org/ns#"
   xmlns:rdf="http://www.w3.org/1999/02/22-rdf-syntax-ns#"
   xmlns:svg="http://www.w3.org/2000/svg"
   xmlns="http://www.w3.org/2000/svg"
   xmlns:sodipodi="http://sodipodi.sourceforge.net/DTD/sodipodi-0.dtd"
   xmlns:inkscape="http://www.inkscape.org/namespaces/inkscape"
   width="22"
   height="22"
   id="svg2"
   version="1.1"
   inkscape:version="0.91 r13725"
   viewBox="0 0 22 22"
   sodipodi:docname="kstars_hgrid.svg">
  <defs
     id="defs4">
    <style
       type="text/css"
       id="current-color-scheme">
      .ColorScheme-Text {
        color:#4d4d4d;
      }
      .ColorScheme-Background {
        color:#eff0f1;
      }
      .ColorScheme-Highlight {
        color:#3daee9;
      }
      .ColorScheme-ViewText {
        color:#31363b;
      }
      .ColorScheme-ViewBackground {
        color:#fcfcfc;
      }
      .ColorScheme-ViewHover {
        color:#93cee9;
      }
      .ColorScheme-ViewFocus{
        color:#3daee9;
      }
      .ColorScheme-ButtonText {
        color:#31363b;
      }
      .ColorScheme-ButtonBackground {
        color:#eff0f1;
      }
      .ColorScheme-ButtonHover {
        color:#93cee9;
      }
      .ColorScheme-ButtonFocus{
        color:#3daee9;
      }
      </style>
    <clipPath
       clipPathUnits="userSpaceOnUse"
       id="clipPath3979">
      <rect
         style="fill:#ffffff"
         id="rect3981"
         width="64"
         height="64"
         x="0.090115756"
         y="-0.090114839"
         clip-path="none" />
    </clipPath>
  </defs>
  <sodipodi:namedview
     id="base"
     pagecolor="#ffffff"
     bordercolor="#666666"
     borderopacity="1.0"
     inkscape:pageopacity="0.0"
     inkscape:pageshadow="2"
     inkscape:zoom="16"
     inkscape:cx="-7.240691"
     inkscape:cy="9.099579"
     inkscape:document-units="px"
     inkscape:current-layer="layer1"
     showgrid="false"
     inkscape:showpageshadow="false"
     units="px"
     inkscape:window-width="1600"
     inkscape:window-height="847"
     inkscape:window-x="0"
     inkscape:window-y="30"
     inkscape:window-maximized="1"
     inkscape:object-nodes="true"
     inkscape:snap-bbox="true"
     showguides="false">
    <inkscape:grid
       type="xygrid"
       id="grid4120" />
    <sodipodi:guide
       position="2,20.000017"
       orientation="18,0"
       id="guide4126" />
    <sodipodi:guide
       position="2,2.0000174"
       orientation="0,18"
       id="guide4128" />
    <sodipodi:guide
       position="20,2.0000174"
       orientation="-18,0"
       id="guide4130" />
    <sodipodi:guide
       position="20,20.000017"
       orientation="0,-18"
       id="guide4132" />
    <sodipodi:guide
       position="3,19.000017"
       orientation="16,0"
       id="guide4134" />
    <sodipodi:guide
       position="3,3.0000174"
       orientation="0,16"
       id="guide4136" />
    <sodipodi:guide
       position="19,3.0000174"
       orientation="-16,0"
       id="guide4138" />
    <sodipodi:guide
       position="19,19.000017"
       orientation="0,-16"
       id="guide4140" />
    <sodipodi:guide
       position="19,13.000017"
       orientation="-6,0"
       id="guide4199" />
    <sodipodi:guide
       position="19,19.000017"
       orientation="0,-6.0000172"
       id="guide4201" />
  </sodipodi:namedview>
  <metadata
     id="metadata7">
    <rdf:RDF>
      <cc:Work
         rdf:about="">
        <dc:format>image/svg+xml</dc:format>
        <dc:type
           rdf:resource="http://purl.org/dc/dcmitype/StillImage" />
        <dc:title></dc:title>
      </cc:Work>
    </rdf:RDF>
  </metadata>
  <g
     inkscape:label="Capa 1"
     inkscape:groupmode="layer"
     id="layer1"
     transform="translate(0,-1030.3622)">
    <path
       style="fill:#ffffff;fill-opacity:1;stroke:none;opacity:0.72"
       clip-path="url(#clipPath3979)"
       d="M 7.0292969 3 L 6.3261719 4.8085938 C 5.1833461 4.464661 4.0671267 4.0048523 3 3.4238281 L 3 4.8125 C 3.9327177 5.2774969 4.8919014 5.6700934 5.875 5.9707031 L 4.3808594 9.8164062 C 3.9115799 9.6023655 3.4530817 9.357457 3 9.0996094 L 3 10.507812 C 3.3087318 10.666895 3.6167933 10.828833 3.9316406 10.970703 L 3 13.369141 L 3 16.787109 L 3.0546875 16.646484 C 5.3614556 17.771916 7.8503815 18.391049 10.361328 18.513672 L 10.363281 19 L 11.599609 19 L 11.599609 18.535156 C 14.129441 18.492831 16.651088 17.948264 19 16.890625 L 19 13.1875 L 18.308594 11.40625 C 18.542951 11.317482 18.768474 11.201572 19 11.103516 L 19 9.7578125 C 18.622576 9.9307686 18.245536 10.103756 17.859375 10.25 L 16.263672 6.1425781 C 17.194277 5.892995 18.109273 5.5703486 19 5.1777344 L 19 3.8046875 C 17.969815 4.2998874 16.904976 4.698391 15.814453 4.9824219 L 15.042969 3 L 13.705078 3 L 14.583984 5.2558594 C 13.590083 5.4395533 12.583694 5.5360425 11.576172 5.546875 L 11.570312 3 L 10.322266 3 L 10.330078 5.5175781 C 9.3931694 5.461217 8.4588807 5.3351463 7.5390625 5.1289062 L 8.3671875 3 L 7.0292969 3 z M 7.0839844 6.2949219 C 8.1534529 6.5452015 9.2404219 6.6951917 10.332031 6.7558594 L 10.34375 11.341797 C 8.70767 11.219971 7.0855765 10.87057 5.5292969 10.291016 L 7.0839844 6.2949219 z M 15.041016 6.4296875 L 16.683594 10.648438 C 15.022883 11.145329 13.305224 11.397074 11.585938 11.390625 L 11.578125 6.7851562 C 12.739095 6.773051 13.897985 6.6556666 15.041016 6.4296875 z M 5.0800781 11.445312 C 6.7821389 12.079481 8.5571247 12.456795 10.347656 12.580078 L 10.359375 17.275391 C 8.0026295 17.150863 5.670575 16.550685 3.5097656 15.478516 L 5.0800781 11.445312 z M 17.134766 11.804688 L 18.646484 15.683594 C 16.41318 16.718098 14.009489 17.25674 11.595703 17.298828 L 11.587891 12.626953 C 13.459336 12.632582 15.329492 12.35472 17.134766 11.804688 z "
       transform="translate(0,1030.3622)"
       id="path3368" />
  </g>
</svg>
