<?xml version="1.0" encoding="UTF-8" standalone="no"?>
<!-- Generator: Adobe Illustrator 16.0.0, SVG Export Plug-In . SVG Version: 6.00 Build 0)  -->

<svg
   xmlns:dc="http://purl.org/dc/elements/1.1/"
   xmlns:cc="http://creativecommons.org/ns#"
   xmlns:rdf="http://www.w3.org/1999/02/22-rdf-syntax-ns#"
   xmlns:svg="http://www.w3.org/2000/svg"
   xmlns="http://www.w3.org/2000/svg"
   xmlns:sodipodi="http://sodipodi.sourceforge.net/DTD/sodipodi-0.dtd"
   xmlns:inkscape="http://www.inkscape.org/namespaces/inkscape"
   version="1.1"
   id="Capa_1"
   x="0px"
   y="0px"
   width="48"
   height="48"
   viewBox="0 0 47.999999 47.999999"
   xml:space="preserve"
   inkscape:version="0.91 r"
   sodipodi:docname="chess.svg"><metadata
     id="metadata43"><rdf:RDF><cc:Work
         rdf:about=""><dc:format>image/svg+xml</dc:format><dc:type
           rdf:resource="http://purl.org/dc/dcmitype/StillImage" /><dc:title></dc:title></cc:Work></rdf:RDF></metadata><defs
     id="defs41" /><sodipodi:namedview
     pagecolor="#ffffff"
     bordercolor="#666666"
     borderopacity="1"
     objecttolerance="10"
     gridtolerance="10"
     guidetolerance="10"
     inkscape:pageopacity="0"
     inkscape:pageshadow="2"
     inkscape:window-width="1600"
     inkscape:window-height="848"
     id="namedview39"
     showgrid="false"
     inkscape:zoom="1"
     inkscape:cx="23.930536"
     inkscape:cy="25.377425"
     inkscape:window-x="0"
     inkscape:window-y="26"
     inkscape:window-maximized="1"
     inkscape:current-layer="Capa_1" /><g
     id="g9"
     transform="translate(0,11.882999)" /><g
     id="g11"
     transform="translate(0,11.882999)" /><g
     id="g13"
     transform="translate(0,11.882999)" /><g
     id="g15"
     transform="translate(0,11.882999)" /><g
     id="g17"
     transform="translate(0,11.882999)" /><g
     id="g19"
     transform="translate(0,11.882999)" /><g
     id="g21"
     transform="translate(0,11.882999)" /><g
     id="g23"
     transform="translate(0,11.882999)" /><g
     id="g25"
     transform="translate(0,11.882999)" /><g
     id="g27"
     transform="translate(0,11.882999)" /><g
     id="g29"
     transform="translate(0,11.882999)" /><g
     id="g31"
     transform="translate(0,11.882999)" /><g
     id="g33"
     transform="translate(0,11.882999)" /><g
     id="g35"
     transform="translate(0,11.882999)" /><g
     id="g37"
     transform="translate(0,11.882999)" /><g
     id="g3"
     transform="matrix(1.0890963,0,0,1.1075117,4.289428,4)"
     style="fill:#4d4d4d;fill-opacity:1"><g
       id="g5"
       style="fill:#4d4d4d;fill-opacity:1"><path
         d="M 26.035156 4 C 25.812981 4.1118587 25.55868 4.1956652 25.359375 4.3496094 C 24.973835 4.6486375 24.59915 4.9680639 24.253906 5.3125 C 23.874901 5.6901615 23.482948 5.90435 22.929688 6.0195312 C 21.60099 6.2919791 20.252425 6.5939182 19.009766 7.1210938 C 16.247817 8.2972712 14.419747 10.513061 13.117188 13.177734 C 11.960567 15.546702 11.940452 18.114952 12.035156 20.695312 C 12.230503 26.01781 16.069706 29.904267 17.746094 34 L 18.179688 34 C 17.525833 34 17 34.444786 17 34.998047 L 17 37.001953 C 17 37.555214 17.525833 38 18.179688 38 L 16.542969 38 C 15.687929 38 15 38.668155 15 39.498047 L 15 42.501953 C 15 43.331845 15.687929 44 16.542969 44 L 30.457031 44 C 31.312071 44 32 43.331845 32 42.501953 L 32 39.498047 C 32 38.668155 31.312071 38 30.457031 38 L 28.820312 38 C 29.474167 38 30 37.555214 30 37.001953 L 30 34.998047 C 30 34.444786 29.474167 34 28.820312 34 L 29.001953 34 C 29.425612 33.602403 29.831068 32.888879 30.208984 32.482422 C 31.922133 30.648382 32.227753 28.04472 31.025391 25.816406 C 30.437279 24.727722 29.610298 23.845167 28.65625 23.089844 C 27.582401 22.240382 26.472323 21.438841 25.388672 20.601562 C 25.079369 20.36234 24.805346 20.076618 24.392578 19.701172 C 25.41415 19.919352 26.228514 20.202055 27.050781 20.244141 C 28.469874 20.315021 29.694151 20.790782 30.830078 21.626953 C 31.268984 21.950347 31.778915 22.209255 32.292969 22.388672 C 32.960585 22.621249 33.292797 22.455096 33.691406 21.84375 C 33.795959 21.683161 33.858788 21.496691 33.958984 21.285156 C 34.749668 21.296231 35.184524 20.833568 35.402344 20.09375 C 35.476402 19.841237 35.601875 19.607196 35.693359 19.361328 C 36.30761 17.713351 35.991766 16.253845 34.814453 14.982422 C 34.550892 14.691146 34.238432 14.449015 33.962891 14.169922 C 33.044782 13.241827 32.1218 12.319386 31.226562 11.369141 C 30.577461 10.678053 29.991573 9.9257841 29.335938 9.2402344 C 29.011387 8.9024433 28.737322 8.5643004 28.585938 8.1113281 C 28.358316 7.4324235 27.929604 6.9099369 27.306641 6.5566406 C 27.085554 6.4314918 26.874941 6.2857467 26.714844 6.1816406 C 26.457817 5.4241026 27.06653 4.47623 26.035156 4 z "
         transform="matrix(0.91819245,0,0,0.902925,-3.9385204,-3.6117)"
         id="path7"
         style="fill:#4d4d4d;fill-opacity:1" /></g></g><g
     transform="matrix(1.0890963,0,0,1.1075117,4.289428,4)"
     id="g4243"
     style="fill:#ffffff;fill-opacity:1;opacity:0.2"><g
       id="g4245"
       style="fill:#ffffff;fill-opacity:1"><path
         style="fill:#ffffff;fill-opacity:1"
         d="M 26.035156 4 C 25.812981 4.1118587 25.55868 4.1956652 25.359375 4.3496094 C 24.973835 4.6486375 24.59915 4.9680639 24.253906 5.3125 C 23.874901 5.6901615 23.482947 5.90435 22.929688 6.0195312 C 21.60099 6.2919792 20.252425 6.5939181 19.009766 7.1210938 C 16.247817 8.2972712 14.419746 10.513061 13.117188 13.177734 C 12.153725 15.151079 11.990465 17.264534 12.013672 19.40625 C 12.058316 17.608512 12.303905 15.843483 13.117188 14.177734 C 14.419746 11.513061 16.247817 9.2972712 19.009766 8.1210938 C 20.252425 7.5939181 21.60099 7.2919792 22.929688 7.0195312 C 23.482947 6.90435 23.874901 6.6901615 24.253906 6.3125 C 24.59915 5.9680639 24.973835 5.6486375 25.359375 5.3496094 C 25.55868 5.1956652 25.812981 5.1118587 26.035156 5 C 26.499662 5.2144823 26.62622 5.5257511 26.654297 5.8710938 C 26.592739 5.1806 26.9293 4.4128647 26.035156 4 z M 26.658203 5.90625 C 26.683401 6.3186501 26.577537 6.7769555 26.714844 7.1816406 C 26.874941 7.2857467 27.085554 7.4314918 27.306641 7.5566406 C 27.929604 7.9099369 28.358316 8.4324235 28.585938 9.1113281 C 28.737321 9.5643004 29.011387 9.9024433 29.335938 10.240234 C 29.991572 10.925784 30.577462 11.678053 31.226562 12.369141 C 32.1218 13.319386 33.044782 14.241827 33.962891 15.169922 C 34.238432 15.449015 34.550892 15.691146 34.814453 15.982422 C 35.472037 16.692571 35.850871 17.463445 35.958984 18.291016 C 36.117602 17.074681 35.729957 15.971108 34.814453 14.982422 C 34.550892 14.691146 34.238432 14.449015 33.962891 14.169922 C 33.044782 13.241827 32.1218 12.319386 31.226562 11.369141 C 30.577462 10.678053 29.991572 9.9257841 29.335938 9.2402344 C 29.011387 8.9024433 28.737321 8.5643004 28.585938 8.1113281 C 28.358316 7.4324235 27.929604 6.9099369 27.306641 6.5566406 C 27.085554 6.4314918 26.874941 6.2857467 26.714844 6.1816406 C 26.684455 6.0920751 26.668529 6.0000428 26.658203 5.90625 z M 24.392578 20.701172 C 24.805346 21.076618 25.079369 21.36234 25.388672 21.601562 C 26.472323 22.438842 27.582401 23.240382 28.65625 24.089844 C 29.610298 24.845167 30.437279 25.727722 31.025391 26.816406 C 31.430285 27.566788 31.650077 28.360556 31.716797 29.152344 C 31.822385 28.037811 31.601748 26.884558 31.025391 25.816406 C 30.437279 24.727722 29.610298 23.845167 28.65625 23.089844 C 27.791882 22.406091 26.904028 21.753176 26.025391 21.087891 C 25.522681 20.976909 24.995388 20.829916 24.392578 20.701172 z M 17.398438 34.259766 C 17.157152 34.442212 17 34.701213 17 34.998047 L 17 35.998047 C 17 35.444786 17.525833 35 18.179688 35 L 17.746094 35 C 17.644678 34.752221 17.514399 34.506377 17.398438 34.259766 z M 29.607422 34.263672 C 29.410524 34.535633 29.208596 34.806069 29.001953 35 L 28.820312 35 C 29.474167 35 30 35.444786 30 35.998047 L 30 34.998047 C 30 34.703466 29.845518 34.445983 29.607422 34.263672 z M 16.542969 38 C 15.687929 38 15 38.668155 15 39.498047 L 15 40.498047 C 15 39.668155 15.687929 39 16.542969 39 L 18.179688 39 C 17.525833 39 17 38.555214 17 38.001953 L 17 38 L 16.542969 38 z M 30 38 L 30 38.001953 C 30 38.555214 29.474167 39 28.820312 39 L 30.457031 39 C 31.312071 39 32 39.668155 32 40.498047 L 32 39.498047 C 32 38.668155 31.312071 38 30.457031 38 L 30 38 z "
         transform="matrix(0.91819245,0,0,0.902925,-3.9385204,-3.6117)"
         id="path4247" /></g></g><g
     style="fill:#7d7d7d;fill-opacity:1"
     id="g4249"
     transform="matrix(1.0890963,0,0,1.1075117,4.289428,4.9999999)"><g
       style="fill:#7d7d7d;fill-opacity:1"
       id="g4251" /></g><g
     style="fill:#000000;fill-opacity:1;opacity:0.3"
     transform="matrix(1.0890963,0,0,1.1075117,4.289428,4)"
     id="g4256"><g
       style="fill:#000000;fill-opacity:1"
       id="g4258"><path
         style="fill:#000000;fill-opacity:1"
         d="M 26.654297 4.8710938 C 26.655349 4.8829004 26.656908 4.8944905 26.658203 4.90625 C 26.657476 4.8943511 26.655258 4.8829126 26.654297 4.8710938 z M 35.958984 17.291016 C 35.913624 17.638854 35.829956 17.994854 35.693359 18.361328 C 35.601875 18.607196 35.476404 18.841237 35.402344 19.09375 C 35.184524 19.833568 34.749668 20.296226 33.958984 20.285156 C 33.858788 20.496691 33.795959 20.683161 33.691406 20.84375 C 33.292797 21.455092 32.960585 21.621249 32.292969 21.388672 C 31.778915 21.209255 31.268984 20.950347 30.830078 20.626953 C 29.694151 19.790782 28.469874 19.315021 27.050781 19.244141 C 26.228514 19.202055 25.41415 18.919352 24.392578 18.701172 C 24.805346 19.076618 25.079369 19.36234 25.388672 19.601562 C 25.600065 19.764895 25.812451 19.926657 26.025391 20.087891 C 26.374615 20.164988 26.713718 20.226889 27.050781 20.244141 C 28.469874 20.315021 29.694151 20.790782 30.830078 21.626953 C 31.268984 21.950347 31.778915 22.209255 32.292969 22.388672 C 32.960585 22.621249 33.292797 22.455096 33.691406 21.84375 C 33.795959 21.683161 33.858788 21.496691 33.958984 21.285156 C 34.749668 21.296231 35.184524 20.833568 35.402344 20.09375 C 35.476402 19.841237 35.601875 19.607196 35.693359 19.361328 C 35.964523 18.633823 36.044433 17.945095 35.958984 17.291016 z M 12.013672 18.40625 C 11.994825 19.16519 12.007044 19.929343 12.035156 20.695312 C 12.218685 25.695817 15.597576 29.429943 17.398438 33.259766 C 17.606878 33.102155 17.876637 33 18.179688 33 L 17.746094 33 C 16.069706 28.904267 12.230503 25.017811 12.035156 19.695312 C 12.01934 19.264386 12.018324 18.835629 12.013672 18.40625 z M 31.716797 28.152344 C 31.602114 29.362882 31.100928 30.527537 30.208984 31.482422 C 29.831068 31.888879 29.425612 32.602403 29.001953 33 L 28.820312 33 C 29.126026 33 29.398342 33.103579 29.607422 33.263672 C 29.814204 32.978059 30.0154 32.690626 30.208984 32.482422 C 31.345232 31.265993 31.848207 29.711827 31.716797 28.152344 z M 17 36.001953 L 17 37 L 18.179688 37 C 17.525833 37 17 36.555214 17 36.001953 z M 30 36.001953 C 30 36.555214 29.474167 37 28.820312 37 L 30 37 L 30 36.001953 z M 15 41.501953 L 15 42.501953 C 15 43.331845 15.687929 44 16.542969 44 L 30.457031 44 C 31.312071 44 32 43.331845 32 42.501953 L 32 41.501953 C 32 42.331845 31.312071 43 30.457031 43 L 16.542969 43 C 15.687929 43 15 42.331845 15 41.501953 z "
         transform="matrix(0.91819245,0,0,0.902925,-3.9385204,-3.6117)"
         id="path4260" /></g></g><g
     id="g4262"
     transform="matrix(1.0890963,0,0,1.1075117,4.289428,2.9999999)"
     style="fill:#666666;fill-opacity:1"><g
       id="g4264"
       style="fill:#666666;fill-opacity:1" /></g><text
     style="font-size:12.66600037px;font-family:'Bitstream Vera Sans';opacity:0.8;fill:#000000"
     id="text4087-2-6-5"
     font-size="12.666px"
     xml:space="preserve"
     y="-1.3163369"
     x="822.65692"><tspan
       id="tspan4089-7-2-9"
       y="-1.3163369"
       x="822.65692" /></text>
<text
     style="font-size:12.66600037px;font-family:'Bitstream Vera Sans';opacity:0.8;fill:#000000"
     id="text4087-2-6-5-5"
     font-size="12.666px"
     xml:space="preserve"
     y="-42.058044"
     x="846.61786"><tspan
       id="tspan4089-7-2-9-6"
       y="-42.058044"
       x="846.61786" /></text>
<text
     style="font-size:12.66600037px;font-family:'Bitstream Vera Sans';opacity:0.8;fill:#000000"
     id="text4087-2-6-5-2"
     font-size="12.666px"
     xml:space="preserve"
     y="-72.136185"
     x="-623.94049"><tspan
       id="tspan4089-7-2-9-2"
       y="-72.136185"
       x="-623.94049" /></text>
<text
     style="font-size:12.66600037px;font-family:'Bitstream Vera Sans';opacity:0.8;fill:#000000"
     id="text4087-2-6-5-59"
     font-size="12.666px"
     xml:space="preserve"
     y="673.41724"
     x="-2447.6265"><tspan
       id="tspan4089-7-2-9-4"
       y="673.41724"
       x="-2447.6265" /></text>
<text
     style="font-size:12.66600037px;font-family:'Bitstream Vera Sans';opacity:0.8;fill:#000000"
     id="text4087-2-6-5-1"
     font-size="12.666px"
     xml:space="preserve"
     y="-457.45715"
     x="-509.44937"><tspan
       id="tspan4089-7-2-9-7"
       y="-457.45715"
       x="-509.44937" /></text>
<text
     style="font-size:12.66600037px;font-family:'Bitstream Vera Sans';opacity:0.8;fill:#000000"
     id="text4087-2-6-5-7"
     font-size="12.666px"
     xml:space="preserve"
     y="-870.92731"
     x="298.15277"><tspan
       id="tspan4089-7-2-9-1"
       y="-870.92731"
       x="298.15277" /></text>
<text
     style="font-size:12.66600037px;font-family:'Bitstream Vera Sans';opacity:0.8;fill:#000000"
     id="text4087-2-6-5-5-3"
     font-size="12.666px"
     xml:space="preserve"
     y="-911.66901"
     x="322.11371"><tspan
       id="tspan4089-7-2-9-6-5"
       y="-911.66901"
       x="322.11371" /></text>
<text
     style="font-size:12.66600037px;font-family:'Bitstream Vera Sans';opacity:0.8;fill:#000000"
     id="text4087-2-6-5-3"
     font-size="12.666px"
     xml:space="preserve"
     y="-918.87891"
     x="-1169.3495"><tspan
       id="tspan4089-7-2-9-18"
       y="-918.87891"
       x="-1169.3495" /></text>
<text
     style="font-size:12.66600037px;font-family:'Bitstream Vera Sans';opacity:0.8;fill:#000000"
     id="text4087-2-6-5-4"
     font-size="12.666px"
     xml:space="preserve"
     y="-1192.113"
     x="291.1933"><tspan
       id="tspan4089-7-2-9-9"
       y="-1192.113"
       x="291.1933" /></text>
<text
     style="font-size:12.66600037px;font-family:'Bitstream Vera Sans';opacity:0.8;fill:#000000"
     id="text4087-2-6-5-7-1"
     font-size="12.666px"
     xml:space="preserve"
     y="-565.42169"
     x="1777.3168"><tspan
       id="tspan4089-7-2-9-1-8"
       y="-565.42169"
       x="1777.3168" /></text>
<text
     style="font-size:12.66600037px;font-family:'Bitstream Vera Sans';opacity:0.8;fill:#000000"
     id="text4087-2-6-5-5-5"
     font-size="12.666px"
     xml:space="preserve"
     y="-606.16345"
     x="1801.2776"><tspan
       id="tspan4089-7-2-9-6-9"
       y="-606.16345"
       x="1801.2776" /></text>
<text
     style="font-size:12.66600037px;font-family:'Bitstream Vera Sans';opacity:0.8;fill:#000000"
     id="text4087-2-6-5-75"
     font-size="12.666px"
     xml:space="preserve"
     y="-613.37335"
     x="309.81445"><tspan
       id="tspan4089-7-2-9-3"
       y="-613.37335"
       x="309.81445" /></text>
<text
     style="font-size:12.66600037px;font-family:'Bitstream Vera Sans';opacity:0.8;fill:#000000"
     id="text4087-2-6-5-4-8"
     font-size="12.666px"
     xml:space="preserve"
     y="-886.60736"
     x="1770.3573"><tspan
       id="tspan4089-7-2-9-9-8"
       y="-886.60736"
       x="1770.3573" /></text>
<text
     style="font-size:12.66600037px;font-family:'Bitstream Vera Sans';opacity:0.8;fill:#000000"
     id="text4087-2-6-5-45"
     font-size="12.666px"
     xml:space="preserve"
     y="-661.46466"
     x="-628.00189"><tspan
       id="tspan4089-7-2-9-75"
       y="-661.46466"
       x="-628.00189" /></text>
<text
     style="font-size:12.66600037px;font-family:'Bitstream Vera Sans';opacity:0.8;fill:#000000"
     id="text4087-2-6-5-59-7"
     font-size="12.666px"
     xml:space="preserve"
     y="84.088921"
     x="-2451.6875"><tspan
       id="tspan4089-7-2-9-4-0"
       y="84.088921"
       x="-2451.6875" /></text>
<text
     style="font-size:12.66600037px;font-family:'Bitstream Vera Sans';opacity:0.8;fill:#000000"
     id="text4087-2-6-5-8"
     font-size="12.666px"
     xml:space="preserve"
     y="176.96106"
     x="-736.93213"><tspan
       id="tspan4089-7-2-9-19"
       y="176.96106"
       x="-736.93213" /></text>
<text
     style="font-size:12.66600037px;font-family:'Bitstream Vera Sans';opacity:0.8;fill:#000000"
     id="text4087-2-6-5-7-5"
     font-size="12.666px"
     xml:space="preserve"
     y="-2.2210858"
     x="372.09222"><tspan
       id="tspan4089-7-2-9-1-2"
       y="-2.2210858"
       x="372.09222" /></text>
<text
     style="font-size:12.66600037px;font-family:'Bitstream Vera Sans';opacity:0.8;fill:#000000"
     id="text4087-2-6-5-5-0"
     font-size="12.666px"
     xml:space="preserve"
     y="-42.962791"
     x="396.05316"><tspan
       id="tspan4089-7-2-9-6-2"
       y="-42.962791"
       x="396.05316" /></text>
<text
     style="font-size:12.66600037px;font-family:'Bitstream Vera Sans';opacity:0.8;fill:#000000"
     id="text4087-2-6-5-26"
     font-size="12.666px"
     xml:space="preserve"
     y="-50.172764"
     x="-1095.41"><tspan
       id="tspan4089-7-2-9-90"
       y="-50.172764"
       x="-1095.41" /></text>
<text
     style="font-size:12.66600037px;font-family:'Bitstream Vera Sans';opacity:0.8;fill:#000000"
     id="text4087-2-6-5-4-3"
     font-size="12.666px"
     xml:space="preserve"
     y="-323.40683"
     x="365.13275"><tspan
       id="tspan4089-7-2-9-9-5"
       y="-323.40683"
       x="365.13275" /></text>
<text
     style="font-size:12.66600037px;font-family:'Bitstream Vera Sans';opacity:0.8;fill:#000000"
     id="text4087-2-6-5-55"
     font-size="12.666px"
     xml:space="preserve"
     y="-52.887009"
     x="-662.60187"><tspan
       id="tspan4089-7-2-9-32"
       y="-52.887009"
       x="-662.60187" /></text>
<text
     style="font-size:12.66600037px;font-family:'Bitstream Vera Sans';opacity:0.8;fill:#000000"
     id="text4087-2-6-5-59-9"
     font-size="12.666px"
     xml:space="preserve"
     y="692.66644"
     x="-2486.2878"><tspan
       id="tspan4089-7-2-9-4-1"
       y="692.66644"
       x="-2486.2878" /></text>
<text
     style="font-size:12.66600037px;font-family:'Bitstream Vera Sans';opacity:0.8;fill:#000000"
     id="text4087-2-6-5-1-8"
     font-size="12.666px"
     xml:space="preserve"
     y="-914.41754"
     x="-511.50879"><tspan
       id="tspan4089-7-2-9-7-8"
       y="-914.41754"
       x="-511.50879" /></text>
<text
     style="font-size:12.66600037px;font-family:'Bitstream Vera Sans';opacity:0.8;fill:#000000"
     id="text4087-2-6-5-7-8"
     font-size="12.666px"
     xml:space="preserve"
     y="-1327.8877"
     x="296.09335"><tspan
       id="tspan4089-7-2-9-1-9"
       y="-1327.8877"
       x="296.09335" /></text>
<text
     style="font-size:12.66600037px;font-family:'Bitstream Vera Sans';opacity:0.8;fill:#000000"
     id="text4087-2-6-5-5-52"
     font-size="12.666px"
     xml:space="preserve"
     y="-1368.6294"
     x="320.05426"><tspan
       id="tspan4089-7-2-9-6-4"
       y="-1368.6294"
       x="320.05426" /></text>
<text
     style="font-size:12.66600037px;font-family:'Bitstream Vera Sans';opacity:0.8;fill:#000000"
     id="text4087-2-6-5-3-4"
     font-size="12.666px"
     xml:space="preserve"
     y="-1375.8394"
     x="-1171.4089"><tspan
       id="tspan4089-7-2-9-18-3"
       y="-1375.8394"
       x="-1171.4089" /></text>
<text
     style="font-size:12.66600037px;font-family:'Bitstream Vera Sans';opacity:0.8;fill:#000000"
     id="text4087-2-6-5-4-7"
     font-size="12.666px"
     xml:space="preserve"
     y="-1649.0735"
     x="289.13385"><tspan
       id="tspan4089-7-2-9-9-54"
       y="-1649.0735"
       x="289.13385" /></text>
<text
     style="font-size:12.66600037px;font-family:'Bitstream Vera Sans';opacity:0.8;fill:#000000"
     id="text4087-2-6-5-7-1-2"
     font-size="12.666px"
     xml:space="preserve"
     y="-1022.3823"
     x="1775.2572"><tspan
       id="tspan4089-7-2-9-1-8-0"
       y="-1022.3823"
       x="1775.2572" /></text>
<text
     style="font-size:12.66600037px;font-family:'Bitstream Vera Sans';opacity:0.8;fill:#000000"
     id="text4087-2-6-5-5-5-6"
     font-size="12.666px"
     xml:space="preserve"
     y="-1063.1238"
     x="1799.218"><tspan
       id="tspan4089-7-2-9-6-9-8"
       y="-1063.1238"
       x="1799.218" /></text>
<text
     style="font-size:12.66600037px;font-family:'Bitstream Vera Sans';opacity:0.8;fill:#000000"
     id="text4087-2-6-5-75-4"
     font-size="12.666px"
     xml:space="preserve"
     y="-1070.3337"
     x="307.755"><tspan
       id="tspan4089-7-2-9-3-9"
       y="-1070.3337"
       x="307.755" /></text>
<text
     style="font-size:12.66600037px;font-family:'Bitstream Vera Sans';opacity:0.8;fill:#000000"
     id="text4087-2-6-5-4-8-1"
     font-size="12.666px"
     xml:space="preserve"
     y="-1343.5679"
     x="1768.2977"><tspan
       id="tspan4089-7-2-9-9-8-8"
       y="-1343.5679"
       x="1768.2977" /></text>
<text
     style="font-size:12.66600037px;font-family:'Bitstream Vera Sans';opacity:0.8;fill:#000000"
     id="text4087-2-6-5-45-0"
     font-size="12.666px"
     xml:space="preserve"
     y="-1118.425"
     x="-630.06134"><tspan
       id="tspan4089-7-2-9-75-2"
       y="-1118.425"
       x="-630.06134" /></text>
<text
     style="font-size:12.66600037px;font-family:'Bitstream Vera Sans';opacity:0.8;fill:#000000"
     id="text4087-2-6-5-59-5"
     font-size="12.666px"
     xml:space="preserve"
     y="-372.87155"
     x="-2453.7471"><tspan
       id="tspan4089-7-2-9-4-00"
       y="-372.87155"
       x="-2453.7471" /></text>
<text
     style="font-size:12.66600037px;font-family:'Bitstream Vera Sans';opacity:0.8;fill:#000000"
     id="text4087-2-6-5-264"
     font-size="12.666px"
     xml:space="preserve"
     y="-279.99939"
     x="-738.99158"><tspan
       id="tspan4089-7-2-9-8"
       y="-279.99939"
       x="-738.99158" /></text>
<text
     style="font-size:12.66600037px;font-family:'Bitstream Vera Sans';opacity:0.8;fill:#000000"
     id="text4087-2-6-5-42"
     font-size="12.666px"
     xml:space="preserve"
     y="-39.085217"
     x="101.02299"><tspan
       id="tspan4089-7-2-9-93"
       y="-39.085217"
       x="101.02299" /></text>
<text
     style="font-size:12.66600037px;font-family:'Bitstream Vera Sans';opacity:0.8;fill:#000000"
     id="text4087-2-6-5-5-05"
     font-size="12.666px"
     xml:space="preserve"
     y="-79.826935"
     x="124.98392"><tspan
       id="tspan4089-7-2-9-6-49"
       y="-79.826935"
       x="124.98392" /></text>
<text
     style="font-size:12.66600037px;font-family:'Bitstream Vera Sans';opacity:0.8;fill:#000000"
     id="text4087-2-6-5-1-4"
     font-size="12.666px"
     xml:space="preserve"
     y="-273.85556"
     x="-1144.8328"><tspan
       id="tspan4089-7-2-9-7-7"
       y="-273.85556"
       x="-1144.8328" /></text>
<text
     style="font-size:12.66600037px;font-family:'Bitstream Vera Sans';opacity:0.8;fill:#000000"
     id="text4087-2-6-5-7-56"
     font-size="12.666px"
     xml:space="preserve"
     y="-687.32574"
     x="-337.23071"><tspan
       id="tspan4089-7-2-9-1-1"
       y="-687.32574"
       x="-337.23071" /></text>
<text
     style="font-size:12.66600037px;font-family:'Bitstream Vera Sans';opacity:0.8;fill:#000000"
     id="text4087-2-6-5-5-8"
     font-size="12.666px"
     xml:space="preserve"
     y="-728.06744"
     x="-313.26978"><tspan
       id="tspan4089-7-2-9-6-7"
       y="-728.06744"
       x="-313.26978" /></text>
<text
     style="font-size:12.66600037px;font-family:'Bitstream Vera Sans';opacity:0.8;fill:#000000"
     id="text4087-2-6-5-3-42"
     font-size="12.666px"
     xml:space="preserve"
     y="-735.27734"
     x="-1804.7329"><tspan
       id="tspan4089-7-2-9-18-39"
       y="-735.27734"
       x="-1804.7329" /></text>
<text
     style="font-size:12.66600037px;font-family:'Bitstream Vera Sans';opacity:0.8;fill:#000000"
     id="text4087-2-6-5-4-4"
     font-size="12.666px"
     xml:space="preserve"
     y="-1008.5115"
     x="-344.19016"><tspan
       id="tspan4089-7-2-9-9-3"
       y="-1008.5115"
       x="-344.19016" /></text>
<text
     style="font-size:12.66600037px;font-family:'Bitstream Vera Sans';opacity:0.8;fill:#000000"
     id="text4087-2-6-5-7-1-0"
     font-size="12.666px"
     xml:space="preserve"
     y="-381.82007"
     x="1141.9332"><tspan
       id="tspan4089-7-2-9-1-8-5"
       y="-381.82007"
       x="1141.9332" /></text>
<text
     style="font-size:12.66600037px;font-family:'Bitstream Vera Sans';opacity:0.8;fill:#000000"
     id="text4087-2-6-5-5-5-5"
     font-size="12.666px"
     xml:space="preserve"
     y="-422.5618"
     x="1165.894"><tspan
       id="tspan4089-7-2-9-6-9-2"
       y="-422.5618"
       x="1165.894" /></text>
<text
     style="font-size:12.66600037px;font-family:'Bitstream Vera Sans';opacity:0.8;fill:#000000"
     id="text4087-2-6-5-75-9"
     font-size="12.666px"
     xml:space="preserve"
     y="-429.77176"
     x="-325.56903"><tspan
       id="tspan4089-7-2-9-3-1"
       y="-429.77176"
       x="-325.56903" /></text>
<text
     style="font-size:12.66600037px;font-family:'Bitstream Vera Sans';opacity:0.8;fill:#000000"
     id="text4087-2-6-5-4-8-18"
     font-size="12.666px"
     xml:space="preserve"
     y="-703.00586"
     x="1134.9738"><tspan
       id="tspan4089-7-2-9-9-8-4"
       y="-703.00586"
       x="1134.9738" /></text>
<text
     style="font-size:12.66600037px;font-family:'Bitstream Vera Sans';opacity:0.8;fill:#000000"
     id="text4087-2-6-5-45-3"
     font-size="12.666px"
     xml:space="preserve"
     y="-477.86304"
     x="-1263.3854"><tspan
       id="tspan4089-7-2-9-75-7"
       y="-477.86304"
       x="-1263.3854" /></text>
<text
     style="font-size:12.66600037px;font-family:'Bitstream Vera Sans';opacity:0.8;fill:#000000"
     id="text4087-2-6-5-59-8"
     font-size="12.666px"
     xml:space="preserve"
     y="267.69052"
     x="-3087.071"><tspan
       id="tspan4089-7-2-9-4-2"
       y="267.69052"
       x="-3087.071" /></text>
<g
     id="layer4-0"
     transform="matrix(0.90475,0,0,0.90475,-771.31931,-688.41894)"><text
       style="font-size:14px;font-family:'Bitstream Vera Sans';opacity:0.8;fill:#000000"
       id="text4087-2-6-5-20"
       font-size="14px"
       xml:space="preserve"
       y="1159.4154"
       x="-664.2738"><tspan
         id="tspan4089-7-2-9-82"
         y="1159.4154"
         x="-664.2738" /></text>
</g><text
     style="font-size:12.66600037px;font-family:'Bitstream Vera Sans';opacity:0.8;fill:#000000"
     id="text4087-2-6-5-9"
     font-size="12.666px"
     xml:space="preserve"
     y="5.9216504"
     x="822.65692"><tspan
       id="tspan4089-7-2-9-43"
       y="5.9216504"
       x="822.65692" /></text>
<text
     style="font-size:12.66600037px;font-family:'Bitstream Vera Sans';opacity:0.8;fill:#000000"
     id="text4087-2-6-5-5-51"
     font-size="12.666px"
     xml:space="preserve"
     y="-34.820053"
     x="846.61786"><tspan
       id="tspan4089-7-2-9-6-74"
       y="-34.820053"
       x="846.61786" /></text>
<text
     style="font-size:12.66600037px;font-family:'Bitstream Vera Sans';opacity:0.8;fill:#000000"
     id="text4087-2-6-5-2-3"
     font-size="12.666px"
     xml:space="preserve"
     y="-64.898201"
     x="-623.94049"><tspan
       id="tspan4089-7-2-9-2-1"
       y="-64.898201"
       x="-623.94049" /></text>
<text
     style="font-size:12.66600037px;font-family:'Bitstream Vera Sans';opacity:0.8;fill:#000000"
     id="text4087-2-6-5-59-4"
     font-size="12.666px"
     xml:space="preserve"
     y="680.65521"
     x="-2447.6265"><tspan
       id="tspan4089-7-2-9-4-6"
       y="680.65521"
       x="-2447.6265" /></text>
<text
     style="font-size:12.66600037px;font-family:'Bitstream Vera Sans';opacity:0.8;fill:#000000"
     id="text4087-2-6-5-1-9"
     font-size="12.666px"
     xml:space="preserve"
     y="-450.21915"
     x="-509.44937"><tspan
       id="tspan4089-7-2-9-7-4"
       y="-450.21915"
       x="-509.44937" /></text>
<text
     style="font-size:12.66600037px;font-family:'Bitstream Vera Sans';opacity:0.8;fill:#000000"
     id="text4087-2-6-5-7-2"
     font-size="12.666px"
     xml:space="preserve"
     y="-863.68927"
     x="298.15277"><tspan
       id="tspan4089-7-2-9-1-26"
       y="-863.68927"
       x="298.15277" /></text>
<text
     style="font-size:12.66600037px;font-family:'Bitstream Vera Sans';opacity:0.8;fill:#000000"
     id="text4087-2-6-5-5-3-4"
     font-size="12.666px"
     xml:space="preserve"
     y="-904.43103"
     x="322.11371"><tspan
       id="tspan4089-7-2-9-6-5-1"
       y="-904.43103"
       x="322.11371" /></text>
<text
     style="font-size:12.66600037px;font-family:'Bitstream Vera Sans';opacity:0.8;fill:#000000"
     id="text4087-2-6-5-3-2"
     font-size="12.666px"
     xml:space="preserve"
     y="-911.64093"
     x="-1169.3495"><tspan
       id="tspan4089-7-2-9-18-8"
       y="-911.64093"
       x="-1169.3495" /></text>
<text
     style="font-size:12.66600037px;font-family:'Bitstream Vera Sans';opacity:0.8;fill:#000000"
     id="text4087-2-6-5-4-89"
     font-size="12.666px"
     xml:space="preserve"
     y="-1184.875"
     x="291.1933"><tspan
       id="tspan4089-7-2-9-9-2"
       y="-1184.875"
       x="291.1933" /></text>
<text
     style="font-size:12.66600037px;font-family:'Bitstream Vera Sans';opacity:0.8;fill:#000000"
     id="text4087-2-6-5-7-1-8"
     font-size="12.666px"
     xml:space="preserve"
     y="-558.18372"
     x="1777.3168"><tspan
       id="tspan4089-7-2-9-1-8-8"
       y="-558.18372"
       x="1777.3168" /></text>
<text
     style="font-size:12.66600037px;font-family:'Bitstream Vera Sans';opacity:0.8;fill:#000000"
     id="text4087-2-6-5-5-5-8"
     font-size="12.666px"
     xml:space="preserve"
     y="-598.92548"
     x="1801.2776"><tspan
       id="tspan4089-7-2-9-6-9-6"
       y="-598.92548"
       x="1801.2776" /></text>
<text
     style="font-size:12.66600037px;font-family:'Bitstream Vera Sans';opacity:0.8;fill:#000000"
     id="text4087-2-6-5-75-8"
     font-size="12.666px"
     xml:space="preserve"
     y="-606.13538"
     x="309.81445"><tspan
       id="tspan4089-7-2-9-3-3"
       y="-606.13538"
       x="309.81445" /></text>
<text
     style="font-size:12.66600037px;font-family:'Bitstream Vera Sans';opacity:0.8;fill:#000000"
     id="text4087-2-6-5-4-8-8"
     font-size="12.666px"
     xml:space="preserve"
     y="-879.36932"
     x="1770.3573"><tspan
       id="tspan4089-7-2-9-9-8-3"
       y="-879.36932"
       x="1770.3573" /></text>
<text
     style="font-size:12.66600037px;font-family:'Bitstream Vera Sans';opacity:0.8;fill:#000000"
     id="text4087-2-6-5-45-33"
     font-size="12.666px"
     xml:space="preserve"
     y="-654.22668"
     x="-628.00189"><tspan
       id="tspan4089-7-2-9-75-8"
       y="-654.22668"
       x="-628.00189" /></text>
<text
     style="font-size:12.66600037px;font-family:'Bitstream Vera Sans';opacity:0.8;fill:#000000"
     id="text4087-2-6-5-59-7-0"
     font-size="12.666px"
     xml:space="preserve"
     y="91.326912"
     x="-2451.6875"><tspan
       id="tspan4089-7-2-9-4-0-4"
       y="91.326912"
       x="-2451.6875" /></text>
<text
     style="font-size:12.66600037px;font-family:'Bitstream Vera Sans';opacity:0.8;fill:#000000"
     id="text4087-2-6-5-8-7"
     font-size="12.666px"
     xml:space="preserve"
     y="184.19905"
     x="-736.93213"><tspan
       id="tspan4089-7-2-9-19-6"
       y="184.19905"
       x="-736.93213" /></text>
<text
     style="font-size:12.66600037px;font-family:'Bitstream Vera Sans';opacity:0.8;fill:#000000"
     id="text4087-2-6-5-7-5-8"
     font-size="12.666px"
     xml:space="preserve"
     y="5.0169015"
     x="372.09222"><tspan
       id="tspan4089-7-2-9-1-2-9"
       y="5.0169015"
       x="372.09222" /></text>
<text
     style="font-size:12.66600037px;font-family:'Bitstream Vera Sans';opacity:0.8;fill:#000000"
     id="text4087-2-6-5-5-0-0"
     font-size="12.666px"
     xml:space="preserve"
     y="-35.724804"
     x="396.05316"><tspan
       id="tspan4089-7-2-9-6-2-6"
       y="-35.724804"
       x="396.05316" /></text>
<text
     style="font-size:12.66600037px;font-family:'Bitstream Vera Sans';opacity:0.8;fill:#000000"
     id="text4087-2-6-5-26-8"
     font-size="12.666px"
     xml:space="preserve"
     y="-42.934772"
     x="-1095.41"><tspan
       id="tspan4089-7-2-9-90-7"
       y="-42.934772"
       x="-1095.41" /></text>
<text
     style="font-size:12.66600037px;font-family:'Bitstream Vera Sans';opacity:0.8;fill:#000000"
     id="text4087-2-6-5-4-3-9"
     font-size="12.666px"
     xml:space="preserve"
     y="-316.16882"
     x="365.13275"><tspan
       id="tspan4089-7-2-9-9-5-0"
       y="-316.16882"
       x="365.13275" /></text>
<text
     style="font-size:12.66600037px;font-family:'Bitstream Vera Sans';opacity:0.8;fill:#000000"
     id="text4087-2-6-5-55-3"
     font-size="12.666px"
     xml:space="preserve"
     y="-45.649017"
     x="-662.60187"><tspan
       id="tspan4089-7-2-9-32-3"
       y="-45.649017"
       x="-662.60187" /></text>
<text
     style="font-size:12.66600037px;font-family:'Bitstream Vera Sans';opacity:0.8;fill:#000000"
     id="text4087-2-6-5-59-9-3"
     font-size="12.666px"
     xml:space="preserve"
     y="699.90448"
     x="-2486.2878"><tspan
       id="tspan4089-7-2-9-4-1-7"
       y="699.90448"
       x="-2486.2878" /></text>
<text
     style="font-size:12.66600037px;font-family:'Bitstream Vera Sans';opacity:0.8;fill:#000000"
     id="text4087-2-6-5-1-8-3"
     font-size="12.666px"
     xml:space="preserve"
     y="-907.17957"
     x="-511.50879"><tspan
       id="tspan4089-7-2-9-7-8-2"
       y="-907.17957"
       x="-511.50879" /></text>
<text
     style="font-size:12.66600037px;font-family:'Bitstream Vera Sans';opacity:0.8;fill:#000000"
     id="text4087-2-6-5-7-8-6"
     font-size="12.666px"
     xml:space="preserve"
     y="-1320.6497"
     x="296.09335"><tspan
       id="tspan4089-7-2-9-1-9-5"
       y="-1320.6497"
       x="296.09335" /></text>
<text
     style="font-size:12.66600037px;font-family:'Bitstream Vera Sans';opacity:0.8;fill:#000000"
     id="text4087-2-6-5-5-52-2"
     font-size="12.666px"
     xml:space="preserve"
     y="-1361.3915"
     x="320.05426"><tspan
       id="tspan4089-7-2-9-6-4-6"
       y="-1361.3915"
       x="320.05426" /></text>
<text
     style="font-size:12.66600037px;font-family:'Bitstream Vera Sans';opacity:0.8;fill:#000000"
     id="text4087-2-6-5-3-4-5"
     font-size="12.666px"
     xml:space="preserve"
     y="-1368.6013"
     x="-1171.4089"><tspan
       id="tspan4089-7-2-9-18-3-8"
       y="-1368.6013"
       x="-1171.4089" /></text>
<text
     style="font-size:12.66600037px;font-family:'Bitstream Vera Sans';opacity:0.8;fill:#000000"
     id="text4087-2-6-5-4-7-7"
     font-size="12.666px"
     xml:space="preserve"
     y="-1641.8354"
     x="289.13385"><tspan
       id="tspan4089-7-2-9-9-54-9"
       y="-1641.8354"
       x="289.13385" /></text>
<text
     style="font-size:12.66600037px;font-family:'Bitstream Vera Sans';opacity:0.8;fill:#000000"
     id="text4087-2-6-5-7-1-2-6"
     font-size="12.666px"
     xml:space="preserve"
     y="-1015.1443"
     x="1775.2572"><tspan
       id="tspan4089-7-2-9-1-8-0-0"
       y="-1015.1443"
       x="1775.2572" /></text>
<text
     style="font-size:12.66600037px;font-family:'Bitstream Vera Sans';opacity:0.8;fill:#000000"
     id="text4087-2-6-5-5-5-6-4"
     font-size="12.666px"
     xml:space="preserve"
     y="-1055.8859"
     x="1799.218"><tspan
       id="tspan4089-7-2-9-6-9-8-1"
       y="-1055.8859"
       x="1799.218" /></text>
<text
     style="font-size:12.66600037px;font-family:'Bitstream Vera Sans';opacity:0.8;fill:#000000"
     id="text4087-2-6-5-75-4-0"
     font-size="12.666px"
     xml:space="preserve"
     y="-1063.0957"
     x="307.755"><tspan
       id="tspan4089-7-2-9-3-9-4"
       y="-1063.0957"
       x="307.755" /></text>
<text
     style="font-size:12.66600037px;font-family:'Bitstream Vera Sans';opacity:0.8;fill:#000000"
     id="text4087-2-6-5-4-8-1-8"
     font-size="12.666px"
     xml:space="preserve"
     y="-1336.3298"
     x="1768.2977"><tspan
       id="tspan4089-7-2-9-9-8-8-7"
       y="-1336.3298"
       x="1768.2977" /></text>
<text
     style="font-size:12.66600037px;font-family:'Bitstream Vera Sans';opacity:0.8;fill:#000000"
     id="text4087-2-6-5-45-0-0"
     font-size="12.666px"
     xml:space="preserve"
     y="-1111.187"
     x="-630.06134"><tspan
       id="tspan4089-7-2-9-75-2-8"
       y="-1111.187"
       x="-630.06134" /></text>
<text
     style="font-size:12.66600037px;font-family:'Bitstream Vera Sans';opacity:0.8;fill:#000000"
     id="text4087-2-6-5-59-5-6"
     font-size="12.666px"
     xml:space="preserve"
     y="-365.63354"
     x="-2453.7471"><tspan
       id="tspan4089-7-2-9-4-00-2"
       y="-365.63354"
       x="-2453.7471" /></text>
<text
     style="font-size:12.66600037px;font-family:'Bitstream Vera Sans';opacity:0.8;fill:#000000"
     id="text4087-2-6-5-264-4"
     font-size="12.666px"
     xml:space="preserve"
     y="-272.76138"
     x="-738.99158"><tspan
       id="tspan4089-7-2-9-8-7"
       y="-272.76138"
       x="-738.99158" /></text>
<text
     style="font-size:12.66600037px;font-family:'Bitstream Vera Sans';opacity:0.8;fill:#000000"
     id="text4087-2-6-5-42-9"
     font-size="12.666px"
     xml:space="preserve"
     y="-31.847229"
     x="101.02299"><tspan
       id="tspan4089-7-2-9-93-3"
       y="-31.847229"
       x="101.02299" /></text>
<text
     style="font-size:12.66600037px;font-family:'Bitstream Vera Sans';opacity:0.8;fill:#000000"
     id="text4087-2-6-5-5-05-9"
     font-size="12.666px"
     xml:space="preserve"
     y="-72.588951"
     x="124.98392"><tspan
       id="tspan4089-7-2-9-6-49-2"
       y="-72.588951"
       x="124.98392" /></text>
<text
     style="font-size:12.66600037px;font-family:'Bitstream Vera Sans';opacity:0.8;fill:#000000"
     id="text4087-2-6-5-1-4-8"
     font-size="12.666px"
     xml:space="preserve"
     y="-266.61755"
     x="-1144.8328"><tspan
       id="tspan4089-7-2-9-7-7-3"
       y="-266.61755"
       x="-1144.8328" /></text>
<text
     style="font-size:12.66600037px;font-family:'Bitstream Vera Sans';opacity:0.8;fill:#000000"
     id="text4087-2-6-5-7-56-0"
     font-size="12.666px"
     xml:space="preserve"
     y="-680.08777"
     x="-337.23071"><tspan
       id="tspan4089-7-2-9-1-1-1"
       y="-680.08777"
       x="-337.23071" /></text>
<text
     style="font-size:12.66600037px;font-family:'Bitstream Vera Sans';opacity:0.8;fill:#000000"
     id="text4087-2-6-5-5-8-7"
     font-size="12.666px"
     xml:space="preserve"
     y="-720.82947"
     x="-313.26978"><tspan
       id="tspan4089-7-2-9-6-7-8"
       y="-720.82947"
       x="-313.26978" /></text>
<text
     style="font-size:12.66600037px;font-family:'Bitstream Vera Sans';opacity:0.8;fill:#000000"
     id="text4087-2-6-5-3-42-9"
     font-size="12.666px"
     xml:space="preserve"
     y="-728.03943"
     x="-1804.7329"><tspan
       id="tspan4089-7-2-9-18-39-1"
       y="-728.03943"
       x="-1804.7329" /></text>
<text
     style="font-size:12.66600037px;font-family:'Bitstream Vera Sans';opacity:0.8;fill:#000000"
     id="text4087-2-6-5-4-4-5"
     font-size="12.666px"
     xml:space="preserve"
     y="-1001.2734"
     x="-344.19016"><tspan
       id="tspan4089-7-2-9-9-3-4"
       y="-1001.2734"
       x="-344.19016" /></text>
<text
     style="font-size:12.66600037px;font-family:'Bitstream Vera Sans';opacity:0.8;fill:#000000"
     id="text4087-2-6-5-7-1-0-9"
     font-size="12.666px"
     xml:space="preserve"
     y="-374.58209"
     x="1141.9332"><tspan
       id="tspan4089-7-2-9-1-8-5-2"
       y="-374.58209"
       x="1141.9332" /></text>
<text
     style="font-size:12.66600037px;font-family:'Bitstream Vera Sans';opacity:0.8;fill:#000000"
     id="text4087-2-6-5-5-5-5-5"
     font-size="12.666px"
     xml:space="preserve"
     y="-415.32382"
     x="1165.894"><tspan
       id="tspan4089-7-2-9-6-9-2-7"
       y="-415.32382"
       x="1165.894" /></text>
<text
     style="font-size:12.66600037px;font-family:'Bitstream Vera Sans';opacity:0.8;fill:#000000"
     id="text4087-2-6-5-75-9-4"
     font-size="12.666px"
     xml:space="preserve"
     y="-422.53375"
     x="-325.56903"><tspan
       id="tspan4089-7-2-9-3-1-9"
       y="-422.53375"
       x="-325.56903" /></text>
<text
     style="font-size:12.66600037px;font-family:'Bitstream Vera Sans';opacity:0.8;fill:#000000"
     id="text4087-2-6-5-4-8-18-9"
     font-size="12.666px"
     xml:space="preserve"
     y="-695.76788"
     x="1134.9738"><tspan
       id="tspan4089-7-2-9-9-8-4-4"
       y="-695.76788"
       x="1134.9738" /></text>
<text
     style="font-size:12.66600037px;font-family:'Bitstream Vera Sans';opacity:0.8;fill:#000000"
     id="text4087-2-6-5-45-3-5"
     font-size="12.666px"
     xml:space="preserve"
     y="-470.62503"
     x="-1263.3854"><tspan
       id="tspan4089-7-2-9-75-7-9"
       y="-470.62503"
       x="-1263.3854" /></text>
<text
     style="font-size:12.66600037px;font-family:'Bitstream Vera Sans';opacity:0.8;fill:#000000"
     id="text4087-2-6-5-59-8-3"
     font-size="12.666px"
     xml:space="preserve"
     y="274.9285"
     x="-3087.071"><tspan
       id="tspan4089-7-2-9-4-2-5"
       y="274.9285"
       x="-3087.071" /></text>
<g
     id="layer4-0-7"
     transform="matrix(0.90475,0,0,0.90475,-771.31931,-681.17894)"><text
       style="font-size:14px;font-family:'Bitstream Vera Sans';opacity:0.8;fill:#000000"
       id="text4087-2-6-5-20-0"
       font-size="14px"
       xml:space="preserve"
       y="1159.4154"
       x="-664.2738"><tspan
         id="tspan4089-7-2-9-82-8"
         y="1159.4154"
         x="-664.2738" /></text>
</g><text
     style="font-size:12.66600037px;font-family:'Droid Sans';fill:#000000"
     id="text7276"
     font-size="12.666px"
     xml:space="preserve"
     y="-373.3544"
     x="381.33496"><tspan
       id="tspan7278"
       y="-373.3544"
       x="381.33496" /><tspan
       id="tspan7280"
       y="-357.52133"
       x="381.33496" /></text>
<text
     style="font-size:12.66600037px;font-family:'Bitstream Vera Sans';opacity:0.8;fill:#000000"
     id="text4087-2-6-5-51"
     font-size="12.666px"
     xml:space="preserve"
     y="-855.39899"
     x="846.51886"><tspan
       id="tspan4089-7-2-9-97"
       y="-855.39899"
       x="846.51886" /></text>
<text
     style="font-size:12.66600037px;font-family:'Bitstream Vera Sans';opacity:0.8;fill:#000000"
     id="text4087-2-6-5-59-2"
     font-size="12.666px"
     xml:space="preserve"
     y="-109.84549"
     x="-977.16711"><tspan
       id="tspan4089-7-2-9-4-4"
       y="-109.84549"
       x="-977.16711" /></text>
<text
     style="font-size:12.66600037px;font-family:'Bitstream Vera Sans';opacity:0.8;fill:#000000"
     id="text4087-2-6-5-7-7"
     font-size="12.666px"
     xml:space="preserve"
     y="-1140.3948"
     x="1573.5984"><tspan
       id="tspan4089-7-2-9-1-6"
       y="-1140.3948"
       x="1573.5984" /></text>
<text
     style="font-size:12.66600037px;font-family:'Bitstream Vera Sans';opacity:0.8;fill:#000000"
     id="text4087-2-6-5-5-6"
     font-size="12.666px"
     xml:space="preserve"
     y="-1181.1365"
     x="1597.5592"><tspan
       id="tspan4089-7-2-9-6-53"
       y="-1181.1365"
       x="1597.5592" /></text>
<text
     style="font-size:12.66600037px;font-family:'Bitstream Vera Sans';opacity:0.8;fill:#000000"
     id="text4087-2-6-5-54"
     font-size="12.666px"
     xml:space="preserve"
     y="-1188.3464"
     x="106.09611"><tspan
       id="tspan4089-7-2-9-0"
       y="-1188.3464"
       x="106.09611" /></text>
<text
     style="font-size:12.66600037px;font-family:'Bitstream Vera Sans';opacity:0.8;fill:#000000"
     id="text4087-2-6-5-4-1"
     font-size="12.666px"
     xml:space="preserve"
     y="-1461.5806"
     x="1566.6389"><tspan
       id="tspan4089-7-2-9-9-28"
       y="-1461.5806"
       x="1566.6389" /></text>
</svg>