<?xml version="1.0" encoding="UTF-8" standalone="no"?>
<!-- Created with Inkscape (http://www.inkscape.org/) -->

<svg
   xmlns:dc="http://purl.org/dc/elements/1.1/"
   xmlns:cc="http://creativecommons.org/ns#"
   xmlns:rdf="http://www.w3.org/1999/02/22-rdf-syntax-ns#"
   xmlns:svg="http://www.w3.org/2000/svg"
   xmlns="http://www.w3.org/2000/svg"
   xmlns:sodipodi="http://sodipodi.sourceforge.net/DTD/sodipodi-0.dtd"
   xmlns:inkscape="http://www.inkscape.org/namespaces/inkscape"
   id="svg2817"
   height="48"
   width="48"
   version="1.0"
   inkscape:version="0.91 r"
   sodipodi:docname="computerjanitor.svg">
  <defs
     id="defs223" />
  <sodipodi:namedview
     pagecolor="#ffffff"
     bordercolor="#666666"
     borderopacity="1"
     objecttolerance="10"
     gridtolerance="10"
     guidetolerance="10"
     inkscape:pageopacity="0"
     inkscape:pageshadow="2"
     inkscape:window-width="1535"
     inkscape:window-height="876"
     id="namedview221"
     showgrid="false"
     inkscape:zoom="1"
     inkscape:cx="24"
     inkscape:cy="24"
     inkscape:window-x="65"
     inkscape:window-y="24"
     inkscape:window-maximized="1"
     inkscape:current-layer="svg2817" />
  <metadata
     id="metadata57">
    <rdf:RDF>
      <cc:Work
         rdf:about="">
        <dc:format>image/svg+xml</dc:format>
        <dc:type
           rdf:resource="http://purl.org/dc/dcmitype/StillImage" />
        <dc:title></dc:title>
      </cc:Work>
    </rdf:RDF>
  </metadata>
  <text
     id="text4087-2-6-5"
     opacity=".8"
     font-size="12.666px"
     xml:space="preserve"
     y="10.812601"
     x="877.22626"
     font-family="'Bitstream Vera Sans'"
     fill="#000000"><tspan
       id="tspan4089-7-2-9"
       y="10.812601"
       x="877.22626" /></text>
  <text
     id="text4087-2-6-5-5"
     opacity=".8"
     font-size="12.666px"
     xml:space="preserve"
     y="-29.929106"
     x="901.18719"
     font-family="'Bitstream Vera Sans'"
     fill="#000000"><tspan
       id="tspan4089-7-2-9-6"
       y="-29.929106"
       x="901.18719" /></text>
  <text
     id="text4087-2-6-5-2"
     opacity=".8"
     font-size="12.666px"
     xml:space="preserve"
     y="-60.007248"
     x="-569.37115"
     font-family="'Bitstream Vera Sans'"
     fill="#000000"><tspan
       id="tspan4089-7-2-9-2"
       y="-60.007248"
       x="-569.37115" /></text>
  <text
     id="text4087-2-6-5-59"
     opacity=".8"
     font-size="12.666px"
     xml:space="preserve"
     y="685.5462"
     x="-2393.0571"
     font-family="'Bitstream Vera Sans'"
     fill="#000000"><tspan
       id="tspan4089-7-2-9-4"
       y="685.5462"
       x="-2393.0571" /></text>
  <text
     id="text4087-2-6-5-1"
     opacity=".8"
     font-size="12.666px"
     xml:space="preserve"
     y="-445.32822"
     x="-454.88007"
     font-family="'Bitstream Vera Sans'"
     fill="#000000"><tspan
       id="tspan4089-7-2-9-7"
       y="-445.32822"
       x="-454.88007" /></text>
  <text
     id="text4087-2-6-5-7"
     opacity=".8"
     font-size="12.666px"
     xml:space="preserve"
     y="-858.79834"
     x="352.72208"
     font-family="'Bitstream Vera Sans'"
     fill="#000000"><tspan
       id="tspan4089-7-2-9-1"
       y="-858.79834"
       x="352.72208" /></text>
  <text
     id="text4087-2-6-5-5-3"
     opacity=".8"
     font-size="12.666px"
     xml:space="preserve"
     y="-899.54004"
     x="376.68301"
     font-family="'Bitstream Vera Sans'"
     fill="#000000"><tspan
       id="tspan4089-7-2-9-6-5"
       y="-899.54004"
       x="376.68301" /></text>
  <text
     id="text4087-2-6-5-3"
     opacity=".8"
     font-size="12.666px"
     xml:space="preserve"
     y="-906.74994"
     x="-1114.7802"
     font-family="'Bitstream Vera Sans'"
     fill="#000000"><tspan
       id="tspan4089-7-2-9-18"
       y="-906.74994"
       x="-1114.7802" /></text>
  <text
     id="text4087-2-6-5-4"
     opacity=".8"
     font-size="12.666px"
     xml:space="preserve"
     y="-1179.9841"
     x="345.7626"
     font-family="'Bitstream Vera Sans'"
     fill="#000000"><tspan
       id="tspan4089-7-2-9-9"
       y="-1179.9841"
       x="345.7626" /></text>
  <text
     id="text4087-2-6-5-7-1"
     opacity=".8"
     font-size="12.666px"
     xml:space="preserve"
     y="-553.29272"
     x="1831.8861"
     font-family="'Bitstream Vera Sans'"
     fill="#000000"><tspan
       id="tspan4089-7-2-9-1-8"
       y="-553.29272"
       x="1831.8861" /></text>
  <text
     id="text4087-2-6-5-5-5"
     opacity=".8"
     font-size="12.666px"
     xml:space="preserve"
     y="-594.03448"
     x="1855.8469"
     font-family="'Bitstream Vera Sans'"
     fill="#000000"><tspan
       id="tspan4089-7-2-9-6-9"
       y="-594.03448"
       x="1855.8469" /></text>
  <text
     id="text4087-2-6-5-75"
     opacity=".8"
     font-size="12.666px"
     xml:space="preserve"
     y="-601.24438"
     x="364.38376"
     font-family="'Bitstream Vera Sans'"
     fill="#000000"><tspan
       id="tspan4089-7-2-9-3"
       y="-601.24438"
       x="364.38376" /></text>
  <text
     id="text4087-2-6-5-4-8"
     opacity=".8"
     font-size="12.666px"
     xml:space="preserve"
     y="-874.47839"
     x="1824.9266"
     font-family="'Bitstream Vera Sans'"
     fill="#000000"><tspan
       id="tspan4089-7-2-9-9-8"
       y="-874.47839"
       x="1824.9266" /></text>
  <text
     id="text4087-2-6-5-45"
     opacity=".8"
     font-size="12.666px"
     xml:space="preserve"
     y="-649.33569"
     x="-573.43256"
     font-family="'Bitstream Vera Sans'"
     fill="#000000"><tspan
       id="tspan4089-7-2-9-75"
       y="-649.33569"
       x="-573.43256" /></text>
  <text
     id="text4087-2-6-5-59-7"
     opacity=".8"
     font-size="12.666px"
     xml:space="preserve"
     y="96.217857"
     x="-2397.1182"
     font-family="'Bitstream Vera Sans'"
     fill="#000000"><tspan
       id="tspan4089-7-2-9-4-0"
       y="96.217857"
       x="-2397.1182" /></text>
  <text
     id="text4087-2-6-5-8"
     opacity=".8"
     font-size="12.666px"
     xml:space="preserve"
     y="189.09"
     x="-682.36279"
     font-family="'Bitstream Vera Sans'"
     fill="#000000"><tspan
       id="tspan4089-7-2-9-19"
       y="189.09"
       x="-682.36279" /></text>
  <text
     id="text4087-2-6-5-7-5"
     opacity=".8"
     font-size="12.666px"
     xml:space="preserve"
     y="9.9078522"
     x="426.66153"
     font-family="'Bitstream Vera Sans'"
     fill="#000000"><tspan
       id="tspan4089-7-2-9-1-2"
       y="9.9078522"
       x="426.66153" /></text>
  <text
     id="text4087-2-6-5-5-0"
     opacity=".8"
     font-size="12.666px"
     xml:space="preserve"
     y="-30.833855"
     x="450.62247"
     font-family="'Bitstream Vera Sans'"
     fill="#000000"><tspan
       id="tspan4089-7-2-9-6-2"
       y="-30.833855"
       x="450.62247" /></text>
  <text
     id="text4087-2-6-5-26"
     opacity=".8"
     font-size="12.666px"
     xml:space="preserve"
     y="-38.043827"
     x="-1040.8407"
     font-family="'Bitstream Vera Sans'"
     fill="#000000"><tspan
       id="tspan4089-7-2-9-90"
       y="-38.043827"
       x="-1040.8407" /></text>
  <text
     id="text4087-2-6-5-4-3"
     opacity=".8"
     font-size="12.666px"
     xml:space="preserve"
     y="-311.27789"
     x="419.70206"
     font-family="'Bitstream Vera Sans'"
     fill="#000000"><tspan
       id="tspan4089-7-2-9-9-5"
       y="-311.27789"
       x="419.70206" /></text>
  <text
     id="text4087-2-6-5-55"
     opacity=".8"
     font-size="12.666px"
     xml:space="preserve"
     y="-40.758072"
     x="-608.03253"
     font-family="'Bitstream Vera Sans'"
     fill="#000000"><tspan
       id="tspan4089-7-2-9-32"
       y="-40.758072"
       x="-608.03253" /></text>
  <text
     id="text4087-2-6-5-59-9"
     opacity=".8"
     font-size="12.666px"
     xml:space="preserve"
     y="704.79541"
     x="-2431.7185"
     font-family="'Bitstream Vera Sans'"
     fill="#000000"><tspan
       id="tspan4089-7-2-9-4-1"
       y="704.79541"
       x="-2431.7185" /></text>
  <text
     id="text4087-2-6-5-1-8"
     opacity=".8"
     font-size="12.666px"
     xml:space="preserve"
     y="-902.28857"
     x="-456.93948"
     font-family="'Bitstream Vera Sans'"
     fill="#000000"><tspan
       id="tspan4089-7-2-9-7-8"
       y="-902.28857"
       x="-456.93948" /></text>
  <text
     id="text4087-2-6-5-7-8"
     opacity=".8"
     font-size="12.666px"
     xml:space="preserve"
     y="-1315.7588"
     x="350.66266"
     font-family="'Bitstream Vera Sans'"
     fill="#000000"><tspan
       id="tspan4089-7-2-9-1-9"
       y="-1315.7588"
       x="350.66266" /></text>
  <text
     id="text4087-2-6-5-5-52"
     opacity=".8"
     font-size="12.666px"
     xml:space="preserve"
     y="-1356.5005"
     x="374.62357"
     font-family="'Bitstream Vera Sans'"
     fill="#000000"><tspan
       id="tspan4089-7-2-9-6-4"
       y="-1356.5005"
       x="374.62357" /></text>
  <text
     id="text4087-2-6-5-3-4"
     opacity=".8"
     font-size="12.666px"
     xml:space="preserve"
     y="-1363.7104"
     x="-1116.8396"
     font-family="'Bitstream Vera Sans'"
     fill="#000000"><tspan
       id="tspan4089-7-2-9-18-3"
       y="-1363.7104"
       x="-1116.8396" /></text>
  <text
     id="text4087-2-6-5-4-7"
     opacity=".8"
     font-size="12.666px"
     xml:space="preserve"
     y="-1636.9446"
     x="343.70316"
     font-family="'Bitstream Vera Sans'"
     fill="#000000"><tspan
       id="tspan4089-7-2-9-9-54"
       y="-1636.9446"
       x="343.70316" /></text>
  <text
     id="text4087-2-6-5-7-1-2"
     opacity=".8"
     font-size="12.666px"
     xml:space="preserve"
     y="-1010.2533"
     x="1829.8265"
     font-family="'Bitstream Vera Sans'"
     fill="#000000"><tspan
       id="tspan4089-7-2-9-1-8-0"
       y="-1010.2533"
       x="1829.8265" /></text>
  <text
     id="text4087-2-6-5-5-5-6"
     opacity=".8"
     font-size="12.666px"
     xml:space="preserve"
     y="-1050.9949"
     x="1853.7874"
     font-family="'Bitstream Vera Sans'"
     fill="#000000"><tspan
       id="tspan4089-7-2-9-6-9-8"
       y="-1050.9949"
       x="1853.7874" /></text>
  <text
     id="text4087-2-6-5-75-4"
     opacity=".8"
     font-size="12.666px"
     xml:space="preserve"
     y="-1058.2048"
     x="362.32431"
     font-family="'Bitstream Vera Sans'"
     fill="#000000"><tspan
       id="tspan4089-7-2-9-3-9"
       y="-1058.2048"
       x="362.32431" /></text>
  <text
     id="text4087-2-6-5-4-8-1"
     opacity=".8"
     font-size="12.666px"
     xml:space="preserve"
     y="-1331.439"
     x="1822.8671"
     font-family="'Bitstream Vera Sans'"
     fill="#000000"><tspan
       id="tspan4089-7-2-9-9-8-8"
       y="-1331.439"
       x="1822.8671" /></text>
  <text
     id="text4087-2-6-5-45-0"
     opacity=".8"
     font-size="12.666px"
     xml:space="preserve"
     y="-1106.2961"
     x="-575.492"
     font-family="'Bitstream Vera Sans'"
     fill="#000000"><tspan
       id="tspan4089-7-2-9-75-2"
       y="-1106.2961"
       x="-575.492" /></text>
  <text
     id="text4087-2-6-5-59-5"
     opacity=".8"
     font-size="12.666px"
     xml:space="preserve"
     y="-360.74261"
     x="-2399.1777"
     font-family="'Bitstream Vera Sans'"
     fill="#000000"><tspan
       id="tspan4089-7-2-9-4-00"
       y="-360.74261"
       x="-2399.1777" /></text>
  <text
     id="text4087-2-6-5-264"
     opacity=".8"
     font-size="12.666px"
     xml:space="preserve"
     y="-267.87045"
     x="-684.42224"
     font-family="'Bitstream Vera Sans'"
     fill="#000000"><tspan
       id="tspan4089-7-2-9-8"
       y="-267.87045"
       x="-684.42224" /></text>
  <text
     id="text4087-2-6-5-42"
     opacity=".8"
     font-size="12.666px"
     xml:space="preserve"
     y="-26.956278"
     x="155.5923"
     font-family="'Bitstream Vera Sans'"
     fill="#000000"><tspan
       id="tspan4089-7-2-9-93"
       y="-26.956278"
       x="155.5923" /></text>
  <text
     id="text4087-2-6-5-5-05"
     opacity=".8"
     font-size="12.666px"
     xml:space="preserve"
     y="-67.697998"
     x="179.55324"
     font-family="'Bitstream Vera Sans'"
     fill="#000000"><tspan
       id="tspan4089-7-2-9-6-49"
       y="-67.697998"
       x="179.55324" /></text>
  <text
     id="text4087-2-6-5-1-4"
     opacity=".8"
     font-size="12.666px"
     xml:space="preserve"
     y="-261.72662"
     x="-1090.2634"
     font-family="'Bitstream Vera Sans'"
     fill="#000000"><tspan
       id="tspan4089-7-2-9-7-7"
       y="-261.72662"
       x="-1090.2634" /></text>
  <text
     id="text4087-2-6-5-7-56"
     opacity=".8"
     font-size="12.666px"
     xml:space="preserve"
     y="-675.19678"
     x="-282.66141"
     font-family="'Bitstream Vera Sans'"
     fill="#000000"><tspan
       id="tspan4089-7-2-9-1-1"
       y="-675.19678"
       x="-282.66141" /></text>
  <text
     id="text4087-2-6-5-5-8"
     opacity=".8"
     font-size="12.666px"
     xml:space="preserve"
     y="-715.93848"
     x="-258.70047"
     font-family="'Bitstream Vera Sans'"
     fill="#000000"><tspan
       id="tspan4089-7-2-9-6-7"
       y="-715.93848"
       x="-258.70047" /></text>
  <text
     id="text4087-2-6-5-3-42"
     opacity=".8"
     font-size="12.666px"
     xml:space="preserve"
     y="-723.14838"
     x="-1750.1636"
     font-family="'Bitstream Vera Sans'"
     fill="#000000"><tspan
       id="tspan4089-7-2-9-18-39"
       y="-723.14838"
       x="-1750.1636" /></text>
  <text
     id="text4087-2-6-5-4-4"
     opacity=".8"
     font-size="12.666px"
     xml:space="preserve"
     y="-996.38251"
     x="-289.62085"
     font-family="'Bitstream Vera Sans'"
     fill="#000000"><tspan
       id="tspan4089-7-2-9-9-3"
       y="-996.38251"
       x="-289.62085" /></text>
  <text
     id="text4087-2-6-5-7-1-0"
     opacity=".8"
     font-size="12.666px"
     xml:space="preserve"
     y="-369.69113"
     x="1196.5026"
     font-family="'Bitstream Vera Sans'"
     fill="#000000"><tspan
       id="tspan4089-7-2-9-1-8-5"
       y="-369.69113"
       x="1196.5026" /></text>
  <text
     id="text4087-2-6-5-5-5-5"
     opacity=".8"
     font-size="12.666px"
     xml:space="preserve"
     y="-410.43286"
     x="1220.4634"
     font-family="'Bitstream Vera Sans'"
     fill="#000000"><tspan
       id="tspan4089-7-2-9-6-9-2"
       y="-410.43286"
       x="1220.4634" /></text>
  <text
     id="text4087-2-6-5-75-9"
     opacity=".8"
     font-size="12.666px"
     xml:space="preserve"
     y="-417.64282"
     x="-270.99973"
     font-family="'Bitstream Vera Sans'"
     fill="#000000"><tspan
       id="tspan4089-7-2-9-3-1"
       y="-417.64282"
       x="-270.99973" /></text>
  <text
     id="text4087-2-6-5-4-8-18"
     opacity=".8"
     font-size="12.666px"
     xml:space="preserve"
     y="-690.87689"
     x="1189.5431"
     font-family="'Bitstream Vera Sans'"
     fill="#000000"><tspan
       id="tspan4089-7-2-9-9-8-4"
       y="-690.87689"
       x="1189.5431" /></text>
  <text
     id="text4087-2-6-5-45-3"
     opacity=".8"
     font-size="12.666px"
     xml:space="preserve"
     y="-465.7341"
     x="-1208.816"
     font-family="'Bitstream Vera Sans'"
     fill="#000000"><tspan
       id="tspan4089-7-2-9-75-7"
       y="-465.7341"
       x="-1208.816" /></text>
  <text
     id="text4087-2-6-5-59-8"
     opacity=".8"
     font-size="12.666px"
     xml:space="preserve"
     y="279.81946"
     x="-3032.5017"
     font-family="'Bitstream Vera Sans'"
     fill="#000000"><tspan
       id="tspan4089-7-2-9-4-2"
       y="279.81946"
       x="-3032.5017" /></text>
  <g
     id="layer4-0"
     transform="matrix(.90475 0 0 .90475 -716.75 -676.29)">
    <text
       id="text4087-2-6-5-20"
       opacity=".8"
       font-size="14px"
       xml:space="preserve"
       y="1159.4154"
       x="-664.2738"
       font-family="'Bitstream Vera Sans'"
       fill="#000000"><tspan
         id="tspan4089-7-2-9-82"
         y="1159.4154"
         x="-664.2738" /></text>
  </g>
  <text
     id="text4087-2-6-5-9"
     opacity=".8"
     font-size="12.666px"
     xml:space="preserve"
     y="18.050589"
     x="877.22626"
     font-family="'Bitstream Vera Sans'"
     fill="#000000"><tspan
       id="tspan4089-7-2-9-43"
       y="18.050589"
       x="877.22626" /></text>
  <text
     id="text4087-2-6-5-5-51"
     opacity=".8"
     font-size="12.666px"
     xml:space="preserve"
     y="-22.691116"
     x="901.18719"
     font-family="'Bitstream Vera Sans'"
     fill="#000000"><tspan
       id="tspan4089-7-2-9-6-74"
       y="-22.691116"
       x="901.18719" /></text>
  <text
     id="text4087-2-6-5-2-3"
     opacity=".8"
     font-size="12.666px"
     xml:space="preserve"
     y="-52.76926"
     x="-569.37115"
     font-family="'Bitstream Vera Sans'"
     fill="#000000"><tspan
       id="tspan4089-7-2-9-2-1"
       y="-52.76926"
       x="-569.37115" /></text>
  <text
     id="text4087-2-6-5-59-4"
     opacity=".8"
     font-size="12.666px"
     xml:space="preserve"
     y="692.78418"
     x="-2393.0571"
     font-family="'Bitstream Vera Sans'"
     fill="#000000"><tspan
       id="tspan4089-7-2-9-4-6"
       y="692.78418"
       x="-2393.0571" /></text>
  <text
     id="text4087-2-6-5-1-9"
     opacity=".8"
     font-size="12.666px"
     xml:space="preserve"
     y="-438.09021"
     x="-454.88007"
     font-family="'Bitstream Vera Sans'"
     fill="#000000"><tspan
       id="tspan4089-7-2-9-7-4"
       y="-438.09021"
       x="-454.88007" /></text>
  <text
     id="text4087-2-6-5-7-2"
     opacity=".8"
     font-size="12.666px"
     xml:space="preserve"
     y="-851.5603"
     x="352.72208"
     font-family="'Bitstream Vera Sans'"
     fill="#000000"><tspan
       id="tspan4089-7-2-9-1-26"
       y="-851.5603"
       x="352.72208" /></text>
  <text
     id="text4087-2-6-5-5-3-4"
     opacity=".8"
     font-size="12.666px"
     xml:space="preserve"
     y="-892.30206"
     x="376.68301"
     font-family="'Bitstream Vera Sans'"
     fill="#000000"><tspan
       id="tspan4089-7-2-9-6-5-1"
       y="-892.30206"
       x="376.68301" /></text>
  <text
     id="text4087-2-6-5-3-2"
     opacity=".8"
     font-size="12.666px"
     xml:space="preserve"
     y="-899.51196"
     x="-1114.7802"
     font-family="'Bitstream Vera Sans'"
     fill="#000000"><tspan
       id="tspan4089-7-2-9-18-8"
       y="-899.51196"
       x="-1114.7802" /></text>
  <text
     id="text4087-2-6-5-4-89"
     opacity=".8"
     font-size="12.666px"
     xml:space="preserve"
     y="-1172.7461"
     x="345.7626"
     font-family="'Bitstream Vera Sans'"
     fill="#000000"><tspan
       id="tspan4089-7-2-9-9-2"
       y="-1172.7461"
       x="345.7626" /></text>
  <text
     id="text4087-2-6-5-7-1-8"
     opacity=".8"
     font-size="12.666px"
     xml:space="preserve"
     y="-546.05475"
     x="1831.8861"
     font-family="'Bitstream Vera Sans'"
     fill="#000000"><tspan
       id="tspan4089-7-2-9-1-8-8"
       y="-546.05475"
       x="1831.8861" /></text>
  <text
     id="text4087-2-6-5-5-5-8"
     opacity=".8"
     font-size="12.666px"
     xml:space="preserve"
     y="-586.79651"
     x="1855.8469"
     font-family="'Bitstream Vera Sans'"
     fill="#000000"><tspan
       id="tspan4089-7-2-9-6-9-6"
       y="-586.79651"
       x="1855.8469" /></text>
  <text
     id="text4087-2-6-5-75-8"
     opacity=".8"
     font-size="12.666px"
     xml:space="preserve"
     y="-594.00641"
     x="364.38376"
     font-family="'Bitstream Vera Sans'"
     fill="#000000"><tspan
       id="tspan4089-7-2-9-3-3"
       y="-594.00641"
       x="364.38376" /></text>
  <text
     id="text4087-2-6-5-4-8-8"
     opacity=".8"
     font-size="12.666px"
     xml:space="preserve"
     y="-867.24036"
     x="1824.9266"
     font-family="'Bitstream Vera Sans'"
     fill="#000000"><tspan
       id="tspan4089-7-2-9-9-8-3"
       y="-867.24036"
       x="1824.9266" /></text>
  <text
     id="text4087-2-6-5-45-33"
     opacity=".8"
     font-size="12.666px"
     xml:space="preserve"
     y="-642.09772"
     x="-573.43256"
     font-family="'Bitstream Vera Sans'"
     fill="#000000"><tspan
       id="tspan4089-7-2-9-75-8"
       y="-642.09772"
       x="-573.43256" /></text>
  <text
     id="text4087-2-6-5-59-7-0"
     opacity=".8"
     font-size="12.666px"
     xml:space="preserve"
     y="103.45585"
     x="-2397.1182"
     font-family="'Bitstream Vera Sans'"
     fill="#000000"><tspan
       id="tspan4089-7-2-9-4-0-4"
       y="103.45585"
       x="-2397.1182" /></text>
  <text
     id="text4087-2-6-5-8-7"
     opacity=".8"
     font-size="12.666px"
     xml:space="preserve"
     y="196.32799"
     x="-682.36279"
     font-family="'Bitstream Vera Sans'"
     fill="#000000"><tspan
       id="tspan4089-7-2-9-19-6"
       y="196.32799"
       x="-682.36279" /></text>
  <text
     id="text4087-2-6-5-7-5-8"
     opacity=".8"
     font-size="12.666px"
     xml:space="preserve"
     y="17.14584"
     x="426.66153"
     font-family="'Bitstream Vera Sans'"
     fill="#000000"><tspan
       id="tspan4089-7-2-9-1-2-9"
       y="17.14584"
       x="426.66153" /></text>
  <text
     id="text4087-2-6-5-5-0-0"
     opacity=".8"
     font-size="12.666px"
     xml:space="preserve"
     y="-23.595865"
     x="450.62247"
     font-family="'Bitstream Vera Sans'"
     fill="#000000"><tspan
       id="tspan4089-7-2-9-6-2-6"
       y="-23.595865"
       x="450.62247" /></text>
  <text
     id="text4087-2-6-5-26-8"
     opacity=".8"
     font-size="12.666px"
     xml:space="preserve"
     y="-30.805836"
     x="-1040.8407"
     font-family="'Bitstream Vera Sans'"
     fill="#000000"><tspan
       id="tspan4089-7-2-9-90-7"
       y="-30.805836"
       x="-1040.8407" /></text>
  <text
     id="text4087-2-6-5-4-3-9"
     opacity=".8"
     font-size="12.666px"
     xml:space="preserve"
     y="-304.03989"
     x="419.70206"
     font-family="'Bitstream Vera Sans'"
     fill="#000000"><tspan
       id="tspan4089-7-2-9-9-5-0"
       y="-304.03989"
       x="419.70206" /></text>
  <text
     id="text4087-2-6-5-55-3"
     opacity=".8"
     font-size="12.666px"
     xml:space="preserve"
     y="-33.520081"
     x="-608.03253"
     font-family="'Bitstream Vera Sans'"
     fill="#000000"><tspan
       id="tspan4089-7-2-9-32-3"
       y="-33.520081"
       x="-608.03253" /></text>
  <text
     id="text4087-2-6-5-59-9-3"
     opacity=".8"
     font-size="12.666px"
     xml:space="preserve"
     y="712.03345"
     x="-2431.7185"
     font-family="'Bitstream Vera Sans'"
     fill="#000000"><tspan
       id="tspan4089-7-2-9-4-1-7"
       y="712.03345"
       x="-2431.7185" /></text>
  <text
     id="text4087-2-6-5-1-8-3"
     opacity=".8"
     font-size="12.666px"
     xml:space="preserve"
     y="-895.0506"
     x="-456.93948"
     font-family="'Bitstream Vera Sans'"
     fill="#000000"><tspan
       id="tspan4089-7-2-9-7-8-2"
       y="-895.0506"
       x="-456.93948" /></text>
  <text
     id="text4087-2-6-5-7-8-6"
     opacity=".8"
     font-size="12.666px"
     xml:space="preserve"
     y="-1308.5208"
     x="350.66266"
     font-family="'Bitstream Vera Sans'"
     fill="#000000"><tspan
       id="tspan4089-7-2-9-1-9-5"
       y="-1308.5208"
       x="350.66266" /></text>
  <text
     id="text4087-2-6-5-5-52-2"
     opacity=".8"
     font-size="12.666px"
     xml:space="preserve"
     y="-1349.2626"
     x="374.62357"
     font-family="'Bitstream Vera Sans'"
     fill="#000000"><tspan
       id="tspan4089-7-2-9-6-4-6"
       y="-1349.2626"
       x="374.62357" /></text>
  <text
     id="text4087-2-6-5-3-4-5"
     opacity=".8"
     font-size="12.666px"
     xml:space="preserve"
     y="-1356.4724"
     x="-1116.8396"
     font-family="'Bitstream Vera Sans'"
     fill="#000000"><tspan
       id="tspan4089-7-2-9-18-3-8"
       y="-1356.4724"
       x="-1116.8396" /></text>
  <text
     id="text4087-2-6-5-4-7-7"
     opacity=".8"
     font-size="12.666px"
     xml:space="preserve"
     y="-1629.7065"
     x="343.70316"
     font-family="'Bitstream Vera Sans'"
     fill="#000000"><tspan
       id="tspan4089-7-2-9-9-54-9"
       y="-1629.7065"
       x="343.70316" /></text>
  <text
     id="text4087-2-6-5-7-1-2-6"
     opacity=".8"
     font-size="12.666px"
     xml:space="preserve"
     y="-1003.0153"
     x="1829.8265"
     font-family="'Bitstream Vera Sans'"
     fill="#000000"><tspan
       id="tspan4089-7-2-9-1-8-0-0"
       y="-1003.0153"
       x="1829.8265" /></text>
  <text
     id="text4087-2-6-5-5-5-6-4"
     opacity=".8"
     font-size="12.666px"
     xml:space="preserve"
     y="-1043.757"
     x="1853.7874"
     font-family="'Bitstream Vera Sans'"
     fill="#000000"><tspan
       id="tspan4089-7-2-9-6-9-8-1"
       y="-1043.757"
       x="1853.7874" /></text>
  <text
     id="text4087-2-6-5-75-4-0"
     opacity=".8"
     font-size="12.666px"
     xml:space="preserve"
     y="-1050.9668"
     x="362.32431"
     font-family="'Bitstream Vera Sans'"
     fill="#000000"><tspan
       id="tspan4089-7-2-9-3-9-4"
       y="-1050.9668"
       x="362.32431" /></text>
  <text
     id="text4087-2-6-5-4-8-1-8"
     opacity=".8"
     font-size="12.666px"
     xml:space="preserve"
     y="-1324.2009"
     x="1822.8671"
     font-family="'Bitstream Vera Sans'"
     fill="#000000"><tspan
       id="tspan4089-7-2-9-9-8-8-7"
       y="-1324.2009"
       x="1822.8671" /></text>
  <text
     id="text4087-2-6-5-45-0-0"
     opacity=".8"
     font-size="12.666px"
     xml:space="preserve"
     y="-1099.0581"
     x="-575.492"
     font-family="'Bitstream Vera Sans'"
     fill="#000000"><tspan
       id="tspan4089-7-2-9-75-2-8"
       y="-1099.0581"
       x="-575.492" /></text>
  <text
     id="text4087-2-6-5-59-5-6"
     opacity=".8"
     font-size="12.666px"
     xml:space="preserve"
     y="-353.50461"
     x="-2399.1777"
     font-family="'Bitstream Vera Sans'"
     fill="#000000"><tspan
       id="tspan4089-7-2-9-4-00-2"
       y="-353.50461"
       x="-2399.1777" /></text>
  <text
     id="text4087-2-6-5-264-4"
     opacity=".8"
     font-size="12.666px"
     xml:space="preserve"
     y="-260.63245"
     x="-684.42224"
     font-family="'Bitstream Vera Sans'"
     fill="#000000"><tspan
       id="tspan4089-7-2-9-8-7"
       y="-260.63245"
       x="-684.42224" /></text>
  <text
     id="text4087-2-6-5-42-9"
     opacity=".8"
     font-size="12.666px"
     xml:space="preserve"
     y="-19.71829"
     x="155.5923"
     font-family="'Bitstream Vera Sans'"
     fill="#000000"><tspan
       id="tspan4089-7-2-9-93-3"
       y="-19.71829"
       x="155.5923" /></text>
  <text
     id="text4087-2-6-5-5-05-9"
     opacity=".8"
     font-size="12.666px"
     xml:space="preserve"
     y="-60.460011"
     x="179.55324"
     font-family="'Bitstream Vera Sans'"
     fill="#000000"><tspan
       id="tspan4089-7-2-9-6-49-2"
       y="-60.460011"
       x="179.55324" /></text>
  <text
     id="text4087-2-6-5-1-4-8"
     opacity=".8"
     font-size="12.666px"
     xml:space="preserve"
     y="-254.4886"
     x="-1090.2634"
     font-family="'Bitstream Vera Sans'"
     fill="#000000"><tspan
       id="tspan4089-7-2-9-7-7-3"
       y="-254.4886"
       x="-1090.2634" /></text>
  <text
     id="text4087-2-6-5-7-56-0"
     opacity=".8"
     font-size="12.666px"
     xml:space="preserve"
     y="-667.9588"
     x="-282.66141"
     font-family="'Bitstream Vera Sans'"
     fill="#000000"><tspan
       id="tspan4089-7-2-9-1-1-1"
       y="-667.9588"
       x="-282.66141" /></text>
  <text
     id="text4087-2-6-5-5-8-7"
     opacity=".8"
     font-size="12.666px"
     xml:space="preserve"
     y="-708.7005"
     x="-258.70047"
     font-family="'Bitstream Vera Sans'"
     fill="#000000"><tspan
       id="tspan4089-7-2-9-6-7-8"
       y="-708.7005"
       x="-258.70047" /></text>
  <text
     id="text4087-2-6-5-3-42-9"
     opacity=".8"
     font-size="12.666px"
     xml:space="preserve"
     y="-715.91046"
     x="-1750.1636"
     font-family="'Bitstream Vera Sans'"
     fill="#000000"><tspan
       id="tspan4089-7-2-9-18-39-1"
       y="-715.91046"
       x="-1750.1636" /></text>
  <text
     id="text4087-2-6-5-4-4-5"
     opacity=".8"
     font-size="12.666px"
     xml:space="preserve"
     y="-989.14447"
     x="-289.62085"
     font-family="'Bitstream Vera Sans'"
     fill="#000000"><tspan
       id="tspan4089-7-2-9-9-3-4"
       y="-989.14447"
       x="-289.62085" /></text>
  <text
     id="text4087-2-6-5-7-1-0-9"
     opacity=".8"
     font-size="12.666px"
     xml:space="preserve"
     y="-362.45316"
     x="1196.5026"
     font-family="'Bitstream Vera Sans'"
     fill="#000000"><tspan
       id="tspan4089-7-2-9-1-8-5-2"
       y="-362.45316"
       x="1196.5026" /></text>
  <text
     id="text4087-2-6-5-5-5-5-5"
     opacity=".8"
     font-size="12.666px"
     xml:space="preserve"
     y="-403.19489"
     x="1220.4634"
     font-family="'Bitstream Vera Sans'"
     fill="#000000"><tspan
       id="tspan4089-7-2-9-6-9-2-7"
       y="-403.19489"
       x="1220.4634" /></text>
  <text
     id="text4087-2-6-5-75-9-4"
     opacity=".8"
     font-size="12.666px"
     xml:space="preserve"
     y="-410.40482"
     x="-270.99973"
     font-family="'Bitstream Vera Sans'"
     fill="#000000"><tspan
       id="tspan4089-7-2-9-3-1-9"
       y="-410.40482"
       x="-270.99973" /></text>
  <text
     id="text4087-2-6-5-4-8-18-9"
     opacity=".8"
     font-size="12.666px"
     xml:space="preserve"
     y="-683.63892"
     x="1189.5431"
     font-family="'Bitstream Vera Sans'"
     fill="#000000"><tspan
       id="tspan4089-7-2-9-9-8-4-4"
       y="-683.63892"
       x="1189.5431" /></text>
  <text
     id="text4087-2-6-5-45-3-5"
     opacity=".8"
     font-size="12.666px"
     xml:space="preserve"
     y="-458.49609"
     x="-1208.816"
     font-family="'Bitstream Vera Sans'"
     fill="#000000"><tspan
       id="tspan4089-7-2-9-75-7-9"
       y="-458.49609"
       x="-1208.816" /></text>
  <text
     id="text4087-2-6-5-59-8-3"
     opacity=".8"
     font-size="12.666px"
     xml:space="preserve"
     y="287.05743"
     x="-3032.5017"
     font-family="'Bitstream Vera Sans'"
     fill="#000000"><tspan
       id="tspan4089-7-2-9-4-2-5"
       y="287.05743"
       x="-3032.5017" /></text>
  <g
     id="layer4-0-7"
     transform="matrix(.90475 0 0 .90475 -716.75 -669.05)">
    <text
       id="text4087-2-6-5-20-0"
       opacity=".8"
       font-size="14px"
       xml:space="preserve"
       y="1159.4154"
       x="-664.2738"
       font-family="'Bitstream Vera Sans'"
       fill="#000000"><tspan
         id="tspan4089-7-2-9-82-8"
         y="1159.4154"
         x="-664.2738" /></text>
  </g>
  <text
     id="text7276"
     font-size="12.666px"
     xml:space="preserve"
     y="-361.22546"
     x="435.90427"
     font-family="'Droid Sans'"
     fill="#000000"><tspan
       id="tspan7278"
       y="-361.22546"
       x="435.90427" /><tspan
       id="tspan7280"
       y="-345.3924"
       x="435.90427" /></text>
  <text
     id="text4087-2-6-5-51"
     opacity=".8"
     font-size="12.666px"
     xml:space="preserve"
     y="-843.27002"
     x="901.0882"
     font-family="'Bitstream Vera Sans'"
     fill="#000000"><tspan
       id="tspan4089-7-2-9-97"
       y="-843.27002"
       x="901.0882" /></text>
  <text
     id="text4087-2-6-5-59-2"
     opacity=".8"
     font-size="12.666px"
     xml:space="preserve"
     y="-97.716553"
     x="-922.59778"
     font-family="'Bitstream Vera Sans'"
     fill="#000000"><tspan
       id="tspan4089-7-2-9-4-4"
       y="-97.716553"
       x="-922.59778" /></text>
  <text
     id="text4087-2-6-5-7-7"
     opacity=".8"
     font-size="12.666px"
     xml:space="preserve"
     y="-1128.2659"
     x="1628.1677"
     font-family="'Bitstream Vera Sans'"
     fill="#000000"><tspan
       id="tspan4089-7-2-9-1-6"
       y="-1128.2659"
       x="1628.1677" /></text>
  <text
     id="text4087-2-6-5-5-6"
     opacity=".8"
     font-size="12.666px"
     xml:space="preserve"
     y="-1169.0076"
     x="1652.1285"
     font-family="'Bitstream Vera Sans'"
     fill="#000000"><tspan
       id="tspan4089-7-2-9-6-53"
       y="-1169.0076"
       x="1652.1285" /></text>
  <text
     id="text4087-2-6-5-54"
     opacity=".8"
     font-size="12.666px"
     xml:space="preserve"
     y="-1176.2175"
     x="160.66542"
     font-family="'Bitstream Vera Sans'"
     fill="#000000"><tspan
       id="tspan4089-7-2-9-0"
       y="-1176.2175"
       x="160.66542" /></text>
  <text
     id="text4087-2-6-5-4-1"
     opacity=".8"
     font-size="12.666px"
     xml:space="preserve"
     y="-1449.4517"
     x="1621.2083"
     font-family="'Bitstream Vera Sans'"
     fill="#000000"><tspan
       id="tspan4089-7-2-9-9-28"
       y="-1449.4517"
       x="1621.2083" /></text>
  <path
     style="fill:#fed24c;fill-opacity:1;stroke:none;stroke-width:0.13478px;stroke-opacity:0.88889005"
     d="M 21.998047 22.666016 L 19.515625 25.482422 L 17.601562 27.335938 L 15.470703 28.757812 L 12.908203 30.099609 L 9.9394531 31.197266 L 8.0800781 31.628906 L 8 31.869141 L 8.1074219 32.513672 L 8.5390625 33.587891 L 9.4550781 35.359375 L 10.345703 36.671875 L 12.072266 38.470703 L 12.853516 39.248047 L 13.554688 39.492188 L 16.736328 39.462891 L 14.849609 40.75 L 14.822266 41.074219 L 15.955078 41.958984 L 17.492188 42.84375 C 19.479426 43.945863 21.269531 41.767578 21.269531 41.767578 C 21.269531 41.767578 20.306038 43.418651 20.365234 44 L 22.253906 44 L 23.251953 43.839844 L 24.384766 43.275391 L 24.005859 43.865234 L 26.058594 43.890625 C 28.22463 43.839875 29.656746 42.595054 30.939453 41.261719 L 32.287109 39.677734 L 33.339844 38.095703 L 34.121094 36.646484 L 35.363281 33.775391 L 36.306641 31.441406 L 36.765625 30.205078 L 36.318359 30.205078 L 32.908203 29.8125 C 30.169714 29.040855 28.69413 27.030417 26.15625 25.492188 L 24.052734 24.203125 L 22.380859 23.210938 L 22.138672 22.861328 L 22.089844 22.724609 L 21.998047 22.666016 z "
     id="path4425" />
  <path
     sodipodi:nodetypes="ccccccccccccccccccccccccccccccccccc"
     inkscape:connector-curvature="0"
     id="path4429"
     d="m 37.309407,5.0467464 -1.983169,3.7195295 -1.715095,3.7940911 -2.09847,4.138228 -1.449905,3.404071 -1.611325,-0.673931 -2.320425,-0.995125 -0.567854,0 -0.484262,0.134791 -0.781162,1.020935 -2.265655,2.976769 0.106659,0.295383 0.242132,0.349872 1.671857,0.992257 2.104235,1.287639 c 2.53788,1.53823 4.012782,3.548706 6.751271,4.320351 l 3.409572,0.394434 0.57362,0 0.03747,-0.149126 0.495792,-3.036993 0.406434,-2.454832 0.04035,-0.524807 -0.296898,-0.550616 -1.997582,-0.911959 -1.158771,-0.496129 -0.709098,-0.45311 -0.08071,-0.03442 0.09512,-0.151993 1.184714,-2.922283 1.06653,-2.581013 1.334604,-3.490106 1.03194,-2.4691709 0.876284,-2.1995984 0.719786,-2.1315424 c 0.431017,-1.5921704 -1.46323,-2.453359 -2.627985,-0.6015986 z"
     style="fill:#c2352a;fill-opacity:1" />
  <path
     style="fill:#ffffff;fill-opacity:1;opacity:0.2"
     d="M 38.765625 4.0039062 C 38.284763 4.0398173 37.745377 4.3524648 37.308594 5.046875 L 35.326172 8.765625 L 33.611328 12.560547 L 31.511719 16.699219 L 30.0625 20.103516 L 28.451172 19.429688 L 26.130859 18.433594 L 25.5625 18.433594 L 25.078125 18.568359 L 24.296875 19.589844 L 22.03125 22.566406 L 22.138672 22.861328 L 22.34375 23.15625 L 24.296875 20.589844 L 25.078125 19.568359 L 25.5625 19.433594 L 26.130859 19.433594 L 28.451172 20.427734 L 30.0625 21.103516 L 31.511719 17.699219 L 33.611328 13.560547 L 35.326172 9.765625 L 37.308594 6.046875 C 38.219878 4.59809 39.562901 4.8208033 39.904297 5.7441406 L 39.9375 5.6484375 C 40.206886 4.653331 39.567062 3.9440545 38.765625 4.0039062 z M 33.982422 21.802734 L 33.722656 22.441406 L 33.628906 22.59375 L 33.708984 22.628906 L 34.417969 23.082031 L 35.576172 23.578125 L 37.574219 24.490234 L 37.78125 24.873047 L 37.832031 24.564453 L 37.871094 24.041016 L 37.574219 23.490234 L 35.576172 22.578125 L 34.417969 22.082031 L 33.982422 21.802734 z "
     id="path6069" />
  <path
     style="fill:#000000;fill-opacity:1;opacity:0.3"
     d="M 39.904297 4.7441406 L 39.216797 6.7792969 L 38.341797 8.9785156 L 37.308594 11.449219 L 35.974609 14.939453 L 34.908203 17.519531 L 33.722656 20.441406 L 33.628906 20.59375 L 33.708984 20.628906 L 33.982422 20.802734 L 34.908203 18.519531 L 35.974609 15.939453 L 37.308594 12.449219 L 38.341797 9.9785156 L 39.216797 7.7792969 L 39.9375 5.6484375 C 40.031297 5.3019534 39.999255 5.0009642 39.904297 4.7441406 z M 22.34375 22.15625 L 22.03125 22.566406 L 22.138672 22.861328 L 22.380859 23.210938 L 24.052734 24.203125 L 26.15625 25.492188 C 28.69413 27.030417 30.169714 29.040855 32.908203 29.8125 L 36.318359 30.205078 L 36.890625 30.205078 L 36.929688 30.056641 L 37.423828 27.019531 L 37.832031 24.564453 L 37.871094 24.041016 L 37.78125 23.873047 L 37.423828 26.019531 L 36.929688 29.056641 L 36.890625 29.205078 L 36.318359 29.205078 L 32.908203 28.8125 C 30.169714 28.040855 28.69413 26.030417 26.15625 24.492188 L 24.052734 23.203125 L 22.380859 22.210938 L 22.34375 22.15625 z "
     id="path6074" />
  <path
     style="fill:#ffffff;fill-opacity:1;stroke:none;stroke-width:0.13478px;stroke-opacity:0.88889005;opacity:0.2"
     d="M 21.998047 22.666016 L 19.515625 25.482422 L 17.601562 27.335938 L 15.470703 28.757812 L 12.908203 30.099609 L 9.9394531 31.197266 L 8.0800781 31.628906 L 8 31.869141 L 8.1074219 32.513672 L 8.1464844 32.613281 L 9.9394531 32.197266 L 12.908203 31.099609 L 15.470703 29.757812 L 17.601562 28.335938 L 19.515625 26.482422 L 21.998047 23.666016 L 22.089844 23.724609 L 22.138672 23.861328 L 22.380859 24.210938 L 24.052734 25.203125 L 26.15625 26.492188 C 28.69413 28.030417 30.169714 30.040855 32.908203 30.8125 L 36.318359 31.205078 L 36.394531 31.205078 L 36.765625 30.205078 L 36.318359 30.205078 L 32.908203 29.8125 C 30.169714 29.040855 28.69413 27.030417 26.15625 25.492188 L 24.052734 24.203125 L 22.380859 23.210938 L 22.138672 22.861328 L 22.089844 22.724609 L 21.998047 22.666016 z M 16.736328 40.462891 L 15.25 40.476562 L 14.849609 40.75 L 14.822266 41.074219 L 15.296875 41.445312 L 16.736328 40.462891 z M 21.269531 42.767578 C 21.269531 42.767578 20.954086 43.13611 20.457031 43.494141 C 20.394008 43.692927 20.352405 43.874007 20.365234 44 L 20.654297 44 C 20.920858 43.386125 21.269531 42.767578 21.269531 42.767578 z "
     id="path6084" />
  <path
     style="fill:#000000;fill-opacity:1;stroke:none;stroke-width:0.13478px;stroke-opacity:0.88889005;opacity:0.3"
     d="M 36.394531 30.205078 L 36.306641 30.441406 L 35.363281 32.775391 L 34.121094 35.646484 L 33.339844 37.095703 L 32.287109 38.677734 L 30.939453 40.261719 C 29.656746 41.595054 28.22463 42.839875 26.058594 42.890625 L 24.005859 42.865234 L 24.384766 42.275391 L 23.251953 42.839844 L 22.253906 43 L 20.654297 43 C 20.485835 43.387958 20.342311 43.774874 20.365234 44 L 22.253906 44 L 23.251953 43.839844 L 24.384766 43.275391 L 24.005859 43.865234 L 26.058594 43.890625 C 28.22463 43.839875 29.656746 42.595054 30.939453 41.261719 L 32.287109 39.677734 L 33.339844 38.095703 L 34.121094 36.646484 L 35.363281 33.775391 L 36.306641 31.441406 L 36.765625 30.205078 L 36.394531 30.205078 z M 8.1464844 31.613281 L 8.0800781 31.628906 L 8 31.869141 L 8.1074219 32.513672 L 8.5390625 33.587891 L 9.4550781 35.359375 L 10.345703 36.671875 L 12.072266 38.470703 L 12.853516 39.248047 L 13.554688 39.492188 L 15.25 39.476562 L 16.736328 38.462891 L 13.554688 38.492188 L 12.853516 38.248047 L 12.072266 37.470703 L 10.345703 35.671875 L 9.4550781 34.359375 L 8.5390625 32.587891 L 8.1464844 31.613281 z M 15.296875 40.445312 L 14.849609 40.75 L 14.822266 41.074219 L 15.955078 41.958984 L 17.492188 42.84375 C 18.659997 43.491412 19.748654 43.004389 20.457031 42.494141 C 20.684806 41.775701 21.269531 40.767578 21.269531 40.767578 C 21.269531 40.767578 19.479426 42.945863 17.492188 41.84375 L 15.955078 40.958984 L 15.296875 40.445312 z "
     id="path6089" />
</svg>
