<?xml version="1.0" encoding="UTF-8" standalone="no"?>
<!-- Created with Inkscape (http://www.inkscape.org/) -->

<svg
   xmlns:dc="http://purl.org/dc/elements/1.1/"
   xmlns:cc="http://creativecommons.org/ns#"
   xmlns:rdf="http://www.w3.org/1999/02/22-rdf-syntax-ns#"
   xmlns:svg="http://www.w3.org/2000/svg"
   xmlns="http://www.w3.org/2000/svg"
   xmlns:sodipodi="http://sodipodi.sourceforge.net/DTD/sodipodi-0.dtd"
   xmlns:inkscape="http://www.inkscape.org/namespaces/inkscape"
   width="48"
   height="48"
   id="svg5453"
   version="1.1"
   inkscape:version="0.91 r"
   sodipodi:docname="cuttlefish.svg">
  <defs
     id="defs5455" />
  <sodipodi:namedview
     id="base"
     pagecolor="#ffffff"
     bordercolor="#666666"
     borderopacity="1.0"
     inkscape:pageopacity="0"
     inkscape:pageshadow="2"
     inkscape:zoom="9.28"
     inkscape:cx="19.54536"
     inkscape:cy="27.103843"
     inkscape:document-units="px"
     inkscape:current-layer="layer1"
     showgrid="false"
     fit-margin-top="0"
     fit-margin-left="0"
     fit-margin-right="0"
     fit-margin-bottom="0"
     inkscape:window-width="1600"
     inkscape:window-height="846"
     inkscape:window-x="-5"
     inkscape:window-y="28"
     inkscape:window-maximized="1"
     inkscape:showpageshadow="false"
     borderlayer="true"
     showguides="false"
     inkscape:snap-bbox="true"
     inkscape:bbox-paths="true"
     inkscape:bbox-nodes="true"
     inkscape:snap-global="true"
     inkscape:object-nodes="true"
     inkscape:snap-bbox-edge-midpoints="true"
     inkscape:guide-bbox="true">
    <inkscape:grid
       type="xygrid"
       id="grid4063" />
    <sodipodi:guide
       position="4,8"
       orientation="28,0"
       id="guide4167" />
    <sodipodi:guide
       position="25,4"
       orientation="0,14"
       id="guide4183" />
    <sodipodi:guide
       position="28,44"
       orientation="0,1"
       id="guide4216" />
    <sodipodi:guide
       position="44,14"
       orientation="1,0"
       id="guide4253" />
  </sodipodi:namedview>
  <metadata
     id="metadata5458">
    <rdf:RDF>
      <cc:Work
         rdf:about="">
        <dc:format>image/svg+xml</dc:format>
        <dc:type
           rdf:resource="http://purl.org/dc/dcmitype/StillImage" />
        <dc:title></dc:title>
      </cc:Work>
    </rdf:RDF>
  </metadata>
  <g
     inkscape:label="Capa 1"
     inkscape:groupmode="layer"
     id="layer1"
     transform="translate(-384.57143,-499.798)">
    <path
       style="opacity:1;fill:#fecd38;fill-opacity:1;stroke:none"
       d="M 23.914062 4 C 16.251663 4 7.1445756 10.374921 5.2597656 17.431641 C 4.3722353 22.743232 5.8347206 26.491325 8.515625 29.064453 C 8.587408 29.815745 8.7309221 30.567068 8.6679688 31.318359 C 8.6660107 31.340486 8.6625053 31.362639 8.6601562 31.384766 C 8.6458178 31.526067 8.624464 31.667293 8.5917969 31.808594 C 8.5781964 31.866326 8.5561898 31.924689 8.5390625 31.982422 C 8.5076089 32.089885 8.4767483 32.197224 8.4316406 32.304688 C 8.3938689 32.394026 8.3392984 32.482928 8.2910156 32.572266 C 8.2461795 32.655599 8.2092034 32.738932 8.1542969 32.822266 C 8.0415691 32.9929 7.9099688 33.163352 7.75 33.333984 C 7.125 34.000649 6.578125 34.416668 6.109375 34.6875 C 4.703125 35.499814 4 34.999995 4 36 C 4 37.083331 6.4748535 39.046386 8.7441406 38.314453 C 9.0932617 38.201848 9.4379883 38.026682 9.7675781 37.773438 C 9.932373 37.646815 10.09375 37.500651 10.25 37.333984 C 10.536463 37.028424 10.785184 36.74286 11.005859 36.474609 C 11.224141 36.211638 11.409354 35.970125 11.576172 35.740234 C 11.614372 36.075208 11.592254 36.499311 11.429688 37.146484 C 10.782636 39.722294 7.36148 39.505504 9 41.333984 C 10.269614 42.750773 14.064737 42.805498 16.164062 40.964844 C 15.327257 42.862247 14.055185 44 16.5 44 C 20.25 44 24 41.333984 24 37.333984 C 24 41.333984 27.75 44 31.5 44 C 33.944815 44 32.672742 42.862247 31.835938 40.964844 C 33.935263 42.805498 37.730386 42.750773 39 41.333984 C 40.63852 39.505504 37.217363 39.722294 36.570312 37.146484 C 36.407474 36.49823 36.385362 36.073515 36.423828 35.738281 C 36.762397 36.204958 37.184635 36.730927 37.75 37.333984 C 40.25 40.000644 44 37.33333 44 36 C 44 34.66666 42.75 36.000644 40.25 33.333984 C 38.854751 31.845723 39.388123 30.357408 39.496094 28.869141 C 42.38852 26.253243 43.761915 22.533228 42.568359 17.431641 C 39.906429 9.8679402 31.576463 4 23.914062 4 z "
       transform="translate(384.57143,499.798)"
       id="rect4130" />
    <ellipse
       ry="4"
       rx="3"
       cy="516.79797"
       cx="401.57144"
       id="ellipse4237"
       style="opacity:0.2;fill:#000000;fill-opacity:1;stroke:none;stroke-width:1;stroke-linecap:round;stroke-linejoin:round;stroke-miterlimit:4;stroke-dasharray:none;stroke-opacity:1" />
    <ellipse
       style="opacity:1;fill:#ffffff;fill-opacity:1;stroke:none;stroke-width:1;stroke-linecap:round;stroke-linejoin:round;stroke-miterlimit:4;stroke-dasharray:none;stroke-opacity:1"
       id="path4219"
       cx="401.57144"
       cy="515.79797"
       rx="3"
       ry="4" />
    <ellipse
       ry="2"
       rx="1.5"
       cy="515.79797"
       cx="403.07144"
       id="ellipse4221"
       style="opacity:1;fill:#3f3f3f;fill-opacity:1;stroke:none;stroke-width:1;stroke-linecap:round;stroke-linejoin:round;stroke-miterlimit:4;stroke-dasharray:none;stroke-opacity:1" />
    <ellipse
       style="opacity:0.2;fill:#000000;fill-opacity:1;stroke:none;stroke-width:1;stroke-linecap:round;stroke-linejoin:round;stroke-miterlimit:4;stroke-dasharray:none;stroke-opacity:1"
       id="ellipse4239"
       cx="415.57144"
       cy="516.79797"
       rx="3"
       ry="4" />
    <ellipse
       ry="4"
       rx="3"
       cy="515.79797"
       cx="415.57144"
       id="ellipse4229"
       style="opacity:1;fill:#ffffff;fill-opacity:1;stroke:none;stroke-width:1;stroke-linecap:round;stroke-linejoin:round;stroke-miterlimit:4;stroke-dasharray:none;stroke-opacity:1" />
    <ellipse
       style="opacity:1;fill:#3f3f3f;fill-opacity:1;stroke:none;stroke-width:1;stroke-linecap:round;stroke-linejoin:round;stroke-miterlimit:4;stroke-dasharray:none;stroke-opacity:1"
       id="ellipse4231"
       cx="417.07144"
       cy="515.79797"
       rx="1.5"
       ry="2" />
    <path
       style="opacity:0.2;fill:#ffffff;fill-opacity:1;stroke:none"
       d="M 23.914062 4 C 16.251663 4 7.1445756 10.374921 5.2597656 17.431641 C 5.0514393 18.678409 4.9776785 19.836509 5.0136719 20.916016 C 5.0378476 20.127621 5.1142758 19.302352 5.2597656 18.431641 C 7.1445756 11.374921 16.251663 5 23.914062 5 C 31.576462 5 39.906429 10.867941 42.568359 18.431641 C 42.813684 19.480232 42.944891 20.46808 42.982422 21.402344 C 43.028549 20.182353 42.903243 18.863026 42.568359 17.431641 C 39.906429 9.8679398 31.576463 4 23.914062 4 z M 39.335938 31.355469 C 39.249087 32.34809 39.31943 33.341381 40.25 34.333984 C 42.28125 36.500646 43.472656 36.0428 43.853516 36.503906 C 43.945316 36.325191 44 36.153523 44 36 C 44 34.66666 42.75 36.000644 40.25 33.333984 C 39.631645 32.674408 39.401589 32.015058 39.335938 31.355469 z M 8.65625 31.402344 C 8.6419419 31.537722 8.6230961 31.673209 8.5917969 31.808594 C 8.5781964 31.866326 8.5561898 31.924689 8.5390625 31.982422 C 8.5076089 32.089885 8.4767483 32.197223 8.4316406 32.304688 C 8.3938689 32.394025 8.3392984 32.482928 8.2910156 32.572266 C 8.2461795 32.655599 8.2092034 32.738932 8.1542969 32.822266 C 8.0415691 32.9929 7.9099688 33.163352 7.75 33.333984 C 7.125 34.000649 6.578125 34.416668 6.109375 34.6875 C 4.703125 35.499814 4 34.999995 4 36 C 4 36.146832 4.052464 36.312168 4.1367188 36.482422 C 4.4033225 36.16979 5.060598 36.293318 6.109375 35.6875 C 6.578125 35.41667 7.125 35.000654 7.75 34.333984 C 7.90997 34.163354 8.0415669 33.992896 8.1542969 33.822266 C 8.2092169 33.738926 8.2462156 33.655566 8.2910156 33.572266 C 8.3393356 33.482926 8.3938406 33.393987 8.4316406 33.304688 C 8.4767606 33.197217 8.5075625 33.089882 8.5390625 32.982422 C 8.5561625 32.924692 8.5781969 32.866294 8.5917969 32.808594 C 8.6244969 32.667294 8.6458563 32.526066 8.6601562 32.384766 C 8.6631562 32.362666 8.6659687 32.340459 8.6679688 32.318359 C 8.6935644 32.012883 8.6802176 31.707828 8.65625 31.402344 z M 36.423828 36.738281 C 36.385358 37.073521 36.407472 37.498234 36.570312 38.146484 C 37.003733 39.871867 38.675743 40.346138 39.244141 41.019531 C 40.228188 39.521134 37.177741 39.564565 36.570312 37.146484 C 36.542089 37.034127 36.539717 36.960953 36.519531 36.861328 C 36.490399 36.821973 36.451786 36.776818 36.423828 36.738281 z M 11.576172 36.740234 C 11.548205 36.778777 11.509539 36.82404 11.480469 36.863281 C 11.460368 36.962366 11.457741 37.034802 11.429688 37.146484 C 10.822377 39.564089 7.7716415 39.522036 8.7539062 41.019531 C 9.3217295 40.345764 10.996116 39.872467 11.429688 38.146484 C 11.592267 37.499314 11.614372 37.075214 11.576172 36.740234 z M 16.164062 41.964844 C 15.92349 42.175775 15.657666 42.357578 15.378906 42.519531 C 15.091233 43.089536 14.951227 43.515839 15.259766 43.757812 C 15.477171 43.280214 15.850734 42.675303 16.164062 41.964844 z M 31.835938 41.964844 C 32.149266 42.675303 32.522828 43.280214 32.740234 43.757812 C 33.048353 43.516168 32.909917 43.090303 32.623047 42.521484 C 32.342975 42.359052 32.077526 42.176666 31.835938 41.964844 z "
       transform="translate(384.57143,499.798)"
       id="path4241" />
    <path
       style="opacity:0.3;fill:#000000;fill-opacity:1;stroke:none"
       d="M 5.0136719 19.916016 C 4.8903695 23.937055 6.2741924 26.91313 8.515625 29.064453 C 8.5582208 29.510268 8.621267 29.95652 8.65625 30.402344 C 8.656874 30.396428 8.6595575 30.390682 8.6601562 30.384766 C 8.6631562 30.362666 8.6659687 30.340459 8.6679688 30.318359 C 8.7309188 29.567069 8.587425 28.815743 8.515625 28.064453 C 6.463994 26.095303 5.1310195 23.435518 5.0136719 19.916016 z M 42.982422 20.402344 C 42.864147 23.530509 41.576976 25.987201 39.496094 27.869141 C 39.435928 28.698473 39.252962 29.52808 39.335938 30.357422 C 39.379258 29.86109 39.460086 29.365465 39.496094 28.869141 C 41.794004 26.79092 43.127486 24.013446 42.982422 20.402344 z M 36.423828 34.738281 C 36.392026 35.015417 36.423253 35.386164 36.519531 35.861328 C 36.843191 36.298563 37.231321 36.780726 37.75 37.333984 C 40.25 40.000644 44 37.33333 44 36 C 44 35.749999 43.941406 35.610315 43.853516 35.503906 C 43.148037 36.877314 39.962144 38.693599 37.75 36.333984 C 37.18464 35.730934 36.762398 35.204961 36.423828 34.738281 z M 11.576172 34.740234 C 11.409352 34.970134 11.224139 35.211639 11.005859 35.474609 C 10.785179 35.742859 10.53646 36.028424 10.25 36.333984 C 10.09375 36.500654 9.9323681 36.646808 9.7675781 36.773438 C 9.4379881 37.026678 9.0932606 37.201853 8.7441406 37.314453 C 6.7829512 37.947018 4.6767502 36.568169 4.1386719 35.482422 C 4.0477799 35.588982 4 35.745766 4 36 C 4 37.083331 6.4748535 39.046386 8.7441406 38.314453 C 9.0932617 38.201848 9.4379883 38.026682 9.7675781 37.773438 C 9.932373 37.646814 10.09375 37.500651 10.25 37.333984 C 10.536463 37.028424 10.785184 36.74286 11.005859 36.474609 C 11.187547 36.255725 11.336141 36.058105 11.480469 35.863281 C 11.57685 35.388196 11.60778 35.017407 11.576172 34.740234 z M 24 36.333984 C 24 40.333984 20.25 43 16.5 43 C 15.842355 43 15.46033 42.915106 15.259766 42.757812 C 14.89655 43.555726 14.970613 44 16.5 44 C 20.25 44 24 41.333984 24 37.333984 C 24 41.333984 27.75 44 31.5 44 C 33.029387 44 33.10345 43.555726 32.740234 42.757812 C 32.53967 42.915106 32.157648 43 31.5 43 C 27.75 43 24 40.333984 24 36.333984 z M 16.164062 39.964844 C 14.064742 41.805504 10.26961 41.750774 9 40.333984 C 8.8996653 40.222017 8.8200481 40.117271 8.7558594 40.019531 C 8.4757011 40.351441 8.4590276 40.730295 9 41.333984 C 10.124122 42.588416 13.225114 42.770832 15.378906 41.519531 C 15.599411 41.082614 15.898636 40.566687 16.164062 39.964844 z M 31.835938 39.964844 C 32.101364 40.566687 32.400588 41.082614 32.621094 41.519531 C 34.774886 42.770832 37.875878 42.588416 39 41.333984 C 39.540972 40.730295 39.524299 40.351441 39.244141 40.019531 C 39.179952 40.117271 39.100335 40.222017 39 40.333984 C 37.73039 41.750774 33.935257 41.805504 31.835938 39.964844 z "
       transform="translate(384.57143,499.798)"
       id="path4246" />
  </g>
</svg>
