<?xml version="1.0" encoding="UTF-8" standalone="no"?>
<!-- Created with Inkscape (http://www.inkscape.org/) -->

<svg
   xmlns:dc="http://purl.org/dc/elements/1.1/"
   xmlns:cc="http://creativecommons.org/ns#"
   xmlns:rdf="http://www.w3.org/1999/02/22-rdf-syntax-ns#"
   xmlns:svg="http://www.w3.org/2000/svg"
   xmlns="http://www.w3.org/2000/svg"
   xmlns:sodipodi="http://sodipodi.sourceforge.net/DTD/sodipodi-0.dtd"
   xmlns:inkscape="http://www.inkscape.org/namespaces/inkscape"
   id="svg2817"
   height="48"
   width="48"
   version="1.0"
   inkscape:version="0.91 r"
   sodipodi:docname="evernote.svg">
  <defs
     id="defs225" />
  <sodipodi:namedview
     pagecolor="#ffffff"
     bordercolor="#666666"
     borderopacity="1"
     objecttolerance="10"
     gridtolerance="10"
     guidetolerance="10"
     inkscape:pageopacity="0"
     inkscape:pageshadow="2"
     inkscape:window-width="1547"
     inkscape:window-height="876"
     id="namedview223"
     showgrid="false"
     inkscape:zoom="4.64"
     inkscape:cx="24"
     inkscape:cy="24"
     inkscape:window-x="53"
     inkscape:window-y="24"
     inkscape:window-maximized="1"
     inkscape:current-layer="svg2817" />
  <metadata
     id="metadata57">
    <rdf:RDF>
      <cc:Work
         rdf:about="">
        <dc:format>image/svg+xml</dc:format>
        <dc:type
           rdf:resource="http://purl.org/dc/dcmitype/StillImage" />
        <dc:title></dc:title>
      </cc:Work>
    </rdf:RDF>
  </metadata>
  <text
     id="text4087-2-6-5"
     opacity=".8"
     font-size="12.666px"
     xml:space="preserve"
     y="10.812601"
     x="877.22626"
     font-family="'Bitstream Vera Sans'"
     fill="#000000"><tspan
       id="tspan4089-7-2-9"
       y="10.812601"
       x="877.22626" /></text>
  <text
     id="text4087-2-6-5-5"
     opacity=".8"
     font-size="12.666px"
     xml:space="preserve"
     y="-29.929106"
     x="901.18719"
     font-family="'Bitstream Vera Sans'"
     fill="#000000"><tspan
       id="tspan4089-7-2-9-6"
       y="-29.929106"
       x="901.18719" /></text>
  <text
     id="text4087-2-6-5-2"
     opacity=".8"
     font-size="12.666px"
     xml:space="preserve"
     y="-60.007248"
     x="-569.37115"
     font-family="'Bitstream Vera Sans'"
     fill="#000000"><tspan
       id="tspan4089-7-2-9-2"
       y="-60.007248"
       x="-569.37115" /></text>
  <text
     id="text4087-2-6-5-59"
     opacity=".8"
     font-size="12.666px"
     xml:space="preserve"
     y="685.5462"
     x="-2393.0571"
     font-family="'Bitstream Vera Sans'"
     fill="#000000"><tspan
       id="tspan4089-7-2-9-4"
       y="685.5462"
       x="-2393.0571" /></text>
  <text
     id="text4087-2-6-5-1"
     opacity=".8"
     font-size="12.666px"
     xml:space="preserve"
     y="-445.32822"
     x="-454.88007"
     font-family="'Bitstream Vera Sans'"
     fill="#000000"><tspan
       id="tspan4089-7-2-9-7"
       y="-445.32822"
       x="-454.88007" /></text>
  <text
     id="text4087-2-6-5-7"
     opacity=".8"
     font-size="12.666px"
     xml:space="preserve"
     y="-858.79834"
     x="352.72208"
     font-family="'Bitstream Vera Sans'"
     fill="#000000"><tspan
       id="tspan4089-7-2-9-1"
       y="-858.79834"
       x="352.72208" /></text>
  <text
     id="text4087-2-6-5-5-3"
     opacity=".8"
     font-size="12.666px"
     xml:space="preserve"
     y="-899.54004"
     x="376.68301"
     font-family="'Bitstream Vera Sans'"
     fill="#000000"><tspan
       id="tspan4089-7-2-9-6-5"
       y="-899.54004"
       x="376.68301" /></text>
  <text
     id="text4087-2-6-5-3"
     opacity=".8"
     font-size="12.666px"
     xml:space="preserve"
     y="-906.74994"
     x="-1114.7802"
     font-family="'Bitstream Vera Sans'"
     fill="#000000"><tspan
       id="tspan4089-7-2-9-18"
       y="-906.74994"
       x="-1114.7802" /></text>
  <text
     id="text4087-2-6-5-4"
     opacity=".8"
     font-size="12.666px"
     xml:space="preserve"
     y="-1179.9841"
     x="345.7626"
     font-family="'Bitstream Vera Sans'"
     fill="#000000"><tspan
       id="tspan4089-7-2-9-9"
       y="-1179.9841"
       x="345.7626" /></text>
  <text
     id="text4087-2-6-5-7-1"
     opacity=".8"
     font-size="12.666px"
     xml:space="preserve"
     y="-553.29272"
     x="1831.8861"
     font-family="'Bitstream Vera Sans'"
     fill="#000000"><tspan
       id="tspan4089-7-2-9-1-8"
       y="-553.29272"
       x="1831.8861" /></text>
  <text
     id="text4087-2-6-5-5-5"
     opacity=".8"
     font-size="12.666px"
     xml:space="preserve"
     y="-594.03448"
     x="1855.8469"
     font-family="'Bitstream Vera Sans'"
     fill="#000000"><tspan
       id="tspan4089-7-2-9-6-9"
       y="-594.03448"
       x="1855.8469" /></text>
  <text
     id="text4087-2-6-5-75"
     opacity=".8"
     font-size="12.666px"
     xml:space="preserve"
     y="-601.24438"
     x="364.38376"
     font-family="'Bitstream Vera Sans'"
     fill="#000000"><tspan
       id="tspan4089-7-2-9-3"
       y="-601.24438"
       x="364.38376" /></text>
  <text
     id="text4087-2-6-5-4-8"
     opacity=".8"
     font-size="12.666px"
     xml:space="preserve"
     y="-874.47839"
     x="1824.9266"
     font-family="'Bitstream Vera Sans'"
     fill="#000000"><tspan
       id="tspan4089-7-2-9-9-8"
       y="-874.47839"
       x="1824.9266" /></text>
  <text
     id="text4087-2-6-5-45"
     opacity=".8"
     font-size="12.666px"
     xml:space="preserve"
     y="-649.33569"
     x="-573.43256"
     font-family="'Bitstream Vera Sans'"
     fill="#000000"><tspan
       id="tspan4089-7-2-9-75"
       y="-649.33569"
       x="-573.43256" /></text>
  <text
     id="text4087-2-6-5-59-7"
     opacity=".8"
     font-size="12.666px"
     xml:space="preserve"
     y="96.217857"
     x="-2397.1182"
     font-family="'Bitstream Vera Sans'"
     fill="#000000"><tspan
       id="tspan4089-7-2-9-4-0"
       y="96.217857"
       x="-2397.1182" /></text>
  <text
     id="text4087-2-6-5-8"
     opacity=".8"
     font-size="12.666px"
     xml:space="preserve"
     y="189.09"
     x="-682.36279"
     font-family="'Bitstream Vera Sans'"
     fill="#000000"><tspan
       id="tspan4089-7-2-9-19"
       y="189.09"
       x="-682.36279" /></text>
  <text
     id="text4087-2-6-5-7-5"
     opacity=".8"
     font-size="12.666px"
     xml:space="preserve"
     y="9.9078522"
     x="426.66153"
     font-family="'Bitstream Vera Sans'"
     fill="#000000"><tspan
       id="tspan4089-7-2-9-1-2"
       y="9.9078522"
       x="426.66153" /></text>
  <text
     id="text4087-2-6-5-5-0"
     opacity=".8"
     font-size="12.666px"
     xml:space="preserve"
     y="-30.833855"
     x="450.62247"
     font-family="'Bitstream Vera Sans'"
     fill="#000000"><tspan
       id="tspan4089-7-2-9-6-2"
       y="-30.833855"
       x="450.62247" /></text>
  <text
     id="text4087-2-6-5-26"
     opacity=".8"
     font-size="12.666px"
     xml:space="preserve"
     y="-38.043827"
     x="-1040.8407"
     font-family="'Bitstream Vera Sans'"
     fill="#000000"><tspan
       id="tspan4089-7-2-9-90"
       y="-38.043827"
       x="-1040.8407" /></text>
  <text
     id="text4087-2-6-5-4-3"
     opacity=".8"
     font-size="12.666px"
     xml:space="preserve"
     y="-311.27789"
     x="419.70206"
     font-family="'Bitstream Vera Sans'"
     fill="#000000"><tspan
       id="tspan4089-7-2-9-9-5"
       y="-311.27789"
       x="419.70206" /></text>
  <text
     id="text4087-2-6-5-55"
     opacity=".8"
     font-size="12.666px"
     xml:space="preserve"
     y="-40.758072"
     x="-608.03253"
     font-family="'Bitstream Vera Sans'"
     fill="#000000"><tspan
       id="tspan4089-7-2-9-32"
       y="-40.758072"
       x="-608.03253" /></text>
  <text
     id="text4087-2-6-5-59-9"
     opacity=".8"
     font-size="12.666px"
     xml:space="preserve"
     y="704.79541"
     x="-2431.7185"
     font-family="'Bitstream Vera Sans'"
     fill="#000000"><tspan
       id="tspan4089-7-2-9-4-1"
       y="704.79541"
       x="-2431.7185" /></text>
  <text
     id="text4087-2-6-5-1-8"
     opacity=".8"
     font-size="12.666px"
     xml:space="preserve"
     y="-902.28857"
     x="-456.93948"
     font-family="'Bitstream Vera Sans'"
     fill="#000000"><tspan
       id="tspan4089-7-2-9-7-8"
       y="-902.28857"
       x="-456.93948" /></text>
  <text
     id="text4087-2-6-5-7-8"
     opacity=".8"
     font-size="12.666px"
     xml:space="preserve"
     y="-1315.7588"
     x="350.66266"
     font-family="'Bitstream Vera Sans'"
     fill="#000000"><tspan
       id="tspan4089-7-2-9-1-9"
       y="-1315.7588"
       x="350.66266" /></text>
  <text
     id="text4087-2-6-5-5-52"
     opacity=".8"
     font-size="12.666px"
     xml:space="preserve"
     y="-1356.5005"
     x="374.62357"
     font-family="'Bitstream Vera Sans'"
     fill="#000000"><tspan
       id="tspan4089-7-2-9-6-4"
       y="-1356.5005"
       x="374.62357" /></text>
  <text
     id="text4087-2-6-5-3-4"
     opacity=".8"
     font-size="12.666px"
     xml:space="preserve"
     y="-1363.7104"
     x="-1116.8396"
     font-family="'Bitstream Vera Sans'"
     fill="#000000"><tspan
       id="tspan4089-7-2-9-18-3"
       y="-1363.7104"
       x="-1116.8396" /></text>
  <text
     id="text4087-2-6-5-4-7"
     opacity=".8"
     font-size="12.666px"
     xml:space="preserve"
     y="-1636.9446"
     x="343.70316"
     font-family="'Bitstream Vera Sans'"
     fill="#000000"><tspan
       id="tspan4089-7-2-9-9-54"
       y="-1636.9446"
       x="343.70316" /></text>
  <text
     id="text4087-2-6-5-7-1-2"
     opacity=".8"
     font-size="12.666px"
     xml:space="preserve"
     y="-1010.2533"
     x="1829.8265"
     font-family="'Bitstream Vera Sans'"
     fill="#000000"><tspan
       id="tspan4089-7-2-9-1-8-0"
       y="-1010.2533"
       x="1829.8265" /></text>
  <text
     id="text4087-2-6-5-5-5-6"
     opacity=".8"
     font-size="12.666px"
     xml:space="preserve"
     y="-1050.9949"
     x="1853.7874"
     font-family="'Bitstream Vera Sans'"
     fill="#000000"><tspan
       id="tspan4089-7-2-9-6-9-8"
       y="-1050.9949"
       x="1853.7874" /></text>
  <text
     id="text4087-2-6-5-75-4"
     opacity=".8"
     font-size="12.666px"
     xml:space="preserve"
     y="-1058.2048"
     x="362.32431"
     font-family="'Bitstream Vera Sans'"
     fill="#000000"><tspan
       id="tspan4089-7-2-9-3-9"
       y="-1058.2048"
       x="362.32431" /></text>
  <text
     id="text4087-2-6-5-4-8-1"
     opacity=".8"
     font-size="12.666px"
     xml:space="preserve"
     y="-1331.439"
     x="1822.8671"
     font-family="'Bitstream Vera Sans'"
     fill="#000000"><tspan
       id="tspan4089-7-2-9-9-8-8"
       y="-1331.439"
       x="1822.8671" /></text>
  <text
     id="text4087-2-6-5-45-0"
     opacity=".8"
     font-size="12.666px"
     xml:space="preserve"
     y="-1106.2961"
     x="-575.492"
     font-family="'Bitstream Vera Sans'"
     fill="#000000"><tspan
       id="tspan4089-7-2-9-75-2"
       y="-1106.2961"
       x="-575.492" /></text>
  <text
     id="text4087-2-6-5-59-5"
     opacity=".8"
     font-size="12.666px"
     xml:space="preserve"
     y="-360.74261"
     x="-2399.1777"
     font-family="'Bitstream Vera Sans'"
     fill="#000000"><tspan
       id="tspan4089-7-2-9-4-00"
       y="-360.74261"
       x="-2399.1777" /></text>
  <text
     id="text4087-2-6-5-264"
     opacity=".8"
     font-size="12.666px"
     xml:space="preserve"
     y="-267.87045"
     x="-684.42224"
     font-family="'Bitstream Vera Sans'"
     fill="#000000"><tspan
       id="tspan4089-7-2-9-8"
       y="-267.87045"
       x="-684.42224" /></text>
  <text
     id="text4087-2-6-5-42"
     opacity=".8"
     font-size="12.666px"
     xml:space="preserve"
     y="-26.956278"
     x="155.5923"
     font-family="'Bitstream Vera Sans'"
     fill="#000000"><tspan
       id="tspan4089-7-2-9-93"
       y="-26.956278"
       x="155.5923" /></text>
  <text
     id="text4087-2-6-5-5-05"
     opacity=".8"
     font-size="12.666px"
     xml:space="preserve"
     y="-67.697998"
     x="179.55324"
     font-family="'Bitstream Vera Sans'"
     fill="#000000"><tspan
       id="tspan4089-7-2-9-6-49"
       y="-67.697998"
       x="179.55324" /></text>
  <text
     id="text4087-2-6-5-1-4"
     opacity=".8"
     font-size="12.666px"
     xml:space="preserve"
     y="-261.72662"
     x="-1090.2634"
     font-family="'Bitstream Vera Sans'"
     fill="#000000"><tspan
       id="tspan4089-7-2-9-7-7"
       y="-261.72662"
       x="-1090.2634" /></text>
  <text
     id="text4087-2-6-5-7-56"
     opacity=".8"
     font-size="12.666px"
     xml:space="preserve"
     y="-675.19678"
     x="-282.66141"
     font-family="'Bitstream Vera Sans'"
     fill="#000000"><tspan
       id="tspan4089-7-2-9-1-1"
       y="-675.19678"
       x="-282.66141" /></text>
  <text
     id="text4087-2-6-5-5-8"
     opacity=".8"
     font-size="12.666px"
     xml:space="preserve"
     y="-715.93848"
     x="-258.70047"
     font-family="'Bitstream Vera Sans'"
     fill="#000000"><tspan
       id="tspan4089-7-2-9-6-7"
       y="-715.93848"
       x="-258.70047" /></text>
  <text
     id="text4087-2-6-5-3-42"
     opacity=".8"
     font-size="12.666px"
     xml:space="preserve"
     y="-723.14838"
     x="-1750.1636"
     font-family="'Bitstream Vera Sans'"
     fill="#000000"><tspan
       id="tspan4089-7-2-9-18-39"
       y="-723.14838"
       x="-1750.1636" /></text>
  <text
     id="text4087-2-6-5-4-4"
     opacity=".8"
     font-size="12.666px"
     xml:space="preserve"
     y="-996.38251"
     x="-289.62085"
     font-family="'Bitstream Vera Sans'"
     fill="#000000"><tspan
       id="tspan4089-7-2-9-9-3"
       y="-996.38251"
       x="-289.62085" /></text>
  <text
     id="text4087-2-6-5-7-1-0"
     opacity=".8"
     font-size="12.666px"
     xml:space="preserve"
     y="-369.69113"
     x="1196.5026"
     font-family="'Bitstream Vera Sans'"
     fill="#000000"><tspan
       id="tspan4089-7-2-9-1-8-5"
       y="-369.69113"
       x="1196.5026" /></text>
  <text
     id="text4087-2-6-5-5-5-5"
     opacity=".8"
     font-size="12.666px"
     xml:space="preserve"
     y="-410.43286"
     x="1220.4634"
     font-family="'Bitstream Vera Sans'"
     fill="#000000"><tspan
       id="tspan4089-7-2-9-6-9-2"
       y="-410.43286"
       x="1220.4634" /></text>
  <text
     id="text4087-2-6-5-75-9"
     opacity=".8"
     font-size="12.666px"
     xml:space="preserve"
     y="-417.64282"
     x="-270.99973"
     font-family="'Bitstream Vera Sans'"
     fill="#000000"><tspan
       id="tspan4089-7-2-9-3-1"
       y="-417.64282"
       x="-270.99973" /></text>
  <text
     id="text4087-2-6-5-4-8-18"
     opacity=".8"
     font-size="12.666px"
     xml:space="preserve"
     y="-690.87689"
     x="1189.5431"
     font-family="'Bitstream Vera Sans'"
     fill="#000000"><tspan
       id="tspan4089-7-2-9-9-8-4"
       y="-690.87689"
       x="1189.5431" /></text>
  <text
     id="text4087-2-6-5-45-3"
     opacity=".8"
     font-size="12.666px"
     xml:space="preserve"
     y="-465.7341"
     x="-1208.816"
     font-family="'Bitstream Vera Sans'"
     fill="#000000"><tspan
       id="tspan4089-7-2-9-75-7"
       y="-465.7341"
       x="-1208.816" /></text>
  <text
     id="text4087-2-6-5-59-8"
     opacity=".8"
     font-size="12.666px"
     xml:space="preserve"
     y="279.81946"
     x="-3032.5017"
     font-family="'Bitstream Vera Sans'"
     fill="#000000"><tspan
       id="tspan4089-7-2-9-4-2"
       y="279.81946"
       x="-3032.5017" /></text>
  <g
     id="layer4-0"
     transform="matrix(.90475 0 0 .90475 -716.75 -676.29)">
    <text
       id="text4087-2-6-5-20"
       opacity=".8"
       font-size="14px"
       xml:space="preserve"
       y="1159.4154"
       x="-664.2738"
       font-family="'Bitstream Vera Sans'"
       fill="#000000"><tspan
         id="tspan4089-7-2-9-82"
         y="1159.4154"
         x="-664.2738" /></text>
  </g>
  <text
     id="text4087-2-6-5-9"
     opacity=".8"
     font-size="12.666px"
     xml:space="preserve"
     y="18.050589"
     x="877.22626"
     font-family="'Bitstream Vera Sans'"
     fill="#000000"><tspan
       id="tspan4089-7-2-9-43"
       y="18.050589"
       x="877.22626" /></text>
  <text
     id="text4087-2-6-5-5-51"
     opacity=".8"
     font-size="12.666px"
     xml:space="preserve"
     y="-22.691116"
     x="901.18719"
     font-family="'Bitstream Vera Sans'"
     fill="#000000"><tspan
       id="tspan4089-7-2-9-6-74"
       y="-22.691116"
       x="901.18719" /></text>
  <text
     id="text4087-2-6-5-2-3"
     opacity=".8"
     font-size="12.666px"
     xml:space="preserve"
     y="-52.76926"
     x="-569.37115"
     font-family="'Bitstream Vera Sans'"
     fill="#000000"><tspan
       id="tspan4089-7-2-9-2-1"
       y="-52.76926"
       x="-569.37115" /></text>
  <text
     id="text4087-2-6-5-59-4"
     opacity=".8"
     font-size="12.666px"
     xml:space="preserve"
     y="692.78418"
     x="-2393.0571"
     font-family="'Bitstream Vera Sans'"
     fill="#000000"><tspan
       id="tspan4089-7-2-9-4-6"
       y="692.78418"
       x="-2393.0571" /></text>
  <text
     id="text4087-2-6-5-1-9"
     opacity=".8"
     font-size="12.666px"
     xml:space="preserve"
     y="-438.09021"
     x="-454.88007"
     font-family="'Bitstream Vera Sans'"
     fill="#000000"><tspan
       id="tspan4089-7-2-9-7-4"
       y="-438.09021"
       x="-454.88007" /></text>
  <text
     id="text4087-2-6-5-7-2"
     opacity=".8"
     font-size="12.666px"
     xml:space="preserve"
     y="-851.5603"
     x="352.72208"
     font-family="'Bitstream Vera Sans'"
     fill="#000000"><tspan
       id="tspan4089-7-2-9-1-26"
       y="-851.5603"
       x="352.72208" /></text>
  <text
     id="text4087-2-6-5-5-3-4"
     opacity=".8"
     font-size="12.666px"
     xml:space="preserve"
     y="-892.30206"
     x="376.68301"
     font-family="'Bitstream Vera Sans'"
     fill="#000000"><tspan
       id="tspan4089-7-2-9-6-5-1"
       y="-892.30206"
       x="376.68301" /></text>
  <text
     id="text4087-2-6-5-3-2"
     opacity=".8"
     font-size="12.666px"
     xml:space="preserve"
     y="-899.51196"
     x="-1114.7802"
     font-family="'Bitstream Vera Sans'"
     fill="#000000"><tspan
       id="tspan4089-7-2-9-18-8"
       y="-899.51196"
       x="-1114.7802" /></text>
  <text
     id="text4087-2-6-5-4-89"
     opacity=".8"
     font-size="12.666px"
     xml:space="preserve"
     y="-1172.7461"
     x="345.7626"
     font-family="'Bitstream Vera Sans'"
     fill="#000000"><tspan
       id="tspan4089-7-2-9-9-2"
       y="-1172.7461"
       x="345.7626" /></text>
  <text
     id="text4087-2-6-5-7-1-8"
     opacity=".8"
     font-size="12.666px"
     xml:space="preserve"
     y="-546.05475"
     x="1831.8861"
     font-family="'Bitstream Vera Sans'"
     fill="#000000"><tspan
       id="tspan4089-7-2-9-1-8-8"
       y="-546.05475"
       x="1831.8861" /></text>
  <text
     id="text4087-2-6-5-5-5-8"
     opacity=".8"
     font-size="12.666px"
     xml:space="preserve"
     y="-586.79651"
     x="1855.8469"
     font-family="'Bitstream Vera Sans'"
     fill="#000000"><tspan
       id="tspan4089-7-2-9-6-9-6"
       y="-586.79651"
       x="1855.8469" /></text>
  <text
     id="text4087-2-6-5-75-8"
     opacity=".8"
     font-size="12.666px"
     xml:space="preserve"
     y="-594.00641"
     x="364.38376"
     font-family="'Bitstream Vera Sans'"
     fill="#000000"><tspan
       id="tspan4089-7-2-9-3-3"
       y="-594.00641"
       x="364.38376" /></text>
  <text
     id="text4087-2-6-5-4-8-8"
     opacity=".8"
     font-size="12.666px"
     xml:space="preserve"
     y="-867.24036"
     x="1824.9266"
     font-family="'Bitstream Vera Sans'"
     fill="#000000"><tspan
       id="tspan4089-7-2-9-9-8-3"
       y="-867.24036"
       x="1824.9266" /></text>
  <text
     id="text4087-2-6-5-45-33"
     opacity=".8"
     font-size="12.666px"
     xml:space="preserve"
     y="-642.09772"
     x="-573.43256"
     font-family="'Bitstream Vera Sans'"
     fill="#000000"><tspan
       id="tspan4089-7-2-9-75-8"
       y="-642.09772"
       x="-573.43256" /></text>
  <text
     id="text4087-2-6-5-59-7-0"
     opacity=".8"
     font-size="12.666px"
     xml:space="preserve"
     y="103.45585"
     x="-2397.1182"
     font-family="'Bitstream Vera Sans'"
     fill="#000000"><tspan
       id="tspan4089-7-2-9-4-0-4"
       y="103.45585"
       x="-2397.1182" /></text>
  <text
     id="text4087-2-6-5-8-7"
     opacity=".8"
     font-size="12.666px"
     xml:space="preserve"
     y="196.32799"
     x="-682.36279"
     font-family="'Bitstream Vera Sans'"
     fill="#000000"><tspan
       id="tspan4089-7-2-9-19-6"
       y="196.32799"
       x="-682.36279" /></text>
  <text
     id="text4087-2-6-5-7-5-8"
     opacity=".8"
     font-size="12.666px"
     xml:space="preserve"
     y="17.14584"
     x="426.66153"
     font-family="'Bitstream Vera Sans'"
     fill="#000000"><tspan
       id="tspan4089-7-2-9-1-2-9"
       y="17.14584"
       x="426.66153" /></text>
  <text
     id="text4087-2-6-5-5-0-0"
     opacity=".8"
     font-size="12.666px"
     xml:space="preserve"
     y="-23.595865"
     x="450.62247"
     font-family="'Bitstream Vera Sans'"
     fill="#000000"><tspan
       id="tspan4089-7-2-9-6-2-6"
       y="-23.595865"
       x="450.62247" /></text>
  <text
     id="text4087-2-6-5-26-8"
     opacity=".8"
     font-size="12.666px"
     xml:space="preserve"
     y="-30.805836"
     x="-1040.8407"
     font-family="'Bitstream Vera Sans'"
     fill="#000000"><tspan
       id="tspan4089-7-2-9-90-7"
       y="-30.805836"
       x="-1040.8407" /></text>
  <text
     id="text4087-2-6-5-4-3-9"
     opacity=".8"
     font-size="12.666px"
     xml:space="preserve"
     y="-304.03989"
     x="419.70206"
     font-family="'Bitstream Vera Sans'"
     fill="#000000"><tspan
       id="tspan4089-7-2-9-9-5-0"
       y="-304.03989"
       x="419.70206" /></text>
  <text
     id="text4087-2-6-5-55-3"
     opacity=".8"
     font-size="12.666px"
     xml:space="preserve"
     y="-33.520081"
     x="-608.03253"
     font-family="'Bitstream Vera Sans'"
     fill="#000000"><tspan
       id="tspan4089-7-2-9-32-3"
       y="-33.520081"
       x="-608.03253" /></text>
  <text
     id="text4087-2-6-5-59-9-3"
     opacity=".8"
     font-size="12.666px"
     xml:space="preserve"
     y="712.03345"
     x="-2431.7185"
     font-family="'Bitstream Vera Sans'"
     fill="#000000"><tspan
       id="tspan4089-7-2-9-4-1-7"
       y="712.03345"
       x="-2431.7185" /></text>
  <text
     id="text4087-2-6-5-1-8-3"
     opacity=".8"
     font-size="12.666px"
     xml:space="preserve"
     y="-895.0506"
     x="-456.93948"
     font-family="'Bitstream Vera Sans'"
     fill="#000000"><tspan
       id="tspan4089-7-2-9-7-8-2"
       y="-895.0506"
       x="-456.93948" /></text>
  <text
     id="text4087-2-6-5-7-8-6"
     opacity=".8"
     font-size="12.666px"
     xml:space="preserve"
     y="-1308.5208"
     x="350.66266"
     font-family="'Bitstream Vera Sans'"
     fill="#000000"><tspan
       id="tspan4089-7-2-9-1-9-5"
       y="-1308.5208"
       x="350.66266" /></text>
  <text
     id="text4087-2-6-5-5-52-2"
     opacity=".8"
     font-size="12.666px"
     xml:space="preserve"
     y="-1349.2626"
     x="374.62357"
     font-family="'Bitstream Vera Sans'"
     fill="#000000"><tspan
       id="tspan4089-7-2-9-6-4-6"
       y="-1349.2626"
       x="374.62357" /></text>
  <text
     id="text4087-2-6-5-3-4-5"
     opacity=".8"
     font-size="12.666px"
     xml:space="preserve"
     y="-1356.4724"
     x="-1116.8396"
     font-family="'Bitstream Vera Sans'"
     fill="#000000"><tspan
       id="tspan4089-7-2-9-18-3-8"
       y="-1356.4724"
       x="-1116.8396" /></text>
  <text
     id="text4087-2-6-5-4-7-7"
     opacity=".8"
     font-size="12.666px"
     xml:space="preserve"
     y="-1629.7065"
     x="343.70316"
     font-family="'Bitstream Vera Sans'"
     fill="#000000"><tspan
       id="tspan4089-7-2-9-9-54-9"
       y="-1629.7065"
       x="343.70316" /></text>
  <text
     id="text4087-2-6-5-7-1-2-6"
     opacity=".8"
     font-size="12.666px"
     xml:space="preserve"
     y="-1003.0153"
     x="1829.8265"
     font-family="'Bitstream Vera Sans'"
     fill="#000000"><tspan
       id="tspan4089-7-2-9-1-8-0-0"
       y="-1003.0153"
       x="1829.8265" /></text>
  <text
     id="text4087-2-6-5-5-5-6-4"
     opacity=".8"
     font-size="12.666px"
     xml:space="preserve"
     y="-1043.757"
     x="1853.7874"
     font-family="'Bitstream Vera Sans'"
     fill="#000000"><tspan
       id="tspan4089-7-2-9-6-9-8-1"
       y="-1043.757"
       x="1853.7874" /></text>
  <text
     id="text4087-2-6-5-75-4-0"
     opacity=".8"
     font-size="12.666px"
     xml:space="preserve"
     y="-1050.9668"
     x="362.32431"
     font-family="'Bitstream Vera Sans'"
     fill="#000000"><tspan
       id="tspan4089-7-2-9-3-9-4"
       y="-1050.9668"
       x="362.32431" /></text>
  <text
     id="text4087-2-6-5-4-8-1-8"
     opacity=".8"
     font-size="12.666px"
     xml:space="preserve"
     y="-1324.2009"
     x="1822.8671"
     font-family="'Bitstream Vera Sans'"
     fill="#000000"><tspan
       id="tspan4089-7-2-9-9-8-8-7"
       y="-1324.2009"
       x="1822.8671" /></text>
  <text
     id="text4087-2-6-5-45-0-0"
     opacity=".8"
     font-size="12.666px"
     xml:space="preserve"
     y="-1099.0581"
     x="-575.492"
     font-family="'Bitstream Vera Sans'"
     fill="#000000"><tspan
       id="tspan4089-7-2-9-75-2-8"
       y="-1099.0581"
       x="-575.492" /></text>
  <text
     id="text4087-2-6-5-59-5-6"
     opacity=".8"
     font-size="12.666px"
     xml:space="preserve"
     y="-353.50461"
     x="-2399.1777"
     font-family="'Bitstream Vera Sans'"
     fill="#000000"><tspan
       id="tspan4089-7-2-9-4-00-2"
       y="-353.50461"
       x="-2399.1777" /></text>
  <text
     id="text4087-2-6-5-264-4"
     opacity=".8"
     font-size="12.666px"
     xml:space="preserve"
     y="-260.63245"
     x="-684.42224"
     font-family="'Bitstream Vera Sans'"
     fill="#000000"><tspan
       id="tspan4089-7-2-9-8-7"
       y="-260.63245"
       x="-684.42224" /></text>
  <text
     id="text4087-2-6-5-42-9"
     opacity=".8"
     font-size="12.666px"
     xml:space="preserve"
     y="-19.71829"
     x="155.5923"
     font-family="'Bitstream Vera Sans'"
     fill="#000000"><tspan
       id="tspan4089-7-2-9-93-3"
       y="-19.71829"
       x="155.5923" /></text>
  <text
     id="text4087-2-6-5-5-05-9"
     opacity=".8"
     font-size="12.666px"
     xml:space="preserve"
     y="-60.460011"
     x="179.55324"
     font-family="'Bitstream Vera Sans'"
     fill="#000000"><tspan
       id="tspan4089-7-2-9-6-49-2"
       y="-60.460011"
       x="179.55324" /></text>
  <text
     id="text4087-2-6-5-1-4-8"
     opacity=".8"
     font-size="12.666px"
     xml:space="preserve"
     y="-254.4886"
     x="-1090.2634"
     font-family="'Bitstream Vera Sans'"
     fill="#000000"><tspan
       id="tspan4089-7-2-9-7-7-3"
       y="-254.4886"
       x="-1090.2634" /></text>
  <text
     id="text4087-2-6-5-7-56-0"
     opacity=".8"
     font-size="12.666px"
     xml:space="preserve"
     y="-667.9588"
     x="-282.66141"
     font-family="'Bitstream Vera Sans'"
     fill="#000000"><tspan
       id="tspan4089-7-2-9-1-1-1"
       y="-667.9588"
       x="-282.66141" /></text>
  <text
     id="text4087-2-6-5-5-8-7"
     opacity=".8"
     font-size="12.666px"
     xml:space="preserve"
     y="-708.7005"
     x="-258.70047"
     font-family="'Bitstream Vera Sans'"
     fill="#000000"><tspan
       id="tspan4089-7-2-9-6-7-8"
       y="-708.7005"
       x="-258.70047" /></text>
  <text
     id="text4087-2-6-5-3-42-9"
     opacity=".8"
     font-size="12.666px"
     xml:space="preserve"
     y="-715.91046"
     x="-1750.1636"
     font-family="'Bitstream Vera Sans'"
     fill="#000000"><tspan
       id="tspan4089-7-2-9-18-39-1"
       y="-715.91046"
       x="-1750.1636" /></text>
  <text
     id="text4087-2-6-5-4-4-5"
     opacity=".8"
     font-size="12.666px"
     xml:space="preserve"
     y="-989.14447"
     x="-289.62085"
     font-family="'Bitstream Vera Sans'"
     fill="#000000"><tspan
       id="tspan4089-7-2-9-9-3-4"
       y="-989.14447"
       x="-289.62085" /></text>
  <text
     id="text4087-2-6-5-7-1-0-9"
     opacity=".8"
     font-size="12.666px"
     xml:space="preserve"
     y="-362.45316"
     x="1196.5026"
     font-family="'Bitstream Vera Sans'"
     fill="#000000"><tspan
       id="tspan4089-7-2-9-1-8-5-2"
       y="-362.45316"
       x="1196.5026" /></text>
  <text
     id="text4087-2-6-5-5-5-5-5"
     opacity=".8"
     font-size="12.666px"
     xml:space="preserve"
     y="-403.19489"
     x="1220.4634"
     font-family="'Bitstream Vera Sans'"
     fill="#000000"><tspan
       id="tspan4089-7-2-9-6-9-2-7"
       y="-403.19489"
       x="1220.4634" /></text>
  <text
     id="text4087-2-6-5-75-9-4"
     opacity=".8"
     font-size="12.666px"
     xml:space="preserve"
     y="-410.40482"
     x="-270.99973"
     font-family="'Bitstream Vera Sans'"
     fill="#000000"><tspan
       id="tspan4089-7-2-9-3-1-9"
       y="-410.40482"
       x="-270.99973" /></text>
  <text
     id="text4087-2-6-5-4-8-18-9"
     opacity=".8"
     font-size="12.666px"
     xml:space="preserve"
     y="-683.63892"
     x="1189.5431"
     font-family="'Bitstream Vera Sans'"
     fill="#000000"><tspan
       id="tspan4089-7-2-9-9-8-4-4"
       y="-683.63892"
       x="1189.5431" /></text>
  <text
     id="text4087-2-6-5-45-3-5"
     opacity=".8"
     font-size="12.666px"
     xml:space="preserve"
     y="-458.49609"
     x="-1208.816"
     font-family="'Bitstream Vera Sans'"
     fill="#000000"><tspan
       id="tspan4089-7-2-9-75-7-9"
       y="-458.49609"
       x="-1208.816" /></text>
  <text
     id="text4087-2-6-5-59-8-3"
     opacity=".8"
     font-size="12.666px"
     xml:space="preserve"
     y="287.05743"
     x="-3032.5017"
     font-family="'Bitstream Vera Sans'"
     fill="#000000"><tspan
       id="tspan4089-7-2-9-4-2-5"
       y="287.05743"
       x="-3032.5017" /></text>
  <g
     id="layer4-0-7"
     transform="matrix(.90475 0 0 .90475 -716.75 -669.05)">
    <text
       id="text4087-2-6-5-20-0"
       opacity=".8"
       font-size="14px"
       xml:space="preserve"
       y="1159.4154"
       x="-664.2738"
       font-family="'Bitstream Vera Sans'"
       fill="#000000"><tspan
         id="tspan4089-7-2-9-82-8"
         y="1159.4154"
         x="-664.2738" /></text>
  </g>
  <text
     id="text7276"
     font-size="12.666px"
     xml:space="preserve"
     y="-361.22546"
     x="435.90427"
     font-family="'Droid Sans'"
     fill="#000000"><tspan
       id="tspan7278"
       y="-361.22546"
       x="435.90427" /><tspan
       id="tspan7280"
       y="-345.3924"
       x="435.90427" /></text>
  <text
     id="text4087-2-6-5-51"
     opacity=".8"
     font-size="12.666px"
     xml:space="preserve"
     y="-843.27002"
     x="901.0882"
     font-family="'Bitstream Vera Sans'"
     fill="#000000"><tspan
       id="tspan4089-7-2-9-97"
       y="-843.27002"
       x="901.0882" /></text>
  <text
     id="text4087-2-6-5-59-2"
     opacity=".8"
     font-size="12.666px"
     xml:space="preserve"
     y="-97.716553"
     x="-922.59778"
     font-family="'Bitstream Vera Sans'"
     fill="#000000"><tspan
       id="tspan4089-7-2-9-4-4"
       y="-97.716553"
       x="-922.59778" /></text>
  <text
     id="text4087-2-6-5-7-7"
     opacity=".8"
     font-size="12.666px"
     xml:space="preserve"
     y="-1128.2659"
     x="1628.1677"
     font-family="'Bitstream Vera Sans'"
     fill="#000000"><tspan
       id="tspan4089-7-2-9-1-6"
       y="-1128.2659"
       x="1628.1677" /></text>
  <text
     id="text4087-2-6-5-5-6"
     opacity=".8"
     font-size="12.666px"
     xml:space="preserve"
     y="-1169.0076"
     x="1652.1285"
     font-family="'Bitstream Vera Sans'"
     fill="#000000"><tspan
       id="tspan4089-7-2-9-6-53"
       y="-1169.0076"
       x="1652.1285" /></text>
  <text
     id="text4087-2-6-5-54"
     opacity=".8"
     font-size="12.666px"
     xml:space="preserve"
     y="-1176.2175"
     x="160.66542"
     font-family="'Bitstream Vera Sans'"
     fill="#000000"><tspan
       id="tspan4089-7-2-9-0"
       y="-1176.2175"
       x="160.66542" /></text>
  <text
     id="text4087-2-6-5-4-1"
     opacity=".8"
     font-size="12.666px"
     xml:space="preserve"
     y="-1449.4517"
     x="1621.2083"
     font-family="'Bitstream Vera Sans'"
     fill="#000000"><tspan
       id="tspan4089-7-2-9-9-28"
       y="-1449.4517"
       x="1621.2083" /></text>
  <path
     style="color:#000000;fill:#7ec242;fill-opacity:1"
     d="M 21.296875 4.0039062 C 19.977719 3.9755763 18.832719 4.0946094 18.365234 4.2246094 C 17.62746 4.4229384 16.801794 4.8449632 16.349609 5.4882812 C 16.041919 5.9199383 15.841797 6.4738725 15.841797 7.2421875 C 15.841797 7.6755125 15.857191 8.7019224 15.869141 9.6152344 C 15.881041 10.54188 15.890625 11.353516 15.890625 11.353516 C 15.890625 12.170163 15.219691 12.829323 14.386719 12.847656 L 10.572266 12.847656 C 9.7562925 12.847656 9.1368986 12.981697 8.6660156 13.193359 C 8.1900306 13.41002 7.8509473 13.689877 7.5976562 14.033203 C 7.0842753 14.706521 7 15.536165 7 16.382812 C 7 16.382811 7.0057092 17.061568 7.1757812 18.408203 C 7.3202763 19.453179 8.460612 26.699296 9.546875 28.892578 C 9.968461 29.750891 10.248047 30.106051 11.074219 30.484375 C 12.915257 31.259357 17.128869 32.126387 19.095703 32.373047 C 21.069337 32.619707 22.299334 33.14111 23.037109 31.632812 C 23.042209 31.632812 23.188076 31.256446 23.388672 30.703125 C 24.02785 28.799837 24.113281 27.101638 24.113281 25.875 C 24.113281 25.755003 24.300781 25.748337 24.300781 25.875 C 24.300781 26.741647 24.132848 29.801686 26.480469 30.625 C 27.410338 30.948326 29.328268 31.233703 31.283203 31.457031 C 33.052843 31.65536 34.332031 32.34008 34.332031 36.806641 C 34.332031 39.523244 33.752714 39.882812 30.728516 39.882812 C 28.272098 39.882812 27.335937 39.950639 27.335938 38.027344 C 27.335938 36.470714 28.898473 36.646484 30.052734 36.646484 C 30.564416 36.646484 30.191406 36.267477 30.191406 35.3125 C 30.191406 34.364189 30.797491 33.808828 30.224609 33.798828 C 26.234844 33.690497 23.880859 33.792092 23.880859 38.707031 C 23.880857 43.171926 25.6195 44 31.287109 44 C 35.730759 44 37.298574 43.850153 39.132812 38.251953 C 39.4949 37.145312 40.379774 33.768903 40.910156 28.095703 C 41.243345 24.514121 40.588542 13.698633 40.068359 10.957031 L 40.068359 10.953125 C 39.767469 9.3548298 38.808811 8.5733777 37.931641 8.2617188 C 36.991574 7.9250597 35.083226 7.5869208 32.691406 7.3085938 C 30.760271 7.0819327 28.493201 7.0953419 27.123047 7.1386719 C 26.959852 6.0320329 26.173286 5.0268661 25.291016 4.671875 C 24.114656 4.210219 22.617731 4.0322392 21.296875 4.0039062 z M 33.074219 21.001953 C 34.760916 21.064183 34.993689 22.815925 35 24 C 34.289978 23.650827 33.422961 23.426701 32.466797 23.388672 L 32.460938 23.388672 C 31.952878 23.362742 31.462303 23.408994 31 23.490234 C 31.140427 22.344189 31.568971 20.939724 33.074219 21.001953 z "
     id="path4370" />
  <path
     style="color:#000000;fill:#000000;fill-opacity:1;opacity:0.3"
     d="M 15.851562 7.0917969 C 15.849633 7.1435079 15.841797 7.1884073 15.841797 7.2421875 C 15.841797 7.6755125 15.857191 8.7019224 15.869141 9.6152344 C 15.874917 10.065018 15.875053 10.143059 15.878906 10.458984 C 15.881478 10.423587 15.890625 10.389569 15.890625 10.353516 C 15.890625 10.353516 15.881041 9.5418804 15.869141 8.6152344 C 15.861469 8.0289108 15.857088 7.5845023 15.851562 7.0917969 z M 7.0195312 15.808594 C 7.0066483 15.99842 7 16.189557 7 16.382812 C 7 16.382811 7.0057092 17.061568 7.1757812 18.408203 C 7.3202763 19.453179 8.460612 26.699296 9.546875 28.892578 C 9.968461 29.750891 10.248047 30.106051 11.074219 30.484375 C 12.915257 31.259357 17.128869 32.126387 19.095703 32.373047 C 21.069337 32.619707 22.299334 33.14111 23.037109 31.632812 C 23.042209 31.632812 23.188076 31.256446 23.388672 30.703125 C 24.02785 28.799837 24.113281 27.101638 24.113281 25.875 C 24.113281 25.755003 24.300781 25.748337 24.300781 25.875 C 24.300781 26.741647 24.132848 29.801686 26.480469 30.625 C 27.410338 30.948326 29.328268 31.233703 31.283203 31.457031 C 32.9839 31.647634 34.219815 32.323727 34.314453 36.337891 C 34.321314 36.16433 34.332031 36.004415 34.332031 35.806641 C 34.332031 31.34008 33.052843 30.65536 31.283203 30.457031 C 29.328268 30.233703 27.410338 29.948326 26.480469 29.625 C 24.132848 28.801686 24.300781 25.741647 24.300781 24.875 C 24.300781 24.748337 24.113281 24.755003 24.113281 24.875 C 24.113281 26.101638 24.02785 27.799837 23.388672 29.703125 C 23.188076 30.256446 23.042209 30.632812 23.037109 30.632812 C 22.299334 32.14111 21.069337 31.619707 19.095703 31.373047 C 17.128869 31.126387 12.915257 30.259357 11.074219 29.484375 C 10.248047 29.106051 9.968461 28.750891 9.546875 27.892578 C 8.460612 25.699296 7.3202764 18.453179 7.1757812 17.408203 C 7.0770082 16.626112 7.0385054 16.138004 7.0195312 15.808594 z M 33.074219 20.001953 C 31.568971 19.939724 31.140427 21.344189 31 22.490234 C 31.072221 22.477543 31.149096 22.471779 31.222656 22.460938 C 31.489344 21.64906 32.010746 20.957988 33.074219 21.001953 C 34.306744 21.047427 34.759206 21.995799 34.917969 22.964844 C 34.944396 22.977296 34.973991 22.987209 35 23 C 34.993689 21.815925 34.760916 20.064183 33.074219 20.001953 z M 40.990234 25.443359 C 40.977268 26.087219 40.951805 26.648005 40.910156 27.095703 C 40.379774 32.768903 39.4949 36.145312 39.132812 37.251953 C 37.298575 42.850153 35.730759 43 31.287109 43 C 25.787197 43 24.002096 42.190775 23.900391 38.064453 C 23.890365 38.271877 23.880859 38.479419 23.880859 38.707031 C 23.880857 43.171926 25.6195 44 31.287109 44 C 35.730759 44 37.298575 43.850153 39.132812 38.251953 C 39.4949 37.145312 40.379774 33.768903 40.910156 28.095703 C 40.971173 27.439812 40.98859 26.490434 40.990234 25.443359 z M 30.259766 33.804688 C 30.225565 33.961682 30.191406 34.122857 30.191406 34.3125 C 30.191406 34.554714 30.21667 34.758364 30.244141 34.929688 C 30.36106 34.250338 30.679407 33.837066 30.259766 33.804688 z M 30.216797 35.621094 C 30.176206 35.636966 30.125447 35.646484 30.052734 35.646484 C 28.898473 35.646484 27.335938 35.470714 27.335938 37.027344 C 27.335937 37.27474 27.352543 37.48794 27.384766 37.673828 C 27.62016 36.516074 28.999292 36.646484 30.052734 36.646484 C 30.499847 36.646484 30.281557 36.331283 30.216797 35.621094 z "
     id="path4373" />
  <path
     style="color:#000000;fill:#ffffff;fill-opacity:1;opacity:0.1"
     d="M 21.296875 4.0039062 C 19.977719 3.9755763 18.832719 4.0946094 18.365234 4.2246094 C 17.62746 4.4229384 16.801794 4.8449632 16.349609 5.4882812 C 16.041919 5.9199383 15.841797 6.4738725 15.841797 7.2421875 C 15.841797 7.3973285 15.848481 7.817019 15.851562 8.0917969 C 15.877196 7.4047539 16.063457 6.8897234 16.349609 6.4882812 C 16.801794 5.8449632 17.62746 5.4229384 18.365234 5.2246094 C 18.832719 5.0946092 19.977719 4.9755762 21.296875 5.0039062 C 22.617731 5.0322392 24.114656 5.210219 25.291016 5.671875 C 26.173286 6.0268661 26.959852 7.0320329 27.123047 8.1386719 C 28.493201 8.0953419 30.760271 8.0819326 32.691406 8.3085938 C 35.083226 8.5869208 36.991574 8.9250596 37.931641 9.2617188 C 38.808811 9.5733777 39.767469 10.354824 40.068359 11.953125 L 40.068359 11.957031 C 40.457623 14.00863 40.922582 20.580368 40.992188 25.259766 C 40.986065 20.575334 40.48773 13.167308 40.068359 10.957031 L 40.068359 10.953125 C 39.767469 9.3548298 38.808811 8.5733777 37.931641 8.2617188 C 36.991574 7.9250596 35.083226 7.5869208 32.691406 7.3085938 C 30.760271 7.0819327 28.493201 7.0953419 27.123047 7.1386719 C 26.959852 6.0320329 26.173286 5.0268661 25.291016 4.671875 C 24.114656 4.210219 22.617731 4.0322392 21.296875 4.0039062 z M 15.878906 11.458984 C 15.82323 12.225387 15.182917 12.830133 14.386719 12.847656 L 10.572266 12.847656 C 9.7562921 12.847656 9.1368986 12.981697 8.6660156 13.193359 C 8.1900306 13.41002 7.8509473 13.689877 7.5976562 14.033203 C 7.0842753 14.706521 7 15.536165 7 16.382812 C 7 16.382812 7.0058351 16.570813 7.0195312 16.808594 C 7.0630881 16.166795 7.2014595 15.55283 7.5976562 15.033203 C 7.8509473 14.689877 8.1900386 14.41002 8.6660156 14.193359 C 9.1368986 13.981697 9.7562921 13.847656 10.572266 13.847656 L 14.386719 13.847656 C 15.219691 13.829323 15.890625 13.170163 15.890625 12.353516 C 15.890625 12.353516 15.882991 11.79393 15.878906 11.458984 z M 32.460938 23.388672 C 32.032247 23.366793 31.61997 23.402379 31.222656 23.460938 C 31.111872 23.798197 31.041214 24.153882 31 24.490234 C 31.462303 24.408992 31.952877 24.362742 32.460938 24.388672 L 32.466797 24.388672 C 33.422961 24.426701 34.289978 24.650827 35 25 C 34.998301 24.681167 34.976471 24.321926 34.917969 23.964844 C 34.222963 23.637366 33.387935 23.425308 32.466797 23.388672 L 32.460938 23.388672 z M 28.806641 33.777344 C 25.683242 33.791413 23.880859 34.40646 23.880859 38.707031 C 23.880859 38.839142 23.89729 38.938638 23.900391 39.064453 C 24.106852 34.792908 26.419612 34.695514 30.224609 34.798828 C 30.240101 34.799099 30.245963 34.803622 30.259766 34.804688 C 30.396587 34.17663 30.682927 33.806828 30.224609 33.798828 C 29.725889 33.785287 29.25284 33.775334 28.806641 33.777344 z M 30.244141 35.929688 C 30.222692 36.05431 30.191406 36.169479 30.191406 36.3125 C 30.191406 36.433008 30.207445 36.518533 30.216797 36.621094 C 30.389399 36.553601 30.309587 36.337853 30.244141 35.929688 z M 34.314453 37.337891 C 34.227075 39.548326 33.532545 39.882812 30.728516 39.882812 C 28.58807 39.882812 27.603046 39.933061 27.384766 38.673828 C 27.362237 38.78463 27.335938 38.89138 27.335938 39.027344 C 27.335936 40.950642 28.272098 40.882812 30.728516 40.882812 C 33.752714 40.882812 34.332031 40.523244 34.332031 37.806641 C 34.332031 37.632629 34.31829 37.500617 34.314453 37.337891 z "
     id="path4378" />
</svg>
