<?xml version="1.0" encoding="UTF-8" standalone="no"?>
<!-- Created with Inkscape (http://www.inkscape.org/) -->

<svg
   xmlns:dc="http://purl.org/dc/elements/1.1/"
   xmlns:cc="http://creativecommons.org/ns#"
   xmlns:rdf="http://www.w3.org/1999/02/22-rdf-syntax-ns#"
   xmlns:svg="http://www.w3.org/2000/svg"
   xmlns="http://www.w3.org/2000/svg"
   xmlns:sodipodi="http://sodipodi.sourceforge.net/DTD/sodipodi-0.dtd"
   xmlns:inkscape="http://www.inkscape.org/namespaces/inkscape"
   id="svg4354"
   height="48"
   width="48"
   version="1.1"
   viewBox="0 0 48 48.000001"
   inkscape:version="0.91 r"
   sodipodi:docname="kalzium.svg">
  <defs
     id="defs13" />
  <sodipodi:namedview
     pagecolor="#ffffff"
     bordercolor="#666666"
     borderopacity="1"
     objecttolerance="10"
     gridtolerance="10"
     guidetolerance="10"
     inkscape:pageopacity="0"
     inkscape:pageshadow="2"
     inkscape:window-width="1551"
     inkscape:window-height="876"
     id="namedview11"
     showgrid="false"
     inkscape:zoom="1"
     inkscape:cx="24"
     inkscape:cy="24"
     inkscape:window-x="49"
     inkscape:window-y="24"
     inkscape:window-maximized="1"
     inkscape:current-layer="svg4354" />
  <metadata
     id="metadata4359">
    <rdf:RDF>
      <cc:Work
         rdf:about="">
        <dc:format>image/svg+xml</dc:format>
        <dc:type
           rdf:resource="http://purl.org/dc/dcmitype/StillImage" />
        <dc:title></dc:title>
      </cc:Work>
    </rdf:RDF>
  </metadata>
  <rect
     id="rect4203-1"
     ry="2"
     rx="2"
     transform="matrix(0,-1,-1,0,0,0)"
     height="40"
     width="40"
     y="-44"
     x="-44"
     style="fill:#de554c" />
  <path
     id="rect4592"
     d="M 6,4 C 4.892,4 4,4.892 4,6 L 4,7 C 4,5.892 4.892,5 6,5 l 36,0 c 1.108,0 2,0.892 2,2 L 44,6 C 44,4.892 43.108,4 42,4 L 6,4 Z"
     inkscape:connector-curvature="0"
     style="opacity:0.2;fill:#ffffff" />
  <path
     id="path4597"
     d="M 6,44 C 4.892,44 4,43.108 4,42 l 0,-1 c 0,1.108 0.892,2 2,2 l 36,0 c 1.108,0 2,-0.892 2,-2 l 0,1 c 0,1.108 -0.892,2 -2,2 L 6,44 Z"
     inkscape:connector-curvature="0"
     style="opacity:0.3" />
  <g
     transform="translate(7.0006691,1.0711051)"
     id="g4165"
     style="opacity:0.2;fill:#000000;fill-opacity:1">
    <path
       id="path4167"
       transform="translate(-7.0006691,-0.07076786)"
       d="m 36.09375,13.142578 a 4,4 0 0 0 -0.283203,0.0039 4,4 0 0 0 -3.273438,1.996094 4,4 0 0 0 -0.386718,3.06836 l -3.488282,2.015624 A 6,6 0 0 0 24,18 6,6 0 0 0 19.339844,20.226562 l -3.488282,-2.015624 c 0.287698,-1.033281 0.148365,-2.138776 -0.386718,-3.06836 -0.680454,-1.179027 -1.913784,-1.931107 -3.273438,-1.996094 l -0.002,0 c -0.764805,-0.03593 -1.524329,0.148544 -2.1875,0.53125 -1.9140356,1.104286 -2.5698744,3.551238 -1.4648436,5.464844 1.1049718,1.91331 3.5517616,2.568257 5.4648436,1.462891 0.312243,-0.18125 0.599072,-0.404049 0.851563,-0.66211 l 3.509765,2.025391 A 6,6 0 0 0 18,24 a 6,6 0 0 0 0.400391,2.152344 l -3.544922,2.044922 c -0.253415,-0.258277 -0.540217,-0.481085 -0.853516,-0.66211 -1.913082,-1.105366 -4.3598718,-0.450419 -5.4648436,1.462891 -1.1050308,1.913606 -0.449192,4.360558 1.4648436,5.464844 1.913606,1.105031 4.360558,0.449192 5.464844,-1.464844 0.535406,-0.929296 0.675871,-2.035031 0.388672,-3.068359 l 3.566406,-2.060547 A 6,6 0 0 0 24,30 6,6 0 0 0 28.583984,27.871094 l 3.5625,2.058594 A 4,4 0 0 0 32.535156,32.998047 4,4 0 0 0 38,34.462891 4,4 0 0 0 39.464844,28.998047 4,4 0 0 0 34,27.535156 4,4 0 0 0 33.146484,28.197266 L 29.59375,26.148438 A 6,6 0 0 0 30,24 6,6 0 0 0 29.638672,21.96875 l 3.509766,-2.025391 A 4,4 0 0 0 34,20.605469 4,4 0 0 0 39.464844,19.142578 4,4 0 0 0 38,13.677734 4,4 0 0 0 36.09375,13.142578 Z"
       style="fill:#000000;fill-opacity:1"
       inkscape:connector-curvature="0" />
  </g>
  <g
     id="g4557"
     transform="translate(7.0006691,0.07076786)">
    <path
       style="fill:#ffffff"
       d="M 36.09375 13.142578 A 4 4 0 0 0 35.810547 13.146484 A 4 4 0 0 0 32.537109 15.142578 A 4 4 0 0 0 32.150391 18.210938 L 28.662109 20.226562 A 6 6 0 0 0 24 18 A 6 6 0 0 0 19.339844 20.226562 L 15.851562 18.210938 C 16.13926 17.177657 15.999927 16.072162 15.464844 15.142578 C 14.78439 13.963551 13.55106 13.211471 12.191406 13.146484 L 12.189453 13.146484 C 11.424648 13.11055 10.665124 13.295028 10.001953 13.677734 C 8.0879174 14.78202 7.4320786 17.228972 8.5371094 19.142578 C 9.6420812 21.055888 12.088871 21.710835 14.001953 20.605469 C 14.314196 20.424219 14.601025 20.20142 14.853516 19.943359 L 18.363281 21.96875 A 6 6 0 0 0 18 24 A 6 6 0 0 0 18.400391 26.152344 L 14.855469 28.197266 C 14.602054 27.938989 14.315252 27.716181 14.001953 27.535156 C 12.088871 26.42979 9.6420812 27.084737 8.5371094 28.998047 C 7.4320786 30.911653 8.0879174 33.358605 10.001953 34.462891 C 11.915559 35.567922 14.362511 34.912083 15.466797 32.998047 C 16.002203 32.068751 16.142668 30.963016 15.855469 29.929688 L 19.421875 27.869141 A 6 6 0 0 0 24 30 A 6 6 0 0 0 28.583984 27.871094 L 32.146484 29.929688 A 4 4 0 0 0 32.535156 32.998047 A 4 4 0 0 0 38 34.462891 A 4 4 0 0 0 39.464844 28.998047 A 4 4 0 0 0 34 27.535156 A 4 4 0 0 0 33.146484 28.197266 L 29.59375 26.148438 A 6 6 0 0 0 30 24 A 6 6 0 0 0 29.638672 21.96875 L 33.148438 19.943359 A 4 4 0 0 0 34 20.605469 A 4 4 0 0 0 39.464844 19.142578 A 4 4 0 0 0 38 13.677734 A 4 4 0 0 0 36.09375 13.142578 z "
       transform="translate(-7.0006691,-0.07076786)"
       id="path4668" />
  </g>
</svg>
