<?xml version="1.0" encoding="UTF-8" standalone="no"?>
<!-- Created with Inkscape (http://www.inkscape.org/) -->

<svg
   xmlns:dc="http://purl.org/dc/elements/1.1/"
   xmlns:cc="http://creativecommons.org/ns#"
   xmlns:rdf="http://www.w3.org/1999/02/22-rdf-syntax-ns#"
   xmlns:svg="http://www.w3.org/2000/svg"
   xmlns="http://www.w3.org/2000/svg"
   xmlns:sodipodi="http://sodipodi.sourceforge.net/DTD/sodipodi-0.dtd"
   xmlns:inkscape="http://www.inkscape.org/namespaces/inkscape"
   id="svg2817"
   height="48"
   width="48"
   version="1.0"
   inkscape:version="0.91 r"
   sodipodi:docname="kmplot.svg">
  <sodipodi:namedview
     pagecolor="#ffffff"
     bordercolor="#666666"
     borderopacity="1"
     objecttolerance="10"
     gridtolerance="10"
     guidetolerance="10"
     inkscape:pageopacity="0"
     inkscape:pageshadow="2"
     inkscape:window-width="1551"
     inkscape:window-height="876"
     id="namedview17"
     showgrid="false"
     inkscape:zoom="1"
     inkscape:cx="29.353215"
     inkscape:cy="24"
     inkscape:window-x="49"
     inkscape:window-y="24"
     inkscape:window-maximized="1"
     inkscape:current-layer="svg2817" />
  <metadata
     id="metadata57">
    <rdf:RDF>
      <cc:Work
         rdf:about="">
        <dc:format>image/svg+xml</dc:format>
        <dc:type
           rdf:resource="http://purl.org/dc/dcmitype/StillImage" />
        <dc:title></dc:title>
      </cc:Work>
    </rdf:RDF>
  </metadata>
  <defs
     id="defs2819">
    <linearGradient
       id="linearGradient4191"
       y2="3.9509"
       gradientUnits="userSpaceOnUse"
       y1="22.121"
       x2="24.239"
       x1="24.292"
       gradientTransform="translate(0,1)">
      <stop
         id="stop4187"
         offset="0" />
      <stop
         id="stop4189"
         stop-opacity="0"
         offset="1" />
    </linearGradient>
  </defs>
  <text
     style="font-size:12.66600037px;font-family:'Bitstream Vera Sans';opacity:0.8;fill:#000000"
     id="text4087-2-6-5"
     font-size="12.666px"
     xml:space="preserve"
     y="10.812601"
     x="809.29407"><tspan
       id="tspan4089-7-2-9"
       y="10.812601"
       x="809.29407" /></text>
  <text
     style="font-size:12.66600037px;font-family:'Bitstream Vera Sans';opacity:0.8;fill:#000000"
     id="text4087-2-6-5-5"
     font-size="12.666px"
     xml:space="preserve"
     y="-29.929106"
     x="833.255"><tspan
       id="tspan4089-7-2-9-6"
       y="-29.929106"
       x="833.255" /></text>
  <text
     style="font-size:12.66600037px;font-family:'Bitstream Vera Sans';opacity:0.8;fill:#000000"
     id="text4087-2-6-5-2"
     font-size="12.666px"
     xml:space="preserve"
     y="-60.007248"
     x="-637.30334"><tspan
       id="tspan4089-7-2-9-2"
       y="-60.007248"
       x="-637.30334" /></text>
  <text
     style="font-size:12.66600037px;font-family:'Bitstream Vera Sans';opacity:0.8;fill:#000000"
     id="text4087-2-6-5-59"
     font-size="12.666px"
     xml:space="preserve"
     y="685.5462"
     x="-2460.9893"><tspan
       id="tspan4089-7-2-9-4"
       y="685.5462"
       x="-2460.9893" /></text>
  <text
     style="font-size:12.66600037px;font-family:'Bitstream Vera Sans';opacity:0.8;fill:#000000"
     id="text4087-2-6-5-1"
     font-size="12.666px"
     xml:space="preserve"
     y="-445.32822"
     x="-522.81226"><tspan
       id="tspan4089-7-2-9-7"
       y="-445.32822"
       x="-522.81226" /></text>
  <text
     style="font-size:12.66600037px;font-family:'Bitstream Vera Sans';opacity:0.8;fill:#000000"
     id="text4087-2-6-5-7"
     font-size="12.666px"
     xml:space="preserve"
     y="-858.79834"
     x="284.78989"><tspan
       id="tspan4089-7-2-9-1"
       y="-858.79834"
       x="284.78989" /></text>
  <text
     style="font-size:12.66600037px;font-family:'Bitstream Vera Sans';opacity:0.8;fill:#000000"
     id="text4087-2-6-5-5-3"
     font-size="12.666px"
     xml:space="preserve"
     y="-899.54004"
     x="308.75082"><tspan
       id="tspan4089-7-2-9-6-5"
       y="-899.54004"
       x="308.75082" /></text>
  <text
     style="font-size:12.66600037px;font-family:'Bitstream Vera Sans';opacity:0.8;fill:#000000"
     id="text4087-2-6-5-3"
     font-size="12.666px"
     xml:space="preserve"
     y="-906.74994"
     x="-1182.7124"><tspan
       id="tspan4089-7-2-9-18"
       y="-906.74994"
       x="-1182.7124" /></text>
  <text
     style="font-size:12.66600037px;font-family:'Bitstream Vera Sans';opacity:0.8;fill:#000000"
     id="text4087-2-6-5-4"
     font-size="12.666px"
     xml:space="preserve"
     y="-1179.9841"
     x="277.83041"><tspan
       id="tspan4089-7-2-9-9"
       y="-1179.9841"
       x="277.83041" /></text>
  <text
     style="font-size:12.66600037px;font-family:'Bitstream Vera Sans';opacity:0.8;fill:#000000"
     id="text4087-2-6-5-7-1"
     font-size="12.666px"
     xml:space="preserve"
     y="-553.29272"
     x="1763.9539"><tspan
       id="tspan4089-7-2-9-1-8"
       y="-553.29272"
       x="1763.9539" /></text>
  <text
     style="font-size:12.66600037px;font-family:'Bitstream Vera Sans';opacity:0.8;fill:#000000"
     id="text4087-2-6-5-5-5"
     font-size="12.666px"
     xml:space="preserve"
     y="-594.03448"
     x="1787.9147"><tspan
       id="tspan4089-7-2-9-6-9"
       y="-594.03448"
       x="1787.9147" /></text>
  <text
     style="font-size:12.66600037px;font-family:'Bitstream Vera Sans';opacity:0.8;fill:#000000"
     id="text4087-2-6-5-75"
     font-size="12.666px"
     xml:space="preserve"
     y="-601.24438"
     x="296.45157"><tspan
       id="tspan4089-7-2-9-3"
       y="-601.24438"
       x="296.45157" /></text>
  <text
     style="font-size:12.66600037px;font-family:'Bitstream Vera Sans';opacity:0.8;fill:#000000"
     id="text4087-2-6-5-4-8"
     font-size="12.666px"
     xml:space="preserve"
     y="-874.47839"
     x="1756.9944"><tspan
       id="tspan4089-7-2-9-9-8"
       y="-874.47839"
       x="1756.9944" /></text>
  <text
     style="font-size:12.66600037px;font-family:'Bitstream Vera Sans';opacity:0.8;fill:#000000"
     id="text4087-2-6-5-45"
     font-size="12.666px"
     xml:space="preserve"
     y="-649.33569"
     x="-641.36475"><tspan
       id="tspan4089-7-2-9-75"
       y="-649.33569"
       x="-641.36475" /></text>
  <text
     style="font-size:12.66600037px;font-family:'Bitstream Vera Sans';opacity:0.8;fill:#000000"
     id="text4087-2-6-5-59-7"
     font-size="12.666px"
     xml:space="preserve"
     y="96.217857"
     x="-2465.0503"><tspan
       id="tspan4089-7-2-9-4-0"
       y="96.217857"
       x="-2465.0503" /></text>
  <text
     style="font-size:12.66600037px;font-family:'Bitstream Vera Sans';opacity:0.8;fill:#000000"
     id="text4087-2-6-5-8"
     font-size="12.666px"
     xml:space="preserve"
     y="189.09"
     x="-750.29498"><tspan
       id="tspan4089-7-2-9-19"
       y="189.09"
       x="-750.29498" /></text>
  <text
     style="font-size:12.66600037px;font-family:'Bitstream Vera Sans';opacity:0.8;fill:#000000"
     id="text4087-2-6-5-7-5"
     font-size="12.666px"
     xml:space="preserve"
     y="9.9078522"
     x="358.72934"><tspan
       id="tspan4089-7-2-9-1-2"
       y="9.9078522"
       x="358.72934" /></text>
  <text
     style="font-size:12.66600037px;font-family:'Bitstream Vera Sans';opacity:0.8;fill:#000000"
     id="text4087-2-6-5-5-0"
     font-size="12.666px"
     xml:space="preserve"
     y="-30.833855"
     x="382.69028"><tspan
       id="tspan4089-7-2-9-6-2"
       y="-30.833855"
       x="382.69028" /></text>
  <text
     style="font-size:12.66600037px;font-family:'Bitstream Vera Sans';opacity:0.8;fill:#000000"
     id="text4087-2-6-5-26"
     font-size="12.666px"
     xml:space="preserve"
     y="-38.043827"
     x="-1108.7729"><tspan
       id="tspan4089-7-2-9-90"
       y="-38.043827"
       x="-1108.7729" /></text>
  <text
     style="font-size:12.66600037px;font-family:'Bitstream Vera Sans';opacity:0.8;fill:#000000"
     id="text4087-2-6-5-4-3"
     font-size="12.666px"
     xml:space="preserve"
     y="-311.27789"
     x="351.76987"><tspan
       id="tspan4089-7-2-9-9-5"
       y="-311.27789"
       x="351.76987" /></text>
  <text
     style="font-size:12.66600037px;font-family:'Bitstream Vera Sans';opacity:0.8;fill:#000000"
     id="text4087-2-6-5-55"
     font-size="12.666px"
     xml:space="preserve"
     y="-40.758072"
     x="-675.96472"><tspan
       id="tspan4089-7-2-9-32"
       y="-40.758072"
       x="-675.96472" /></text>
  <text
     style="font-size:12.66600037px;font-family:'Bitstream Vera Sans';opacity:0.8;fill:#000000"
     id="text4087-2-6-5-59-9"
     font-size="12.666px"
     xml:space="preserve"
     y="704.79541"
     x="-2499.6506"><tspan
       id="tspan4089-7-2-9-4-1"
       y="704.79541"
       x="-2499.6506" /></text>
  <text
     style="font-size:12.66600037px;font-family:'Bitstream Vera Sans';opacity:0.8;fill:#000000"
     id="text4087-2-6-5-1-8"
     font-size="12.666px"
     xml:space="preserve"
     y="-902.28857"
     x="-524.8717"><tspan
       id="tspan4089-7-2-9-7-8"
       y="-902.28857"
       x="-524.8717" /></text>
  <text
     style="font-size:12.66600037px;font-family:'Bitstream Vera Sans';opacity:0.8;fill:#000000"
     id="text4087-2-6-5-7-8"
     font-size="12.666px"
     xml:space="preserve"
     y="-1315.7588"
     x="282.73047"><tspan
       id="tspan4089-7-2-9-1-9"
       y="-1315.7588"
       x="282.73047" /></text>
  <text
     style="font-size:12.66600037px;font-family:'Bitstream Vera Sans';opacity:0.8;fill:#000000"
     id="text4087-2-6-5-5-52"
     font-size="12.666px"
     xml:space="preserve"
     y="-1356.5005"
     x="306.69138"><tspan
       id="tspan4089-7-2-9-6-4"
       y="-1356.5005"
       x="306.69138" /></text>
  <text
     style="font-size:12.66600037px;font-family:'Bitstream Vera Sans';opacity:0.8;fill:#000000"
     id="text4087-2-6-5-3-4"
     font-size="12.666px"
     xml:space="preserve"
     y="-1363.7104"
     x="-1184.7719"><tspan
       id="tspan4089-7-2-9-18-3"
       y="-1363.7104"
       x="-1184.7719" /></text>
  <text
     style="font-size:12.66600037px;font-family:'Bitstream Vera Sans';opacity:0.8;fill:#000000"
     id="text4087-2-6-5-4-7"
     font-size="12.666px"
     xml:space="preserve"
     y="-1636.9446"
     x="275.77097"><tspan
       id="tspan4089-7-2-9-9-54"
       y="-1636.9446"
       x="275.77097" /></text>
  <text
     style="font-size:12.66600037px;font-family:'Bitstream Vera Sans';opacity:0.8;fill:#000000"
     id="text4087-2-6-5-7-1-2"
     font-size="12.666px"
     xml:space="preserve"
     y="-1010.2533"
     x="1761.8943"><tspan
       id="tspan4089-7-2-9-1-8-0"
       y="-1010.2533"
       x="1761.8943" /></text>
  <text
     style="font-size:12.66600037px;font-family:'Bitstream Vera Sans';opacity:0.8;fill:#000000"
     id="text4087-2-6-5-5-5-6"
     font-size="12.666px"
     xml:space="preserve"
     y="-1050.9949"
     x="1785.8551"><tspan
       id="tspan4089-7-2-9-6-9-8"
       y="-1050.9949"
       x="1785.8551" /></text>
  <text
     style="font-size:12.66600037px;font-family:'Bitstream Vera Sans';opacity:0.8;fill:#000000"
     id="text4087-2-6-5-75-4"
     font-size="12.666px"
     xml:space="preserve"
     y="-1058.2048"
     x="294.39212"><tspan
       id="tspan4089-7-2-9-3-9"
       y="-1058.2048"
       x="294.39212" /></text>
  <text
     style="font-size:12.66600037px;font-family:'Bitstream Vera Sans';opacity:0.8;fill:#000000"
     id="text4087-2-6-5-4-8-1"
     font-size="12.666px"
     xml:space="preserve"
     y="-1331.439"
     x="1754.9348"><tspan
       id="tspan4089-7-2-9-9-8-8"
       y="-1331.439"
       x="1754.9348" /></text>
  <text
     style="font-size:12.66600037px;font-family:'Bitstream Vera Sans';opacity:0.8;fill:#000000"
     id="text4087-2-6-5-45-0"
     font-size="12.666px"
     xml:space="preserve"
     y="-1106.2961"
     x="-643.42419"><tspan
       id="tspan4089-7-2-9-75-2"
       y="-1106.2961"
       x="-643.42419" /></text>
  <text
     style="font-size:12.66600037px;font-family:'Bitstream Vera Sans';opacity:0.8;fill:#000000"
     id="text4087-2-6-5-59-5"
     font-size="12.666px"
     xml:space="preserve"
     y="-360.74261"
     x="-2467.1099"><tspan
       id="tspan4089-7-2-9-4-00"
       y="-360.74261"
       x="-2467.1099" /></text>
  <text
     style="font-size:12.66600037px;font-family:'Bitstream Vera Sans';opacity:0.8;fill:#000000"
     id="text4087-2-6-5-264"
     font-size="12.666px"
     xml:space="preserve"
     y="-267.87045"
     x="-752.35443"><tspan
       id="tspan4089-7-2-9-8"
       y="-267.87045"
       x="-752.35443" /></text>
  <text
     style="font-size:12.66600037px;font-family:'Bitstream Vera Sans';opacity:0.8;fill:#000000"
     id="text4087-2-6-5-42"
     font-size="12.666px"
     xml:space="preserve"
     y="-26.956278"
     x="87.660095"><tspan
       id="tspan4089-7-2-9-93"
       y="-26.956278"
       x="87.660095" /></text>
  <text
     style="font-size:12.66600037px;font-family:'Bitstream Vera Sans';opacity:0.8;fill:#000000"
     id="text4087-2-6-5-5-05"
     font-size="12.666px"
     xml:space="preserve"
     y="-67.697998"
     x="111.62103"><tspan
       id="tspan4089-7-2-9-6-49"
       y="-67.697998"
       x="111.62103" /></text>
  <text
     style="font-size:12.66600037px;font-family:'Bitstream Vera Sans';opacity:0.8;fill:#000000"
     id="text4087-2-6-5-1-4"
     font-size="12.666px"
     xml:space="preserve"
     y="-261.72662"
     x="-1158.1957"><tspan
       id="tspan4089-7-2-9-7-7"
       y="-261.72662"
       x="-1158.1957" /></text>
  <text
     style="font-size:12.66600037px;font-family:'Bitstream Vera Sans';opacity:0.8;fill:#000000"
     id="text4087-2-6-5-7-56"
     font-size="12.666px"
     xml:space="preserve"
     y="-675.19678"
     x="-350.5936"><tspan
       id="tspan4089-7-2-9-1-1"
       y="-675.19678"
       x="-350.5936" /></text>
  <text
     style="font-size:12.66600037px;font-family:'Bitstream Vera Sans';opacity:0.8;fill:#000000"
     id="text4087-2-6-5-5-8"
     font-size="12.666px"
     xml:space="preserve"
     y="-715.93848"
     x="-326.63266"><tspan
       id="tspan4089-7-2-9-6-7"
       y="-715.93848"
       x="-326.63266" /></text>
  <text
     style="font-size:12.66600037px;font-family:'Bitstream Vera Sans';opacity:0.8;fill:#000000"
     id="text4087-2-6-5-3-42"
     font-size="12.666px"
     xml:space="preserve"
     y="-723.14838"
     x="-1818.0958"><tspan
       id="tspan4089-7-2-9-18-39"
       y="-723.14838"
       x="-1818.0958" /></text>
  <text
     style="font-size:12.66600037px;font-family:'Bitstream Vera Sans';opacity:0.8;fill:#000000"
     id="text4087-2-6-5-4-4"
     font-size="12.666px"
     xml:space="preserve"
     y="-996.38251"
     x="-357.55304"><tspan
       id="tspan4089-7-2-9-9-3"
       y="-996.38251"
       x="-357.55304" /></text>
  <text
     style="font-size:12.66600037px;font-family:'Bitstream Vera Sans';opacity:0.8;fill:#000000"
     id="text4087-2-6-5-7-1-0"
     font-size="12.666px"
     xml:space="preserve"
     y="-369.69113"
     x="1128.5703"><tspan
       id="tspan4089-7-2-9-1-8-5"
       y="-369.69113"
       x="1128.5703" /></text>
  <text
     style="font-size:12.66600037px;font-family:'Bitstream Vera Sans';opacity:0.8;fill:#000000"
     id="text4087-2-6-5-5-5-5"
     font-size="12.666px"
     xml:space="preserve"
     y="-410.43286"
     x="1152.5311"><tspan
       id="tspan4089-7-2-9-6-9-2"
       y="-410.43286"
       x="1152.5311" /></text>
  <text
     style="font-size:12.66600037px;font-family:'Bitstream Vera Sans';opacity:0.8;fill:#000000"
     id="text4087-2-6-5-75-9"
     font-size="12.666px"
     xml:space="preserve"
     y="-417.64282"
     x="-338.93192"><tspan
       id="tspan4089-7-2-9-3-1"
       y="-417.64282"
       x="-338.93192" /></text>
  <text
     style="font-size:12.66600037px;font-family:'Bitstream Vera Sans';opacity:0.8;fill:#000000"
     id="text4087-2-6-5-4-8-18"
     font-size="12.666px"
     xml:space="preserve"
     y="-690.87689"
     x="1121.6108"><tspan
       id="tspan4089-7-2-9-9-8-4"
       y="-690.87689"
       x="1121.6108" /></text>
  <text
     style="font-size:12.66600037px;font-family:'Bitstream Vera Sans';opacity:0.8;fill:#000000"
     id="text4087-2-6-5-45-3"
     font-size="12.666px"
     xml:space="preserve"
     y="-465.7341"
     x="-1276.7483"><tspan
       id="tspan4089-7-2-9-75-7"
       y="-465.7341"
       x="-1276.7483" /></text>
  <text
     style="font-size:12.66600037px;font-family:'Bitstream Vera Sans';opacity:0.8;fill:#000000"
     id="text4087-2-6-5-59-8"
     font-size="12.666px"
     xml:space="preserve"
     y="279.81946"
     x="-3100.4338"><tspan
       id="tspan4089-7-2-9-4-2"
       y="279.81946"
       x="-3100.4338" /></text>
  <text
     x="-1385.684"
     y="372.6911"
     xml:space="preserve"
     font-size="14px"
     id="text4087-2-6-5-20"
     style="font-size:12.66650009px;font-family:'Bitstream Vera Sans';opacity:0.8;fill:#000000"><tspan
       x="-1385.684"
       y="372.6911"
       id="tspan4089-7-2-9-82" /></text>
  <text
     style="font-size:12.66600037px;font-family:'Bitstream Vera Sans';opacity:0.8;fill:#000000"
     id="text4087-2-6-5-9"
     font-size="12.666px"
     xml:space="preserve"
     y="18.050589"
     x="809.29407"><tspan
       id="tspan4089-7-2-9-43"
       y="18.050589"
       x="809.29407" /></text>
  <text
     style="font-size:12.66600037px;font-family:'Bitstream Vera Sans';opacity:0.8;fill:#000000"
     id="text4087-2-6-5-5-51"
     font-size="12.666px"
     xml:space="preserve"
     y="-22.691116"
     x="833.255"><tspan
       id="tspan4089-7-2-9-6-74"
       y="-22.691116"
       x="833.255" /></text>
  <text
     style="font-size:12.66600037px;font-family:'Bitstream Vera Sans';opacity:0.8;fill:#000000"
     id="text4087-2-6-5-2-3"
     font-size="12.666px"
     xml:space="preserve"
     y="-52.76926"
     x="-637.30334"><tspan
       id="tspan4089-7-2-9-2-1"
       y="-52.76926"
       x="-637.30334" /></text>
  <text
     style="font-size:12.66600037px;font-family:'Bitstream Vera Sans';opacity:0.8;fill:#000000"
     id="text4087-2-6-5-59-4"
     font-size="12.666px"
     xml:space="preserve"
     y="692.78418"
     x="-2460.9893"><tspan
       id="tspan4089-7-2-9-4-6"
       y="692.78418"
       x="-2460.9893" /></text>
  <text
     style="font-size:12.66600037px;font-family:'Bitstream Vera Sans';opacity:0.8;fill:#000000"
     id="text4087-2-6-5-1-9"
     font-size="12.666px"
     xml:space="preserve"
     y="-438.09021"
     x="-522.81226"><tspan
       id="tspan4089-7-2-9-7-4"
       y="-438.09021"
       x="-522.81226" /></text>
  <text
     style="font-size:12.66600037px;font-family:'Bitstream Vera Sans';opacity:0.8;fill:#000000"
     id="text4087-2-6-5-7-2"
     font-size="12.666px"
     xml:space="preserve"
     y="-851.5603"
     x="284.78989"><tspan
       id="tspan4089-7-2-9-1-26"
       y="-851.5603"
       x="284.78989" /></text>
  <text
     style="font-size:12.66600037px;font-family:'Bitstream Vera Sans';opacity:0.8;fill:#000000"
     id="text4087-2-6-5-5-3-4"
     font-size="12.666px"
     xml:space="preserve"
     y="-892.30206"
     x="308.75082"><tspan
       id="tspan4089-7-2-9-6-5-1"
       y="-892.30206"
       x="308.75082" /></text>
  <text
     style="font-size:12.66600037px;font-family:'Bitstream Vera Sans';opacity:0.8;fill:#000000"
     id="text4087-2-6-5-3-2"
     font-size="12.666px"
     xml:space="preserve"
     y="-899.51196"
     x="-1182.7124"><tspan
       id="tspan4089-7-2-9-18-8"
       y="-899.51196"
       x="-1182.7124" /></text>
  <text
     style="font-size:12.66600037px;font-family:'Bitstream Vera Sans';opacity:0.8;fill:#000000"
     id="text4087-2-6-5-4-89"
     font-size="12.666px"
     xml:space="preserve"
     y="-1172.7461"
     x="277.83041"><tspan
       id="tspan4089-7-2-9-9-2"
       y="-1172.7461"
       x="277.83041" /></text>
  <text
     style="font-size:12.66600037px;font-family:'Bitstream Vera Sans';opacity:0.8;fill:#000000"
     id="text4087-2-6-5-7-1-8"
     font-size="12.666px"
     xml:space="preserve"
     y="-546.05475"
     x="1763.9539"><tspan
       id="tspan4089-7-2-9-1-8-8"
       y="-546.05475"
       x="1763.9539" /></text>
  <text
     style="font-size:12.66600037px;font-family:'Bitstream Vera Sans';opacity:0.8;fill:#000000"
     id="text4087-2-6-5-5-5-8"
     font-size="12.666px"
     xml:space="preserve"
     y="-586.79651"
     x="1787.9147"><tspan
       id="tspan4089-7-2-9-6-9-6"
       y="-586.79651"
       x="1787.9147" /></text>
  <text
     style="font-size:12.66600037px;font-family:'Bitstream Vera Sans';opacity:0.8;fill:#000000"
     id="text4087-2-6-5-75-8"
     font-size="12.666px"
     xml:space="preserve"
     y="-594.00641"
     x="296.45157"><tspan
       id="tspan4089-7-2-9-3-3"
       y="-594.00641"
       x="296.45157" /></text>
  <text
     style="font-size:12.66600037px;font-family:'Bitstream Vera Sans';opacity:0.8;fill:#000000"
     id="text4087-2-6-5-4-8-8"
     font-size="12.666px"
     xml:space="preserve"
     y="-867.24036"
     x="1756.9944"><tspan
       id="tspan4089-7-2-9-9-8-3"
       y="-867.24036"
       x="1756.9944" /></text>
  <text
     style="font-size:12.66600037px;font-family:'Bitstream Vera Sans';opacity:0.8;fill:#000000"
     id="text4087-2-6-5-45-33"
     font-size="12.666px"
     xml:space="preserve"
     y="-642.09772"
     x="-641.36475"><tspan
       id="tspan4089-7-2-9-75-8"
       y="-642.09772"
       x="-641.36475" /></text>
  <text
     style="font-size:12.66600037px;font-family:'Bitstream Vera Sans';opacity:0.8;fill:#000000"
     id="text4087-2-6-5-59-7-0"
     font-size="12.666px"
     xml:space="preserve"
     y="103.45585"
     x="-2465.0503"><tspan
       id="tspan4089-7-2-9-4-0-4"
       y="103.45585"
       x="-2465.0503" /></text>
  <text
     style="font-size:12.66600037px;font-family:'Bitstream Vera Sans';opacity:0.8;fill:#000000"
     id="text4087-2-6-5-8-7"
     font-size="12.666px"
     xml:space="preserve"
     y="196.32799"
     x="-750.29498"><tspan
       id="tspan4089-7-2-9-19-6"
       y="196.32799"
       x="-750.29498" /></text>
  <text
     style="font-size:12.66600037px;font-family:'Bitstream Vera Sans';opacity:0.8;fill:#000000"
     id="text4087-2-6-5-7-5-8"
     font-size="12.666px"
     xml:space="preserve"
     y="17.14584"
     x="358.72934"><tspan
       id="tspan4089-7-2-9-1-2-9"
       y="17.14584"
       x="358.72934" /></text>
  <text
     style="font-size:12.66600037px;font-family:'Bitstream Vera Sans';opacity:0.8;fill:#000000"
     id="text4087-2-6-5-5-0-0"
     font-size="12.666px"
     xml:space="preserve"
     y="-23.595865"
     x="382.69028"><tspan
       id="tspan4089-7-2-9-6-2-6"
       y="-23.595865"
       x="382.69028" /></text>
  <text
     style="font-size:12.66600037px;font-family:'Bitstream Vera Sans';opacity:0.8;fill:#000000"
     id="text4087-2-6-5-26-8"
     font-size="12.666px"
     xml:space="preserve"
     y="-30.805836"
     x="-1108.7729"><tspan
       id="tspan4089-7-2-9-90-7"
       y="-30.805836"
       x="-1108.7729" /></text>
  <text
     style="font-size:12.66600037px;font-family:'Bitstream Vera Sans';opacity:0.8;fill:#000000"
     id="text4087-2-6-5-4-3-9"
     font-size="12.666px"
     xml:space="preserve"
     y="-304.03989"
     x="351.76987"><tspan
       id="tspan4089-7-2-9-9-5-0"
       y="-304.03989"
       x="351.76987" /></text>
  <text
     style="font-size:12.66600037px;font-family:'Bitstream Vera Sans';opacity:0.8;fill:#000000"
     id="text4087-2-6-5-55-3"
     font-size="12.666px"
     xml:space="preserve"
     y="-33.520081"
     x="-675.96472"><tspan
       id="tspan4089-7-2-9-32-3"
       y="-33.520081"
       x="-675.96472" /></text>
  <text
     style="font-size:12.66600037px;font-family:'Bitstream Vera Sans';opacity:0.8;fill:#000000"
     id="text4087-2-6-5-59-9-3"
     font-size="12.666px"
     xml:space="preserve"
     y="712.03345"
     x="-2499.6506"><tspan
       id="tspan4089-7-2-9-4-1-7"
       y="712.03345"
       x="-2499.6506" /></text>
  <text
     style="font-size:12.66600037px;font-family:'Bitstream Vera Sans';opacity:0.8;fill:#000000"
     id="text4087-2-6-5-1-8-3"
     font-size="12.666px"
     xml:space="preserve"
     y="-895.0506"
     x="-524.8717"><tspan
       id="tspan4089-7-2-9-7-8-2"
       y="-895.0506"
       x="-524.8717" /></text>
  <text
     style="font-size:12.66600037px;font-family:'Bitstream Vera Sans';opacity:0.8;fill:#000000"
     id="text4087-2-6-5-7-8-6"
     font-size="12.666px"
     xml:space="preserve"
     y="-1308.5208"
     x="282.73047"><tspan
       id="tspan4089-7-2-9-1-9-5"
       y="-1308.5208"
       x="282.73047" /></text>
  <text
     style="font-size:12.66600037px;font-family:'Bitstream Vera Sans';opacity:0.8;fill:#000000"
     id="text4087-2-6-5-5-52-2"
     font-size="12.666px"
     xml:space="preserve"
     y="-1349.2626"
     x="306.69138"><tspan
       id="tspan4089-7-2-9-6-4-6"
       y="-1349.2626"
       x="306.69138" /></text>
  <text
     style="font-size:12.66600037px;font-family:'Bitstream Vera Sans';opacity:0.8;fill:#000000"
     id="text4087-2-6-5-3-4-5"
     font-size="12.666px"
     xml:space="preserve"
     y="-1356.4724"
     x="-1184.7719"><tspan
       id="tspan4089-7-2-9-18-3-8"
       y="-1356.4724"
       x="-1184.7719" /></text>
  <text
     style="font-size:12.66600037px;font-family:'Bitstream Vera Sans';opacity:0.8;fill:#000000"
     id="text4087-2-6-5-4-7-7"
     font-size="12.666px"
     xml:space="preserve"
     y="-1629.7065"
     x="275.77097"><tspan
       id="tspan4089-7-2-9-9-54-9"
       y="-1629.7065"
       x="275.77097" /></text>
  <text
     style="font-size:12.66600037px;font-family:'Bitstream Vera Sans';opacity:0.8;fill:#000000"
     id="text4087-2-6-5-7-1-2-6"
     font-size="12.666px"
     xml:space="preserve"
     y="-1003.0153"
     x="1761.8943"><tspan
       id="tspan4089-7-2-9-1-8-0-0"
       y="-1003.0153"
       x="1761.8943" /></text>
  <text
     style="font-size:12.66600037px;font-family:'Bitstream Vera Sans';opacity:0.8;fill:#000000"
     id="text4087-2-6-5-5-5-6-4"
     font-size="12.666px"
     xml:space="preserve"
     y="-1043.757"
     x="1785.8551"><tspan
       id="tspan4089-7-2-9-6-9-8-1"
       y="-1043.757"
       x="1785.8551" /></text>
  <text
     style="font-size:12.66600037px;font-family:'Bitstream Vera Sans';opacity:0.8;fill:#000000"
     id="text4087-2-6-5-75-4-0"
     font-size="12.666px"
     xml:space="preserve"
     y="-1050.9668"
     x="294.39212"><tspan
       id="tspan4089-7-2-9-3-9-4"
       y="-1050.9668"
       x="294.39212" /></text>
  <text
     style="font-size:12.66600037px;font-family:'Bitstream Vera Sans';opacity:0.8;fill:#000000"
     id="text4087-2-6-5-4-8-1-8"
     font-size="12.666px"
     xml:space="preserve"
     y="-1324.2009"
     x="1754.9348"><tspan
       id="tspan4089-7-2-9-9-8-8-7"
       y="-1324.2009"
       x="1754.9348" /></text>
  <text
     style="font-size:12.66600037px;font-family:'Bitstream Vera Sans';opacity:0.8;fill:#000000"
     id="text4087-2-6-5-45-0-0"
     font-size="12.666px"
     xml:space="preserve"
     y="-1099.0581"
     x="-643.42419"><tspan
       id="tspan4089-7-2-9-75-2-8"
       y="-1099.0581"
       x="-643.42419" /></text>
  <text
     style="font-size:12.66600037px;font-family:'Bitstream Vera Sans';opacity:0.8;fill:#000000"
     id="text4087-2-6-5-59-5-6"
     font-size="12.666px"
     xml:space="preserve"
     y="-353.50461"
     x="-2467.1099"><tspan
       id="tspan4089-7-2-9-4-00-2"
       y="-353.50461"
       x="-2467.1099" /></text>
  <text
     style="font-size:12.66600037px;font-family:'Bitstream Vera Sans';opacity:0.8;fill:#000000"
     id="text4087-2-6-5-264-4"
     font-size="12.666px"
     xml:space="preserve"
     y="-260.63245"
     x="-752.35443"><tspan
       id="tspan4089-7-2-9-8-7"
       y="-260.63245"
       x="-752.35443" /></text>
  <text
     style="font-size:12.66600037px;font-family:'Bitstream Vera Sans';opacity:0.8;fill:#000000"
     id="text4087-2-6-5-42-9"
     font-size="12.666px"
     xml:space="preserve"
     y="-19.71829"
     x="87.660095"><tspan
       id="tspan4089-7-2-9-93-3"
       y="-19.71829"
       x="87.660095" /></text>
  <text
     style="font-size:12.66600037px;font-family:'Bitstream Vera Sans';opacity:0.8;fill:#000000"
     id="text4087-2-6-5-5-05-9"
     font-size="12.666px"
     xml:space="preserve"
     y="-60.460011"
     x="111.62103"><tspan
       id="tspan4089-7-2-9-6-49-2"
       y="-60.460011"
       x="111.62103" /></text>
  <text
     style="font-size:12.66600037px;font-family:'Bitstream Vera Sans';opacity:0.8;fill:#000000"
     id="text4087-2-6-5-1-4-8"
     font-size="12.666px"
     xml:space="preserve"
     y="-254.4886"
     x="-1158.1957"><tspan
       id="tspan4089-7-2-9-7-7-3"
       y="-254.4886"
       x="-1158.1957" /></text>
  <text
     style="font-size:12.66600037px;font-family:'Bitstream Vera Sans';opacity:0.8;fill:#000000"
     id="text4087-2-6-5-7-56-0"
     font-size="12.666px"
     xml:space="preserve"
     y="-667.9588"
     x="-350.5936"><tspan
       id="tspan4089-7-2-9-1-1-1"
       y="-667.9588"
       x="-350.5936" /></text>
  <text
     style="font-size:12.66600037px;font-family:'Bitstream Vera Sans';opacity:0.8;fill:#000000"
     id="text4087-2-6-5-5-8-7"
     font-size="12.666px"
     xml:space="preserve"
     y="-708.7005"
     x="-326.63266"><tspan
       id="tspan4089-7-2-9-6-7-8"
       y="-708.7005"
       x="-326.63266" /></text>
  <text
     style="font-size:12.66600037px;font-family:'Bitstream Vera Sans';opacity:0.8;fill:#000000"
     id="text4087-2-6-5-3-42-9"
     font-size="12.666px"
     xml:space="preserve"
     y="-715.91046"
     x="-1818.0958"><tspan
       id="tspan4089-7-2-9-18-39-1"
       y="-715.91046"
       x="-1818.0958" /></text>
  <text
     style="font-size:12.66600037px;font-family:'Bitstream Vera Sans';opacity:0.8;fill:#000000"
     id="text4087-2-6-5-4-4-5"
     font-size="12.666px"
     xml:space="preserve"
     y="-989.14447"
     x="-357.55304"><tspan
       id="tspan4089-7-2-9-9-3-4"
       y="-989.14447"
       x="-357.55304" /></text>
  <text
     style="font-size:12.66600037px;font-family:'Bitstream Vera Sans';opacity:0.8;fill:#000000"
     id="text4087-2-6-5-7-1-0-9"
     font-size="12.666px"
     xml:space="preserve"
     y="-362.45316"
     x="1128.5703"><tspan
       id="tspan4089-7-2-9-1-8-5-2"
       y="-362.45316"
       x="1128.5703" /></text>
  <text
     style="font-size:12.66600037px;font-family:'Bitstream Vera Sans';opacity:0.8;fill:#000000"
     id="text4087-2-6-5-5-5-5-5"
     font-size="12.666px"
     xml:space="preserve"
     y="-403.19489"
     x="1152.5311"><tspan
       id="tspan4089-7-2-9-6-9-2-7"
       y="-403.19489"
       x="1152.5311" /></text>
  <text
     style="font-size:12.66600037px;font-family:'Bitstream Vera Sans';opacity:0.8;fill:#000000"
     id="text4087-2-6-5-75-9-4"
     font-size="12.666px"
     xml:space="preserve"
     y="-410.40482"
     x="-338.93192"><tspan
       id="tspan4089-7-2-9-3-1-9"
       y="-410.40482"
       x="-338.93192" /></text>
  <text
     style="font-size:12.66600037px;font-family:'Bitstream Vera Sans';opacity:0.8;fill:#000000"
     id="text4087-2-6-5-4-8-18-9"
     font-size="12.666px"
     xml:space="preserve"
     y="-683.63892"
     x="1121.6108"><tspan
       id="tspan4089-7-2-9-9-8-4-4"
       y="-683.63892"
       x="1121.6108" /></text>
  <text
     style="font-size:12.66600037px;font-family:'Bitstream Vera Sans';opacity:0.8;fill:#000000"
     id="text4087-2-6-5-45-3-5"
     font-size="12.666px"
     xml:space="preserve"
     y="-458.49609"
     x="-1276.7483"><tspan
       id="tspan4089-7-2-9-75-7-9"
       y="-458.49609"
       x="-1276.7483" /></text>
  <text
     style="font-size:12.66600037px;font-family:'Bitstream Vera Sans';opacity:0.8;fill:#000000"
     id="text4087-2-6-5-59-8-3"
     font-size="12.666px"
     xml:space="preserve"
     y="287.05743"
     x="-3100.4338"><tspan
       id="tspan4089-7-2-9-4-2-5"
       y="287.05743"
       x="-3100.4338" /></text>
  <text
     x="-1385.684"
     y="379.93109"
     xml:space="preserve"
     font-size="14px"
     id="text4087-2-6-5-20-0"
     style="font-size:12.66650009px;font-family:'Bitstream Vera Sans';opacity:0.8;fill:#000000"><tspan
       x="-1385.684"
       y="379.93109"
       id="tspan4089-7-2-9-82-8" /></text>
  <text
     style="font-size:12.66600037px;font-family:'Droid Sans';fill:#000000"
     id="text7276"
     font-size="12.666px"
     xml:space="preserve"
     y="-361.22546"
     x="367.97208"><tspan
       id="tspan7278"
       y="-361.22546"
       x="367.97208" /><tspan
       id="tspan7280"
       y="-345.3924"
       x="367.97208" /></text>
  <text
     style="font-size:12.66600037px;font-family:'Bitstream Vera Sans';opacity:0.8;fill:#000000"
     id="text4087-2-6-5-51"
     font-size="12.666px"
     xml:space="preserve"
     y="-843.27002"
     x="833.15601"><tspan
       id="tspan4089-7-2-9-97"
       y="-843.27002"
       x="833.15601" /></text>
  <text
     style="font-size:12.66600037px;font-family:'Bitstream Vera Sans';opacity:0.8;fill:#000000"
     id="text4087-2-6-5-59-2"
     font-size="12.666px"
     xml:space="preserve"
     y="-97.716553"
     x="-990.52997"><tspan
       id="tspan4089-7-2-9-4-4"
       y="-97.716553"
       x="-990.52997" /></text>
  <text
     style="font-size:12.66600037px;font-family:'Bitstream Vera Sans';opacity:0.8;fill:#000000"
     id="text4087-2-6-5-7-7"
     font-size="12.666px"
     xml:space="preserve"
     y="-1128.2659"
     x="1560.2355"><tspan
       id="tspan4089-7-2-9-1-6"
       y="-1128.2659"
       x="1560.2355" /></text>
  <text
     style="font-size:12.66600037px;font-family:'Bitstream Vera Sans';opacity:0.8;fill:#000000"
     id="text4087-2-6-5-5-6"
     font-size="12.666px"
     xml:space="preserve"
     y="-1169.0076"
     x="1584.1963"><tspan
       id="tspan4089-7-2-9-6-53"
       y="-1169.0076"
       x="1584.1963" /></text>
  <text
     style="font-size:12.66600037px;font-family:'Bitstream Vera Sans';opacity:0.8;fill:#000000"
     id="text4087-2-6-5-54"
     font-size="12.666px"
     xml:space="preserve"
     y="-1176.2175"
     x="92.733215"><tspan
       id="tspan4089-7-2-9-0"
       y="-1176.2175"
       x="92.733215" /></text>
  <text
     style="font-size:12.66600037px;font-family:'Bitstream Vera Sans';opacity:0.8;fill:#000000"
     id="text4087-2-6-5-4-1"
     font-size="12.666px"
     xml:space="preserve"
     y="-1449.4517"
     x="1553.276"><tspan
       id="tspan4089-7-2-9-9-28"
       y="-1449.4517"
       x="1553.276" /></text>
  <g
     id="g4642">
    <rect
       id="rect4203-6"
       transform="matrix(0,-1,-1,0,0,0)"
       rx="2"
       ry="2"
       height="40"
       width="40"
       y="-44"
       x="-44"
       style="fill:#dcdcbe" />
    <g
       style="fill:#00008b;fill-opacity:1;opacity:0.1"
       transform="translate(-0.5,0)"
       id="g4380">
      <g
         style="fill:#00008b;fill-opacity:1"
         id="g4359"
         transform="translate(-17,0)">
        <path
           id="rect4353"
           transform="translate(17.5,0)"
           d="M 6 4 C 5.2589301 4 4.6209515 4.4042011 4.2753906 5 L 6 5 L 6 9 L 4 9 L 4 10 L 6 10 L 6 14 L 4 14 L 4 15 L 6 15 L 6 19 L 4 19 L 4 20 L 6 20 L 6 24 L 4 24 L 4 25 L 6 25 L 6 29 L 4 29 L 4 30 L 6 30 L 6 34 L 4 34 L 4 35 L 6 35 L 6 39 L 4 39 L 4 40 L 6 40 L 6 44 L 7 44 L 7 40 L 11 40 L 11 44 L 12 44 L 12 40 L 16 40 L 16 44 L 17 44 L 17 40 L 21 40 L 21 44 L 22 44 L 22 40 L 26 40 L 26 44 L 27 44 L 27 40 L 31 40 L 31 44 L 32 44 L 32 40 L 36 40 L 36 44 L 37 44 L 37 40 L 41 40 L 41 44 L 42 44 L 42 40 L 44 40 L 44 39 L 42 39 L 42 35 L 44 35 L 44 34 L 42 34 L 42 30 L 44 30 L 44 29 L 42 29 L 42 25 L 44 25 L 44 24 L 42 24 L 42 20 L 44 20 L 44 19 L 42 19 L 42 15 L 44 15 L 44 14 L 42 14 L 42 10 L 44 10 L 44 9 L 42 9 L 42 5 L 43.724609 5 C 43.379048 4.4042011 42.74107 4 42 4 L 7 4 L 6 4 z M 7 5 L 11 5 L 11 9 L 7 9 L 7 5 z M 12 5 L 16 5 L 16 9 L 12 9 L 12 5 z M 17 5 L 21 5 L 21 9 L 17 9 L 17 5 z M 22 5 L 26 5 L 26 9 L 22 9 L 22 5 z M 27 5 L 31 5 L 31 9 L 27 9 L 27 5 z M 32 5 L 36 5 L 36 9 L 32 9 L 32 5 z M 37 5 L 41 5 L 41 9 L 37 9 L 37 5 z M 7 10 L 11 10 L 11 14 L 7 14 L 7 10 z M 12 10 L 16 10 L 16 14 L 12 14 L 12 10 z M 17 10 L 21 10 L 21 14 L 17 14 L 17 10 z M 22 10 L 26 10 L 26 14 L 22 14 L 22 10 z M 27 10 L 31 10 L 31 14 L 27 14 L 27 10 z M 32 10 L 36 10 L 36 14 L 32 14 L 32 10 z M 37 10 L 41 10 L 41 14 L 37 14 L 37 10 z M 7 15 L 11 15 L 11 19 L 7 19 L 7 15 z M 12 15 L 16 15 L 16 19 L 12 19 L 12 15 z M 17 15 L 21 15 L 21 19 L 17 19 L 17 15 z M 22 15 L 26 15 L 26 19 L 22 19 L 22 15 z M 27 15 L 31 15 L 31 19 L 27 19 L 27 15 z M 32 15 L 36 15 L 36 19 L 32 19 L 32 15 z M 37 15 L 41 15 L 41 19 L 37 19 L 37 15 z M 7 20 L 11 20 L 11 24 L 7 24 L 7 20 z M 12 20 L 16 20 L 16 24 L 12 24 L 12 20 z M 17 20 L 21 20 L 21 24 L 17 24 L 17 20 z M 22 20 L 26 20 L 26 24 L 22 24 L 22 20 z M 27 20 L 31 20 L 31 24 L 27 24 L 27 20 z M 32 20 L 36 20 L 36 24 L 32 24 L 32 20 z M 37 20 L 41 20 L 41 24 L 37 24 L 37 20 z M 7 25 L 11 25 L 11 29 L 7 29 L 7 25 z M 12 25 L 16 25 L 16 29 L 12 29 L 12 25 z M 17 25 L 21 25 L 21 29 L 17 29 L 17 25 z M 22 25 L 26 25 L 26 29 L 22 29 L 22 25 z M 27 25 L 31 25 L 31 29 L 27 29 L 27 25 z M 32 25 L 36 25 L 36 29 L 32 29 L 32 25 z M 37 25 L 41 25 L 41 29 L 37 29 L 37 25 z M 7 30 L 11 30 L 11 34 L 7 34 L 7 30 z M 12 30 L 16 30 L 16 34 L 12 34 L 12 30 z M 17 30 L 21 30 L 21 34 L 17 34 L 17 30 z M 22 30 L 26 30 L 26 34 L 22 34 L 22 30 z M 27 30 L 31 30 L 31 34 L 27 34 L 27 30 z M 32 30 L 36 30 L 36 34 L 32 34 L 32 30 z M 37 30 L 41 30 L 41 34 L 37 34 L 37 30 z M 7 35 L 11 35 L 11 39 L 7 39 L 7 35 z M 12 35 L 16 35 L 16 39 L 12 39 L 12 35 z M 17 35 L 21 35 L 21 39 L 17 39 L 17 35 z M 22 35 L 26 35 L 26 39 L 22 39 L 22 35 z M 27 35 L 31 35 L 31 39 L 27 39 L 27 35 z M 32 35 L 36 35 L 36 39 L 32 39 L 32 35 z M 37 35 L 41 35 L 41 39 L 37 39 L 37 35 z "
           style="opacity:1;fill:#00008b;fill-opacity:1;stroke:none;stroke-width:2;stroke-linecap:round;stroke-linejoin:round;stroke-miterlimit:4;stroke-dasharray:none;stroke-opacity:1" />
      </g>
      <g
         style="fill:#00008b;fill-opacity:1"
         transform="translate(-2,0)"
         id="g4364" />
      <g
         style="fill:#00008b;fill-opacity:1"
         id="g4372"
         transform="translate(13,0)" />
    </g>
    <path
       id="rect4592"
       d="M 6,4 C 4.892,4 4,4.892 4,6 L 4,7 C 4,5.892 4.892,5 6,5 l 36,0 c 1.108,0 2,0.892 2,2 L 44,6 C 44,4.892 43.108,4 42,4 L 6,4 Z"
       inkscape:connector-curvature="0"
       style="opacity:0.2;fill:#ffffff" />
    <path
       id="path4597"
       d="M 6,44 C 4.892,44 4,43.108 4,42 l 0,-1 c 0,1.108 0.892,2 2,2 l 36,0 c 1.108,0 2,-0.892 2,-2 l 0,1 c 0,1.108 -0.892,2 -2,2 L 6,44 Z"
       inkscape:connector-curvature="0"
       style="opacity:0.3" />
    <g
       style="fill:#ff2f2f;fill-opacity:1"
       id="g4614">
      <rect
         style="opacity:1;fill:#ff2f2f;fill-opacity:1;stroke:none;stroke-width:2;stroke-linecap:round;stroke-linejoin:round;stroke-miterlimit:4;stroke-dasharray:none;stroke-opacity:1"
         id="rect4527"
         width="4"
         height="1"
         x="4"
         y="24" />
      <rect
         y="24"
         x="10"
         height="1"
         width="4"
         id="rect4529"
         style="opacity:1;fill:#ff2f2f;fill-opacity:1;stroke:none;stroke-width:2;stroke-linecap:round;stroke-linejoin:round;stroke-miterlimit:4;stroke-dasharray:none;stroke-opacity:1" />
      <rect
         style="opacity:1;fill:#ff2f2f;fill-opacity:1;stroke:none;stroke-width:2;stroke-linecap:round;stroke-linejoin:round;stroke-miterlimit:4;stroke-dasharray:none;stroke-opacity:1"
         id="rect4531"
         width="4"
         height="1"
         x="16"
         y="24" />
      <rect
         y="24"
         x="22"
         height="1"
         width="4"
         id="rect4540"
         style="opacity:1;fill:#ff2f2f;fill-opacity:1;stroke:none;stroke-width:2;stroke-linecap:round;stroke-linejoin:round;stroke-miterlimit:4;stroke-dasharray:none;stroke-opacity:1" />
      <rect
         style="opacity:1;fill:#ff2f2f;fill-opacity:1;stroke:none;stroke-width:2;stroke-linecap:round;stroke-linejoin:round;stroke-miterlimit:4;stroke-dasharray:none;stroke-opacity:1"
         id="rect4542"
         width="4"
         height="1"
         x="28"
         y="24" />
      <rect
         y="24"
         x="34"
         height="1"
         width="4"
         id="rect4544"
         style="opacity:1;fill:#ff2f2f;fill-opacity:1;stroke:none;stroke-width:2;stroke-linecap:round;stroke-linejoin:round;stroke-miterlimit:4;stroke-dasharray:none;stroke-opacity:1" />
      <rect
         style="opacity:1;fill:#ff2f2f;fill-opacity:1;stroke:none;stroke-width:2;stroke-linecap:round;stroke-linejoin:round;stroke-miterlimit:4;stroke-dasharray:none;stroke-opacity:1"
         id="rect4549"
         width="4"
         height="1"
         x="40"
         y="24" />
    </g>
    <path
       sodipodi:nodetypes="cssc"
       inkscape:connector-curvature="0"
       id="path4525"
       d="m 8,30 c 0,0 10.793861,7.014327 15,4 8.14628,-5.838027 -7.5015,-21.811592 2,-25 6.272722,-2.1049309 13,13 13,13"
       style="fill:none;fill-rule:evenodd;stroke:#2e2e2e;stroke-width:2;stroke-linecap:round;stroke-linejoin:round;stroke-miterlimit:4;stroke-dasharray:none;stroke-opacity:1" />
    <path
       id="path4026"
       d="M 6,5 C 4.892,5 4,5.892 4,7 L 4,24 44,24 44,7 C 44,5.892 43.108,5 42,5 L 6,5 Z"
       style="opacity:0.15;fill:url(#linearGradient4191)"
       inkscape:connector-curvature="0" />
    <g
       id="g4495"
       transform="matrix(0,1,-1.1,0,51.4,-2.5)">
      <g
         transform="translate(-17,0)"
         id="g4497" />
      <g
         id="g4505"
         transform="translate(-2,0)" />
      <g
         transform="translate(13,0)"
         id="g4513" />
    </g>
  </g>
</svg>
