<?xml version="1.0" encoding="UTF-8" standalone="no"?>
<!-- Created with Inkscape (http://www.inkscape.org/) -->

<svg
   xmlns:dc="http://purl.org/dc/elements/1.1/"
   xmlns:cc="http://creativecommons.org/ns#"
   xmlns:rdf="http://www.w3.org/1999/02/22-rdf-syntax-ns#"
   xmlns:svg="http://www.w3.org/2000/svg"
   xmlns="http://www.w3.org/2000/svg"
   xmlns:sodipodi="http://sodipodi.sourceforge.net/DTD/sodipodi-0.dtd"
   xmlns:inkscape="http://www.inkscape.org/namespaces/inkscape"
   id="svg2817"
   height="48"
   width="48"
   version="1.0"
   inkscape:version="0.91 r"
   sodipodi:docname="kolf.svg">
  <defs
     id="defs12" />
  <sodipodi:namedview
     pagecolor="#eff0f1"
     bordercolor="#666666"
     borderopacity="1"
     objecttolerance="10"
     gridtolerance="10"
     guidetolerance="10"
     inkscape:pageopacity="0"
     inkscape:pageshadow="2"
     inkscape:window-width="1600"
     inkscape:window-height="846"
     id="namedview10"
     showgrid="false"
     inkscape:zoom="1"
     inkscape:cx="13.808127"
     inkscape:cy="20.215705"
     inkscape:window-x="-5"
     inkscape:window-y="28"
     inkscape:window-maximized="1"
     inkscape:current-layer="svg2817"
     showborder="false" />
  <metadata
     id="metadata57">
    <rdf:RDF>
      <cc:Work
         rdf:about="">
        <dc:format>image/svg+xml</dc:format>
        <dc:type
           rdf:resource="http://purl.org/dc/dcmitype/StillImage" />
        <dc:title></dc:title>
      </cc:Work>
    </rdf:RDF>
  </metadata>
  <rect
     style="fill:#d2d2d2;fill-opacity:1"
     x="-44"
     y="-44"
     width="40"
     height="40"
     ry="20"
     rx="20"
     transform="matrix(0,-1,-1,0,0,0)"
     id="rect4203-2" />
  <path
     style="opacity:0.4;fill:#ffffff;fill-opacity:1"
     d="m 43.085297,18.020795 c -0.27932,-0.891572 -0.619273,-1.747189 -1.005379,-2.56887 a 3,3 0 0 0 -0.903151,3.166792 3,3 0 0 0 2.548021,2.083531 c -0.151726,-0.89447 -0.360369,-1.790512 -0.639491,-2.681453 z m -1.791981,-4.053972 c -0.67413,-1.168286 -1.454347,-2.24827 -2.32759,-3.23531 a 3,3 0 0 0 0.118314,1.207347 3,3 0 0 0 2.209276,2.027963 z m 2.633425,8.405738 a 3,3 0 0 0 -0.65725,2.926013 3,3 0 0 0 0.590439,1.061481 c 0.154237,-1.309681 0.179856,-2.642516 0.06681,-3.987495 z M 38.129775,12.23782 a 3,3 0 0 0 -3.759679,-1.965912 3,3 0 0 0 -1.965914,3.759678 3,3 0 0 0 3.75968,1.965914 3,3 0 0 0 1.965913,-3.75968 z m 2.092726,6.679858 a 3,3 0 0 0 -3.759678,-1.965913 3,3 0 0 0 -1.965914,3.759679 3,3 0 0 0 3.75968,1.965913 3,3 0 0 0 1.965912,-3.759679 z m 2.092727,6.679858 a 3,3 0 0 0 -3.759679,-1.965913 3,3 0 0 0 -1.965914,3.759678 3,3 0 0 0 3.75968,1.965913 3,3 0 0 0 1.965913,-3.759678 z m 0.592968,4.90445 a 3,3 0 0 0 -2.25992,-0.190507 3,3 0 0 0 -1.965913,3.75968 3,3 0 0 0 1.447189,1.744801 c 1.188842,-1.622562 2.124706,-3.411749 2.778644,-5.313974 z M 35.815936,7.8704532 C 34.193374,6.6816107 32.404186,5.7457469 30.501963,5.091809 a 3,3 0 0 0 -0.190508,2.25992 3,3 0 0 0 3.759679,1.9659134 3,3 0 0 0 1.744802,-1.4471892 z M 29.357191,7.6506901 A 3,3 0 0 0 25.597511,5.684777 3,3 0 0 0 23.631599,9.4444559 3,3 0 0 0 27.391277,11.41037 3,3 0 0 0 29.357191,7.6506901 Z m 2.092726,6.6798569 a 3,3 0 0 0 -3.759678,-1.965913 3,3 0 0 0 -1.965914,3.759679 3,3 0 0 0 3.759679,1.965913 3,3 0 0 0 1.965913,-3.759679 z m 2.092726,6.679858 a 3,3 0 0 0 -3.759678,-1.965913 3,3 0 0 0 -1.965913,3.759679 3,3 0 0 0 3.759679,1.965913 3,3 0 0 0 1.965912,-3.759679 z m 2.092728,6.679857 a 3,3 0 0 0 -3.759679,-1.965913 3,3 0 0 0 -1.965913,3.75968 3,3 0 0 0 3.759678,1.965912 3,3 0 0 0 1.965914,-3.759679 z m 2.092726,6.679858 a 3,3 0 0 0 -3.759678,-1.965914 3,3 0 0 0 -1.965914,3.75968 3,3 0 0 0 3.75968,1.965913 3,3 0 0 0 1.965912,-3.759679 z M 26.360031,4.1400727 C 25.05035,3.9858361 23.717516,3.9602172 22.372536,4.0732639 A 3,3 0 0 0 25.29855,4.7305136 3,3 0 0 0 26.360031,4.1400747 Z M 37.268492,38.965751 a 3,3 0 0 0 -1.207347,0.118311 3,3 0 0 0 -2.027963,2.209276 c 1.168286,-0.674128 2.24827,-1.454345 3.23531,-2.327587 z M 22.677333,9.7434164 a 3,3 0 0 0 -3.759679,-1.9659126 3,3 0 0 0 -1.965913,3.7596782 3,3 0 0 0 3.759678,1.965914 3,3 0 0 0 1.965914,-3.7596796 z m 2.092726,6.6798576 a 3,3 0 0 0 -3.759678,-1.965912 3,3 0 0 0 -1.965913,3.759678 3,3 0 0 0 3.759679,1.965913 3,3 0 0 0 1.965912,-3.759679 z m 2.092727,6.679858 a 3,3 0 0 0 -3.759678,-1.965913 3,3 0 0 0 -1.965913,3.759678 3,3 0 0 0 3.759678,1.965913 3,3 0 0 0 1.965913,-3.759678 z m 2.092727,6.679858 a 3,3 0 0 0 -3.759679,-1.965913 3,3 0 0 0 -1.965913,3.759678 3,3 0 0 0 3.75968,1.965913 3,3 0 0 0 1.965912,-3.759678 z m 2.092727,6.679857 a 3,3 0 0 0 -3.759679,-1.965914 3,3 0 0 0 -1.965913,3.75968 3,3 0 0 0 3.759679,1.965912 3,3 0 0 0 1.965913,-3.759678 z m 1.49984,5.617095 a 3,3 0 0 0 -3.166792,-0.903152 3,3 0 0 0 -2.083531,2.548022 c 0.89447,-0.151726 1.790512,-0.360369 2.681453,-0.639491 0.891572,-0.27932 1.747189,-0.619273 2.56887,-1.005379 z M 20.702224,4.2752174 C 19.807753,4.4269428 18.911711,4.6355858 18.020771,4.9147077 17.129198,5.1940278 16.273581,5.5339808 15.4519,5.9200866 a 3,3 0 0 0 3.166793,0.9031517 3,3 0 0 0 2.083531,-2.5480209 z m -4.704749,7.5609256 a 3,3 0 0 0 -3.759679,-1.9659127 3,3 0 0 0 -1.965913,3.7596787 3,3 0 0 0 3.75968,1.965913 3,3 0 0 0 1.965912,-3.759679 z m 2.092727,6.679858 a 3,3 0 0 0 -3.759678,-1.965913 3,3 0 0 0 -1.965913,3.759678 3,3 0 0 0 3.759678,1.965913 3,3 0 0 0 1.965913,-3.759678 z m 2.092726,6.679857 a 3,3 0 0 0 -3.759678,-1.965912 3,3 0 0 0 -1.965913,3.759678 3,3 0 0 0 3.759678,1.965913 3,3 0 0 0 1.965913,-3.759679 z m 2.092728,6.679858 a 3,3 0 0 0 -3.75968,-1.965913 3,3 0 0 0 -1.965912,3.759679 3,3 0 0 0 3.759679,1.965912 3,3 0 0 0 1.965913,-3.759678 z m 2.092726,6.679858 a 3,3 0 0 0 -3.759678,-1.965914 3,3 0 0 0 -1.965914,3.759679 3,3 0 0 0 3.759679,1.965913 3,3 0 0 0 1.965913,-3.759678 z M 13.9668,6.7066894 C 12.798513,7.3808191 11.718529,8.1610361 10.73149,9.034279 A 3,3 0 0 0 11.938835,8.9159654 3,3 0 0 0 13.9668,6.7066894 Z M 25.627444,43.926765 a 3,3 0 0 0 -2.926009,-0.65727 3,3 0 0 0 -1.06148,0.59044 c 1.309681,0.154236 2.642515,0.179855 3.987494,0.06681 z M 9.3176188,13.928871 A 3,3 0 0 0 7.8704296,12.184069 c -1.1888425,1.622562 -2.1247082,3.41175 -2.7786437,5.313973 A 3,3 0 0 0 7.351705,17.68855 3,3 0 0 0 9.3176188,13.928871 Z m 2.0927262,6.679856 a 3,3 0 0 0 -3.7596791,-1.965913 3,3 0 0 0 -1.9659128,3.75968 3,3 0 0 0 3.7596783,1.965913 3,3 0 0 0 1.9659136,-3.75968 z m 2.092727,6.679858 a 3,3 0 0 0 -3.7596796,-1.965913 3,3 0 0 0 -1.9659128,3.759679 3,3 0 0 0 3.7596784,1.965913 3,3 0 0 0 1.965914,-3.759679 z m 2.092727,6.679857 a 3,3 0 0 0 -3.75968,-1.965912 3,3 0 0 0 -1.965913,3.759679 3,3 0 0 0 3.759679,1.965913 3,3 0 0 0 1.965914,-3.75968 z m 2.092727,6.679858 a 3,3 0 0 0 -3.75968,-1.965914 3,3 0 0 0 -1.744801,1.447189 c 1.622563,1.188843 3.411751,2.124708 5.313974,2.778644 A 3,3 0 0 0 17.688526,40.6483 Z M 4.7304876,22.701455 A 3,3 0 0 0 4.1400493,21.639974 c -0.1542365,1.309681 -0.1798559,2.642515 -0.06681,3.987495 a 3,3 0 0 0 0.6572692,-2.92601 z m 2.0927265,6.679857 A 3,3 0 0 0 4.2751929,27.297781 c 0.1517263,0.894471 0.360369,1.790513 0.6394911,2.681453 0.2793197,0.891573 0.6192728,1.74719 1.0053788,2.568871 a 3,3 0 0 0 0.9031513,-3.166793 z m 2.0927274,6.679858 a 3,3 0 0 0 -2.209276,-2.027965 c 0.6741291,1.168287 1.4543465,2.248271 2.3275899,3.23531 A 3,3 0 0 0 8.9159445,36.06117 Z"
     id="path4145"
     inkscape:connector-curvature="0" />
  <path
     style="opacity:0.2;fill:#ffffff"
     inkscape:connector-curvature="0"
     d="M 24,4 C 12.92,4 4,12.92 4,24 4,24.168 3.996,24.333 4,24.5 4.2644,13.654 13.088,5 24,5 34.912,5 43.736,13.654 44,24.5 44.004,24.333 44,24.168 44,24 44,12.92 35.08,4 24,4 Z"
     id="rect3436" />
  <path
     style="opacity:0.3"
     inkscape:connector-curvature="0"
     d="M 4.0117,23.5 C 4.0076,23.667 4,23.832 4,24 4,35.08 12.92,44 24,44 35.08,44 44,35.08 44,24 44,23.832 43.992,23.667 43.988,23.5 43.724,34.346 34.912,43 24,43 13.088,43 4.276,34.346 4.012,23.5 Z"
     id="rect4209" />
</svg>
