<?xml version="1.0" encoding="UTF-8" standalone="no"?>
<!-- Created with Inkscape (http://www.inkscape.org/) -->

<svg
   xmlns:dc="http://purl.org/dc/elements/1.1/"
   xmlns:cc="http://creativecommons.org/ns#"
   xmlns:rdf="http://www.w3.org/1999/02/22-rdf-syntax-ns#"
   xmlns:svg="http://www.w3.org/2000/svg"
   xmlns="http://www.w3.org/2000/svg"
   xmlns:sodipodi="http://sodipodi.sourceforge.net/DTD/sodipodi-0.dtd"
   xmlns:inkscape="http://www.inkscape.org/namespaces/inkscape"
   width="48"
   height="48"
   viewBox="0 0 48 48.000001"
   id="svg4430"
   version="1.1"
   inkscape:version="0.91 r13725"
   sodipodi:docname="maps.svg">
  <defs
     id="defs4432" />
  <sodipodi:namedview
     id="base"
     pagecolor="#686868"
     bordercolor="#666666"
     borderopacity="1.0"
     inkscape:pageopacity="0"
     inkscape:pageshadow="2"
     inkscape:zoom="1"
     inkscape:cx="-15.303228"
     inkscape:cy="15.426417"
     inkscape:document-units="px"
     inkscape:current-layer="layer1"
     showgrid="false"
     units="px"
     inkscape:window-width="1600"
     inkscape:window-height="847"
     inkscape:window-x="0"
     inkscape:window-y="30"
     inkscape:window-maximized="1" />
  <metadata
     id="metadata4435">
    <rdf:RDF>
      <cc:Work
         rdf:about="">
        <dc:format>image/svg+xml</dc:format>
        <dc:type
           rdf:resource="http://purl.org/dc/dcmitype/StillImage" />
        <dc:title></dc:title>
      </cc:Work>
    </rdf:RDF>
  </metadata>
  <g
     inkscape:label="Layer 1"
     inkscape:groupmode="layer"
     id="layer1"
     transform="translate(0,-1004.3622)">
    <rect
       transform="matrix(0,-1,-1,0,0,0)"
       style="fill:#e9e5dc;fill-opacity:1;stroke:none"
       id="rect4203"
       width="40"
       height="40"
       x="-1050.3622"
       y="-42.000061"
       rx="2"
       ry="2" />
    <path
       style="opacity:0.1;fill:#ffffff;fill-opacity:1;stroke:none"
       d="m 4.000059,1010.3622 c -1.108,0 -2,0.892 -2,2 l 0,1 c 0,-1.108 0.892,-2 2,-2 l 36,0 c 1.108,0 2,0.892 2,2 l 0,-1 c 0,-1.108 -0.892,-2 -2,-2 l -36,0 z"
       id="rect4592"
       inkscape:connector-curvature="0" />
    <path
       style="fill:#2095f2;fill-opacity:1;fill-rule:evenodd;stroke:none;stroke-width:1px;stroke-linecap:butt;stroke-linejoin:miter;stroke-opacity:1"
       d="m 4.000059,1050.3622 18,-18 18,18 z"
       id="path4397"
       inkscape:connector-curvature="0" />
    <path
       inkscape:connector-curvature="0"
       id="path4399"
       d="m 42.000059,1048.3622 -18,-18 18,-18 z"
       style="fill:#1ea362;fill-opacity:1;fill-rule:evenodd;stroke:none;stroke-width:1px;stroke-linecap:butt;stroke-linejoin:miter;stroke-opacity:1" />
    <path
       inkscape:connector-curvature="0"
       style="color:#000000;font-style:normal;font-variant:normal;font-weight:normal;font-stretch:normal;font-size:medium;line-height:normal;font-family:sans-serif;text-indent:0;text-align:start;text-decoration:none;text-decoration-line:none;text-decoration-style:solid;text-decoration-color:#000000;letter-spacing:normal;word-spacing:normal;text-transform:none;direction:ltr;block-progression:tb;writing-mode:lr-tb;baseline-shift:baseline;text-anchor:start;white-space:normal;clip-rule:nonzero;display:inline;overflow:visible;visibility:visible;opacity:1;isolation:auto;mix-blend-mode:normal;color-interpolation:sRGB;color-interpolation-filters:linearRGB;solid-color:#000000;solid-opacity:1;fill:#feea3a;fill-opacity:1;fill-rule:evenodd;stroke:none;stroke-width:5;stroke-linecap:butt;stroke-linejoin:miter;stroke-miterlimit:4;stroke-dasharray:none;stroke-dashoffset:0;stroke-opacity:1;color-rendering:auto;image-rendering:auto;shape-rendering:auto;text-rendering:auto;enable-background:accumulate"
       d="m 23.767578,1028.5946 -3.535156,3.5371 18.230469,18.2305 1.537109,0 c 1.108,0 2,-0.892 2,-2 l 0,-1.5352 -18.232422,-18.2324 z"
       id="path4395" />
    <path
       inkscape:connector-curvature="0"
       style="color:#000000;font-style:normal;font-variant:normal;font-weight:normal;font-stretch:normal;font-size:medium;line-height:normal;font-family:sans-serif;text-indent:0;text-align:start;text-decoration:none;text-decoration-line:none;text-decoration-style:solid;text-decoration-color:#000000;letter-spacing:normal;word-spacing:normal;text-transform:none;direction:ltr;block-progression:tb;writing-mode:lr-tb;baseline-shift:baseline;text-anchor:start;white-space:normal;clip-rule:nonzero;display:inline;overflow:visible;visibility:visible;opacity:1;isolation:auto;mix-blend-mode:normal;color-interpolation:sRGB;color-interpolation-filters:linearRGB;solid-color:#000000;solid-opacity:1;fill:#ffffff;fill-opacity:1;fill-rule:evenodd;stroke:none;stroke-width:5;stroke-linecap:butt;stroke-linejoin:miter;stroke-miterlimit:4;stroke-dasharray:none;stroke-dashoffset:0;stroke-opacity:1;color-rendering:auto;image-rendering:auto;shape-rendering:auto;text-rendering:auto;enable-background:accumulate"
       d="M 38.464844,1010.3622 2,1046.827 l 0,1.5352 c 0,1.108 0.892,2 2,2 l 1.5371094,0 L 42,1013.8993 l 0,-1.5371 c 0,-1.108 -0.892,-2 -2,-2 l -1.535156,0 z"
       id="path4393" />
    <path
       sodipodi:nodetypes="cscccccscc"
       inkscape:connector-curvature="0"
       id="path4179"
       d="m 34.000062,1008.3622 c -6.627474,0 -12.00012,5.2753 -12.00012,11.7829 0,0.4067 0.03408,0.7821 0.07488,1.1782 0.03288,0.3942 0.08592,0.7922 0.150001,1.1783 1.373966,8.2821 6.97519,14.1475 11.775238,18.8606 4.800048,-4.7131 10.401032,-10.5785 11.774998,-18.8606 0.06408,-0.3861 0.117121,-0.7841 0.150001,-1.1783 0.04104,-0.3961 0.07488,-0.7715 0.07488,-1.1782 0,-6.5076 -5.372646,-11.7829 -12.00012,-11.7829 z"
       style="color:#000000;display:inline;overflow:visible;visibility:visible;opacity:0.2;fill:#000000;fill-opacity:1;fill-rule:nonzero;stroke:none;stroke-width:2;marker:none;enable-background:new" />
    <path
       style="color:#000000;display:inline;overflow:visible;visibility:visible;fill:#f34235;fill-opacity:1;fill-rule:nonzero;stroke:none;stroke-width:2;marker:none;enable-background:new"
       d="m 34.000062,1007.3622 c -6.627474,0 -12.00012,5.2753 -12.00012,11.7829 0,0.4067 0.03408,0.7821 0.07488,1.1782 0.03288,0.3942 0.08592,0.7922 0.150001,1.1783 1.373966,8.2821 6.97519,14.1475 11.775238,18.8606 4.800048,-4.7131 10.401032,-10.5785 11.774998,-18.8606 0.06408,-0.3861 0.117121,-0.7841 0.150001,-1.1783 0.04104,-0.3961 0.07488,-0.7715 0.07488,-1.1782 0,-6.5076 -5.372646,-11.7829 -12.00012,-11.7829 z"
       id="path4534"
       inkscape:connector-curvature="0"
       sodipodi:nodetypes="cscccccscc" />
    <path
       style="color:#000000;display:inline;overflow:visible;visibility:visible;opacity:0.2;fill:#000000;fill-opacity:1;fill-rule:nonzero;stroke:none;stroke-width:2;marker:none;enable-background:new"
       d="m 34.000062,1014.3622 c 2.76142,0 4.999994,2.2386 4.999994,5 0,2.7614 -2.238574,5 -4.999994,5 -2.761432,0 -5.000006,-2.2386 -5.000006,-5 0,-2.7614 2.238574,-5 5.000006,-5 z"
       id="path4619"
       inkscape:connector-curvature="0"
       sodipodi:nodetypes="sssss" />
    <path
       sodipodi:nodetypes="sssss"
       inkscape:connector-curvature="0"
       id="path4536"
       d="m 34.000062,1013.3622 c 2.76142,0 4.999994,2.2386 4.999994,5 0,2.7614 -2.238574,5 -4.999994,5 -2.761432,0 -5.000006,-2.2386 -5.000006,-5 0,-2.7614 2.238574,-5 5.000006,-5 z"
       style="color:#000000;display:inline;overflow:visible;visibility:visible;fill:#ffffff;fill-opacity:1;fill-rule:nonzero;stroke:none;stroke-width:2;marker:none;enable-background:new" />
    <path
       id="path4597"
       d="m 4.000059,1050.3622 c -1.108,0 -2,-0.892 -2,-2 l 0,-1 c 0,1.108 0.892,2 2,2 l 36,0 c 1.108,0 2,-0.892 2,-2 l 0,1 c 0,1.108 -0.892,2 -2,2 l -36,0 z"
       style="opacity:0.3;fill:#000000;fill-opacity:1;stroke:none"
       inkscape:connector-curvature="0" />
  </g>
</svg>
