<?xml version="1.0" encoding="UTF-8" standalone="no"?>
<!-- Created with Inkscape (http://www.inkscape.org/) -->

<svg
   xmlns:dc="http://purl.org/dc/elements/1.1/"
   xmlns:cc="http://creativecommons.org/ns#"
   xmlns:rdf="http://www.w3.org/1999/02/22-rdf-syntax-ns#"
   xmlns:svg="http://www.w3.org/2000/svg"
   xmlns="http://www.w3.org/2000/svg"
   xmlns:sodipodi="http://sodipodi.sourceforge.net/DTD/sodipodi-0.dtd"
   xmlns:inkscape="http://www.inkscape.org/namespaces/inkscape"
   width="48"
   height="48"
   viewBox="0 0 48 48.000001"
   id="svg4231"
   version="1.1"
   inkscape:version="0.91 r"
   sodipodi:docname="password-manager.svg">
  <defs
     id="defs4233" />
  <sodipodi:namedview
     id="base"
     pagecolor="#ffffff"
     bordercolor="#666666"
     borderopacity="1.0"
     inkscape:pageopacity="0.0"
     inkscape:pageshadow="2"
     inkscape:zoom="1"
     inkscape:cx="25.318975"
     inkscape:cy="20.228419"
     inkscape:document-units="px"
     inkscape:current-layer="layer1"
     showgrid="false"
     units="px"
     inkscape:window-width="1600"
     inkscape:window-height="846"
     inkscape:window-x="0"
     inkscape:window-y="26"
     inkscape:window-maximized="1" />
  <metadata
     id="metadata4236">
    <rdf:RDF>
      <cc:Work
         rdf:about="">
        <dc:format>image/svg+xml</dc:format>
        <dc:type
           rdf:resource="http://purl.org/dc/dcmitype/StillImage" />
        <dc:title></dc:title>
      </cc:Work>
    </rdf:RDF>
  </metadata>
  <g
     inkscape:label="Layer 1"
     inkscape:groupmode="layer"
     id="layer1"
     transform="translate(0,-1004.3622)">
    <path
       inkscape:connector-curvature="0"
       id="path4444"
       d="m 15,1017.3622 a 10.999999,10.999999 0 0 0 -11,11 10.999999,10.999999 0 0 0 11,11 10.999999,10.999999 0 0 0 10.57227,-8 l 8.42773,0 0,5.0273 6.96484,0 0,-5.0273 3.03516,0 0,-7 -18.75391,0 a 10.999999,10.999999 0 0 0 -10.24609,-7 z"
       style="opacity:1;fill:#4bae4f;fill-opacity:1;stroke:none;stroke-width:8;stroke-linecap:round;stroke-linejoin:miter;stroke-miterlimit:4;stroke-dasharray:none;stroke-opacity:1" />
    <circle
       r="4"
       cy="1029.3622"
       cx="15"
       id="circle4446"
       style="opacity:0.2;fill:#000000;fill-opacity:1;stroke:none;stroke-width:8;stroke-linecap:round;stroke-linejoin:miter;stroke-miterlimit:4;stroke-dasharray:none;stroke-opacity:1" />
    <circle
       style="opacity:1;fill:#f9f9f9;fill-opacity:1;stroke:none;stroke-width:8;stroke-linecap:round;stroke-linejoin:miter;stroke-miterlimit:4;stroke-dasharray:none;stroke-opacity:1"
       id="circle4448"
       cx="15"
       cy="1028.3622"
       r="4" />
    <path
       inkscape:connector-curvature="0"
       id="path4474"
       d="m 15,1017.3622 a 10.999999,10.999999 0 0 0 -11,11 10.999999,10.999999 0 0 0 0.0215,0.4141 10.999999,10.999999 0 0 1 10.9785,-10.4141 10.999999,10.999999 0 0 1 10.24609,7 l 18.75391,0 0,-1 -18.75391,0 a 10.999999,10.999999 0 0 0 -10.24609,-7 z"
       style="opacity:0.2;fill:#ffffff;fill-opacity:1;stroke:none;stroke-width:8;stroke-linecap:round;stroke-linejoin:miter;stroke-miterlimit:4;stroke-dasharray:none;stroke-opacity:1" />
    <path
       style="opacity:0.3;fill:#000000;fill-opacity:1;stroke:none;stroke-width:8;stroke-linecap:round;stroke-linejoin:miter;stroke-miterlimit:4;stroke-dasharray:none;stroke-opacity:1"
       d="M 4.0214844 23.414062 A 10.999999 10.999999 0 0 0 4 24 A 10.999999 10.999999 0 0 0 15 35 A 10.999999 10.999999 0 0 0 25.572266 27 L 34 27 L 34 26 L 25.572266 26 A 10.999999 10.999999 0 0 1 15 34 A 10.999999 10.999999 0 0 1 4.0214844 23.414062 z M 40.964844 26 L 40.964844 27 L 44 27 L 44 26 L 40.964844 26 z M 34 31.027344 L 34 32.027344 L 40.964844 32.027344 L 40.964844 31.027344 L 34 31.027344 z "
       transform="translate(0,1004.3622)"
       id="path4824" />
  </g>
</svg>
