<?xml version="1.0" encoding="UTF-8" standalone="no"?>
<!-- Created with Inkscape (http://www.inkscape.org/) -->

<svg
   xmlns:dc="http://purl.org/dc/elements/1.1/"
   xmlns:cc="http://creativecommons.org/ns#"
   xmlns:rdf="http://www.w3.org/1999/02/22-rdf-syntax-ns#"
   xmlns:svg="http://www.w3.org/2000/svg"
   xmlns="http://www.w3.org/2000/svg"
   xmlns:xlink="http://www.w3.org/1999/xlink"
   xmlns:sodipodi="http://sodipodi.sourceforge.net/DTD/sodipodi-0.dtd"
   xmlns:inkscape="http://www.inkscape.org/namespaces/inkscape"
   width="48"
   height="48"
   viewBox="0 0 48 48.000001"
   id="svg4779"
   version="1.1"
   inkscape:version="0.91 r"
   sodipodi:docname="synapse.svg">
  <defs
     id="defs4781">
    <linearGradient
       inkscape:collect="always"
       id="linearGradient4162">
      <stop
         style="stop-color:#000000;stop-opacity:1"
         offset="0"
         id="stop4164" />
      <stop
         style="stop-color:#000000;stop-opacity:0"
         offset="1"
         id="stop4166" />
    </linearGradient>
    <linearGradient
       inkscape:collect="always"
       xlink:href="#linearGradient4162"
       id="linearGradient4168"
       x1="-1028.3622"
       y1="-24"
       x2="-1008.3622"
       y2="-24"
       gradientUnits="userSpaceOnUse"
       gradientTransform="matrix(0,-1,-1,0,0,0)" />
  </defs>
  <sodipodi:namedview
     id="base"
     pagecolor="#ffffff"
     bordercolor="#666666"
     borderopacity="1.0"
     inkscape:pageopacity="0.0"
     inkscape:pageshadow="2"
     inkscape:zoom="9.95"
     inkscape:cx="45.447236"
     inkscape:cy="19.483167"
     inkscape:document-units="px"
     inkscape:current-layer="layer1"
     showgrid="false"
     units="px"
     inkscape:window-width="1600"
     inkscape:window-height="847"
     inkscape:window-x="0"
     inkscape:window-y="26"
     inkscape:window-maximized="1" />
  <metadata
     id="metadata4784">
    <rdf:RDF>
      <cc:Work
         rdf:about="">
        <dc:format>image/svg+xml</dc:format>
        <dc:type
           rdf:resource="http://purl.org/dc/dcmitype/StillImage" />
        <dc:title />
      </cc:Work>
    </rdf:RDF>
  </metadata>
  <g
     inkscape:label="Layer 1"
     inkscape:groupmode="layer"
     id="layer1"
     transform="translate(0,-1004.3622)">
    <rect
       style="fill:#20b293;fill-opacity:1"
       x="-1048.3622"
       y="-44"
       width="40"
       height="40"
       ry="20"
       rx="20"
       transform="matrix(0,-1,-1,0,0,0)"
       id="rect4203-4" />
    <path
       inkscape:connector-curvature="0"
       style="opacity:0.8;fill:#ffffff;fill-opacity:1"
       d="m 22.710938,1015.3622 0,2.9258 c -4.234,0.516 -7.667938,3.5551 -8.710938,7.5351 l 2.675781,0 c 1.098,-2.875 4.009594,-5.1167 7.183594,-5.0937 0.078,0 0.156469,0 0.230469,0 1.156,0.01 2.289406,0.289 3.316406,0.793 1.852,0.82 3.226531,2.4376 3.894531,4.3046 l 2.699219,0 c -1.043,-3.98 -4.476938,-7.0201 -8.710938,-7.5351 l 0,-2.9258 -2.578124,0 z M 24,1022.8349 c -3.141,0 -5.683594,2.4918 -5.683594,5.5898 0,0 -0.039,0.5232 0.125,1.1172 l 8.730469,0 c -0.238,0.648 -0.660375,1.2302 -1.234375,1.6172 -1.32,1.027 -3.320313,0.6519 -4.445312,-0.4961 l -2.703126,0 c 0.879001,1.973 2.878938,3.3515 5.210938,3.3515 3.141,0 5.683594,-2.4998 5.683594,-5.5898 0,0 -2.8e-4,-0.5742 -0.113282,-1.1172 l -8.732421,0 c 0.492,-1.223 1.667296,-2.2106 3.029297,-2.2226 0.066,0 0.137126,0 0.203124,0 0.914001,0.02 1.800969,0.4453 2.417969,1.1093 l 2.722657,0 C 28.331937,1024.2173 26.328,1022.8349 24,1022.8349 Z m -10,8.0664 c 1.043,3.98 4.476938,7.0201 8.710938,7.5351 l 0,2.9258 2.578124,0 0,-2.9258 c 4.234,-0.52 7.667938,-3.5551 8.710938,-7.5351 l -2.660156,0 c -1.043,3.02 -4.270344,5.2028 -7.527344,5.0898 -3.176,0.016 -6.049906,-2.2148 -7.128906,-5.0898 l -2.683594,0 z"
       id="rect4451" />
    <path
       style="opacity:0.1;fill:url(#linearGradient4168);fill-opacity:1"
       d="m 44,1028.3622 c 0,-11.08 -8.92,-20 -20,-20 -11.08,0 -20,8.92 -20,20 z"
       id="rect4159"
       inkscape:connector-curvature="0"
       sodipodi:nodetypes="cscc" />
    <path
       style="opacity:0.2;fill:#ffffff"
       inkscape:connector-curvature="0"
       d="m 24,1008.3622 c -11.08,0 -20,8.92 -20,20 0,0.168 -0.004,0.333 0,0.5 0.2644,-10.846 9.088,-19.5 20,-19.5 10.912,0 19.736,8.654 20,19.5 0.004,-0.167 0,-0.332 0,-0.5 0,-11.08 -8.92,-20 -20,-20 z"
       id="path4068" />
    <path
       style="opacity:0.3"
       inkscape:connector-curvature="0"
       d="m 4.0117,1027.8622 c -0.0041,0.167 -0.0117,0.332 -0.0117,0.5 0,11.08 8.92,20 20,20 11.08,0 20,-8.92 20,-20 0,-0.168 -0.008,-0.333 -0.012,-0.5 -0.264,10.846 -9.076,19.5 -19.988,19.5 -10.912,0 -19.724,-8.654 -19.988,-19.5 z"
       id="rect3289" />
  </g>
</svg>
