<?xml version="1.0" encoding="UTF-8" standalone="no"?>
<!-- Created with Inkscape (http://www.inkscape.org/) -->

<svg
   xmlns:dc="http://purl.org/dc/elements/1.1/"
   xmlns:cc="http://creativecommons.org/ns#"
   xmlns:rdf="http://www.w3.org/1999/02/22-rdf-syntax-ns#"
   xmlns:svg="http://www.w3.org/2000/svg"
   xmlns="http://www.w3.org/2000/svg"
   xmlns:sodipodi="http://sodipodi.sourceforge.net/DTD/sodipodi-0.dtd"
   xmlns:inkscape="http://www.inkscape.org/namespaces/inkscape"
   id="svg2817"
   height="48"
   width="48"
   version="1.0"
   inkscape:version="0.91 r13725"
   sodipodi:docname="trine3.svg">
  <sodipodi:namedview
     pagecolor="#4d4d4d"
     bordercolor="#666666"
     borderopacity="1"
     objecttolerance="10"
     gridtolerance="10"
     guidetolerance="10"
     inkscape:pageopacity="0"
     inkscape:pageshadow="2"
     inkscape:window-width="1600"
     inkscape:window-height="845"
     id="namedview234"
     showgrid="false"
     inkscape:zoom="9.28"
     inkscape:cx="24"
     inkscape:cy="20.694279"
     inkscape:window-x="0"
     inkscape:window-y="31"
     inkscape:window-maximized="1"
     inkscape:current-layer="svg2817" />
  <metadata
     id="metadata57">
    <rdf:RDF>
      <cc:Work
         rdf:about="">
        <dc:format>image/svg+xml</dc:format>
        <dc:type
           rdf:resource="http://purl.org/dc/dcmitype/StillImage" />
        <dc:title></dc:title>
      </cc:Work>
    </rdf:RDF>
  </metadata>
  <defs
     id="defs2819">
    <clipPath
       id="clipPath-823863673">
      <g
         id="g4212"
         transform="translate(0 -1004.4)">
        <path
           id="path4214"
           transform="matrix(15.333 0 0 11.5 415 878.86)"
           fill="#1890d0"
           d="m-24 13c0 1.105-0.672 2-1.5 2s-1.5-0.895-1.5-2 0.672-2 1.5-2 1.5 0.895 1.5 2z" />
      </g>
    </clipPath>
  </defs>
  <text
     id="text4087-2-6-5"
     opacity=".8"
     font-size="12.666px"
     xml:space="preserve"
     y="10.812601"
     x="877.22626"
     font-family="'Bitstream Vera Sans'"
     fill="#000000"><tspan
       id="tspan4089-7-2-9"
       y="10.812601"
       x="877.22626" /></text>
  <text
     id="text4087-2-6-5-5"
     opacity=".8"
     font-size="12.666px"
     xml:space="preserve"
     y="-29.929106"
     x="901.18719"
     font-family="'Bitstream Vera Sans'"
     fill="#000000"><tspan
       id="tspan4089-7-2-9-6"
       y="-29.929106"
       x="901.18719" /></text>
  <text
     id="text4087-2-6-5-2"
     opacity=".8"
     font-size="12.666px"
     xml:space="preserve"
     y="-60.007248"
     x="-569.37115"
     font-family="'Bitstream Vera Sans'"
     fill="#000000"><tspan
       id="tspan4089-7-2-9-2"
       y="-60.007248"
       x="-569.37115" /></text>
  <text
     id="text4087-2-6-5-59"
     opacity=".8"
     font-size="12.666px"
     xml:space="preserve"
     y="685.5462"
     x="-2393.0571"
     font-family="'Bitstream Vera Sans'"
     fill="#000000"><tspan
       id="tspan4089-7-2-9-4"
       y="685.5462"
       x="-2393.0571" /></text>
  <text
     id="text4087-2-6-5-1"
     opacity=".8"
     font-size="12.666px"
     xml:space="preserve"
     y="-445.32822"
     x="-454.88007"
     font-family="'Bitstream Vera Sans'"
     fill="#000000"><tspan
       id="tspan4089-7-2-9-7"
       y="-445.32822"
       x="-454.88007" /></text>
  <text
     id="text4087-2-6-5-7"
     opacity=".8"
     font-size="12.666px"
     xml:space="preserve"
     y="-858.79834"
     x="352.72208"
     font-family="'Bitstream Vera Sans'"
     fill="#000000"><tspan
       id="tspan4089-7-2-9-1"
       y="-858.79834"
       x="352.72208" /></text>
  <text
     id="text4087-2-6-5-5-3"
     opacity=".8"
     font-size="12.666px"
     xml:space="preserve"
     y="-899.54004"
     x="376.68301"
     font-family="'Bitstream Vera Sans'"
     fill="#000000"><tspan
       id="tspan4089-7-2-9-6-5"
       y="-899.54004"
       x="376.68301" /></text>
  <text
     id="text4087-2-6-5-3"
     opacity=".8"
     font-size="12.666px"
     xml:space="preserve"
     y="-906.74994"
     x="-1114.7802"
     font-family="'Bitstream Vera Sans'"
     fill="#000000"><tspan
       id="tspan4089-7-2-9-18"
       y="-906.74994"
       x="-1114.7802" /></text>
  <text
     id="text4087-2-6-5-4"
     opacity=".8"
     font-size="12.666px"
     xml:space="preserve"
     y="-1179.9841"
     x="345.7626"
     font-family="'Bitstream Vera Sans'"
     fill="#000000"><tspan
       id="tspan4089-7-2-9-9"
       y="-1179.9841"
       x="345.7626" /></text>
  <text
     id="text4087-2-6-5-7-1"
     opacity=".8"
     font-size="12.666px"
     xml:space="preserve"
     y="-553.29272"
     x="1831.8861"
     font-family="'Bitstream Vera Sans'"
     fill="#000000"><tspan
       id="tspan4089-7-2-9-1-8"
       y="-553.29272"
       x="1831.8861" /></text>
  <text
     id="text4087-2-6-5-5-5"
     opacity=".8"
     font-size="12.666px"
     xml:space="preserve"
     y="-594.03448"
     x="1855.8469"
     font-family="'Bitstream Vera Sans'"
     fill="#000000"><tspan
       id="tspan4089-7-2-9-6-9"
       y="-594.03448"
       x="1855.8469" /></text>
  <text
     id="text4087-2-6-5-75"
     opacity=".8"
     font-size="12.666px"
     xml:space="preserve"
     y="-601.24438"
     x="364.38376"
     font-family="'Bitstream Vera Sans'"
     fill="#000000"><tspan
       id="tspan4089-7-2-9-3"
       y="-601.24438"
       x="364.38376" /></text>
  <text
     id="text4087-2-6-5-4-8"
     opacity=".8"
     font-size="12.666px"
     xml:space="preserve"
     y="-874.47839"
     x="1824.9266"
     font-family="'Bitstream Vera Sans'"
     fill="#000000"><tspan
       id="tspan4089-7-2-9-9-8"
       y="-874.47839"
       x="1824.9266" /></text>
  <text
     id="text4087-2-6-5-45"
     opacity=".8"
     font-size="12.666px"
     xml:space="preserve"
     y="-649.33569"
     x="-573.43256"
     font-family="'Bitstream Vera Sans'"
     fill="#000000"><tspan
       id="tspan4089-7-2-9-75"
       y="-649.33569"
       x="-573.43256" /></text>
  <text
     id="text4087-2-6-5-59-7"
     opacity=".8"
     font-size="12.666px"
     xml:space="preserve"
     y="96.217857"
     x="-2397.1182"
     font-family="'Bitstream Vera Sans'"
     fill="#000000"><tspan
       id="tspan4089-7-2-9-4-0"
       y="96.217857"
       x="-2397.1182" /></text>
  <text
     id="text4087-2-6-5-8"
     opacity=".8"
     font-size="12.666px"
     xml:space="preserve"
     y="189.09"
     x="-682.36279"
     font-family="'Bitstream Vera Sans'"
     fill="#000000"><tspan
       id="tspan4089-7-2-9-19"
       y="189.09"
       x="-682.36279" /></text>
  <text
     id="text4087-2-6-5-7-5"
     opacity=".8"
     font-size="12.666px"
     xml:space="preserve"
     y="9.9078522"
     x="426.66153"
     font-family="'Bitstream Vera Sans'"
     fill="#000000"><tspan
       id="tspan4089-7-2-9-1-2"
       y="9.9078522"
       x="426.66153" /></text>
  <text
     id="text4087-2-6-5-5-0"
     opacity=".8"
     font-size="12.666px"
     xml:space="preserve"
     y="-30.833855"
     x="450.62247"
     font-family="'Bitstream Vera Sans'"
     fill="#000000"><tspan
       id="tspan4089-7-2-9-6-2"
       y="-30.833855"
       x="450.62247" /></text>
  <text
     id="text4087-2-6-5-26"
     opacity=".8"
     font-size="12.666px"
     xml:space="preserve"
     y="-38.043827"
     x="-1040.8407"
     font-family="'Bitstream Vera Sans'"
     fill="#000000"><tspan
       id="tspan4089-7-2-9-90"
       y="-38.043827"
       x="-1040.8407" /></text>
  <text
     id="text4087-2-6-5-4-3"
     opacity=".8"
     font-size="12.666px"
     xml:space="preserve"
     y="-311.27789"
     x="419.70206"
     font-family="'Bitstream Vera Sans'"
     fill="#000000"><tspan
       id="tspan4089-7-2-9-9-5"
       y="-311.27789"
       x="419.70206" /></text>
  <text
     id="text4087-2-6-5-55"
     opacity=".8"
     font-size="12.666px"
     xml:space="preserve"
     y="-40.758072"
     x="-608.03253"
     font-family="'Bitstream Vera Sans'"
     fill="#000000"><tspan
       id="tspan4089-7-2-9-32"
       y="-40.758072"
       x="-608.03253" /></text>
  <text
     id="text4087-2-6-5-59-9"
     opacity=".8"
     font-size="12.666px"
     xml:space="preserve"
     y="704.79541"
     x="-2431.7185"
     font-family="'Bitstream Vera Sans'"
     fill="#000000"><tspan
       id="tspan4089-7-2-9-4-1"
       y="704.79541"
       x="-2431.7185" /></text>
  <text
     id="text4087-2-6-5-1-8"
     opacity=".8"
     font-size="12.666px"
     xml:space="preserve"
     y="-902.28857"
     x="-456.93948"
     font-family="'Bitstream Vera Sans'"
     fill="#000000"><tspan
       id="tspan4089-7-2-9-7-8"
       y="-902.28857"
       x="-456.93948" /></text>
  <text
     id="text4087-2-6-5-7-8"
     opacity=".8"
     font-size="12.666px"
     xml:space="preserve"
     y="-1315.7588"
     x="350.66266"
     font-family="'Bitstream Vera Sans'"
     fill="#000000"><tspan
       id="tspan4089-7-2-9-1-9"
       y="-1315.7588"
       x="350.66266" /></text>
  <text
     id="text4087-2-6-5-5-52"
     opacity=".8"
     font-size="12.666px"
     xml:space="preserve"
     y="-1356.5005"
     x="374.62357"
     font-family="'Bitstream Vera Sans'"
     fill="#000000"><tspan
       id="tspan4089-7-2-9-6-4"
       y="-1356.5005"
       x="374.62357" /></text>
  <text
     id="text4087-2-6-5-3-4"
     opacity=".8"
     font-size="12.666px"
     xml:space="preserve"
     y="-1363.7104"
     x="-1116.8396"
     font-family="'Bitstream Vera Sans'"
     fill="#000000"><tspan
       id="tspan4089-7-2-9-18-3"
       y="-1363.7104"
       x="-1116.8396" /></text>
  <text
     id="text4087-2-6-5-4-7"
     opacity=".8"
     font-size="12.666px"
     xml:space="preserve"
     y="-1636.9446"
     x="343.70316"
     font-family="'Bitstream Vera Sans'"
     fill="#000000"><tspan
       id="tspan4089-7-2-9-9-54"
       y="-1636.9446"
       x="343.70316" /></text>
  <text
     id="text4087-2-6-5-7-1-2"
     opacity=".8"
     font-size="12.666px"
     xml:space="preserve"
     y="-1010.2533"
     x="1829.8265"
     font-family="'Bitstream Vera Sans'"
     fill="#000000"><tspan
       id="tspan4089-7-2-9-1-8-0"
       y="-1010.2533"
       x="1829.8265" /></text>
  <text
     id="text4087-2-6-5-5-5-6"
     opacity=".8"
     font-size="12.666px"
     xml:space="preserve"
     y="-1050.9949"
     x="1853.7874"
     font-family="'Bitstream Vera Sans'"
     fill="#000000"><tspan
       id="tspan4089-7-2-9-6-9-8"
       y="-1050.9949"
       x="1853.7874" /></text>
  <text
     id="text4087-2-6-5-75-4"
     opacity=".8"
     font-size="12.666px"
     xml:space="preserve"
     y="-1058.2048"
     x="362.32431"
     font-family="'Bitstream Vera Sans'"
     fill="#000000"><tspan
       id="tspan4089-7-2-9-3-9"
       y="-1058.2048"
       x="362.32431" /></text>
  <text
     id="text4087-2-6-5-4-8-1"
     opacity=".8"
     font-size="12.666px"
     xml:space="preserve"
     y="-1331.439"
     x="1822.8671"
     font-family="'Bitstream Vera Sans'"
     fill="#000000"><tspan
       id="tspan4089-7-2-9-9-8-8"
       y="-1331.439"
       x="1822.8671" /></text>
  <text
     id="text4087-2-6-5-45-0"
     opacity=".8"
     font-size="12.666px"
     xml:space="preserve"
     y="-1106.2961"
     x="-575.492"
     font-family="'Bitstream Vera Sans'"
     fill="#000000"><tspan
       id="tspan4089-7-2-9-75-2"
       y="-1106.2961"
       x="-575.492" /></text>
  <text
     id="text4087-2-6-5-59-5"
     opacity=".8"
     font-size="12.666px"
     xml:space="preserve"
     y="-360.74261"
     x="-2399.1777"
     font-family="'Bitstream Vera Sans'"
     fill="#000000"><tspan
       id="tspan4089-7-2-9-4-00"
       y="-360.74261"
       x="-2399.1777" /></text>
  <text
     id="text4087-2-6-5-264"
     opacity=".8"
     font-size="12.666px"
     xml:space="preserve"
     y="-267.87045"
     x="-684.42224"
     font-family="'Bitstream Vera Sans'"
     fill="#000000"><tspan
       id="tspan4089-7-2-9-8"
       y="-267.87045"
       x="-684.42224" /></text>
  <text
     id="text4087-2-6-5-42"
     opacity=".8"
     font-size="12.666px"
     xml:space="preserve"
     y="-26.956278"
     x="155.5923"
     font-family="'Bitstream Vera Sans'"
     fill="#000000"><tspan
       id="tspan4089-7-2-9-93"
       y="-26.956278"
       x="155.5923" /></text>
  <text
     id="text4087-2-6-5-5-05"
     opacity=".8"
     font-size="12.666px"
     xml:space="preserve"
     y="-67.697998"
     x="179.55324"
     font-family="'Bitstream Vera Sans'"
     fill="#000000"><tspan
       id="tspan4089-7-2-9-6-49"
       y="-67.697998"
       x="179.55324" /></text>
  <text
     id="text4087-2-6-5-1-4"
     opacity=".8"
     font-size="12.666px"
     xml:space="preserve"
     y="-261.72662"
     x="-1090.2634"
     font-family="'Bitstream Vera Sans'"
     fill="#000000"><tspan
       id="tspan4089-7-2-9-7-7"
       y="-261.72662"
       x="-1090.2634" /></text>
  <text
     id="text4087-2-6-5-7-56"
     opacity=".8"
     font-size="12.666px"
     xml:space="preserve"
     y="-675.19678"
     x="-282.66141"
     font-family="'Bitstream Vera Sans'"
     fill="#000000"><tspan
       id="tspan4089-7-2-9-1-1"
       y="-675.19678"
       x="-282.66141" /></text>
  <text
     id="text4087-2-6-5-5-8"
     opacity=".8"
     font-size="12.666px"
     xml:space="preserve"
     y="-715.93848"
     x="-258.70047"
     font-family="'Bitstream Vera Sans'"
     fill="#000000"><tspan
       id="tspan4089-7-2-9-6-7"
       y="-715.93848"
       x="-258.70047" /></text>
  <text
     id="text4087-2-6-5-3-42"
     opacity=".8"
     font-size="12.666px"
     xml:space="preserve"
     y="-723.14838"
     x="-1750.1636"
     font-family="'Bitstream Vera Sans'"
     fill="#000000"><tspan
       id="tspan4089-7-2-9-18-39"
       y="-723.14838"
       x="-1750.1636" /></text>
  <text
     id="text4087-2-6-5-4-4"
     opacity=".8"
     font-size="12.666px"
     xml:space="preserve"
     y="-996.38251"
     x="-289.62085"
     font-family="'Bitstream Vera Sans'"
     fill="#000000"><tspan
       id="tspan4089-7-2-9-9-3"
       y="-996.38251"
       x="-289.62085" /></text>
  <text
     id="text4087-2-6-5-7-1-0"
     opacity=".8"
     font-size="12.666px"
     xml:space="preserve"
     y="-369.69113"
     x="1196.5026"
     font-family="'Bitstream Vera Sans'"
     fill="#000000"><tspan
       id="tspan4089-7-2-9-1-8-5"
       y="-369.69113"
       x="1196.5026" /></text>
  <text
     id="text4087-2-6-5-5-5-5"
     opacity=".8"
     font-size="12.666px"
     xml:space="preserve"
     y="-410.43286"
     x="1220.4634"
     font-family="'Bitstream Vera Sans'"
     fill="#000000"><tspan
       id="tspan4089-7-2-9-6-9-2"
       y="-410.43286"
       x="1220.4634" /></text>
  <text
     id="text4087-2-6-5-75-9"
     opacity=".8"
     font-size="12.666px"
     xml:space="preserve"
     y="-417.64282"
     x="-270.99973"
     font-family="'Bitstream Vera Sans'"
     fill="#000000"><tspan
       id="tspan4089-7-2-9-3-1"
       y="-417.64282"
       x="-270.99973" /></text>
  <text
     id="text4087-2-6-5-4-8-18"
     opacity=".8"
     font-size="12.666px"
     xml:space="preserve"
     y="-690.87689"
     x="1189.5431"
     font-family="'Bitstream Vera Sans'"
     fill="#000000"><tspan
       id="tspan4089-7-2-9-9-8-4"
       y="-690.87689"
       x="1189.5431" /></text>
  <text
     id="text4087-2-6-5-45-3"
     opacity=".8"
     font-size="12.666px"
     xml:space="preserve"
     y="-465.7341"
     x="-1208.816"
     font-family="'Bitstream Vera Sans'"
     fill="#000000"><tspan
       id="tspan4089-7-2-9-75-7"
       y="-465.7341"
       x="-1208.816" /></text>
  <text
     id="text4087-2-6-5-59-8"
     opacity=".8"
     font-size="12.666px"
     xml:space="preserve"
     y="279.81946"
     x="-3032.5017"
     font-family="'Bitstream Vera Sans'"
     fill="#000000"><tspan
       id="tspan4089-7-2-9-4-2"
       y="279.81946"
       x="-3032.5017" /></text>
  <g
     id="layer4-0"
     transform="matrix(.90475 0 0 .90475 -716.75 -676.29)">
    <text
       id="text4087-2-6-5-20"
       opacity=".8"
       font-size="14px"
       xml:space="preserve"
       y="1159.4154"
       x="-664.2738"
       font-family="'Bitstream Vera Sans'"
       fill="#000000"><tspan
         id="tspan4089-7-2-9-82"
         y="1159.4154"
         x="-664.2738" /></text>
  </g>
  <text
     id="text4087-2-6-5-9"
     opacity=".8"
     font-size="12.666px"
     xml:space="preserve"
     y="18.050589"
     x="877.22626"
     font-family="'Bitstream Vera Sans'"
     fill="#000000"><tspan
       id="tspan4089-7-2-9-43"
       y="18.050589"
       x="877.22626" /></text>
  <text
     id="text4087-2-6-5-5-51"
     opacity=".8"
     font-size="12.666px"
     xml:space="preserve"
     y="-22.691116"
     x="901.18719"
     font-family="'Bitstream Vera Sans'"
     fill="#000000"><tspan
       id="tspan4089-7-2-9-6-74"
       y="-22.691116"
       x="901.18719" /></text>
  <text
     id="text4087-2-6-5-2-3"
     opacity=".8"
     font-size="12.666px"
     xml:space="preserve"
     y="-52.76926"
     x="-569.37115"
     font-family="'Bitstream Vera Sans'"
     fill="#000000"><tspan
       id="tspan4089-7-2-9-2-1"
       y="-52.76926"
       x="-569.37115" /></text>
  <text
     id="text4087-2-6-5-59-4"
     opacity=".8"
     font-size="12.666px"
     xml:space="preserve"
     y="692.78418"
     x="-2393.0571"
     font-family="'Bitstream Vera Sans'"
     fill="#000000"><tspan
       id="tspan4089-7-2-9-4-6"
       y="692.78418"
       x="-2393.0571" /></text>
  <text
     id="text4087-2-6-5-1-9"
     opacity=".8"
     font-size="12.666px"
     xml:space="preserve"
     y="-438.09021"
     x="-454.88007"
     font-family="'Bitstream Vera Sans'"
     fill="#000000"><tspan
       id="tspan4089-7-2-9-7-4"
       y="-438.09021"
       x="-454.88007" /></text>
  <text
     id="text4087-2-6-5-7-2"
     opacity=".8"
     font-size="12.666px"
     xml:space="preserve"
     y="-851.5603"
     x="352.72208"
     font-family="'Bitstream Vera Sans'"
     fill="#000000"><tspan
       id="tspan4089-7-2-9-1-26"
       y="-851.5603"
       x="352.72208" /></text>
  <text
     id="text4087-2-6-5-5-3-4"
     opacity=".8"
     font-size="12.666px"
     xml:space="preserve"
     y="-892.30206"
     x="376.68301"
     font-family="'Bitstream Vera Sans'"
     fill="#000000"><tspan
       id="tspan4089-7-2-9-6-5-1"
       y="-892.30206"
       x="376.68301" /></text>
  <text
     id="text4087-2-6-5-3-2"
     opacity=".8"
     font-size="12.666px"
     xml:space="preserve"
     y="-899.51196"
     x="-1114.7802"
     font-family="'Bitstream Vera Sans'"
     fill="#000000"><tspan
       id="tspan4089-7-2-9-18-8"
       y="-899.51196"
       x="-1114.7802" /></text>
  <text
     id="text4087-2-6-5-4-89"
     opacity=".8"
     font-size="12.666px"
     xml:space="preserve"
     y="-1172.7461"
     x="345.7626"
     font-family="'Bitstream Vera Sans'"
     fill="#000000"><tspan
       id="tspan4089-7-2-9-9-2"
       y="-1172.7461"
       x="345.7626" /></text>
  <text
     id="text4087-2-6-5-7-1-8"
     opacity=".8"
     font-size="12.666px"
     xml:space="preserve"
     y="-546.05475"
     x="1831.8861"
     font-family="'Bitstream Vera Sans'"
     fill="#000000"><tspan
       id="tspan4089-7-2-9-1-8-8"
       y="-546.05475"
       x="1831.8861" /></text>
  <text
     id="text4087-2-6-5-5-5-8"
     opacity=".8"
     font-size="12.666px"
     xml:space="preserve"
     y="-586.79651"
     x="1855.8469"
     font-family="'Bitstream Vera Sans'"
     fill="#000000"><tspan
       id="tspan4089-7-2-9-6-9-6"
       y="-586.79651"
       x="1855.8469" /></text>
  <text
     id="text4087-2-6-5-75-8"
     opacity=".8"
     font-size="12.666px"
     xml:space="preserve"
     y="-594.00641"
     x="364.38376"
     font-family="'Bitstream Vera Sans'"
     fill="#000000"><tspan
       id="tspan4089-7-2-9-3-3"
       y="-594.00641"
       x="364.38376" /></text>
  <text
     id="text4087-2-6-5-4-8-8"
     opacity=".8"
     font-size="12.666px"
     xml:space="preserve"
     y="-867.24036"
     x="1824.9266"
     font-family="'Bitstream Vera Sans'"
     fill="#000000"><tspan
       id="tspan4089-7-2-9-9-8-3"
       y="-867.24036"
       x="1824.9266" /></text>
  <text
     id="text4087-2-6-5-45-33"
     opacity=".8"
     font-size="12.666px"
     xml:space="preserve"
     y="-642.09772"
     x="-573.43256"
     font-family="'Bitstream Vera Sans'"
     fill="#000000"><tspan
       id="tspan4089-7-2-9-75-8"
       y="-642.09772"
       x="-573.43256" /></text>
  <text
     id="text4087-2-6-5-59-7-0"
     opacity=".8"
     font-size="12.666px"
     xml:space="preserve"
     y="103.45585"
     x="-2397.1182"
     font-family="'Bitstream Vera Sans'"
     fill="#000000"><tspan
       id="tspan4089-7-2-9-4-0-4"
       y="103.45585"
       x="-2397.1182" /></text>
  <text
     id="text4087-2-6-5-8-7"
     opacity=".8"
     font-size="12.666px"
     xml:space="preserve"
     y="196.32799"
     x="-682.36279"
     font-family="'Bitstream Vera Sans'"
     fill="#000000"><tspan
       id="tspan4089-7-2-9-19-6"
       y="196.32799"
       x="-682.36279" /></text>
  <text
     id="text4087-2-6-5-7-5-8"
     opacity=".8"
     font-size="12.666px"
     xml:space="preserve"
     y="17.14584"
     x="426.66153"
     font-family="'Bitstream Vera Sans'"
     fill="#000000"><tspan
       id="tspan4089-7-2-9-1-2-9"
       y="17.14584"
       x="426.66153" /></text>
  <text
     id="text4087-2-6-5-5-0-0"
     opacity=".8"
     font-size="12.666px"
     xml:space="preserve"
     y="-23.595865"
     x="450.62247"
     font-family="'Bitstream Vera Sans'"
     fill="#000000"><tspan
       id="tspan4089-7-2-9-6-2-6"
       y="-23.595865"
       x="450.62247" /></text>
  <text
     id="text4087-2-6-5-26-8"
     opacity=".8"
     font-size="12.666px"
     xml:space="preserve"
     y="-30.805836"
     x="-1040.8407"
     font-family="'Bitstream Vera Sans'"
     fill="#000000"><tspan
       id="tspan4089-7-2-9-90-7"
       y="-30.805836"
       x="-1040.8407" /></text>
  <text
     id="text4087-2-6-5-4-3-9"
     opacity=".8"
     font-size="12.666px"
     xml:space="preserve"
     y="-304.03989"
     x="419.70206"
     font-family="'Bitstream Vera Sans'"
     fill="#000000"><tspan
       id="tspan4089-7-2-9-9-5-0"
       y="-304.03989"
       x="419.70206" /></text>
  <text
     id="text4087-2-6-5-55-3"
     opacity=".8"
     font-size="12.666px"
     xml:space="preserve"
     y="-33.520081"
     x="-608.03253"
     font-family="'Bitstream Vera Sans'"
     fill="#000000"><tspan
       id="tspan4089-7-2-9-32-3"
       y="-33.520081"
       x="-608.03253" /></text>
  <text
     id="text4087-2-6-5-59-9-3"
     opacity=".8"
     font-size="12.666px"
     xml:space="preserve"
     y="712.03345"
     x="-2431.7185"
     font-family="'Bitstream Vera Sans'"
     fill="#000000"><tspan
       id="tspan4089-7-2-9-4-1-7"
       y="712.03345"
       x="-2431.7185" /></text>
  <text
     id="text4087-2-6-5-1-8-3"
     opacity=".8"
     font-size="12.666px"
     xml:space="preserve"
     y="-895.0506"
     x="-456.93948"
     font-family="'Bitstream Vera Sans'"
     fill="#000000"><tspan
       id="tspan4089-7-2-9-7-8-2"
       y="-895.0506"
       x="-456.93948" /></text>
  <text
     id="text4087-2-6-5-7-8-6"
     opacity=".8"
     font-size="12.666px"
     xml:space="preserve"
     y="-1308.5208"
     x="350.66266"
     font-family="'Bitstream Vera Sans'"
     fill="#000000"><tspan
       id="tspan4089-7-2-9-1-9-5"
       y="-1308.5208"
       x="350.66266" /></text>
  <text
     id="text4087-2-6-5-5-52-2"
     opacity=".8"
     font-size="12.666px"
     xml:space="preserve"
     y="-1349.2626"
     x="374.62357"
     font-family="'Bitstream Vera Sans'"
     fill="#000000"><tspan
       id="tspan4089-7-2-9-6-4-6"
       y="-1349.2626"
       x="374.62357" /></text>
  <text
     id="text4087-2-6-5-3-4-5"
     opacity=".8"
     font-size="12.666px"
     xml:space="preserve"
     y="-1356.4724"
     x="-1116.8396"
     font-family="'Bitstream Vera Sans'"
     fill="#000000"><tspan
       id="tspan4089-7-2-9-18-3-8"
       y="-1356.4724"
       x="-1116.8396" /></text>
  <text
     id="text4087-2-6-5-4-7-7"
     opacity=".8"
     font-size="12.666px"
     xml:space="preserve"
     y="-1629.7065"
     x="343.70316"
     font-family="'Bitstream Vera Sans'"
     fill="#000000"><tspan
       id="tspan4089-7-2-9-9-54-9"
       y="-1629.7065"
       x="343.70316" /></text>
  <text
     id="text4087-2-6-5-7-1-2-6"
     opacity=".8"
     font-size="12.666px"
     xml:space="preserve"
     y="-1003.0153"
     x="1829.8265"
     font-family="'Bitstream Vera Sans'"
     fill="#000000"><tspan
       id="tspan4089-7-2-9-1-8-0-0"
       y="-1003.0153"
       x="1829.8265" /></text>
  <text
     id="text4087-2-6-5-5-5-6-4"
     opacity=".8"
     font-size="12.666px"
     xml:space="preserve"
     y="-1043.757"
     x="1853.7874"
     font-family="'Bitstream Vera Sans'"
     fill="#000000"><tspan
       id="tspan4089-7-2-9-6-9-8-1"
       y="-1043.757"
       x="1853.7874" /></text>
  <text
     id="text4087-2-6-5-75-4-0"
     opacity=".8"
     font-size="12.666px"
     xml:space="preserve"
     y="-1050.9668"
     x="362.32431"
     font-family="'Bitstream Vera Sans'"
     fill="#000000"><tspan
       id="tspan4089-7-2-9-3-9-4"
       y="-1050.9668"
       x="362.32431" /></text>
  <text
     id="text4087-2-6-5-4-8-1-8"
     opacity=".8"
     font-size="12.666px"
     xml:space="preserve"
     y="-1324.2009"
     x="1822.8671"
     font-family="'Bitstream Vera Sans'"
     fill="#000000"><tspan
       id="tspan4089-7-2-9-9-8-8-7"
       y="-1324.2009"
       x="1822.8671" /></text>
  <text
     id="text4087-2-6-5-45-0-0"
     opacity=".8"
     font-size="12.666px"
     xml:space="preserve"
     y="-1099.0581"
     x="-575.492"
     font-family="'Bitstream Vera Sans'"
     fill="#000000"><tspan
       id="tspan4089-7-2-9-75-2-8"
       y="-1099.0581"
       x="-575.492" /></text>
  <text
     id="text4087-2-6-5-59-5-6"
     opacity=".8"
     font-size="12.666px"
     xml:space="preserve"
     y="-353.50461"
     x="-2399.1777"
     font-family="'Bitstream Vera Sans'"
     fill="#000000"><tspan
       id="tspan4089-7-2-9-4-00-2"
       y="-353.50461"
       x="-2399.1777" /></text>
  <text
     id="text4087-2-6-5-264-4"
     opacity=".8"
     font-size="12.666px"
     xml:space="preserve"
     y="-260.63245"
     x="-684.42224"
     font-family="'Bitstream Vera Sans'"
     fill="#000000"><tspan
       id="tspan4089-7-2-9-8-7"
       y="-260.63245"
       x="-684.42224" /></text>
  <text
     id="text4087-2-6-5-42-9"
     opacity=".8"
     font-size="12.666px"
     xml:space="preserve"
     y="-19.71829"
     x="155.5923"
     font-family="'Bitstream Vera Sans'"
     fill="#000000"><tspan
       id="tspan4089-7-2-9-93-3"
       y="-19.71829"
       x="155.5923" /></text>
  <text
     id="text4087-2-6-5-5-05-9"
     opacity=".8"
     font-size="12.666px"
     xml:space="preserve"
     y="-60.460011"
     x="179.55324"
     font-family="'Bitstream Vera Sans'"
     fill="#000000"><tspan
       id="tspan4089-7-2-9-6-49-2"
       y="-60.460011"
       x="179.55324" /></text>
  <text
     id="text4087-2-6-5-1-4-8"
     opacity=".8"
     font-size="12.666px"
     xml:space="preserve"
     y="-254.4886"
     x="-1090.2634"
     font-family="'Bitstream Vera Sans'"
     fill="#000000"><tspan
       id="tspan4089-7-2-9-7-7-3"
       y="-254.4886"
       x="-1090.2634" /></text>
  <text
     id="text4087-2-6-5-7-56-0"
     opacity=".8"
     font-size="12.666px"
     xml:space="preserve"
     y="-667.9588"
     x="-282.66141"
     font-family="'Bitstream Vera Sans'"
     fill="#000000"><tspan
       id="tspan4089-7-2-9-1-1-1"
       y="-667.9588"
       x="-282.66141" /></text>
  <text
     id="text4087-2-6-5-5-8-7"
     opacity=".8"
     font-size="12.666px"
     xml:space="preserve"
     y="-708.7005"
     x="-258.70047"
     font-family="'Bitstream Vera Sans'"
     fill="#000000"><tspan
       id="tspan4089-7-2-9-6-7-8"
       y="-708.7005"
       x="-258.70047" /></text>
  <text
     id="text4087-2-6-5-3-42-9"
     opacity=".8"
     font-size="12.666px"
     xml:space="preserve"
     y="-715.91046"
     x="-1750.1636"
     font-family="'Bitstream Vera Sans'"
     fill="#000000"><tspan
       id="tspan4089-7-2-9-18-39-1"
       y="-715.91046"
       x="-1750.1636" /></text>
  <text
     id="text4087-2-6-5-4-4-5"
     opacity=".8"
     font-size="12.666px"
     xml:space="preserve"
     y="-989.14447"
     x="-289.62085"
     font-family="'Bitstream Vera Sans'"
     fill="#000000"><tspan
       id="tspan4089-7-2-9-9-3-4"
       y="-989.14447"
       x="-289.62085" /></text>
  <text
     id="text4087-2-6-5-7-1-0-9"
     opacity=".8"
     font-size="12.666px"
     xml:space="preserve"
     y="-362.45316"
     x="1196.5026"
     font-family="'Bitstream Vera Sans'"
     fill="#000000"><tspan
       id="tspan4089-7-2-9-1-8-5-2"
       y="-362.45316"
       x="1196.5026" /></text>
  <text
     id="text4087-2-6-5-5-5-5-5"
     opacity=".8"
     font-size="12.666px"
     xml:space="preserve"
     y="-403.19489"
     x="1220.4634"
     font-family="'Bitstream Vera Sans'"
     fill="#000000"><tspan
       id="tspan4089-7-2-9-6-9-2-7"
       y="-403.19489"
       x="1220.4634" /></text>
  <text
     id="text4087-2-6-5-75-9-4"
     opacity=".8"
     font-size="12.666px"
     xml:space="preserve"
     y="-410.40482"
     x="-270.99973"
     font-family="'Bitstream Vera Sans'"
     fill="#000000"><tspan
       id="tspan4089-7-2-9-3-1-9"
       y="-410.40482"
       x="-270.99973" /></text>
  <text
     id="text4087-2-6-5-4-8-18-9"
     opacity=".8"
     font-size="12.666px"
     xml:space="preserve"
     y="-683.63892"
     x="1189.5431"
     font-family="'Bitstream Vera Sans'"
     fill="#000000"><tspan
       id="tspan4089-7-2-9-9-8-4-4"
       y="-683.63892"
       x="1189.5431" /></text>
  <text
     id="text4087-2-6-5-45-3-5"
     opacity=".8"
     font-size="12.666px"
     xml:space="preserve"
     y="-458.49609"
     x="-1208.816"
     font-family="'Bitstream Vera Sans'"
     fill="#000000"><tspan
       id="tspan4089-7-2-9-75-7-9"
       y="-458.49609"
       x="-1208.816" /></text>
  <text
     id="text4087-2-6-5-59-8-3"
     opacity=".8"
     font-size="12.666px"
     xml:space="preserve"
     y="287.05743"
     x="-3032.5017"
     font-family="'Bitstream Vera Sans'"
     fill="#000000"><tspan
       id="tspan4089-7-2-9-4-2-5"
       y="287.05743"
       x="-3032.5017" /></text>
  <g
     id="layer4-0-7"
     transform="matrix(.90475 0 0 .90475 -716.75 -669.05)">
    <text
       id="text4087-2-6-5-20-0"
       opacity=".8"
       font-size="14px"
       xml:space="preserve"
       y="1159.4154"
       x="-664.2738"
       font-family="'Bitstream Vera Sans'"
       fill="#000000"><tspan
         id="tspan4089-7-2-9-82-8"
         y="1159.4154"
         x="-664.2738" /></text>
  </g>
  <text
     id="text7276"
     font-size="12.666px"
     xml:space="preserve"
     y="-361.22546"
     x="435.90427"
     font-family="'Droid Sans'"
     fill="#000000"><tspan
       id="tspan7278"
       y="-361.22546"
       x="435.90427" /><tspan
       id="tspan7280"
       y="-345.3924"
       x="435.90427" /></text>
  <text
     id="text4087-2-6-5-51"
     opacity=".8"
     font-size="12.666px"
     xml:space="preserve"
     y="-843.27002"
     x="901.0882"
     font-family="'Bitstream Vera Sans'"
     fill="#000000"><tspan
       id="tspan4089-7-2-9-97"
       y="-843.27002"
       x="901.0882" /></text>
  <text
     id="text4087-2-6-5-59-2"
     opacity=".8"
     font-size="12.666px"
     xml:space="preserve"
     y="-97.716553"
     x="-922.59778"
     font-family="'Bitstream Vera Sans'"
     fill="#000000"><tspan
       id="tspan4089-7-2-9-4-4"
       y="-97.716553"
       x="-922.59778" /></text>
  <text
     id="text4087-2-6-5-7-7"
     opacity=".8"
     font-size="12.666px"
     xml:space="preserve"
     y="-1128.2659"
     x="1628.1677"
     font-family="'Bitstream Vera Sans'"
     fill="#000000"><tspan
       id="tspan4089-7-2-9-1-6"
       y="-1128.2659"
       x="1628.1677" /></text>
  <text
     id="text4087-2-6-5-5-6"
     opacity=".8"
     font-size="12.666px"
     xml:space="preserve"
     y="-1169.0076"
     x="1652.1285"
     font-family="'Bitstream Vera Sans'"
     fill="#000000"><tspan
       id="tspan4089-7-2-9-6-53"
       y="-1169.0076"
       x="1652.1285" /></text>
  <text
     id="text4087-2-6-5-54"
     opacity=".8"
     font-size="12.666px"
     xml:space="preserve"
     y="-1176.2175"
     x="160.66542"
     font-family="'Bitstream Vera Sans'"
     fill="#000000"><tspan
       id="tspan4089-7-2-9-0"
       y="-1176.2175"
       x="160.66542" /></text>
  <text
     id="text4087-2-6-5-4-1"
     opacity=".8"
     font-size="12.666px"
     xml:space="preserve"
     y="-1449.4517"
     x="1621.2083"
     font-family="'Bitstream Vera Sans'"
     fill="#000000"><tspan
       id="tspan4089-7-2-9-9-28"
       y="-1449.4517"
       x="1621.2083" /></text>
  <g
     id="g4539"
     transform="matrix(1.8319 0 0 1.8188 -13.992 -16.825)"
     fill="#433200"
     clip-path="url(#clipPath-823863673)">
    <!-- color: #5e4e50 -->
  </g>
  <g
     id="g4503"
     opacity=".3"
     transform="matrix(1.8319 0 0 1.8188 -13.992 -17.825)"
     clip-path="url(#clipPath-823863673)">
    <!-- color: #5e4e50 -->
  </g>
  <path
     id="path4250"
     d="m 17.223576,43.99965 0,-1.527792 c 2.117676,-0.860293 2.52619,-1.911559 3.370696,-3.83585 1.337287,-9.506867 0.708945,-20.206868 -0.344397,-28.347816 -5.13848,-1.9461164 -10.262304,0.341934 -8.565965,3.324766 0.450648,0.723882 2.311858,0.383767 2.097526,-0.476526 -1.016705,-0.476525 0.04213,-1.122199 0.479958,-0.994883 0.421337,0.08548 0.815195,1.158575 -0.207005,2.388084 C 13.40956,15.1262 12.766563,15.275341 11.993502,15.326268 10.791775,15.3681 9.5753935,15.169851 9.1027633,14.529633 8.4725897,13.421984 8.6154779,12.554416 8.7583661,11.354008 9.3024404,9.9971836 9.2804576,8.7822252 9.1668798,7.374474 9.1027633,6.1304148 8.5367062,5.1082492 7.9999595,4.0006 19.749766,7.0416336 28.169179,8.4984924 39.034177,6.8488408 c -0.593535,2.6427164 -0.04946,4.3687572 0.965412,6.7495672 l -2.203776,0.100034 C 37.566826,11.595909 36.493332,10.706516 35.592037,10.686509 L 28.50808,10.559193 c -1.952805,9.585076 -1.560779,17.207667 -0.829851,26.812749 0.22166,1.726042 1.287826,4.043193 3.169187,4.376033 l 0.199677,0.860293 c -5.623933,-0.503808 -9.331698,-0.03638 -13.825349,1.3932"
     style="fill:#9b6bca;fill-opacity:1"
     inkscape:connector-curvature="0" />
  <path
     id="path4550"
     d="m 7.9999595,4.00026 c 0.5367467,1.1076492 1.1018879,2.1290873 1.1660044,3.3731465 0.021964,0.2721652 0.035191,0.5328174 0.046878,0.7929786 C 9.2403573,7.586879 9.216506,6.999734 9.1659639,6.3733757 9.12405,5.5601538 8.8615021,4.8444924 8.5390144,4.1349785 8.3548535,4.0876897 8.1857691,4.0482945 7.9999595,4.0002054 Z M 39.034177,6.8479552 c -0.06001,0.00909 -0.117864,0.01455 -0.177731,0.023444 -0.06868,0.5584443 -0.08126,1.0811311 -0.04688,1.5840111 0.02825,-0.5046806 0.09539,-1.0320781 0.224609,-1.6074554 z M 16.505471,8.5667393 c -3.184208,-0.033993 -5.573739,1.4678447 -5.078027,3.4044297 0.571828,-2.0719768 4.688565,-3.2491041 8.822248,-1.683627 0.631675,4.882023 1.101961,10.68836 1.095696,16.602007 0.06564,-6.257945 -0.428335,-12.444048 -1.095696,-17.6019828 -1.28462,-0.486529 -2.567591,-0.7081498 -3.744038,-0.7207177 z m 12.001876,0.99221 c -1.041215,5.1106457 -1.40395,9.6652847 -1.416004,14.2581187 0.06137,-4.257629 0.450208,-8.517622 1.416004,-13.258142 l 7.083958,0.126952 c 0.901294,0.02001 1.97607,0.909254 2.205058,3.011751 l 2.201943,-0.101853 c -0.147669,-0.346427 -0.259085,-0.658897 -0.384754,-0.982443 l -1.818344,0.08203 C 37.566221,10.592828 36.491445,9.7036167 35.59015,9.6836099 L 28.506193,9.5566576 Z M 8.6697021,12.15274 c -0.076225,0.821297 -0.047794,1.530902 0.4335925,2.37699 0.4726302,0.640217 1.6888654,0.838721 2.8905554,0.796889 0.773061,-0.05093 1.415692,-0.200323 2.060521,-0.796889 0.688373,-0.827991 0.728565,-1.577555 0.556641,-2.009774 -0.09183,0.310833 -0.259141,0.651967 -0.556641,1.009797 -0.644829,0.596567 -1.28746,0.745963 -2.060521,0.79689 -1.201727,0.04183 -2.4179252,-0.156672 -2.8905554,-0.79689 C 8.8247725,13.040205 8.7129533,12.597982 8.6697021,12.152776 Z m 5.1093519,0.06055 c -0.275755,0.120841 -0.497727,0.352538 -0.380852,0.597676 0.249487,-0.136374 0.406517,-0.340552 0.380852,-0.597676 z m 13.367008,29.197196 c -3.62533,-0.014 -6.55234,0.518085 -9.921753,1.589886 l 0,0.998067 -0.002,0.002 c 4.49365,-1.429577 8.200134,-1.896463 13.824067,-1.3926 l -0.199219,-0.861348 c -0.217978,-0.03856 -0.423096,-0.109437 -0.619128,-0.197267 -1.084393,-0.0809 -2.117676,-0.134936 -3.081988,-0.138683 z"
     inkscape:connector-curvature="0"
     style="opacity:0.3;fill:#000000;fill-opacity:1" />
  <path
     id="path4537"
     d="M 8.0000328,4.0005636 C 8.1859323,4.3841684 8.3682319,4.7594731 8.5391314,5.1353779 19.937104,8.0620147 28.250084,9.4526323 38.857058,7.8717123 c 0.041,-0.3277041 0.098,-0.6661084 0.177999,-1.0234129 C 28.170084,8.4979202 19.750104,7.0416019 8.0001328,4.0005636 Z m 1.212897,5.1660651 c -0.0343,0.7229091 -0.1530996,1.4340183 -0.4550989,2.1880273 -0.0797,0.669009 -0.1424996,1.236016 -0.0879,1.798023 0.0236,-0.254003 0.0542,-0.515007 0.0879,-0.79801 0.438899,-1.095014 0.5037988,-2.102027 0.4550989,-3.1880403 z M 38.810858,9.4557323 c -0.083,1.4759187 0.253999,2.7439347 0.803998,4.1599527 l 0.384999,-0.017 C 39.355857,12.087665 38.904858,10.84065 38.810858,9.4557323 Z m -24.73694,2.6719337 c -0.481999,0.045 -1.181997,0.591007 -0.292999,1.008013 0.007,0.028 -0.004,0.051 -0.002,0.078 0.168999,-0.074 0.351999,-0.110002 0.482999,-0.072 0.136999,0.028 0.265999,0.169002 0.348999,0.379005 0.223999,-0.75801 -0.051,-1.319017 -0.348999,-1.379018 -0.055,-0.016 -0.119,-0.02 -0.188,-0.014 z m -2.645994,0.844011 c -0.138999,0.503006 -0.076,1.057013 0.256,1.64002 0.449999,0.724009 2.311994,0.384005 2.096995,-0.476006 -0.221,-0.104001 -0.329999,-0.214002 -0.382999,-0.324004 -0.524999,0.287004 -1.418997,0.275004 -1.713996,-0.200002 -0.125,-0.218003 -0.203,-0.430006 -0.256,-0.640008 z m 15.663962,11.845149 c -0.063,4.351055 0.216,8.700109 0.585999,13.555171 0.195999,1.526019 1.053997,3.508044 2.550994,4.178052 0.273999,0.02 0.533998,0.033 0.817998,0.058 l -0.199,-0.861011 C 28.965882,41.414035 27.898884,39.098006 27.677885,37.371984 27.336886,32.887928 27.080886,28.837877 27.091886,24.816826 Z M 21.3459,27.889865 c -0.038,3.619045 -0.261999,7.262091 -0.751998,10.746135 -0.844998,1.924024 -1.251997,2.975037 -3.368992,3.836048 l 0,1.000013 c 2.116995,-0.861011 2.523994,-1.912024 3.368992,-3.836048 0.534999,-3.806048 0.747998,-7.799099 0.751998,-11.746148 z"
     inkscape:connector-curvature="0"
     style="opacity:0.2;fill:#ffffff" />
  <path
     style="fill:#9b6bca;fill-opacity:1"
     d="m 36.594759,42.965373 c -0.113477,-0.01657 -0.278538,-0.04636 -0.366798,-0.06619 -0.08826,-0.01984 -0.186284,-0.0398 -0.217795,-0.04437 -0.131898,-0.01914 -0.621686,-0.151609 -0.802388,-0.217021 -0.107183,-0.03879 -0.237117,-0.08399 -0.288742,-0.100424 -0.295977,-0.09422 -0.94792,-0.46675 -1.132699,-0.647246 -0.01923,-0.01872 -0.0835,-0.07339 -0.142897,-0.121462 -0.173717,-0.140545 -0.682345,-0.650856 -0.682345,-0.684599 0,-0.0104 -0.0161,-0.03509 -0.03578,-0.05487 -0.06994,-0.07033 -0.215266,-0.278028 -0.307603,-0.439616 -0.05154,-0.0902 -0.102875,-0.179333 -0.114061,-0.198065 -0.04477,-0.07495 -0.160002,-0.314804 -0.218173,-0.454125 -0.153811,-0.368366 -0.227978,-0.669297 -0.263817,-1.070367 -0.04051,-0.453289 -0.03036,-0.60571 0.08364,-1.257028 0.05071,-0.289819 0.307875,-0.927513 0.406798,-1.008842 0.02007,-0.01642 0.03632,-0.04403 0.03632,-0.06136 0,-0.01733 0.0207,-0.049 0.04585,-0.07038 0.02522,-0.02139 0.04586,-0.05168 0.04586,-0.06731 0,-0.03276 0.225155,-0.299349 0.411461,-0.487158 0.107182,-0.108055 0.236446,-0.203724 0.540807,-0.400259 0.02474,-0.01597 0.06304,-0.03505 0.0851,-0.04238 0.02206,-0.0073 0.04012,-0.02237 0.04012,-0.0334 0,-0.01104 0.01087,-0.02007 0.02402,-0.02007 0.01318,0 0.06739,-0.02147 0.120355,-0.04771 0.05299,-0.02624 0.127279,-0.05587 0.165103,-0.06586 0.555968,-0.146706 0.64933,-0.161613 1.002139,-0.159998 0.236197,10e-4 0.276406,0.0055 0.518373,0.05655 0.500494,0.105663 1.026665,0.477401 1.25525,0.886851 0.201423,0.360798 0.253362,0.640761 0.20734,1.117536 -0.02099,0.21746 -0.102333,0.525081 -0.151805,0.574081 -0.0063,0.0063 -0.02563,0.0369 -0.04295,0.06812 -0.0593,0.106967 -0.174867,0.245064 -0.244999,0.292801 -0.0386,0.02626 -0.09047,0.06564 -0.115317,0.08751 -0.135097,0.118949 -0.330999,0.170257 -0.639145,0.167379 -0.240922,-0.0023 -0.35605,0.02694 -0.35605,0.09028 0,0.09553 0.206399,0.296273 0.424131,0.412513 0.552183,0.294807 1.371801,0.290222 2.086201,-0.01168 0.258361,-0.10918 0.269652,-0.114577 0.390238,-0.186637 0.06334,-0.03784 0.152264,-0.08758 0.197638,-0.110529 0.158475,-0.08017 0.618844,-0.507854 0.649434,-0.603348 0.0084,-0.0261 0.02484,-0.04747 0.03659,-0.04747 0.01171,0 0.02139,-0.0098 0.02139,-0.0217 0,-0.01193 0.02689,-0.06047 0.05978,-0.107855 0.06369,-0.09182 0.24529,-0.462323 0.271342,-0.553645 0.0086,-0.03011 0.0245,-0.07519 0.03533,-0.100169 0.0311,-0.07161 0.111432,-0.355238 0.125436,-0.442773 0.07046,-0.440417 0.07987,-0.558256 0.0707,-0.885544 -0.0094,-0.334464 -0.02009,-0.476954 -0.04354,-0.57901 -0.101351,-0.440977 -0.169306,-0.63755 -0.316513,-0.91541 -0.132107,-0.249376 -0.190967,-0.329655 -0.26848,-0.366171 -0.07802,-0.03676 -0.186326,0.0046 -0.280398,0.106948 -0.09125,0.0993 -0.226787,0.272922 -0.226787,0.290482 0,0.0068 -0.05523,0.09627 -0.122718,0.198838 -0.0675,0.102565 -0.140326,0.220191 -0.161842,0.261391 -0.02152,0.0412 -0.08819,0.125338 -0.148166,0.186975 -0.08247,0.08473 -0.125625,0.112062 -0.176959,0.112062 -0.11632,0 -0.171563,-0.06088 -0.267832,-0.295181 -0.07741,-0.188393 -0.131209,-0.331454 -0.131209,-0.348954 0,-0.01035 -0.01422,-0.05103 -0.03159,-0.09039 -0.01736,-0.03935 -0.04955,-0.122639 -0.07151,-0.185081 -0.02193,-0.06244 -0.07586,-0.193807 -0.119792,-0.291922 -0.04395,-0.09811 -0.08196,-0.192334 -0.0845,-0.209376 -0.0025,-0.01704 -0.01171,-0.03809 -0.0205,-0.04678 -0.0088,-0.0087 -0.01589,-0.03453 -0.01589,-0.05743 0,-0.02289 -0.0092,-0.04163 -0.02049,-0.04163 -0.0113,0 -0.02745,-0.0281 -0.036,-0.06244 -0.01841,-0.07425 -0.249683,-0.546191 -0.330896,-0.675514 -0.09414,-0.149865 -0.162887,-0.302836 -0.162887,-0.362418 0,-0.107368 0.0707,-0.208983 0.200231,-0.287842 0.845379,-0.514673 1.455775,-1.24925 1.770926,-2.131257 0.108082,-0.302443 0.18298,-0.675945 0.140888,-0.702499 -0.01109,-0.007 -0.02777,-0.05873 -0.03701,-0.114928 -0.02386,-0.145295 -0.100097,-0.355906 -0.163473,-0.451704 -0.08586,-0.129774 -0.263048,-0.320303 -0.297905,-0.320303 -0.01757,0 -0.0318,-0.0087 -0.0318,-0.01934 0,-0.03236 -0.305303,-0.160984 -0.441173,-0.185859 -0.150488,-0.02755 -0.375894,0.01052 -0.557536,0.09416 -0.252673,0.116348 -0.578174,0.380587 -0.766905,0.62255 -0.08506,0.109062 -0.215307,0.376862 -0.253676,0.521625 -0.07404,0.279372 -0.09031,0.386214 -0.09762,0.641469 -0.0076,0.264096 -0.01359,0.2987 -0.06938,0.394498 -0.157889,0.27136 -0.668064,0.442573 -1.069112,0.358787 -0.04412,-0.0092 -0.127842,-0.02212 -0.186012,-0.02866 -0.220388,-0.02478 -0.667876,-0.238927 -0.956158,-0.457572 -0.124162,-0.09416 -0.358455,-0.357658 -0.44594,-0.50153 -0.288074,-0.473694 -0.399293,-0.905243 -0.372695,-1.44616 0.0229,-0.465257 0.09707,-0.753482 0.298234,-1.159098 0.337295,-0.680002 0.900205,-1.182089 1.868908,-1.666937 0.496982,-0.248757 0.974476,-0.411122 1.478692,-0.502808 0.07565,-0.01375 0.225239,-0.04152 0.332401,-0.06168 0.267351,-0.05031 1.066269,-0.06852 1.44049,-0.03284 0.470007,0.04481 1.074169,0.160835 1.256715,0.241355 0.03974,0.01752 0.08667,0.03186 0.104317,0.03186 0.01754,0 0.04185,0.0086 0.05385,0.01908 0.01194,0.01048 0.0579,0.03233 0.102016,0.04853 0.07536,0.02767 0.200232,0.08259 0.469969,0.20672 0.136998,0.06303 0.29909,0.158231 0.541388,0.317951 0.132843,0.08756 0.568789,0.469745 0.708256,0.620904 0.276969,0.300183 0.390428,0.456379 0.504235,0.694157 0.03887,0.08118 0.095,0.193573 0.124747,0.249769 0.05821,0.109874 0.228443,0.598317 0.263337,0.755596 0.05205,0.234421 0.07409,0.892833 0.04354,1.299324 -0.01691,0.225668 -0.09387,0.618608 -0.155487,0.794718 -0.02189,0.06244 -0.05236,0.154403 -0.06779,0.204357 -0.01549,0.04995 -0.03582,0.111262 -0.04533,0.136238 -0.03184,0.08382 -0.288722,0.586635 -0.312261,0.611344 -0.01275,0.01344 -0.03626,0.04998 -0.05218,0.0812 -0.09971,0.196252 -0.273605,0.439361 -0.429129,0.60001 -0.137023,0.14152 -0.193498,0.245233 -0.176309,0.323703 0.01716,0.07865 0.02338,0.08649 0.291689,0.371735 0.250289,0.266113 0.519186,0.561715 0.597894,0.657293 0.036,0.04371 0.07127,0.08458 0.07839,0.09082 0.0071,0.0062 0.03787,0.04711 0.06839,0.09083 0.03047,0.04371 0.06767,0.09197 0.08262,0.107253 0.01505,0.01528 0.05087,0.06637 0.07979,0.113531 0.02892,0.04716 0.05834,0.09086 0.06528,0.0971 0.0161,0.01441 0.06555,0.09219 0.08562,0.134616 0.0084,0.01783 0.07591,0.125129 0.149903,0.238416 0.138733,0.212354 0.430529,0.777542 0.430529,0.833908 0,0.0175 0.01425,0.05196 0.03159,0.07659 0.01735,0.02463 0.04757,0.09077 0.06716,0.146967 0.01965,0.0562 0.07266,0.199247 0.117992,0.317888 0.124144,0.32497 0.245041,0.845234 0.287592,1.237491 0.01362,0.124885 0.03072,0.257718 0.03818,0.295182 0.02313,0.116002 0.02675,0.74077 0.0049,0.90825 -0.01107,0.08742 -0.02594,0.210036 -0.03277,0.272478 -0.03402,0.311776 -0.182229,0.868765 -0.296123,1.112607 -0.01754,0.03746 -0.06875,0.146678 -0.113914,0.242693 -0.04515,0.09602 -0.08211,0.180206 -0.08211,0.187092 0,0.0069 -0.04639,0.08426 -0.103167,0.171931 -0.05671,0.08768 -0.103167,0.167536 -0.103167,0.177471 0,0.02548 -0.129454,0.198616 -0.288722,0.386141 -0.03899,0.04593 -0.08028,0.100033 -0.09169,0.120221 -0.0602,0.106424 -0.389551,0.449385 -0.614622,0.640075 -0.06182,0.05238 -0.141203,0.120779 -0.176414,0.152 -0.1117,0.09907 -0.351031,0.272475 -0.376037,0.272475 -0.0065,0 -0.07465,0.04342 -0.151284,0.0965 -0.07663,0.05308 -0.156345,0.106719 -0.177148,0.119208 -0.0209,0.01249 -0.105008,0.06415 -0.187098,0.114811 -0.258343,0.159397 -0.713418,0.379389 -0.940205,0.454511 -0.06935,0.02297 -0.136812,0.04934 -0.149921,0.0586 -0.01319,0.0093 -0.06468,0.0264 -0.114629,0.03809 -0.04994,0.0117 -0.183647,0.04903 -0.297125,0.08297 -0.182564,0.0546 -0.283767,0.08296 -0.401195,0.11244 -0.06124,0.01537 -0.513751,0.106801 -0.584593,0.118115 -0.03782,0.006 -0.104884,0.02069 -0.149024,0.03256 -0.111971,0.03011 -0.946623,0.06821 -1.386981,0.0633 -0.201737,-0.0022 -0.459658,-0.01765 -0.573135,-0.03421 z"
     id="path4373"
     inkscape:connector-curvature="0" />
  <path
     inkscape:connector-curvature="0"
     style="opacity:0.2;fill:#ffffff;fill-opacity:1"
     d="m 37.814453,25.001953 c -0.279926,0.0064 -0.547965,0.02367 -0.681641,0.04883 -0.107161,0.02016 -0.256381,0.04875 -0.332031,0.0625 -0.504216,0.09169 -0.981533,0.253196 -1.478515,0.501953 -0.968703,0.484848 -1.531846,0.987967 -1.869141,1.667969 -0.201164,0.405616 -0.273975,0.692946 -0.296875,1.158203 -0.01127,0.22927 0.0076,0.437162 0.04883,0.638672 0.04235,-0.269735 0.107288,-0.513055 0.248047,-0.796875 0.337295,-0.680002 0.900438,-1.183121 1.869141,-1.667969 0.496982,-0.248757 0.974299,-0.410267 1.478515,-0.501953 0.07565,-0.01375 0.22487,-0.04234 0.332031,-0.0625 0.267351,-0.05031 1.067186,-0.06693 1.441407,-0.03125 0.470007,0.04481 1.073313,0.159715 1.255859,0.240235 0.03974,0.01752 0.08782,0.03125 0.105469,0.03125 0.01754,0 0.04073,0.0091 0.05273,0.01953 0.01194,0.01048 0.0594,0.03263 0.103516,0.04883 0.07536,0.02767 0.199013,0.0829 0.46875,0.207031 0.136998,0.06303 0.298718,0.15864 0.541015,0.31836 0.132844,0.08756 0.569518,0.469934 0.708985,0.621093 0.276969,0.300183 0.390099,0.455582 0.503906,0.69336 0.03887,0.08118 0.09525,0.193804 0.125,0.25 0.05821,0.109874 0.228778,0.59858 0.263672,0.755859 0.01584,0.07133 0.02161,0.224668 0.03125,0.355469 0.0018,-0.01769 0.01051,-0.04052 0.01172,-0.05664 0.03055,-0.406491 0.0091,-1.064407 -0.04297,-1.298828 -0.03489,-0.157279 -0.205462,-0.645985 -0.263672,-0.755859 -0.02975,-0.0562 -0.08613,-0.16882 -0.125,-0.25 -0.113807,-0.237778 -0.226937,-0.393177 -0.503906,-0.69336 -0.139467,-0.151159 -0.576141,-0.533533 -0.708985,-0.621093 -0.242297,-0.15972 -0.404017,-0.25533 -0.541015,-0.31836 -0.269737,-0.12413 -0.39339,-0.179361 -0.46875,-0.207031 -0.04412,-0.0162 -0.09158,-0.03835 -0.103516,-0.04883 -0.012,-0.01048 -0.03519,-0.01953 -0.05273,-0.01953 -0.01765,0 -0.06573,-0.01373 -0.105469,-0.03125 -0.182546,-0.08052 -0.785852,-0.195425 -1.255859,-0.240235 -0.187111,-0.01784 -0.47984,-0.02396 -0.759766,-0.01758 z m 0.962891,4.976563 c -0.0066,0.01991 -0.0087,0.03916 -0.01563,0.05859 -0.315151,0.882007 -0.926106,1.616187 -1.771485,2.13086 -0.129531,0.07886 -0.201172,0.181694 -0.201172,0.289062 10e-7,0.05958 0.06992,0.211463 0.164063,0.361328 0.03339,0.05317 0.07782,0.159796 0.136719,0.277344 0.79037,-0.510585 1.370081,-1.213969 1.671875,-2.058594 0.108082,-0.302443 0.182717,-0.676571 0.140625,-0.703125 -0.01109,-0.007 -0.02787,-0.05708 -0.03711,-0.113281 -0.01276,-0.07768 -0.05516,-0.154696 -0.08789,-0.242187 z m 3.080078,2.710937 c -0.06274,0.08332 -0.110977,0.177265 -0.173828,0.242188 -0.137023,0.14152 -0.19297,0.245748 -0.175782,0.324218 0.01716,0.07865 0.02271,0.08585 0.291016,0.371094 0.250289,0.266113 0.520901,0.562625 0.59961,0.658203 0.036,0.04371 0.071,0.0836 0.07812,0.08984 0.0071,0.0062 0.03784,0.04808 0.06836,0.0918 0.03047,0.04371 0.06708,0.09214 0.08203,0.107422 0.01505,0.01528 0.05116,0.06612 0.08008,0.113281 0.02892,0.04716 0.05751,0.08946 0.06445,0.0957 0.0161,0.01441 0.06587,0.09234 0.08594,0.134766 0.0084,0.01783 0.0764,0.124994 0.15039,0.238281 0.138734,0.212354 0.429688,0.777618 0.429688,0.833984 0,0.0175 0.01391,0.05349 0.03125,0.07813 0.01735,0.02463 0.04877,0.09029 0.06836,0.146485 0.01965,0.0562 0.07186,0.199718 0.117188,0.318359 0.124144,0.32497 0.244558,0.844071 0.287109,1.236328 0.01263,0.115837 0.02896,0.226373 0.03711,0.273438 0.0031,-0.02548 0.005,-0.04786 0.0078,-0.07031 0.02185,-0.16748 0.01727,-0.792201 -0.0059,-0.908203 -0.0075,-0.03746 -0.02544,-0.170037 -0.03906,-0.294922 -0.04255,-0.392257 -0.162965,-0.911358 -0.287109,-1.236328 -0.04533,-0.118641 -0.09754,-0.262159 -0.117188,-0.318359 -0.01959,-0.0562 -0.05101,-0.121855 -0.06836,-0.146485 -0.01734,-0.02463 -0.03125,-0.06063 -0.03125,-0.07813 0,-0.05637 -0.290954,-0.62163 -0.429688,-0.833984 -0.07399,-0.113287 -0.14199,-0.220451 -0.15039,-0.238281 -0.02007,-0.04243 -0.06984,-0.120356 -0.08594,-0.134766 -0.0069,-0.0062 -0.03553,-0.04854 -0.06445,-0.0957 -0.02892,-0.04716 -0.06503,-0.098 -0.08008,-0.113281 -0.01495,-0.01528 -0.05156,-0.06371 -0.08203,-0.107422 -0.03052,-0.04372 -0.06126,-0.0856 -0.06836,-0.0918 -0.0071,-0.0062 -0.04212,-0.04613 -0.07812,-0.08984 -0.07114,-0.08638 -0.313318,-0.351984 -0.541016,-0.595703 z m -6.828125,2.455078 c -0.352809,-0.0016 -0.445985,0.01345 -1.001953,0.160157 -0.03782,0.01 -0.113026,0.04017 -0.166016,0.06641 -0.05297,0.02624 -0.105961,0.04687 -0.11914,0.04687 -0.01315,0 -0.02539,0.01044 -0.02539,0.02148 0,0.01103 -0.017,0.0259 -0.03906,0.0332 -0.02206,0.0073 -0.0612,0.027 -0.08594,0.04297 -0.304361,0.196535 -0.433834,0.290382 -0.541016,0.398437 -0.186306,0.18781 -0.410156,0.455522 -0.410156,0.488282 0,0.01563 -0.02166,0.04502 -0.04687,0.06641 -0.02515,0.02138 -0.04492,0.05298 -0.04492,0.07031 0,0.01733 -0.01704,0.04608 -0.03711,0.0625 -0.09892,0.08133 -0.35554,0.717994 -0.40625,1.007813 -0.114,0.651318 -0.124495,0.804524 -0.08398,1.257813 0.0051,0.05731 0.01858,0.102538 0.02539,0.15625 0.01692,-0.125686 0.02503,-0.22229 0.05859,-0.414063 0.05071,-0.289819 0.307327,-0.926483 0.40625,-1.007813 0.02007,-0.01642 0.03711,-0.04517 0.03711,-0.0625 0,-0.01733 0.01977,-0.04893 0.04492,-0.07031 0.02522,-0.02139 0.04687,-0.05078 0.04687,-0.06641 0,-0.03276 0.22385,-0.300472 0.410156,-0.488282 0.107182,-0.108055 0.236655,-0.201902 0.541016,-0.398437 0.02474,-0.01597 0.06388,-0.03564 0.08594,-0.04297 0.02206,-0.0073 0.03906,-0.02217 0.03906,-0.0332 0,-0.01104 0.01224,-0.02148 0.02539,-0.02148 0.01318,0 0.06618,-0.02063 0.11914,-0.04687 0.05299,-0.02624 0.128192,-0.05642 0.166016,-0.06641 0.555968,-0.146707 0.649144,-0.161772 1.001953,-0.160157 0.236197,10e-4 0.275611,0.0056 0.517578,0.05664 0.500494,0.105663 1.027274,0.477269 1.255859,0.886719 0.07894,0.141405 0.118176,0.27101 0.154297,0.404297 0.02238,-0.09503 0.04417,-0.196463 0.05273,-0.285157 0.04602,-0.476775 -0.0056,-0.758342 -0.207032,-1.11914 -0.228585,-0.40945 -0.755365,-0.781056 -1.255859,-0.886719 -0.241967,-0.05105 -0.281381,-0.05564 -0.517578,-0.05664 z m 4.767578,1.269531 c -0.01136,0.09006 -0.01734,0.163016 -0.03906,0.298829 -0.014,0.08754 -0.0939,0.371749 -0.125,0.443359 -0.01083,0.02498 -0.02851,0.0695 -0.03711,0.09961 -0.02605,0.09132 -0.205841,0.462868 -0.269531,0.554688 -0.03289,0.04738 -0.06055,0.09549 -0.06055,0.107422 0,0.0119 -0.0098,0.02148 -0.02148,0.02148 -0.01175,0 -0.02871,0.02078 -0.03711,0.04687 -0.03059,0.09549 -0.489962,0.523346 -0.648437,0.603516 -0.04537,0.02295 -0.133926,0.07349 -0.197266,0.111328 -0.120586,0.07206 -0.132264,0.07637 -0.390625,0.185547 -0.444166,0.187702 -0.923425,0.247731 -1.359375,0.205078 -0.01374,0.01241 -0.02933,0.04087 -0.04102,0.04883 -0.0386,0.02626 -0.09039,0.06602 -0.115234,0.08789 -0.135097,0.118949 -0.330526,0.170846 -0.638672,0.167968 -0.240922,-0.0023 -0.357422,0.0265 -0.357422,0.08984 0,0.09553 0.20805,0.29587 0.425782,0.41211 0.552183,0.294806 1.371537,0.290183 2.085937,-0.01172 0.258361,-0.10918 0.270039,-0.113487 0.390625,-0.185547 0.06334,-0.03784 0.151892,-0.08838 0.197266,-0.111328 0.158475,-0.08017 0.617847,-0.508022 0.648437,-0.603516 0.0084,-0.0261 0.02536,-0.04687 0.03711,-0.04687 0.01171,0 0.02148,-0.0096 0.02148,-0.02148 0,-0.01193 0.02766,-0.06004 0.06055,-0.107422 0.06369,-0.09182 0.243479,-0.463366 0.269531,-0.554688 0.0086,-0.03011 0.02628,-0.07463 0.03711,-0.09961 0.0311,-0.07161 0.110997,-0.355824 0.125,-0.443359 0.07046,-0.440417 0.07948,-0.557478 0.07031,-0.884766 -0.0067,-0.238767 -0.01905,-0.315833 -0.03125,-0.414063 z"
     id="path4375" />
  <path
     inkscape:connector-curvature="0"
     style="opacity:0.3;fill:#000000;fill-opacity:1"
     d="m 37.929688,27.242188 c -0.150489,-0.02755 -0.374999,0.01206 -0.556641,0.0957 -0.252673,0.116348 -0.578847,0.37913 -0.767578,0.621093 -0.08506,0.109062 -0.215538,0.376722 -0.253907,0.521485 -0.07404,0.279372 -0.09035,0.387323 -0.09766,0.642578 -0.0076,0.264096 -0.01257,0.298733 -0.06836,0.394531 -0.157889,0.27136 -0.669265,0.441208 -1.070313,0.357422 -0.04412,-0.0092 -0.127377,-0.0208 -0.185546,-0.02734 -0.220388,-0.02478 -0.666797,-0.240339 -0.955079,-0.458984 -0.124162,-0.09416 -0.35978,-0.356128 -0.447265,-0.5 -0.165973,-0.272917 -0.266239,-0.53468 -0.322266,-0.808594 -0.01817,0.115752 -0.04195,0.221623 -0.04883,0.361328 -0.0266,0.540917 0.08302,0.973572 0.371094,1.447266 0.08749,0.143872 0.323103,0.40584 0.447265,0.5 0.288282,0.218645 0.734691,0.434204 0.955079,0.458984 0.05817,0.0065 0.141426,0.01814 0.185546,0.02734 0.401048,0.08379 0.912424,-0.08606 1.070313,-0.357422 0.05579,-0.0958 0.06076,-0.130435 0.06836,-0.394531 0.0073,-0.255255 0.02362,-0.363206 0.09766,-0.642578 0.03837,-0.144763 0.168847,-0.412423 0.253907,-0.521485 0.188731,-0.241963 0.514905,-0.504745 0.767578,-0.621093 0.181642,-0.08364 0.406152,-0.123254 0.556641,-0.0957 0.13587,0.02487 0.441406,0.153186 0.441406,0.185546 0,0.01064 0.01368,0.01953 0.03125,0.01953 0.03486,0 0.212968,0.190538 0.298828,0.320312 0.02949,0.04458 0.04768,0.13478 0.07617,0.210938 0.09682,-0.289942 0.164388,-0.619684 0.125,-0.644532 -0.01109,-0.007 -0.02787,-0.05708 -0.03711,-0.113281 -0.02386,-0.145295 -0.100686,-0.357327 -0.164062,-0.453125 -0.08586,-0.129774 -0.263971,-0.320312 -0.298828,-0.320312 -0.01757,0 -0.03125,-0.0089 -0.03125,-0.01953 0,-0.03236 -0.305536,-0.160672 -0.441406,-0.185546 z m 4.804687,1.318359 c -0.02331,0.229918 -0.08536,0.57475 -0.142578,0.738281 -0.02189,0.06244 -0.05293,0.153171 -0.06836,0.203125 -0.01549,0.04995 -0.03541,0.111743 -0.04492,0.136719 -0.03184,0.08382 -0.288961,0.586619 -0.3125,0.611328 -0.01275,0.01344 -0.03681,0.05081 -0.05273,0.08203 -0.09971,0.196252 -0.274163,0.438961 -0.429687,0.59961 -0.137023,0.14152 -0.19297,0.245748 -0.175782,0.324218 0.01716,0.07865 0.02271,0.08585 0.291016,0.371094 0.02408,0.0256 0.03435,0.03656 0.05859,0.0625 0.09251,-0.122856 0.196445,-0.24048 0.255859,-0.357422 0.01592,-0.03122 0.03999,-0.06859 0.05273,-0.08203 0.02354,-0.02471 0.28066,-0.527508 0.3125,-0.611328 0.0095,-0.02498 0.02943,-0.08677 0.04492,-0.136719 0.01543,-0.04995 0.04647,-0.140685 0.06836,-0.203125 0.06162,-0.17611 0.137387,-0.569254 0.154297,-0.794922 0.02125,-0.282803 0.01033,-0.644294 -0.01172,-0.943359 z m -5.644531,3.535156 c -0.03498,0.0226 -0.06378,0.05045 -0.09961,0.07227 -0.129531,0.07886 -0.201172,0.181694 -0.201172,0.289062 10e-7,0.05958 0.06992,0.211463 0.164063,0.361328 0.08121,0.129323 0.311668,0.601532 0.330078,0.675782 0.0085,0.03434 0.02581,0.0625 0.03711,0.0625 0.01129,0 0.01953,0.01812 0.01953,0.04102 0,0.0229 0.0068,0.04989 0.01563,0.05859 0.0088,0.0087 0.01898,0.02983 0.02148,0.04687 0.0025,0.01704 0.04003,0.110874 0.08398,0.208984 0.04393,0.09811 0.09721,0.228576 0.11914,0.291016 0.02196,0.06244 0.05491,0.146197 0.07227,0.185547 0.01737,0.03936 0.03125,0.08145 0.03125,0.0918 0,0.0175 0.05345,0.159263 0.130859,0.347656 0.09627,0.234301 0.151258,0.294922 0.267578,0.294922 0.05133,0 0.09526,-0.0266 0.177735,-0.111328 0.05998,-0.06164 0.126917,-0.1463 0.148437,-0.1875 0.02152,-0.0412 0.09461,-0.159154 0.162109,-0.261719 0.06749,-0.102568 0.123047,-0.190466 0.123047,-0.197266 0,-0.01756 0.135313,-0.191715 0.226563,-0.291015 0.09407,-0.102348 0.201277,-0.144182 0.279297,-0.107422 0.07751,0.03652 0.137424,0.117811 0.269531,0.367187 0.147207,0.27786 0.215055,0.473086 0.316406,0.914063 0.0067,0.0292 0.0068,0.126645 0.01172,0.166015 0.02548,-0.201997 0.03759,-0.359576 0.03125,-0.585937 -0.0094,-0.334464 -0.01952,-0.478022 -0.04297,-0.580078 -0.101351,-0.440977 -0.169199,-0.636203 -0.316406,-0.914063 -0.132107,-0.249376 -0.192018,-0.330671 -0.269531,-0.367187 -0.07802,-0.03676 -0.185225,0.0051 -0.279297,0.107422 -0.09125,0.0993 -0.226563,0.273455 -0.226563,0.291015 0,0.0068 -0.05556,0.0947 -0.123047,0.197266 -0.0675,0.102565 -0.140593,0.220519 -0.162109,0.261719 -0.02152,0.0412 -0.08846,0.125863 -0.148437,0.1875 -0.08247,0.08473 -0.126401,0.111328 -0.177735,0.111328 -0.11632,0 -0.171309,-0.06062 -0.267578,-0.294922 -0.07741,-0.188393 -0.130859,-0.330156 -0.130859,-0.347656 0,-0.01035 -0.01388,-0.05244 -0.03125,-0.0918 -0.01736,-0.03935 -0.05031,-0.123105 -0.07227,-0.185547 -0.02193,-0.06244 -0.07521,-0.192901 -0.11914,-0.291016 -0.04395,-0.09811 -0.08145,-0.191942 -0.08398,-0.208984 -0.0025,-0.01704 -0.01269,-0.03818 -0.02148,-0.04687 -0.0088,-0.0087 -0.01563,-0.03569 -0.01563,-0.05859 0,-0.02289 -0.0082,-0.04102 -0.01953,-0.04102 -0.0113,0 -0.02856,-0.02816 -0.03711,-0.0625 -0.01084,-0.04372 -0.109,-0.230075 -0.193359,-0.398438 z m -0.132813,4.396485 c -0.0325,0.137959 -0.07032,0.260047 -0.09961,0.289062 -0.0063,0.0063 -0.0237,0.03519 -0.04102,0.06641 -0.0593,0.106967 -0.175961,0.245232 -0.246094,0.292969 -0.0386,0.02626 -0.09039,0.06602 -0.115234,0.08789 -0.135097,0.118949 -0.330526,0.170846 -0.638672,0.167968 -0.240922,-0.0023 -0.357422,0.0265 -0.357422,0.08984 0,0.09553 0.20805,0.29587 0.425782,0.41211 0.208872,0.111515 0.461327,0.167408 0.726562,0.193359 0.06871,-0.06207 0.155662,-0.155002 0.205078,-0.244141 0.01732,-0.03122 0.03472,-0.06011 0.04102,-0.06641 0.04947,-0.049 0.131354,-0.356759 0.152344,-0.574219 0.02799,-0.289915 0.0033,-0.508047 -0.05273,-0.714843 z m 7.021485,0.550781 c -0.0091,0.07373 -0.02031,0.156719 -0.02539,0.203125 -0.03402,0.311776 -0.182981,0.867486 -0.296875,1.111328 -0.01754,0.03746 -0.06812,0.148125 -0.113281,0.24414 -0.04515,0.09602 -0.08203,0.180614 -0.08203,0.1875 0,0.0069 -0.04674,0.0842 -0.103516,0.171876 -0.05671,0.08768 -0.103516,0.165846 -0.103516,0.175781 0,0.02548 -0.129794,0.199193 -0.289062,0.386719 -0.03899,0.04593 -0.08039,0.100905 -0.0918,0.121093 -0.0602,0.106424 -0.38821,0.447982 -0.613281,0.638672 -0.06182,0.05238 -0.142524,0.121123 -0.177735,0.152344 -0.1117,0.09907 -0.349994,0.273437 -0.375,0.273437 -0.0065,0 -0.07571,0.04262 -0.152343,0.0957 -0.07663,0.05308 -0.154979,0.106651 -0.175782,0.11914 -0.0209,0.01249 -0.10541,0.06457 -0.1875,0.115234 -0.258343,0.159397 -0.714619,0.379957 -0.941406,0.455079 -0.06935,0.02297 -0.135329,0.04933 -0.148438,0.05859 -0.01319,0.0093 -0.06529,0.02542 -0.115234,0.03711 -0.04994,0.0117 -0.183397,0.05004 -0.296875,0.08398 -0.182564,0.0546 -0.284916,0.08185 -0.402344,0.111328 -0.06124,0.01537 -0.513142,0.107827 -0.583984,0.119141 -0.03782,0.006 -0.104298,0.01938 -0.148437,0.03125 -0.111971,0.03011 -0.946361,0.06936 -1.386719,0.06445 -0.201054,-0.0022 -0.4582,-0.01866 -0.572266,-0.03516 l -0.002,0 c -0.113418,-0.01662 -0.277429,-0.04668 -0.365234,-0.06641 -0.08826,-0.01984 -0.187239,-0.0384 -0.21875,-0.04297 -0.131898,-0.01914 -0.622033,-0.151385 -0.802735,-0.216797 -0.107183,-0.03879 -0.235484,-0.08513 -0.287109,-0.101563 -0.295977,-0.09422 -0.948034,-0.465988 -1.132813,-0.646484 -0.01923,-0.01872 -0.08513,-0.07302 -0.144531,-0.121094 -0.173717,-0.140545 -0.68164,-0.651804 -0.68164,-0.685547 0,-0.0104 -0.01548,-0.03491 -0.03516,-0.05469 -0.06994,-0.07033 -0.216256,-0.277865 -0.308593,-0.439453 -0.05154,-0.0902 -0.102096,-0.180487 -0.113282,-0.199219 -0.04477,-0.07495 -0.160579,-0.313804 -0.21875,-0.453125 -0.131832,-0.315728 -0.197452,-0.591901 -0.238281,-0.914062 -0.04054,0.301179 -0.05397,0.523926 -0.02539,0.84375 0.03584,0.401069 0.109861,0.701946 0.263672,1.070312 0.05817,0.139321 0.17398,0.378175 0.21875,0.453125 0.01119,0.01873 0.06174,0.109019 0.113282,0.199219 0.09234,0.161588 0.238653,0.369123 0.308593,0.439453 0.01968,0.01978 0.03516,0.04429 0.03516,0.05469 0,0.03374 0.507923,0.545002 0.68164,0.685547 0.0594,0.04807 0.125301,0.102374 0.144531,0.121094 0.184779,0.180496 0.836836,0.552264 1.132813,0.646484 0.05163,0.01643 0.179926,0.06277 0.287109,0.101563 0.180702,0.06541 0.670837,0.197657 0.802735,0.216797 0.03151,0.0046 0.13049,0.02313 0.21875,0.04297 0.08781,0.01973 0.251816,0.04979 0.365234,0.06641 l 0.002,0 c 0.114066,0.0165 0.371212,0.03296 0.572266,0.03516 0.440358,0.0049 1.274748,-0.03434 1.386719,-0.06445 0.04414,-0.01187 0.110617,-0.02525 0.148437,-0.03125 0.07084,-0.01131 0.522744,-0.103771 0.583984,-0.119141 0.117428,-0.02948 0.21978,-0.05673 0.402344,-0.111328 0.113478,-0.03394 0.246935,-0.07228 0.296875,-0.08398 0.04995,-0.01169 0.102044,-0.02781 0.115234,-0.03711 0.01311,-0.0093 0.07909,-0.03562 0.148438,-0.05859 0.226787,-0.07512 0.683063,-0.295682 0.941406,-0.455079 0.08209,-0.05066 0.1666,-0.102744 0.1875,-0.115234 0.0208,-0.01249 0.09915,-0.06606 0.175782,-0.11914 0.07663,-0.05308 0.145843,-0.0957 0.152343,-0.0957 0.02501,0 0.2633,-0.174367 0.375,-0.273437 0.03521,-0.03122 0.115915,-0.09996 0.177735,-0.152344 0.225071,-0.19069 0.553081,-0.532248 0.613281,-0.638672 0.01141,-0.02019 0.05281,-0.07516 0.0918,-0.121093 0.159268,-0.187525 0.289062,-0.361239 0.289062,-0.386719 0,-0.0099 0.04681,-0.0881 0.103516,-0.175781 0.05678,-0.08767 0.103516,-0.164975 0.103516,-0.171876 0,-0.0069 0.03688,-0.09148 0.08203,-0.1875 0.04516,-0.09601 0.09574,-0.20668 0.113281,-0.24414 0.113894,-0.243842 0.262855,-0.799552 0.296875,-1.111328 0.0068,-0.06244 0.02213,-0.186018 0.0332,-0.273438 0.02185,-0.16748 0.01727,-0.792201 -0.0059,-0.908203 -5.41e-4,-0.0027 -0.0013,-0.01781 -0.002,-0.02148 z"
     id="path4380" />
</svg>
