<?xml version="1.0" encoding="UTF-8" standalone="no"?>
<!-- Created with Inkscape (http://www.inkscape.org/) -->

<svg
   xmlns:dc="http://purl.org/dc/elements/1.1/"
   xmlns:cc="http://creativecommons.org/ns#"
   xmlns:rdf="http://www.w3.org/1999/02/22-rdf-syntax-ns#"
   xmlns:svg="http://www.w3.org/2000/svg"
   xmlns="http://www.w3.org/2000/svg"
   xmlns:sodipodi="http://sodipodi.sourceforge.net/DTD/sodipodi-0.dtd"
   xmlns:inkscape="http://www.inkscape.org/namespaces/inkscape"
   width="48"
   height="48"
   viewBox="0 0 48 48.000001"
   id="svg4779"
   version="1.1"
   inkscape:version="0.91 r13725"
   sodipodi:docname="victor-vran.svg">
  <defs
     id="defs4781" />
  <sodipodi:namedview
     id="base"
     pagecolor="#ffffff"
     bordercolor="#666666"
     borderopacity="1.0"
     inkscape:pageopacity="0.0"
     inkscape:pageshadow="2"
     inkscape:zoom="1"
     inkscape:cx="-18.679659"
     inkscape:cy="7.8026375"
     inkscape:document-units="px"
     inkscape:current-layer="layer1"
     showgrid="false"
     units="px"
     inkscape:window-width="1600"
     inkscape:window-height="845"
     inkscape:window-x="0"
     inkscape:window-y="31"
     inkscape:window-maximized="1" />
  <metadata
     id="metadata4784">
    <rdf:RDF>
      <cc:Work
         rdf:about="">
        <dc:format>image/svg+xml</dc:format>
        <dc:type
           rdf:resource="http://purl.org/dc/dcmitype/StillImage" />
        <dc:title />
      </cc:Work>
    </rdf:RDF>
  </metadata>
  <g
     inkscape:label="Layer 1"
     inkscape:groupmode="layer"
     id="layer1"
     transform="translate(0,-1004.3622)">
    <rect
       style="fill:#32434d;fill-opacity:1"
       x="-1048.3622"
       y="-44"
       width="40"
       height="40"
       ry="20"
       rx="20"
       transform="matrix(0,-1,-1,0,0,0)"
       id="rect4203-4" />
    <path
       style="opacity:0.2;fill:#ffffff"
       inkscape:connector-curvature="0"
       d="m 24,1008.3622 c -11.08,0 -20,8.92 -20,20 0,0.168 -0.004,0.333 0,0.5 0.2644,-10.846 9.088,-19.5 20,-19.5 10.912,0 19.736,8.654 20,19.5 0.004,-0.167 0,-0.332 0,-0.5 0,-11.08 -8.92,-20 -20,-20 z"
       id="path4068" />
    <path
       id="path4137"
       d="m 24,1016.3698 a 13,13 0 0 0 -13,13 13,13 0 0 0 8.429688,12.1543 c -0.0063,-0.1849 -0.0071,-0.4227 -0.01953,-0.5605 -0.03824,-0.4311 0.06625,-2.3559 0.160156,-2.9415 0.0324,-0.2023 0.150099,-0.6009 0.261719,-0.8847 0.221356,-0.563 0.47099,-1.4071 0.560547,-1.9043 0.03134,-0.1735 0.111012,-0.5058 0.177734,-0.7383 0.102302,-0.3555 0.11432,-0.5099 0.08008,-0.9824 -0.03133,-0.4321 -0.01902,-0.6239 0.05078,-0.8399 0.118733,-0.3683 0.113309,-0.4963 -0.02539,-0.8261 -0.07202,-0.1713 -0.115161,-0.4183 -0.117187,-0.6543 l -0.0039,-0.3789 -0.111329,0.1445 c -0.0613,0.08 -0.152486,0.3073 -0.203125,0.5059 -0.222651,0.8719 -0.564372,1.3786 -1.554687,2.3144 -0.358003,0.3381 -0.67318,0.6755 -0.701172,0.75 -0.386058,1.0281 -0.422865,1.1751 -0.392578,1.5703 0.01669,0.2178 0.04843,0.456 0.07031,0.5293 0.05365,0.1798 -0.124673,0.2544 -0.269531,0.1133 -0.06014,-0.058 -0.148131,-0.084 -0.203125,-0.062 -0.0784,0.033 -0.09097,0.1022 -0.06836,0.3555 0.03367,0.3783 0.0514,0.404 0.298828,0.3964 0.160836,0 0.202412,0.022 0.255859,0.1758 0.03571,0.1028 0.0413,0.1836 0.01172,0.1836 -0.02941,0 -0.05469,0.083 -0.05469,0.1895 0,0.1818 -0.0093,0.1894 -0.257812,0.1894 -0.224249,0 -0.263121,0.019 -0.279297,0.1407 -0.01201,0.09 -0.06498,0.1502 -0.148437,0.1621 -0.172816,0.027 -0.646433,-0.4828 -0.830078,-0.8926 -0.184707,-0.4125 -0.15029,-1.0485 0.09766,-1.8418 0.09774,-0.3125 0.20856,-0.7391 0.248047,-0.9473 0.09337,-0.4929 0.204126,-0.7149 0.376953,-0.7617 0.107376,-0.028 0.207108,-0.1872 0.429687,-0.6797 0.159547,-0.353 0.351569,-0.8269 0.425781,-1.0527 0.160635,-0.4884 0.33594,-0.7799 0.804688,-1.3379 0.192299,-0.2291 0.381654,-0.5244 0.421875,-0.6582 0.04026,-0.1358 0.194614,-0.528 0.341797,-0.875 l 0.267578,-0.6309 0.03711,-1.1367 c 0.02092,-0.625 0.06716,-1.2383 0.103516,-1.3613 0.03622,-0.1233 0.211381,-0.4125 0.388672,-0.6445 0.190751,-0.2492 0.322265,-0.4836 0.322265,-0.5723 0,-0.1783 0.273111,-0.604 0.482422,-0.752 0.0818,-0.057 0.22458,-0.124 0.316407,-0.1465 0.329171,-0.08 0.373063,-0.1033 0.433593,-0.2246 0.04878,-0.099 0.0229,-0.2037 -0.123046,-0.5136 -0.101128,-0.2149 -0.219458,-0.4476 -0.263672,-0.5157 -0.07065,-0.109 -0.06661,-0.1338 0.03516,-0.2109 0.06374,-0.049 0.279767,-0.1252 0.480469,-0.168 0.34086,-0.076 0.366645,-0.089 0.382812,-0.2636 0.01561,-0.1672 -0.01894,-0.2079 -0.351562,-0.418 -0.766592,-0.4845 -1.042602,-0.8002 -1.039063,-1.1836 0.0043,-0.4317 0.234256,-0.6766 0.894531,-0.9531 0.335577,-0.14 0.423783,-0.2044 0.439453,-0.3223 0.01079,-0.08 0.04281,-0.1742 0.07227,-0.207 0.02942,-0.034 0.05469,-0.1789 0.05469,-0.3223 0,-0.4321 0.124832,-0.9989 0.255859,-1.1562 0.242977,-0.2919 0.435572,-0.3543 1.060547,-0.3516 0.490771,0 0.625593,0.025 0.83789,0.1426 0.285742,0.1607 0.342248,0.2746 0.53711,1.082 0.07117,0.2951 0.177165,0.5826 0.236328,0.6387 0.05917,0.056 0.123019,0.1717 0.142578,0.2558 0.02678,0.1145 0.122927,0.1896 0.386719,0.3028 0.682173,0.2924 1.047834,0.8088 0.921875,1.3008 -0.109362,0.4274 -0.668409,0.9121 -1.050781,0.9121 -0.06172,0 -0.111329,0.044 -0.111329,0.096 0,0.051 0.03651,0.094 0.08008,0.094 0.05619,0 0.08932,0.1351 0.115234,0.4668 0.0202,0.2574 0.06743,0.5426 0.105469,0.6328 0.0666,0.1577 0.08809,0.1624 0.572265,0.1621 0.428455,-2e-4 0.569701,0.028 0.96875,0.2012 0.257401,0.1108 0.489693,0.2389 0.515625,0.2852 0.02592,0.047 0.171239,0.1525 0.322266,0.2363 0.382788,0.212 0.930959,0.8424 1.349609,1.5508 0.194959,0.3298 0.409459,0.6667 0.47461,0.748 0.06514,0.08 0.117187,0.1897 0.117187,0.2422 0,0.053 0.06048,0.1852 0.132813,0.2949 0.07254,0.1107 0.135389,0.3045 0.140625,0.4356 0.01213,0.3082 0.242514,0.8283 0.824218,1.8594 0.361437,0.6408 0.480011,0.9094 0.511719,1.1582 0.02275,0.1783 0.05741,1.0722 0.07813,1.9863 0.03623,1.5989 0.04362,1.6678 0.167969,1.8105 0.129134,0.1486 0.128843,0.1484 0.07617,1.6953 -0.02901,0.8511 -0.07872,1.6224 -0.111328,1.7149 -0.03261,0.093 -0.138751,0.2119 -0.234375,0.2656 -0.0956,0.053 -0.188315,0.1486 -0.207032,0.2129 -0.01871,0.064 -0.193469,0.198 -0.388671,0.2988 -0.195201,0.1017 -0.368173,0.2047 -0.382813,0.2305 -0.01464,0.026 0.08465,0.2824 0.21875,0.5703 0.138789,0.2982 0.304832,0.5418 0.517578,0.8027 A 13,13 0 0 0 37,1029.3698 a 13,13 0 0 0 -13,-13 z m 3.505859,12.3301 c -0.0237,0 -0.03683,0.1481 -0.0293,0.3301 0.01136,0.2682 -0.0145,0.3734 -0.132812,0.5488 -0.08042,0.1206 -0.2674,0.4739 -0.416016,0.789 l -0.269531,0.5723 1.113281,2.3672 c 1.228054,2.6088 1.348801,2.8398 1.472657,2.8398 0.04664,0 0.18683,-0.1617 0.3125,-0.3613 l 0.002,0 c 0.125681,-0.1997 0.320935,-0.4847 0.435547,-0.6328 0.142428,-0.1836 0.231894,-0.3834 0.28125,-0.6309 0.03971,-0.1992 0.09016,-0.391 0.113281,-0.4257 0.14502,-0.2175 0.116408,-0.4766 -0.126953,-1.1465 -0.279009,-0.7684 -0.393902,-1.3531 -0.398438,-2.0196 l -0.0039,-0.4531 -0.414063,-0.1777 c -0.329769,-0.1425 -0.519004,-0.2847 -0.929687,-0.6992 -0.283746,-0.2866 -0.557075,-0.5215 -0.607422,-0.5215 -0.05036,0 -0.122029,-0.063 -0.160156,-0.1406 -0.07023,-0.144 -0.163441,-0.2346 -0.242188,-0.2364 z m -0.160156,5.9844 c -0.08256,-0.068 -0.07064,0.1823 -0.06055,0.6718 0.0116,0.5547 0.195402,1.4375 0.308594,1.4785 0.03944,0.014 0.138096,0.1 0.220703,0.1895 l 0.150391,0.1621 0.07617,2.457 c 0.03195,1.0526 0.0684,1.627 0.09961,2.0332 a 13,13 0 0 0 2.632813,-1.2246 c -0.713821,-0.4108 -1.360618,-1.23 -1.837891,-2.3867 -0.156174,-0.3785 -0.591213,-1.3419 -0.964844,-2.1406 -0.367147,-0.7847 -0.542443,-1.172 -0.625,-1.2402 z m 2.746094,1.7011 c -0.03881,-0.018 -0.07507,-0.01 -0.123047,0.018 -0.264667,0.1531 -0.257512,0.3172 0.04102,1.002 0.185951,0.4266 0.296332,0.6127 0.328125,0.5586 0.02625,-0.046 0.04631,-0.3418 0.04687,-0.6602 7.32e-4,-0.5311 -0.01004,-0.5938 -0.148438,-0.7715 -0.06295,-0.081 -0.105725,-0.1279 -0.144531,-0.1465 z m -6.757813,3.1719 c -0.05844,0 -0.0839,0.072 -0.08398,0.2363 -1.89e-4,0.2332 -0.182465,1.3373 -0.296875,1.7989 -0.0175,0.071 -0.07751,0.448 -0.123047,0.7187 a 13,13 0 0 0 1.001953,0.051 c -0.0022,-0.4262 -0.131128,-1.188 -0.259765,-1.5176 -0.06586,-0.1685 -0.09135,-0.3851 -0.08008,-0.6875 0.01719,-0.4637 -0.01851,-0.5996 -0.158204,-0.5996 z"
       style="opacity:0.2;fill:#000000;fill-opacity:1;stroke:none;stroke-width:2;stroke-linecap:round;stroke-linejoin:round;stroke-miterlimit:4;stroke-dasharray:none;stroke-opacity:1"
       inkscape:connector-curvature="0" />
    <path
       inkscape:connector-curvature="0"
       style="opacity:1;fill:#ffffff;fill-opacity:1;stroke:none;stroke-width:2;stroke-linecap:round;stroke-linejoin:round;stroke-miterlimit:4;stroke-dasharray:none;stroke-opacity:1"
       d="m 24,1015.3622 a 13,13 0 0 0 -13,13 13,13 0 0 0 8.429688,12.1543 c -0.0063,-0.1849 -0.0071,-0.4227 -0.01953,-0.5605 -0.03824,-0.4311 0.06625,-2.3559 0.160156,-2.9415 0.0324,-0.2023 0.150099,-0.6009 0.261719,-0.8847 0.221356,-0.563 0.47099,-1.4071 0.560547,-1.9043 0.03134,-0.1735 0.111012,-0.5058 0.177734,-0.7383 0.102302,-0.3555 0.11432,-0.5099 0.08008,-0.9824 -0.03133,-0.4321 -0.01902,-0.6239 0.05078,-0.8399 0.118733,-0.3683 0.113309,-0.4963 -0.02539,-0.8261 -0.07202,-0.1713 -0.115161,-0.4183 -0.117187,-0.6543 l -0.0039,-0.3789 -0.111329,0.1445 c -0.0613,0.08 -0.152486,0.3073 -0.203125,0.5059 -0.222651,0.8719 -0.564372,1.3786 -1.554687,2.3144 -0.358003,0.3381 -0.67318,0.6755 -0.701172,0.75 -0.386058,1.0281 -0.422865,1.1751 -0.392578,1.5703 0.01669,0.2178 0.04843,0.456 0.07031,0.5293 0.05365,0.1798 -0.124673,0.2544 -0.269531,0.1133 -0.06014,-0.058 -0.148131,-0.084 -0.203125,-0.062 -0.0784,0.033 -0.09097,0.1022 -0.06836,0.3555 0.03367,0.3783 0.0514,0.404 0.298828,0.3964 0.160836,0 0.202412,0.022 0.255859,0.1758 0.03571,0.1028 0.0413,0.1836 0.01172,0.1836 -0.02941,0 -0.05469,0.083 -0.05469,0.1895 0,0.1818 -0.0093,0.1894 -0.257812,0.1894 -0.224249,0 -0.263121,0.019 -0.279297,0.1407 -0.01201,0.09 -0.06498,0.1502 -0.148437,0.1621 -0.172816,0.027 -0.646433,-0.4828 -0.830078,-0.8926 -0.184707,-0.4125 -0.15029,-1.0485 0.09766,-1.8418 0.09774,-0.3125 0.20856,-0.7391 0.248047,-0.9473 0.09337,-0.4929 0.204126,-0.7149 0.376953,-0.7617 0.107376,-0.028 0.207108,-0.1872 0.429687,-0.6797 0.159547,-0.353 0.351569,-0.8269 0.425781,-1.0527 0.160635,-0.4884 0.33594,-0.7799 0.804688,-1.3379 0.192299,-0.2291 0.381654,-0.5244 0.421875,-0.6582 0.04026,-0.1358 0.194614,-0.528 0.341797,-0.875 l 0.267578,-0.6309 0.03711,-1.1367 c 0.02092,-0.625 0.06716,-1.2383 0.103516,-1.3613 0.03622,-0.1233 0.211381,-0.4125 0.388672,-0.6445 0.190751,-0.2492 0.322265,-0.4836 0.322265,-0.5723 0,-0.1783 0.273111,-0.604 0.482422,-0.752 0.0818,-0.057 0.22458,-0.124 0.316407,-0.1465 0.329171,-0.08 0.373063,-0.1033 0.433593,-0.2246 0.04878,-0.099 0.0229,-0.2037 -0.123046,-0.5136 -0.101128,-0.2149 -0.219458,-0.4476 -0.263672,-0.5157 -0.07065,-0.109 -0.06661,-0.1338 0.03516,-0.2109 0.06374,-0.049 0.279767,-0.1252 0.480469,-0.168 0.34086,-0.076 0.366645,-0.089 0.382812,-0.2636 0.01561,-0.1672 -0.01894,-0.2079 -0.351562,-0.418 -0.766592,-0.4845 -1.042602,-0.8002 -1.039063,-1.1836 0.0043,-0.4317 0.234256,-0.6766 0.894531,-0.9531 0.335577,-0.14 0.423783,-0.2044 0.439453,-0.3223 0.01079,-0.08 0.04281,-0.1742 0.07227,-0.207 0.02942,-0.034 0.05469,-0.1789 0.05469,-0.3223 0,-0.4321 0.124832,-0.9989 0.255859,-1.1562 0.242977,-0.2919 0.435572,-0.3543 1.060547,-0.3516 0.490771,0 0.625593,0.025 0.83789,0.1426 0.285742,0.1607 0.342248,0.2746 0.53711,1.082 0.07117,0.2951 0.177165,0.5826 0.236328,0.6387 0.05917,0.056 0.123019,0.1717 0.142578,0.2558 0.02678,0.1145 0.122927,0.1896 0.386719,0.3028 0.682173,0.2924 1.047834,0.8088 0.921875,1.3008 -0.109362,0.4274 -0.668409,0.9121 -1.050781,0.9121 -0.06172,0 -0.111329,0.044 -0.111329,0.096 0,0.051 0.03651,0.094 0.08008,0.094 0.05619,0 0.08932,0.1351 0.115234,0.4668 0.0202,0.2574 0.06743,0.5426 0.105469,0.6328 0.0666,0.1577 0.08809,0.1624 0.572265,0.1621 0.428455,-2e-4 0.569701,0.028 0.96875,0.2012 0.257401,0.1108 0.489693,0.2389 0.515625,0.2852 0.02592,0.047 0.171239,0.1525 0.322266,0.2363 0.382788,0.212 0.930959,0.8424 1.349609,1.5508 0.194959,0.3298 0.409459,0.6667 0.47461,0.748 0.06514,0.08 0.117187,0.1897 0.117187,0.2422 0,0.053 0.06048,0.1852 0.132813,0.2949 0.07254,0.1107 0.135389,0.3045 0.140625,0.4356 0.01213,0.3082 0.242514,0.8283 0.824218,1.8594 0.361437,0.6408 0.480011,0.9094 0.511719,1.1582 0.02275,0.1783 0.05741,1.0722 0.07813,1.9863 0.03623,1.5989 0.04362,1.6678 0.167969,1.8105 0.129134,0.1486 0.128843,0.1484 0.07617,1.6953 -0.02901,0.8511 -0.07872,1.6224 -0.111328,1.7149 -0.03261,0.093 -0.138751,0.2119 -0.234375,0.2656 -0.0956,0.053 -0.188315,0.1486 -0.207032,0.2129 -0.01871,0.064 -0.193469,0.198 -0.388671,0.2988 -0.195201,0.1017 -0.368173,0.2047 -0.382813,0.2305 -0.01464,0.026 0.08465,0.2824 0.21875,0.5703 0.138789,0.2982 0.304832,0.5418 0.517578,0.8027 A 13,13 0 0 0 37,1028.3622 a 13,13 0 0 0 -13,-13 z m 3.505859,12.3301 c -0.0237,0 -0.03683,0.1481 -0.0293,0.3301 0.01136,0.2682 -0.0145,0.3734 -0.132812,0.5488 -0.08042,0.1206 -0.2674,0.4739 -0.416016,0.789 l -0.269531,0.5723 1.113281,2.3672 c 1.228054,2.6088 1.348801,2.8398 1.472657,2.8398 0.04664,0 0.18683,-0.1617 0.3125,-0.3613 l 0.002,-0 c 0.125681,-0.1997 0.320935,-0.4847 0.435547,-0.6328 0.142428,-0.1836 0.231894,-0.3834 0.28125,-0.6309 0.03971,-0.1992 0.09016,-0.391 0.113281,-0.4257 0.14502,-0.2175 0.116408,-0.4766 -0.126953,-1.1465 -0.279009,-0.7684 -0.393902,-1.3531 -0.398438,-2.0196 l -0.0039,-0.4531 -0.414063,-0.1777 c -0.329769,-0.1425 -0.519004,-0.2847 -0.929687,-0.6992 -0.283746,-0.2866 -0.557075,-0.5215 -0.607422,-0.5215 -0.05036,0 -0.122029,-0.063 -0.160156,-0.1406 -0.07023,-0.144 -0.163441,-0.2346 -0.242188,-0.2364 z m -0.160156,5.9844 c -0.08256,-0.068 -0.07064,0.1823 -0.06055,0.6718 0.0116,0.5547 0.195402,1.4375 0.308594,1.4785 0.03944,0.014 0.138096,0.1 0.220703,0.1895 l 0.150391,0.1621 0.07617,2.457 c 0.03195,1.0526 0.0684,1.627 0.09961,2.0332 a 13,13 0 0 0 2.632813,-1.2246 c -0.713821,-0.4108 -1.360618,-1.23 -1.837891,-2.3867 -0.156174,-0.3785 -0.591213,-1.3419 -0.964844,-2.1406 -0.367147,-0.7847 -0.542443,-1.172 -0.625,-1.2402 z m 2.746094,1.7011 c -0.03881,-0.018 -0.07507,-0.01 -0.123047,0.018 -0.264667,0.1531 -0.257512,0.3172 0.04102,1.002 0.185951,0.4266 0.296332,0.6127 0.328125,0.5586 0.02625,-0.046 0.04631,-0.3418 0.04687,-0.6602 7.32e-4,-0.5311 -0.01004,-0.5938 -0.148438,-0.7715 -0.06295,-0.081 -0.105725,-0.1279 -0.144531,-0.1465 z m -6.757813,3.1719 c -0.05844,0 -0.0839,0.072 -0.08398,0.2363 -1.89e-4,0.2332 -0.182465,1.3373 -0.296875,1.7989 -0.0175,0.071 -0.07751,0.448 -0.123047,0.7187 a 13,13 0 0 0 1.001953,0.051 c -0.0022,-0.4262 -0.131128,-1.188 -0.259765,-1.5176 -0.06586,-0.1685 -0.09135,-0.3851 -0.08008,-0.6875 0.01719,-0.4637 -0.01851,-0.5996 -0.158204,-0.5996 z"
       id="path4183" />
    <path
       style="opacity:0.3"
       inkscape:connector-curvature="0"
       d="m 4.0117,1027.8622 c -0.0041,0.167 -0.0117,0.332 -0.0117,0.5 0,11.08 8.92,20 20,20 11.08,0 20,-8.92 20,-20 0,-0.168 -0.008,-0.333 -0.012,-0.5 -0.264,10.846 -9.076,19.5 -19.988,19.5 -10.912,0 -19.724,-8.654 -19.988,-19.5 z"
       id="rect3289" />
  </g>
</svg>
