<?xml version="1.0" encoding="UTF-8" standalone="no"?>
<!-- Created with Inkscape (http://www.inkscape.org/) -->

<svg
   xmlns:dc="http://purl.org/dc/elements/1.1/"
   xmlns:cc="http://creativecommons.org/ns#"
   xmlns:rdf="http://www.w3.org/1999/02/22-rdf-syntax-ns#"
   xmlns:svg="http://www.w3.org/2000/svg"
   xmlns="http://www.w3.org/2000/svg"
   xmlns:xlink="http://www.w3.org/1999/xlink"
   xmlns:sodipodi="http://sodipodi.sourceforge.net/DTD/sodipodi-0.dtd"
   xmlns:inkscape="http://www.inkscape.org/namespaces/inkscape"
   id="svg2817"
   height="48"
   width="48"
   version="1.0"
   inkscape:version="0.91 r"
   sodipodi:docname="yast.svg">
  <sodipodi:namedview
     pagecolor="#ffffff"
     bordercolor="#666666"
     borderopacity="1"
     objecttolerance="10"
     gridtolerance="10"
     guidetolerance="10"
     inkscape:pageopacity="0"
     inkscape:pageshadow="2"
     inkscape:window-width="1551"
     inkscape:window-height="876"
     id="namedview21"
     showgrid="false"
     inkscape:zoom="4.9166667"
     inkscape:cx="-8.3389831"
     inkscape:cy="24"
     inkscape:window-x="49"
     inkscape:window-y="24"
     inkscape:window-maximized="1"
     inkscape:current-layer="svg2817" />
  <metadata
     id="metadata57">
    <rdf:RDF>
      <cc:Work
         rdf:about="">
        <dc:format>image/svg+xml</dc:format>
        <dc:type
           rdf:resource="http://purl.org/dc/dcmitype/StillImage" />
        <dc:title></dc:title>
      </cc:Work>
    </rdf:RDF>
  </metadata>
  <defs
     id="defs2819">
    <linearGradient
       id="linearGradient3681">
      <stop
         id="stop3683"
         offset="0" />
      <stop
         id="stop3685"
         stop-opacity="0"
         offset="1" />
    </linearGradient>
    <linearGradient
       id="linearGradient4229"
       x1="296.98"
       xlink:href="#linearGradient3681"
       gradientUnits="userSpaceOnUse"
       y1="70.711"
       gradientTransform="matrix(0.32352,0.32352,-0.32352,0.32352,-60.01,-101.23)"
       x2="318.2"
       y2="70.711" />
    <linearGradient
       id="linearGradient4198"
       x1="296.98"
       xlink:href="#linearGradient3681"
       gradientUnits="userSpaceOnUse"
       y1="70.711"
       gradientTransform="matrix(0.32352,0.32352,-0.32352,0.32352,-49.827,-91.14)"
       x2="318.2"
       y2="70.711" />
    <linearGradient
       id="linearGradient4202"
       x1="296.98"
       xlink:href="#linearGradient3681"
       gradientUnits="userSpaceOnUse"
       y1="70.711"
       gradientTransform="matrix(0.32352,0.32352,-0.32352,0.32352,-40.114,-98.32)"
       x2="318.2"
       y2="70.711" />
  </defs>
  <rect
     id="rect4203"
     transform="matrix(0,-1,-1,0,0,0)"
     rx="2"
     ry="2"
     height="40"
     width="40"
     y="-44"
     x="-44"
     style="fill:#e9a84a;fill-opacity:1" />
  <path
     style="opacity:0.2;fill:#ffffff"
     inkscape:connector-curvature="0"
     id="rect4592"
     d="M 6,4 C 4.892,4 4,4.892 4,6 L 4,7 C 4,5.892 4.892,5 6,5 l 36,0 c 1.108,0 2,0.892 2,2 L 44,6 C 44,4.892 43.108,4 42,4 L 6,4 Z" />
  <path
     style="opacity:0.3"
     inkscape:connector-curvature="0"
     id="path4597"
     d="M 6,44 C 4.892,44 4,43.108 4,42 l 0,-1 c 0,1.108 0.892,2 2,2 l 36,0 c 1.108,0 2,-0.892 2,-2 l 0,1 c 0,1.108 -0.892,2 -2,2 L 6,44 Z" />
  <path
     style="opacity:0.3"
     inkscape:connector-curvature="0"
     id="rect4257"
     d="m 14,13 c -1.108,0 -2,0.892 -2,2 l 0,20 c 0,1.108 0.892,2 2,2 1.108,0 2,-0.892 2,-2 l 0,-20 c 0,-1.108 -0.892,-2 -2,-2 z m 10,0 c -1.108,0 -2,0.892 -2,2 l 0,20 c 0,1.108 0.892,2 2,2 1.108,0 2,-0.892 2,-2 l 0,-20 c 0,-1.108 -0.892,-2 -2,-2 z m 10,0 c -1.108,0 -2,0.892 -2,2 l 0,20 c 0,1.108 0.892,2 2,2 1.108,0 2,-0.892 2,-2 l 0,-20 c 0,-1.108 -0.892,-2 -2,-2 z" />
  <path
     inkscape:connector-curvature="0"
     id="rect4205"
     style="opacity:0.2;fill:url(#linearGradient4229);enable-background:new"
     d="m 22.797,22.154 -6.0913,5.1763 -3.916,-4.5034 c 0.2655,-2.6837 1.8921,-5.0463 3.1485,-7.3883 1.0385,0.69168 5.061,4.9175 6.8589,6.7154 z" />
  <path
     style="fill:#ffffff"
     inkscape:connector-curvature="0"
     id="path4383"
     d="m 18,19 a 4,4 0 0 1 -4,4 4,4 0 0 1 -4,-4 4,4 0 0 1 4,-4 4,4 0 0 1 4,4 z" />
  <path
     inkscape:connector-curvature="0"
     id="path4196"
     style="opacity:0.2;fill:url(#linearGradient4198);enable-background:new"
     d="m 32.98,32.243 -6.0913,5.1763 -3.916,-4.5034 c 0.2655,-2.6837 1.8921,-5.0463 3.1485,-7.3883 1.0385,0.69168 5.061,4.9175 6.8589,6.7154 z" />
  <path
     style="fill:#ffffff"
     inkscape:connector-curvature="0"
     id="path4389"
     d="m 28,29 a 4,4 0 0 1 -4,4 4,4 0 0 1 -4,-4 4,4 0 0 1 4,-4 4,4 0 0 1 4,4 z" />
  <path
     inkscape:connector-curvature="0"
     id="path4200"
     style="opacity:0.2;fill:url(#linearGradient4202);enable-background:new"
     d="m 42.694,25.064 -6.0913,5.1763 -3.916,-4.5034 c 0.2655,-2.6837 1.8921,-5.0463 3.1485,-7.3883 1.0385,0.69168 5.061,4.9175 6.8589,6.7154 z" />
  <path
     style="fill:#ffffff"
     inkscape:connector-curvature="0"
     id="path4391"
     d="m 38,22 a 4,4 0 0 1 -4,4 4,4 0 0 1 -4,-4 4,4 0 0 1 4,-4 4,4 0 0 1 4,4 z" />
</svg>
