<?xml version="1.0" encoding="UTF-8" standalone="no"?>
<!-- Created with Inkscape (http://www.inkscape.org/) -->

<svg
   xmlns:dc="http://purl.org/dc/elements/1.1/"
   xmlns:cc="http://creativecommons.org/ns#"
   xmlns:rdf="http://www.w3.org/1999/02/22-rdf-syntax-ns#"
   xmlns:svg="http://www.w3.org/2000/svg"
   xmlns="http://www.w3.org/2000/svg"
   xmlns:sodipodi="http://sodipodi.sourceforge.net/DTD/sodipodi-0.dtd"
   xmlns:inkscape="http://www.inkscape.org/namespaces/inkscape"
   width="16"
   height="16"
   id="svg3049"
   version="1.1"
   inkscape:version="0.91 r13725"
   sodipodi:docname="escape-direction-vertical.svg"
   inkscape:export-filename="/home/uri/.kde/share/icons/NITRUX-KDE/16x16/actions/view-right-new.png"
   inkscape:export-xdpi="30"
   inkscape:export-ydpi="30">
  <defs
     id="defs3051">
    <style
       type="text/css"
       id="current-color-scheme">
      .ColorScheme-Text {
        color:#4d4d4d;
      }
      .ColorScheme-Background {
        color:#eff0f1;
      }
      .ColorScheme-Highlight {
        color:#3daee9;
      }
      .ColorScheme-ViewText {
        color:#31363b;
      }
      .ColorScheme-ViewBackground {
        color:#fcfcfc;
      }
      .ColorScheme-ViewHover {
        color:#93cee9;
      }
      .ColorScheme-ViewFocus{
        color:#3daee9;
      }
      .ColorScheme-ButtonText {
        color:#31363b;
      }
      .ColorScheme-ButtonBackground {
        color:#eff0f1;
      }
      .ColorScheme-ButtonHover {
        color:#93cee9;
      }
      .ColorScheme-ButtonFocus{
        color:#3daee9;
      }
      </style>
  </defs>
  <sodipodi:namedview
     id="base"
     pagecolor="#ffffff"
     bordercolor="#666666"
     borderopacity="1.0"
     inkscape:pageopacity="0.0"
     inkscape:pageshadow="2"
     inkscape:zoom="21.53"
     inkscape:cx="3.3432556"
     inkscape:cy="8.2713128"
     inkscape:document-units="px"
     inkscape:current-layer="layer1-6"
     showgrid="false"
     fit-margin-top="0"
     fit-margin-left="0"
     fit-margin-right="0"
     fit-margin-bottom="0"
     inkscape:window-width="1600"
     inkscape:window-height="847"
     inkscape:window-x="0"
     inkscape:window-y="30"
     inkscape:window-maximized="1"
     inkscape:showpageshadow="false"
     borderlayer="true"
     inkscape:snap-bbox="true"
     inkscape:snap-global="true"
     showguides="false">
    <inkscape:grid
       type="xygrid"
       id="grid4085" />
    <sodipodi:guide
       position="2.0000044,14.00003"
       orientation="12,0"
       id="guide4075" />
    <sodipodi:guide
       position="2.0000044,2.0000296"
       orientation="4.2285741e-06,1"
       id="guide4077" />
    <sodipodi:guide
       position="14,9"
       orientation="-12,0"
       id="guide4079" />
    <sodipodi:guide
       position="14,14"
       orientation="0,-12"
       id="guide4081" />
  </sodipodi:namedview>
  <metadata
     id="metadata3054">
    <rdf:RDF>
      <cc:Work
         rdf:about="">
        <dc:format>image/svg+xml</dc:format>
        <dc:type
           rdf:resource="http://purl.org/dc/dcmitype/StillImage" />
        <dc:title></dc:title>
      </cc:Work>
    </rdf:RDF>
  </metadata>
  <g
     inkscape:label="Capa 1"
     inkscape:groupmode="layer"
     id="layer1"
     transform="translate(-421.71429,-531.79074)">
    <g
       transform="matrix(0.75,0,0,0.74999813,421.46429,-241.22897)"
       id="layer1-0"
       inkscape:label="Capa 1">
      <g
         transform="translate(6.2937501e-7,-2.041003e-4)"
         id="layer1-6"
         inkscape:label="Capa 1">
        <text
           transform="scale(0.99999872,1.0000013)"
           sodipodi:linespacing="125%"
           id="text3781"
           y="1053.0374"
           x="16.914654"
           style="font-style:normal;font-weight:normal;font-size:12.00001526px;line-height:125%;font-family:Sans;letter-spacing:0px;word-spacing:0px;fill:#ffffff;fill-opacity:1;stroke:none"
           xml:space="preserve"><tspan
             id="tspan3783"
             sodipodi:role="line"
             x="16.914654"
             y="1053.0374" /></text>
        <path
           style="color:#ffffff;display:inline;overflow:visible;visibility:visible;opacity:0.72;fill:#ffffff;fill-opacity:1;fill-rule:evenodd;stroke:none;stroke-width:1;marker:none;enable-background:accumulate"
           d="M 1 1 L 1 15 L 15 15 L 15 1 L 1 1 z M 3 3 L 7 3 L 7 6.2773438 C 6.706954 6.4477505 6.4631696 6.6859609 6.2890625 6.9765625 C 6.2797979 6.9917881 6.2725338 7.0079483 6.2636719 7.0234375 C 6.196424 7.1427762 6.1414536 7.2694182 6.0996094 7.4023438 C 6.0873601 7.4406448 6.0763396 7.4782861 6.0664062 7.5175781 C 6.0276198 7.6730655 6 7.8325002 6 8 C 6 8.1674998 6.0276198 8.3269345 6.0664062 8.4824219 C 6.0763396 8.5217139 6.0873601 8.5593552 6.0996094 8.5976562 C 6.1414536 8.7305818 6.196424 8.8572238 6.2636719 8.9765625 C 6.2725338 8.9920517 6.2797979 9.0082119 6.2890625 9.0234375 C 6.4631696 9.3140391 6.706954 9.5522495 7 9.7226562 L 7 13 L 3 13 L 3 3 z M 9 3 L 13 3 L 13 13 L 9 13 L 9 9.7226562 C 9.2930459 9.5522495 9.5368304 9.3140391 9.7109375 9.0234375 C 9.7202021 9.0082119 9.7274662 8.9920517 9.7363281 8.9765625 C 9.803576 8.8572238 9.8585464 8.7305818 9.9003906 8.5976562 C 9.9126399 8.5593552 9.9236604 8.5217139 9.9335938 8.4824219 C 9.9723802 8.3269345 10 8.1674998 10 8 C 10 7.8325002 9.9723802 7.6730655 9.9335938 7.5175781 C 9.9236604 7.4782861 9.9126399 7.4406448 9.9003906 7.4023438 C 9.8585464 7.2694182 9.803576 7.1427762 9.7363281 7.0234375 C 9.7274662 7.0079483 9.7202021 6.9917881 9.7109375 6.9765625 C 9.5368304 6.6859609 9.2930459 6.4477505 9 6.2773438 L 9 3 z "
           transform="matrix(1.3333333,0,0,1.3333367,0.3333327,1030.6957)"
           id="rect4152-9-3-4" />
      </g>
    </g>
  </g>
</svg>
