<?xml version="1.0" encoding="UTF-8" standalone="no"?>
<!-- Created with Inkscape (http://www.inkscape.org/) -->

<svg
   xmlns:osb="http://www.openswatchbook.org/uri/2009/osb"
   xmlns:dc="http://purl.org/dc/elements/1.1/"
   xmlns:cc="http://creativecommons.org/ns#"
   xmlns:rdf="http://www.w3.org/1999/02/22-rdf-syntax-ns#"
   xmlns:svg="http://www.w3.org/2000/svg"
   xmlns="http://www.w3.org/2000/svg"
   xmlns:sodipodi="http://sodipodi.sourceforge.net/DTD/sodipodi-0.dtd"
   xmlns:inkscape="http://www.inkscape.org/namespaces/inkscape"
   sodipodi:docname="im-icq.svg"
   inkscape:export-filename="/home/sam/source-symbolic.png"
   inkscape:export-xdpi="270"
   inkscape:export-ydpi="270"
   height="16"
   id="svg7384"
   style="enable-background:new"
   version="1.1"
   inkscape:version="0.91 r"
   width="16">
  <sodipodi:namedview
     inkscape:bbox-nodes="true"
     inkscape:bbox-paths="false"
     bordercolor="#666666"
     borderlayer="false"
     borderopacity="1"
     inkscape:current-layer="layer12"
     inkscape:cx="6.0921985"
     inkscape:cy="5.0718628"
     gridtolerance="10"
     inkscape:guide-bbox="true"
     guidetolerance="10"
     id="namedview88"
     inkscape:object-nodes="true"
     inkscape:object-paths="true"
     objecttolerance="10"
     pagecolor="#f7f7f7"
     inkscape:pageopacity="0"
     inkscape:pageshadow="2"
     showborder="true"
     showgrid="false"
     showguides="true"
     inkscape:showpageshadow="false"
     inkscape:snap-bbox="true"
     inkscape:snap-bbox-edge-midpoints="false"
     inkscape:snap-bbox-midpoints="true"
     inkscape:snap-center="false"
     inkscape:snap-global="true"
     inkscape:snap-grids="true"
     inkscape:snap-intersection-paths="true"
     inkscape:snap-midpoints="true"
     inkscape:snap-nodes="true"
     inkscape:snap-object-midpoints="true"
     inkscape:snap-others="true"
     inkscape:snap-page="false"
     inkscape:snap-smooth-nodes="true"
     inkscape:snap-to-guides="true"
     inkscape:window-height="842"
     inkscape:window-maximized="1"
     inkscape:window-width="1600"
     inkscape:window-x="-4"
     inkscape:window-y="32"
     inkscape:zoom="24.48">
    <inkscape:grid
       color="#000000"
       dotted="false"
       empcolor="#0800ff"
       empopacity="0.4627451"
       empspacing="4"
       enabled="true"
       id="grid4866"
       opacity="0.16470588"
       originx="-184.0002"
       originy="-336.00336"
       snapvisiblegridlinesonly="true"
       spacingx="0.25px"
       spacingy="0.25px"
       type="xygrid"
       visible="true" />
  </sodipodi:namedview>
  <metadata
     id="metadata90">
    <rdf:RDF>
      <cc:Work
         rdf:about="">
        <dc:format>image/svg+xml</dc:format>
        <dc:type
           rdf:resource="http://purl.org/dc/dcmitype/StillImage" />
        <dc:title>Paper Symbolic Icon Theme</dc:title>
      </cc:Work>
    </rdf:RDF>
  </metadata>
  <title
     id="title8473">Paper Symbolic Icon Theme</title>
  <defs
     id="defs7386">
    <linearGradient
       id="linearGradient5606"
       osb:paint="solid">
      <stop
         id="stop5608"
         offset="0"
         style="stop-color:#000000;stop-opacity:1;" />
    </linearGradient>
  </defs>
  <g
     inkscape:groupmode="layer"
     id="layer12"
     inkscape:label="actions"
     style="display:inline"
     transform="translate(-425.0004,119.00336)">
    <path
       inkscape:connector-curvature="0"
       style="opacity:0.72;fill:#ffffff;fill-opacity:1;stroke:none;stroke-width:1;stroke-linecap:round;stroke-linejoin:round;stroke-miterlimit:4;stroke-dasharray:none;stroke-opacity:1"
       d="m 436.50027,-117.06114 c -0.822,-0.47458 -1.9957,-0.0157 -2.83827,1.02931 -0.54354,-1.22683 -1.55576,-1.97517 -2.47229,-1.72958 -0.91654,0.24558 -1.42165,1.4005 -1.27895,2.73472 -1.2522,-0.48372 -2.49809,-0.29427 -2.97267,0.52773 -0.47458,0.82199 -0.0157,1.99569 1.02931,2.83827 -1.22682,0.54352 -1.97347,1.55673 -1.72789,2.47327 0.24559,0.91653 1.39978,1.41897 2.73401,1.27627 0.0809,-0.2092 0.17577,-0.41772 0.2947,-0.62371 0.47696,-0.49269 1.26031,-1.0634 2.05997,-1.37267 a 2,2 0 0 1 -0.25957,-0.57385 2,2 0 0 1 1.41407,-2.44923 2,2 0 0 1 2.44923,1.41406 2,2 0 0 1 -1.41407,2.44923 2,2 0 0 1 -0.62773,0.0638 c 0.13177,0.84679 0.0307,1.80786 -0.15682,2.46694 l -10e-4,0.002 c -0.11893,0.20599 -0.25207,0.39243 -0.39281,0.56707 0.54353,1.22683 1.55575,1.97517 2.4723,1.72959 0.91653,-0.24559 1.41898,-1.39979 1.27627,-2.73401 1.25221,0.48371 2.49808,0.29426 2.97267,-0.52773 0.47457,-0.822 0.0157,-1.99569 -1.02931,-2.83827 1.22684,-0.54352 1.97615,-1.55745 1.73056,-2.47398 -0.24559,-0.91654 -1.39978,-1.41899 -2.73401,-1.27628 0.48374,-1.25224 0.2943,-2.49813 -0.5277,-2.97271 z m -4.77395,11.70232 c -0.0274,0.0218 -0.0543,0.047 -0.0819,0.0677 0.004,-0.003 0.007,-0.005 0.0109,-0.007 0.0241,-0.0182 0.0471,-0.0414 0.071,-0.0605 z m -2.90994,-0.5028 c 0.002,0.006 0.003,0.0126 0.005,0.0187 0.0209,0.0664 0.0473,0.12984 0.0743,0.19172 0.003,0.007 0.006,0.0124 0.009,0.0189 -0.0332,-0.0737 -0.0641,-0.14909 -0.0886,-0.22933 z m 1.8064,1.05871 c -0.0748,0.0165 -0.14894,0.0265 -0.22254,0.0339 0.007,-7.7e-4 0.014,-5.8e-4 0.0211,-0.001 0.067,-0.008 0.13352,-0.0175 0.20146,-0.0325 z m -1.64938,-0.68615 c 0.003,0.005 0.004,0.0105 0.007,0.0153 0.036,0.0625 0.0803,0.11702 0.12351,0.1728 -0.0466,-0.06 -0.0922,-0.12039 -0.13047,-0.18809 z m 1.26859,0.73242 c -0.0778,7.1e-4 -0.15288,-0.009 -0.22813,-0.0189 0.07,0.01 0.1393,0.0206 0.2114,0.0206 0.006,-4e-5 0.0112,-0.002 0.0167,-0.002 z"
       id="path4231" />
    <path
       inkscape:connector-curvature="0"
       style="opacity:0.3;fill:#ffffff;fill-opacity:1;stroke:none;stroke-width:1;stroke-linecap:round;stroke-linejoin:round;stroke-miterlimit:4;stroke-dasharray:none;stroke-opacity:1"
       d="m 431.33086,-109.90824 c -0.80056,0.30902 -1.58516,0.88016 -2.06264,1.37338 -0.83099,1.43934 -0.7275,3.04407 0.23205,3.59807 0.95956,0.554 2.40105,-0.15874 3.23205,-1.59807 l 10e-4,-0.002 c 0.18764,-0.65942 0.28991,-1.62144 0.15778,-2.46859 a 2,2 0 0 1 -0.88888,-0.26512 2,2 0 0 1 -0.67136,-0.63794 z"
       id="rect4216" />
  </g>
</svg>
