<?xml version="1.0" encoding="UTF-8" standalone="no"?>
<!-- Created with Inkscape (http://www.inkscape.org/) -->

<svg
   xmlns:dc="http://purl.org/dc/elements/1.1/"
   xmlns:cc="http://creativecommons.org/ns#"
   xmlns:rdf="http://www.w3.org/1999/02/22-rdf-syntax-ns#"
   xmlns:svg="http://www.w3.org/2000/svg"
   xmlns="http://www.w3.org/2000/svg"
   xmlns:sodipodi="http://sodipodi.sourceforge.net/DTD/sodipodi-0.dtd"
   xmlns:inkscape="http://www.inkscape.org/namespaces/inkscape"
   width="16"
   height="16"
   id="svg3049"
   version="1.1"
   inkscape:version="0.91 r13725"
   sodipodi:docname="office-chart-area-stacked.svg"
   inkscape:export-filename="/home/uri/.kde/share/icons/NITRUX-KDE/16x16/actions/view-right-new.png"
   inkscape:export-xdpi="30"
   inkscape:export-ydpi="30">
  <defs
     id="defs3051">
    <style
       type="text/css"
       id="current-color-scheme">
      .ColorScheme-Text {
        color:#4d4d4d;
      }
      .ColorScheme-Background {
        color:#eff0f1;
      }
      .ColorScheme-Highlight {
        color:#3daee9;
      }
      .ColorScheme-ViewText {
        color:#31363b;
      }
      .ColorScheme-ViewBackground {
        color:#fcfcfc;
      }
      .ColorScheme-ViewHover {
        color:#93cee9;
      }
      .ColorScheme-ViewFocus{
        color:#3daee9;
      }
      .ColorScheme-ButtonText {
        color:#31363b;
      }
      .ColorScheme-ButtonBackground {
        color:#eff0f1;
      }
      .ColorScheme-ButtonHover {
        color:#93cee9;
      }
      .ColorScheme-ButtonFocus{
        color:#3daee9;
      }
      </style>
  </defs>
  <sodipodi:namedview
     id="base"
     pagecolor="#ffffff"
     bordercolor="#666666"
     borderopacity="1.0"
     inkscape:pageopacity="0.0"
     inkscape:pageshadow="2"
     inkscape:zoom="32"
     inkscape:cx="0.877235"
     inkscape:cy="6.4153699"
     inkscape:document-units="px"
     inkscape:current-layer="layer1"
     showgrid="false"
     fit-margin-top="0"
     fit-margin-left="0"
     fit-margin-right="0"
     fit-margin-bottom="0"
     inkscape:window-width="1535"
     inkscape:window-height="839"
     inkscape:window-x="55"
     inkscape:window-y="30"
     inkscape:window-maximized="0"
     inkscape:showpageshadow="false"
     borderlayer="true"
     inkscape:snap-bbox="false"
     inkscape:snap-global="true"
     inkscape:object-nodes="false"
     showguides="false"
     inkscape:guide-bbox="true"
     inkscape:bbox-paths="false"
     inkscape:bbox-nodes="false"
     inkscape:snap-bbox-edge-midpoints="false"
     inkscape:snap-bbox-midpoints="false"
     inkscape:snap-intersection-paths="false"
     inkscape:snap-nodes="false"
     inkscape:object-paths="false">
    <inkscape:grid
       type="xygrid"
       id="grid4085" />
    <sodipodi:guide
       position="2.0000044,14.00003"
       orientation="12,0"
       id="guide4075" />
    <sodipodi:guide
       position="14.000004,2.0000296"
       orientation="-12,0"
       id="guide4079" />
    <sodipodi:guide
       position="14.000004,14.00003"
       orientation="0,-12"
       id="guide4081" />
    <sodipodi:guide
       position="8,2"
       orientation="0,1"
       id="guide4178" />
  </sodipodi:namedview>
  <metadata
     id="metadata3054">
    <rdf:RDF>
      <cc:Work
         rdf:about="">
        <dc:format>image/svg+xml</dc:format>
        <dc:type
           rdf:resource="http://purl.org/dc/dcmitype/StillImage" />
        <dc:title />
      </cc:Work>
    </rdf:RDF>
  </metadata>
  <g
     inkscape:label="Capa 1"
     inkscape:groupmode="layer"
     id="layer1"
     transform="translate(-421.71429,-531.79074)">
    <path
       inkscape:connector-curvature="0"
       style="opacity:0.3;fill:#ffffff;fill-opacity:1;fill-rule:evenodd;stroke:none;stroke-width:1px;stroke-linecap:butt;stroke-linejoin:miter;stroke-opacity:1"
       d="m 435.66937,535.96652 -0.82422,0.82422 -2,2 -0.004,-0.004 -0.006,0.004 -2.12304,-2.12305 -1.29493,1.29493 -0.82812,0.82812 -2,2 -0.002,0 -1.87305,0 0,2 0.008,0 0.99219,0 1.59375,0 2,-2 1.00586,0 0.4082,0 0.99219,0 0.0137,0 2,2 1.98633,0 0,-6.77734 -0.0449,-0.0469 z m -5.94727,5.82422 -2,2 -0.008,-0.008 0,0.008 -2,0 -0.99219,0 -0.008,0 0,1 11,0 0,-1 -2.40039,0 -2,-2 -1.5918,0 z"
       id="path4150" />
    <path
       inkscape:connector-curvature="0"
       style="opacity:0.72000002;fill:#ffffff;fill-opacity:1;stroke:none"
       d="m 423.71429,533.79074 0,11 0,1 1,0 11,0 0,-1 -11,0 0,-1 0.008,0 0.99219,0 2,0 0,-0.008 0.008,0.008 2,-2 1.5918,0 2,2 2.40039,0 0,-1 -1.98633,0 -2,-2 -0.0137,0 -0.99219,0 -0.4082,0 -1.00586,0 -2,2 -1.59375,0 -0.99219,0 -0.008,0 0,-2 1.87305,0 0.002,0 2,-2 0.82812,-0.82812 1.29493,-1.29493 2.12304,2.12305 0.006,-0.004 0.004,0.004 2,-2 0.82813,-0.82812 c 0.003,0.005 -0.70703,-0.70704 -0.70703,-0.70704 l -0.82816,0.82813 -1.29688,1.29687 -2.12695,-2.125 -0.002,0.002 -0.002,-0.002 c -0.9353,0.92956 -2.83985,2.81641 -2.82813,2.82813 l -1.70703,1.70703 -1.46094,0 0,-6 -1,0 z"
       id="rect4223" />
  </g>
</svg>
