<?xml version="1.0" encoding="UTF-8" standalone="no"?>
<!-- Created with Inkscape (http://www.inkscape.org/) -->
<svg id="svg2817" xmlns:rdf="http://www.w3.org/1999/02/22-rdf-syntax-ns#" xmlns="http://www.w3.org/2000/svg" height="48" width="48" version="1.0" xmlns:cc="http://creativecommons.org/ns#" xmlns:xlink="http://www.w3.org/1999/xlink" xmlns:dc="http://purl.org/dc/elements/1.1/">
 <metadata id="metadata57">
  <rdf:RDF>
   <cc:Work rdf:about="">
    <dc:format>image/svg+xml</dc:format>
    <dc:type rdf:resource="http://purl.org/dc/dcmitype/StillImage"/>
    <dc:title/>
   </cc:Work>
  </rdf:RDF>
 </metadata>
 <defs id="defs2819">
  <linearGradient id="linearGradient3681">
   <stop id="stop3683" offset="0"/>
   <stop id="stop3685" stop-opacity="0" offset="1"/>
  </linearGradient>
  <linearGradient id="linearGradient4229" y2="70.711" xlink:href="#linearGradient3681" gradientUnits="userSpaceOnUse" x2="318.2" gradientTransform="matrix(.32352 .32352 -.32352 .32352 -60.01 -102.23)" y1="70.711" x1="296.98"/>
  <linearGradient id="linearGradient4198" y2="70.711" xlink:href="#linearGradient3681" gradientUnits="userSpaceOnUse" x2="318.2" gradientTransform="matrix(.32352 .32352 -.32352 .32352 -49.827 -92.14)" y1="70.711" x1="296.98"/>
  <linearGradient id="linearGradient4202" y2="70.711" xlink:href="#linearGradient3681" gradientUnits="userSpaceOnUse" x2="318.2" gradientTransform="matrix(.32352 .32352 -.32352 .32352 -40.114 -99.32)" y1="70.711" x1="296.98"/>
 </defs>
 <g id="g4186" transform="translate(0,1)">
  <rect id="rect4203" transform="matrix(0,-1,-1,0,0,0)" rx="2" ry="2" height="40" width="40" y="-44" x="-43" fill="#e73c57"/>
  <path id="rect4592" opacity=".2" d="m6 3c-1.108 0-2 0.892-2 2v1c0-1.108 0.892-2 2-2h36c1.108 0 2 0.892 2 2v-1c0-1.108-0.892-2-2-2h-36z" fill="#fff"/>
  <path id="path4597" opacity=".3" d="m6 43c-1.108 0-2-0.892-2-2v-1c0 1.108 0.892 2 2 2h36c1.108 0 2-0.892 2-2v1c0 1.108-0.892 2-2 2h-36z"/>
  <path id="rect4257" d="m14 12c-1.108 0-2 0.892-2 2v20c0 1.108 0.892 2 2 2s2-0.892 2-2v-20c0-1.108-0.892-2-2-2zm10 0c-1.108 0-2 0.892-2 2v20c0 1.108 0.892 2 2 2s2-0.892 2-2v-20c0-1.108-0.892-2-2-2zm10 0c-1.108 0-2 0.892-2 2v20c0 1.108 0.892 2 2 2s2-0.892 2-2v-20c0-1.108-0.892-2-2-2z" fill="#fff"/>
  <path id="rect4205" opacity=".2" style="enable-background:new" d="m22.797 21.154-6.0913 5.1763-3.916-4.5034c0.2655-2.6837 1.8921-5.0463 3.1485-7.3883 1.0385 0.69168 5.061 4.9175 6.8589 6.7154z" fill="url(#linearGradient4229)"/>
  <path id="path4383" d="m18 18a4 4 0 0 1 -4 4 4 4 0 0 1 -4 -4 4 4 0 0 1 4 -4 4 4 0 0 1 4 4z" fill="#e78d3c"/>
  <path id="path4196" opacity=".2" style="enable-background:new" d="m32.98 31.243-6.0913 5.1763-3.916-4.5034c0.2655-2.6837 1.8921-5.0463 3.1485-7.3883 1.0385 0.69168 5.061 4.9175 6.8589 6.7154z" fill="url(#linearGradient4198)"/>
  <path id="path4389" d="m28 28a4 4 0 0 1 -4 4 4 4 0 0 1 -4 -4 4 4 0 0 1 4 -4 4 4 0 0 1 4 4z" fill="#e78d3c"/>
  <path id="path4200" opacity=".2" style="enable-background:new" d="m42.694 24.064-6.0913 5.1763-3.916-4.5034c0.2655-2.6837 1.8921-5.0463 3.1485-7.3883 1.0385 0.69168 5.061 4.9175 6.8589 6.7154z" fill="url(#linearGradient4202)"/>
  <path id="path4391" d="m38 21a4 4 0 0 1 -4 4 4 4 0 0 1 -4 -4 4 4 0 0 1 4 -4 4 4 0 0 1 4 4z" fill="#e78d3c"/>
 </g>
</svg>
