<?xml version="1.0" encoding="UTF-8" standalone="no"?>
<!-- Created with Inkscape (http://www.inkscape.org/) -->

<svg
   xmlns:osb="http://www.openswatchbook.org/uri/2009/osb"
   xmlns:dc="http://purl.org/dc/elements/1.1/"
   xmlns:cc="http://creativecommons.org/ns#"
   xmlns:rdf="http://www.w3.org/1999/02/22-rdf-syntax-ns#"
   xmlns:svg="http://www.w3.org/2000/svg"
   xmlns="http://www.w3.org/2000/svg"
   xmlns:sodipodi="http://sodipodi.sourceforge.net/DTD/sodipodi-0.dtd"
   xmlns:inkscape="http://www.inkscape.org/namespaces/inkscape"
   width="16"
   height="16"
   viewBox="0 0 16 16"
   id="svg3487"
   version="1.1"
   inkscape:version="0.91 r13725"
   sodipodi:docname="battery-missing.svg">
  <defs
     id="defs3489">
    <linearGradient
       osb:paint="solid"
       id="linearGradient5606">
      <stop
         style="stop-color:#000000;stop-opacity:1;"
         offset="0"
         id="stop5608" />
    </linearGradient>
  </defs>
  <sodipodi:namedview
     id="base"
     pagecolor="#ffffff"
     bordercolor="#666666"
     borderopacity="1.0"
     inkscape:pageopacity="0.0"
     inkscape:pageshadow="2"
     inkscape:zoom="18.55"
     inkscape:cx="6.4288749"
     inkscape:cy="1.6980215"
     inkscape:document-units="px"
     inkscape:current-layer="layer1"
     showgrid="false"
     units="px"
     inkscape:window-width="1548"
     inkscape:window-height="846"
     inkscape:window-x="52"
     inkscape:window-y="30"
     inkscape:window-maximized="1" />
  <metadata
     id="metadata3492">
    <rdf:RDF>
      <cc:Work
         rdf:about="">
        <dc:format>image/svg+xml</dc:format>
        <dc:type
           rdf:resource="http://purl.org/dc/dcmitype/StillImage" />
        <dc:title />
      </cc:Work>
    </rdf:RDF>
  </metadata>
  <g
     inkscape:label="Layer 1"
     inkscape:groupmode="layer"
     id="layer1"
     transform="translate(0,-1036.3622)">
    <path
       style="color:#7b7c7e;opacity:0.72000001;fill:#ffffff;fill-opacity:1;stroke:none"
       d="M 6 1 L 6 2 L 3 2 L 3 15 L 13 15 L 13 2 L 10 2 L 10 1 L 6 1 z M 5 5 A 1 1 0 0 1 5.7070312 5.2929688 A 1 1 0 0 1 5.7167969 5.3027344 L 8 7.5859375 L 10.292969 5.2929688 A 1 1 0 0 1 11 5 A 1 1 0 0 1 12 6 A 1 1 0 0 1 11.697266 6.7167969 L 9.4140625 9 L 11.707031 11.292969 A 1 1 0 0 1 12 12 A 1 1 0 0 1 11 13 A 1 1 0 0 1 10.283203 12.697266 L 8 10.414062 L 5.7070312 12.707031 A 1 1 0 0 1 5 13 A 1 1 0 0 1 4 12 A 1 1 0 0 1 4.2929688 11.292969 L 6.5859375 9 L 4.2929688 6.7070312 A 1 1 0 0 1 4 6 A 1 1 0 0 1 5 5 z "
       transform="translate(0,1036.3622)"
       id="path3336" />
    <g
       style="enable-background:new"
       id="g3350"
       transform="translate(2e-4,1037.3588)">
      <g
         transform="translate(-265.0004,-120.99664)"
         style="display:inline"
         inkscape:label="actions"
         id="layer12" />
    </g>
  </g>
</svg>
