<?xml version="1.0" encoding="UTF-8" standalone="no"?>
<!-- Created with Inkscape (http://www.inkscape.org/) -->

<svg
   xmlns:dc="http://purl.org/dc/elements/1.1/"
   xmlns:cc="http://creativecommons.org/ns#"
   xmlns:rdf="http://www.w3.org/1999/02/22-rdf-syntax-ns#"
   xmlns:svg="http://www.w3.org/2000/svg"
   xmlns="http://www.w3.org/2000/svg"
   xmlns:sodipodi="http://sodipodi.sourceforge.net/DTD/sodipodi-0.dtd"
   xmlns:inkscape="http://www.inkscape.org/namespaces/inkscape"
   width="32"
   height="32"
   id="svg5048"
   version="1.1"
   inkscape:version="0.91 r"
   sodipodi:docname="kde.svg">
  <defs
     id="defs5050">
    <style
       id="current-color-scheme"
       type="text/css">      .ColorScheme-Text {
        color:#31363b;
      }
      .ColorScheme-Background{
        color:#eff0f1;
      }
      .ColorScheme-ViewText {
        color:#31363b;
      }
      .ColorScheme-ViewBackground{
        color:#fcfcfc;
      }
      .ColorScheme-ViewHover {
        color:#3daee9;
      }
      .ColorScheme-ViewFocus{
        color:#3daee9;
      }
      .ColorScheme-ButtonText {
        color:#31363b;
      }
      .ColorScheme-ButtonBackground{
        color:#eff0f1;
      }
      .ColorScheme-ButtonHover {
        color:#3daee9;
      }
      .ColorScheme-ButtonFocus{
        color:#3daee9;
      }</style>
  </defs>
  <sodipodi:namedview
     id="base"
     pagecolor="#ffffff"
     bordercolor="#666666"
     borderopacity="1.0"
     inkscape:pageopacity="0.0"
     inkscape:pageshadow="2"
     inkscape:zoom="1.88"
     inkscape:cx="6.1900311"
     inkscape:cy="-9.5029374"
     inkscape:document-units="px"
     inkscape:current-layer="layer1"
     showgrid="true"
     inkscape:window-width="1600"
     inkscape:window-height="842"
     inkscape:window-x="-4"
     inkscape:window-y="32"
     inkscape:window-maximized="1">
    <inkscape:grid
       type="xygrid"
       id="grid3011"
       empspacing="5"
       visible="true"
       enabled="true"
       snapvisiblegridlinesonly="true" />
  </sodipodi:namedview>
  <metadata
     id="metadata5053">
    <rdf:RDF>
      <cc:Work
         rdf:about="">
        <dc:format>image/svg+xml</dc:format>
        <dc:type
           rdf:resource="http://purl.org/dc/dcmitype/StillImage" />
        <dc:title></dc:title>
      </cc:Work>
    </rdf:RDF>
  </metadata>
  <g
     inkscape:label="Layer 1"
     inkscape:groupmode="layer"
     id="layer1"
     transform="translate(0,-1020.3622)">
    <rect
       style="fill:#8b9299;fill-opacity:0;stroke:none"
       id="rect3024"
       width="20"
       height="60"
       x="864"
       y="543"
       transform="translate(0,52.36218)"
       ry="10" />
    <rect
       style="opacity:0;fill:#ffffff;fill-opacity:1;stroke:none"
       id="rect3861"
       width="32"
       height="32"
       x="0"
       y="1020.3622" />
    <path
       inkscape:connector-curvature="0"
       id="path2876"
       style="color:#31363b;fill:#000000;fill-opacity:1;opacity:0.5"
       d="m 17.73986,1021.8622 -4.743246,0.4554 0,19.5128 4.692571,-0.7084 0,-8.3193 6.314194,9.2301 4.945945,-1.5687 -6.466219,-8.8759 6.516895,-8.3698 -5.047297,-1.1538 -6.263519,8.3699 0.05068,-8.5723 z m -10.753386,4.7568 c -0.053638,0.01 -0.111645,0.02 -0.1520245,0.061 l -1.8648685,1.8622 c -0.078321,0.079 -0.087889,0.1985 -0.030391,0.2935 l 2.179056,3.5929 c -0.3869195,0.6495 -0.7011125,1.3462 -0.922297,2.0848 l -4.0033821,0.8299 C 2.0811611,1035.366 2,1035.4719 2,1035.5859 l 0,2.6314 c 0,0.1113 0.08473,0.2066 0.1925669,0.2328 l 3.8817591,0.9412 c 0.207565,0.8552 0.528248,1.6735 0.9527045,2.4189 l -2.2500003,3.4208 c -0.062757,0.095 -0.050518,0.223 0.030391,0.3036 l 1.8648643,1.8622 c 0.078565,0.078 0.199057,0.088 0.293921,0.03 l 3.5270285,-2.1355 c 0.691782,0.3988 1.440733,0.7183 2.22973,0.9311 l 0.820946,3.9471 c 0.02303,0.1116 0.119028,0.1923 0.23311,0.1923 l 2.635136,0 c 0.110595,0 0.206837,-0.074 0.23311,-0.1822 l 0.972971,-3.9673 c 0.813726,-0.2191 1.580924,-0.5443 2.290544,-0.9615 l 3.47635,2.2772 c 0.09584,0.062 0.222812,0.05 0.304057,-0.03 l 1.85473,-1.8622 c 0.07881,-0.079 0.09827,-0.1987 0.04055,-0.2935 l -1.266894,-2.0848 -0.415541,0.1315 c -0.06,0.019 -0.126489,-0.01 -0.162162,-0.061 0,0 -0.800277,-1.1756 -1.844595,-2.7022 -1.248968,2.4404 -3.796076,4.109 -6.729734,4.109 -4.168682,0 -7.5506795,-3.3772 -7.5506795,-7.54 0,-3.062 1.833662,-5.692 4.4594615,-6.872 l 0,-1.9431 c -0.477888,0.167 -0.939571,0.3685 -1.378379,0.6072 -5.5e-4,-4e-4 9e-4,-0.01 0,-0.01 l -3.5574355,-2.3277 c -0.04784,-0.031 -0.098394,-0.036 -0.15203,-0.03 z"
       class="ColorScheme-Text" />
  </g>
</svg>
