<?xml version="1.0" encoding="UTF-8" standalone="no"?>
<!-- Created with Inkscape (http://www.inkscape.org/) -->

<svg
   xmlns:dc="http://purl.org/dc/elements/1.1/"
   xmlns:cc="http://creativecommons.org/ns#"
   xmlns:rdf="http://www.w3.org/1999/02/22-rdf-syntax-ns#"
   xmlns:svg="http://www.w3.org/2000/svg"
   xmlns="http://www.w3.org/2000/svg"
   xmlns:sodipodi="http://sodipodi.sourceforge.net/DTD/sodipodi-0.dtd"
   xmlns:inkscape="http://www.inkscape.org/namespaces/inkscape"
   width="16"
   height="16"
   id="svg5048"
   version="1.1"
   inkscape:version="0.91 r13725"
   sodipodi:docname="kde.svg">
  <defs
     id="defs5050">
    <style
       id="current-color-scheme"
       type="text/css">      .ColorScheme-Text {
        color:#31363b;
      }
      .ColorScheme-Background{
        color:#eff0f1;
      }
      .ColorScheme-ViewText {
        color:#31363b;
      }
      .ColorScheme-ViewBackground{
        color:#fcfcfc;
      }
      .ColorScheme-ViewHover {
        color:#3daee9;
      }
      .ColorScheme-ViewFocus{
        color:#3daee9;
      }
      .ColorScheme-ButtonText {
        color:#31363b;
      }
      .ColorScheme-ButtonBackground{
        color:#eff0f1;
      }
      .ColorScheme-ButtonHover {
        color:#3daee9;
      }
      .ColorScheme-ButtonFocus{
        color:#3daee9;
      }</style>
  </defs>
  <sodipodi:namedview
     id="base"
     pagecolor="#ffffff"
     bordercolor="#666666"
     borderopacity="1.0"
     inkscape:pageopacity="0.0"
     inkscape:pageshadow="2"
     inkscape:zoom="1"
     inkscape:cx="14.607973"
     inkscape:cy="87.117287"
     inkscape:document-units="px"
     inkscape:current-layer="layer1"
     showgrid="false"
     inkscape:window-width="1600"
     inkscape:window-height="845"
     inkscape:window-x="0"
     inkscape:window-y="31"
     inkscape:window-maximized="1">
    <inkscape:grid
       type="xygrid"
       id="grid3011"
       empspacing="5"
       visible="true"
       enabled="true"
       snapvisiblegridlinesonly="true" />
  </sodipodi:namedview>
  <metadata
     id="metadata5053">
    <rdf:RDF>
      <cc:Work
         rdf:about="">
        <dc:format>image/svg+xml</dc:format>
        <dc:type
           rdf:resource="http://purl.org/dc/dcmitype/StillImage" />
        <dc:title></dc:title>
      </cc:Work>
    </rdf:RDF>
  </metadata>
  <g
     inkscape:label="Layer 1"
     inkscape:groupmode="layer"
     id="layer1"
     transform="translate(0,-1036.3622)">
    <rect
       style="fill:#8b9299;fill-opacity:0;stroke:none"
       id="rect3024"
       width="20"
       height="60"
       x="864"
       y="543"
       transform="translate(0,52.36218)"
       ry="10" />
    <rect
       style="opacity:0;fill:#ffffff;fill-opacity:1;stroke:none"
       id="rect3861"
       width="32"
       height="32"
       x="0"
       y="1020.3622" />
    <path
       style="color:#31363b;opacity:0.5;fill:#000000;fill-opacity:1"
       d="m 9,1037.3622 -2,0.5 0,9.3997 1.9873341,-0.3997 0,-4.076 3.5126659,4.576 2.2,-0.5 -3.7,-4.6781 3,-4.3219 -2,-0.5 -3.0126664,4.2499 z"
       id="path4140"
       inkscape:connector-curvature="0"
       sodipodi:nodetypes="cccccccccccc" />
    <path
       style="color:#31363b;opacity:0.5;fill:#000000;fill-opacity:1"
       d="m 3.5335807,1039.3614 c -0.027253,0 -0.056726,0.01 -0.077242,0.031 l -0.947522,0.9412 c -0.039794,0.04 -0.044655,0.1009 -0.015441,0.1485 l 1.1071577,1.816 c -0.1965901,0.3283 -0.3562286,0.6804 -0.4686103,1.0538 l -2.0340806,0.4195 C 1.041238,1043.7824 1,1043.836 1,1043.8939 l 0,1.3299 c 0,0.057 0.04305,0.1045 0.097842,0.1177 l 1.9722851,0.4757 c 0.1054618,0.4323 0.2683978,0.8459 0.4840601,1.2227 l -1.1432039,1.729 c -0.031886,0.049 -0.025667,0.1127 0.015441,0.1534 l 0.9475198,0.9413 c 0.039918,0.039 0.1011392,0.044 0.1493385,0.015 l 1.7920497,-1.0792 c 0.3514879,0.2015 0.7320228,0.363 1.1329047,0.4705 l 0.4171149,1.9951 c 0.011701,0.057 0.060477,0.097 0.118441,0.097 l 1.3388876,0 c 0.056192,0 0.105092,-0.037 0.118441,-0.091 l 0.4943574,-2.0053 c 0.413446,-0.1107 0.8032525,-0.2751 1.1638041,-0.4859 l 1.766301,1.151 c 0.0487,0.031 0.113209,0.026 0.154488,-0.016 l 0.942371,-0.9413 c 0.04004,-0.04 0.04993,-0.1008 0.0206,-0.1484 l -0.643698,-1.0537 -0.211132,0.067 c -0.03048,0.01 -0.06427,0 -0.08239,-0.031 0,0 -0.406613,-0.5943 -0.937221,-1.3659 -0.634589,1.2334 -1.9287504,2.0769 -3.4193141,2.0769 -2.1180679,0 -3.8364288,-1.7071 -3.8364288,-3.8111 0,-1.5477 0.9316663,-2.8771 2.2658101,-3.4736 l 0,-0.982 c -0.2428103,0.084 -0.4773871,0.1862 -0.7003413,0.3069 -2.795e-4,-2e-4 4.573e-4,0 0,0 l -1.8074993,-1.1766 c -0.024307,-0.015 -0.049994,-0.019 -0.077244,-0.015 z"
       id="path2876"
       inkscape:connector-curvature="0" />
  </g>
</svg>
