<?xml version="1.0" encoding="UTF-8" standalone="no"?>
<svg id="svg2" xmlns:rdf="http://www.w3.org/1999/02/22-rdf-syntax-ns#" xmlns="http://www.w3.org/2000/svg" height="16px" width="16px" version="1.1" xmlns:cc="http://creativecommons.org/ns#" xmlns:dc="http://purl.org/dc/elements/1.1/" viewBox="0 0 16 16">
 <metadata id="metadata17">
  <rdf:RDF>
   <cc:Work rdf:about="">
    <dc:format>image/svg+xml</dc:format>
    <dc:type rdf:resource="http://purl.org/dc/dcmitype/StillImage"/>
   </cc:Work>
  </rdf:RDF>
 </metadata>
 <g id="surface1" transform="matrix(1.2,0,0,1.2,-1.6,-1.1)">
  <path id="path5" d="m3.625 1.75c-0.3477 0-0.625 0.2773-0.625 0.625v11.25c0 0.34766 0.27734 0.625 0.625 0.625h8.75c0.348 0 0.625-0.277 0.625-0.625v-8.125l-3.4375-0.3125-0.3125-3.4375z" fill="#977dbf"/>
  <path id="path7" d="m9.25 1.75v3.125c0 0.3438 0.2812 0.625 0.625 0.625h3.125z" fill="#b88ff5"/>
  <path id="path9" d="m8.832 7.75c-0.1836 0-0.332 0.2383-0.332 0.4219v0.66797c-0.00781 0.44922 0.75781 0.44922 0.75 0v-0.3399h0.5v1.1602l-0.82422 0.56641c-0.0899 0.062-0.1719 0.16-0.1758 0.269v0.66406c-0.00781 0.45312 0.75781 0.45312 0.75 0v-0.48828l0.85156-0.56641c0.089-0.058 0.144-0.1597 0.148-0.2652v-1.668c0-0.1835-0.148-0.4218-0.332-0.4218zm-1.332 0.25-2.5 2.25 2.5 2.25v-1l-1.25-1.25 1.25-1.25zm1.625 3.75c-0.20703 0-0.375 0.16797-0.375 0.375s0.16797 0.375 0.375 0.375c0.207 0 0.375-0.168 0.375-0.375s-0.168-0.375-0.375-0.375z" fill-rule="evenodd" fill="#fff"/>
  <path id="path11" d="m3.625 1.75c-0.3477 0-0.625 0.2773-0.625 0.625v0.5c0-0.3477 0.2773-0.625 0.625-0.625h5.625v-0.5z" fill-opacity=".2" fill="#fff"/>
 </g>
</svg>
