<?xml version="1.0" encoding="UTF-8" standalone="no"?>
<svg id="svg2" xmlns:rdf="http://www.w3.org/1999/02/22-rdf-syntax-ns#" xmlns="http://www.w3.org/2000/svg" height="16px" width="16px" version="1.1" xmlns:cc="http://creativecommons.org/ns#" xmlns:dc="http://purl.org/dc/elements/1.1/" viewBox="0 0 16 16">
 <metadata id="metadata17">
  <rdf:RDF>
   <cc:Work rdf:about="">
    <dc:format>image/svg+xml</dc:format>
    <dc:type rdf:resource="http://purl.org/dc/dcmitype/StillImage"/>
   </cc:Work>
  </rdf:RDF>
 </metadata>
 <g id="surface1" transform="matrix(1.2,0,0,1.2,-1.6,-1.1)">
  <path id="path5" d="m3.625 1.75c-0.3477 0-0.625 0.2773-0.625 0.625v11.25c0 0.34766 0.27734 0.625 0.625 0.625h8.75c0.348 0 0.625-0.277 0.625-0.625v-8.125l-3.4375-0.3125-0.3125-3.4375z" fill="#deab47"/>
  <path id="path7" d="m9.25 1.75v3.125c0 0.3438 0.2812 0.625 0.625 0.625h3.125z" fill="#f5cc7a"/>
  <path id="path9" d="m7.3516 6.5c-0.1328 0-0.2657 0.0156-0.3789 0.043-0.8711 0.2109-1.7579 0.6132-2.2032 1.5312-0.6875 1.4922-0.011719 3.2617 1.5 3.9375 0.83984 0.36719 1.6328 0.33203 2.2891-0.25 0.19531-0.17188 0.35156-0.37109 0.41406-0.65625 0.125-0.57031-0.17578-1.375-1.4023-1.9219-1.1563-0.5155-1.3712-1.2773-1.2071-1.7773 0.164-0.5 0.7734-0.9531 1.7187-0.7617 0.1016 0.0196 0.1992 0.0469 0.3008 0.0821-0.1914-0.1289-0.6289-0.2305-1.0312-0.2266zm1.7734 0c-0.3438 0-0.625 0.2812-0.625 0.625s0.2812 0.625 0.625 0.625 0.625-0.2812 0.625-0.625-0.2812-0.625-0.625-0.625zm1.25 0.75c-0.344 0-0.625 0.2812-0.625 0.625s0.281 0.625 0.625 0.625 0.625-0.2812 0.625-0.625-0.281-0.625-0.625-0.625zm0.5 1.5c-0.344 0-0.625 0.2812-0.625 0.625s0.281 0.625 0.625 0.625 0.625-0.2812 0.625-0.625-0.281-0.625-0.625-0.625z" fill="#fff"/>
  <path id="path11" d="m3.625 1.75c-0.3477 0-0.625 0.2773-0.625 0.625v0.5c0-0.3477 0.2773-0.625 0.625-0.625h5.625v-0.5z" fill-opacity=".2" fill="#fff"/>
 </g>
</svg>
