<?xml version="1.0" encoding="UTF-8" standalone="no"?>
<svg xmlns="http://www.w3.org/2000/svg" height="16px" width="16px" version="1.1" xmlns:xlink="http://www.w3.org/1999/xlink" viewBox="0 0 16 16">
 <g id="surface1">
  <path fill="#313f8f" d="m13 9.5v-3c0-3.0391-2.238-5.5-5-5.5-2.7617 0-5 2.4609-5 5.5v3c0 3.039 2.2383 5.5 5 5.5 2.762 0 5-2.461 5-5.5z"/>
  <path fill="#fff" d="m8 1c-2.7695 0-5 2.4531-5 5.5v0.5c0-3.0469 2.2305-5.5 5-5.5 2.77 0 5 2.4531 5 5.5v-0.5c0-3.0469-2.23-5.5-5-5.5z" fill-opacity=".10196"/>
  <path d="m22 23l18 18-9 8.5v-35l9 8.5-18 16" transform="scale(.25)" stroke="#fff" stroke-linecap="square" stroke-width="2" fill="none"/>
  <path d="m3 9v0.5c0 3.047 2.2305 5.5 5 5.5 2.77 0 5-2.453 5-5.5v-0.5c0 3.047-2.23 5.5-5 5.5-2.7695 0-5-2.453-5-5.5z" fill-opacity=".30196"/>
 </g>
</svg>
