<?xml version="1.0" encoding="UTF-8" standalone="no"?>
<svg id="svg2" xmlns:rdf="http://www.w3.org/1999/02/22-rdf-syntax-ns#" xmlns="http://www.w3.org/2000/svg" height="16px" width="16px" version="1.1" xmlns:cc="http://creativecommons.org/ns#" xmlns:dc="http://purl.org/dc/elements/1.1/" viewBox="0 0 16 16">
 <metadata id="metadata17">
  <rdf:RDF>
   <cc:Work rdf:about="">
    <dc:format>image/svg+xml</dc:format>
    <dc:type rdf:resource="http://purl.org/dc/dcmitype/StillImage"/>
   </cc:Work>
  </rdf:RDF>
 </metadata>
 <g id="surface1" transform="matrix(1.2,0,0,1.2,-1.6,-1.1)">
  <path id="path5" d="m3.625 1.75c-0.3477 0-0.625 0.2773-0.625 0.625v11.25c0 0.34766 0.27734 0.625 0.625 0.625h8.75c0.348 0 0.625-0.277 0.625-0.625v-8.125l-3.4375-0.3125-0.3125-3.4375z" fill="#ebe8d7"/>
  <path id="path7" d="m9.25 1.75v3.125c0 0.3438 0.2812 0.625 0.625 0.625h3.125z" fill="#f8f8f0"/>
  <path id="path9" d="m8 7.25c-0.8398 0-1.5547 0.293-1.8516 0.7031-0.0273 0.0352-0.0468 0.0703-0.0664 0.1055-0.0195 0.0352-0.0351 0.0703-0.0468 0.1055-0.004 0.0117-0.004 0.0234-0.0079 0.0312-0.0078 0.0274-0.0156 0.0508-0.0195 0.0742-0.0039 0.0352-0.0078 0.0703-0.0078 0.1055s0.0039 0.0742 0.0117 0.1094c0.0039 0.0351 0.0156 0.0703 0.0274 0.1054 0.0117 0.0352 0.0273 0.0704 0.0429 0.1055 0.0196 0.0352 0.043 0.0664 0.0664 0.1016 0.3047 0.4258 1.0391 0.7031 1.8516 0.7031s1.5469-0.2773 1.8516-0.7031c0.0234-0.0313 0.039-0.0586 0.0546-0.086 0.004-0.0078 0.0079-0.0117 0.0118-0.0195 0.0117-0.0234 0.0234-0.0508 0.0312-0.0742 0.0039-0.0117 0.0117-0.0234 0.0156-0.0352 0.0079-0.0195 0.0118-0.0429 0.0157-0.0625 0.0039-0.0156 0.0078-0.0312 0.0117-0.0507 0.0039-0.0313 0.0078-0.0626 0.0078-0.0938 0-0.0391-0.0039-0.0742-0.0117-0.1133-0.0195-0.1094-0.0664-0.2109-0.1367-0.3086-0.2969-0.4101-1.0118-0.7031-1.8516-0.7031zm-1.8516 2.25c-0.0976 0.1289-0.1484 0.2695-0.1484 0.4102 0 0.6018 0.8945 1.0898 2 1.0898s2-0.488 2-1.0898c0-0.1407-0.0508-0.2813-0.1484-0.4102-0.3047 0.4102-1.0352 0.75-1.8516 0.75s-1.5469-0.3398-1.8516-0.75zm0 1.5c-0.0976 0.129-0.1484 0.27-0.1484 0.41 0 0.602 0.8945 1.09 2 1.09s2-0.48828 2-1.0898c0-0.14-0.0508-0.281-0.1484-0.41-0.3047 0.41-1.0352 0.75-1.8516 0.75s-1.5469-0.34-1.8516-0.75z" fill-opacity=".50196"/>
  <path id="path11" d="m3.625 1.75c-0.3477 0-0.625 0.2773-0.625 0.625v0.5c0-0.3477 0.2773-0.625 0.625-0.625h5.625v-0.5z" fill-opacity=".2" fill="#fff"/>
 </g>
</svg>
