<?xml version="1.0" encoding="UTF-8" standalone="no"?>
<svg id="svg2" xmlns:rdf="http://www.w3.org/1999/02/22-rdf-syntax-ns#" xmlns="http://www.w3.org/2000/svg" height="16px" width="16px" version="1.1" xmlns:cc="http://creativecommons.org/ns#" xmlns:dc="http://purl.org/dc/elements/1.1/" viewBox="0 0 16 16">
 <metadata id="metadata13">
  <rdf:RDF>
   <cc:Work rdf:about="">
    <dc:format>image/svg+xml</dc:format>
    <dc:type rdf:resource="http://purl.org/dc/dcmitype/StillImage"/>
   </cc:Work>
  </rdf:RDF>
 </metadata>
 <g id="surface1" transform="matrix(1.12 0 0 1.12 -.96 -.96)">
  <path id="path5" d="m6.875 1.75c-0.7148 0-1.375 0.5781-1.375 1.293v1.207h-2.8867c-0.4805 0-0.8633 0.4688-0.8633 0.9492v2.5508h1.293c0.7148 0 1.207 0.5352 1.207 1.25 0 0.71484-0.49219 1.25-1.207 1.25h-1.293v3.1367c0 0.48 0.3828 0.863 0.8633 0.863h2.8867v-0.86328c0-0.715 0.6602-1.387 1.375-1.387 0.71484 0 1.4023 0.67188 1.375 1.3867v0.86328h2.5508c0.48047 0 0.96094-0.38281 0.94922-0.86328v-2.8867h1.207c0.715 0 1.293-0.6602 1.293-1.375s-0.578-1.375-1.293-1.375h-1.207v-2.5508c0-0.4804-0.473-0.9648-0.949-0.9492h-2.551v-1.207c0-0.7149-0.6602-1.293-1.375-1.293z" fill="#2178bd"/>
  <path id="path7" d="m6.875 1.75c-0.7148 0-1.375 0.5781-1.375 1.293v0.5c0-0.7149 0.6602-1.293 1.375-1.293s1.375 0.5781 1.375 1.293v-0.5c0-0.7149-0.6602-1.293-1.375-1.293zm-4.2617 2.5c-0.4805 0-0.8633 0.4688-0.8633 0.9492v0.5c0-0.4804 0.3828-0.9492 0.8633-0.9492h2.8867v-0.5zm5.6367 0v0.5h2.5508c0.476-0.0156 0.949 0.4688 0.949 0.9492v-0.5c0-0.4804-0.473-0.9648-0.949-0.9492zm3.5 3.5v0.5h1.207c0.63281 0 1.1523 0.51172 1.2695 1.125 0.016-0.082 0.024-0.1641 0.024-0.25 0-0.7148-0.578-1.375-1.293-1.375zm-7.5234 1.5c-0.097656 0.58594-0.55469 1-1.1836 1h-1.293v0.5h1.293c0.7148 0 1.207-0.535 1.207-1.25 0-0.0859-0.0078-0.168-0.0234-0.25z" fill-opacity=".10196" fill="#fff"/>
 </g>
</svg>
