<?xml version="1.0" encoding="UTF-8" standalone="no"?>
<svg
   xmlns:dc="http://purl.org/dc/elements/1.1/"
   xmlns:cc="http://creativecommons.org/ns#"
   xmlns:rdf="http://www.w3.org/1999/02/22-rdf-syntax-ns#"
   xmlns:svg="http://www.w3.org/2000/svg"
   xmlns="http://www.w3.org/2000/svg"
   xmlns:xlink="http://www.w3.org/1999/xlink"
   xmlns:sodipodi="http://sodipodi.sourceforge.net/DTD/sodipodi-0.dtd"
   xmlns:inkscape="http://www.inkscape.org/namespaces/inkscape"
   width="16px"
   height="16px"
   viewBox="0 0 16 16"
   version="1.1"
   id="svg2"
   inkscape:version="0.91 r"
   sodipodi:docname="applications-java.svg">
  <metadata
     id="metadata37">
    <rdf:RDF>
      <cc:Work
         rdf:about="">
        <dc:format>image/svg+xml</dc:format>
        <dc:type
           rdf:resource="http://purl.org/dc/dcmitype/StillImage" />
      </cc:Work>
    </rdf:RDF>
  </metadata>
  <sodipodi:namedview
     pagecolor="#ffffff"
     bordercolor="#666666"
     borderopacity="1"
     objecttolerance="10"
     gridtolerance="10"
     guidetolerance="10"
     inkscape:pageopacity="0"
     inkscape:pageshadow="2"
     inkscape:window-width="1535"
     inkscape:window-height="876"
     id="namedview35"
     showgrid="false"
     inkscape:zoom="14.75"
     inkscape:cx="-4.0338983"
     inkscape:cy="8"
     inkscape:window-x="65"
     inkscape:window-y="24"
     inkscape:window-maximized="1"
     inkscape:current-layer="svg2" />
  <defs
     id="defs4">
    <clipPath
       id="clip1">
      <rect
         width="16"
         height="16"
         id="rect7" />
    </clipPath>
    <g
       id="surface210"
       clip-path="url(#clip1)">
      <path
         style=" stroke:none;fill-rule:evenodd;fill:rgb(100%,100%,100%);fill-opacity:1;"
         d="M 7.039062 10.945312 C 7.039062 10.945312 6.832031 11.074219 7.1875 11.117188 C 7.617188 11.167969 7.835938 11.164062 8.308594 11.066406 C 8.308594 11.066406 8.433594 11.148438 8.605469 11.222656 C 7.546875 11.703125 6.203125 11.195312 7.039062 10.945312 Z M 7.039062 10.945312 "
         id="path10" />
      <path
         style=" stroke:none;fill-rule:evenodd;fill:rgb(100%,100%,100%);fill-opacity:1;"
         d="M 6.910156 10.316406 C 6.910156 10.316406 6.675781 10.5 7.03125 10.539062 C 7.488281 10.589844 7.851562 10.59375 8.480469 10.464844 C 8.480469 10.464844 8.566406 10.558594 8.703125 10.609375 C 7.417969 11.007812 5.988281 10.640625 6.910156 10.316406 Z M 6.910156 10.316406 "
         id="path12" />
      <path
         style=" stroke:none;fill-rule:evenodd;fill:rgb(100%,100%,100%);fill-opacity:1;"
         d="M 8.003906 9.25 C 8.265625 9.570312 7.933594 9.855469 7.933594 9.855469 C 7.933594 9.855469 8.597656 9.492188 8.292969 9.035156 C 8.007812 8.613281 7.789062 8.402344 8.972656 7.675781 C 8.972656 7.675781 7.117188 8.164062 8.003906 9.25 Z M 8.003906 9.25 "
         id="path14" />
      <path
         style=" stroke:none;fill-rule:evenodd;fill:rgb(100%,100%,100%);fill-opacity:1;"
         d="M 9.40625 11.414062 C 9.40625 11.414062 9.558594 11.546875 9.238281 11.648438 C 8.625 11.847656 6.6875 11.90625 6.148438 11.65625 C 5.957031 11.570312 6.316406 11.445312 6.433594 11.417969 C 6.550781 11.390625 6.617188 11.394531 6.617188 11.394531 C 6.402344 11.234375 5.226562 11.710938 6.023438 11.847656 C 8.1875 12.21875 9.96875 11.679688 9.40625 11.414062 Z M 9.40625 11.414062 "
         id="path16" />
      <path
         style=" stroke:none;fill-rule:evenodd;fill:rgb(100%,100%,100%);fill-opacity:1;"
         d="M 7.136719 9.664062 C 7.136719 9.664062 6.152344 9.914062 6.789062 10.003906 C 7.058594 10.042969 7.59375 10.03125 8.09375 9.988281 C 8.5 9.953125 8.910156 9.875 8.910156 9.875 C 8.910156 9.875 8.765625 9.941406 8.664062 10.015625 C 7.660156 10.292969 5.726562 10.164062 6.285156 9.878906 C 6.753906 9.636719 7.136719 9.664062 7.136719 9.664062 Z M 7.136719 9.664062 "
         id="path18" />
      <path
         style=" stroke:none;fill-rule:evenodd;fill:rgb(100%,100%,100%);fill-opacity:1;"
         d="M 8.90625 10.710938 C 9.921875 10.152344 9.453125 9.613281 9.125 9.6875 C 9.042969 9.703125 9.007812 9.71875 9.007812 9.71875 C 9.007812 9.71875 9.039062 9.667969 9.09375 9.648438 C 9.746094 9.40625 10.246094 10.363281 8.886719 10.742188 C 8.886719 10.742188 8.902344 10.726562 8.90625 10.710938 Z M 8.90625 10.710938 "
         id="path20" />
      <path
         style=" stroke:none;fill-rule:evenodd;fill:rgb(100%,100%,100%);fill-opacity:1;"
         d="M 8.292969 6.5 C 8.292969 6.5 8.855469 7.097656 7.757812 8.015625 C 6.878906 8.753906 7.558594 9.175781 7.757812 9.65625 C 7.242188 9.164062 6.867188 8.730469 7.121094 8.328125 C 7.492188 7.734375 8.519531 7.449219 8.292969 6.5 Z M 8.292969 6.5 "
         id="path22" />
      <path
         style=" stroke:none;fill-rule:evenodd;fill:rgb(100%,100%,100%);fill-opacity:1;"
         d="M 7.238281 12.230469 C 8.214844 12.296875 9.714844 12.195312 9.75 11.707031 C 9.75 11.707031 9.683594 11.890625 8.941406 12.039062 C 8.109375 12.203125 7.082031 12.183594 6.472656 12.078125 C 6.472656 12.078125 6.597656 12.1875 7.238281 12.230469 Z M 7.238281 12.230469 "
         id="path24" />
    </g>
  </defs>
  <g
     id="surface1"
     transform="matrix(1.2,0,0,1.2,-1.6,-1.1)">
    <path
       style="fill:#e64a3a;fill-opacity:1;fill-rule:nonzero;stroke:none"
       d="M 3.625,1.75 C 3.277344,1.75 3,2.027344 3,2.375 l 0,11.25 c 0,0.347656 0.277344,0.625 0.625,0.625 l 8.75,0 C 12.722656,14.25 13,13.972656 13,13.625 L 13,5.5 9.5625,5.1875 9.25,1.75 Z m 0,0"
       id="path27"
       inkscape:connector-curvature="0" />
    <path
       style="fill:#f5857a;fill-opacity:1;fill-rule:nonzero;stroke:none"
       d="m 9.25,1.75 0,3.125 C 9.25,5.21875 9.53125,5.5 9.875,5.5 L 13,5.5 Z m 0,0"
       id="path29"
       inkscape:connector-curvature="0" />
    <use
       xlink:href="#surface210"
       id="use31"
       x="0"
       y="0"
       width="100%"
       height="100%" />
    <path
       style="fill:#ffffff;fill-opacity:0.2;fill-rule:nonzero;stroke:none"
       d="M 3.625,1.75 C 3.277344,1.75 3,2.027344 3,2.375 l 0,0.5 C 3,2.527344 3.277344,2.25 3.625,2.25 l 5.625,0 0,-0.5 z m 0,0"
       id="path33"
       inkscape:connector-curvature="0" />
  </g>
</svg>
