<?xml version="1.0" encoding="UTF-8" standalone="no"?>
<svg
   xmlns:dc="http://purl.org/dc/elements/1.1/"
   xmlns:cc="http://creativecommons.org/ns#"
   xmlns:rdf="http://www.w3.org/1999/02/22-rdf-syntax-ns#"
   xmlns:svg="http://www.w3.org/2000/svg"
   xmlns="http://www.w3.org/2000/svg"
   xmlns:sodipodi="http://sodipodi.sourceforge.net/DTD/sodipodi-0.dtd"
   xmlns:inkscape="http://www.inkscape.org/namespaces/inkscape"
   width="16px"
   height="16px"
   viewBox="0 0 16 16"
   version="1.1"
   id="svg2"
   inkscape:version="0.91 r"
   sodipodi:docname="application-x-mswinurl.svg">
  <metadata
     id="metadata17">
    <rdf:RDF>
      <cc:Work
         rdf:about="">
        <dc:format>image/svg+xml</dc:format>
        <dc:type
           rdf:resource="http://purl.org/dc/dcmitype/StillImage" />
      </cc:Work>
    </rdf:RDF>
  </metadata>
  <defs
     id="defs15" />
  <sodipodi:namedview
     pagecolor="#ffffff"
     bordercolor="#666666"
     borderopacity="1"
     objecttolerance="10"
     gridtolerance="10"
     guidetolerance="10"
     inkscape:pageopacity="0"
     inkscape:pageshadow="2"
     inkscape:window-width="1535"
     inkscape:window-height="876"
     id="namedview13"
     showgrid="false"
     inkscape:zoom="14.75"
     inkscape:cx="-4.0338983"
     inkscape:cy="8"
     inkscape:window-x="65"
     inkscape:window-y="24"
     inkscape:window-maximized="1"
     inkscape:current-layer="svg2" />
  <g
     id="surface1"
     transform="matrix(1.2,0,0,1.2,-0.6,-1.1)">
    <path
       style="fill:#1e94f0;fill-opacity:1;fill-rule:nonzero;stroke:none"
       d="M 3.625,1.75 C 3.277344,1.75 3,2.027344 3,2.375 l 0,11.25 c 0,0.347656 0.277344,0.625 0.625,0.625 l 8.75,0 C 12.722656,14.25 13,13.972656 13,13.625 L 13,5.5 9.5625,5.1875 9.25,1.75 Z m 0,0"
       id="path5"
       inkscape:connector-curvature="0" />
    <path
       style="fill:#ffffff;fill-opacity:1;fill-rule:evenodd;stroke:none"
       d="M 7.636719,6.269531 C 6.015625,6.449219 4.75,7.828125 4.75,9.5 c 0,1.792969 1.457031,3.25 3.25,3.25 1.792969,0 3.25,-1.457031 3.25,-3.25 0,-1.648438 -1.230469,-3.007812 -2.816406,-3.21875 0,0 -0.445313,-0.058594 -0.796875,-0.011719 z m 0.148437,0.4375 0,1.097657 C 7.472656,7.792969 7.175781,7.757812 6.902344,7.707031 6.945312,7.609375 6.988281,7.519531 7.035156,7.433594 7.25,7.042969 7.511719,6.796875 7.785156,6.707031 Z M 8.246094,6.726562 C 8.273438,6.730469 8.296875,6.734375 8.320312,6.738281 8.566406,6.84375 8.800781,7.078125 8.996094,7.433594 9.042969,7.515625 9.085938,7.605469 9.128906,7.703125 8.855469,7.753906 8.558594,7.789062 8.246094,7.800781 Z M 6.820312,6.910156 C 6.753906,7.003906 6.6875,7.101562 6.628906,7.207031 6.5625,7.328125 6.5,7.460938 6.445312,7.597656 6.296875,7.554688 6.15625,7.503906 6.027344,7.449219 c 0.230468,-0.222657 0.5,-0.402344 0.792968,-0.539063 z m 2.46875,0.109375 C 9.5625,7.105469 9.773438,7.28125 9.96875,7.449219 9.851562,7.5 9.722656,7.546875 9.582031,7.589844 9.527344,7.457031 9.46875,7.328125 9.402344,7.207031 9.367188,7.140625 9.328125,7.082031 9.289062,7.019531 Z M 5.734375,7.78125 c 0.00391,0.019531 -0.00781,-0.023438 0,-0.00391 0.167969,0.078125 0.363281,0.203125 0.5625,0.261718 C 6.195312,8.402344 6.132812,8.800781 6.113281,9.222656 l -0.941406,0 C 5.222656,8.683594 5.425781,8.191406 5.734375,7.78125 Z m 4.53125,0.00391 c 0.308594,0.40625 0.511719,0.898438 0.5625,1.4375 l -0.910156,0 C 9.898438,8.796875 9.835938,8.394531 9.734375,8.03125 9.917969,7.972656 10.105469,7.863281 10.261719,7.789062 c 0.0078,-0.015624 0,0.011719 0.0078,-0.00391 z M 9.28125,8.144531 C 9.375,8.46875 9.433594,8.835938 9.453125,9.222656 l -1.207031,0 0,-0.957031 C 8.613281,8.253906 8.960938,8.210938 9.28125,8.144531 Z m -2.535156,0.00781 c 0.324218,0.0625 0.671875,0.101562 1.039062,0.113281 l 0,0.957031 -1.207031,0 C 6.597656,8.835938 6.65625,8.476562 6.746094,8.152344 Z M 5.164062,9.6875 l 0.949219,0 c 0.019531,0.429688 0.085938,0.839844 0.191407,1.210938 -0.210938,0.02734 -0.570313,0.238281 -0.585938,0.25 C 5.351562,10.703125 5.207031,10.296875 5.164062,9.683594 Z m 1.414063,0 1.207031,0 0,0.984375 c -0.363281,0.01172 -0.710937,0.05078 -1.03125,0.113281 C 6.660156,10.457031 6.597656,10.082031 6.578125,9.6875 Z m 1.667969,0 1.207031,0 C 9.433594,10.085938 9.371094,10.460938 9.273438,10.792969 8.953125,10.726562 8.609375,10.6875 8.246094,10.671875 Z m 1.671875,0 0.914062,0 c -0.03516,0.558594 -0.199219,1.042969 -0.515625,1.46875 -0.148437,-0.08984 -0.417968,-0.1875 -0.589844,-0.25 0.105469,-0.371094 0.171876,-0.785156 0.191407,-1.21875 z m -2.132813,1.449219 0,1.0625 C 7.511719,12.109375 7.25,11.867188 7.035156,11.476562 6.992188,11.398438 6.953125,11.316406 6.914062,11.230469 c 0.273438,-0.05078 0.5625,-0.08203 0.871094,-0.09375 z m 0.460938,0 c 0.308594,0.01172 0.597656,0.04687 0.867187,0.09766 -0.035156,0.08594 -0.074219,0.164063 -0.117187,0.242187 -0.214844,0.390626 -0.476563,0.632813 -0.75,0.722657 z m -1.789063,0.203125 c 0.050781,0.125 0.109375,0.246094 0.171875,0.359375 0.085938,0.160156 0.1875,0.304687 0.300782,0.433593 -0.355469,-0.144531 -0.675782,-0.355468 -0.945313,-0.625 0.144531,-0.0625 0.300781,-0.121093 0.472656,-0.167968 z m 3.113281,0.0078 c 0.160157,0.04687 0.308594,0.101563 0.445313,0.160156 -0.253906,0.257813 -0.558594,0.460938 -0.894531,0.605469 0.105468,-0.125 0.199218,-0.261719 0.28125,-0.414062 0.0625,-0.109375 0.117187,-0.230469 0.167968,-0.351563 z m 0,0"
       id="path7"
       inkscape:connector-curvature="0" />
    <path
       style="fill:#7abff5;fill-opacity:1;fill-rule:nonzero;stroke:none"
       d="m 9.25,1.75 0,3.125 C 9.25,5.21875 9.53125,5.5 9.875,5.5 L 13,5.5 Z m 0,0"
       id="path9"
       inkscape:connector-curvature="0" />
    <path
       style="fill:#ffffff;fill-opacity:0.10196102;fill-rule:nonzero;stroke:none"
       d="M 3.625,1.75 C 3.277344,1.75 3,2.027344 3,2.375 l 0,0.5 C 3,2.527344 3.277344,2.25 3.625,2.25 l 5.625,0 c 0,-0.5 0,0 0,-0.5 z m 0,0"
       id="path11"
       inkscape:connector-curvature="0" />
  </g>
</svg>
