<?xml version="1.0" encoding="UTF-8" standalone="no"?>
<svg id="svg2" xmlns:rdf="http://www.w3.org/1999/02/22-rdf-syntax-ns#" xmlns="http://www.w3.org/2000/svg" height="16px" width="16px" version="1.1" xmlns:cc="http://creativecommons.org/ns#" xmlns:dc="http://purl.org/dc/elements/1.1/" viewBox="0 0 16 16">
 <metadata id="metadata25">
  <rdf:RDF>
   <cc:Work rdf:about="">
    <dc:format>image/svg+xml</dc:format>
    <dc:type rdf:resource="http://purl.org/dc/dcmitype/StillImage"/>
   </cc:Work>
  </rdf:RDF>
 </metadata>
 <g id="surface1" transform="matrix(1.2,0,0,1.2,-1.6,-1.1)">
  <path id="path5" d="m3.625 1.75c-0.3477 0-0.625 0.2773-0.625 0.625v11.25c0 0.34766 0.27734 0.625 0.625 0.625h8.75c0.348 0 0.625-0.277 0.625-0.625v-8.125l-3.4375-0.3125-0.3125-3.4375z" fill="#ebe8d7"/>
  <path id="path7" d="m3.625 1.75c-0.3477 0-0.625 0.2773-0.625 0.625v0.5c0-0.3477 0.2773-0.625 0.625-0.625h5.625v-0.5z" fill-opacity=".2" fill="#fff"/>
  <path id="path9" d="m9.25 1.75v3.125c0 0.3438 0.2812 0.625 0.625 0.625h3.125z" fill="#f8f8f0"/>
  <path id="path11" d="m7.25 1.75v5c0 0.34375 0.28125 0.5 0.625 0.5s0.375-0.15625 0.375-0.5v-5z" fill-opacity=".2"/>
  <path id="path13" d="m7.5 1.75v0.25h0.25v-0.25zm0 0.5v0.25h0.25v-0.25zm0 0.5v0.25h0.25v-0.25zm0 0.5v0.25h0.25v-0.25zm0 0.5v0.25h0.25v-0.25zm0 0.5v0.25h0.25v-0.25zm0 0.5v0.25h0.25v-0.25zm0 0.5v0.25h0.25v-0.25zm0 0.5v0.25h0.25v-0.25zm0 0.5v0.25h0.25v-0.25zm0 0.5c0 0.125 0.1133 0.25 0.25 0.25v-0.25z" fill-opacity=".50196" fill="#fff"/>
  <path id="path15" d="m7.75 7.25c-0.4141 0-0.75 0.3359-0.75 0.75v1.5c0 0.41406 0.33594 0.75 0.75 0.75s0.75-0.33594 0.75-0.75v-1.5c0-0.4141-0.3359-0.75-0.75-0.75zm0 0.5c0.1367 0 0.25 0.1016 0.25 0.25 0 0.125-0.1133 0.25-0.25 0.25s-0.25-0.125-0.25-0.25c0-0.1484 0.1133-0.25 0.25-0.25zm0 1c0.1367 0 0.25 0.1328 0.25 0.332v0.336c0 0.164-0.1133 0.332-0.25 0.332s-0.25-0.168-0.25-0.332v-0.33594c0-0.1993 0.1133-0.3321 0.25-0.3321z" fill-opacity=".2"/>
  <path id="path17" d="m7.75 7c-0.4141 0-0.75 0.3359-0.75 0.75v1.5c0 0.4141 0.3359 0.75 0.75 0.75s0.75-0.3359 0.75-0.75v-1.5c0-0.4141-0.3359-0.75-0.75-0.75zm0 0.5c0.1367 0 0.25 0.1016 0.25 0.25 0 0.125-0.1133 0.25-0.25 0.25s-0.25-0.125-0.25-0.25c0-0.1484 0.1133-0.25 0.25-0.25zm0 1c0.1367 0 0.25 0.1328 0.25 0.332v0.336c0 0.164-0.1133 0.332-0.25 0.332s-0.25-0.168-0.25-0.332v-0.33594c0-0.1993 0.1133-0.3321 0.25-0.3321z" fill="#f5f5f5"/>
  <path id="path19" d="m7.75 2v0.25h0.25v-0.25zm0 0.5v0.25h0.25v-0.25zm0 0.5v0.25h0.25v-0.25zm0 0.5v0.25h0.25v-0.25zm0 0.5v0.25h0.25v-0.25zm0 0.5v0.25h0.25v-0.25zm0 0.5v0.25h0.25v-0.25zm0 0.5v0.25h0.25v-0.25zm0 0.5v0.25h0.25v-0.25zm0 0.5v0.25h0.25v-0.25z" fill-opacity=".30196"/>
 </g>
</svg>
