<?xml version="1.0" encoding="UTF-8" standalone="no"?>
<svg
   xmlns:dc="http://purl.org/dc/elements/1.1/"
   xmlns:cc="http://creativecommons.org/ns#"
   xmlns:rdf="http://www.w3.org/1999/02/22-rdf-syntax-ns#"
   xmlns:svg="http://www.w3.org/2000/svg"
   xmlns="http://www.w3.org/2000/svg"
   xmlns:sodipodi="http://sodipodi.sourceforge.net/DTD/sodipodi-0.dtd"
   xmlns:inkscape="http://www.inkscape.org/namespaces/inkscape"
   width="16px"
   height="16px"
   viewBox="0 0 16 16"
   version="1.1"
   id="svg2"
   inkscape:version="0.91 r"
   sodipodi:docname="application-x-gettext-translation.svg">
  <metadata
     id="metadata17">
    <rdf:RDF>
      <cc:Work
         rdf:about="">
        <dc:format>image/svg+xml</dc:format>
        <dc:type
           rdf:resource="http://purl.org/dc/dcmitype/StillImage" />
      </cc:Work>
    </rdf:RDF>
  </metadata>
  <defs
     id="defs15" />
  <sodipodi:namedview
     pagecolor="#ffffff"
     bordercolor="#666666"
     borderopacity="1"
     objecttolerance="10"
     gridtolerance="10"
     guidetolerance="10"
     inkscape:pageopacity="0"
     inkscape:pageshadow="2"
     inkscape:window-width="1535"
     inkscape:window-height="876"
     id="namedview13"
     showgrid="false"
     inkscape:zoom="14.75"
     inkscape:cx="8"
     inkscape:cy="8"
     inkscape:window-x="65"
     inkscape:window-y="24"
     inkscape:window-maximized="1"
     inkscape:current-layer="svg2" />
  <g
     id="surface1"
     transform="matrix(1.2,0,0,1.2,-1.6,-1.1)">
    <path
       style="fill:#ebe8d7;fill-opacity:1;fill-rule:nonzero;stroke:none"
       d="M 3.625,1.75 C 3.277344,1.75 3,2.027344 3,2.375 l 0,11.25 c 0,0.347656 0.277344,0.625 0.625,0.625 l 8.75,0 C 12.722656,14.25 13,13.972656 13,13.625 L 13,5.5 9.5625,5.1875 9.25,1.75 Z m 0,0"
       id="path5"
       inkscape:connector-curvature="0" />
    <path
       style="fill:#f8f8f0;fill-opacity:1;fill-rule:nonzero;stroke:none"
       d="m 9.25,1.75 0,3.125 C 9.25,5.21875 9.53125,5.5 9.875,5.5 L 13,5.5 Z m 0,0"
       id="path7"
       inkscape:connector-curvature="0" />
    <path
       style="fill:#000000;fill-opacity:0.50196078;fill-rule:nonzero;stroke:none"
       d="M 5.867188,7.277344 C 5.628906,7.421875 5.15625,7.625 4.765625,7.738281 L 4.777344,7.773438 C 4.964844,7.753906 5.160156,7.726562 5.347656,7.695312 l 0,0.476563 -0.578125,0 0.015625,0.050781 0.472656,0 C 5.164062,8.605469 4.996094,9.011719 4.75,9.304688 L 4.789062,9.339844 C 5.015625,9.175781 5.203125,8.984375 5.347656,8.765625 l 0,0.984375 0.058594,0 c 0.160156,0 0.261719,-0.0625 0.265625,-0.078125 l 0,-1.113281 c 0.117187,0.105468 0.226563,0.273437 0.25,0.40625 0.039063,0.035156 0.082031,0.050781 0.125,0.050781 0.082031,0 0.152344,-0.0625 0.152344,-0.144531 0,-0.117188 -0.128907,-0.265625 -0.527344,-0.355469 l 0,-0.292969 0.433594,0 C 6.1875,8.222656 6.226562,8.210938 6.25,8.175781 L 5.949219,7.972656 5.789062,8.171875 l -0.117187,0 0,-0.539063 c 0.136719,-0.03125 0.269531,-0.0625 0.375,-0.09375 0.039063,0.00781 0.074219,0.015626 0.101563,0.015626 0.039062,0 0.070312,-0.00781 0.089843,-0.023438 z m 1.425781,0.367187 -0.136719,0.15625 -0.539062,0 -0.34375,-0.128906 0,2.023437 c 0.292968,0 0.328124,-0.105468 0.328124,-0.109374 l 0,-0.191407 0.585938,0 0,0.253907 c 0.246094,0 0.332031,-0.074219 0.332031,-0.078126 l 0,-1.644531 C 7.585938,7.914062 7.632812,7.890625 7.652344,7.867188 Z m -0.691407,0.207031 0.585938,0 0,1.488282 -0.585938,0 z m 3.480469,2.378907 c -0.34375,0 -0.59375,0.08203 -0.746093,0.238281 -0.128907,0.132812 -0.203126,0.335938 -0.222657,0.601562 l -0.589843,0 0,-0.503906 c 0,-0.06641 0.011718,-0.113281 0.03125,-0.140625 0.019531,-0.02734 0.050781,-0.04297 0.097656,-0.04687 L 8.742188,10.375 c 0.035156,-0.0039 0.050781,-0.01953 0.050781,-0.05078 0,-0.02344 -0.00391,-0.03906 -0.00781,-0.04297 -0.00391,-0.0039 -0.019531,-0.0078 -0.042968,-0.0078 -0.00391,0 -0.019532,0 -0.046876,0.0039 -0.101562,0.0039 -0.199218,0.0039 -0.292968,0.0039 -0.101563,0 -0.203125,0 -0.308594,-0.0039 -0.023438,-0.0039 -0.039062,-0.0039 -0.042969,-0.0039 -0.023437,0 -0.035156,0.0039 -0.042969,0.0078 C 8.003906,10.285156 8,10.300781 8,10.324219 c 0,0.03125 0.019531,0.04687 0.054688,0.05078 l 0.085937,0.0039 c 0.046875,0.0039 0.078125,0.01953 0.097656,0.04687 0.019531,0.02734 0.03125,0.07422 0.03125,0.140625 l 0,1.347656 c 0,0.06641 -0.011719,0.113282 -0.03125,0.140626 -0.019531,0.02734 -0.050781,0.04297 -0.097656,0.04687 l -0.085937,0.0039 c -0.00391,0 -0.00391,0.0039 -0.00781,0.0039 C 8.015625,12.109375 8,12.125 8,12.152344 c 0,0.02344 0.00391,0.03906 0.00781,0.04687 0.00781,0.0039 0.023438,0.0078 0.042969,0.0078 0.00391,0 0.019531,0 0.042969,-0.0039 0.105469,-0.0039 0.207031,-0.0039 0.304688,-0.0078 0.097656,0 0.195312,0.0039 0.296874,0.0078 0.023438,0.0039 0.039063,0.0039 0.046876,0.0039 0.023437,0 0.035156,-0.0039 0.042968,-0.0078 0.00391,-0.0078 0.00781,-0.02344 0.00781,-0.04687 0,-0.02734 -0.015625,-0.04297 -0.042969,-0.04297 -0.00391,-0.0039 -0.00391,-0.0039 -0.00781,-0.0039 l -0.085938,-0.0039 c -0.050781,-0.0039 -0.082031,-0.01953 -0.101562,-0.04687 -0.019532,-0.02734 -0.03125,-0.07422 -0.03125,-0.140626 l 0,-0.554687 0.585937,0 c 0.015625,0.289063 0.082031,0.511719 0.207031,0.652344 0.144532,0.160156 0.375,0.238281 0.691406,0.238281 0.34375,0 0.597657,-0.08203 0.757813,-0.242188 0.15625,-0.160156 0.238281,-0.414062 0.238281,-0.765624 0,-0.359376 -0.07422,-0.613282 -0.21875,-0.773438 -0.144531,-0.160156 -0.378906,-0.238281 -0.703125,-0.238281 z m -0.03125,0.09766 c 0.238281,0 0.40625,0.07031 0.511719,0.210937 0.105469,0.144532 0.15625,0.375 0.15625,0.703126 0,0.320312 -0.05078,0.550781 -0.15625,0.695312 -0.105469,0.140625 -0.277344,0.210938 -0.511719,0.210938 -0.238281,0 -0.410156,-0.07031 -0.511719,-0.210938 -0.105468,-0.144531 -0.160156,-0.375 -0.160156,-0.703125 0,-0.316406 0.054688,-0.546875 0.160156,-0.691406 0.105469,-0.144531 0.277344,-0.214844 0.511719,-0.214844 z m 0,0"
       id="path9"
       inkscape:connector-curvature="0" />
    <path
       style="fill:#ffffff;fill-opacity:0.2;fill-rule:nonzero;stroke:none"
       d="M 3.625,1.75 C 3.277344,1.75 3,2.027344 3,2.375 l 0,0.5 C 3,2.527344 3.277344,2.25 3.625,2.25 l 5.625,0 c 0,0 0,0 0,-0.5 z m 0,0"
       id="path11"
       inkscape:connector-curvature="0" />
  </g>
</svg>
