<?xml version="1.0" encoding="UTF-8" standalone="no"?>
<svg id="svg2" xmlns:rdf="http://www.w3.org/1999/02/22-rdf-syntax-ns#" xmlns="http://www.w3.org/2000/svg" height="16px" width="16px" version="1.1" xmlns:cc="http://creativecommons.org/ns#" xmlns:dc="http://purl.org/dc/elements/1.1/" viewBox="0 0 16 16">
 <metadata id="metadata21">
  <rdf:RDF>
   <cc:Work rdf:about="">
    <dc:format>image/svg+xml</dc:format>
    <dc:type rdf:resource="http://purl.org/dc/dcmitype/StillImage"/>
   </cc:Work>
  </rdf:RDF>
 </metadata>
 <g id="surface1" transform="matrix(1.2,0,0,1.2,-1.6,-1.1)">
  <path id="path5" d="m3.625 1.75c-0.3477 0-0.625 0.2773-0.625 0.625v11.25c0 0.34766 0.27734 0.625 0.625 0.625h8.75c0.348 0 0.625-0.277 0.625-0.625v-8.125l-3.4375-0.3125-0.3125-3.4375z" fill="#1e94f0"/>
  <path id="path7" d="m9.25 1.75v3.125c0 0.3438 0.2812 0.625 0.625 0.625h3.125z" fill="#7abff5"/>
  <path id="path9" d="m8.0703 6.0352c-0.89453 0-1.7305 0.34766-2.3594 0.97266-0.6211 0.6249-0.9609 1.4569-0.9609 2.3437 0 1.1444 0.5977 2.1794 1.4883 2.8044 0.5273 0.223 1.1055 0.344 1.7148 0.344 0.3594 0 0.711-0.047 1.0469-0.129-2.3359-0.059-3.6172-1.402-3.6758-3.0194 0-0.73437 0.28125-1.4219 0.79688-1.9375 0.5156-0.5157 1.207-0.8008 1.9492-0.8008z" fill-opacity=".4" fill="#fff"/>
  <path id="path11" d="m8.1133 6.8633c-0.25-0.00781-0.5 0.019531-0.75 0.089844-0.6563 0.1758-1.1953 0.586-1.5195 1.1524-0.6836 1.1953-0.3204 2.6525 0.8632 3.4685 0.7344 0.504 1.711 0.664 2.6094 0.676 0.4297-0.148 0.8286-0.363 1.1836-0.633-1.0195 0.117-2.5195 0.141-3.4727-0.512-0.9335-0.64-1.2226-1.7847-0.6914-2.7144 0.25-0.4375 0.668-0.7539 1.1719-0.8906 0.5234-0.1406 1.0586-0.0703 1.5156 0.1953l0.2852-0.4961c-0.3672-0.2109-0.7774-0.3242-1.1953-0.3359z" fill-opacity=".6" fill="#fff"/>
  <path id="path13" d="m7.9766 7.6172c-0.293 0.0117-0.5782 0.0937-0.836 0.2422-0.5703 0.3281-0.8906 0.9297-0.8906 1.5468 0 0.2891 0.0703 0.5782 0.2148 0.8438v0.0039s0.00391 0.0078 0.00781 0.01172h-0.00391s0.00391 0.0039 0.00781 0.0078c0.00391 0.0078 0.011719 0.02344 0.011719 0.02344 0.089844 0.15625 0.4375 0.67578 1.1953 0.95312 0.90234 0.32812 2.1562 0.27344 3.0859 0.16797 0.22266-0.19922 0.42578-0.42188 0.60547-0.66406-0.82031 0.13672-2.4688 0.33203-3.4961-0.04297-0.59766-0.21875-0.84766-0.61328-0.89062-0.69531l-0.00391-0.0039c-0.1093-0.1917-0.1601-0.3987-0.1601-0.6058 0-0.41797 0.21484-0.82812 0.60547-1.0508 0.28125-0.16406 0.60547-0.20703 0.91797-0.12109 0.3125 0.082031 0.57422 0.28516 0.73828 0.5625l0.5039-0.2656-0.0078-0.0195c-0.2382-0.414-0.625-0.707-1.0859-0.832-0.1719-0.0469-0.3477-0.0664-0.5195-0.0625z" fill="#fff"/>
  <path id="path15" d="m3.625 1.75c-0.3477 0-0.625 0.2773-0.625 0.625v0.5c0-0.3477 0.2773-0.625 0.625-0.625h5.625v-0.5z" fill-opacity=".10196" fill="#fff"/>
 </g>
</svg>
