<?xml version="1.0" encoding="UTF-8" standalone="no"?>
<svg id="svg2" xmlns:rdf="http://www.w3.org/1999/02/22-rdf-syntax-ns#" xmlns="http://www.w3.org/2000/svg" height="16px" width="16px" version="1.1" xmlns:cc="http://creativecommons.org/ns#" xmlns:dc="http://purl.org/dc/elements/1.1/" viewBox="0 0 16 16">
 <metadata id="metadata17">
  <rdf:RDF>
   <cc:Work rdf:about="">
    <dc:format>image/svg+xml</dc:format>
    <dc:type rdf:resource="http://purl.org/dc/dcmitype/StillImage"/>
   </cc:Work>
  </rdf:RDF>
 </metadata>
 <g id="surface1" transform="matrix(1.2,0,0,1.2,-1.6,-1.1)">
  <path id="path5" d="m3.625 1.75c-0.3477 0-0.625 0.2773-0.625 0.625v11.25c0 0.34766 0.27734 0.625 0.625 0.625h8.75c0.348 0 0.625-0.277 0.625-0.625v-8.125l-3.4375-0.3125-0.3125-3.4375z" fill="#a1c538"/>
  <path id="path7" d="m9.25 1.75v3.125c0 0.3438 0.2812 0.625 0.625 0.625h3.125z" fill="#d7f57a"/>
  <path id="path9" d="m6.7656 6.1953c-0.0156-0.0039-0.0312-0.0039-0.0429 0.0078-0.0235 0.0157-0.0313 0.0469-0.0118 0.0742l0.3203 0.4415c-0.5078 0.2265-0.9843 0.7812-1.0312 1.2812h3.75c-0.0469-0.5-0.5859-1.0547-1.0898-1.2812l0.3164-0.4415c0.0195-0.0273 0.0156-0.0585-0.0118-0.0742-0.0234-0.0195-0.0586-0.0117-0.0781 0.0157l-0.3281 0.4609c-0.2188-0.082-0.4609-0.1289-0.7148-0.1289-0.25391 0-0.49609 0.046875-0.71094 0.12891l-0.3321-0.4609c-0.0078-0.0118-0.0235-0.0235-0.0352-0.0235zm0.4844 0.8047c0.1406 0 0.25 0.1133 0.25 0.25s-0.1133 0.25-0.25 0.25-0.25-0.1133-0.25-0.25 0.1133-0.25 0.25-0.25zm1.25 0c0.1406 0 0.25 0.1133 0.25 0.25s-0.1133 0.25-0.25 0.25-0.25-0.1133-0.25-0.25 0.1133-0.25 0.25-0.25zm-3.1094 1.25c-0.2148 0-0.3906 0.1719-0.3906 0.3789v1.4883c0 0.211 0.1758 0.383 0.3906 0.383 0.2149 0 0.3594-0.172 0.3594-0.383v-1.4883c0-0.2068-0.1406-0.3787-0.3594-0.3787zm0.6094 0v2.727c0 0.164 0.2031 0.273 0.3711 0.273h0.37891v0.94141c0 0.204 0.1953 0.309 0.375 0.309s0.4023-0.105 0.375-0.309v-0.94141h0.75v0.94141c0 0.204 0.1953 0.309 0.375 0.309s0.3867-0.105 0.375-0.309v-0.941h0.31641c0.168 0 0.4336-0.109 0.4336-0.273v-2.727zm4.3906 0c-0.215 0-0.391 0.1719-0.391 0.3789v1.4883c0 0.211 0.176 0.383 0.391 0.383 0.214 0 0.359-0.172 0.359-0.383v-1.4883c0-0.2068-0.141-0.3787-0.359-0.3787z" fill="#fff"/>
  <path id="path11" d="m3.625 1.75c-0.3477 0-0.625 0.2773-0.625 0.625v0.5c0-0.3477 0.2773-0.625 0.625-0.625h5.625v-0.5z" fill-opacity=".10196" fill="#fff"/>
 </g>
</svg>
