<?xml version="1.0" encoding="UTF-8" standalone="no"?>
<svg id="svg2" xmlns:rdf="http://www.w3.org/1999/02/22-rdf-syntax-ns#" xmlns="http://www.w3.org/2000/svg" height="16px" width="16px" version="1.1" xmlns:cc="http://creativecommons.org/ns#" xmlns:dc="http://purl.org/dc/elements/1.1/" viewBox="0 0 16 16">
 <metadata id="metadata56">
  <rdf:RDF>
   <cc:Work rdf:about="">
    <dc:format>image/svg+xml</dc:format>
    <dc:type rdf:resource="http://purl.org/dc/dcmitype/StillImage"/>
   </cc:Work>
  </rdf:RDF>
 </metadata>
 <defs id="defs4">
  <linearGradient id="linear0" y2="24" gradientUnits="userSpaceOnUse" x2="44" gradientTransform="matrix(.325 0 0 .33333 .2 1.5e-7)" y1="24" x1="24">
   <stop id="stop7" stop-opacity=".10196" offset="0"/>
   <stop id="stop9" stop-opacity="0" offset="1"/>
  </linearGradient>
 </defs>
 <g id="surface1" transform="translate(-.5)">
  <path id="path12" d="m14.5 13.332v-10.664c0-0.3711-0.289-0.668-0.648-0.668h-11.704c-0.3589 0-0.648 0.2969-0.648 0.668v10.664c0 0.371 0.2891 0.668 0.6484 0.668h11.703c0.36 0 0.649-0.297 0.649-0.668z" fill="#dcd4a6"/>
  <path id="path14" d="m8.75 8.25h5v-0.5h-5z" fill-opacity=".50196"/>
  <path id="path16" d="m8.75 7.25h5v-0.5h-5z" fill-opacity=".50196"/>
  <path id="path18" d="m8.75 6.25h4.5v-0.5h-4.5z" fill-opacity=".50196"/>
  <path id="path20" d="m8.75 5.25h3.5v-0.5h-3.5z" fill-opacity=".50196"/>
  <path id="path22" d="m8.75 4.25h5v-0.5h-5z" fill-opacity=".50196"/>
  <path id="path24" d="m8.75 3.25h4v-0.5h-4z" fill-opacity=".50196"/>
  <path id="path26" d="m2.25 3h5v0.5h-5z" fill-opacity=".50196"/>
  <path id="path28" d="m2.25 4h4.5v0.5h-4.5z" fill-opacity=".50196"/>
  <path id="path30" d="m2.25 5h4v0.5h-4z" fill-opacity=".50196"/>
  <path id="path32" d="m2.25 6h3.5v0.5h-3.5z" fill-opacity=".50196"/>
  <path id="path34" d="m2.25 7h3v0.5h-3z" fill-opacity=".50196"/>
  <path id="path36" d="m2.25 8h5v0.5h-5z" fill-opacity=".50196"/>
  <path id="path38" d="m2.25 9h5v0.5h-5z" fill-opacity=".50196"/>
  <path id="path40" d="m2.25 10h4.5v0.5h-4.5z" fill-opacity=".50196"/>
  <path id="path42" d="m2.25 11h3.5v0.5h-3.5z" fill-opacity=".50196"/>
  <path id="path44" d="m2.25 12h5v0.5h-5z" fill-opacity=".50196"/>
  <path id="path46" d="m2.25 13h4v0.5h-4z" fill-opacity=".50196"/>
  <path id="path48" fill="url(#linear0)" d="m14.5 13.332v-10.664c0-0.3711-0.289-0.668-0.648-0.668h-5.852v12h5.852c0.359 0 0.648-0.297 0.648-0.668z"/>
  <path id="path50" d="m5.5 2h2v5.332l-1-1.332-1 1.332z" fill="#ff5757"/>
  <path id="path52" d="m2.1484 2c-0.3593 0-0.6484 0.2969-0.6484 0.668v0.5c0-0.3711 0.2891-0.668 0.6484-0.668h11.703c0.36 0 0.649 0.2969 0.649 0.668v-0.5c0-0.3711-0.289-0.668-0.648-0.668z" fill-opacity=".2" fill="#fff"/>
 </g>
</svg>
