<?xml version="1.0" encoding="UTF-8" standalone="no"?>
<svg id="svg2" xmlns:rdf="http://www.w3.org/1999/02/22-rdf-syntax-ns#" xmlns="http://www.w3.org/2000/svg" height="16px" width="16px" version="1.1" xmlns:cc="http://creativecommons.org/ns#" xmlns:dc="http://purl.org/dc/elements/1.1/" viewBox="0 0 16 16">
 <metadata id="metadata21">
  <rdf:RDF>
   <cc:Work rdf:about="">
    <dc:format>image/svg+xml</dc:format>
    <dc:type rdf:resource="http://purl.org/dc/dcmitype/StillImage"/>
   </cc:Work>
  </rdf:RDF>
 </metadata>
 <g id="surface1" transform="translate(-.5)">
  <path id="path5" d="m14.5 13.332v-10.664c0-0.3711-0.289-0.668-0.648-0.668h-11.704c-0.3589 0-0.648 0.2969-0.648 0.668v10.664c0 0.371 0.2891 0.668 0.6484 0.668h11.703c0.36 0 0.649-0.297 0.649-0.668z" fill="#bd9966"/>
  <path id="path7" d="m5.25 7.5c0 0.6914-0.5586 1.25-1.25 1.25s-1.25-0.5586-1.25-1.25 0.5586-1.25 1.25-1.25c0.69141 0 1.25 0.55859 1.25 1.25z" fill="#fff"/>
  <path id="path9" d="m16 29 12 15 19-4" transform="scale(.25)" stroke="#fff" stroke-width="3" fill="none"/>
  <path id="path11" d="m2.1484 2c-0.3593 0-0.6484 0.2969-0.6484 0.668v0.5c0-0.3711 0.2891-0.668 0.6484-0.668h11.703c0.36 0 0.649 0.2969 0.649 0.668v-0.5c0-0.3711-0.289-0.668-0.648-0.668z" fill-opacity=".10196" fill="#fff"/>
  <path id="path13" d="m13 10c0 0.69141-0.55859 1.25-1.25 1.25s-1.25-0.55859-1.25-1.25 0.55859-1.25 1.25-1.25 1.25 0.55859 1.25 1.25z" fill="#fff"/>
  <path id="path15" d="m8.25 10.75c0 0.691-0.5586 1.25-1.25 1.25s-1.25-0.559-1.25-1.25 0.5586-1.25 1.25-1.25c0.69141 0 1.25 0.55859 1.25 1.25z" fill="#fff"/>
 </g>
</svg>
