<?xml version="1.0" encoding="UTF-8" standalone="no"?>
<svg id="svg2" xmlns:rdf="http://www.w3.org/1999/02/22-rdf-syntax-ns#" xmlns="http://www.w3.org/2000/svg" height="16px" width="16px" version="1.1" xmlns:cc="http://creativecommons.org/ns#" xmlns:dc="http://purl.org/dc/elements/1.1/" viewBox="0 0 16 16">
 <metadata id="metadata21">
  <rdf:RDF>
   <cc:Work rdf:about="">
    <dc:format>image/svg+xml</dc:format>
    <dc:type rdf:resource="http://purl.org/dc/dcmitype/StillImage"/>
   </cc:Work>
  </rdf:RDF>
 </metadata>
 <g id="surface1" transform="translate(-.5 .5)">
  <path id="path5" d="m14.5 13.852v-11.703c0-0.3599-0.289-0.649-0.648-0.649h-11.704c-0.3589 0-0.648 0.2891-0.648 0.6484v11.703c0 0.36 0.2891 0.649 0.6484 0.649h11.703c0.36 0 0.649-0.289 0.649-0.648z" fill="#d1d1d1"/>
  <path id="path7" d="m6 5.5v5.25h1.25v-2h2v-3.25zm1.3516 1.3516h0.6484v0.6484h-0.6484z" fill="#b09961"/>
  <path id="path9" d="m2.5 5.5v5.25h1.25v-1.25l0.75 1.25h1.25l-0.625-2h0.625v-3.25zm1.3008 1.3516h0.64844v0.64844h-0.64844z" fill="#b09961"/>
  <path id="path11" d="m9.5 5.5v5.25h1.25v-2.25l0.875 1 0.875-1v2.25h1.25v-5.25h-1.25l-0.875 2-0.875-2z" fill="#b09961"/>
  <path id="path13" d="m2.1484 1.5c-0.3593 0-0.6484 0.2891-0.6484 0.6484v0.5c0-0.3593 0.2891-0.6484 0.6484-0.6484h11.704c0.359 0 0.648 0.2891 0.648 0.6484v-0.5c0-0.3593-0.289-0.6484-0.648-0.6484z" fill-opacity=".2" fill="#fff"/>
  <path id="path15" d="m1.5 13.352v0.5c0 0.359 0.2891 0.648 0.6484 0.648h11.703c0.36 0 0.649-0.289 0.649-0.648v-0.5c0 0.359-0.289 0.648-0.648 0.648h-11.704c-0.3589 0-0.648-0.289-0.648-0.648z" fill-opacity=".30196"/>
 </g>
</svg>
