<?xml version="1.0" encoding="UTF-8" standalone="no"?>
<svg
   xmlns:dc="http://purl.org/dc/elements/1.1/"
   xmlns:cc="http://creativecommons.org/ns#"
   xmlns:rdf="http://www.w3.org/1999/02/22-rdf-syntax-ns#"
   xmlns:svg="http://www.w3.org/2000/svg"
   xmlns="http://www.w3.org/2000/svg"
   xmlns:sodipodi="http://sodipodi.sourceforge.net/DTD/sodipodi-0.dtd"
   xmlns:inkscape="http://www.inkscape.org/namespaces/inkscape"
   width="16px"
   height="16px"
   viewBox="0 0 16 16"
   version="1.1"
   id="svg2"
   inkscape:version="0.91 r"
   sodipodi:docname="text-x-patch.svg">
  <metadata
     id="metadata17">
    <rdf:RDF>
      <cc:Work
         rdf:about="">
        <dc:format>image/svg+xml</dc:format>
        <dc:type
           rdf:resource="http://purl.org/dc/dcmitype/StillImage" />
      </cc:Work>
    </rdf:RDF>
  </metadata>
  <defs
     id="defs15" />
  <sodipodi:namedview
     pagecolor="#ffffff"
     bordercolor="#666666"
     borderopacity="1"
     objecttolerance="10"
     gridtolerance="10"
     guidetolerance="10"
     inkscape:pageopacity="0"
     inkscape:pageshadow="2"
     inkscape:window-width="1535"
     inkscape:window-height="876"
     id="namedview13"
     showgrid="false"
     inkscape:zoom="14.75"
     inkscape:cx="-4.0338983"
     inkscape:cy="8"
     inkscape:window-x="65"
     inkscape:window-y="24"
     inkscape:window-maximized="1"
     inkscape:current-layer="svg2" />
  <g
     id="surface1"
     transform="matrix(1.2,0,0,1.2,-1.6,-1.1)">
    <path
       style="fill:#ebe8d7;fill-opacity:1;fill-rule:nonzero;stroke:none"
       d="M 3.625,1.75 C 3.277344,1.75 3,2.027344 3,2.375 l 0,11.25 c 0,0.347656 0.277344,0.625 0.625,0.625 l 8.75,0 C 12.722656,14.25 13,13.972656 13,13.625 L 13,5.5 9.5625,5.1875 9.25,1.75 Z m 0,0"
       id="path5"
       inkscape:connector-curvature="0" />
    <path
       style="fill:#f8f8f0;fill-opacity:1;fill-rule:nonzero;stroke:none"
       d="m 9.25,1.75 0,3.125 C 9.25,5.21875 9.53125,5.5 9.875,5.5 L 13,5.5 Z m 0,0"
       id="path7"
       inkscape:connector-curvature="0" />
    <path
       style="fill:#000000;fill-opacity:0.50196078;fill-rule:nonzero;stroke:none"
       d="M 6.726562,7.5 C 6.398438,7.484375 6.074219,7.59375 5.832031,7.832031 5.351562,8.3125 5.398438,9.128906 5.929688,9.664062 L 6.265625,10 5.929688,10.335938 C 5.398438,10.871094 5.351562,11.6875 5.832031,12.167969 6.3125,12.648438 7.128906,12.601562 7.664062,12.070312 L 8,11.734375 8.335938,12.070312 c 0.535156,0.53125 1.351562,0.578126 1.832031,0.09766 0.480469,-0.480469 0.433593,-1.296875 -0.09766,-1.832031 L 9.734375,10 10.070312,9.664062 C 10.601562,9.128906 10.648438,8.3125 10.167969,7.832031 9.6875,7.351562 8.871094,7.398438 8.335938,7.929688 L 8,8.265625 7.664062,7.929688 C 7.394531,7.664062 7.058594,7.519531 6.726562,7.5 Z M 8,8.75 c 0.00781,0.00781 0.015625,0.015625 0.023438,0.023438 0.00391,0.00391 0.00781,0.00781 0.011718,0.00781 0.00391,0.00781 0.011719,0.015625 0.015625,0.023438 0.00391,0 0.00391,0.00391 0.00781,0.00391 0.00391,0.00781 0.00781,0.015625 0.015625,0.023437 0,0.00391 0.00391,0.00781 0.00781,0.011719 0.00391,0.00781 0.00781,0.011719 0.00781,0.019531 0.00391,0.00781 0.00781,0.011719 0.011718,0.019531 0,0.00391 0,0.00781 0.00391,0.011719 0.00391,0.00391 0.00391,0.011719 0.00781,0.019531 0,0.00781 0,0.011719 0.00391,0.015626 0,0.00781 0,0.015624 0.00391,0.019531 0,0.00391 0,0.00781 0,0.011719 C 8.125,8.96875 8.125,8.976562 8.125,8.984375 c 0,0.00391 0,0.011719 0,0.015625 0,0.00391 0,0.011719 0,0.015625 0,0.00781 0,0.015625 -0.00391,0.023437 0,0.00391 0,0.00781 0,0.011719 C 8.11718,9.054691 8.11718,9.0625 8.11718,9.070312 8.11327,9.074222 8.11327,9.078122 8.11327,9.085938 8.10936,9.093748 8.10936,9.101562 8.10546,9.105469 8.10155,9.109379 8.10155,9.113279 8.10155,9.117188 8.09764,9.124998 8.09374,9.128906 8.089832,9.136719 c 0,0.00781 -0.00391,0.011719 -0.00781,0.019531 -0.00391,0.00391 -0.00781,0.00781 -0.00781,0.011719 -0.00781,0.00781 -0.011719,0.015625 -0.015625,0.023437 -0.00391,0 -0.00391,0.00391 -0.00781,0.00391 -0.00391,0.00781 -0.011719,0.015626 -0.015625,0.023438 -0.00391,0 -0.00781,0.00391 -0.011718,0.00781 C 8.015625,9.234375 8.007812,9.242188 8,9.25 7.992188,9.242188 7.984375,9.234375 7.976562,9.226562 7.972656,9.222656 7.96875,9.21875 7.964844,9.21875 7.960938,9.210938 7.953125,9.203125 7.949219,9.195312 c -0.00391,0 -0.00391,-0.00391 -0.00781,-0.00391 C 7.9375,9.183594 7.933594,9.175781 7.925781,9.167969 c 0,-0.00391 -0.00391,-0.00781 -0.00781,-0.011719 C 7.914062,9.148438 7.910156,9.144531 7.910156,9.136719 7.90625,9.128906 7.902344,9.125 7.898438,9.117188 c 0,-0.00391 0,-0.00781 -0.00391,-0.011719 -0.00391,-0.00391 -0.00391,-0.011719 -0.00781,-0.019531 0,-0.00781 0,-0.011719 -0.00391,-0.015626 0,-0.00781 0,-0.015624 -0.00391,-0.019531 0,-0.00391 0,-0.00781 0,-0.011719 C 7.875,9.03125 7.875,9.023438 7.875,9.015625 c 0,-0.00391 0,-0.011719 0,-0.015625 0,-0.00391 0,-0.011719 0,-0.015625 0,-0.00781 0,-0.015625 0.00391,-0.023437 0,-0.00391 0,-0.00781 0,-0.011719 C 7.88282,8.945309 7.88282,8.9375 7.88282,8.929688 7.88673,8.925778 7.88673,8.921878 7.88673,8.914062 7.89064,8.906252 7.89064,8.898438 7.89454,8.894531 7.89845,8.890621 7.89845,8.886721 7.89845,8.882812 7.90236,8.875002 7.90626,8.871094 7.910168,8.863281 c 0,-0.00781 0.00391,-0.011719 0.00781,-0.019531 0.00391,-0.00391 0.00781,-0.00781 0.00781,-0.011719 0.00781,-0.00781 0.011719,-0.015625 0.015625,-0.023437 0.00391,0 0.00391,-0.00391 0.00781,-0.00391 0.00391,-0.00781 0.011719,-0.015626 0.015625,-0.023438 0.00391,0 0.00781,-0.00391 0.011718,-0.00781 C 7.984375,8.765625 7.992188,8.757812 8,8.75 Z M 7.550781,9.355469 c 0.027344,0 0.058594,0 0.085938,0.00781 0.027343,0.105469 -0.00391,0.21875 -0.082031,0.296875 -0.074219,0.078125 -0.1875,0.109375 -0.292969,0.078125 -0.03125,-0.105469 0,-0.21875 0.078125,-0.292969 C 7.394531,9.386719 7.472656,9.355469 7.550781,9.355469 Z m 0.898438,0 c 0.078125,0 0.15625,0.03125 0.210937,0.089843 0.078125,0.074219 0.109375,0.1875 0.078125,0.292969 -0.105469,0.03125 -0.21875,0 -0.292969,-0.078125 C 8.367188,9.582031 8.335938,9.46875 8.363281,9.363281 8.390625,9.355469 8.421875,9.355469 8.449219,9.355469 Z M 8,9.75 c 0.00781,0 0.011719,0 0.019531,0 0,0 0,0 0.00391,0 0.00391,0 0.011718,0.00391 0.019531,0.00391 0,0 0.00391,0 0.00391,0 0.00781,0.00391 0.011719,0.00391 0.019531,0.00391 0,0 0.00391,0.00391 0.00391,0.00391 0.00781,0 0.015626,0.00391 0.023438,0.00781 0.00781,0 0.011719,0.00391 0.019531,0.00781 0,0 0.00391,0 0.00391,0.00391 0.00391,0 0.00781,0.00391 0.011718,0.00391 0.00391,0.00391 0.00781,0.00781 0.015625,0.011719 0.00391,0.00391 0.00781,0.00781 0.011719,0.00781 0.00781,0.00781 0.015625,0.011718 0.019531,0.019531 0.00781,0.00391 0.011719,0.011719 0.019531,0.019531 0,0.00391 0.00391,0.00781 0.00781,0.011719 0.00391,0.00781 0.00781,0.011719 0.011719,0.015625 0,0.00391 0.00391,0.00781 0.00391,0.011718 0.00391,0 0.00391,0.00391 0.00391,0.00391 0.00391,0.00781 0.00781,0.011719 0.00781,0.019531 0.00391,0.00781 0.00781,0.015625 0.00781,0.023438 0,0 0.00391,0.00391 0.00391,0.00391 0,0.00781 0,0.011718 0.00391,0.019531 0,0 0,0.00391 0,0.00391 0,0.00781 0.00391,0.015625 0.00391,0.019531 0,0.00391 0,0.00391 0,0.00391 0,0.00781 0,0.011719 0,0.019531 0,0.0078 0,0.01172 0,0.01953 0,0 0,0 0,0.0039 0,0.0039 -0.00391,0.01172 -0.00391,0.01953 0,0 0,0.0039 0,0.0039 -0.00391,0.0078 -0.00391,0.01172 -0.00391,0.01953 0,0 -0.00391,0.0039 -0.00391,0.0039 0,0.0078 -0.00391,0.01563 -0.00781,0.02344 0,0.0078 -0.00391,0.01172 -0.00781,0.01953 0,0 0,0.0039 -0.00391,0.0039 0,0.0039 -0.00391,0.0078 -0.00391,0.01172 -0.00391,0.0039 -0.00781,0.0078 -0.011719,0.01563 -0.00391,0.0039 -0.00781,0.0078 -0.00781,0.01172 -0.00781,0.0078 -0.011718,0.01563 -0.019531,0.01953 -0.00391,0.0078 -0.011719,0.01172 -0.019531,0.01953 -0.00391,0 -0.00781,0.0039 -0.011719,0.0078 -0.00781,0.0039 -0.011719,0.0078 -0.015625,0.01172 -0.00391,0 -0.00781,0.0039 -0.011718,0.0039 0,0.0039 -0.00391,0.0039 -0.00391,0.0039 -0.00781,0.0039 -0.011719,0.0078 -0.019531,0.0078 -0.00781,0.0039 -0.015625,0.0078 -0.023438,0.0078 0,0 -0.00391,0.0039 -0.00391,0.0039 -0.00781,0 -0.011718,0 -0.019531,0.0039 0,0 -0.00391,0 -0.00391,0 -0.00781,0 -0.015625,0.0039 -0.019531,0.0039 -0.00391,0 -0.00391,0 -0.00391,0 -0.00781,0 -0.011719,0 -0.019531,0 -0.00781,0 -0.011719,0 -0.019531,0 0,0 0,0 -0.00391,0 -0.00391,0 -0.011718,-0.0039 -0.019531,-0.0039 0,0 -0.00391,0 -0.00391,0 -0.00781,-0.0039 -0.011719,-0.0039 -0.019531,-0.0039 0,0 -0.00391,-0.0039 -0.00391,-0.0039 -0.00781,0 -0.015626,-0.0039 -0.023438,-0.0078 -0.00781,0 -0.011719,-0.0039 -0.019531,-0.0078 0,0 -0.00391,0 -0.00391,-0.0039 -0.00391,0 -0.00781,-0.0039 -0.011718,-0.0039 -0.00391,-0.0039 -0.00781,-0.0078 -0.015625,-0.01172 -0.00391,-0.0039 -0.00781,-0.0078 -0.011719,-0.0078 -0.00781,-0.0078 -0.015625,-0.01172 -0.019531,-0.01953 -0.00781,-0.0039 -0.011719,-0.01172 -0.019531,-0.01953 0,-0.0039 -0.00391,-0.0078 -0.00781,-0.01172 -0.00391,-0.0078 -0.00781,-0.01172 -0.011719,-0.01563 0,-0.0039 -0.00391,-0.0078 -0.00391,-0.01172 -0.00391,0 -0.00391,-0.0039 -0.00391,-0.0039 -0.00391,-0.0078 -0.00781,-0.01172 -0.00781,-0.01953 -0.00391,-0.0078 -0.00781,-0.01563 -0.00781,-0.02344 0,0 -0.00391,-0.0039 -0.00391,-0.0039 0,-0.0078 0,-0.01172 -0.00391,-0.01953 0,0 0,-0.0039 0,-0.0039 0,-0.0078 -0.00391,-0.01563 -0.00391,-0.01953 0,-0.0039 0,-0.0039 0,-0.0039 0,-0.0078 0,-0.01172 0,-0.01953 0,-0.00781 0,-0.011719 0,-0.019531 0,0 0,0 0,-0.00391 0,-0.00391 0.00391,-0.011718 0.00391,-0.019531 0,0 0,-0.00391 0,-0.00391 0.00391,-0.00781 0.00391,-0.011719 0.00391,-0.019531 0,0 0.00391,-0.00391 0.00391,-0.00391 0,-0.00781 0.00391,-0.015626 0.00781,-0.023438 0,-0.00781 0.00391,-0.011719 0.00781,-0.019531 0,0 0,-0.00391 0.00391,-0.00391 0,-0.00391 0.00391,-0.00781 0.00391,-0.011718 C 7.789055,9.867195 7.792955,9.863295 7.796864,9.85548 7.800774,9.85157 7.804674,9.84767 7.804674,9.843761 7.8125,9.835938 7.816406,9.828125 7.824219,9.824219 7.828125,9.816406 7.835938,9.8125 7.84375,9.804688 c 0.00391,0 0.00781,-0.00391 0.011719,-0.00781 0.00781,-0.00391 0.011719,-0.00781 0.015625,-0.011719 0.00391,0 0.00781,-0.00391 0.011718,-0.00391 0,-0.00391 0.00391,-0.00391 0.00391,-0.00391 0.00781,-0.00391 0.011719,-0.00781 0.019531,-0.00781 0.00781,-0.00391 0.015625,-0.00781 0.023438,-0.00781 0,0 0.00391,-0.00391 0.00391,-0.00391 0.00781,0 0.011718,0 0.019531,-0.00391 0,0 0.00391,0 0.00391,0 0.00781,0 0.015625,-0.00391 0.019531,-0.00391 0.00391,0 0.00391,0 0.00391,0 0.00781,0 0.011719,0 0.019531,0 z M 6.996094,9.875 C 7.089844,9.875 7.183594,9.917969 7.25,10 7.113281,10.167969 6.886719,10.167969 6.75,10 6.816406,9.921875 6.902344,9.875 6.996094,9.875 Z m 2.007812,0 C 9.097656,9.875 9.183594,9.921875 9.25,10 9.113281,10.167969 8.886719,10.167969 8.75,10 8.816406,9.917969 8.910156,9.875 9.003906,9.875 Z m -1.667968,0.480469 c 0.082031,-0.0039 0.160156,0.03125 0.21875,0.08984 0.078124,0.07422 0.109374,0.1875 0.082031,0.292969 -0.105469,0.03125 -0.21875,0 -0.296875,-0.07813 -0.078125,-0.07813 -0.109375,-0.191406 -0.078125,-0.296875 0.023437,-0.0039 0.046875,-0.0078 0.074219,-0.0078 z m 1.328124,0 c 0.027344,0 0.050782,0.0039 0.074219,0.0078 0.03125,0.105469 0,0.21875 -0.078125,0.296875 -0.078125,0.07813 -0.191406,0.109375 -0.296875,0.07813 -0.027343,-0.105469 0.00391,-0.21875 0.082031,-0.292969 0.058594,-0.05859 0.136719,-0.09375 0.21875,-0.08984 z M 8,10.75 c 0.00781,0.0078 0.015625,0.01563 0.023438,0.02344 0.00391,0.0039 0.00781,0.0078 0.011718,0.0078 0.00391,0.0078 0.011719,0.01563 0.015625,0.02344 0.00391,0 0.00391,0.0039 0.00781,0.0039 0.00391,0.0078 0.00781,0.01563 0.015625,0.02344 0,0.0039 0.00391,0.0078 0.00781,0.01172 0.00391,0.0078 0.00781,0.01172 0.00781,0.01953 0.00391,0.0078 0.00781,0.01172 0.011718,0.01953 0,0.0039 0,0.0078 0.00391,0.01172 0.00391,0.0039 0.00391,0.01172 0.00781,0.01953 0,0.0078 0,0.01172 0.00391,0.01563 0,0.0078 0,0.01562 0.00391,0.01953 0,0.0039 0,0.0078 0,0.01172 0.00391,0.0078 0.00391,0.01562 0.00391,0.02344 0,0.0039 0,0.01172 0,0.01563 0,0.0039 0,0.01172 0,0.01563 0,0.0078 0,0.01563 -0.00391,0.02344 0,0.0039 0,0.0078 0,0.01172 -0.00391,0.0039 -0.00391,0.01172 -0.00391,0.01953 -0.00391,0.0039 -0.00391,0.0078 -0.00391,0.01563 -0.00391,0.0078 -0.00391,0.01562 -0.00781,0.01953 -0.00391,0.0039 -0.00391,0.0078 -0.00391,0.01172 -0.00391,0.0078 -0.00781,0.01172 -0.011718,0.01953 0,0.0078 -0.00391,0.01172 -0.00781,0.01953 -0.00391,0.0039 -0.00781,0.0078 -0.00781,0.01172 -0.00781,0.0078 -0.011719,0.01563 -0.015625,0.02344 -0.00391,0 -0.00391,0.0039 -0.00781,0.0039 -0.00391,0.0078 -0.011719,0.01563 -0.015625,0.02344 -0.00391,0 -0.00781,0.0039 -0.011718,0.0078 C 8.015625,11.234375 8.007812,11.242188 8,11.25 7.99219,11.2422 7.984375,11.23437 7.976562,11.22656 c -0.00391,-0.0039 -0.00781,-0.0078 -0.011718,-0.0078 -0.00391,-0.0078 -0.011719,-0.01563 -0.015625,-0.02344 -0.00391,0 -0.00391,-0.0039 -0.00781,-0.0039 -0.00391,-0.0078 -0.00781,-0.01563 -0.015625,-0.02344 0,-0.0039 -0.00391,-0.0078 -0.00781,-0.01172 -0.00391,-0.0078 -0.00781,-0.01172 -0.00781,-0.01953 -0.00391,-0.0078 -0.00781,-0.01172 -0.011718,-0.01953 0,-0.0039 0,-0.0078 -0.00391,-0.01172 -0.00391,-0.0039 -0.00391,-0.01172 -0.00781,-0.01953 0,-0.0078 0,-0.01172 -0.00391,-0.01563 0,-0.0078 0,-0.01562 -0.00391,-0.01953 0,-0.0039 0,-0.0078 0,-0.01172 C 7.875,11.03125 7.875,11.023438 7.875,11.015625 c 0,-0.0039 0,-0.01172 0,-0.01563 0,-0.0039 0,-0.01172 0,-0.01563 0,-0.0078 0,-0.01563 0.00391,-0.02344 0,-0.0039 0,-0.0078 0,-0.01172 0.00391,-0.0039 0.00391,-0.01172 0.00391,-0.01953 0.00391,-0.0039 0.00391,-0.0078 0.00391,-0.01563 0.00391,-0.0078 0.00391,-0.01562 0.00781,-0.01953 0.00391,-0.0039 0.00391,-0.0078 0.00391,-0.01172 0.00391,-0.0078 0.00781,-0.01172 0.011718,-0.01953 0,-0.0078 0.00391,-0.01172 0.00781,-0.01953 0.00391,-0.0039 0.00781,-0.0078 0.00781,-0.01172 0.00781,-0.0078 0.011719,-0.01563 0.015625,-0.02344 0.00391,0 0.00391,-0.0039 0.00781,-0.0039 0.00391,-0.0078 0.011719,-0.01563 0.015625,-0.02344 0.00391,0 0.00781,-0.0039 0.011718,-0.0078 C 7.984375,10.765625 7.992188,10.757812 8,10.75 Z m 0,0"
       id="path9"
       inkscape:connector-curvature="0" />
    <path
       style="fill:#ffffff;fill-opacity:0.2;fill-rule:nonzero;stroke:none"
       d="M 3.625,1.75 C 3.277344,1.75 3,2.027344 3,2.375 l 0,0.5 C 3,2.527344 3.277344,2.25 3.625,2.25 l 5.625,0 c 0,-0.5 0,0 0,-0.5 z m 0,0"
       id="path11"
       inkscape:connector-curvature="0" />
  </g>
</svg>
