<?xml version="1.0" encoding="UTF-8" standalone="no"?>
<svg
   xmlns:dc="http://purl.org/dc/elements/1.1/"
   xmlns:cc="http://creativecommons.org/ns#"
   xmlns:rdf="http://www.w3.org/1999/02/22-rdf-syntax-ns#"
   xmlns:svg="http://www.w3.org/2000/svg"
   xmlns="http://www.w3.org/2000/svg"
   xmlns:sodipodi="http://sodipodi.sourceforge.net/DTD/sodipodi-0.dtd"
   xmlns:inkscape="http://www.inkscape.org/namespaces/inkscape"
   width="16px"
   height="16px"
   viewBox="0 0 16 16"
   version="1.1"
   id="svg2"
   inkscape:version="0.91 r"
   sodipodi:docname="text-x-script.svg">
  <metadata
     id="metadata19">
    <rdf:RDF>
      <cc:Work
         rdf:about="">
        <dc:format>image/svg+xml</dc:format>
        <dc:type
           rdf:resource="http://purl.org/dc/dcmitype/StillImage" />
      </cc:Work>
    </rdf:RDF>
  </metadata>
  <defs
     id="defs17" />
  <sodipodi:namedview
     pagecolor="#ffffff"
     bordercolor="#666666"
     borderopacity="1"
     objecttolerance="10"
     gridtolerance="10"
     guidetolerance="10"
     inkscape:pageopacity="0"
     inkscape:pageshadow="2"
     inkscape:window-width="1535"
     inkscape:window-height="876"
     id="namedview15"
     showgrid="false"
     inkscape:zoom="14.75"
     inkscape:cx="-4.0338983"
     inkscape:cy="8"
     inkscape:window-x="65"
     inkscape:window-y="24"
     inkscape:window-maximized="1"
     inkscape:current-layer="svg2" />
  <g
     id="surface1"
     transform="matrix(1.2,0,0,1.2,-1.6,-1.1)">
    <path
       style="fill:#787878;fill-opacity:1;fill-rule:nonzero;stroke:none"
       d="M 3.625,1.75 C 3.277344,1.75 3,2.027344 3,2.375 l 0,11.25 c 0,0.347656 0.277344,0.625 0.625,0.625 l 8.75,0 C 12.722656,14.25 13,13.972656 13,13.625 L 13,5.5 9.5625,5.1875 9.25,1.75 Z m 0,0"
       id="path5"
       inkscape:connector-curvature="0" />
    <path
       style="fill:#a8a8a8;fill-opacity:1;fill-rule:nonzero;stroke:none"
       d="m 9.25,1.75 0,3.125 C 9.25,5.21875 9.53125,5.5 9.875,5.5 L 13,5.5 Z m 0,0"
       id="path7"
       inkscape:connector-curvature="0" />
    <path
       style="fill:#ffffff;fill-opacity:0.2;fill-rule:nonzero;stroke:none"
       d="M 3.625,1.75 C 3.277344,1.75 3,2.027344 3,2.375 l 0,0.5 C 3,2.527344 3.277344,2.25 3.625,2.25 l 5.625,0 0,-0.5 z m 0,0"
       id="path9"
       inkscape:connector-curvature="0" />
    <path
       style="fill:#ffffff;fill-opacity:1;fill-rule:nonzero;stroke:none"
       d="m 5.066406,4.574219 c 0,0.070312 -0.015625,0.136719 -0.039062,0.195312 C 5,4.828125 4.964844,4.878906 4.917969,4.917969 4.871094,4.960938 4.8125,5 4.746094,5.027344 4.675781,5.054688 4.601562,5.074219 4.515625,5.085938 l 0,0.351562 -0.210937,0 0,-0.335938 c -0.050782,0 -0.101563,-0.00391 -0.152344,-0.00781 C 4.097656,5.089844 4.050781,5.082031 4,5.074219 3.953125,5.0625 3.90625,5.050781 3.863281,5.039062 3.820312,5.027344 3.78125,5.011719 3.75,4.992188 l 0,-0.261719 C 3.785156,4.746094 3.820312,4.765625 3.867188,4.78125 3.910156,4.796875 3.957031,4.8125 4.007812,4.824219 4.054688,4.839844 4.105469,4.851562 4.15625,4.859375 4.207031,4.867188 4.257812,4.871094 4.304688,4.871094 l 0,-0.664063 C 4.214844,4.179688 4.136719,4.144531 4.070312,4.113281 4.003906,4.078125 3.949219,4.042969 3.902344,4 3.859375,3.953125 3.828125,3.90625 3.804688,3.847656 3.785156,3.792969 3.773438,3.726562 3.773438,3.652344 3.773438,3.582031 3.785156,3.523438 3.8125,3.464844 3.835938,3.410156 3.871094,3.359375 3.917969,3.316406 3.964844,3.273438 4.019531,3.242188 4.085938,3.214844 4.152344,3.1875 4.226562,3.167969 4.304688,3.160156 l 0,-0.277344 0.210937,0 0,0.269532 c 0.101563,0.00391 0.195313,0.019531 0.28125,0.039062 0.085937,0.023438 0.164063,0.050782 0.230469,0.082032 L 4.929688,3.492188 C 4.871094,3.46875 4.808594,3.445312 4.734375,3.425781 4.664062,3.402344 4.589844,3.390625 4.515625,3.382812 l 0,0.644532 c 0.089844,0.03125 0.167969,0.0625 0.238281,0.097656 0.066406,0.035156 0.125,0.070312 0.171875,0.113281 C 4.972656,4.28125 5.007812,4.328125 5.03125,4.382812 5.054688,4.4375 5.066406,4.5 5.066406,4.574219 Z m -0.269531,0 c 0,-0.03125 -0.00391,-0.0625 -0.015625,-0.089844 C 4.769531,4.453125 4.753906,4.429688 4.734375,4.40625 4.710938,4.382812 4.683594,4.363281 4.648438,4.34375 4.613281,4.324219 4.566406,4.304688 4.515625,4.285156 l 0,0.570313 C 4.609375,4.839844 4.679688,4.808594 4.726562,4.757812 4.773438,4.710938 4.796875,4.648438 4.796875,4.574219 Z M 4.042969,3.65625 c 0,0.035156 0.00391,0.070312 0.011719,0.097656 0.00781,0.027344 0.023437,0.054688 0.042968,0.078125 0.023438,0.023438 0.050782,0.046875 0.082032,0.066407 0.035156,0.019531 0.074218,0.035156 0.125,0.054687 l 0,-0.5625 C 4.214844,3.40625 4.148438,3.4375 4.105469,3.484375 4.0625,3.527344 4.042969,3.585938 4.042969,3.65625 Z m 0,0"
       id="path11"
       inkscape:connector-curvature="0" />
    <path
       style="fill:#ffffff;fill-opacity:1;fill-rule:nonzero;stroke:none"
       d="m 6.574219,5.75 -1.296875,0 0,-0.214844 1.296875,0 z m 0,0"
       id="path13"
       inkscape:connector-curvature="0" />
  </g>
</svg>
