<?xml version="1.0" encoding="UTF-8"?>
<svg xmlns="http://www.w3.org/2000/svg" xmlns:xlink="http://www.w3.org/1999/xlink" width="16px" height="16px" viewBox="0 0 16 16" version="1.1">
<g id="surface1">
<path style=" stroke:none;fill-rule:nonzero;fill:rgb(96.078431%,43.137255%,17.254902%);fill-opacity:1;" d="M 8 0 C 4.132812 0 1 3.132812 1 7 L 1 11.5 C 1 13.285156 2.269531 13.769531 3 13.902344 L 3 7 C 3 4.230469 5.230469 2 8 2 C 10.769531 2 13 4.230469 13 7 L 13 13.90625 C 13.730469 13.773438 15 13.285156 15 11.5 L 15 7 C 15 3.132812 11.867188 0 8 0 Z M 8 0 "/>
<path style=" stroke:none;fill-rule:nonzero;fill:rgb(96.862745%,54.509804%,33.72549%);fill-opacity:1;" d="M 3 8 L 3 15 L 5.5 15 L 5.5 8 Z M 10.5 8 L 10.5 15 L 13 15 L 13 8 Z M 10.5 8 "/>
<path style=" stroke:none;fill-rule:nonzero;fill:rgb(100%,100%,100%);fill-opacity:0.101961;" d="M 8 0 C 4.132812 0 1 3.132812 1 7 L 1 7.5 C 1 3.632812 4.132812 0.5 8 0.5 C 11.867188 0.5 15 3.632812 15 7.5 L 15 7 C 15 3.132812 11.867188 0 8 0 Z M 8 0 "/>
<path style=" stroke:none;fill-rule:nonzero;fill:rgb(100%,100%,100%);fill-opacity:0.101961;" d="M 3 8 L 3 8.5 L 5.5 8.5 L 5.5 8 Z M 10.5 8 L 10.5 8.5 L 13 8.5 L 13 8 Z M 10.5 8 "/>
<path style=" stroke:none;fill-rule:nonzero;fill:rgb(0%,0%,0%);fill-opacity:0.301961;" d="M 8 1.5 C 5.230469 1.5 3 3.730469 3 6.5 L 3 7 C 3 4.230469 5.230469 2 8 2 C 10.769531 2 13 4.230469 13 7 L 13 6.5 C 13 3.730469 10.769531 1.5 8 1.5 Z M 1 11 L 1 11.5 C 1 13.285156 2.269531 13.769531 3 13.902344 L 3 13.402344 C 2.269531 13.269531 1 12.785156 1 11 Z M 15 11 C 15 12.785156 13.730469 13.273438 13 13.40625 L 13 13.90625 C 13.730469 13.773438 15 13.285156 15 11.5 Z M 3 14.5 L 3 15 L 5.5 15 L 5.5 14.5 Z M 10.5 14.5 L 10.5 15 L 13 15 L 13 14.5 Z M 10.5 14.5 "/>
</g>
</svg>
