<?xml version="1.0" encoding="UTF-8" standalone="no"?>
<svg id="svg2" xmlns:rdf="http://www.w3.org/1999/02/22-rdf-syntax-ns#" xmlns="http://www.w3.org/2000/svg" height="16px" width="16px" version="1.1" xmlns:cc="http://creativecommons.org/ns#" xmlns:dc="http://purl.org/dc/elements/1.1/" viewBox="0 0 16 16">
 <metadata id="metadata17">
  <rdf:RDF>
   <cc:Work rdf:about="">
    <dc:format>image/svg+xml</dc:format>
    <dc:type rdf:resource="http://purl.org/dc/dcmitype/StillImage"/>
   </cc:Work>
  </rdf:RDF>
 </metadata>
 <g id="surface1" transform="translate(-.5 .5)">
  <path id="path5" d="m8 4.25c-2.0703 0-3.75 1.6797-3.75 3.75s1.6797 3.75 3.75 3.75 3.75-1.6797 3.75-3.75-1.68-3.75-3.75-3.75zm0 2.25c0.8281 0 1.5 0.6719 1.5 1.5s-0.6719 1.5-1.5 1.5-1.5-0.6719-1.5-1.5 0.6719-1.5 1.5-1.5z" fill-opacity=".30196"/>
  <path id="path7" d="m8 0.5c-4.1562 0-7.5 3.3438-7.5 7.5s3.3438 7.5 7.5 7.5 7.5-3.3438 7.5-7.5-3.344-7.5-7.5-7.5zm0 4.5c1.6562 0 3 1.3438 3 3s-1.3438 3-3 3-3-1.3438-3-3 1.3438-3 3-3z" fill="#d1d1d1"/>
  <path id="path9" d="m8 0.5c4.1523 0 7.4922 3.3438 7.4922 7.5 0 0.0625-0.0039 0.125-0.0039 0.1875-0.097-4.0664-3.398-7.3125-7.488-7.3125-4.0898 0-7.3906 3.2461-7.4883 7.3125 0.00002-0.0625-0.00389-0.125-0.00389-0.1875 0-4.1562 3.3399-7.5 7.4922-7.5zm1.4805 7.6875c0.0078 0.0625 0.0195 0.125 0.0195 0.1875 0 0.8281-0.6719 1.5-1.5 1.5s-1.5-0.6719-1.5-1.5c0-0.0625 0.0117-0.125 0.0195-0.1875 0.0938 0.7383 0.7149 1.3125 1.4805 1.3125 0.7617 0 1.3867-0.5742 1.4805-1.3125z" fill-opacity=".4" fill="#fff"/>
  <path id="path11" d="m0.51172 7.75c0 0.0859-0.01172 0.1641-0.01172 0.25 0 4.1562 3.3438 7.5 7.5 7.5s7.5-3.3438 7.5-7.5c0-0.0859-0.012-0.1641-0.012-0.25-0.133 4.035-3.418 7.25-7.488 7.25-4.0703 0-7.3555-3.215-7.4883-7.25z" fill-opacity=".30196"/>
 </g>
</svg>
