<?xml version="1.0" encoding="UTF-8" standalone="no"?>
<svg
   xmlns:dc="http://purl.org/dc/elements/1.1/"
   xmlns:cc="http://creativecommons.org/ns#"
   xmlns:rdf="http://www.w3.org/1999/02/22-rdf-syntax-ns#"
   xmlns:svg="http://www.w3.org/2000/svg"
   xmlns="http://www.w3.org/2000/svg"
   xmlns:sodipodi="http://sodipodi.sourceforge.net/DTD/sodipodi-0.dtd"
   xmlns:inkscape="http://www.inkscape.org/namespaces/inkscape"
   width="16px"
   height="16px"
   viewBox="0 0 16 16"
   version="1.1"
   id="svg2"
   inkscape:version="0.91 r"
   sodipodi:docname="x-content-ebook-reader.svg">
  <metadata
     id="metadata21">
    <rdf:RDF>
      <cc:Work
         rdf:about="">
        <dc:format>image/svg+xml</dc:format>
        <dc:type
           rdf:resource="http://purl.org/dc/dcmitype/StillImage" />
      </cc:Work>
    </rdf:RDF>
  </metadata>
  <defs
     id="defs19" />
  <sodipodi:namedview
     pagecolor="#ffffff"
     bordercolor="#666666"
     borderopacity="1"
     objecttolerance="10"
     gridtolerance="10"
     guidetolerance="10"
     inkscape:pageopacity="0"
     inkscape:pageshadow="2"
     inkscape:window-width="1535"
     inkscape:window-height="876"
     id="namedview17"
     showgrid="false"
     inkscape:zoom="14.75"
     inkscape:cx="-4.0338983"
     inkscape:cy="8"
     inkscape:window-x="65"
     inkscape:window-y="24"
     inkscape:window-maximized="1"
     inkscape:current-layer="svg2" />
  <g
     id="surface1"
     transform="translate(-0.5,0)">
    <path
       style="fill:#8a7a5e;fill-opacity:1;fill-rule:nonzero;stroke:none"
       d="M 3.25,1 C 2.835938,1 2.5,1.335938 2.5,1.75 l 0,12.5 C 2.5,14.664062 2.835938,15 3.25,15 l 9.5,0 c 0.414062,0 0.75,-0.335938 0.75,-0.75 l 0,-12.5 C 13.5,1.335938 13.164062,1 12.75,1 Z m 0,0"
       id="path5"
       inkscape:connector-curvature="0" />
    <path
       style="fill:#000000;fill-opacity:0.2;fill-rule:nonzero;stroke:none"
       d="M 3.25,1 C 2.835938,1 2.5,1.335938 2.5,1.75 l 0,12.5 C 2.5,14.664062 2.835938,15 3.25,15 l 1.25,0 0,-14 z m 0,0"
       id="path7"
       inkscape:connector-curvature="0" />
    <path
       style="fill:#000000;fill-opacity:0.2;fill-rule:nonzero;stroke:none"
       d="m 9.5,1.5 0,7 1,-1 1,1 0,-7 z m 0,0"
       id="path9"
       inkscape:connector-curvature="0" />
    <path
       style="fill:#ee3838;fill-opacity:1;fill-rule:nonzero;stroke:none"
       d="m 9.5,1 0,7 1,-1 1,1 0,-7 z m 0,0"
       id="path11"
       inkscape:connector-curvature="0" />
    <path
       style="fill:#ffffff;fill-opacity:0.2;fill-rule:nonzero;stroke:none"
       d="M 3.25,1 C 2.835938,1 2.5,1.335938 2.5,1.75 l 0,0.5 C 2.5,1.835938 2.835938,1.5 3.25,1.5 l 9.5,0 c 0.414062,0 0.75,0.335938 0.75,0.75 l 0,-0.5 C 13.5,1.335938 13.164062,1 12.75,1 Z m 0,0"
       id="path13"
       inkscape:connector-curvature="0" />
    <path
       style="fill:#000000;fill-opacity:0.30196102;fill-rule:nonzero;stroke:none"
       d="m 2.5,13.75 0,0.5 C 2.5,14.664062 2.835938,15 3.25,15 l 9.5,0 c 0.414062,0 0.75,-0.335938 0.75,-0.75 l 0,-0.5 c 0,0.414062 -0.335938,0.75 -0.75,0.75 l -9.5,0 C 2.835938,14.5 2.5,14.164062 2.5,13.75 Z m 0,0"
       id="path15"
       inkscape:connector-curvature="0" />
  </g>
</svg>
