<?xml version="1.0" encoding="UTF-8" standalone="no"?>
<svg id="svg2" xmlns:rdf="http://www.w3.org/1999/02/22-rdf-syntax-ns#" xmlns="http://www.w3.org/2000/svg" height="16px" width="16px" version="1.1" xmlns:cc="http://creativecommons.org/ns#" xmlns:dc="http://purl.org/dc/elements/1.1/" viewBox="0 0 16 16">
 <metadata id="metadata23">
  <rdf:RDF>
   <cc:Work rdf:about="">
    <dc:format>image/svg+xml</dc:format>
    <dc:type rdf:resource="http://purl.org/dc/dcmitype/StillImage"/>
   </cc:Work>
  </rdf:RDF>
 </metadata>
 <g id="g4163" transform="translate(-.5 .5)">
  <path id="path5" d="m5.5 1.5-1 1v1.5h-4v9.25c0 0.414 0.33594 0.75 0.75 0.75h12.5c0.41406 0 0.75-0.33594 0.75-0.75v-9.25h-4v-1.5l-1-1zm0 1h4v1.5h-4z" fill="#e6e6e6"/>
  <path id="path7" d="m5.5 2v0.5h4v-0.5zm-5 10.75v0.5c0 0.414 0.33594 0.75 0.75 0.75h12.5c0.41406 0 0.75-0.33594 0.75-0.75v-0.5c0 0.41406-0.33594 0.75-0.75 0.75h-12.5c-0.41406 0-0.75-0.336-0.75-0.75z" fill-opacity=".30196"/>
  <path id="path9" d="m0.5 4h14v5h-14z" fill-opacity=".050980"/>
  <path id="path15" d="m5.5 1.5-1 1v0.5l1-1h4l1 1v-0.5l-1-1zm-5 2.5v0.5h4v-0.5zm5 0v0.5h4v-0.5zm5 0v0.5h4v-0.5z" fill-opacity=".10196" fill="#fff"/>
  <g id="g4158" transform="translate(.5)">
   <path id="path11" d="m15 11.75c0 2.07-1.68 3.75-3.75 3.75-2.0703 0-3.75-1.68-3.75-3.75 0-2.0703 1.6797-3.75 3.75-3.75 2.07 0 3.75 1.6797 3.75 3.75z" fill-rule="evenodd" fill="#4ab3e3"/>
   <path id="path13" d="m12 9.4805v2.0195l0.75-0.02-1.5 2.02-1.5-2.0195h0.75v-2zm-2.5 4.0195h3.5v0.5h-3.5z" fill="#fff"/>
   <path id="path17" d="m14.988 11.473c-0.117 1.98-1.754 3.523-3.738 3.527-1.9609 0-3.5938-1.516-3.7383-3.473-0.0078 0.075-0.0117 0.149-0.0117 0.223 0 2.0703 1.6797 3.75 3.75 3.75s3.75-1.6797 3.75-3.75c0-0.09375-0.0039-0.1875-0.01172-0.27734z" fill-opacity=".30196" fill-rule="evenodd"/>
  </g>
 </g>
</svg>
