<?xml version="1.0" encoding="UTF-8" standalone="no"?>
<!-- Created with Inkscape (http://www.inkscape.org/) -->

<svg
   xmlns:dc="http://purl.org/dc/elements/1.1/"
   xmlns:cc="http://creativecommons.org/ns#"
   xmlns:rdf="http://www.w3.org/1999/02/22-rdf-syntax-ns#"
   xmlns:svg="http://www.w3.org/2000/svg"
   xmlns="http://www.w3.org/2000/svg"
   xmlns:sodipodi="http://sodipodi.sourceforge.net/DTD/sodipodi-0.dtd"
   xmlns:inkscape="http://www.inkscape.org/namespaces/inkscape"
   width="16"
   height="16"
   id="svg5048"
   version="1.1"
   inkscape:version="0.91 r13725"
   sodipodi:docname="kde.svg">
  <defs
     id="defs5050">
    <style
       id="current-color-scheme"
       type="text/css">      .ColorScheme-Text {
        color:#31363b;
      }
      .ColorScheme-Background{
        color:#eff0f1;
      }
      .ColorScheme-ViewText {
        color:#31363b;
      }
      .ColorScheme-ViewBackground{
        color:#fcfcfc;
      }
      .ColorScheme-ViewHover {
        color:#3daee9;
      }
      .ColorScheme-ViewFocus{
        color:#3daee9;
      }
      .ColorScheme-ButtonText {
        color:#31363b;
      }
      .ColorScheme-ButtonBackground{
        color:#eff0f1;
      }
      .ColorScheme-ButtonHover {
        color:#3daee9;
      }
      .ColorScheme-ButtonFocus{
        color:#3daee9;
      }</style>
  </defs>
  <sodipodi:namedview
     id="base"
     pagecolor="#ffffff"
     bordercolor="#666666"
     borderopacity="1.0"
     inkscape:pageopacity="0.0"
     inkscape:pageshadow="2"
     inkscape:zoom="6.56"
     inkscape:cx="14.607973"
     inkscape:cy="7.848994"
     inkscape:document-units="px"
     inkscape:current-layer="layer1"
     showgrid="false"
     inkscape:window-width="1600"
     inkscape:window-height="845"
     inkscape:window-x="0"
     inkscape:window-y="31"
     inkscape:window-maximized="1">
    <inkscape:grid
       type="xygrid"
       id="grid3011"
       empspacing="5"
       visible="true"
       enabled="true"
       snapvisiblegridlinesonly="true" />
  </sodipodi:namedview>
  <metadata
     id="metadata5053">
    <rdf:RDF>
      <cc:Work
         rdf:about="">
        <dc:format>image/svg+xml</dc:format>
        <dc:type
           rdf:resource="http://purl.org/dc/dcmitype/StillImage" />
        <dc:title></dc:title>
      </cc:Work>
    </rdf:RDF>
  </metadata>
  <g
     inkscape:label="Layer 1"
     inkscape:groupmode="layer"
     id="layer1"
     transform="translate(0,-1036.3622)">
    <rect
       style="fill:#8b9299;fill-opacity:0;stroke:none"
       id="rect3024"
       width="20"
       height="60"
       x="864"
       y="543"
       transform="translate(0,52.36218)"
       ry="10" />
    <rect
       style="opacity:0;fill:#ffffff;fill-opacity:1;stroke:none"
       id="rect3861"
       width="32"
       height="32"
       x="0"
       y="1020.3622" />
    <path
       style="color:#31363b;opacity:0.72;fill:#ffffff;fill-opacity:1"
       d="M 9 1 L 7 1.5 L 7 10.900391 L 8.9882812 10.5 L 8.9882812 6.4238281 L 12.5 11 L 14.699219 10.5 L 11 5.8222656 L 14 1.5 L 12 1 L 8.9882812 5.25 L 9 1 z M 3.5332031 3 C 3.5059501 3 3.4775473 3.0082969 3.4570312 3.0292969 L 2.5097656 3.9707031 C 2.4699716 4.0107031 2.4649266 4.0715406 2.4941406 4.1191406 L 3.5996094 5.9355469 C 3.4030193 6.2638469 3.2451942 6.6168344 3.1328125 6.9902344 L 1.0976562 7.4101562 C 1.0410518 7.4211563 1 7.47335 1 7.53125 L 1 8.8613281 C 1 8.9183281 1.0428643 8.9653156 1.0976562 8.9785156 L 3.0703125 9.4550781 C 3.1757743 9.8873781 3.3390252 10.300934 3.5546875 10.677734 L 2.4101562 12.40625 C 2.3782702 12.45525 2.3846733 12.519847 2.4257812 12.560547 L 3.3730469 13.501953 C 3.4129649 13.540953 3.4752382 13.544625 3.5234375 13.515625 L 5.3144531 12.4375 C 5.665941 12.639 6.0463837 12.800703 6.4472656 12.908203 L 6.8652344 14.902344 C 6.8769354 14.959344 6.926411 15 6.984375 15 L 8.3222656 15 C 8.3784576 15 8.4280573 14.962203 8.4414062 14.908203 L 8.9355469 12.904297 C 9.3489929 12.793597 9.7390578 12.628769 10.099609 12.417969 L 11.865234 13.568359 C 11.913934 13.599359 11.978252 13.594734 12.019531 13.552734 L 12.962891 12.611328 C 13.002931 12.571328 13.011752 12.510491 12.982422 12.462891 L 12.339844 11.410156 L 12.128906 11.476562 C 12.098426 11.486562 12.063042 11.476312 12.044922 11.445312 C 12.044922 11.445312 11.639983 10.851678 11.109375 10.080078 C 10.474786 11.313478 9.1800168 12.15625 7.6894531 12.15625 C 5.5713852 12.15625 3.8535156 10.449703 3.8535156 8.3457031 C 3.8535156 6.7980031 4.7849968 5.4675938 6.1191406 4.8710938 L 6.1191406 3.8886719 C 5.8763303 3.9726719 5.640923 4.0765656 5.4179688 4.1972656 L 3.6113281 3.0195312 C 3.5870211 3.0045312 3.5604531 2.9999063 3.5332031 3.0039062 L 3.5332031 3 z "
       transform="translate(0,1036.3622)"
       id="path4140" />
  </g>
</svg>
