<?xml version="1.0" encoding="UTF-8" standalone="no"?>
<!-- Created with Inkscape (http://www.inkscape.org/) -->

<svg
   xmlns:dc="http://purl.org/dc/elements/1.1/"
   xmlns:cc="http://creativecommons.org/ns#"
   xmlns:rdf="http://www.w3.org/1999/02/22-rdf-syntax-ns#"
   xmlns:svg="http://www.w3.org/2000/svg"
   xmlns="http://www.w3.org/2000/svg"
   xmlns:sodipodi="http://sodipodi.sourceforge.net/DTD/sodipodi-0.dtd"
   xmlns:inkscape="http://www.inkscape.org/namespaces/inkscape"
   id="svg4358"
   height="32"
   width="32"
   version="1.1"
   viewBox="0 0 32 32"
   inkscape:version="0.91 r"
   sodipodi:docname="text-x-qml.svg">
  <sodipodi:namedview
     pagecolor="#ffffff"
     bordercolor="#666666"
     borderopacity="1"
     objecttolerance="10"
     gridtolerance="10"
     guidetolerance="10"
     inkscape:pageopacity="0"
     inkscape:pageshadow="2"
     inkscape:window-width="1535"
     inkscape:window-height="876"
     id="namedview16"
     showgrid="false"
     inkscape:zoom="8.08"
     inkscape:cx="-4.7633523"
     inkscape:cy="-3.5917734"
     inkscape:window-x="65"
     inkscape:window-y="24"
     inkscape:window-maximized="1"
     inkscape:current-layer="svg4358" />
  <defs
     id="defs4360" />
  <metadata
     id="metadata4363">
    <rdf:RDF>
      <cc:Work
         rdf:about="">
        <dc:format>image/svg+xml</dc:format>
        <dc:type
           rdf:resource="http://purl.org/dc/dcmitype/StillImage" />
        <dc:title></dc:title>
      </cc:Work>
    </rdf:RDF>
  </metadata>
  <path
     id="path4750"
     d="M 7.25,4 C 6.5575,4 6,4.5575 6,5.25 l 0,22.5 C 6,28.4425 6.5575,29 7.25,29 l 17.5,0 C 25.4425,29 26,28.4425 26,27.75 L 26,11.5 19.125,10.875 18.5,4 Z"
     inkscape:connector-curvature="0"
     style="fill:#607d8b;fill-opacity:1" />
  <path
     id="path4756"
     d="m 18.5,4 0,6.25 c 0,0.690375 0.559643,1.25 1.25,1.25 L 26,11.5 18.5,4 Z"
     inkscape:connector-curvature="0"
     style="fill:#b1d1e0;fill-opacity:1" />
  <path
     inkscape:connector-curvature="0"
     style="color:#000000;text-indent:0;text-decoration:none;text-decoration-line:none;text-decoration-style:solid;text-decoration-color:#000000;text-transform:none;block-progression:tb;white-space:normal;opacity:1;isolation:auto;mix-blend-mode:normal;solid-color:#000000;fill:#ffffff;fill-opacity:1;fill-rule:evenodd;color-rendering:auto;image-rendering:auto;shape-rendering:auto"
     d="m 13.228885,14.897046 a 0.59877772,0.59965155 0 0 0 -0.05657,9.65e-4 0.59877772,0.59965155 0 0 0 -0.158403,0.033 c 0,0 -0.374743,0.123862 -0.808988,0.352636 -0.43422,0.22878 -0.961697,0.549234 -1.301171,1.099394 -0.377892,0.612304 -0.234439,1.267451 -0.116917,1.659464 0.117523,0.392013 0.182093,0.563483 0.07354,0.82596 -0.05301,0.128169 -0.378159,0.408254 -0.733558,0.582698 -0.3556385,0.174482 -0.6779282,0.265891 -0.6779282,0.265891 a 0.59877772,0.59965155 0 0 0 -0.4280682,0.73733 0.59877772,0.59965155 0 0 0 0.4280662,0.719415 c 0,0 0.3225355,0.09144 0.6779282,0.265891 0.355406,0.174445 0.680572,0.455472 0.733559,0.583641 0.108547,0.262447 0.04398,0.433917 -0.07354,0.82596 -0.117523,0.392013 -0.26097,1.047101 0.116917,1.659464 0.339521,0.550155 0.86698,0.87059 1.30117,1.099394 0.434221,0.22878 0.808988,0.352636 0.808988,0.352636 a 0.59877772,0.59965155 0 1 0 0.377151,-1.137109 c 0,0 -0.284938,-0.09647 -0.627956,-0.277207 -0.343036,-0.180733 -0.710421,-0.459262 -0.840103,-0.669442 -0.146717,-0.237738 -0.09873,-0.319688 0.01037,-0.683586 0.109098,-0.36391 0.306313,-0.968479 0.033,-1.629291 -0.24205,-0.585212 -0.725279,-0.894904 -1.157853,-1.118252 0.432556,-0.223366 0.915791,-0.533062 1.157853,-1.118252 0.273315,-0.660809 0.0761,-1.2654 -0.033,-1.629291 -0.109098,-0.36391 -0.157085,-0.44586 -0.01037,-0.683586 0.129705,-0.210174 0.497097,-0.489644 0.840103,-0.670386 0.343035,-0.180734 0.627956,-0.276263 0.627956,-0.276263 a 0.59877772,0.59965155 0 0 0 -0.161234,-1.171075 l -9.65e-4,0 z m 5.539401,0 a 0.59877772,0.59965155 0 0 0 -0.159346,1.171052 c 0,0 0.284922,0.09553 0.627956,0.276263 0.343005,0.180742 0.710398,0.460212 0.840104,0.670386 0.146713,0.237726 0.09873,0.319675 -0.01037,0.683586 -0.1091,0.363891 -0.306315,0.968481 -0.033,1.629291 0.242062,0.585189 0.725297,0.894886 1.157853,1.118252 -0.432574,0.223348 -0.915803,0.533039 -1.157853,1.118252 -0.273311,0.66081 -0.0761,1.265381 0.033,1.629291 0.109102,0.363898 0.157089,0.445848 0.01037,0.683586 -0.129681,0.21018 -0.497069,0.488709 -0.840104,0.669442 -0.343018,0.180735 -0.627956,0.277207 -0.627956,0.277207 a 0.59877772,0.59965155 0 1 0 0.377151,1.137109 c 0,0 0.374768,-0.123856 0.808989,-0.352636 0.43419,-0.228804 0.961648,-0.549239 1.301169,-1.099394 0.377887,-0.612363 0.23444,-1.26745 0.116917,-1.659464 -0.11752,-0.392043 -0.182092,-0.563513 -0.07354,-0.82596 0.05299,-0.128169 0.378153,-0.409196 0.733558,-0.583641 0.355393,-0.174445 0.677928,-0.265891 0.677928,-0.265891 a 0.59877772,0.59965155 0 0 0 0.428066,-0.719415 0.59877772,0.59965155 0 0 0 -0.428066,-0.73733 c 0,0 -0.322289,-0.09141 -0.677928,-0.265891 -0.355398,-0.174445 -0.680548,-0.454529 -0.733558,-0.582698 -0.108548,-0.262478 -0.04398,-0.433947 0.07354,-0.82596 0.117523,-0.392013 0.260976,-1.04716 -0.116917,-1.659464 -0.339472,-0.550161 -0.86695,-0.870614 -1.301169,-1.099393 -0.434245,-0.228775 -0.809931,-0.352637 -0.809931,-0.352637 a 0.59877772,0.59965155 0 0 0 -0.157461,-0.033 0.59877772,0.59965155 0 0 0 -0.05752,-9.43e-4 0.59877772,0.59965155 0 0 0 -0.0019,0 z M 16,17.310811 A 1.2068824,1.2068824 0 0 0 14.793118,18.517693 1.2068824,1.2068824 0 0 0 16,19.724575 1.2068824,1.2068824 0 0 0 17.206883,18.517693 1.2068824,1.2068824 0 0 0 16,17.310811 Z m 0,3.620647 c -0.666561,0 -1.206882,0.540338 -1.206882,1.206882 0,0.666543 0.540339,1.206883 1.206882,1.206883 0.426615,0 0.603441,1.206882 0.603441,1.206882 0,0 0.603442,-2.173837 0.603442,-2.413765 0,-0.666561 -0.54034,-1.206882 -1.206883,-1.206882 z"
     id="path4176" />
  <path
     style="opacity:0.2;fill:#ffffff;fill-opacity:1"
     d="M 7.25,4 C 6.5575,4 6,4.5575 6,5.25 l 0,1 C 6,5.5575 6.5575,5 7.25,5 l 11.25,0 0,-1 z"
     id="path4165"
     inkscape:connector-curvature="0"
     sodipodi:nodetypes="sscsccs" />
</svg>
