<?xml version="1.0" encoding="UTF-8" standalone="no"?>
<!-- Created with Inkscape (http://www.inkscape.org/) -->

<svg
   xmlns:dc="http://purl.org/dc/elements/1.1/"
   xmlns:cc="http://creativecommons.org/ns#"
   xmlns:rdf="http://www.w3.org/1999/02/22-rdf-syntax-ns#"
   xmlns:svg="http://www.w3.org/2000/svg"
   xmlns="http://www.w3.org/2000/svg"
   xmlns:sodipodi="http://sodipodi.sourceforge.net/DTD/sodipodi-0.dtd"
   xmlns:inkscape="http://www.inkscape.org/namespaces/inkscape"
   width="16"
   height="16"
   id="svg3049"
   version="1.1"
   inkscape:version="0.91 r13725"
   sodipodi:docname="edit-paste-in-place.svg"
   inkscape:export-filename="/home/uri/.kde/share/icons/NITRUX-KDE/16x16/actions/view-right-new.png"
   inkscape:export-xdpi="30"
   inkscape:export-ydpi="30">
  <defs
     id="defs3051">
    <style
       type="text/css"
       id="current-color-scheme">
      .ColorScheme-Text {
        color:#4d4d4d;
      }
      .ColorScheme-Background {
        color:#eff0f1;
      }
      .ColorScheme-Highlight {
        color:#3daee9;
      }
      .ColorScheme-ViewText {
        color:#31363b;
      }
      .ColorScheme-ViewBackground {
        color:#fcfcfc;
      }
      .ColorScheme-ViewHover {
        color:#93cee9;
      }
      .ColorScheme-ViewFocus{
        color:#3daee9;
      }
      .ColorScheme-ButtonText {
        color:#31363b;
      }
      .ColorScheme-ButtonBackground {
        color:#eff0f1;
      }
      .ColorScheme-ButtonHover {
        color:#93cee9;
      }
      .ColorScheme-ButtonFocus{
        color:#3daee9;
      }
      </style>
  </defs>
  <sodipodi:namedview
     id="base"
     pagecolor="#ffffff"
     bordercolor="#666666"
     borderopacity="1.0"
     inkscape:pageopacity="0.0"
     inkscape:pageshadow="2"
     inkscape:zoom="22.62"
     inkscape:cx="10.249337"
     inkscape:cy="6.0752665"
     inkscape:document-units="px"
     inkscape:current-layer="layer1"
     showgrid="false"
     fit-margin-top="0"
     fit-margin-left="0"
     fit-margin-right="0"
     fit-margin-bottom="0"
     inkscape:window-width="1600"
     inkscape:window-height="847"
     inkscape:window-x="0"
     inkscape:window-y="30"
     inkscape:window-maximized="1"
     inkscape:showpageshadow="false"
     borderlayer="true"
     inkscape:snap-bbox="true"
     inkscape:snap-global="true"
     inkscape:object-nodes="true"
     showguides="false">
    <inkscape:grid
       type="xygrid"
       id="grid4085" />
    <sodipodi:guide
       position="2.0000044,14.00003"
       orientation="12,0"
       id="guide4075" />
    <sodipodi:guide
       position="2.0000044,2.0000296"
       orientation="0,12"
       id="guide4077" />
    <sodipodi:guide
       position="14.000004,2.0000296"
       orientation="-12,0"
       id="guide4079" />
    <sodipodi:guide
       position="14.000004,14.00003"
       orientation="0,-12"
       id="guide4081" />
  </sodipodi:namedview>
  <metadata
     id="metadata3054">
    <rdf:RDF>
      <cc:Work
         rdf:about="">
        <dc:format>image/svg+xml</dc:format>
        <dc:type
           rdf:resource="http://purl.org/dc/dcmitype/StillImage" />
        <dc:title />
      </cc:Work>
    </rdf:RDF>
  </metadata>
  <g
     inkscape:label="Capa 1"
     inkscape:groupmode="layer"
     id="layer1"
     transform="translate(-421.71429,-531.79074)">
    <path
       style="color:#4d4d4d;opacity:0.72;fill:#ffffff;fill-opacity:1;stroke:none;stroke-width:1;stroke-linecap:round;stroke-miterlimit:4;stroke-dasharray:none;stroke-opacity:1"
       d="M 8 1 C 5.23857 1.00001 3.00001 3.0886856 3 5.6660156 C 3.002 6.2217756 3.1107625 6.7727488 3.3203125 7.2929688 C 3.4719825 7.6841987 3.77686 8.1170656 3.96875 8.4160156 L 8 15 L 12.03125 8.4199219 C 12.34776 8.0519419 12.485414 7.6611987 12.683594 7.2929688 C 12.892324 6.7726088 12.99882 6.2216356 13 5.6660156 C 12.99999 3.0886856 10.76141 1.00001 8 1 z M 8 3 C 8.91531 3.00001 9.7805094 3.4178856 10.349609 4.1347656 C 10.474229 4.2914956 10.582838 4.4603019 10.673828 4.6386719 C 10.855678 4.9963419 10.963937 5.3868694 10.992188 5.7871094 C 10.997187 5.8580094 11 5.92896 11 6 C 10.99977 6.30065 10.954284 6.5995688 10.865234 6.8867188 C 10.815834 7.0425687 10.753767 7.1941138 10.679688 7.3398438 C 10.670687 7.3582438 10.662997 7.3763313 10.654297 7.3945312 C 10.136337 8.3810913 9.11429 8.9993 8 9 C 6.88571 8.9993 5.8636731 8.3810912 5.3457031 7.3945312 C 5.3012031 7.3099312 5.2608094 7.2232356 5.2246094 7.1347656 L 5.21875 7.1210938 C 5.18575 7.0384938 5.1564594 6.9543906 5.1308594 6.8691406 C 5.1268594 6.8574406 5.1229406 6.8457844 5.1191406 6.8339844 C 5.0969406 6.7540844 5.078 6.6732669 5.0625 6.5917969 C 5.0585 6.5748969 5.0545813 6.5579156 5.0507812 6.5410156 C 5.0353813 6.4569156 5.023625 6.3721994 5.015625 6.2871094 C 5.013625 6.2728094 5.0137188 6.2585406 5.0117188 6.2441406 C 5.0047187 6.1629406 5.0007 6.08151 5 6 C 5.00023 5.9002 5.005025 5.8004619 5.015625 5.7011719 C 5.096225 4.8944419 5.4999256 4.1546706 6.1347656 3.6503906 C 6.2914956 3.5257706 6.4603019 3.4171619 6.6386719 3.3261719 C 7.0603919 3.1116219 7.52684 2.99985 8 3 z "
       transform="translate(421.71429,531.79074)"
       id="path4142" />
  </g>
</svg>
