<?xml version="1.0" encoding="UTF-8" standalone="no"?>
<!-- Created with Inkscape (http://www.inkscape.org/) -->

<svg
   xmlns:dc="http://purl.org/dc/elements/1.1/"
   xmlns:cc="http://creativecommons.org/ns#"
   xmlns:rdf="http://www.w3.org/1999/02/22-rdf-syntax-ns#"
   xmlns:svg="http://www.w3.org/2000/svg"
   xmlns="http://www.w3.org/2000/svg"
   xmlns:sodipodi="http://sodipodi.sourceforge.net/DTD/sodipodi-0.dtd"
   xmlns:inkscape="http://www.inkscape.org/namespaces/inkscape"
   width="16"
   height="16"
   id="svg3049"
   version="1.1"
   inkscape:version="0.91 r13725"
   sodipodi:docname="im-identi.ca.svg"
   inkscape:export-filename="/home/uri/.kde/share/icons/NITRUX-KDE/16x16/actions/view-right-new.png"
   inkscape:export-xdpi="30"
   inkscape:export-ydpi="30">
  <defs
     id="defs3051" />
  <sodipodi:namedview
     id="base"
     pagecolor="#ffffff"
     bordercolor="#666666"
     borderopacity="1.0"
     inkscape:pageopacity="0.0"
     inkscape:pageshadow="2"
     inkscape:zoom="18.37"
     inkscape:cx="4.3238439"
     inkscape:cy="5.7750892"
     inkscape:document-units="px"
     inkscape:current-layer="layer1"
     showgrid="false"
     fit-margin-top="0"
     fit-margin-left="0"
     fit-margin-right="0"
     fit-margin-bottom="0"
     inkscape:window-width="1600"
     inkscape:window-height="847"
     inkscape:window-x="0"
     inkscape:window-y="30"
     inkscape:window-maximized="1"
     inkscape:showpageshadow="false"
     borderlayer="true"
     inkscape:snap-bbox="true"
     inkscape:snap-global="true"
     inkscape:object-nodes="true"
     showguides="false">
    <inkscape:grid
       type="xygrid"
       id="grid4085" />
    <sodipodi:guide
       position="2.0000044,14.00003"
       orientation="12,0"
       id="guide4075" />
    <sodipodi:guide
       position="2.0000044,2.0000296"
       orientation="2.4666676e-06,1"
       id="guide4077" />
    <sodipodi:guide
       position="14.000004,2.0000296"
       orientation="-12,0"
       id="guide4079" />
    <sodipodi:guide
       position="14.000004,14.00003"
       orientation="0,-12"
       id="guide4081" />
  </sodipodi:namedview>
  <metadata
     id="metadata3054">
    <rdf:RDF>
      <cc:Work
         rdf:about="">
        <dc:format>image/svg+xml</dc:format>
        <dc:type
           rdf:resource="http://purl.org/dc/dcmitype/StillImage" />
        <dc:title />
      </cc:Work>
    </rdf:RDF>
  </metadata>
  <g
     inkscape:label="Capa 1"
     inkscape:groupmode="layer"
     id="layer1"
     transform="translate(-421.71429,-531.79074)">
    <g
       transform="translate(418.71429,-501.57146)"
       id="layer1-8"
       inkscape:label="Capa 1">
      <path
         style="opacity:0.72;fill:#ffffff;fill-opacity:1;stroke:none"
         d="M 7 0 C 3.676 0 1 2.676 1 6 L 1 10 L 0 14 L 4 12 L 7 12 C 7.818565 12 8.5969556 11.835316 9.3066406 11.541016 C 9.1776526 11.230616 9.1022015 10.895381 9.0546875 10.550781 C 8.4270155 10.833481 7.735425 11 7 11 L 3.6757812 11 L 2 11 L 2 9.3242188 L 2 9 L 2 6 C 2 3.23 4.23 1 7 1 C 9.77 1 12 3.23 12 6 C 12 6.048 11.993487 6.093025 11.992188 6.140625 C 12.315527 6.056625 12.64972 6 13 6 C 13 2.676 10.324 0 7 0 z M 13 7 C 11.338 7 10 8.338 10 10 C 10 10.9781 10.47132 11.833859 11.191406 12.380859 L 13 16 L 14.808594 12.380859 C 15.52868 11.833859 16 10.9781 16 10 C 16 8.338 14.662 7 13 7 z "
         transform="translate(3,1033.3622)"
         id="path4163" />
      <path
         style="opacity:1;fill:#4d4d4d;fill-opacity:1;stroke:none"
         d="m 6,1042.3407 0,0.022 0.017578,0 c -0.00558,-0.01 -0.012038,-0.014 -0.017578,-0.022 z"
         id="rect4108" />
    </g>
  </g>
</svg>
