<?xml version="1.0" encoding="UTF-8" standalone="no"?>
<!-- Created with Inkscape (http://www.inkscape.org/) -->

<svg
   xmlns:dc="http://purl.org/dc/elements/1.1/"
   xmlns:cc="http://creativecommons.org/ns#"
   xmlns:rdf="http://www.w3.org/1999/02/22-rdf-syntax-ns#"
   xmlns:svg="http://www.w3.org/2000/svg"
   xmlns="http://www.w3.org/2000/svg"
   xmlns:sodipodi="http://sodipodi.sourceforge.net/DTD/sodipodi-0.dtd"
   xmlns:inkscape="http://www.inkscape.org/namespaces/inkscape"
   width="16"
   height="16"
   id="svg2"
   version="1.1"
   inkscape:version="0.91 r13725"
   viewBox="0 0 16 16"
   sodipodi:docname="kstars_horizon.svg">
  <defs
     id="defs4">
    <style
       type="text/css"
       id="current-color-scheme">
      .ColorScheme-Text {
        color:#4d4d4d;
      }
      .ColorScheme-Background {
        color:#eff0f1;
      }
      .ColorScheme-Highlight {
        color:#3daee9;
      }
      .ColorScheme-ViewText {
        color:#31363b;
      }
      .ColorScheme-ViewBackground {
        color:#fcfcfc;
      }
      .ColorScheme-ViewHover {
        color:#93cee9;
      }
      .ColorScheme-ViewFocus{
        color:#3daee9;
      }
      .ColorScheme-ButtonText {
        color:#31363b;
      }
      .ColorScheme-ButtonBackground {
        color:#eff0f1;
      }
      .ColorScheme-ButtonHover {
        color:#93cee9;
      }
      .ColorScheme-ButtonFocus{
        color:#3daee9;
      }
      </style>
  </defs>
  <sodipodi:namedview
     id="base"
     pagecolor="#ffffff"
     bordercolor="#666666"
     borderopacity="1.0"
     inkscape:pageopacity="0.0"
     inkscape:pageshadow="2"
     inkscape:zoom="27.272728"
     inkscape:cx="7.2829205"
     inkscape:cy="10.871306"
     inkscape:document-units="px"
     inkscape:current-layer="layer1"
     showgrid="false"
     inkscape:showpageshadow="false"
     units="px"
     inkscape:window-width="1600"
     inkscape:window-height="847"
     inkscape:window-x="0"
     inkscape:window-y="30"
     inkscape:window-maximized="1"
     inkscape:object-nodes="true"
     inkscape:snap-bbox="true"
     showguides="false">
    <inkscape:grid
       type="xygrid"
       id="grid4120" />
    <sodipodi:guide
       position="2,20.000017"
       orientation="18,0"
       id="guide4126" />
    <sodipodi:guide
       position="2,2.0000174"
       orientation="0,18"
       id="guide4128" />
    <sodipodi:guide
       position="20,2.0000174"
       orientation="-18,0"
       id="guide4130" />
    <sodipodi:guide
       position="20,20.000017"
       orientation="0,-18"
       id="guide4132" />
    <sodipodi:guide
       position="3,19.000017"
       orientation="16,0"
       id="guide4134" />
    <sodipodi:guide
       position="3,3.0000174"
       orientation="0,16"
       id="guide4136" />
    <sodipodi:guide
       position="19,3.0000174"
       orientation="-16,0"
       id="guide4138" />
    <sodipodi:guide
       position="19,19.000017"
       orientation="0,-16"
       id="guide4140" />
    <sodipodi:guide
       position="19,13.000017"
       orientation="-6,0"
       id="guide4199" />
    <sodipodi:guide
       position="19,19.000017"
       orientation="0,-6.0000172"
       id="guide4201" />
  </sodipodi:namedview>
  <metadata
     id="metadata7">
    <rdf:RDF>
      <cc:Work
         rdf:about="">
        <dc:format>image/svg+xml</dc:format>
        <dc:type
           rdf:resource="http://purl.org/dc/dcmitype/StillImage" />
        <dc:title></dc:title>
      </cc:Work>
    </rdf:RDF>
  </metadata>
  <g
     inkscape:label="Capa 1"
     inkscape:groupmode="layer"
     id="layer1"
     transform="translate(0,-1036.3622)">
    <g
       id="g4162"
       transform="translate(-3,3)">
      <path
         id="path4165"
         transform="translate(0,1030.3622)"
         d="m 3.0351562,10.263672 c -0.0022,0.02338 -0.00191,0.04691 -0.00391,0.07031 a 8,8 0 0 1 0.00781,-0.05859 c -9.666e-4,-0.0039 -0.00298,-0.0078 -0.00391,-0.01172 z M 4.015625,11.443359 A 7,7 0 0 0 11,18 7,7 0 0 0 17.976562,11.453125 C 16.603446,12.378431 13.987216,12.999946 11,13 8.0030182,12.999411 5.3838443,12.372731 4.015625,11.443359 Z M 18.964844,11.6875 a 8,8 0 0 1 -0.05469,0.453125 c 0.02153,-0.150395 0.04164,-0.300152 0.05469,-0.453125 z M 3.0410156,11.818359 c 0.081936,0.80681 0.2842741,1.577092 0.5878906,2.294922 A 8,8 0 0 1 3.0410156,11.818359 Z m 15.8203124,0.632813 a 8,8 0 0 1 -0.105469,0.482422 c 0.03963,-0.159325 0.07555,-0.319483 0.105469,-0.482422 z m -0.183594,0.783203 a 8,8 0 0 1 -0.152343,0.458984 c 0.05427,-0.151548 0.107112,-0.303363 0.152343,-0.458984 z m -0.259765,0.75 a 8,8 0 0 1 -0.208985,0.466797 c 0.07373,-0.153665 0.144971,-0.307885 0.208985,-0.466797 z M 3.6308594,14.115234 c 0.1039251,0.245482 0.21869,0.484571 0.3457031,0.716797 A 8,8 0 0 1 3.6308594,14.115234 Z M 18.09375,14.689453 a 8,8 0 0 1 -0.240234,0.421875 c 0.0833,-0.138531 0.16525,-0.278049 0.240234,-0.421875 z M 4.0800781,15 c 0.095218,0.164315 0.1905673,0.329683 0.296875,0.486328 A 8,8 0 0 1 4.0800781,15 Z m 13.5976559,0.398438 a 8,8 0 0 1 -0.232422,0.326171 c 0.07915,-0.107781 0.158637,-0.214373 0.232422,-0.326171 z m -13.0624996,0.40625 c 0.078494,0.104126 0.1529515,0.210466 0.2363281,0.310546 A 8,8 0 0 1 4.6152344,15.804688 Z M 17.216797,16.03125 a 8,8 0 0 1 -0.269531,0.304688 c 0.09059,-0.10088 0.184096,-0.199278 0.269531,-0.304688 z M 5.1210938,16.412109 c 0.085777,0.09312 0.1697061,0.188391 0.2597656,0.277344 A 8,8 0 0 1 5.1210938,16.412109 Z m 11.5683592,0.207032 a 8,8 0 0 1 -0.277344,0.259765 c 0.09312,-0.08578 0.188391,-0.169706 0.277344,-0.259765 z M 5.6640625,16.947266 c 0.1008795,0.09059 0.1992779,0.184096 0.3046875,0.269531 A 8,8 0 0 1 5.6640625,16.947266 Z m 10.4511715,0.201172 a 8,8 0 0 1 -0.310546,0.236328 c 0.104126,-0.0785 0.210466,-0.152952 0.310546,-0.236328 z m -9.8398434,0.296874 c 0.1077815,0.07915 0.2143735,0.158637 0.3261719,0.232422 A 8,8 0 0 1 6.2753906,17.445312 Z m 9.2109374,0.177735 A 8,8 0 0 1 15,17.919922 c 0.164315,-0.09522 0.329683,-0.190567 0.486328,-0.296875 z m -8.5976561,0.230469 c 0.1385316,0.0833 0.2780492,0.16525 0.421875,0.240234 a 8,8 0 0 1 -0.421875,-0.240234 z m 7.9433591,0.169922 a 8,8 0 0 1 -0.716797,0.345703 c 0.245482,-0.103925 0.484571,-0.21869 0.716797,-0.345703 z m -7.2832029,0.185546 c 0.1536647,0.07373 0.3078847,0.144971 0.4667969,0.208985 A 8,8 0 0 1 7.5488281,18.208984 Z m 6.5644529,0.16211 a 8,8 0 0 1 -2.294922,0.58789 c 0.80681,-0.08194 1.577092,-0.284274 2.294922,-0.58789 z m -5.8066404,0.154297 c 0.1515485,0.05427 0.3033639,0.107112 0.4589844,0.152343 A 8,8 0 0 1 8.3066406,18.525391 Z m 0.7597656,0.230468 c 0.1593245,0.03963 0.3194826,0.07555 0.4824219,0.105469 A 8,8 0 0 1 9.0664062,18.755859 Z m 0.7929688,0.154297 c 0.150395,0.02153 0.300152,0.04164 0.453125,0.05469 a 8,8 0 0 1 -0.453125,-0.05469 z"
         style="opacity:0.3;fill:#ffffff;fill-opacity:1;stroke:none"
         inkscape:connector-curvature="0" />
      <path
         id="path4158"
         transform="translate(0,1030.3622)"
         d="m 11,3 a 8,8 0 0 0 -8,8 8,8 0 0 0 8,8 8,8 0 0 0 8,-8 8,8 0 0 0 -8,-8 z m 0,1 a 7,7 0 0 1 7,7 7,7 0 0 1 -7,7 7,7 0 0 1 -7,-7 7,7 0 0 1 7,-7 z"
         style="opacity:0.72;fill:#ffffff;fill-opacity:1;stroke:none"
         inkscape:connector-curvature="0" />
    </g>
  </g>
</svg>
