<?xml version="1.0" encoding="UTF-8" standalone="no"?>
<!-- Created with Inkscape (http://www.inkscape.org/) -->

<svg
   xmlns:dc="http://purl.org/dc/elements/1.1/"
   xmlns:cc="http://creativecommons.org/ns#"
   xmlns:rdf="http://www.w3.org/1999/02/22-rdf-syntax-ns#"
   xmlns:svg="http://www.w3.org/2000/svg"
   xmlns="http://www.w3.org/2000/svg"
   xmlns:sodipodi="http://sodipodi.sourceforge.net/DTD/sodipodi-0.dtd"
   xmlns:inkscape="http://www.inkscape.org/namespaces/inkscape"
   id="svg7384"
   style="enable-background:new"
   height="16"
   width="16"
   version="1.1"
   inkscape:version="0.91 r13725"
   sodipodi:docname="mic-volume-low.svg">
  <sodipodi:namedview
     pagecolor="#ffffff"
     bordercolor="#666666"
     borderopacity="1"
     objecttolerance="10"
     gridtolerance="10"
     guidetolerance="10"
     inkscape:pageopacity="0"
     inkscape:pageshadow="2"
     inkscape:window-width="1600"
     inkscape:window-height="853"
     id="namedview10"
     showgrid="false"
     inkscape:zoom="19.88"
     inkscape:cx="-2.2615694"
     inkscape:cy="10.012072"
     inkscape:window-x="0"
     inkscape:window-y="26"
     inkscape:window-maximized="1"
     inkscape:current-layer="svg7384">
    <inkscape:grid
       type="xygrid"
       id="grid4192" />
  </sodipodi:namedview>
  <metadata
     id="metadata90">
    <rdf:RDF>
      <cc:Work
         rdf:about="">
        <dc:format>image/svg+xml</dc:format>
        <dc:type
           rdf:resource="http://purl.org/dc/dcmitype/StillImage" />
        <dc:title>Paper Symbolic Icon Theme</dc:title>
      </cc:Work>
    </rdf:RDF>
  </metadata>
  <title
     id="title8473">Paper Symbolic Icon Theme</title>
  <defs
     id="defs7386" />
  <path
     inkscape:connector-curvature="0"
     style="color:#bebebe;opacity:0.3;fill:#ffffff;fill-opacity:1"
     d="m 7.9999999,0 c -1.6621,0 -3,1.3381001 -3,3.0000001 l 0,5.0019999 c 0,1.6619 1.3379,2.998 3,2.998 C 9.6620999,11 11,9.6638 11,8.002 L 11,3.0000001 C 11,1.3381001 9.6620999,0 7.9999999,0 Z"
     id="path4186" />
  <path
     inkscape:connector-curvature="0"
     id="path4150"
     d="M 2,7.00005 2,7.9984882 C 2.00001,10.96499 4,14 7,14 l 0,2 2,0 0,-2 c 3,0 5,-3.03511 5,-6.0015118 L 14,7 12,7 12,7.9984882 C 12,10.232569 10.2334,12 8,12 5.7666,12 4,10.232569 4,7.9984882 L 4,7 2,7 Z"
     style="color:#bebebe;opacity:0.72;fill:#ffffff;fill-opacity:1"
     sodipodi:nodetypes="csccccsccsssccc" />
</svg>
