<?xml version="1.0" encoding="UTF-8" standalone="no"?>
<!-- Created with Inkscape (http://www.inkscape.org/) -->

<svg
   xmlns:dc="http://purl.org/dc/elements/1.1/"
   xmlns:cc="http://creativecommons.org/ns#"
   xmlns:rdf="http://www.w3.org/1999/02/22-rdf-syntax-ns#"
   xmlns:svg="http://www.w3.org/2000/svg"
   xmlns="http://www.w3.org/2000/svg"
   xmlns:sodipodi="http://sodipodi.sourceforge.net/DTD/sodipodi-0.dtd"
   xmlns:inkscape="http://www.inkscape.org/namespaces/inkscape"
   width="22"
   height="22"
   id="svg2"
   version="1.1"
   inkscape:version="0.91 r13725"
   viewBox="0 0 22 22"
   sodipodi:docname="kstars_grid.svg">
  <defs
     id="defs4">
    <style
       type="text/css"
       id="current-color-scheme">
      .ColorScheme-Text {
        color:#4d4d4d;
      }
      .ColorScheme-Background {
        color:#eff0f1;
      }
      .ColorScheme-Highlight {
        color:#3daee9;
      }
      .ColorScheme-ViewText {
        color:#31363b;
      }
      .ColorScheme-ViewBackground {
        color:#fcfcfc;
      }
      .ColorScheme-ViewHover {
        color:#93cee9;
      }
      .ColorScheme-ViewFocus{
        color:#3daee9;
      }
      .ColorScheme-ButtonText {
        color:#31363b;
      }
      .ColorScheme-ButtonBackground {
        color:#eff0f1;
      }
      .ColorScheme-ButtonHover {
        color:#93cee9;
      }
      .ColorScheme-ButtonFocus{
        color:#3daee9;
      }
      </style>
    <clipPath
       clipPathUnits="userSpaceOnUse"
       id="clipPath3979">
      <rect
         style="fill:#000000"
         id="rect3981"
         width="64"
         height="64"
         x="0.090115756"
         y="-0.090114839"
         clip-path="none" />
    </clipPath>
    <clipPath
       clipPathUnits="userSpaceOnUse"
       id="clipPath3975">
      <rect
         style="fill:#000000"
         id="rect3977"
         width="64"
         height="64"
         x="0.090115756"
         y="-0.090114839"
         clip-path="none" />
    </clipPath>
    <clipPath
       clipPathUnits="userSpaceOnUse"
       id="clipPath3971">
      <rect
         style="fill:#000000"
         id="rect3973"
         width="64"
         height="64"
         x="0.090115756"
         y="-0.090114839"
         clip-path="none" />
    </clipPath>
    <clipPath
       clipPathUnits="userSpaceOnUse"
       id="clipPath3967">
      <rect
         style="fill:#000000"
         id="rect3969"
         width="64"
         height="64"
         x="0.090115756"
         y="-0.090114839"
         clip-path="none" />
    </clipPath>
    <clipPath
       clipPathUnits="userSpaceOnUse"
       id="clipPath3963">
      <rect
         style="fill:#000000"
         id="rect3965"
         width="64"
         height="64"
         x="0.090115756"
         y="-0.090114839"
         clip-path="none" />
    </clipPath>
    <clipPath
       clipPathUnits="userSpaceOnUse"
       id="clipPath3959">
      <rect
         style="fill:#000000"
         id="rect3961"
         width="64"
         height="64"
         x="0.090115756"
         y="-0.090114839"
         clip-path="none" />
    </clipPath>
  </defs>
  <sodipodi:namedview
     id="base"
     pagecolor="#ffffff"
     bordercolor="#666666"
     borderopacity="1.0"
     inkscape:pageopacity="0.0"
     inkscape:pageshadow="2"
     inkscape:zoom="16"
     inkscape:cx="-6.1984362"
     inkscape:cy="9.099579"
     inkscape:document-units="px"
     inkscape:current-layer="layer1"
     showgrid="false"
     inkscape:showpageshadow="false"
     units="px"
     inkscape:window-width="1600"
     inkscape:window-height="847"
     inkscape:window-x="0"
     inkscape:window-y="30"
     inkscape:window-maximized="1"
     inkscape:object-nodes="true"
     inkscape:snap-bbox="true"
     showguides="false">
    <inkscape:grid
       type="xygrid"
       id="grid4120" />
    <sodipodi:guide
       position="2,20.000017"
       orientation="18,0"
       id="guide4126" />
    <sodipodi:guide
       position="2,2.0000174"
       orientation="0,18"
       id="guide4128" />
    <sodipodi:guide
       position="20,2.0000174"
       orientation="-18,0"
       id="guide4130" />
    <sodipodi:guide
       position="20,20.000017"
       orientation="0,-18"
       id="guide4132" />
    <sodipodi:guide
       position="3,19.000017"
       orientation="16,0"
       id="guide4134" />
    <sodipodi:guide
       position="3,3.0000174"
       orientation="0,16"
       id="guide4136" />
    <sodipodi:guide
       position="19,3.0000174"
       orientation="-16,0"
       id="guide4138" />
    <sodipodi:guide
       position="19,19.000017"
       orientation="0,-16"
       id="guide4140" />
    <sodipodi:guide
       position="19,13.000017"
       orientation="-6,0"
       id="guide4199" />
    <sodipodi:guide
       position="19,19.000017"
       orientation="0,-6.0000172"
       id="guide4201" />
  </sodipodi:namedview>
  <metadata
     id="metadata7">
    <rdf:RDF>
      <cc:Work
         rdf:about="">
        <dc:format>image/svg+xml</dc:format>
        <dc:type
           rdf:resource="http://purl.org/dc/dcmitype/StillImage" />
        <dc:title></dc:title>
      </cc:Work>
    </rdf:RDF>
  </metadata>
  <g
     inkscape:label="Capa 1"
     inkscape:groupmode="layer"
     id="layer1"
     transform="translate(0,-1030.3622)">
    <path
       style="fill:#000000;fill-opacity:1;stroke:none;stroke-width:5;stroke-miterlimit:4;stroke-dasharray:none;stroke-opacity:1;opacity:0.5"
       d="M 6.5253906 3 L 9.4277344 4.2792969 C 8.9455822 5.2084417 8.3338024 6.0556227 7.6269531 6.8144531 L 3.8183594 3.0195312 L 3.0117188 3.0195312 L 3.0117188 3.96875 L 6.734375 7.6738281 C 6.0135437 8.2976972 5.2205843 8.8366627 4.359375 9.2675781 L 3.5683594 7.4824219 L 3.5683594 7.4785156 L 3.0292969 6.2226562 L 3.015625 9.2460938 L 3.2402344 9.7519531 C 3.158772 9.782362 3.0823285 9.822956 3 9.8515625 L 3 11.160156 C 3.2534343 11.081317 3.4938266 10.974834 3.7402344 10.880859 L 5.6757812 15.246094 C 4.8141864 15.585098 3.9223154 15.864848 3 16.064453 L 3 17.333984 C 4.0991768 17.112189 5.1575819 16.7826 6.1777344 16.376953 L 7.3125 18.939453 L 8.6445312 18.939453 L 7.2949219 15.892578 C 8.9790715 15.091314 10.522012 14.04517 11.882812 12.800781 L 15.306641 16.208984 C 14.188296 17.24994 12.974599 18.189861 11.669922 19 L 13.890625 19 C 14.696853 18.409962 15.455465 17.761267 16.183594 17.080078 L 18.050781 18.939453 L 18.939453 18.949219 L 18.945312 18.09375 L 17.060547 16.216797 C 17.746287 15.50883 18.401549 14.771156 19 13.986328 L 19 11.837891 C 18.176943 13.098335 17.230344 14.268468 16.1875 15.345703 L 12.767578 11.9375 C 14.100571 10.547021 15.221167 8.9538482 16.076172 7.2050781 L 18.935547 8.4648438 L 18.939453 7.1191406 L 16.572266 6.09375 C 16.977528 5.1057161 17.310766 4.081641 17.542969 3.0175781 L 16.273438 3.0175781 C 16.064803 3.9091886 15.783102 4.7704921 15.443359 5.6035156 L 11.039062 3.6953125 C 11.12955 3.4688965 11.234855 3.2501473 11.3125 3.0175781 L 9.9960938 3.0175781 C 9.9715794 3.0832252 9.9377822 3.1439149 9.9121094 3.2089844 L 9.4316406 3 L 6.5253906 3 z M 10.554688 4.7753906 L 14.947266 6.7089844 C 14.155489 8.3183457 13.119499 9.783968 11.892578 11.066406 L 8.5 7.6855469 C 9.3129558 6.8185093 10.007585 5.8427859 10.554688 4.7753906 z M 7.609375 8.5449219 L 11.007812 11.927734 C 9.7544801 13.065457 8.3384662 14.024464 6.7929688 14.761719 L 4.859375 10.394531 C 5.8591078 9.898314 6.7792215 9.2745429 7.609375 8.5449219 z "
       transform="translate(0,1030.3622)"
       id="path3366" />
  </g>
</svg>
