<?xml version="1.0" encoding="UTF-8" standalone="no"?>
<!-- Created with Inkscape (http://www.inkscape.org/) -->

<svg
   xmlns:osb="http://www.openswatchbook.org/uri/2009/osb"
   xmlns:dc="http://purl.org/dc/elements/1.1/"
   xmlns:cc="http://creativecommons.org/ns#"
   xmlns:rdf="http://www.w3.org/1999/02/22-rdf-syntax-ns#"
   xmlns:svg="http://www.w3.org/2000/svg"
   xmlns="http://www.w3.org/2000/svg"
   xmlns:sodipodi="http://sodipodi.sourceforge.net/DTD/sodipodi-0.dtd"
   xmlns:inkscape="http://www.inkscape.org/namespaces/inkscape"
   sodipodi:docname="view-bank-account-checking.svg"
   inkscape:export-filename="/home/sam/source-symbolic.png"
   inkscape:export-xdpi="270"
   inkscape:export-ydpi="270"
   height="22"
   id="svg7384"
   style="enable-background:new"
   version="1.1"
   inkscape:version="0.91 r13725"
   width="22">
  <sodipodi:namedview
     inkscape:bbox-nodes="true"
     inkscape:bbox-paths="false"
     bordercolor="#666666"
     borderlayer="false"
     borderopacity="1"
     inkscape:current-layer="layer12"
     inkscape:cx="11.446949"
     inkscape:cy="8.0648754"
     gridtolerance="10"
     inkscape:guide-bbox="true"
     guidetolerance="10"
     id="namedview88"
     inkscape:object-nodes="true"
     inkscape:object-paths="true"
     objecttolerance="10"
     pagecolor="#f7f7f7"
     inkscape:pageopacity="0"
     inkscape:pageshadow="2"
     showborder="true"
     showgrid="false"
     showguides="true"
     inkscape:showpageshadow="false"
     inkscape:snap-bbox="true"
     inkscape:snap-bbox-edge-midpoints="false"
     inkscape:snap-bbox-midpoints="true"
     inkscape:snap-center="false"
     inkscape:snap-global="true"
     inkscape:snap-grids="true"
     inkscape:snap-intersection-paths="true"
     inkscape:snap-midpoints="true"
     inkscape:snap-nodes="true"
     inkscape:snap-object-midpoints="true"
     inkscape:snap-others="true"
     inkscape:snap-page="false"
     inkscape:snap-smooth-nodes="true"
     inkscape:snap-to-guides="true"
     inkscape:window-height="847"
     inkscape:window-maximized="1"
     inkscape:window-width="1600"
     inkscape:window-x="0"
     inkscape:window-y="30"
     inkscape:zoom="16.15">
    <inkscape:grid
       color="#000000"
       dotted="false"
       empcolor="#0800ff"
       empopacity="0.4627451"
       empspacing="4"
       enabled="true"
       id="grid4866"
       opacity="0.16470588"
       originx="-224.0002"
       originy="-316.00336"
       snapvisiblegridlinesonly="true"
       spacingx="0.25px"
       spacingy="0.25px"
       type="xygrid"
       visible="true" />
  </sodipodi:namedview>
  <metadata
     id="metadata90">
    <rdf:RDF>
      <cc:Work
         rdf:about="">
        <dc:format>image/svg+xml</dc:format>
        <dc:type
           rdf:resource="http://purl.org/dc/dcmitype/StillImage" />
        <dc:title>Paper Symbolic Icon Theme</dc:title>
      </cc:Work>
    </rdf:RDF>
  </metadata>
  <title
     id="title8473">Paper Symbolic Icon Theme</title>
  <defs
     id="defs7386">
    <linearGradient
       id="linearGradient5606"
       osb:paint="solid">
      <stop
         id="stop5608"
         offset="0"
         style="stop-color:#000000;stop-opacity:1;" />
    </linearGradient>
  </defs>
  <g
     inkscape:groupmode="layer"
     id="layer12"
     inkscape:label="actions"
     style="display:inline"
     transform="translate(-465.0004,105.00336)">
    <path
       style="opacity:0.5;fill:#000000;fill-opacity:1;stroke:none"
       d="m 475.0004,-101.00336 -7,7 2,0 0,7 8.37695,0 c -0.23386,-0.47865 -0.37695,-1.008084 -0.37695,-1.572266 0,-1.397719 0.82389,-2.586955 2,-3.160156 l 0,-2.267578 2,0 -7,-7 z m 0,5 c 1.10457,0 2,0.895467 2,2 0,1.104533 -0.89543,2 -2,2 2.99989,-0.0018 3,2.400391 3,2.400391 l 0,0.599609 -6,0 0,-0.599609 c 0,0 -1.1e-4,-2.398591 3,-2.400391 -1.10457,0 -2,-0.895467 -2,-2 0,-1.104533 0.89543,-2 2,-2 z m 6.5,4 0,0.857422 c -1.38058,0 -2.5,1.150153 -2.5,2.570312 0,1.42016 1.11942,2.572266 2.5,2.572266 1.36656,0 2.47565,-1.129057 2.49805,-2.529297 a 0.41662656,0.42857124 0 0 0 0.002,-0.04297 0.41662656,0.42857124 0 0 0 -0.41602,-0.427734 0.41662656,0.42857124 0 0 0 -0.41797,0.427734 c 0,0.946774 -0.74562,1.714844 -1.66601,1.714844 -0.92038,0 -1.66602,-0.76807 -1.66602,-1.714844 0,-0.946772 0.74564,-1.71289 1.66602,-1.71289 l 0,0.857422 1.66601,-1.28711 -1.66601,-1.285156 z"
       id="path4408"
       inkscape:connector-curvature="0" />
    <g
       style="enable-background:new"
       id="g4315"
       transform="matrix(0.3,0,0,0.33333333,477.1004,-87.670027)">
      <g
         transform="translate(-505.0002,-41)"
         style="display:inline"
         inkscape:label="actions"
         id="layer12-5" />
    </g>
  </g>
</svg>
