<?xml version="1.0" encoding="UTF-8" standalone="no"?>
<!-- Created with Inkscape (http://www.inkscape.org/) -->

<svg
   xmlns:osb="http://www.openswatchbook.org/uri/2009/osb"
   xmlns:dc="http://purl.org/dc/elements/1.1/"
   xmlns:cc="http://creativecommons.org/ns#"
   xmlns:rdf="http://www.w3.org/1999/02/22-rdf-syntax-ns#"
   xmlns:svg="http://www.w3.org/2000/svg"
   xmlns="http://www.w3.org/2000/svg"
   xmlns:sodipodi="http://sodipodi.sourceforge.net/DTD/sodipodi-0.dtd"
   xmlns:inkscape="http://www.inkscape.org/namespaces/inkscape"
   sodipodi:docname="im-skype.svg"
   inkscape:export-filename="/home/sam/source-symbolic.png"
   inkscape:export-xdpi="270"
   inkscape:export-ydpi="270"
   height="22"
   id="svg7384"
   style="enable-background:new"
   version="1.1"
   inkscape:version="0.91 r"
   width="22">
  <sodipodi:namedview
     inkscape:bbox-nodes="true"
     inkscape:bbox-paths="false"
     bordercolor="#666666"
     borderlayer="false"
     borderopacity="1"
     inkscape:current-layer="layer12"
     inkscape:cx="1.6739555"
     inkscape:cy="8.1649418"
     gridtolerance="10"
     inkscape:guide-bbox="true"
     guidetolerance="10"
     id="namedview88"
     inkscape:object-nodes="true"
     inkscape:object-paths="true"
     objecttolerance="10"
     pagecolor="#f7f7f7"
     inkscape:pageopacity="0"
     inkscape:pageshadow="2"
     showborder="true"
     showgrid="false"
     showguides="true"
     inkscape:showpageshadow="false"
     inkscape:snap-bbox="true"
     inkscape:snap-bbox-edge-midpoints="false"
     inkscape:snap-bbox-midpoints="true"
     inkscape:snap-center="false"
     inkscape:snap-global="true"
     inkscape:snap-grids="true"
     inkscape:snap-intersection-paths="true"
     inkscape:snap-midpoints="true"
     inkscape:snap-nodes="true"
     inkscape:snap-object-midpoints="true"
     inkscape:snap-others="true"
     inkscape:snap-page="false"
     inkscape:snap-smooth-nodes="true"
     inkscape:snap-to-guides="true"
     inkscape:window-height="849"
     inkscape:window-maximized="1"
     inkscape:window-width="1600"
     inkscape:window-x="0"
     inkscape:window-y="26"
     inkscape:zoom="16.15">
    <inkscape:grid
       color="#000000"
       dotted="false"
       empcolor="#0800ff"
       empopacity="0.4627451"
       empspacing="4"
       enabled="true"
       id="grid4866"
       opacity="0.16470588"
       originx="-244.0004"
       originy="-316.00672"
       snapvisiblegridlinesonly="true"
       spacingx="0.25px"
       spacingy="0.25px"
       type="xygrid"
       visible="true" />
  </sodipodi:namedview>
  <metadata
     id="metadata90">
    <rdf:RDF>
      <cc:Work
         rdf:about="">
        <dc:format>image/svg+xml</dc:format>
        <dc:type
           rdf:resource="http://purl.org/dc/dcmitype/StillImage" />
        <dc:title>Paper Symbolic Icon Theme</dc:title>
      </cc:Work>
    </rdf:RDF>
  </metadata>
  <title
     id="title8473">Paper Symbolic Icon Theme</title>
  <defs
     id="defs7386">
    <linearGradient
       id="linearGradient5606"
       osb:paint="solid">
      <stop
         id="stop5608"
         offset="0"
         style="stop-color:#000000;stop-opacity:1;" />
    </linearGradient>
  </defs>
  <g
     inkscape:groupmode="layer"
     id="layer12"
     inkscape:label="actions"
     style="display:inline"
     transform="translate(-485.0006,99.00672)">
    <path
       style="opacity:0.5;fill:#000000;fill-opacity:1;stroke:none"
       d="m 492.67247,-94.994873 c -1.01455,-0.07799 -1.99919,0.233962 -2.71679,0.951172 -1.30136,1.300671 -1.25091,3.472628 0.0156,5.115234 -0.046,0.302239 -0.0762,0.610679 -0.0762,0.925781 0,3.37053 2.73315,6.103516 6.10547,6.103516 0.31528,0 0.62336,-0.03207 0.92578,-0.07813 1.64348,1.265856 3.81778,1.316288 5.11914,0.01563 1.30136,-1.300671 1.25091,-3.47458 -0.0156,-5.117188 0.046,-0.302246 0.0762,-0.608713 0.0762,-0.923828 0,-3.370398 -2.73315,-6.103515 -6.10547,-6.103515 -0.31528,0 -0.62337,0.03012 -0.92578,0.07617 -0.73724,-0.567841 -1.57702,-0.901388 -2.40235,-0.964843 z m 3.17579,2.988281 0.002,0 c 2.42686,9.47e-4 3.68164,1.04267 3.68164,1.654297 0,0.613952 -0.36284,0.705078 -0.95898,0.705078 -1.15852,0 -0.68351,-1.132813 -2.85352,-1.132813 -0.71808,0 -1.61523,0.265467 -1.61523,0.947266 0,0.548102 0.79488,0.750045 2.19726,1.03125 2.11385,0.460002 3.69922,0.919084 3.69922,2.496094 0,1.531009 -1.53335,2.298828 -3.96289,2.298828 -2.42899,0 -3.98047,-1.179114 -3.98047,-1.791016 0,-0.611905 0.28469,-0.765625 0.88086,-0.765625 1.16036,0 1.00582,1.285157 3.17578,1.285157 0.7206,0 1.7832,-0.265371 1.7832,-0.949219 0,-0.546055 -0.0562,-0.736919 -1.5957,-1.074219 -1.64425,-0.181501 -4.30078,-0.614238 -4.30078,-2.28125 0,-1.530267 1.4207,-2.423024 3.84766,-2.423828 z"
       id="path4140"
       inkscape:connector-curvature="0" />
  </g>
</svg>
