<?xml version="1.0" encoding="UTF-8" standalone="no"?>
<!-- Created with Inkscape (http://www.inkscape.org/) -->

<svg
   xmlns:osb="http://www.openswatchbook.org/uri/2009/osb"
   xmlns:dc="http://purl.org/dc/elements/1.1/"
   xmlns:cc="http://creativecommons.org/ns#"
   xmlns:rdf="http://www.w3.org/1999/02/22-rdf-syntax-ns#"
   xmlns:svg="http://www.w3.org/2000/svg"
   xmlns="http://www.w3.org/2000/svg"
   xmlns:sodipodi="http://sodipodi.sourceforge.net/DTD/sodipodi-0.dtd"
   xmlns:inkscape="http://www.inkscape.org/namespaces/inkscape"
   sodipodi:docname="mail-encrypted-full.svg"
   inkscape:export-filename="/home/sam/source-symbolic.png"
   inkscape:export-xdpi="270"
   inkscape:export-ydpi="270"
   height="22"
   id="svg7384"
   style="enable-background:new"
   version="1.1"
   inkscape:version="0.91 r13725"
   width="22">
  <sodipodi:namedview
     inkscape:bbox-nodes="false"
     inkscape:bbox-paths="false"
     bordercolor="#666666"
     borderlayer="false"
     borderopacity="1"
     inkscape:current-layer="layer12"
     inkscape:cx="-1.6715756"
     inkscape:cy="6.6668091"
     gridtolerance="10"
     inkscape:guide-bbox="true"
     guidetolerance="10"
     id="namedview88"
     inkscape:object-nodes="false"
     inkscape:object-paths="false"
     objecttolerance="10"
     pagecolor="#f7f7f7"
     inkscape:pageopacity="0"
     inkscape:pageshadow="2"
     showborder="true"
     showgrid="false"
     showguides="true"
     inkscape:showpageshadow="false"
     inkscape:snap-bbox="false"
     inkscape:snap-bbox-edge-midpoints="false"
     inkscape:snap-bbox-midpoints="false"
     inkscape:snap-center="false"
     inkscape:snap-global="false"
     inkscape:snap-grids="false"
     inkscape:snap-intersection-paths="false"
     inkscape:snap-midpoints="false"
     inkscape:snap-nodes="false"
     inkscape:snap-object-midpoints="false"
     inkscape:snap-others="false"
     inkscape:snap-page="false"
     inkscape:snap-smooth-nodes="false"
     inkscape:snap-to-guides="false"
     inkscape:window-height="847"
     inkscape:window-maximized="1"
     inkscape:window-width="1600"
     inkscape:window-x="0"
     inkscape:window-y="30"
     inkscape:zoom="8.6599296">
    <inkscape:grid
       color="#000000"
       dotted="false"
       empcolor="#0800ff"
       empopacity="0.4627451"
       empspacing="4"
       enabled="true"
       id="grid4866"
       opacity="0.16470588"
       originx="-225.99989"
       originy="-75.999997"
       snapvisiblegridlinesonly="true"
       spacingx="0.25px"
       spacingy="0.25px"
       type="xygrid"
       visible="true" />
  </sodipodi:namedview>
  <metadata
     id="metadata90">
    <rdf:RDF>
      <cc:Work
         rdf:about="">
        <dc:format>image/svg+xml</dc:format>
        <dc:type
           rdf:resource="http://purl.org/dc/dcmitype/StillImage" />
        <dc:title>Paper Symbolic Icon Theme</dc:title>
      </cc:Work>
    </rdf:RDF>
  </metadata>
  <title
     id="title8473">Paper Symbolic Icon Theme</title>
  <defs
     id="defs7386">
    <linearGradient
       id="linearGradient5606"
       osb:paint="solid">
      <stop
         id="stop5608"
         offset="0"
         style="stop-color:#000000;stop-opacity:1;" />
    </linearGradient>
    <style
       id="current-color-scheme"
       type="text/css">
      .ColorScheme-Text {
        color:#4d4d4d;
      }
      .ColorScheme-Background {
        color:#eff0f1;
      }
      .ColorScheme-Highlight {
        color:#3daee9;
      }
      .ColorScheme-ViewText {
        color:#31363b;
      }
      .ColorScheme-ViewBackground {
        color:#fcfcfc;
      }
      .ColorScheme-ViewHover {
        color:#93cee9;
      }
      .ColorScheme-ViewFocus{
        color:#3daee9;
      }
      .ColorScheme-ButtonText {
        color:#31363b;
      }
      .ColorScheme-ButtonBackground {
        color:#eff0f1;
      }
      .ColorScheme-ButtonHover {
        color:#93cee9;
      }
      .ColorScheme-ButtonFocus{
        color:#3daee9;
      }
      </style>
  </defs>
  <g
     inkscape:groupmode="layer"
     id="layer12"
     inkscape:label="actions"
     style="display:inline"
     transform="translate(-467.00009,-135)">
    <g
       transform="translate(49.21471,-393.8532)"
       id="layer1"
       inkscape:label="Capa 1"
       style="opacity:0.5;fill:#000000;fill-opacity:1">
      <path
         style="color:#4d4d4d;fill:#000000;fill-opacity:1;fill-rule:evenodd;stroke:none"
         d="m 2,2.0039062 c -1.108,0 -2,0.8920001 -2,2 l 0,7.9999998 c 0,1.108 0.892,2 2,2 l 7.9316406,0 c -0.0013,-0.02081 -0.00195,-0.04165 -0.00195,-0.0625 l 0,-3 c 5.53e-5,-0.552262 0.4477374,-0.9999448 1.0000004,-0.9999998 l 0,-0.5 c 0,-1.3688699 1.13114,-2.5 2.5,-2.5 1.368869,0 2.499999,1.13113 2.5,2.5 l 0,0.5 c 0.02345,-1.736e-4 0.0469,4.811e-4 0.07031,0.00195 l 0,-5.9394532 c 0,-1.108 -0.892,-1.9999999 -2,-2 l -11.9999999,0 z m 0,2 6,3 6,-3 0,2 -6,3 -6,-3 0,-2 z m 11.429688,3.9375 a 1.5,1.5 0 0 0 -1.5,1.5 l 0,1.4999998 -1,0 0,3 5,0 0,-3 -1,0 0,-1.4999998 a 1.5,1.5 0 0 0 -1.5,-1.5 z m 0,1 a 0.5,0.5 0 0 1 0.5,0.5 l 0,1.4999998 -1,0 0,-1.4999998 a 0.5,0.5 0 0 1 0.5,-0.5 z"
         transform="translate(420.78538,531.8493)"
         id="rect4172"
         inkscape:connector-curvature="0" />
    </g>
    <g
       inkscape:label="Capa 1"
       id="g4155"
       transform="translate(46.214706,-390.8493)"
       style="fill:none;stroke:#000000;stroke-width:2;stroke-linejoin:round;stroke-miterlimit:4;stroke-dasharray:none;stroke-opacity:1" />
  </g>
</svg>
