<?xml version="1.0" encoding="UTF-8" standalone="no"?>
<!-- Created with Inkscape (http://www.inkscape.org/) -->

<svg
   xmlns:dc="http://purl.org/dc/elements/1.1/"
   xmlns:cc="http://creativecommons.org/ns#"
   xmlns:rdf="http://www.w3.org/1999/02/22-rdf-syntax-ns#"
   xmlns:svg="http://www.w3.org/2000/svg"
   xmlns="http://www.w3.org/2000/svg"
   xmlns:sodipodi="http://sodipodi.sourceforge.net/DTD/sodipodi-0.dtd"
   xmlns:inkscape="http://www.inkscape.org/namespaces/inkscape"
   width="24"
   height="24"
   id="svg3049"
   version="1.1"
   inkscape:version="0.91 r13725"
   sodipodi:docname="edit-paste-in-place.svg"
   inkscape:export-filename="/home/uri/.kde/share/icons/NITRUX-KDE/16x16/actions/view-right-new.png"
   inkscape:export-xdpi="30"
   inkscape:export-ydpi="30">
  <defs
     id="defs3051">
    <style
       type="text/css"
       id="current-color-scheme">
      .ColorScheme-Text {
        color:#4d4d4d;
      }
      .ColorScheme-Background {
        color:#eff0f1;
      }
      .ColorScheme-Highlight {
        color:#3daee9;
      }
      .ColorScheme-ViewText {
        color:#31363b;
      }
      .ColorScheme-ViewBackground {
        color:#fcfcfc;
      }
      .ColorScheme-ViewHover {
        color:#93cee9;
      }
      .ColorScheme-ViewFocus{
        color:#3daee9;
      }
      .ColorScheme-ButtonText {
        color:#31363b;
      }
      .ColorScheme-ButtonBackground {
        color:#eff0f1;
      }
      .ColorScheme-ButtonHover {
        color:#93cee9;
      }
      .ColorScheme-ButtonFocus{
        color:#3daee9;
      }
      </style>
  </defs>
  <sodipodi:namedview
     id="base"
     pagecolor="#ffffff"
     bordercolor="#666666"
     borderopacity="1.0"
     inkscape:pageopacity="0.0"
     inkscape:pageshadow="2"
     inkscape:zoom="22.62"
     inkscape:cx="10.249337"
     inkscape:cy="9.6119597"
     inkscape:document-units="px"
     inkscape:current-layer="layer1"
     showgrid="false"
     fit-margin-top="0"
     fit-margin-left="0"
     fit-margin-right="0"
     fit-margin-bottom="0"
     inkscape:window-width="1600"
     inkscape:window-height="847"
     inkscape:window-x="0"
     inkscape:window-y="30"
     inkscape:window-maximized="1"
     inkscape:showpageshadow="false"
     borderlayer="true"
     inkscape:snap-bbox="true"
     inkscape:snap-global="true"
     inkscape:object-nodes="true"
     showguides="false">
    <inkscape:grid
       type="xygrid"
       id="grid4085" />
    <sodipodi:guide
       position="2.0000044,14.00003"
       orientation="12,0"
       id="guide4075" />
    <sodipodi:guide
       position="2.0000044,2.0000296"
       orientation="0,12"
       id="guide4077" />
    <sodipodi:guide
       position="14.000004,2.0000296"
       orientation="-12,0"
       id="guide4079" />
    <sodipodi:guide
       position="14.000004,14.00003"
       orientation="0,-12"
       id="guide4081" />
  </sodipodi:namedview>
  <metadata
     id="metadata3054">
    <rdf:RDF>
      <cc:Work
         rdf:about="">
        <dc:format>image/svg+xml</dc:format>
        <dc:type
           rdf:resource="http://purl.org/dc/dcmitype/StillImage" />
        <dc:title></dc:title>
      </cc:Work>
    </rdf:RDF>
  </metadata>
  <g
     inkscape:label="Capa 1"
     inkscape:groupmode="layer"
     id="layer1"
     transform="translate(-421.71429,-523.79074)">
    <path
       style="color:#4d4d4d;opacity:0.5;fill:#000000;fill-opacity:1;stroke:none;stroke-width:1;stroke-linecap:round;stroke-miterlimit:4;stroke-dasharray:none;stroke-opacity:1"
       d="m 433.71429,528.79074 c -2.76143,10e-6 -4.99999,2.08869 -5,4.66602 0.002,0.55576 0.11076,1.10673 0.32031,1.62695 0.15167,0.39123 0.45655,0.8241 0.64844,1.12305 l 4.03125,6.58398 4.03125,-6.58008 c 0.31651,-0.36798 0.45416,-0.75872 0.65234,-1.12695 0.20873,-0.52036 0.31523,-1.07133 0.31641,-1.62695 -1e-5,-2.57733 -2.23859,-4.66601 -5,-4.66602 z m 0,2 c 0.91531,10e-6 1.78051,0.41789 2.34961,1.13477 0.12462,0.15673 0.23323,0.32553 0.32422,0.5039 0.18185,0.35767 0.29011,0.7482 0.31836,1.14844 0.005,0.0709 0.008,0.14185 0.008,0.21289 -2.3e-4,0.30065 -0.0457,0.59957 -0.13477,0.88672 -0.0494,0.15585 -0.11146,0.30739 -0.18554,0.45312 -0.009,0.0184 -0.0167,0.0365 -0.0254,0.0547 -0.51796,0.98656 -1.54001,1.60477 -2.6543,1.60547 -1.11429,-7e-4 -2.13633,-0.61891 -2.6543,-1.60547 -0.0445,-0.0846 -0.0849,-0.17129 -0.12109,-0.25976 l -0.006,-0.0137 c -0.033,-0.0826 -0.0623,-0.1667 -0.0879,-0.25195 -0.004,-0.0117 -0.008,-0.0234 -0.0117,-0.0352 -0.0222,-0.0799 -0.0411,-0.16071 -0.0566,-0.24218 -0.004,-0.0169 -0.008,-0.0339 -0.0117,-0.0508 -0.0154,-0.0841 -0.0272,-0.16882 -0.0352,-0.25391 -0.002,-0.0143 -0.002,-0.0286 -0.004,-0.043 -0.007,-0.0812 -0.011,-0.16263 -0.0117,-0.24414 2.3e-4,-0.0998 0.005,-0.19954 0.0156,-0.29883 0.0806,-0.80673 0.48431,-1.5465 1.11915,-2.05078 0.15673,-0.12462 0.32553,-0.23323 0.5039,-0.32422 0.42172,-0.21455 0.88817,-0.32632 1.36133,-0.32617 z"
       id="path4142"
       inkscape:connector-curvature="0" />
  </g>
</svg>
