<?xml version="1.0" encoding="UTF-8" standalone="no"?>
<!-- Created with Inkscape (http://www.inkscape.org/) -->
<svg id="svg2817" xmlns:rdf="http://www.w3.org/1999/02/22-rdf-syntax-ns#" xmlns="http://www.w3.org/2000/svg" height="48" width="48" version="1.0" xmlns:cc="http://creativecommons.org/ns#" xmlns:dc="http://purl.org/dc/elements/1.1/">
 <metadata id="metadata57">
  <rdf:RDF>
   <cc:Work rdf:about="">
    <dc:format>image/svg+xml</dc:format>
    <dc:type rdf:resource="http://purl.org/dc/dcmitype/StillImage"/>
    <dc:title/>
   </cc:Work>
  </rdf:RDF>
 </metadata>
 <text id="text4087-2-6-5" opacity=".8" xml:space="preserve" font-size="12.666px" y="10.812601" x="877.22626" font-family="&apos;Bitstream Vera Sans&apos;" fill="#000000"><tspan id="tspan4089-7-2-9" y="10.812601" x="877.22626"/></text>
 <text id="text4087-2-6-5-5" opacity=".8" xml:space="preserve" font-size="12.666px" y="-29.929106" x="901.18719" font-family="&apos;Bitstream Vera Sans&apos;" fill="#000000"><tspan id="tspan4089-7-2-9-6" y="-29.929106" x="901.18719"/></text>
 <text id="text4087-2-6-5-2" opacity=".8" xml:space="preserve" font-size="12.666px" y="-60.007248" x="-569.37115" font-family="&apos;Bitstream Vera Sans&apos;" fill="#000000"><tspan id="tspan4089-7-2-9-2" y="-60.007248" x="-569.37115"/></text>
 <text id="text4087-2-6-5-59" opacity=".8" xml:space="preserve" font-size="12.666px" y="685.5462" x="-2393.0571" font-family="&apos;Bitstream Vera Sans&apos;" fill="#000000"><tspan id="tspan4089-7-2-9-4" y="685.5462" x="-2393.0571"/></text>
 <text id="text4087-2-6-5-1" opacity=".8" xml:space="preserve" font-size="12.666px" y="-445.32822" x="-454.88007" font-family="&apos;Bitstream Vera Sans&apos;" fill="#000000"><tspan id="tspan4089-7-2-9-7" y="-445.32822" x="-454.88007"/></text>
 <text id="text4087-2-6-5-7" opacity=".8" xml:space="preserve" font-size="12.666px" y="-858.79834" x="352.72208" font-family="&apos;Bitstream Vera Sans&apos;" fill="#000000"><tspan id="tspan4089-7-2-9-1" y="-858.79834" x="352.72208"/></text>
 <text id="text4087-2-6-5-5-3" opacity=".8" xml:space="preserve" font-size="12.666px" y="-899.54004" x="376.68301" font-family="&apos;Bitstream Vera Sans&apos;" fill="#000000"><tspan id="tspan4089-7-2-9-6-5" y="-899.54004" x="376.68301"/></text>
 <text id="text4087-2-6-5-3" opacity=".8" xml:space="preserve" font-size="12.666px" y="-906.74994" x="-1114.7802" font-family="&apos;Bitstream Vera Sans&apos;" fill="#000000"><tspan id="tspan4089-7-2-9-18" y="-906.74994" x="-1114.7802"/></text>
 <text id="text4087-2-6-5-4" opacity=".8" xml:space="preserve" font-size="12.666px" y="-1179.9841" x="345.7626" font-family="&apos;Bitstream Vera Sans&apos;" fill="#000000"><tspan id="tspan4089-7-2-9-9" y="-1179.9841" x="345.7626"/></text>
 <text id="text4087-2-6-5-7-1" opacity=".8" xml:space="preserve" font-size="12.666px" y="-553.29272" x="1831.8861" font-family="&apos;Bitstream Vera Sans&apos;" fill="#000000"><tspan id="tspan4089-7-2-9-1-8" y="-553.29272" x="1831.8861"/></text>
 <text id="text4087-2-6-5-5-5" opacity=".8" xml:space="preserve" font-size="12.666px" y="-594.03448" x="1855.8469" font-family="&apos;Bitstream Vera Sans&apos;" fill="#000000"><tspan id="tspan4089-7-2-9-6-9" y="-594.03448" x="1855.8469"/></text>
 <text id="text4087-2-6-5-75" opacity=".8" xml:space="preserve" font-size="12.666px" y="-601.24438" x="364.38376" font-family="&apos;Bitstream Vera Sans&apos;" fill="#000000"><tspan id="tspan4089-7-2-9-3" y="-601.24438" x="364.38376"/></text>
 <text id="text4087-2-6-5-4-8" opacity=".8" xml:space="preserve" font-size="12.666px" y="-874.47839" x="1824.9266" font-family="&apos;Bitstream Vera Sans&apos;" fill="#000000"><tspan id="tspan4089-7-2-9-9-8" y="-874.47839" x="1824.9266"/></text>
 <text id="text4087-2-6-5-45" opacity=".8" xml:space="preserve" font-size="12.666px" y="-649.33569" x="-573.43256" font-family="&apos;Bitstream Vera Sans&apos;" fill="#000000"><tspan id="tspan4089-7-2-9-75" y="-649.33569" x="-573.43256"/></text>
 <text id="text4087-2-6-5-59-7" opacity=".8" xml:space="preserve" font-size="12.666px" y="96.217857" x="-2397.1182" font-family="&apos;Bitstream Vera Sans&apos;" fill="#000000"><tspan id="tspan4089-7-2-9-4-0" y="96.217857" x="-2397.1182"/></text>
 <text id="text4087-2-6-5-8" opacity=".8" xml:space="preserve" font-size="12.666px" y="189.09" x="-682.36279" font-family="&apos;Bitstream Vera Sans&apos;" fill="#000000"><tspan id="tspan4089-7-2-9-19" y="189.09" x="-682.36279"/></text>
 <text id="text4087-2-6-5-7-5" opacity=".8" xml:space="preserve" font-size="12.666px" y="9.9078522" x="426.66153" font-family="&apos;Bitstream Vera Sans&apos;" fill="#000000"><tspan id="tspan4089-7-2-9-1-2" y="9.9078522" x="426.66153"/></text>
 <text id="text4087-2-6-5-5-0" opacity=".8" xml:space="preserve" font-size="12.666px" y="-30.833855" x="450.62247" font-family="&apos;Bitstream Vera Sans&apos;" fill="#000000"><tspan id="tspan4089-7-2-9-6-2" y="-30.833855" x="450.62247"/></text>
 <text id="text4087-2-6-5-26" opacity=".8" xml:space="preserve" font-size="12.666px" y="-38.043827" x="-1040.8407" font-family="&apos;Bitstream Vera Sans&apos;" fill="#000000"><tspan id="tspan4089-7-2-9-90" y="-38.043827" x="-1040.8407"/></text>
 <text id="text4087-2-6-5-4-3" opacity=".8" xml:space="preserve" font-size="12.666px" y="-311.27789" x="419.70206" font-family="&apos;Bitstream Vera Sans&apos;" fill="#000000"><tspan id="tspan4089-7-2-9-9-5" y="-311.27789" x="419.70206"/></text>
 <text id="text4087-2-6-5-55" opacity=".8" xml:space="preserve" font-size="12.666px" y="-40.758072" x="-608.03253" font-family="&apos;Bitstream Vera Sans&apos;" fill="#000000"><tspan id="tspan4089-7-2-9-32" y="-40.758072" x="-608.03253"/></text>
 <text id="text4087-2-6-5-59-9" opacity=".8" xml:space="preserve" font-size="12.666px" y="704.79541" x="-2431.7185" font-family="&apos;Bitstream Vera Sans&apos;" fill="#000000"><tspan id="tspan4089-7-2-9-4-1" y="704.79541" x="-2431.7185"/></text>
 <text id="text4087-2-6-5-1-8" opacity=".8" xml:space="preserve" font-size="12.666px" y="-902.28857" x="-456.93948" font-family="&apos;Bitstream Vera Sans&apos;" fill="#000000"><tspan id="tspan4089-7-2-9-7-8" y="-902.28857" x="-456.93948"/></text>
 <text id="text4087-2-6-5-7-8" opacity=".8" xml:space="preserve" font-size="12.666px" y="-1315.7588" x="350.66266" font-family="&apos;Bitstream Vera Sans&apos;" fill="#000000"><tspan id="tspan4089-7-2-9-1-9" y="-1315.7588" x="350.66266"/></text>
 <text id="text4087-2-6-5-5-52" opacity=".8" xml:space="preserve" font-size="12.666px" y="-1356.5005" x="374.62357" font-family="&apos;Bitstream Vera Sans&apos;" fill="#000000"><tspan id="tspan4089-7-2-9-6-4" y="-1356.5005" x="374.62357"/></text>
 <text id="text4087-2-6-5-3-4" opacity=".8" xml:space="preserve" font-size="12.666px" y="-1363.7104" x="-1116.8396" font-family="&apos;Bitstream Vera Sans&apos;" fill="#000000"><tspan id="tspan4089-7-2-9-18-3" y="-1363.7104" x="-1116.8396"/></text>
 <text id="text4087-2-6-5-4-7" opacity=".8" xml:space="preserve" font-size="12.666px" y="-1636.9446" x="343.70316" font-family="&apos;Bitstream Vera Sans&apos;" fill="#000000"><tspan id="tspan4089-7-2-9-9-54" y="-1636.9446" x="343.70316"/></text>
 <text id="text4087-2-6-5-7-1-2" opacity=".8" xml:space="preserve" font-size="12.666px" y="-1010.2533" x="1829.8265" font-family="&apos;Bitstream Vera Sans&apos;" fill="#000000"><tspan id="tspan4089-7-2-9-1-8-0" y="-1010.2533" x="1829.8265"/></text>
 <text id="text4087-2-6-5-5-5-6" opacity=".8" xml:space="preserve" font-size="12.666px" y="-1050.9949" x="1853.7874" font-family="&apos;Bitstream Vera Sans&apos;" fill="#000000"><tspan id="tspan4089-7-2-9-6-9-8" y="-1050.9949" x="1853.7874"/></text>
 <text id="text4087-2-6-5-75-4" opacity=".8" xml:space="preserve" font-size="12.666px" y="-1058.2048" x="362.32431" font-family="&apos;Bitstream Vera Sans&apos;" fill="#000000"><tspan id="tspan4089-7-2-9-3-9" y="-1058.2048" x="362.32431"/></text>
 <text id="text4087-2-6-5-4-8-1" opacity=".8" xml:space="preserve" font-size="12.666px" y="-1331.439" x="1822.8671" font-family="&apos;Bitstream Vera Sans&apos;" fill="#000000"><tspan id="tspan4089-7-2-9-9-8-8" y="-1331.439" x="1822.8671"/></text>
 <text id="text4087-2-6-5-45-0" opacity=".8" xml:space="preserve" font-size="12.666px" y="-1106.2961" x="-575.492" font-family="&apos;Bitstream Vera Sans&apos;" fill="#000000"><tspan id="tspan4089-7-2-9-75-2" y="-1106.2961" x="-575.492"/></text>
 <text id="text4087-2-6-5-59-5" opacity=".8" xml:space="preserve" font-size="12.666px" y="-360.74261" x="-2399.1777" font-family="&apos;Bitstream Vera Sans&apos;" fill="#000000"><tspan id="tspan4089-7-2-9-4-00" y="-360.74261" x="-2399.1777"/></text>
 <text id="text4087-2-6-5-264" opacity=".8" xml:space="preserve" font-size="12.666px" y="-267.87045" x="-684.42224" font-family="&apos;Bitstream Vera Sans&apos;" fill="#000000"><tspan id="tspan4089-7-2-9-8" y="-267.87045" x="-684.42224"/></text>
 <text id="text4087-2-6-5-42" opacity=".8" xml:space="preserve" font-size="12.666px" y="-26.956278" x="155.5923" font-family="&apos;Bitstream Vera Sans&apos;" fill="#000000"><tspan id="tspan4089-7-2-9-93" y="-26.956278" x="155.5923"/></text>
 <text id="text4087-2-6-5-5-05" opacity=".8" xml:space="preserve" font-size="12.666px" y="-67.697998" x="179.55324" font-family="&apos;Bitstream Vera Sans&apos;" fill="#000000"><tspan id="tspan4089-7-2-9-6-49" y="-67.697998" x="179.55324"/></text>
 <text id="text4087-2-6-5-1-4" opacity=".8" xml:space="preserve" font-size="12.666px" y="-261.72662" x="-1090.2634" font-family="&apos;Bitstream Vera Sans&apos;" fill="#000000"><tspan id="tspan4089-7-2-9-7-7" y="-261.72662" x="-1090.2634"/></text>
 <text id="text4087-2-6-5-7-56" opacity=".8" xml:space="preserve" font-size="12.666px" y="-675.19678" x="-282.66141" font-family="&apos;Bitstream Vera Sans&apos;" fill="#000000"><tspan id="tspan4089-7-2-9-1-1" y="-675.19678" x="-282.66141"/></text>
 <text id="text4087-2-6-5-5-8" opacity=".8" xml:space="preserve" font-size="12.666px" y="-715.93848" x="-258.70047" font-family="&apos;Bitstream Vera Sans&apos;" fill="#000000"><tspan id="tspan4089-7-2-9-6-7" y="-715.93848" x="-258.70047"/></text>
 <text id="text4087-2-6-5-3-42" opacity=".8" xml:space="preserve" font-size="12.666px" y="-723.14838" x="-1750.1636" font-family="&apos;Bitstream Vera Sans&apos;" fill="#000000"><tspan id="tspan4089-7-2-9-18-39" y="-723.14838" x="-1750.1636"/></text>
 <text id="text4087-2-6-5-4-4" opacity=".8" xml:space="preserve" font-size="12.666px" y="-996.38251" x="-289.62085" font-family="&apos;Bitstream Vera Sans&apos;" fill="#000000"><tspan id="tspan4089-7-2-9-9-3" y="-996.38251" x="-289.62085"/></text>
 <text id="text4087-2-6-5-7-1-0" opacity=".8" xml:space="preserve" font-size="12.666px" y="-369.69113" x="1196.5026" font-family="&apos;Bitstream Vera Sans&apos;" fill="#000000"><tspan id="tspan4089-7-2-9-1-8-5" y="-369.69113" x="1196.5026"/></text>
 <text id="text4087-2-6-5-5-5-5" opacity=".8" xml:space="preserve" font-size="12.666px" y="-410.43286" x="1220.4634" font-family="&apos;Bitstream Vera Sans&apos;" fill="#000000"><tspan id="tspan4089-7-2-9-6-9-2" y="-410.43286" x="1220.4634"/></text>
 <text id="text4087-2-6-5-75-9" opacity=".8" xml:space="preserve" font-size="12.666px" y="-417.64282" x="-270.99973" font-family="&apos;Bitstream Vera Sans&apos;" fill="#000000"><tspan id="tspan4089-7-2-9-3-1" y="-417.64282" x="-270.99973"/></text>
 <text id="text4087-2-6-5-4-8-18" opacity=".8" xml:space="preserve" font-size="12.666px" y="-690.87689" x="1189.5431" font-family="&apos;Bitstream Vera Sans&apos;" fill="#000000"><tspan id="tspan4089-7-2-9-9-8-4" y="-690.87689" x="1189.5431"/></text>
 <text id="text4087-2-6-5-45-3" opacity=".8" xml:space="preserve" font-size="12.666px" y="-465.7341" x="-1208.816" font-family="&apos;Bitstream Vera Sans&apos;" fill="#000000"><tspan id="tspan4089-7-2-9-75-7" y="-465.7341" x="-1208.816"/></text>
 <text id="text4087-2-6-5-59-8" opacity=".8" xml:space="preserve" font-size="12.666px" y="279.81946" x="-3032.5017" font-family="&apos;Bitstream Vera Sans&apos;" fill="#000000"><tspan id="tspan4089-7-2-9-4-2" y="279.81946" x="-3032.5017"/></text>
 <g id="layer4-0" transform="matrix(.90475 0 0 .90475 -716.75 -676.29)">
  <text id="text4087-2-6-5-20" opacity=".8" xml:space="preserve" font-size="14px" y="1159.4154" x="-664.2738" font-family="&apos;Bitstream Vera Sans&apos;" fill="#000000"><tspan id="tspan4089-7-2-9-82" y="1159.4154" x="-664.2738"/></text>
 </g>
 <text id="text4087-2-6-5-9" opacity=".8" xml:space="preserve" font-size="12.666px" y="18.050589" x="877.22626" font-family="&apos;Bitstream Vera Sans&apos;" fill="#000000"><tspan id="tspan4089-7-2-9-43" y="18.050589" x="877.22626"/></text>
 <text id="text4087-2-6-5-5-51" opacity=".8" xml:space="preserve" font-size="12.666px" y="-22.691116" x="901.18719" font-family="&apos;Bitstream Vera Sans&apos;" fill="#000000"><tspan id="tspan4089-7-2-9-6-74" y="-22.691116" x="901.18719"/></text>
 <text id="text4087-2-6-5-2-3" opacity=".8" xml:space="preserve" font-size="12.666px" y="-52.76926" x="-569.37115" font-family="&apos;Bitstream Vera Sans&apos;" fill="#000000"><tspan id="tspan4089-7-2-9-2-1" y="-52.76926" x="-569.37115"/></text>
 <text id="text4087-2-6-5-59-4" opacity=".8" xml:space="preserve" font-size="12.666px" y="692.78418" x="-2393.0571" font-family="&apos;Bitstream Vera Sans&apos;" fill="#000000"><tspan id="tspan4089-7-2-9-4-6" y="692.78418" x="-2393.0571"/></text>
 <text id="text4087-2-6-5-1-9" opacity=".8" xml:space="preserve" font-size="12.666px" y="-438.09021" x="-454.88007" font-family="&apos;Bitstream Vera Sans&apos;" fill="#000000"><tspan id="tspan4089-7-2-9-7-4" y="-438.09021" x="-454.88007"/></text>
 <text id="text4087-2-6-5-7-2" opacity=".8" xml:space="preserve" font-size="12.666px" y="-851.5603" x="352.72208" font-family="&apos;Bitstream Vera Sans&apos;" fill="#000000"><tspan id="tspan4089-7-2-9-1-26" y="-851.5603" x="352.72208"/></text>
 <text id="text4087-2-6-5-5-3-4" opacity=".8" xml:space="preserve" font-size="12.666px" y="-892.30206" x="376.68301" font-family="&apos;Bitstream Vera Sans&apos;" fill="#000000"><tspan id="tspan4089-7-2-9-6-5-1" y="-892.30206" x="376.68301"/></text>
 <text id="text4087-2-6-5-3-2" opacity=".8" xml:space="preserve" font-size="12.666px" y="-899.51196" x="-1114.7802" font-family="&apos;Bitstream Vera Sans&apos;" fill="#000000"><tspan id="tspan4089-7-2-9-18-8" y="-899.51196" x="-1114.7802"/></text>
 <text id="text4087-2-6-5-4-89" opacity=".8" xml:space="preserve" font-size="12.666px" y="-1172.7461" x="345.7626" font-family="&apos;Bitstream Vera Sans&apos;" fill="#000000"><tspan id="tspan4089-7-2-9-9-2" y="-1172.7461" x="345.7626"/></text>
 <text id="text4087-2-6-5-7-1-8" opacity=".8" xml:space="preserve" font-size="12.666px" y="-546.05475" x="1831.8861" font-family="&apos;Bitstream Vera Sans&apos;" fill="#000000"><tspan id="tspan4089-7-2-9-1-8-8" y="-546.05475" x="1831.8861"/></text>
 <text id="text4087-2-6-5-5-5-8" opacity=".8" xml:space="preserve" font-size="12.666px" y="-586.79651" x="1855.8469" font-family="&apos;Bitstream Vera Sans&apos;" fill="#000000"><tspan id="tspan4089-7-2-9-6-9-6" y="-586.79651" x="1855.8469"/></text>
 <text id="text4087-2-6-5-75-8" opacity=".8" xml:space="preserve" font-size="12.666px" y="-594.00641" x="364.38376" font-family="&apos;Bitstream Vera Sans&apos;" fill="#000000"><tspan id="tspan4089-7-2-9-3-3" y="-594.00641" x="364.38376"/></text>
 <text id="text4087-2-6-5-4-8-8" opacity=".8" xml:space="preserve" font-size="12.666px" y="-867.24036" x="1824.9266" font-family="&apos;Bitstream Vera Sans&apos;" fill="#000000"><tspan id="tspan4089-7-2-9-9-8-3" y="-867.24036" x="1824.9266"/></text>
 <text id="text4087-2-6-5-45-33" opacity=".8" xml:space="preserve" font-size="12.666px" y="-642.09772" x="-573.43256" font-family="&apos;Bitstream Vera Sans&apos;" fill="#000000"><tspan id="tspan4089-7-2-9-75-8" y="-642.09772" x="-573.43256"/></text>
 <text id="text4087-2-6-5-59-7-0" opacity=".8" xml:space="preserve" font-size="12.666px" y="103.45585" x="-2397.1182" font-family="&apos;Bitstream Vera Sans&apos;" fill="#000000"><tspan id="tspan4089-7-2-9-4-0-4" y="103.45585" x="-2397.1182"/></text>
 <text id="text4087-2-6-5-8-7" opacity=".8" xml:space="preserve" font-size="12.666px" y="196.32799" x="-682.36279" font-family="&apos;Bitstream Vera Sans&apos;" fill="#000000"><tspan id="tspan4089-7-2-9-19-6" y="196.32799" x="-682.36279"/></text>
 <text id="text4087-2-6-5-7-5-8" opacity=".8" xml:space="preserve" font-size="12.666px" y="17.14584" x="426.66153" font-family="&apos;Bitstream Vera Sans&apos;" fill="#000000"><tspan id="tspan4089-7-2-9-1-2-9" y="17.14584" x="426.66153"/></text>
 <text id="text4087-2-6-5-5-0-0" opacity=".8" xml:space="preserve" font-size="12.666px" y="-23.595865" x="450.62247" font-family="&apos;Bitstream Vera Sans&apos;" fill="#000000"><tspan id="tspan4089-7-2-9-6-2-6" y="-23.595865" x="450.62247"/></text>
 <text id="text4087-2-6-5-26-8" opacity=".8" xml:space="preserve" font-size="12.666px" y="-30.805836" x="-1040.8407" font-family="&apos;Bitstream Vera Sans&apos;" fill="#000000"><tspan id="tspan4089-7-2-9-90-7" y="-30.805836" x="-1040.8407"/></text>
 <text id="text4087-2-6-5-4-3-9" opacity=".8" xml:space="preserve" font-size="12.666px" y="-304.03989" x="419.70206" font-family="&apos;Bitstream Vera Sans&apos;" fill="#000000"><tspan id="tspan4089-7-2-9-9-5-0" y="-304.03989" x="419.70206"/></text>
 <text id="text4087-2-6-5-55-3" opacity=".8" xml:space="preserve" font-size="12.666px" y="-33.520081" x="-608.03253" font-family="&apos;Bitstream Vera Sans&apos;" fill="#000000"><tspan id="tspan4089-7-2-9-32-3" y="-33.520081" x="-608.03253"/></text>
 <text id="text4087-2-6-5-59-9-3" opacity=".8" xml:space="preserve" font-size="12.666px" y="712.03345" x="-2431.7185" font-family="&apos;Bitstream Vera Sans&apos;" fill="#000000"><tspan id="tspan4089-7-2-9-4-1-7" y="712.03345" x="-2431.7185"/></text>
 <text id="text4087-2-6-5-1-8-3" opacity=".8" xml:space="preserve" font-size="12.666px" y="-895.0506" x="-456.93948" font-family="&apos;Bitstream Vera Sans&apos;" fill="#000000"><tspan id="tspan4089-7-2-9-7-8-2" y="-895.0506" x="-456.93948"/></text>
 <text id="text4087-2-6-5-7-8-6" opacity=".8" xml:space="preserve" font-size="12.666px" y="-1308.5208" x="350.66266" font-family="&apos;Bitstream Vera Sans&apos;" fill="#000000"><tspan id="tspan4089-7-2-9-1-9-5" y="-1308.5208" x="350.66266"/></text>
 <text id="text4087-2-6-5-5-52-2" opacity=".8" xml:space="preserve" font-size="12.666px" y="-1349.2626" x="374.62357" font-family="&apos;Bitstream Vera Sans&apos;" fill="#000000"><tspan id="tspan4089-7-2-9-6-4-6" y="-1349.2626" x="374.62357"/></text>
 <text id="text4087-2-6-5-3-4-5" opacity=".8" xml:space="preserve" font-size="12.666px" y="-1356.4724" x="-1116.8396" font-family="&apos;Bitstream Vera Sans&apos;" fill="#000000"><tspan id="tspan4089-7-2-9-18-3-8" y="-1356.4724" x="-1116.8396"/></text>
 <text id="text4087-2-6-5-4-7-7" opacity=".8" xml:space="preserve" font-size="12.666px" y="-1629.7065" x="343.70316" font-family="&apos;Bitstream Vera Sans&apos;" fill="#000000"><tspan id="tspan4089-7-2-9-9-54-9" y="-1629.7065" x="343.70316"/></text>
 <text id="text4087-2-6-5-7-1-2-6" opacity=".8" xml:space="preserve" font-size="12.666px" y="-1003.0153" x="1829.8265" font-family="&apos;Bitstream Vera Sans&apos;" fill="#000000"><tspan id="tspan4089-7-2-9-1-8-0-0" y="-1003.0153" x="1829.8265"/></text>
 <text id="text4087-2-6-5-5-5-6-4" opacity=".8" xml:space="preserve" font-size="12.666px" y="-1043.757" x="1853.7874" font-family="&apos;Bitstream Vera Sans&apos;" fill="#000000"><tspan id="tspan4089-7-2-9-6-9-8-1" y="-1043.757" x="1853.7874"/></text>
 <text id="text4087-2-6-5-75-4-0" opacity=".8" xml:space="preserve" font-size="12.666px" y="-1050.9668" x="362.32431" font-family="&apos;Bitstream Vera Sans&apos;" fill="#000000"><tspan id="tspan4089-7-2-9-3-9-4" y="-1050.9668" x="362.32431"/></text>
 <text id="text4087-2-6-5-4-8-1-8" opacity=".8" xml:space="preserve" font-size="12.666px" y="-1324.2009" x="1822.8671" font-family="&apos;Bitstream Vera Sans&apos;" fill="#000000"><tspan id="tspan4089-7-2-9-9-8-8-7" y="-1324.2009" x="1822.8671"/></text>
 <text id="text4087-2-6-5-45-0-0" opacity=".8" xml:space="preserve" font-size="12.666px" y="-1099.0581" x="-575.492" font-family="&apos;Bitstream Vera Sans&apos;" fill="#000000"><tspan id="tspan4089-7-2-9-75-2-8" y="-1099.0581" x="-575.492"/></text>
 <text id="text4087-2-6-5-59-5-6" opacity=".8" xml:space="preserve" font-size="12.666px" y="-353.50461" x="-2399.1777" font-family="&apos;Bitstream Vera Sans&apos;" fill="#000000"><tspan id="tspan4089-7-2-9-4-00-2" y="-353.50461" x="-2399.1777"/></text>
 <text id="text4087-2-6-5-264-4" opacity=".8" xml:space="preserve" font-size="12.666px" y="-260.63245" x="-684.42224" font-family="&apos;Bitstream Vera Sans&apos;" fill="#000000"><tspan id="tspan4089-7-2-9-8-7" y="-260.63245" x="-684.42224"/></text>
 <text id="text4087-2-6-5-42-9" opacity=".8" xml:space="preserve" font-size="12.666px" y="-19.71829" x="155.5923" font-family="&apos;Bitstream Vera Sans&apos;" fill="#000000"><tspan id="tspan4089-7-2-9-93-3" y="-19.71829" x="155.5923"/></text>
 <text id="text4087-2-6-5-5-05-9" opacity=".8" xml:space="preserve" font-size="12.666px" y="-60.460011" x="179.55324" font-family="&apos;Bitstream Vera Sans&apos;" fill="#000000"><tspan id="tspan4089-7-2-9-6-49-2" y="-60.460011" x="179.55324"/></text>
 <text id="text4087-2-6-5-1-4-8" opacity=".8" xml:space="preserve" font-size="12.666px" y="-254.4886" x="-1090.2634" font-family="&apos;Bitstream Vera Sans&apos;" fill="#000000"><tspan id="tspan4089-7-2-9-7-7-3" y="-254.4886" x="-1090.2634"/></text>
 <text id="text4087-2-6-5-7-56-0" opacity=".8" xml:space="preserve" font-size="12.666px" y="-667.9588" x="-282.66141" font-family="&apos;Bitstream Vera Sans&apos;" fill="#000000"><tspan id="tspan4089-7-2-9-1-1-1" y="-667.9588" x="-282.66141"/></text>
 <text id="text4087-2-6-5-5-8-7" opacity=".8" xml:space="preserve" font-size="12.666px" y="-708.7005" x="-258.70047" font-family="&apos;Bitstream Vera Sans&apos;" fill="#000000"><tspan id="tspan4089-7-2-9-6-7-8" y="-708.7005" x="-258.70047"/></text>
 <text id="text4087-2-6-5-3-42-9" opacity=".8" xml:space="preserve" font-size="12.666px" y="-715.91046" x="-1750.1636" font-family="&apos;Bitstream Vera Sans&apos;" fill="#000000"><tspan id="tspan4089-7-2-9-18-39-1" y="-715.91046" x="-1750.1636"/></text>
 <text id="text4087-2-6-5-4-4-5" opacity=".8" xml:space="preserve" font-size="12.666px" y="-989.14447" x="-289.62085" font-family="&apos;Bitstream Vera Sans&apos;" fill="#000000"><tspan id="tspan4089-7-2-9-9-3-4" y="-989.14447" x="-289.62085"/></text>
 <text id="text4087-2-6-5-7-1-0-9" opacity=".8" xml:space="preserve" font-size="12.666px" y="-362.45316" x="1196.5026" font-family="&apos;Bitstream Vera Sans&apos;" fill="#000000"><tspan id="tspan4089-7-2-9-1-8-5-2" y="-362.45316" x="1196.5026"/></text>
 <text id="text4087-2-6-5-5-5-5-5" opacity=".8" xml:space="preserve" font-size="12.666px" y="-403.19489" x="1220.4634" font-family="&apos;Bitstream Vera Sans&apos;" fill="#000000"><tspan id="tspan4089-7-2-9-6-9-2-7" y="-403.19489" x="1220.4634"/></text>
 <text id="text4087-2-6-5-75-9-4" opacity=".8" xml:space="preserve" font-size="12.666px" y="-410.40482" x="-270.99973" font-family="&apos;Bitstream Vera Sans&apos;" fill="#000000"><tspan id="tspan4089-7-2-9-3-1-9" y="-410.40482" x="-270.99973"/></text>
 <text id="text4087-2-6-5-4-8-18-9" opacity=".8" xml:space="preserve" font-size="12.666px" y="-683.63892" x="1189.5431" font-family="&apos;Bitstream Vera Sans&apos;" fill="#000000"><tspan id="tspan4089-7-2-9-9-8-4-4" y="-683.63892" x="1189.5431"/></text>
 <text id="text4087-2-6-5-45-3-5" opacity=".8" xml:space="preserve" font-size="12.666px" y="-458.49609" x="-1208.816" font-family="&apos;Bitstream Vera Sans&apos;" fill="#000000"><tspan id="tspan4089-7-2-9-75-7-9" y="-458.49609" x="-1208.816"/></text>
 <text id="text4087-2-6-5-59-8-3" opacity=".8" xml:space="preserve" font-size="12.666px" y="287.05743" x="-3032.5017" font-family="&apos;Bitstream Vera Sans&apos;" fill="#000000"><tspan id="tspan4089-7-2-9-4-2-5" y="287.05743" x="-3032.5017"/></text>
 <g id="layer4-0-7" transform="matrix(.90475 0 0 .90475 -716.75 -669.05)">
  <text id="text4087-2-6-5-20-0" opacity=".8" xml:space="preserve" font-size="14px" y="1159.4154" x="-664.2738" font-family="&apos;Bitstream Vera Sans&apos;" fill="#000000"><tspan id="tspan4089-7-2-9-82-8" y="1159.4154" x="-664.2738"/></text>
 </g>
 <text id="text7276" xml:space="preserve" font-size="12.666px" y="-361.22546" x="435.90427" font-family="&apos;Droid Sans&apos;" fill="#000000"><tspan id="tspan7278" y="-361.22546" x="435.90427"/><tspan id="tspan7280" y="-345.3924" x="435.90427"/></text>
 <text id="text4087-2-6-5-51" opacity=".8" xml:space="preserve" font-size="12.666px" y="-843.27002" x="901.0882" font-family="&apos;Bitstream Vera Sans&apos;" fill="#000000"><tspan id="tspan4089-7-2-9-97" y="-843.27002" x="901.0882"/></text>
 <text id="text4087-2-6-5-59-2" opacity=".8" xml:space="preserve" font-size="12.666px" y="-97.716553" x="-922.59778" font-family="&apos;Bitstream Vera Sans&apos;" fill="#000000"><tspan id="tspan4089-7-2-9-4-4" y="-97.716553" x="-922.59778"/></text>
 <text id="text4087-2-6-5-7-7" opacity=".8" xml:space="preserve" font-size="12.666px" y="-1128.2659" x="1628.1677" font-family="&apos;Bitstream Vera Sans&apos;" fill="#000000"><tspan id="tspan4089-7-2-9-1-6" y="-1128.2659" x="1628.1677"/></text>
 <text id="text4087-2-6-5-5-6" opacity=".8" xml:space="preserve" font-size="12.666px" y="-1169.0076" x="1652.1285" font-family="&apos;Bitstream Vera Sans&apos;" fill="#000000"><tspan id="tspan4089-7-2-9-6-53" y="-1169.0076" x="1652.1285"/></text>
 <text id="text4087-2-6-5-54" opacity=".8" xml:space="preserve" font-size="12.666px" y="-1176.2175" x="160.66542" font-family="&apos;Bitstream Vera Sans&apos;" fill="#000000"><tspan id="tspan4089-7-2-9-0" y="-1176.2175" x="160.66542"/></text>
 <text id="text4087-2-6-5-4-1" opacity=".8" xml:space="preserve" font-size="12.666px" y="-1449.4517" x="1621.2083" font-family="&apos;Bitstream Vera Sans&apos;" fill="#000000"><tspan id="tspan4089-7-2-9-9-28" y="-1449.4517" x="1621.2083"/></text>
 <rect id="rect4203" ry="2" rx="2" transform="matrix(0,-1,-1,0,0,0)" height="40" width="40" y="-44" x="-44" fill="#f3f3f3"/>
 <path id="rect4592" opacity=".2" d="m6 4c-1.108 0-2 0.892-2 2v1c0-1.108 0.892-2 2-2h36c1.108 0 2 0.892 2 2v-1c0-1.108-0.892-2-2-2h-36z" fill="#fff"/>
 <path id="path4597" opacity=".3" d="m6 44c-1.108 0-2-0.892-2-2v-1c0 1.108 0.892 2 2 2h36c1.108 0 2-0.892 2-2v1c0 1.108-0.892 2-2 2h-36z"/>
 <path id="path3032" fill="#d70751" d="m31.676 22.128c0.02502 0.70158-0.19601 1.0425-0.39592 1.6453l-0.3595 0.18672c-0.29388 0.59645 0.02918 0.37866-0.18128 0.85286-0.45931 0.426-1.3918 1.3326-1.6904 1.4156-0.21825-0.005 0.14764-0.2689 0.19546-0.37198-0.61418 0.44022-0.49295 0.66092-1.4324 0.92894l-0.02724-0.06418c-2.316 1.1383-5.5334-1.1171-5.4911-4.194-0.02447 0.19514-0.07035 0.14636-0.1215 0.22476-0.11955-1.5829 0.70009-3.1728 2.0825-3.8229 1.3521-0.69867 2.9371-0.41235 3.905 0.53112-0.5316-0.72771-1.5906-1.4993-2.8448-1.4278-1.2292 0.02091-2.3794 0.8366-2.7631 1.7226-0.62947 0.4138-0.70287 1.596-0.97701 1.8126-0.36951 2.8342 0.69425 4.0581 2.494 5.4988 0.28248 0.1992 0.07952 0.2297 0.11733 0.38128-0.59777-0.29213-1.1449-0.73352-1.5954-1.2739 0.23911 0.36502 0.49684 0.71987 0.83021 0.99864-0.56413-0.19891-1.3173-1.4267-1.5367-1.4766 0.97172 1.8172 3.9419 3.187 5.4981 2.5072-0.72011 0.02787-1.6346 0.01538-2.4431-0.29677-0.34059-0.18266-0.80184-0.56045-0.71927-0.63101 2.1231 0.82789 4.3156 0.62665 6.1523-0.91094 0.46765-0.38041 0.97812-1.0271 1.1258-1.0358-0.22215 0.34904 0.03808 0.16784-0.13262 0.47594 0.46487-0.78433-0.20269-0.31942 0.481-1.3544l0.25245 0.36298c-0.09453-0.65163 0.77432-1.4421 0.68591-2.4718 0.19935-0.31478 0.22215 0.33917 0.01084 1.0634 0.29333-0.8035 0.07757-0.93272 0.15264-1.596 0.08091 0.22302 0.18851 0.45968 0.24328 0.69518-0.19129-0.77678 0.19546-1.3076 0.29166-1.7592-0.09508-0.04356-0.29499 0.34324-0.34115-0.5738 0.007-0.39841 0.10649-0.20879 0.14458-0.30694-0.07452-0.04501-0.27108-0.3505-0.39036-0.9362 0.08591-0.13793 0.23132 0.35688 0.34921 0.37692-0.07591-0.46549-0.2063-0.82063-0.21186-1.1781-0.34476-0.7521-0.12206 0.10048-0.4012-0.32291-0.367-1.1946 0.30417-0.27732 0.34977-0.81976 0.55551 0.84067 0.87219 2.1445 1.0182 2.6843-0.11122-0.6583-0.29055-1.2963-0.50991-1.9133 0.16932 0.07462-0.27219-1.3541 0.21992-0.40799-0.5252-2.0167-2.2459-3.9013-3.8293-4.7853 0.19323 0.18498 0.43762 0.41728 0.35032 0.45387-0.78794-0.4893-0.64948-0.52792-0.76236-0.73468-0.64086-0.27267-0.68368 0.02236-1.1077 0.000581-1.2094-0.67021-1.4424-0.59907-2.5554-1.0184l0.05061 0.24741c-0.80101-0.27877-0.93336 0.10512-1.7989 0.000581-0.05255-0.04267 0.27748-0.15565 0.54939-0.19659-0.7746 0.10686-0.73845-0.15971-1.4964 0.02933 0.18656-0.13677 0.38452-0.22766 0.58359-0.34382-0.63141 0.04007-1.508 0.38389-1.2375 0.07085-1.0301 0.4803-2.8598 1.1543-3.8866 2.1599l-0.03225-0.22534c-0.47043 0.58977-2.0516 1.7615-2.1776 2.5261l-0.12595 0.03049c-0.24439 0.43297-0.40315 0.92343-0.59722 1.3686-0.32002 0.57003-0.46932 0.21953-0.42372 0.30897-0.63 1.334-0.943 2.454-1.213 3.374 0.1924 0.30055 0.0048 1.8097 0.07729 3.0174-0.31584 5.9657 4.0087 11.757 8.7358 13.094 0.69286 0.25932 1.723 0.25002 2.5993 0.27558-1.0337-0.30897-1.1672-0.16349-2.1748-0.53024-0.7265-0.35776-0.88554-0.76575-1.4005-1.2324l0.2038 0.37605c-1.009-0.374-0.587-0.462-1.408-0.734l0.2177-0.29648c-0.32725-0.02614-0.86663-0.57555-1.014-0.88074l-0.35811 0.01481c-0.42984-0.55348-0.65922-0.95334-0.64226-1.2632l-0.11566 0.21547c-0.132-0.235-1.583-2.079-0.83-1.649-0.14-0.133-0.326-0.217-0.527-0.6l0.1532-0.18265c-0.36172-0.48698-0.66672-1.111-0.64337-1.3189 0.19323 0.27238 0.32725 0.32349 0.46014 0.37024-0.915-2.3707-0.96644-0.13038-1.659-2.4131l0.14624-0.01219c-0.11205-0.17744-0.18072-0.3688-0.2708-0.55726l0.06395-0.66353c-0.658-0.794-0.184-3.381-0.089-4.8 0.066-0.576 0.55-1.191 0.918-2.154l-0.22409-0.04007c0.42873-0.78056 2.4472-3.1359 3.3825-3.0151 0.45292-0.59413-0.09009-0.0023-0.17878-0.15158 0.99508-1.0753 1.3079-0.75965 1.9793-0.95334 0.72372-0.44865-0.6214 0.17539-0.27831-0.17104 1.252-0.33366 0.88692-0.75907 2.5198-0.92836 0.17238 0.10222-0.39953 0.15797-0.543 0.29068 1.0426-0.53315 3.3-0.41148 4.7669 0.29561 1.7007 0.8308 3.6128 3.2854 3.6884 5.5949l0.08591 0.02409c-0.04337 0.9182 0.13457 1.9801-0.17432 2.9553l0.2088-0.462"/>
</svg>
