<?xml version="1.0" encoding="UTF-8" standalone="no"?>
<!-- Created with Inkscape (http://www.inkscape.org/) -->

<svg
   xmlns:dc="http://purl.org/dc/elements/1.1/"
   xmlns:cc="http://creativecommons.org/ns#"
   xmlns:rdf="http://www.w3.org/1999/02/22-rdf-syntax-ns#"
   xmlns:svg="http://www.w3.org/2000/svg"
   xmlns="http://www.w3.org/2000/svg"
   xmlns:sodipodi="http://sodipodi.sourceforge.net/DTD/sodipodi-0.dtd"
   xmlns:inkscape="http://www.inkscape.org/namespaces/inkscape"
   width="48"
   height="48"
   viewBox="0 0 48 48.000001"
   id="svg4211"
   version="1.1"
   inkscape:version="0.91 r"
   sodipodi:docname="audiobook.svg">
  <defs
     id="defs4213" />
  <sodipodi:namedview
     id="base"
     pagecolor="#ffffff"
     bordercolor="#666666"
     borderopacity="1.0"
     inkscape:pageopacity="0.0"
     inkscape:pageshadow="2"
     inkscape:zoom="8.6599296"
     inkscape:cx="24.310018"
     inkscape:cy="20.895528"
     inkscape:document-units="px"
     inkscape:current-layer="layer1"
     showgrid="false"
     units="px"
     inkscape:window-width="1600"
     inkscape:window-height="846"
     inkscape:window-x="0"
     inkscape:window-y="26"
     inkscape:window-maximized="1" />
  <metadata
     id="metadata4216">
    <rdf:RDF>
      <cc:Work
         rdf:about="">
        <dc:format>image/svg+xml</dc:format>
        <dc:type
           rdf:resource="http://purl.org/dc/dcmitype/StillImage" />
        <dc:title></dc:title>
      </cc:Work>
    </rdf:RDF>
  </metadata>
  <g
     inkscape:label="Layer 1"
     inkscape:groupmode="layer"
     id="layer1"
     transform="translate(0,-1004.3622)">
    <path
       style="opacity:1;fill:#009587;fill-opacity:1;stroke:none"
       d="m 10,1008.3622 c -1.108,0 -2,0.892 -2,2 l 0,36 c 0,1.108 0.892,2 2,2 l 13.97852,0 14.02148,0 c 1.108,0 2,-0.892 2,-2 l 0,-36 c 0,-1.108 -0.892,-2 -2,-2 l -14.02148,0 -13.97852,0 z"
       id="path8375"
       inkscape:connector-curvature="0" />
    <path
       style="opacity:0.2;fill:#000000;fill-opacity:1;stroke:none"
       d="m 10,1008.3622 c -1.108,0 -2,0.892 -2,2 l 0,36 c 0,1.108 0.892,2 2,2 l 3.97852,0 0,-40 -3.97852,0 z"
       id="path4229"
       inkscape:connector-curvature="0" />
    <path
       sodipodi:nodetypes="cccccccc"
       inkscape:connector-curvature="0"
       id="path4452"
       d="m 31.97852,1008.3622 c -1,0 -1,1 -1,1 l 0,16.5 2.5,-1.5 2.5,1.5 0,-16.5 c 0,-1 -1,-1 -1,-1 z"
       style="display:inline;opacity:0.2;fill:#000000;fill-opacity:1;stroke:none;enable-background:new" />
    <path
       style="display:inline;fill:#d8d8d8;fill-opacity:1;stroke:none;enable-background:new"
       d="m 30.97852,1008.3622 0,16.5 2.5,-1.5 2.5,1.5 0,-16.5 -5,0 z"
       id="path5078-2"
       inkscape:connector-curvature="0" />
    <path
       style="opacity:0.2;fill:#ffffff;fill-opacity:1;stroke:none"
       d="m 10,1008.3622 c -1.108,0 -2,0.892 -2,2 l 0,1 c 0,-1.108 0.892,-2 2,-2 l 13.97852,0 14.02148,0 c 1.108,0 2,0.892 2,2 l 0,-1 c 0,-1.108 -0.892,-2 -2,-2 l -14.02148,0 -13.97852,0 z"
       id="path4374"
       inkscape:connector-curvature="0" />
    <path
       style="opacity:0.3;fill:#000000;fill-opacity:1;stroke:none"
       d="M 8 41 L 8 42 C 8 43.108 8.892 44 10 44 L 23.978516 44 L 38 44 C 39.108 44 40 43.108 40 42 L 40 41 C 40 42.108 39.108 43 38 43 L 23.978516 43 L 10 43 C 8.892 43 8 42.108 8 41 z "
       transform="translate(0,1004.3622)"
       id="path4795" />
    <g
       transform="translate(1,1005.3622)"
       id="g4569">
      <circle
         id="path4058-7"
         style="fill:#f34235;enable-background:new"
         cx="34"
         cy="34"
         r="12" />
      <path
         inkscape:connector-curvature="0"
         id="circle4454"
         style="opacity:0.3;enable-background:new"
         d="M 45.98,33.406 A 12,12 0 0 1 34,45 12,12 0 0 1 22.02,33.594 12,12 0 0 0 22,34 12,12 0 0 0 34,46 12,12 0 0 0 46,34 12,12 0 0 0 45.98,33.406 Z" />
      <path
         inkscape:connector-curvature="0"
         d="m 37.69889,34 c 0,-1.3 -0.72,-2.42 -1.79,-3 l 0,6 c 1.06,-0.58 1.79,-1.7 1.79,-3 z M 27,31.09091 l 0,5.81818 2.81818,0 4.09071,4.09091 0,-14 -4.09071,4.09091 z M 35.90889,27 l 0,1.5 c 2.32,0.74 4,2.93 4,5.5 0,2.57 -1.68,4.76 -4,5.5 l 0,1.5 c 3.15,-0.78 5.5,-3.6 5.5,-7 0,-3.4 -2.35,-6.22 -5.5,-7 z"
         id="path5075"
         sodipodi:nodetypes="sccscccccccccsccsc"
         style="opacity:1;fill:#ffffff;fill-opacity:1;stroke:none" />
    </g>
  </g>
</svg>
