<?xml version="1.0" encoding="UTF-8" standalone="no"?>
<!-- Created with Inkscape (http://www.inkscape.org/) -->
<svg id="svg5453" xmlns:rdf="http://www.w3.org/1999/02/22-rdf-syntax-ns#" xmlns="http://www.w3.org/2000/svg" height="48" width="48" version="1.1" xmlns:cc="http://creativecommons.org/ns#" xmlns:dc="http://purl.org/dc/elements/1.1/">
 <metadata id="metadata5458">
  <rdf:RDF>
   <cc:Work rdf:about="">
    <dc:format>image/svg+xml</dc:format>
    <dc:type rdf:resource="http://purl.org/dc/dcmitype/StillImage"/>
    <dc:title/>
   </cc:Work>
  </rdf:RDF>
 </metadata>
 <g id="layer1" transform="translate(-384.57 -499.8)">
  <path id="path4184" transform="translate(384.57 499.8)" fill="#f4b43f" d="m22.846 4.002a2.996 2.9983 0 0 0 -1.703 5.3984l3.404 2.6206h-16.555a2.996 2.9983 0 1 0 0.0002 5.997h7.5078l-12.266 8.918a2.996 2.9983 0 1 0 3.5199 4.849l6.2691-4.556a15.977 15.989 0 0 0 -0.039 0.781 15.977 15.989 0 0 0 15.977 15.99 15.977 15.989 0 0 0 15.977 -15.99 15.977 15.989 0 0 0 -6.946 -13.188 2.996 2.9983 0 0 0 -0.215 -0.181l-12.982-9.9945a2.996 2.9983 0 0 0 -1.949 -0.6445zm6.154 13.998a10 10 0 0 1 10 10 10 10 0 0 1 -10 10 10 10 0 0 1 -10 -10 10 10 0 0 1 10 -10z"/>
  <circle id="path4178" cy="527.8" cx="413.57" r="5" fill="#408ef4"/>
  <path id="path4180" opacity=".3" transform="translate(384.57 499.8)" d="m19.984 6.5039a2.996 2.9983 0 0 0 1.159 2.8965l2.105 1.6206h1.299l-3.404-2.6206a2.996 2.9983 0 0 1 -1.159 -1.8965zm-14.982 8.0101a2.996 2.9983 0 0 0 2.9902 3.504h6.1328l1.375-1h-7.5078a2.996 2.9983 0 0 1 -2.9902 -2.504zm23.998 2.486a10 10 0 0 0 -10 10 10 10 0 0 0 0.021 0.586 10 10 0 0 1 9.979 -9.586 10 10 0 0 1 9.979 9.414 10 10 0 0 0 0.021 -0.414 10 10 0 0 0 -10 -10zm-15.977 9.229l-6.2691 4.556a2.996 2.9983 0 0 1 -4.7871 -1.879 2.996 2.9983 0 0 0 4.7871 2.879l6.2421-4.537a15.977 15.989 0 0 1 -0.012 -0.238 15.977 15.989 0 0 1 0.039 -0.781zm20.95 1.255a5 5 0 0 1 -4.973 4.516 5 5 0 0 1 -4.973 -4.484 5 5 0 0 0 -0.027 0.484 5 5 0 0 0 5 5 5 5 0 0 0 5 -5 5 5 0 0 0 -0.027 -0.516zm-20.963 0.026a15.977 15.989 0 0 0 -0.026 0.5 15.977 15.989 0 0 0 15.977 15.99 15.977 15.989 0 0 0 15.977 -15.99 15.977 15.989 0 0 0 -0.02 -0.408 15.977 15.989 0 0 1 -15.957 15.398 15.977 15.989 0 0 1 -15.951 -15.49z"/>
  <path id="path4187" opacity=".2" transform="translate(384.57 499.8)" fill="#fff" d="m22.846 4.002a2.996 2.9983 0 0 0 -2.862 3.5019 2.996 2.9983 0 0 1 2.862 -2.5019 2.996 2.9983 0 0 1 1.949 0.6445l12.982 9.9945a2.996 2.9983 0 0 1 0.215 0.181 15.977 15.989 0 0 1 6.926 12.78 15.977 15.989 0 0 0 0.02 -0.592 15.977 15.989 0 0 0 -6.946 -13.188 2.996 2.9983 0 0 0 -0.215 -0.181l-12.982-9.9945a2.996 2.9983 0 0 0 -1.949 -0.6445zm-14.854 8.019a2.996 2.9983 0 0 0 -2.9902 3.493 2.996 2.9983 0 0 1 2.9902 -2.493h16.555l-1.299-1h-15.256zm6.1328 6.997l-10.891 7.918a2.996 2.9983 0 0 0 -1.2672 2.97 2.996 2.9983 0 0 1 1.2676 -1.97l12.266-8.918h-1.375zm14.875 3.982a5 5 0 0 0 -5 5 5 5 0 0 0 0.027 0.516 5 5 0 0 1 4.973 -4.516 5 5 0 0 1 4.973 4.484 5 5 0 0 0 0.027 -0.484 5 5 0 0 0 -5 -5zm-15.977 5.229l-0.027 0.019a15.977 15.989 0 0 0 0.014 0.262 15.977 15.989 0 0 1 0.013 -0.281zm25.956 0.185a10 10 0 0 1 -9.979 9.586 10 10 0 0 1 -9.979 -9.414 10 10 0 0 0 -0.021 0.414 10 10 0 0 0 10 10 10 10 0 0 0 10 -10 10 10 0 0 0 -0.021 -0.586z"/>
 </g>
</svg>
