<?xml version="1.0" encoding="UTF-8" standalone="no"?>
<!-- Created with Inkscape (http://www.inkscape.org/) -->

<svg
   xmlns:dc="http://purl.org/dc/elements/1.1/"
   xmlns:cc="http://creativecommons.org/ns#"
   xmlns:rdf="http://www.w3.org/1999/02/22-rdf-syntax-ns#"
   xmlns:svg="http://www.w3.org/2000/svg"
   xmlns="http://www.w3.org/2000/svg"
   xmlns:sodipodi="http://sodipodi.sourceforge.net/DTD/sodipodi-0.dtd"
   xmlns:inkscape="http://www.inkscape.org/namespaces/inkscape"
   width="48"
   height="48"
   viewBox="0 0 48 48.000001"
   id="svg4222"
   version="1.1"
   inkscape:version="0.91 r"
   sodipodi:docname="user-desktop.svg">
  <defs
     id="defs4224">
    <filter
       inkscape:collect="always"
       id="filter3833"
       x="-0.14"
       width="1.28"
       y="-0.105"
       height="1.21">
      <feGaussianBlur
         inkscape:collect="always"
         stdDeviation="0.7"
         id="feGaussianBlur3835" />
    </filter>
  </defs>
  <sodipodi:namedview
     id="base"
     pagecolor="#ffffff"
     bordercolor="#666666"
     borderopacity="1.0"
     inkscape:pageopacity="0.0"
     inkscape:pageshadow="2"
     inkscape:zoom="5.33"
     inkscape:cx="4.2551595"
     inkscape:cy="60.566434"
     inkscape:document-units="px"
     inkscape:current-layer="layer1"
     showgrid="false"
     units="px"
     inkscape:window-width="1551"
     inkscape:window-height="876"
     inkscape:window-x="49"
     inkscape:window-y="24"
     inkscape:window-maximized="1" />
  <metadata
     id="metadata4227">
    <rdf:RDF>
      <cc:Work
         rdf:about="">
        <dc:format>image/svg+xml</dc:format>
        <dc:type
           rdf:resource="http://purl.org/dc/dcmitype/StillImage" />
        <dc:title></dc:title>
      </cc:Work>
    </rdf:RDF>
  </metadata>
  <g
     inkscape:label="Layer 1"
     inkscape:groupmode="layer"
     id="layer1"
     transform="translate(0,-1004.3622)">
    <g
       transform="translate(-136,767.3622)"
       style="display:inline;enable-background:new"
       id="g4197">
      <path
         sodipodi:nodetypes="csssscc"
         inkscape:connector-curvature="0"
         id="rect4203"
         d="m 140,247 0,30 c 0,1.108 0.892,2 2,2 l 36,0 c 1.108,0 2,-0.892 2,-2 l 0,-30 z"
         style="fill:#4ab3e4;fill-opacity:1;stroke:none" />
      <path
         sodipodi:nodetypes="ssccsss"
         inkscape:connector-curvature="0"
         id="rect3328"
         d="m 142,243 c -1.108,0 -2,0.892 -2,2 l 0,2 40,0 0,-2 c 0,-1.108 -0.892,-2 -2,-2 z"
         style="fill:#4d4d4d;fill-opacity:1;stroke:none" />
      <path
         sodipodi:nodetypes="sscsscsss"
         inkscape:connector-curvature="0"
         id="path3345"
         d="m 142,243 c -1.108,0 -2,0.892 -2,2 l 0,1 c 0,-1.108 0.892,-2 2,-2 l 36,0 c 1.108,0 2,0.892 2,2 l 0,-1 c 0,-1.108 -0.892,-2 -2,-2 z"
         style="opacity:0.1;fill:#ffffff;fill-opacity:1;stroke:none" />
      <path
         sodipodi:nodetypes="ssssssccs"
         inkscape:connector-curvature="0"
         id="path4155"
         d="m 165,259 c -0.554,0 -1,0.446 -1,1 l 0,14 c 0,0.554 0.446,1 1,1 l 10,0 c 0.554,0 1,-0.446 1,-1 l 0,-9 -6,-6 z"
         style="display:inline;opacity:0.2;fill:#000000;fill-opacity:1;stroke:none;filter:url(#filter3833);enable-background:new" />
      <path
         sodipodi:nodetypes="ssssssccs"
         inkscape:connector-curvature="0"
         id="rect4137"
         d="m 165,258 c -0.554,0 -1,0.446 -1,1 l 0,14 c 0,0.554 0.446,1 1,1 l 10,0 c 0.554,0 1,-0.446 1,-1 l 0,-9 -6,-6 z"
         style="display:inline;fill:#e1e1e1;fill-opacity:1;stroke:none;enable-background:new" />
      <path
         sodipodi:nodetypes="csscc"
         inkscape:connector-curvature="0"
         id="path4147"
         d="m 170,258 0,5 c 0,0.55228 0.44772,1 1,1 l 5,0 z"
         style="display:inline;fill:#f5f5f5;fill-opacity:1;stroke:none;enable-background:new" />
    </g>
  </g>
</svg>
