<?xml version="1.0" encoding="UTF-8" standalone="no"?>
<!-- Created with Inkscape (http://www.inkscape.org/) -->

<svg
   xmlns:dc="http://purl.org/dc/elements/1.1/"
   xmlns:cc="http://creativecommons.org/ns#"
   xmlns:rdf="http://www.w3.org/1999/02/22-rdf-syntax-ns#"
   xmlns:svg="http://www.w3.org/2000/svg"
   xmlns="http://www.w3.org/2000/svg"
   xmlns:sodipodi="http://sodipodi.sourceforge.net/DTD/sodipodi-0.dtd"
   xmlns:inkscape="http://www.inkscape.org/namespaces/inkscape"
   width="48"
   height="48"
   viewBox="0 0 48 48.000001"
   id="svg4398"
   version="1.1"
   inkscape:version="0.91 r"
   sodipodi:docname="devassistant.svg">
  <defs
     id="defs4400" />
  <sodipodi:namedview
     id="base"
     pagecolor="#ffffff"
     bordercolor="#666666"
     borderopacity="1.0"
     inkscape:pageopacity="0.0"
     inkscape:pageshadow="2"
     inkscape:zoom="1"
     inkscape:cx="24.176345"
     inkscape:cy="23.033306"
     inkscape:document-units="px"
     inkscape:current-layer="layer1"
     showgrid="false"
     units="px"
     inkscape:window-width="1600"
     inkscape:window-height="846"
     inkscape:window-x="0"
     inkscape:window-y="26"
     inkscape:window-maximized="1" />
  <metadata
     id="metadata4403">
    <rdf:RDF>
      <cc:Work
         rdf:about="">
        <dc:format>image/svg+xml</dc:format>
        <dc:type
           rdf:resource="http://purl.org/dc/dcmitype/StillImage" />
        <dc:title></dc:title>
      </cc:Work>
    </rdf:RDF>
  </metadata>
  <g
     inkscape:label="Layer 1"
     inkscape:groupmode="layer"
     id="layer1"
     transform="translate(0,-1004.3622)">
    <g
       id="g4993"
       transform="translate(-0.5,0.5)">
      <path
         sodipodi:nodetypes="ccccccccc"
         inkscape:connector-curvature="0"
         style="fill:#02a8f3;fill-opacity:1;stroke:none"
         d="m 4.5,1011.8622 0,30 c 0,2 2,2 2,2 l 37,0 z m 8,16.8574 8.75,7.1426 -8.75,0 z"
         id="path4411" />
      <path
         sodipodi:nodetypes="ccccccccc"
         inkscape:connector-curvature="0"
         id="rect4203"
         d="m 43.5,1043.8622 0,-30 c 0,0 0,-2 -2,-2 l -37,0 z m -8,-16.8574 -8.75,-7.1426 8.75,0 z"
         style="fill:#3e50b4;fill-opacity:1;stroke:none" />
      <path
         inkscape:connector-curvature="0"
         id="path4413"
         d="m 4.5,1011.8622 0,1 37.78125,31 1.21875,0 -39,-32 z m 8,24 0,1 8.75,0 -1.22461,-1 -7.52539,0 z"
         style="opacity:0.2;fill:#ffffff;fill-opacity:1;stroke:none" />
      <path
         inkscape:connector-curvature="0"
         id="path4420"
         d="m 4.5,1011.8622 1.21875,1 35.78125,0 c 0,0 2,0 2,2 l 0,-1 c 0,-2 -2,-2 -2,-2 l -37,0 z m 22.25,9 8.75,7.1426 0,-1 -7.52539,-6.1426 -1.22461,0 z"
         style="opacity:0.2;fill:#ffffff;fill-opacity:1;stroke:none" />
      <path
         inkscape:connector-curvature="0"
         id="path4431"
         d="m 4.5,1011.8622 39,32 0,-1 -37.78125,-31 -1.21875,0 z m 22.25,7 1.22461,1 7.52539,0 0,-1 -8.75,0 z"
         style="opacity:0.1;fill:#000000;fill-opacity:1;stroke:none" />
      <path
         inkscape:connector-curvature="0"
         id="path4439"
         d="m 12.5,1027.7196 0,1 7.52539,6.1426 1.22461,0 -8.75,-7.1426 z m -8,13.1426 0,1 c 0,2 2,2 2,2 l 37,0 -1.21875,-1 -35.78125,0 c 0,0 -2,0 -2,-2 z"
         style="opacity:0.1;fill:#000000;fill-opacity:1;stroke:none" />
    </g>
  </g>
</svg>
