<?xml version="1.0" encoding="UTF-8" standalone="no"?>
<!-- Created with Inkscape (http://www.inkscape.org/) -->

<svg
   xmlns:dc="http://purl.org/dc/elements/1.1/"
   xmlns:cc="http://creativecommons.org/ns#"
   xmlns:rdf="http://www.w3.org/1999/02/22-rdf-syntax-ns#"
   xmlns:svg="http://www.w3.org/2000/svg"
   xmlns="http://www.w3.org/2000/svg"
   xmlns:sodipodi="http://sodipodi.sourceforge.net/DTD/sodipodi-0.dtd"
   xmlns:inkscape="http://www.inkscape.org/namespaces/inkscape"
   id="svg2817"
   height="48"
   width="48"
   version="1.0"
   inkscape:version="0.91 r13725"
   sodipodi:docname="dota2.svg">
  <defs
     id="defs223" />
  <sodipodi:namedview
     pagecolor="#ffffff"
     bordercolor="#666666"
     borderopacity="1"
     objecttolerance="10"
     gridtolerance="10"
     guidetolerance="10"
     inkscape:pageopacity="0"
     inkscape:pageshadow="2"
     inkscape:window-width="1600"
     inkscape:window-height="845"
     id="namedview221"
     showgrid="false"
     inkscape:zoom="1"
     inkscape:cx="24"
     inkscape:cy="23.031257"
     inkscape:window-x="0"
     inkscape:window-y="31"
     inkscape:window-maximized="1"
     inkscape:current-layer="svg2817" />
  <metadata
     id="metadata57">
    <rdf:RDF>
      <cc:Work
         rdf:about="">
        <dc:format>image/svg+xml</dc:format>
        <dc:type
           rdf:resource="http://purl.org/dc/dcmitype/StillImage" />
        <dc:title></dc:title>
      </cc:Work>
    </rdf:RDF>
  </metadata>
  <text
     id="text4087-2-6-5"
     opacity=".8"
     font-size="12.666px"
     xml:space="preserve"
     y="10.812601"
     x="877.22626"
     font-family="'Bitstream Vera Sans'"
     fill="#000000"><tspan
       id="tspan4089-7-2-9"
       y="10.812601"
       x="877.22626" /></text>
  <text
     id="text4087-2-6-5-5"
     opacity=".8"
     font-size="12.666px"
     xml:space="preserve"
     y="-29.929106"
     x="901.18719"
     font-family="'Bitstream Vera Sans'"
     fill="#000000"><tspan
       id="tspan4089-7-2-9-6"
       y="-29.929106"
       x="901.18719" /></text>
  <text
     id="text4087-2-6-5-2"
     opacity=".8"
     font-size="12.666px"
     xml:space="preserve"
     y="-60.007248"
     x="-569.37115"
     font-family="'Bitstream Vera Sans'"
     fill="#000000"><tspan
       id="tspan4089-7-2-9-2"
       y="-60.007248"
       x="-569.37115" /></text>
  <text
     id="text4087-2-6-5-59"
     opacity=".8"
     font-size="12.666px"
     xml:space="preserve"
     y="685.5462"
     x="-2393.0571"
     font-family="'Bitstream Vera Sans'"
     fill="#000000"><tspan
       id="tspan4089-7-2-9-4"
       y="685.5462"
       x="-2393.0571" /></text>
  <text
     id="text4087-2-6-5-1"
     opacity=".8"
     font-size="12.666px"
     xml:space="preserve"
     y="-445.32822"
     x="-454.88007"
     font-family="'Bitstream Vera Sans'"
     fill="#000000"><tspan
       id="tspan4089-7-2-9-7"
       y="-445.32822"
       x="-454.88007" /></text>
  <text
     id="text4087-2-6-5-7"
     opacity=".8"
     font-size="12.666px"
     xml:space="preserve"
     y="-858.79834"
     x="352.72208"
     font-family="'Bitstream Vera Sans'"
     fill="#000000"><tspan
       id="tspan4089-7-2-9-1"
       y="-858.79834"
       x="352.72208" /></text>
  <text
     id="text4087-2-6-5-5-3"
     opacity=".8"
     font-size="12.666px"
     xml:space="preserve"
     y="-899.54004"
     x="376.68301"
     font-family="'Bitstream Vera Sans'"
     fill="#000000"><tspan
       id="tspan4089-7-2-9-6-5"
       y="-899.54004"
       x="376.68301" /></text>
  <text
     id="text4087-2-6-5-3"
     opacity=".8"
     font-size="12.666px"
     xml:space="preserve"
     y="-906.74994"
     x="-1114.7802"
     font-family="'Bitstream Vera Sans'"
     fill="#000000"><tspan
       id="tspan4089-7-2-9-18"
       y="-906.74994"
       x="-1114.7802" /></text>
  <text
     id="text4087-2-6-5-4"
     opacity=".8"
     font-size="12.666px"
     xml:space="preserve"
     y="-1179.9841"
     x="345.7626"
     font-family="'Bitstream Vera Sans'"
     fill="#000000"><tspan
       id="tspan4089-7-2-9-9"
       y="-1179.9841"
       x="345.7626" /></text>
  <text
     id="text4087-2-6-5-7-1"
     opacity=".8"
     font-size="12.666px"
     xml:space="preserve"
     y="-553.29272"
     x="1831.8861"
     font-family="'Bitstream Vera Sans'"
     fill="#000000"><tspan
       id="tspan4089-7-2-9-1-8"
       y="-553.29272"
       x="1831.8861" /></text>
  <text
     id="text4087-2-6-5-5-5"
     opacity=".8"
     font-size="12.666px"
     xml:space="preserve"
     y="-594.03448"
     x="1855.8469"
     font-family="'Bitstream Vera Sans'"
     fill="#000000"><tspan
       id="tspan4089-7-2-9-6-9"
       y="-594.03448"
       x="1855.8469" /></text>
  <text
     id="text4087-2-6-5-75"
     opacity=".8"
     font-size="12.666px"
     xml:space="preserve"
     y="-601.24438"
     x="364.38376"
     font-family="'Bitstream Vera Sans'"
     fill="#000000"><tspan
       id="tspan4089-7-2-9-3"
       y="-601.24438"
       x="364.38376" /></text>
  <text
     id="text4087-2-6-5-4-8"
     opacity=".8"
     font-size="12.666px"
     xml:space="preserve"
     y="-874.47839"
     x="1824.9266"
     font-family="'Bitstream Vera Sans'"
     fill="#000000"><tspan
       id="tspan4089-7-2-9-9-8"
       y="-874.47839"
       x="1824.9266" /></text>
  <text
     id="text4087-2-6-5-45"
     opacity=".8"
     font-size="12.666px"
     xml:space="preserve"
     y="-649.33569"
     x="-573.43256"
     font-family="'Bitstream Vera Sans'"
     fill="#000000"><tspan
       id="tspan4089-7-2-9-75"
       y="-649.33569"
       x="-573.43256" /></text>
  <text
     id="text4087-2-6-5-59-7"
     opacity=".8"
     font-size="12.666px"
     xml:space="preserve"
     y="96.217857"
     x="-2397.1182"
     font-family="'Bitstream Vera Sans'"
     fill="#000000"><tspan
       id="tspan4089-7-2-9-4-0"
       y="96.217857"
       x="-2397.1182" /></text>
  <text
     id="text4087-2-6-5-8"
     opacity=".8"
     font-size="12.666px"
     xml:space="preserve"
     y="189.09"
     x="-682.36279"
     font-family="'Bitstream Vera Sans'"
     fill="#000000"><tspan
       id="tspan4089-7-2-9-19"
       y="189.09"
       x="-682.36279" /></text>
  <text
     id="text4087-2-6-5-7-5"
     opacity=".8"
     font-size="12.666px"
     xml:space="preserve"
     y="9.9078522"
     x="426.66153"
     font-family="'Bitstream Vera Sans'"
     fill="#000000"><tspan
       id="tspan4089-7-2-9-1-2"
       y="9.9078522"
       x="426.66153" /></text>
  <text
     id="text4087-2-6-5-5-0"
     opacity=".8"
     font-size="12.666px"
     xml:space="preserve"
     y="-30.833855"
     x="450.62247"
     font-family="'Bitstream Vera Sans'"
     fill="#000000"><tspan
       id="tspan4089-7-2-9-6-2"
       y="-30.833855"
       x="450.62247" /></text>
  <text
     id="text4087-2-6-5-26"
     opacity=".8"
     font-size="12.666px"
     xml:space="preserve"
     y="-38.043827"
     x="-1040.8407"
     font-family="'Bitstream Vera Sans'"
     fill="#000000"><tspan
       id="tspan4089-7-2-9-90"
       y="-38.043827"
       x="-1040.8407" /></text>
  <text
     id="text4087-2-6-5-4-3"
     opacity=".8"
     font-size="12.666px"
     xml:space="preserve"
     y="-311.27789"
     x="419.70206"
     font-family="'Bitstream Vera Sans'"
     fill="#000000"><tspan
       id="tspan4089-7-2-9-9-5"
       y="-311.27789"
       x="419.70206" /></text>
  <text
     id="text4087-2-6-5-55"
     opacity=".8"
     font-size="12.666px"
     xml:space="preserve"
     y="-40.758072"
     x="-608.03253"
     font-family="'Bitstream Vera Sans'"
     fill="#000000"><tspan
       id="tspan4089-7-2-9-32"
       y="-40.758072"
       x="-608.03253" /></text>
  <text
     id="text4087-2-6-5-59-9"
     opacity=".8"
     font-size="12.666px"
     xml:space="preserve"
     y="704.79541"
     x="-2431.7185"
     font-family="'Bitstream Vera Sans'"
     fill="#000000"><tspan
       id="tspan4089-7-2-9-4-1"
       y="704.79541"
       x="-2431.7185" /></text>
  <text
     id="text4087-2-6-5-1-8"
     opacity=".8"
     font-size="12.666px"
     xml:space="preserve"
     y="-902.28857"
     x="-456.93948"
     font-family="'Bitstream Vera Sans'"
     fill="#000000"><tspan
       id="tspan4089-7-2-9-7-8"
       y="-902.28857"
       x="-456.93948" /></text>
  <text
     id="text4087-2-6-5-7-8"
     opacity=".8"
     font-size="12.666px"
     xml:space="preserve"
     y="-1315.7588"
     x="350.66266"
     font-family="'Bitstream Vera Sans'"
     fill="#000000"><tspan
       id="tspan4089-7-2-9-1-9"
       y="-1315.7588"
       x="350.66266" /></text>
  <text
     id="text4087-2-6-5-5-52"
     opacity=".8"
     font-size="12.666px"
     xml:space="preserve"
     y="-1356.5005"
     x="374.62357"
     font-family="'Bitstream Vera Sans'"
     fill="#000000"><tspan
       id="tspan4089-7-2-9-6-4"
       y="-1356.5005"
       x="374.62357" /></text>
  <text
     id="text4087-2-6-5-3-4"
     opacity=".8"
     font-size="12.666px"
     xml:space="preserve"
     y="-1363.7104"
     x="-1116.8396"
     font-family="'Bitstream Vera Sans'"
     fill="#000000"><tspan
       id="tspan4089-7-2-9-18-3"
       y="-1363.7104"
       x="-1116.8396" /></text>
  <text
     id="text4087-2-6-5-4-7"
     opacity=".8"
     font-size="12.666px"
     xml:space="preserve"
     y="-1636.9446"
     x="343.70316"
     font-family="'Bitstream Vera Sans'"
     fill="#000000"><tspan
       id="tspan4089-7-2-9-9-54"
       y="-1636.9446"
       x="343.70316" /></text>
  <text
     id="text4087-2-6-5-7-1-2"
     opacity=".8"
     font-size="12.666px"
     xml:space="preserve"
     y="-1010.2533"
     x="1829.8265"
     font-family="'Bitstream Vera Sans'"
     fill="#000000"><tspan
       id="tspan4089-7-2-9-1-8-0"
       y="-1010.2533"
       x="1829.8265" /></text>
  <text
     id="text4087-2-6-5-5-5-6"
     opacity=".8"
     font-size="12.666px"
     xml:space="preserve"
     y="-1050.9949"
     x="1853.7874"
     font-family="'Bitstream Vera Sans'"
     fill="#000000"><tspan
       id="tspan4089-7-2-9-6-9-8"
       y="-1050.9949"
       x="1853.7874" /></text>
  <text
     id="text4087-2-6-5-75-4"
     opacity=".8"
     font-size="12.666px"
     xml:space="preserve"
     y="-1058.2048"
     x="362.32431"
     font-family="'Bitstream Vera Sans'"
     fill="#000000"><tspan
       id="tspan4089-7-2-9-3-9"
       y="-1058.2048"
       x="362.32431" /></text>
  <text
     id="text4087-2-6-5-4-8-1"
     opacity=".8"
     font-size="12.666px"
     xml:space="preserve"
     y="-1331.439"
     x="1822.8671"
     font-family="'Bitstream Vera Sans'"
     fill="#000000"><tspan
       id="tspan4089-7-2-9-9-8-8"
       y="-1331.439"
       x="1822.8671" /></text>
  <text
     id="text4087-2-6-5-45-0"
     opacity=".8"
     font-size="12.666px"
     xml:space="preserve"
     y="-1106.2961"
     x="-575.492"
     font-family="'Bitstream Vera Sans'"
     fill="#000000"><tspan
       id="tspan4089-7-2-9-75-2"
       y="-1106.2961"
       x="-575.492" /></text>
  <text
     id="text4087-2-6-5-59-5"
     opacity=".8"
     font-size="12.666px"
     xml:space="preserve"
     y="-360.74261"
     x="-2399.1777"
     font-family="'Bitstream Vera Sans'"
     fill="#000000"><tspan
       id="tspan4089-7-2-9-4-00"
       y="-360.74261"
       x="-2399.1777" /></text>
  <text
     id="text4087-2-6-5-264"
     opacity=".8"
     font-size="12.666px"
     xml:space="preserve"
     y="-267.87045"
     x="-684.42224"
     font-family="'Bitstream Vera Sans'"
     fill="#000000"><tspan
       id="tspan4089-7-2-9-8"
       y="-267.87045"
       x="-684.42224" /></text>
  <text
     id="text4087-2-6-5-42"
     opacity=".8"
     font-size="12.666px"
     xml:space="preserve"
     y="-26.956278"
     x="155.5923"
     font-family="'Bitstream Vera Sans'"
     fill="#000000"><tspan
       id="tspan4089-7-2-9-93"
       y="-26.956278"
       x="155.5923" /></text>
  <text
     id="text4087-2-6-5-5-05"
     opacity=".8"
     font-size="12.666px"
     xml:space="preserve"
     y="-67.697998"
     x="179.55324"
     font-family="'Bitstream Vera Sans'"
     fill="#000000"><tspan
       id="tspan4089-7-2-9-6-49"
       y="-67.697998"
       x="179.55324" /></text>
  <text
     id="text4087-2-6-5-1-4"
     opacity=".8"
     font-size="12.666px"
     xml:space="preserve"
     y="-261.72662"
     x="-1090.2634"
     font-family="'Bitstream Vera Sans'"
     fill="#000000"><tspan
       id="tspan4089-7-2-9-7-7"
       y="-261.72662"
       x="-1090.2634" /></text>
  <text
     id="text4087-2-6-5-7-56"
     opacity=".8"
     font-size="12.666px"
     xml:space="preserve"
     y="-675.19678"
     x="-282.66141"
     font-family="'Bitstream Vera Sans'"
     fill="#000000"><tspan
       id="tspan4089-7-2-9-1-1"
       y="-675.19678"
       x="-282.66141" /></text>
  <text
     id="text4087-2-6-5-5-8"
     opacity=".8"
     font-size="12.666px"
     xml:space="preserve"
     y="-715.93848"
     x="-258.70047"
     font-family="'Bitstream Vera Sans'"
     fill="#000000"><tspan
       id="tspan4089-7-2-9-6-7"
       y="-715.93848"
       x="-258.70047" /></text>
  <text
     id="text4087-2-6-5-3-42"
     opacity=".8"
     font-size="12.666px"
     xml:space="preserve"
     y="-723.14838"
     x="-1750.1636"
     font-family="'Bitstream Vera Sans'"
     fill="#000000"><tspan
       id="tspan4089-7-2-9-18-39"
       y="-723.14838"
       x="-1750.1636" /></text>
  <text
     id="text4087-2-6-5-4-4"
     opacity=".8"
     font-size="12.666px"
     xml:space="preserve"
     y="-996.38251"
     x="-289.62085"
     font-family="'Bitstream Vera Sans'"
     fill="#000000"><tspan
       id="tspan4089-7-2-9-9-3"
       y="-996.38251"
       x="-289.62085" /></text>
  <text
     id="text4087-2-6-5-7-1-0"
     opacity=".8"
     font-size="12.666px"
     xml:space="preserve"
     y="-369.69113"
     x="1196.5026"
     font-family="'Bitstream Vera Sans'"
     fill="#000000"><tspan
       id="tspan4089-7-2-9-1-8-5"
       y="-369.69113"
       x="1196.5026" /></text>
  <text
     id="text4087-2-6-5-5-5-5"
     opacity=".8"
     font-size="12.666px"
     xml:space="preserve"
     y="-410.43286"
     x="1220.4634"
     font-family="'Bitstream Vera Sans'"
     fill="#000000"><tspan
       id="tspan4089-7-2-9-6-9-2"
       y="-410.43286"
       x="1220.4634" /></text>
  <text
     id="text4087-2-6-5-75-9"
     opacity=".8"
     font-size="12.666px"
     xml:space="preserve"
     y="-417.64282"
     x="-270.99973"
     font-family="'Bitstream Vera Sans'"
     fill="#000000"><tspan
       id="tspan4089-7-2-9-3-1"
       y="-417.64282"
       x="-270.99973" /></text>
  <text
     id="text4087-2-6-5-4-8-18"
     opacity=".8"
     font-size="12.666px"
     xml:space="preserve"
     y="-690.87689"
     x="1189.5431"
     font-family="'Bitstream Vera Sans'"
     fill="#000000"><tspan
       id="tspan4089-7-2-9-9-8-4"
       y="-690.87689"
       x="1189.5431" /></text>
  <text
     id="text4087-2-6-5-45-3"
     opacity=".8"
     font-size="12.666px"
     xml:space="preserve"
     y="-465.7341"
     x="-1208.816"
     font-family="'Bitstream Vera Sans'"
     fill="#000000"><tspan
       id="tspan4089-7-2-9-75-7"
       y="-465.7341"
       x="-1208.816" /></text>
  <text
     id="text4087-2-6-5-59-8"
     opacity=".8"
     font-size="12.666px"
     xml:space="preserve"
     y="279.81946"
     x="-3032.5017"
     font-family="'Bitstream Vera Sans'"
     fill="#000000"><tspan
       id="tspan4089-7-2-9-4-2"
       y="279.81946"
       x="-3032.5017" /></text>
  <g
     id="layer4-0"
     transform="matrix(.90475 0 0 .90475 -716.75 -676.29)">
    <text
       id="text4087-2-6-5-20"
       opacity=".8"
       font-size="14px"
       xml:space="preserve"
       y="1159.4154"
       x="-664.2738"
       font-family="'Bitstream Vera Sans'"
       fill="#000000"><tspan
         id="tspan4089-7-2-9-82"
         y="1159.4154"
         x="-664.2738" /></text>
  </g>
  <text
     id="text4087-2-6-5-9"
     opacity=".8"
     font-size="12.666px"
     xml:space="preserve"
     y="18.050589"
     x="877.22626"
     font-family="'Bitstream Vera Sans'"
     fill="#000000"><tspan
       id="tspan4089-7-2-9-43"
       y="18.050589"
       x="877.22626" /></text>
  <text
     id="text4087-2-6-5-5-51"
     opacity=".8"
     font-size="12.666px"
     xml:space="preserve"
     y="-22.691116"
     x="901.18719"
     font-family="'Bitstream Vera Sans'"
     fill="#000000"><tspan
       id="tspan4089-7-2-9-6-74"
       y="-22.691116"
       x="901.18719" /></text>
  <text
     id="text4087-2-6-5-2-3"
     opacity=".8"
     font-size="12.666px"
     xml:space="preserve"
     y="-52.76926"
     x="-569.37115"
     font-family="'Bitstream Vera Sans'"
     fill="#000000"><tspan
       id="tspan4089-7-2-9-2-1"
       y="-52.76926"
       x="-569.37115" /></text>
  <text
     id="text4087-2-6-5-59-4"
     opacity=".8"
     font-size="12.666px"
     xml:space="preserve"
     y="692.78418"
     x="-2393.0571"
     font-family="'Bitstream Vera Sans'"
     fill="#000000"><tspan
       id="tspan4089-7-2-9-4-6"
       y="692.78418"
       x="-2393.0571" /></text>
  <text
     id="text4087-2-6-5-1-9"
     opacity=".8"
     font-size="12.666px"
     xml:space="preserve"
     y="-438.09021"
     x="-454.88007"
     font-family="'Bitstream Vera Sans'"
     fill="#000000"><tspan
       id="tspan4089-7-2-9-7-4"
       y="-438.09021"
       x="-454.88007" /></text>
  <text
     id="text4087-2-6-5-7-2"
     opacity=".8"
     font-size="12.666px"
     xml:space="preserve"
     y="-851.5603"
     x="352.72208"
     font-family="'Bitstream Vera Sans'"
     fill="#000000"><tspan
       id="tspan4089-7-2-9-1-26"
       y="-851.5603"
       x="352.72208" /></text>
  <text
     id="text4087-2-6-5-5-3-4"
     opacity=".8"
     font-size="12.666px"
     xml:space="preserve"
     y="-892.30206"
     x="376.68301"
     font-family="'Bitstream Vera Sans'"
     fill="#000000"><tspan
       id="tspan4089-7-2-9-6-5-1"
       y="-892.30206"
       x="376.68301" /></text>
  <text
     id="text4087-2-6-5-3-2"
     opacity=".8"
     font-size="12.666px"
     xml:space="preserve"
     y="-899.51196"
     x="-1114.7802"
     font-family="'Bitstream Vera Sans'"
     fill="#000000"><tspan
       id="tspan4089-7-2-9-18-8"
       y="-899.51196"
       x="-1114.7802" /></text>
  <text
     id="text4087-2-6-5-4-89"
     opacity=".8"
     font-size="12.666px"
     xml:space="preserve"
     y="-1172.7461"
     x="345.7626"
     font-family="'Bitstream Vera Sans'"
     fill="#000000"><tspan
       id="tspan4089-7-2-9-9-2"
       y="-1172.7461"
       x="345.7626" /></text>
  <text
     id="text4087-2-6-5-7-1-8"
     opacity=".8"
     font-size="12.666px"
     xml:space="preserve"
     y="-546.05475"
     x="1831.8861"
     font-family="'Bitstream Vera Sans'"
     fill="#000000"><tspan
       id="tspan4089-7-2-9-1-8-8"
       y="-546.05475"
       x="1831.8861" /></text>
  <text
     id="text4087-2-6-5-5-5-8"
     opacity=".8"
     font-size="12.666px"
     xml:space="preserve"
     y="-586.79651"
     x="1855.8469"
     font-family="'Bitstream Vera Sans'"
     fill="#000000"><tspan
       id="tspan4089-7-2-9-6-9-6"
       y="-586.79651"
       x="1855.8469" /></text>
  <text
     id="text4087-2-6-5-75-8"
     opacity=".8"
     font-size="12.666px"
     xml:space="preserve"
     y="-594.00641"
     x="364.38376"
     font-family="'Bitstream Vera Sans'"
     fill="#000000"><tspan
       id="tspan4089-7-2-9-3-3"
       y="-594.00641"
       x="364.38376" /></text>
  <text
     id="text4087-2-6-5-4-8-8"
     opacity=".8"
     font-size="12.666px"
     xml:space="preserve"
     y="-867.24036"
     x="1824.9266"
     font-family="'Bitstream Vera Sans'"
     fill="#000000"><tspan
       id="tspan4089-7-2-9-9-8-3"
       y="-867.24036"
       x="1824.9266" /></text>
  <text
     id="text4087-2-6-5-45-33"
     opacity=".8"
     font-size="12.666px"
     xml:space="preserve"
     y="-642.09772"
     x="-573.43256"
     font-family="'Bitstream Vera Sans'"
     fill="#000000"><tspan
       id="tspan4089-7-2-9-75-8"
       y="-642.09772"
       x="-573.43256" /></text>
  <text
     id="text4087-2-6-5-59-7-0"
     opacity=".8"
     font-size="12.666px"
     xml:space="preserve"
     y="103.45585"
     x="-2397.1182"
     font-family="'Bitstream Vera Sans'"
     fill="#000000"><tspan
       id="tspan4089-7-2-9-4-0-4"
       y="103.45585"
       x="-2397.1182" /></text>
  <text
     id="text4087-2-6-5-8-7"
     opacity=".8"
     font-size="12.666px"
     xml:space="preserve"
     y="196.32799"
     x="-682.36279"
     font-family="'Bitstream Vera Sans'"
     fill="#000000"><tspan
       id="tspan4089-7-2-9-19-6"
       y="196.32799"
       x="-682.36279" /></text>
  <text
     id="text4087-2-6-5-7-5-8"
     opacity=".8"
     font-size="12.666px"
     xml:space="preserve"
     y="17.14584"
     x="426.66153"
     font-family="'Bitstream Vera Sans'"
     fill="#000000"><tspan
       id="tspan4089-7-2-9-1-2-9"
       y="17.14584"
       x="426.66153" /></text>
  <text
     id="text4087-2-6-5-5-0-0"
     opacity=".8"
     font-size="12.666px"
     xml:space="preserve"
     y="-23.595865"
     x="450.62247"
     font-family="'Bitstream Vera Sans'"
     fill="#000000"><tspan
       id="tspan4089-7-2-9-6-2-6"
       y="-23.595865"
       x="450.62247" /></text>
  <text
     id="text4087-2-6-5-26-8"
     opacity=".8"
     font-size="12.666px"
     xml:space="preserve"
     y="-30.805836"
     x="-1040.8407"
     font-family="'Bitstream Vera Sans'"
     fill="#000000"><tspan
       id="tspan4089-7-2-9-90-7"
       y="-30.805836"
       x="-1040.8407" /></text>
  <text
     id="text4087-2-6-5-4-3-9"
     opacity=".8"
     font-size="12.666px"
     xml:space="preserve"
     y="-304.03989"
     x="419.70206"
     font-family="'Bitstream Vera Sans'"
     fill="#000000"><tspan
       id="tspan4089-7-2-9-9-5-0"
       y="-304.03989"
       x="419.70206" /></text>
  <text
     id="text4087-2-6-5-55-3"
     opacity=".8"
     font-size="12.666px"
     xml:space="preserve"
     y="-33.520081"
     x="-608.03253"
     font-family="'Bitstream Vera Sans'"
     fill="#000000"><tspan
       id="tspan4089-7-2-9-32-3"
       y="-33.520081"
       x="-608.03253" /></text>
  <text
     id="text4087-2-6-5-59-9-3"
     opacity=".8"
     font-size="12.666px"
     xml:space="preserve"
     y="712.03345"
     x="-2431.7185"
     font-family="'Bitstream Vera Sans'"
     fill="#000000"><tspan
       id="tspan4089-7-2-9-4-1-7"
       y="712.03345"
       x="-2431.7185" /></text>
  <text
     id="text4087-2-6-5-1-8-3"
     opacity=".8"
     font-size="12.666px"
     xml:space="preserve"
     y="-895.0506"
     x="-456.93948"
     font-family="'Bitstream Vera Sans'"
     fill="#000000"><tspan
       id="tspan4089-7-2-9-7-8-2"
       y="-895.0506"
       x="-456.93948" /></text>
  <text
     id="text4087-2-6-5-7-8-6"
     opacity=".8"
     font-size="12.666px"
     xml:space="preserve"
     y="-1308.5208"
     x="350.66266"
     font-family="'Bitstream Vera Sans'"
     fill="#000000"><tspan
       id="tspan4089-7-2-9-1-9-5"
       y="-1308.5208"
       x="350.66266" /></text>
  <text
     id="text4087-2-6-5-5-52-2"
     opacity=".8"
     font-size="12.666px"
     xml:space="preserve"
     y="-1349.2626"
     x="374.62357"
     font-family="'Bitstream Vera Sans'"
     fill="#000000"><tspan
       id="tspan4089-7-2-9-6-4-6"
       y="-1349.2626"
       x="374.62357" /></text>
  <text
     id="text4087-2-6-5-3-4-5"
     opacity=".8"
     font-size="12.666px"
     xml:space="preserve"
     y="-1356.4724"
     x="-1116.8396"
     font-family="'Bitstream Vera Sans'"
     fill="#000000"><tspan
       id="tspan4089-7-2-9-18-3-8"
       y="-1356.4724"
       x="-1116.8396" /></text>
  <text
     id="text4087-2-6-5-4-7-7"
     opacity=".8"
     font-size="12.666px"
     xml:space="preserve"
     y="-1629.7065"
     x="343.70316"
     font-family="'Bitstream Vera Sans'"
     fill="#000000"><tspan
       id="tspan4089-7-2-9-9-54-9"
       y="-1629.7065"
       x="343.70316" /></text>
  <text
     id="text4087-2-6-5-7-1-2-6"
     opacity=".8"
     font-size="12.666px"
     xml:space="preserve"
     y="-1003.0153"
     x="1829.8265"
     font-family="'Bitstream Vera Sans'"
     fill="#000000"><tspan
       id="tspan4089-7-2-9-1-8-0-0"
       y="-1003.0153"
       x="1829.8265" /></text>
  <text
     id="text4087-2-6-5-5-5-6-4"
     opacity=".8"
     font-size="12.666px"
     xml:space="preserve"
     y="-1043.757"
     x="1853.7874"
     font-family="'Bitstream Vera Sans'"
     fill="#000000"><tspan
       id="tspan4089-7-2-9-6-9-8-1"
       y="-1043.757"
       x="1853.7874" /></text>
  <text
     id="text4087-2-6-5-75-4-0"
     opacity=".8"
     font-size="12.666px"
     xml:space="preserve"
     y="-1050.9668"
     x="362.32431"
     font-family="'Bitstream Vera Sans'"
     fill="#000000"><tspan
       id="tspan4089-7-2-9-3-9-4"
       y="-1050.9668"
       x="362.32431" /></text>
  <text
     id="text4087-2-6-5-4-8-1-8"
     opacity=".8"
     font-size="12.666px"
     xml:space="preserve"
     y="-1324.2009"
     x="1822.8671"
     font-family="'Bitstream Vera Sans'"
     fill="#000000"><tspan
       id="tspan4089-7-2-9-9-8-8-7"
       y="-1324.2009"
       x="1822.8671" /></text>
  <text
     id="text4087-2-6-5-45-0-0"
     opacity=".8"
     font-size="12.666px"
     xml:space="preserve"
     y="-1099.0581"
     x="-575.492"
     font-family="'Bitstream Vera Sans'"
     fill="#000000"><tspan
       id="tspan4089-7-2-9-75-2-8"
       y="-1099.0581"
       x="-575.492" /></text>
  <text
     id="text4087-2-6-5-59-5-6"
     opacity=".8"
     font-size="12.666px"
     xml:space="preserve"
     y="-353.50461"
     x="-2399.1777"
     font-family="'Bitstream Vera Sans'"
     fill="#000000"><tspan
       id="tspan4089-7-2-9-4-00-2"
       y="-353.50461"
       x="-2399.1777" /></text>
  <text
     id="text4087-2-6-5-264-4"
     opacity=".8"
     font-size="12.666px"
     xml:space="preserve"
     y="-260.63245"
     x="-684.42224"
     font-family="'Bitstream Vera Sans'"
     fill="#000000"><tspan
       id="tspan4089-7-2-9-8-7"
       y="-260.63245"
       x="-684.42224" /></text>
  <text
     id="text4087-2-6-5-42-9"
     opacity=".8"
     font-size="12.666px"
     xml:space="preserve"
     y="-19.71829"
     x="155.5923"
     font-family="'Bitstream Vera Sans'"
     fill="#000000"><tspan
       id="tspan4089-7-2-9-93-3"
       y="-19.71829"
       x="155.5923" /></text>
  <text
     id="text4087-2-6-5-5-05-9"
     opacity=".8"
     font-size="12.666px"
     xml:space="preserve"
     y="-60.460011"
     x="179.55324"
     font-family="'Bitstream Vera Sans'"
     fill="#000000"><tspan
       id="tspan4089-7-2-9-6-49-2"
       y="-60.460011"
       x="179.55324" /></text>
  <text
     id="text4087-2-6-5-1-4-8"
     opacity=".8"
     font-size="12.666px"
     xml:space="preserve"
     y="-254.4886"
     x="-1090.2634"
     font-family="'Bitstream Vera Sans'"
     fill="#000000"><tspan
       id="tspan4089-7-2-9-7-7-3"
       y="-254.4886"
       x="-1090.2634" /></text>
  <text
     id="text4087-2-6-5-7-56-0"
     opacity=".8"
     font-size="12.666px"
     xml:space="preserve"
     y="-667.9588"
     x="-282.66141"
     font-family="'Bitstream Vera Sans'"
     fill="#000000"><tspan
       id="tspan4089-7-2-9-1-1-1"
       y="-667.9588"
       x="-282.66141" /></text>
  <text
     id="text4087-2-6-5-5-8-7"
     opacity=".8"
     font-size="12.666px"
     xml:space="preserve"
     y="-708.7005"
     x="-258.70047"
     font-family="'Bitstream Vera Sans'"
     fill="#000000"><tspan
       id="tspan4089-7-2-9-6-7-8"
       y="-708.7005"
       x="-258.70047" /></text>
  <text
     id="text4087-2-6-5-3-42-9"
     opacity=".8"
     font-size="12.666px"
     xml:space="preserve"
     y="-715.91046"
     x="-1750.1636"
     font-family="'Bitstream Vera Sans'"
     fill="#000000"><tspan
       id="tspan4089-7-2-9-18-39-1"
       y="-715.91046"
       x="-1750.1636" /></text>
  <text
     id="text4087-2-6-5-4-4-5"
     opacity=".8"
     font-size="12.666px"
     xml:space="preserve"
     y="-989.14447"
     x="-289.62085"
     font-family="'Bitstream Vera Sans'"
     fill="#000000"><tspan
       id="tspan4089-7-2-9-9-3-4"
       y="-989.14447"
       x="-289.62085" /></text>
  <text
     id="text4087-2-6-5-7-1-0-9"
     opacity=".8"
     font-size="12.666px"
     xml:space="preserve"
     y="-362.45316"
     x="1196.5026"
     font-family="'Bitstream Vera Sans'"
     fill="#000000"><tspan
       id="tspan4089-7-2-9-1-8-5-2"
       y="-362.45316"
       x="1196.5026" /></text>
  <text
     id="text4087-2-6-5-5-5-5-5"
     opacity=".8"
     font-size="12.666px"
     xml:space="preserve"
     y="-403.19489"
     x="1220.4634"
     font-family="'Bitstream Vera Sans'"
     fill="#000000"><tspan
       id="tspan4089-7-2-9-6-9-2-7"
       y="-403.19489"
       x="1220.4634" /></text>
  <text
     id="text4087-2-6-5-75-9-4"
     opacity=".8"
     font-size="12.666px"
     xml:space="preserve"
     y="-410.40482"
     x="-270.99973"
     font-family="'Bitstream Vera Sans'"
     fill="#000000"><tspan
       id="tspan4089-7-2-9-3-1-9"
       y="-410.40482"
       x="-270.99973" /></text>
  <text
     id="text4087-2-6-5-4-8-18-9"
     opacity=".8"
     font-size="12.666px"
     xml:space="preserve"
     y="-683.63892"
     x="1189.5431"
     font-family="'Bitstream Vera Sans'"
     fill="#000000"><tspan
       id="tspan4089-7-2-9-9-8-4-4"
       y="-683.63892"
       x="1189.5431" /></text>
  <text
     id="text4087-2-6-5-45-3-5"
     opacity=".8"
     font-size="12.666px"
     xml:space="preserve"
     y="-458.49609"
     x="-1208.816"
     font-family="'Bitstream Vera Sans'"
     fill="#000000"><tspan
       id="tspan4089-7-2-9-75-7-9"
       y="-458.49609"
       x="-1208.816" /></text>
  <text
     id="text4087-2-6-5-59-8-3"
     opacity=".8"
     font-size="12.666px"
     xml:space="preserve"
     y="287.05743"
     x="-3032.5017"
     font-family="'Bitstream Vera Sans'"
     fill="#000000"><tspan
       id="tspan4089-7-2-9-4-2-5"
       y="287.05743"
       x="-3032.5017" /></text>
  <g
     id="layer4-0-7"
     transform="matrix(.90475 0 0 .90475 -716.75 -669.05)">
    <text
       id="text4087-2-6-5-20-0"
       opacity=".8"
       font-size="14px"
       xml:space="preserve"
       y="1159.4154"
       x="-664.2738"
       font-family="'Bitstream Vera Sans'"
       fill="#000000"><tspan
         id="tspan4089-7-2-9-82-8"
         y="1159.4154"
         x="-664.2738" /></text>
  </g>
  <text
     id="text7276"
     font-size="12.666px"
     xml:space="preserve"
     y="-361.22546"
     x="435.90427"
     font-family="'Droid Sans'"
     fill="#000000"><tspan
       id="tspan7278"
       y="-361.22546"
       x="435.90427" /><tspan
       id="tspan7280"
       y="-345.3924"
       x="435.90427" /></text>
  <text
     id="text4087-2-6-5-51"
     opacity=".8"
     font-size="12.666px"
     xml:space="preserve"
     y="-843.27002"
     x="901.0882"
     font-family="'Bitstream Vera Sans'"
     fill="#000000"><tspan
       id="tspan4089-7-2-9-97"
       y="-843.27002"
       x="901.0882" /></text>
  <text
     id="text4087-2-6-5-59-2"
     opacity=".8"
     font-size="12.666px"
     xml:space="preserve"
     y="-97.716553"
     x="-922.59778"
     font-family="'Bitstream Vera Sans'"
     fill="#000000"><tspan
       id="tspan4089-7-2-9-4-4"
       y="-97.716553"
       x="-922.59778" /></text>
  <text
     id="text4087-2-6-5-7-7"
     opacity=".8"
     font-size="12.666px"
     xml:space="preserve"
     y="-1128.2659"
     x="1628.1677"
     font-family="'Bitstream Vera Sans'"
     fill="#000000"><tspan
       id="tspan4089-7-2-9-1-6"
       y="-1128.2659"
       x="1628.1677" /></text>
  <text
     id="text4087-2-6-5-5-6"
     opacity=".8"
     font-size="12.666px"
     xml:space="preserve"
     y="-1169.0076"
     x="1652.1285"
     font-family="'Bitstream Vera Sans'"
     fill="#000000"><tspan
       id="tspan4089-7-2-9-6-53"
       y="-1169.0076"
       x="1652.1285" /></text>
  <text
     id="text4087-2-6-5-54"
     opacity=".8"
     font-size="12.666px"
     xml:space="preserve"
     y="-1176.2175"
     x="160.66542"
     font-family="'Bitstream Vera Sans'"
     fill="#000000"><tspan
       id="tspan4089-7-2-9-0"
       y="-1176.2175"
       x="160.66542" /></text>
  <text
     id="text4087-2-6-5-4-1"
     opacity=".8"
     font-size="12.666px"
     xml:space="preserve"
     y="-1449.4517"
     x="1621.2083"
     font-family="'Bitstream Vera Sans'"
     fill="#000000"><tspan
       id="tspan4089-7-2-9-9-28"
       y="-1449.4517"
       x="1621.2083" /></text>
  <path
     style="display:inline;fill:#c2352a;fill-opacity:1;stroke:none;enable-background:new"
     d="M 27.152344 4 L 20.287109 4.1171875 L 18.892578 5.1660156 L 19.007812 5.2832031 L 14.470703 5.4003906 L 14.820312 4.9335938 L 4.4648438 4.6992188 L 4.3496094 5.4003906 L 4.2324219 6.4492188 L 4.9316406 7.734375 L 4.5820312 10.416016 L 4 12.75 L 4.3496094 14.966797 L 4.4648438 16.716797 L 5.1640625 19.050781 L 4.9316406 20.216797 L 5.046875 21.5 L 5.8613281 22.433594 L 6.09375 23.951172 L 4.5820312 24.533203 L 4.8144531 29.201172 L 5.7460938 29.900391 L 5.1640625 33.984375 L 4.6972656 34.21875 L 4.3496094 42.035156 L 4.7597656 41.980469 L 5.7480469 42.183594 C 5.7480469 42.183594 6.9426631 42.597185 7.1894531 42.679688 C 7.4362531 42.762217 7.8027344 42.308594 7.8027344 42.308594 L 8.7910156 42.308594 L 9.6132812 42.144531 L 10.068359 42.351562 L 10.478516 42.308594 L 11.507812 42.228516 L 11.998047 42.019531 L 12.205078 42.515625 L 12.369141 42.392578 L 12.824219 42.183594 L 13.769531 42.103516 L 13.972656 42.392578 C 13.972656 42.392578 15.123826 42.515625 15.535156 42.515625 C 15.946486 42.515625 15.867187 42.183594 15.867188 42.183594 C 15.867188 42.183594 15.987689 42.14524 16.193359 42.351562 C 16.399019 42.557814 16.689453 42.267578 16.689453 42.267578 L 17.099609 42.060547 L 17.390625 42.351562 L 17.677734 42.556641 L 18.458984 42.392578 L 19.732422 42.392578 L 20.023438 42.308594 L 21.214844 44 L 21.294922 43.136719 L 23.228516 43.136719 C 23.393056 43.136719 23.3125 43.712891 23.3125 43.712891 L 24.585938 43.300781 L 25.244141 43.958984 L 26.603516 43.091797 L 27.341797 42.96875 L 28.78125 42.888672 L 30.837891 42.888672 L 33.183594 43.052734 L 33.802734 42.804688 L 34.251953 42.392578 L 35.488281 43.091797 L 36.390625 42.720703 C 36.390625 42.720703 37.378429 43.095473 37.542969 43.136719 C 37.707499 43.177939 39.230469 42.96875 39.230469 42.96875 L 40.175781 42.720703 L 39.560547 42.267578 L 39.970703 42.103516 L 41.699219 42.183594 L 44 42.763672 L 43.960938 27.707031 L 43.960938 26.757812 L 43.384766 26.841797 L 42.644531 26.966797 L 42.644531 26.509766 L 43.054688 26.138672 L 43.384766 25.646484 L 43.464844 23.871094 L 43.341797 22.591797 L 42.806641 21.023438 L 42.316406 20.363281 L 42.232422 19.746094 L 42.357422 19.335938 L 42.396484 19.210938 L 42.931641 19.003906 L 43.015625 18.794922 L 42.603516 18.095703 L 42.974609 17.884766 L 43.556641 17.533203 L 43.789062 15.433594 L 43.90625 14.033203 L 43.90625 9.1328125 L 43.556641 7.734375 L 43.789062 6.2167969 L 43.90625 5.6328125 L 42.859375 5.1660156 L 38.902344 4.4667969 L 38.320312 5.2832031 L 38.087891 4.3496094 L 30.525391 4.2324219 L 30.292969 5.5175781 L 28.431641 5.75 L 28.199219 4.9335938 L 26.570312 4.6992188 L 27.152344 4 z M 13 11 L 40 29 L 38 37 L 33 37 L 9 12 L 13 11 z M 33 11 L 36 13 L 35 19 L 27 13 L 33 11 z M 11 27 L 19 35 L 14.5 37 L 12 37 L 9 34 L 11 27 z "
     id="path4378" />
  <path
     style="display:inline;fill:#ffffff;fill-opacity:1;stroke:none;enable-background:new;opacity:0.2"
     d="M 27.152344 4 L 20.287109 4.1171875 L 18.892578 5.1660156 L 19.007812 5.2832031 L 14.470703 5.4003906 L 14.820312 4.9335938 L 4.4648438 4.6992188 L 4.3496094 5.4003906 L 4.2324219 6.4492188 L 4.3242188 6.6191406 L 4.3496094 6.4003906 L 4.4648438 5.6992188 L 14.820312 5.9335938 L 14.470703 6.4003906 L 19.007812 6.2832031 L 18.892578 6.1660156 L 20.287109 5.1171875 L 27.152344 5 L 26.570312 5.6992188 L 28.199219 5.9335938 L 28.431641 6.75 L 30.292969 6.5175781 L 30.525391 5.2324219 L 38.087891 5.3496094 L 38.320312 6.2832031 L 38.902344 5.4667969 L 42.859375 6.1660156 L 43.736328 6.5566406 L 43.789062 6.2167969 L 43.90625 5.6328125 L 42.859375 5.1660156 L 38.902344 4.4667969 L 38.320312 5.2832031 L 38.087891 4.3496094 L 30.525391 4.2324219 L 30.292969 5.5175781 L 28.431641 5.75 L 28.199219 4.9335938 L 26.570312 4.6992188 L 27.152344 4 z M 43.652344 8.1152344 L 43.556641 8.734375 L 43.90625 10.132812 L 43.90625 9.1328125 L 43.652344 8.1152344 z M 4.8261719 8.5410156 L 4.5820312 10.416016 L 4 12.75 L 4.0957031 13.363281 L 4.5820312 11.416016 L 4.9316406 8.734375 L 4.8261719 8.5410156 z M 9.7734375 12.806641 L 9 13 L 33 38 L 38 38 L 40 30 L 39.785156 29.857422 L 38 37 L 33 37 L 9.7734375 12.806641 z M 27.923828 13.691406 L 27 14 L 35 20 L 36 14 L 35.849609 13.900391 L 35 19 L 27.923828 13.691406 z M 42.980469 18.880859 L 42.974609 18.884766 L 42.603516 19.095703 L 42.621094 19.125 L 42.931641 19.003906 L 42.980469 18.880859 z M 5.0449219 19.650391 L 4.9316406 20.216797 L 4.9941406 20.90625 L 5.1640625 20.050781 L 5.0449219 19.650391 z M 42.339844 20.394531 L 42.232422 20.746094 L 42.316406 21.363281 L 42.806641 22.023438 L 43.341797 23.591797 L 43.433594 24.552734 L 43.464844 23.871094 L 43.341797 22.591797 L 42.806641 21.023438 L 42.339844 20.394531 z M 5.9492188 24.007812 L 4.5820312 24.533203 L 4.6308594 25.513672 L 6.09375 24.951172 L 5.9492188 24.007812 z M 43.960938 26.757812 L 43.384766 26.841797 L 43.236328 26.867188 L 43.054688 27.138672 L 42.644531 27.509766 L 42.644531 27.966797 L 43.384766 27.841797 L 43.960938 27.757812 L 43.960938 27.707031 L 43.960938 26.757812 z M 43.960938 27.757812 L 43.960938 28.707031 L 43.998047 42.763672 L 44 42.763672 L 43.960938 27.757812 z M 5.6171875 30.804688 L 5.1640625 33.984375 L 4.6972656 34.21875 L 4.3496094 42.035156 L 4.3945312 42.029297 L 4.6972656 35.21875 L 5.1640625 34.984375 L 5.7460938 30.900391 L 5.6171875 30.804688 z M 9.2226562 34.222656 L 9 35 L 12 38 L 14.5 38 L 19 36 L 18.308594 35.308594 L 14.5 37 L 12 37 L 9.2226562 34.222656 z "
     id="path4382" />
  <path
     style="display:inline;fill:#000000;fill-opacity:1;stroke:none;enable-background:new;opacity:0.3"
     d="M 43.736328 5.5566406 L 43.556641 6.734375 L 43.652344 7.1152344 L 43.789062 6.2167969 L 43.90625 5.6328125 L 43.736328 5.5566406 z M 4.3242188 5.6191406 L 4.2324219 6.4492188 L 4.8261719 7.5410156 L 4.9316406 6.734375 L 4.3242188 5.6191406 z M 13 10 L 9 11 L 9.7734375 11.806641 L 13 11 L 39.785156 28.857422 L 40 28 L 13 10 z M 33 10 L 27 12 L 27.923828 12.691406 L 33 11 L 35.849609 12.900391 L 36 12 L 33 10 z M 4.0957031 12.363281 L 4 12.75 L 4.3496094 14.966797 L 4.4648438 16.716797 L 5.0449219 18.650391 L 5.1640625 18.050781 L 4.4648438 15.716797 L 4.3496094 13.966797 L 4.0957031 12.363281 z M 43.90625 13.033203 L 43.789062 14.433594 L 43.556641 16.533203 L 42.974609 16.884766 L 42.603516 17.095703 L 43.015625 17.794922 L 42.980469 17.880859 L 43.556641 17.533203 L 43.789062 15.433594 L 43.90625 14.033203 L 43.90625 13.033203 z M 42.621094 18.125 L 42.396484 18.210938 L 42.357422 18.335938 L 42.232422 18.746094 L 42.316406 19.363281 L 42.339844 19.394531 L 42.357422 19.335938 L 42.396484 19.210938 L 42.931641 19.003906 L 43.015625 18.794922 L 42.621094 18.125 z M 4.9941406 19.90625 L 4.9316406 20.216797 L 5.046875 21.5 L 5.8613281 22.433594 L 5.9492188 23.007812 L 6.09375 22.951172 L 5.8613281 21.433594 L 5.046875 20.5 L 4.9941406 19.90625 z M 43.433594 23.552734 L 43.384766 24.646484 L 43.054688 25.138672 L 42.644531 25.509766 L 42.644531 25.966797 L 43.236328 25.867188 L 43.384766 25.646484 L 43.464844 23.871094 L 43.433594 23.552734 z M 4.6308594 24.513672 L 4.5820312 24.533203 L 4.8144531 29.201172 L 5.6171875 29.804688 L 5.7460938 28.900391 L 4.8144531 28.201172 L 4.6308594 24.513672 z M 11 26 L 9 33 L 9.2226562 33.222656 L 11 27 L 18.308594 34.308594 L 19 34 L 11 26 z M 4.7597656 40.980469 L 4.3945312 41.029297 L 4.3496094 42.035156 L 4.7597656 41.980469 L 5.7480469 42.183594 C 5.7480469 42.183594 6.9426631 42.597185 7.1894531 42.679688 C 7.4362531 42.762217 7.8027344 42.308594 7.8027344 42.308594 L 8.7910156 42.308594 L 9.6132812 42.144531 L 10.068359 42.351562 L 10.478516 42.308594 L 11.507812 42.228516 L 11.998047 42.019531 L 12.205078 42.515625 L 12.369141 42.392578 L 12.824219 42.183594 L 13.769531 42.103516 L 13.972656 42.392578 C 13.972656 42.392578 15.123826 42.515625 15.535156 42.515625 C 15.946486 42.515625 15.867186 42.183594 15.867188 42.183594 C 15.867188 42.183594 15.987689 42.14524 16.193359 42.351562 C 16.399019 42.557814 16.689453 42.267578 16.689453 42.267578 L 17.099609 42.060547 L 17.390625 42.351562 L 17.677734 42.556641 L 18.458984 42.392578 L 19.732422 42.392578 L 20.023438 42.308594 L 21.214844 44 L 21.294922 43.136719 L 23.228516 43.136719 C 23.393056 43.136719 23.3125 43.712891 23.3125 43.712891 L 24.585938 43.300781 L 25.244141 43.958984 L 26.603516 43.091797 L 27.341797 42.96875 L 28.78125 42.888672 L 30.837891 42.888672 L 33.183594 43.052734 L 33.802734 42.804688 L 34.251953 42.392578 L 35.488281 43.091797 L 36.390625 42.720703 C 36.390625 42.720703 37.378429 43.095473 37.542969 43.136719 C 37.707499 43.177939 39.230469 42.96875 39.230469 42.96875 L 40.175781 42.720703 L 39.560547 42.267578 L 39.970703 42.103516 L 41.699219 42.183594 L 44 42.763672 L 43.998047 41.763672 L 41.699219 41.183594 L 39.970703 41.103516 L 39.560547 41.267578 L 40.175781 41.720703 L 39.230469 41.96875 C 39.230469 41.96875 37.707499 42.177939 37.542969 42.136719 C 37.378429 42.095473 36.390625 41.720703 36.390625 41.720703 L 35.488281 42.091797 L 34.251953 41.392578 L 33.802734 41.804688 L 33.183594 42.052734 L 30.837891 41.888672 L 28.78125 41.888672 L 27.341797 41.96875 L 26.603516 42.091797 L 25.244141 42.958984 L 24.585938 42.300781 L 23.3125 42.712891 C 23.3125 42.712891 23.393056 42.136719 23.228516 42.136719 L 21.294922 42.136719 L 21.214844 43 L 20.023438 41.308594 L 19.732422 41.392578 L 18.458984 41.392578 L 17.677734 41.556641 L 17.390625 41.351562 L 17.099609 41.060547 L 16.689453 41.267578 C 16.689453 41.267578 16.399019 41.557814 16.193359 41.351562 C 15.987689 41.145244 15.867188 41.183594 15.867188 41.183594 C 15.867187 41.183594 15.946486 41.515625 15.535156 41.515625 C 15.123826 41.515625 13.972656 41.392578 13.972656 41.392578 L 13.769531 41.103516 L 12.824219 41.183594 L 12.369141 41.392578 L 12.205078 41.515625 L 11.998047 41.019531 L 11.507812 41.228516 L 10.478516 41.308594 L 10.068359 41.351562 L 9.6132812 41.144531 L 8.7910156 41.308594 L 7.8027344 41.308594 C 7.8027344 41.308594 7.4362531 41.762217 7.1894531 41.679688 C 6.9426631 41.597184 5.7480469 41.183594 5.7480469 41.183594 L 4.7597656 40.980469 z "
     id="path4387" />
</svg>
