<?xml version="1.0" encoding="UTF-8" standalone="no"?>
<!-- Created with Inkscape (http://www.inkscape.org/) -->

<svg
   xmlns:dc="http://purl.org/dc/elements/1.1/"
   xmlns:cc="http://creativecommons.org/ns#"
   xmlns:rdf="http://www.w3.org/1999/02/22-rdf-syntax-ns#"
   xmlns:svg="http://www.w3.org/2000/svg"
   xmlns="http://www.w3.org/2000/svg"
   xmlns:xlink="http://www.w3.org/1999/xlink"
   xmlns:sodipodi="http://sodipodi.sourceforge.net/DTD/sodipodi-0.dtd"
   xmlns:inkscape="http://www.inkscape.org/namespaces/inkscape"
   version="1.0"
   width="48"
   height="48"
   id="svg2408"
   inkscape:version="0.91 r"
   sodipodi:docname="gnome-pie.svg">
  <sodipodi:namedview
     pagecolor="#ffffff"
     bordercolor="#666666"
     borderopacity="1"
     objecttolerance="10"
     gridtolerance="10"
     guidetolerance="10"
     inkscape:pageopacity="1"
     inkscape:pageshadow="2"
     inkscape:window-width="1600"
     inkscape:window-height="846"
     id="namedview93"
     showgrid="false"
     inkscape:zoom="1"
     inkscape:cx="-151.69186"
     inkscape:cy="23.634971"
     inkscape:window-x="0"
     inkscape:window-y="26"
     inkscape:window-maximized="1"
     inkscape:current-layer="svg2408"
     showguides="true"
     inkscape:guide-bbox="true"
     inkscape:snap-center="false"
     inkscape:snap-object-midpoints="false" />
  <defs
     id="defs2410">
    <linearGradient
       id="linearGradient3637">
      <stop
         id="stop3639"
         style="stop-color:#f0f0f0;stop-opacity:1"
         offset="0" />
      <stop
         id="stop3641"
         style="stop-color:#aaaaaa;stop-opacity:1"
         offset="1" />
    </linearGradient>
    <linearGradient
       x1="45.447727"
       y1="92.539597"
       x2="45.447727"
       y2="7.0165396"
       id="ButtonShadow"
       gradientUnits="userSpaceOnUse"
       gradientTransform="scale(1.0058652,0.994169)">
      <stop
         id="stop3750"
         style="stop-color:#000000;stop-opacity:1"
         offset="0" />
      <stop
         id="stop3752"
         style="stop-color:#000000;stop-opacity:0.58823532"
         offset="1" />
    </linearGradient>
    <linearGradient
       id="linearGradient3737">
      <stop
         id="stop3739"
         style="stop-color:#ffffff;stop-opacity:1"
         offset="0" />
      <stop
         id="stop3741"
         style="stop-color:#ffffff;stop-opacity:0"
         offset="1" />
    </linearGradient>
    <linearGradient
       id="linearGradient3700">
      <stop
         id="stop3702"
         style="stop-color:#2276c5;stop-opacity:1"
         offset="0" />
      <stop
         id="stop3704"
         style="stop-color:#68baf4;stop-opacity:1"
         offset="1" />
    </linearGradient>
    <filter
       id="filter3174"
       style="color-interpolation-filters:sRGB">
      <feGaussianBlur
         id="feGaussianBlur3176"
         stdDeviation="1.71" />
    </filter>
    <linearGradient
       x1="36.357143"
       y1="6"
       x2="36.357143"
       y2="63.893143"
       id="linearGradient3188"
       xlink:href="#linearGradient3737"
       gradientUnits="userSpaceOnUse" />
    <filter
       x="-0.192"
       y="-0.192"
       width="1.3839999"
       height="1.3839999"
       id="filter3794"
       style="color-interpolation-filters:sRGB">
      <feGaussianBlur
         id="feGaussianBlur3796"
         stdDeviation="5.28" />
    </filter>
    <linearGradient
       x1="48"
       y1="20.220806"
       x2="48"
       y2="138.66119"
       id="linearGradient3613"
       xlink:href="#linearGradient3737"
       gradientUnits="userSpaceOnUse" />
    <radialGradient
       cx="48"
       cy="90.171875"
       r="42"
       fx="48"
       fy="90.171875"
       id="radialGradient3619"
       xlink:href="#linearGradient3737"
       gradientUnits="userSpaceOnUse"
       gradientTransform="matrix(1.1573129,0,0,0.99590774,-7.5510206,0.19713193)" />
    <clipPath
       id="clipPath3613">
      <rect
         width="84"
         height="84"
         rx="6"
         ry="6"
         x="6"
         y="6"
         id="rect3615"
         style="fill:#ffffff;fill-opacity:1;fill-rule:nonzero;stroke:none" />
    </clipPath>
    <linearGradient
       x1="48"
       y1="90"
       x2="48"
       y2="5.9877172"
       id="linearGradient2843"
       xlink:href="#linearGradient3700"
       gradientUnits="userSpaceOnUse"
       gradientTransform="translate(0,100)" />
    <clipPath
       id="clipPath3625">
      <path
         d="M 0,0 0,96 96,96 96,0 0,0 Z m 12,6 72,0 c 3.324,0 6,2.676 6,6 l 0,72 c 0,3.324 -2.676,6 -6,6 L 12,90 C 8.676,90 6,87.324 6,84 L 6,12 C 6,8.676 8.676,6 12,6 Z"
         inkscape:connector-curvature="0"
         id="path3627"
         style="fill:#ffffff;fill-opacity:1;stroke:none" />
    </clipPath>
    <linearGradient
       x1="44.512066"
       y1="6"
       x2="44.512066"
       y2="90.015434"
       id="linearGradient3643"
       xlink:href="#linearGradient3637"
       gradientUnits="userSpaceOnUse" />
    <clipPath
       id="clipPath3649">
      <rect
         width="76"
         height="76"
         rx="4"
         ry="4"
         x="10"
         y="10"
         id="rect3651"
         style="fill:#ffffff;fill-opacity:1;fill-rule:nonzero;stroke:none" />
    </clipPath>
    <filter
       id="filter3657"
       style="color-interpolation-filters:sRGB">
      <feGaussianBlur
         id="feGaussianBlur3659"
         stdDeviation="1.14" />
    </filter>
  </defs>
  <metadata
     id="metadata2413">
    <rdf:RDF>
      <cc:Work
         rdf:about="">
        <dc:format>image/svg+xml</dc:format>
        <dc:type
           rdf:resource="http://purl.org/dc/dcmitype/StillImage" />
        <dc:title />
      </cc:Work>
    </rdf:RDF>
  </metadata>
  <g
     id="layer2"
     style="display:none"
     transform="translate(0,-48)">
    <rect
       width="86"
       height="85"
       rx="6"
       ry="6"
       x="5"
       y="7"
       clip-path="url(#clipPath3625)"
       id="rect3745"
       style="opacity:0.9;fill:url(#ButtonShadow);fill-opacity:1;fill-rule:nonzero;stroke:none;filter:url(#filter3174)" />
  </g>
  <g
     id="layer1"
     style="display:none"
     transform="translate(0,-48)">
    <rect
       width="84"
       height="84"
       rx="6"
       ry="6"
       x="6"
       y="6"
       id="rect2419"
       style="opacity:0.8;fill:#000000;fill-opacity:1;fill-rule:nonzero;stroke:none" />
    <path
       d="m 14,10 c -2.216,0 -4,1.784 -4,4 l 0,68 c 0,2.216 1.784,4 4,4 l 68,0 c 2.216,0 4,-1.784 4,-4 l 0,-68 c 0,-2.216 -1.784,-4 -4,-4 l -68,0 z m 0,3.0625 68,0 c 0.578769,0 0.9375,0.358731 0.9375,0.9375 l 0,68 c 0,0.578769 -0.358731,0.9375 -0.9375,0.9375 l -68,0 c -0.578769,0 -0.9375,-0.358731 -0.9375,-0.9375 l 0,-68 c 0,-0.578769 0.358731,-0.9375 0.9375,-0.9375 z"
       inkscape:connector-curvature="0"
       id="rect3726"
       style="opacity:0.07999998;fill:#000000;fill-opacity:1;fill-rule:nonzero;stroke:none" />
    <path
       d="M 12,6 C 8.676,6 6,8.676 6,12 l 0,72 c 0,3.324 2.676,6 6,6 l 72,0 c 3.324,0 6,-2.676 6,-6 L 90,12 C 90,8.676 87.324,6 84,6 L 12,6 Z m 2,4 68,0 c 2.216,0 4,1.784 4,4 l 0,68 c 0,2.216 -1.784,4 -4,4 l -68,0 c -2.216,0 -4,-1.784 -4,-4 l 0,-68 c 0,-2.216 1.784,-4 4,-4 z"
       inkscape:connector-curvature="0"
       id="rect3629"
       style="fill:url(#linearGradient3643);fill-opacity:1;fill-rule:nonzero;stroke:none" />
    <path
       d="M 12,6 C 8.676,6 6,8.676 6,12 l 0,2 0,68 0,2 c 0,0.334721 0.04135,0.6507 0.09375,0.96875 0.0487,0.295596 0.09704,0.596915 0.1875,0.875 0.00988,0.03038 0.020892,0.0636 0.03125,0.09375 0.098865,0.287771 0.2348802,0.547452 0.375,0.8125 0.1445918,0.273507 0.3156161,0.535615 0.5,0.78125 0.1843839,0.245635 0.3737765,0.473472 0.59375,0.6875 0.439947,0.428056 0.94291,0.814526 1.5,1.09375 0.278545,0.139612 0.5734731,0.246947 0.875,0.34375 -0.2562018,-0.100222 -0.4867109,-0.236272 -0.71875,-0.375 -0.00741,-0.0044 -0.023866,0.0045 -0.03125,0 -0.031933,-0.0193 -0.062293,-0.04251 -0.09375,-0.0625 -0.120395,-0.0767 -0.2310226,-0.163513 -0.34375,-0.25 -0.1061728,-0.0808 -0.2132809,-0.161112 -0.3125,-0.25 C 8.4783201,88.557317 8.3087904,88.373362 8.15625,88.1875 8.0486711,88.057245 7.9378561,87.922215 7.84375,87.78125 7.818661,87.74287 7.805304,87.69538 7.78125,87.65625 7.716487,87.553218 7.6510225,87.451733 7.59375,87.34375 7.4927417,87.149044 7.3880752,86.928049 7.3125,86.71875 7.30454,86.69694 7.288911,86.6782 7.28125,86.65625 7.2494249,86.5643 7.2454455,86.469419 7.21875,86.375 7.1884177,86.268382 7.1483606,86.171969 7.125,86.0625 7.0521214,85.720988 7,85.364295 7,85 L 7,83 7,15 7,13 C 7,10.218152 9.2181517,8 12,8 l 2,0 68,0 2,0 c 2.781848,0 5,2.218152 5,5 l 0,2 0,68 0,2 c 0,0.364295 -0.05212,0.720988 -0.125,1.0625 -0.04415,0.206893 -0.08838,0.397658 -0.15625,0.59375 -0.0077,0.02195 -0.0233,0.04069 -0.03125,0.0625 -0.06274,0.173739 -0.138383,0.367449 -0.21875,0.53125 -0.04158,0.0828 -0.07904,0.169954 -0.125,0.25 -0.0546,0.09721 -0.126774,0.18835 -0.1875,0.28125 -0.09411,0.140965 -0.204921,0.275995 -0.3125,0.40625 -0.143174,0.17445 -0.303141,0.346998 -0.46875,0.5 -0.01117,0.0102 -0.01998,0.02115 -0.03125,0.03125 -0.138386,0.125556 -0.285091,0.234436 -0.4375,0.34375 -0.102571,0.07315 -0.204318,0.153364 -0.3125,0.21875 -0.0074,0.0045 -0.02384,-0.0044 -0.03125,0 -0.232039,0.138728 -0.462548,0.274778 -0.71875,0.375 0.301527,-0.0968 0.596455,-0.204138 0.875,-0.34375 0.55709,-0.279224 1.060053,-0.665694 1.5,-1.09375 0.219973,-0.214028 0.409366,-0.441865 0.59375,-0.6875 0.184384,-0.245635 0.355408,-0.507743 0.5,-0.78125 0.14012,-0.265048 0.276135,-0.524729 0.375,-0.8125 0.01041,-0.03078 0.02133,-0.06274 0.03125,-0.09375 0.09046,-0.278085 0.1388,-0.579404 0.1875,-0.875 C 89.95865,84.6507 90,84.334721 90,84 l 0,-2 0,-68 0,-2 C 90,8.676 87.324,6 84,6 L 12,6 Z"
       inkscape:connector-curvature="0"
       id="rect3728"
       style="fill:url(#linearGradient3188);fill-opacity:1;fill-rule:nonzero;stroke:none" />
    <path
       d="M 12,90 C 8.676,90 6,87.324 6,84 L 6,82 6,14 6,12 c 0,-0.334721 0.04135,-0.6507 0.09375,-0.96875 0.0487,-0.295596 0.09704,-0.596915 0.1875,-0.875 C 6.29113,10.12587 6.302142,10.09265 6.3125,10.0625 6.411365,9.774729 6.5473802,9.515048 6.6875,9.25 6.8320918,8.976493 7.0031161,8.714385 7.1875,8.46875 7.3718839,8.223115 7.5612765,7.995278 7.78125,7.78125 8.221197,7.353194 8.72416,6.966724 9.28125,6.6875 9.559795,6.547888 9.8547231,6.440553 10.15625,6.34375 9.9000482,6.443972 9.6695391,6.580022 9.4375,6.71875 c -0.00741,0.0044 -0.023866,-0.0045 -0.03125,0 -0.031933,0.0193 -0.062293,0.04251 -0.09375,0.0625 -0.120395,0.0767 -0.2310226,0.163513 -0.34375,0.25 -0.1061728,0.0808 -0.2132809,0.161112 -0.3125,0.25 C 8.4783201,7.442683 8.3087904,7.626638 8.15625,7.8125 8.0486711,7.942755 7.9378561,8.077785 7.84375,8.21875 7.818661,8.25713 7.805304,8.30462 7.78125,8.34375 7.716487,8.446782 7.6510225,8.548267 7.59375,8.65625 7.4927417,8.850956 7.3880752,9.071951 7.3125,9.28125 7.30454,9.30306 7.288911,9.3218 7.28125,9.34375 7.2494249,9.4357 7.2454455,9.530581 7.21875,9.625 7.1884177,9.731618 7.1483606,9.828031 7.125,9.9375 7.0521214,10.279012 7,10.635705 7,11 l 0,2 0,68 0,2 c 0,2.781848 2.2181517,5 5,5 l 2,0 68,0 2,0 c 2.781848,0 5,-2.218152 5,-5 l 0,-2 0,-68 0,-2 C 89,10.635705 88.94788,10.279012 88.875,9.9375 88.83085,9.730607 88.78662,9.539842 88.71875,9.34375 88.71105,9.3218 88.69545,9.30306 88.6875,9.28125 88.62476,9.107511 88.549117,8.913801 88.46875,8.75 88.42717,8.6672 88.38971,8.580046 88.34375,8.5 88.28915,8.40279 88.216976,8.31165 88.15625,8.21875 88.06214,8.077785 87.951329,7.942755 87.84375,7.8125 87.700576,7.63805 87.540609,7.465502 87.375,7.3125 87.36383,7.3023 87.35502,7.29135 87.34375,7.28125 87.205364,7.155694 87.058659,7.046814 86.90625,6.9375 86.803679,6.86435 86.701932,6.784136 86.59375,6.71875 c -0.0074,-0.0045 -0.02384,0.0044 -0.03125,0 -0.232039,-0.138728 -0.462548,-0.274778 -0.71875,-0.375 0.301527,0.0968 0.596455,0.204138 0.875,0.34375 0.55709,0.279224 1.060053,0.665694 1.5,1.09375 0.219973,0.214028 0.409366,0.441865 0.59375,0.6875 0.184384,0.245635 0.355408,0.507743 0.5,0.78125 0.14012,0.265048 0.276135,0.524729 0.375,0.8125 0.01041,0.03078 0.02133,0.06274 0.03125,0.09375 0.09046,0.278085 0.1388,0.579404 0.1875,0.875 C 89.95865,11.3493 90,11.665279 90,12 l 0,2 0,68 0,2 c 0,3.324 -2.676,6 -6,6 l -72,0 z"
       inkscape:connector-curvature="0"
       id="path3615"
       style="opacity:0.6;fill:url(#radialGradient3619);fill-opacity:1;fill-rule:nonzero;stroke:none" />
    <rect
       width="84"
       height="84"
       rx="6"
       ry="6"
       x="6"
       y="106"
       id="rect2841"
       style="fill:url(#linearGradient2843);fill-opacity:1;fill-rule:nonzero;stroke:none" />
    <rect
       width="76"
       height="76"
       rx="4"
       ry="4"
       x="10"
       y="110"
       id="rect3634"
       style="fill:#ff0000;fill-opacity:1;fill-rule:nonzero;stroke:none" />
    <path
       d="m 14,9 c -2.752703,0 -5,2.247297 -5,5 l 0,68 c 0,2.752703 2.247297,5 5,5 l 68,0 c 2.752703,0 5,-2.247297 5,-5 L 87,14 C 87,11.247297 84.752703,9 82,9 L 14,9 Z m 0,2 68,0 c 1.679297,0 3,1.320703 3,3 l 0,68 c 0,1.679297 -1.320703,3 -3,3 l -68,0 c -1.679297,0 -3,-1.320703 -3,-3 l 0,-68 c 0,-1.679297 1.320703,-3 3,-3 z"
       inkscape:connector-curvature="0"
       transform="translate(-110,0)"
       clip-path="url(#clipPath3649)"
       id="rect3647"
       style="color:#000000;font-style:normal;font-variant:normal;font-weight:normal;font-stretch:normal;font-size:medium;line-height:normal;font-family:'Abandoned Bitplane';-inkscape-font-specification:'Abandoned Bitplane';text-indent:0;text-align:start;text-decoration:none;text-decoration-line:none;letter-spacing:normal;word-spacing:normal;text-transform:none;direction:ltr;block-progression:tb;writing-mode:lr-tb;text-anchor:start;display:inline;overflow:visible;visibility:visible;fill:#000000;fill-opacity:1;stroke:none;stroke-width:2;marker:none;filter:url(#filter3657);enable-background:accumulate" />
    <path
       d="m 14.089286,10 c -2.216,0 -4,1.784 -4,4 l 0,68 c 0,2.216 1.784,4 4,4 l 68,0 c 2.216,0 4,-1.784 4,-4 l 0,-68 c 0,-2.216 -1.784,-4 -4,-4 l -68,0 z m 0,2 68,0 c 1.140301,0 2,0.859699 2,2 l 0,68 c 0,1.140301 -0.859699,2 -2,2 l -68,0 c -1.140301,0 -2,-0.859699 -2,-2 l 0,-68 c 0,-1.140301 0.859699,-2 2,-2 z"
       inkscape:connector-curvature="0"
       id="path3709"
       style="opacity:0.16000001;fill:#000000;fill-opacity:1;fill-rule:nonzero;stroke:none" />
    <path
       d="m 14,10 c -2.216,0 -4,1.784 -4,4 l 0,68 c 0,2.216 1.784,4 4,4 l 68,0 c 2.216,0 4,-1.784 4,-4 l 0,-68 c 0,-2.216 -1.784,-4 -4,-4 l -68,0 z m 0,1 68,0 c 1.673848,0 3,1.326152 3,3 l 0,68 c 0,1.673848 -1.326152,3 -3,3 l -68,0 c -1.673848,0 -3,-1.326152 -3,-3 l 0,-68 c 0,-1.673848 1.326152,-3 3,-3 z"
       inkscape:connector-curvature="0"
       id="path3707"
       style="opacity:0.36000001;fill:#000000;fill-opacity:1;fill-rule:nonzero;stroke:none" />
  </g>
  <g
     id="layer5"
     style="display:none"
     transform="translate(0,-48)">
    <rect
       width="66"
       height="66"
       rx="12"
       ry="12"
       x="15"
       y="15"
       clip-path="url(#clipPath3613)"
       id="rect3171"
       style="opacity:0.1;fill:url(#linearGradient3613);fill-opacity:1;fill-rule:nonzero;stroke:#ffffff;stroke-width:0.5;stroke-linecap:round;stroke-linejoin:miter;stroke-miterlimit:4;stroke-dasharray:none;stroke-dashoffset:0;stroke-opacity:1;filter:url(#filter3794)" />
  </g>
  <path
     style="fill:#ffcf3f;fill-opacity:1;stroke:none"
     inkscape:transform-center-x="1.9558872"
     inkscape:transform-center-y="3.3876962"
     d="m 16.984844,36.527978 c 1.917543,1.096198 2.583375,3.539321 1.487177,5.456865 -1.096199,1.917545 -3.53932,2.583377 -5.456864,1.487177 -1.917545,-1.096198 -2.583376,-3.539321 -1.487178,-5.456865 1.096199,-1.917542 3.539321,-2.583375 5.456865,-1.487177 z"
     id="path3905"
     inkscape:export-filename="/home/simon/Desktop/gnome-pie-symbolic.png"
     inkscape:export-xdpi="1637.5708"
     inkscape:export-ydpi="1637.5708"
     inkscape:connector-curvature="0" />
  <path
     inkscape:connector-curvature="0"
     inkscape:export-ydpi="1637.5708"
     inkscape:export-xdpi="1637.5708"
     inkscape:export-filename="/home/simon/Desktop/gnome-pie-symbolic.png"
     id="path4298"
     d="m 11.481054,23.659974 c 2.39693,1.370247 3.22922,4.42415 1.858972,6.821081 -1.370248,2.396931 -4.4241502,3.22922 -6.8210804,1.85897 -2.3969302,-1.370247 -3.2292198,-4.42415 -1.8589714,-6.821081 1.3702485,-2.396928 4.4241498,-3.229217 6.8210798,-1.85897 z"
     inkscape:transform-center-y="3.6571048"
     inkscape:transform-center-x="2.1114302"
     style="fill:#7cc327;fill-opacity:1;stroke:none" />
  <path
     style="fill:#27adc3;fill-opacity:1;stroke:none"
     inkscape:transform-center-x="2.8111494"
     inkscape:transform-center-y="-5.2946764"
     d="m 16.977265,9.7919673 c 2.876317,1.6442957 3.875064,5.3089797 2.230766,8.1852977 -1.644298,2.876316 -5.30898,3.875065 -8.185297,2.230764 C 8.1464185,18.563732 7.1476709,14.899049 8.7919691,12.022731 10.436267,9.1464182 14.100949,8.1476699 16.977265,9.7919673 Z"
     id="path4310"
     inkscape:export-filename="/home/simon/Desktop/gnome-pie-symbolic.png"
     inkscape:export-xdpi="1637.5708"
     inkscape:export-ydpi="1637.5708"
     inkscape:connector-curvature="0" />
  <path
     inkscape:connector-curvature="0"
     inkscape:export-ydpi="1637.5708"
     inkscape:export-xdpi="1637.5708"
     inkscape:export-filename="/home/simon/Desktop/gnome-pie-symbolic.png"
     id="path4322"
     d="m 35.969688,6.0559568 c 3.835088,2.1923961 5.166751,7.0786402 2.974354,10.9137292 -2.192398,3.83509 -7.078641,5.166753 -10.913728,2.974353 -3.835089,-2.192396 -5.166752,-7.078641 -2.974355,-10.9137294 2.192398,-3.8350844 7.07864,-5.1667487 10.913729,-2.9743528 z"
     inkscape:transform-center-y="3.6522101"
     inkscape:transform-center-x="2.1086044"
     style="fill:#ffcf3f;fill-opacity:1;stroke:none" />
  <path
     style="fill:#7cc327;fill-opacity:1;stroke:none"
     inkscape:transform-center-x="2.1131213"
     inkscape:transform-center-y="3.6600338"
     d="m 40.977265,22.791966 c 2.876316,1.644297 3.875063,5.308981 2.230766,8.185298 -1.644298,2.876318 -5.30898,3.875066 -8.185297,2.230765 -2.876317,-1.644297 -3.875064,-5.308981 -2.230765,-8.185298 1.644298,-2.876313 5.308979,-3.875061 8.185296,-2.230765 z"
     id="path4334"
     inkscape:export-filename="/home/simon/Desktop/gnome-pie-symbolic.png"
     inkscape:export-xdpi="1637.5708"
     inkscape:export-ydpi="1637.5708"
     inkscape:connector-curvature="0" />
  <path
     inkscape:connector-curvature="0"
     inkscape:export-ydpi="1637.5708"
     inkscape:export-xdpi="1637.5708"
     inkscape:export-filename="/home/simon/Desktop/gnome-pie-symbolic.png"
     id="path4346"
     d="m 31.240922,34.531513 c 2.467877,1.237626 3.465191,4.241532 2.227564,6.709409 -1.237628,2.467878 -4.241532,3.465191 -6.709408,2.227562 -2.467877,-1.237626 -3.465191,-4.241532 -2.227563,-6.70941 1.237628,-2.467874 4.241531,-3.465188 6.709407,-2.227561 z"
     inkscape:transform-center-y="3.6822598"
     inkscape:transform-center-x="2.1259533"
     style="fill:#27adc3;fill-opacity:1;stroke:none" />
  <path
     inkscape:connector-curvature="0"
     style="opacity:0.2;fill:#ffffff;fill-opacity:1;stroke:none"
     d="m 32.179688,5.0019531 c -2.836857,-0.061552 -5.615774,1.3926764 -7.123047,4.0292969 -0.812434,1.421163 -1.138686,2.986856 -1.035157,4.505859 0.06844,-1.196114 0.400074,-2.39493 1.035157,-3.505859 1.507273,-2.6366205 4.286189,-4.0908489 7.123047,-4.0292969 1.28948,0.027978 2.590597,0.3695638 3.789062,1.0546875 2.413925,1.3799629 3.833915,3.8261384 4.009766,6.4062504 C 40.146345,10.529845 38.692909,7.6139543 35.96875,6.0566406 34.770285,5.3715169 33.469168,5.0299313 32.179688,5.0019531 Z m -18.044922,4 C 12.007123,8.955789 9.9214704,10.045971 8.7910156,12.023438 c -0.6296037,1.101345 -0.8683598,2.317306 -0.765625,3.492187 0.068348,-0.851303 0.3137282,-1.701699 0.765625,-2.492187 1.1304548,-1.977467 3.2161074,-3.0676489 5.3437504,-3.021485 0.96711,0.02098 1.942948,0.27522 2.841796,0.789063 1.774973,1.014692 2.832476,2.799873 2.998047,4.693359 0.180348,-2.246298 -0.912217,-4.50096 -2.998047,-5.6933594 C 16.077714,9.2771727 15.101876,9.0229368 14.134766,9.0019531 Z m 24,12.9999999 c -2.127643,-0.04616 -4.213296,1.044019 -5.34375,3.021485 -0.629604,1.101344 -0.86836,2.317306 -0.765625,3.492187 0.06835,-0.851303 0.313728,-1.701699 0.765625,-2.492187 1.130454,-1.977466 3.216107,-3.067645 5.34375,-3.021485 0.96711,0.02098 1.942948,0.27522 2.841796,0.789063 1.774972,1.014693 2.832476,2.799873 2.998047,4.693359 0.180348,-2.246297 -0.912218,-4.500959 -2.998047,-5.693359 -0.898848,-0.513843 -1.874686,-0.768079 -2.841796,-0.789063 z M 9.3554688,23.011719 c -0.2419373,-0.01709 -0.4845618,-0.01604 -0.7246094,0.002 -1.6003177,0.119969 -3.1142977,1.007779 -3.9707032,2.505859 -0.5343646,0.934747 -0.724762,1.967279 -0.6269531,2.962891 0.069556,-0.671127 0.2705213,-1.339396 0.6269531,-1.962891 0.8564055,-1.49808 2.3703855,-2.38589 3.9707032,-2.505859 0.9601906,-0.07198 1.9507606,0.132642 2.8496096,0.646484 1.462183,0.835883 2.33333,2.300028 2.486328,3.857422 0.197842,-1.908919 -0.712893,-3.843606 -2.486328,-4.857422 -0.674137,-0.385381 -1.399188,-0.597168 -2.1250002,-0.648437 z M 29.326172,34.009766 c -1.943997,-0.125948 -3.866701,0.899094 -4.794922,2.75 -0.44313,0.883618 -0.589113,1.834694 -0.494141,2.75 0.05823,-0.59323 0.210939,-1.185286 0.494141,-1.75 0.928221,-1.850906 2.850925,-2.875948 4.794922,-2.75 0.647999,0.04198 1.297093,0.212077 1.914062,0.521484 1.583635,0.794184 2.551809,2.316699 2.722657,3.957031 0.196113,-1.999153 -0.819597,-4.002657 -2.722657,-4.957031 -0.616969,-0.309407 -1.266063,-0.479502 -1.914062,-0.521484 z m -14.042969,2 c -0.193513,-0.01353 -0.386087,-0.01244 -0.578125,0.002 -1.280254,0.09598 -2.49261,0.805442 -3.177734,2.003906 -0.441811,0.772845 -0.583771,1.628183 -0.486328,2.449219 0.06684,-0.495797 0.222765,-0.988176 0.486328,-1.449219 0.685124,-1.198464 1.89748,-1.907926 3.177734,-2.003906 0.768153,-0.05759 1.560218,0.104551 2.279297,0.515625 1.145165,0.654654 1.830676,1.791174 1.974609,3.007812 0.211154,-1.566295 -0.518108,-3.175177 -1.974609,-4.007812 -0.539309,-0.308306 -1.120632,-0.477002 -1.701172,-0.517578 z"
     id="path4564" />
  <path
     inkscape:connector-curvature="0"
     style="opacity:0.3;fill:#000000;fill-opacity:1;stroke:none"
     d="m 39.978516,12.462891 c -0.06854,1.195879 -0.4002,2.395149 -1.035157,3.505859 -2.192398,3.83509 -7.077022,5.167009 -10.912109,2.974609 -2.41336,-1.37964 -3.833374,-3.826804 -4.009766,-6.40625 -0.167829,2.933046 1.285607,5.848937 4.009766,7.40625 3.835087,2.1924 8.719711,0.860481 10.912109,-2.974609 0.812434,-1.421164 1.138686,-2.986856 1.035157,-4.505859 z m -20.003907,2.021484 c -0.06835,0.851303 -0.313728,1.701699 -0.765625,2.492187 -1.644298,2.876316 -5.309229,3.876723 -8.185546,2.232422 -1.7749717,-1.014693 -2.8324758,-2.799874 -2.9980474,-4.693359 -0.1803474,2.246297 0.9122189,4.500959 2.9980474,5.693359 2.876317,1.644301 6.541248,0.643894 8.185546,-2.232422 0.629604,-1.101345 0.86836,-2.317305 0.765625,-3.492187 z M 4.0332031,27.482422 c -0.1978418,1.908919 0.7128925,3.843606 2.4863281,4.857422 2.3969302,1.37025 5.4500648,0.537556 6.8203128,-1.859375 0.534364,-0.934747 0.724762,-1.967279 0.626953,-2.962891 -0.06956,0.671127 -0.270521,1.339396 -0.626953,1.962891 C 11.969596,31.8774 8.9164614,32.710094 6.5195312,31.339844 5.0573475,30.503961 4.1862014,29.039816 4.0332031,27.482422 Z m 39.9414059,0.002 c -0.06835,0.851303 -0.313728,1.701699 -0.765625,2.492187 -1.644298,2.876318 -5.309229,3.876723 -8.185546,2.232422 -1.774973,-1.014693 -2.832476,-2.799873 -2.998047,-4.693359 -0.180348,2.246297 0.912217,4.500959 2.998047,5.693359 2.876317,1.644301 6.541248,0.643896 8.185546,-2.232422 0.629604,-1.101345 0.86836,-2.317306 0.765625,-3.492187 z M 33.962891,38.488281 c -0.05823,0.593229 -0.21094,1.187239 -0.494141,1.751953 -1.237628,2.467878 -4.241108,3.466145 -6.708984,2.228516 -1.583552,-0.794142 -2.551733,-2.316798 -2.722657,-3.957031 -0.196113,1.999153 0.819597,4.002657 2.722657,4.957031 2.467876,1.237629 5.471356,0.239362 6.708984,-2.228516 0.443443,-0.884242 0.589535,-1.836053 0.494141,-2.751953 z m -22.921875,0.976563 c -0.211154,1.566295 0.518107,3.175177 1.974609,4.007812 1.917544,1.0962 4.360832,0.429264 5.457031,-1.488281 0.441811,-0.772845 0.583771,-1.628183 0.486328,-2.449219 -0.06684,0.495797 -0.222765,0.988176 -0.486328,1.449219 -1.096199,1.917545 -3.539487,2.584481 -5.457031,1.488281 -1.144699,-0.654387 -1.830282,-1.791736 -1.974609,-3.007812 z"
     id="path4577" />
</svg>
