<?xml version="1.0" encoding="UTF-8" standalone="no"?>
<!-- Created with Inkscape (http://www.inkscape.org/) -->

<svg
   xmlns:dc="http://purl.org/dc/elements/1.1/"
   xmlns:cc="http://creativecommons.org/ns#"
   xmlns:rdf="http://www.w3.org/1999/02/22-rdf-syntax-ns#"
   xmlns:svg="http://www.w3.org/2000/svg"
   xmlns="http://www.w3.org/2000/svg"
   xmlns:sodipodi="http://sodipodi.sourceforge.net/DTD/sodipodi-0.dtd"
   xmlns:inkscape="http://www.inkscape.org/namespaces/inkscape"
   id="svg2817"
   height="48"
   width="48"
   version="1.0"
   inkscape:version="0.91 r"
   sodipodi:docname="iceweasel.svg">
  <defs
     id="defs223" />
  <sodipodi:namedview
     pagecolor="#cacaca"
     bordercolor="#666666"
     borderopacity="1"
     objecttolerance="10"
     gridtolerance="10"
     guidetolerance="10"
     inkscape:pageopacity="0"
     inkscape:pageshadow="2"
     inkscape:window-width="1600"
     inkscape:window-height="842"
     id="namedview221"
     showgrid="false"
     showguides="false"
     inkscape:zoom="1"
     inkscape:cx="20.931747"
     inkscape:cy="29.123345"
     inkscape:window-x="-4"
     inkscape:window-y="32"
     inkscape:window-maximized="1"
     inkscape:current-layer="svg2817" />
  <metadata
     id="metadata57">
    <rdf:RDF>
      <cc:Work
         rdf:about="">
        <dc:format>image/svg+xml</dc:format>
        <dc:type
           rdf:resource="http://purl.org/dc/dcmitype/StillImage" />
        <dc:title></dc:title>
      </cc:Work>
    </rdf:RDF>
  </metadata>
  <text
     id="text4087-2-6-5"
     opacity=".8"
     xml:space="preserve"
     font-size="12.666px"
     y="10.812601"
     x="877.22626"
     font-family="'Bitstream Vera Sans'"
     fill="#000000"><tspan
       id="tspan4089-7-2-9"
       y="10.812601"
       x="877.22626" /></text>
  <text
     id="text4087-2-6-5-5"
     opacity=".8"
     xml:space="preserve"
     font-size="12.666px"
     y="-29.929106"
     x="901.18719"
     font-family="'Bitstream Vera Sans'"
     fill="#000000"><tspan
       id="tspan4089-7-2-9-6"
       y="-29.929106"
       x="901.18719" /></text>
  <text
     id="text4087-2-6-5-2"
     opacity=".8"
     xml:space="preserve"
     font-size="12.666px"
     y="-60.007248"
     x="-569.37115"
     font-family="'Bitstream Vera Sans'"
     fill="#000000"><tspan
       id="tspan4089-7-2-9-2"
       y="-60.007248"
       x="-569.37115" /></text>
  <text
     id="text4087-2-6-5-59"
     opacity=".8"
     xml:space="preserve"
     font-size="12.666px"
     y="685.5462"
     x="-2393.0571"
     font-family="'Bitstream Vera Sans'"
     fill="#000000"><tspan
       id="tspan4089-7-2-9-4"
       y="685.5462"
       x="-2393.0571" /></text>
  <text
     id="text4087-2-6-5-1"
     opacity=".8"
     xml:space="preserve"
     font-size="12.666px"
     y="-445.32822"
     x="-454.88007"
     font-family="'Bitstream Vera Sans'"
     fill="#000000"><tspan
       id="tspan4089-7-2-9-7"
       y="-445.32822"
       x="-454.88007" /></text>
  <text
     id="text4087-2-6-5-7"
     opacity=".8"
     xml:space="preserve"
     font-size="12.666px"
     y="-858.79834"
     x="352.72208"
     font-family="'Bitstream Vera Sans'"
     fill="#000000"><tspan
       id="tspan4089-7-2-9-1"
       y="-858.79834"
       x="352.72208" /></text>
  <text
     id="text4087-2-6-5-5-3"
     opacity=".8"
     xml:space="preserve"
     font-size="12.666px"
     y="-899.54004"
     x="376.68301"
     font-family="'Bitstream Vera Sans'"
     fill="#000000"><tspan
       id="tspan4089-7-2-9-6-5"
       y="-899.54004"
       x="376.68301" /></text>
  <text
     id="text4087-2-6-5-3"
     opacity=".8"
     xml:space="preserve"
     font-size="12.666px"
     y="-906.74994"
     x="-1114.7802"
     font-family="'Bitstream Vera Sans'"
     fill="#000000"><tspan
       id="tspan4089-7-2-9-18"
       y="-906.74994"
       x="-1114.7802" /></text>
  <text
     id="text4087-2-6-5-4"
     opacity=".8"
     xml:space="preserve"
     font-size="12.666px"
     y="-1179.9841"
     x="345.7626"
     font-family="'Bitstream Vera Sans'"
     fill="#000000"><tspan
       id="tspan4089-7-2-9-9"
       y="-1179.9841"
       x="345.7626" /></text>
  <text
     id="text4087-2-6-5-7-1"
     opacity=".8"
     xml:space="preserve"
     font-size="12.666px"
     y="-553.29272"
     x="1831.8861"
     font-family="'Bitstream Vera Sans'"
     fill="#000000"><tspan
       id="tspan4089-7-2-9-1-8"
       y="-553.29272"
       x="1831.8861" /></text>
  <text
     id="text4087-2-6-5-5-5"
     opacity=".8"
     xml:space="preserve"
     font-size="12.666px"
     y="-594.03448"
     x="1855.8469"
     font-family="'Bitstream Vera Sans'"
     fill="#000000"><tspan
       id="tspan4089-7-2-9-6-9"
       y="-594.03448"
       x="1855.8469" /></text>
  <text
     id="text4087-2-6-5-75"
     opacity=".8"
     xml:space="preserve"
     font-size="12.666px"
     y="-601.24438"
     x="364.38376"
     font-family="'Bitstream Vera Sans'"
     fill="#000000"><tspan
       id="tspan4089-7-2-9-3"
       y="-601.24438"
       x="364.38376" /></text>
  <text
     id="text4087-2-6-5-4-8"
     opacity=".8"
     xml:space="preserve"
     font-size="12.666px"
     y="-874.47839"
     x="1824.9266"
     font-family="'Bitstream Vera Sans'"
     fill="#000000"><tspan
       id="tspan4089-7-2-9-9-8"
       y="-874.47839"
       x="1824.9266" /></text>
  <text
     id="text4087-2-6-5-45"
     opacity=".8"
     xml:space="preserve"
     font-size="12.666px"
     y="-649.33569"
     x="-573.43256"
     font-family="'Bitstream Vera Sans'"
     fill="#000000"><tspan
       id="tspan4089-7-2-9-75"
       y="-649.33569"
       x="-573.43256" /></text>
  <text
     id="text4087-2-6-5-59-7"
     opacity=".8"
     xml:space="preserve"
     font-size="12.666px"
     y="96.217857"
     x="-2397.1182"
     font-family="'Bitstream Vera Sans'"
     fill="#000000"><tspan
       id="tspan4089-7-2-9-4-0"
       y="96.217857"
       x="-2397.1182" /></text>
  <text
     id="text4087-2-6-5-8"
     opacity=".8"
     xml:space="preserve"
     font-size="12.666px"
     y="189.09"
     x="-682.36279"
     font-family="'Bitstream Vera Sans'"
     fill="#000000"><tspan
       id="tspan4089-7-2-9-19"
       y="189.09"
       x="-682.36279" /></text>
  <text
     id="text4087-2-6-5-7-5"
     opacity=".8"
     xml:space="preserve"
     font-size="12.666px"
     y="9.9078522"
     x="426.66153"
     font-family="'Bitstream Vera Sans'"
     fill="#000000"><tspan
       id="tspan4089-7-2-9-1-2"
       y="9.9078522"
       x="426.66153" /></text>
  <text
     id="text4087-2-6-5-5-0"
     opacity=".8"
     xml:space="preserve"
     font-size="12.666px"
     y="-30.833855"
     x="450.62247"
     font-family="'Bitstream Vera Sans'"
     fill="#000000"><tspan
       id="tspan4089-7-2-9-6-2"
       y="-30.833855"
       x="450.62247" /></text>
  <text
     id="text4087-2-6-5-26"
     opacity=".8"
     xml:space="preserve"
     font-size="12.666px"
     y="-38.043827"
     x="-1040.8407"
     font-family="'Bitstream Vera Sans'"
     fill="#000000"><tspan
       id="tspan4089-7-2-9-90"
       y="-38.043827"
       x="-1040.8407" /></text>
  <text
     id="text4087-2-6-5-4-3"
     opacity=".8"
     xml:space="preserve"
     font-size="12.666px"
     y="-311.27789"
     x="419.70206"
     font-family="'Bitstream Vera Sans'"
     fill="#000000"><tspan
       id="tspan4089-7-2-9-9-5"
       y="-311.27789"
       x="419.70206" /></text>
  <text
     id="text4087-2-6-5-55"
     opacity=".8"
     xml:space="preserve"
     font-size="12.666px"
     y="-40.758072"
     x="-608.03253"
     font-family="'Bitstream Vera Sans'"
     fill="#000000"><tspan
       id="tspan4089-7-2-9-32"
       y="-40.758072"
       x="-608.03253" /></text>
  <text
     id="text4087-2-6-5-59-9"
     opacity=".8"
     xml:space="preserve"
     font-size="12.666px"
     y="704.79541"
     x="-2431.7185"
     font-family="'Bitstream Vera Sans'"
     fill="#000000"><tspan
       id="tspan4089-7-2-9-4-1"
       y="704.79541"
       x="-2431.7185" /></text>
  <text
     id="text4087-2-6-5-1-8"
     opacity=".8"
     xml:space="preserve"
     font-size="12.666px"
     y="-902.28857"
     x="-456.93948"
     font-family="'Bitstream Vera Sans'"
     fill="#000000"><tspan
       id="tspan4089-7-2-9-7-8"
       y="-902.28857"
       x="-456.93948" /></text>
  <text
     id="text4087-2-6-5-7-8"
     opacity=".8"
     xml:space="preserve"
     font-size="12.666px"
     y="-1315.7588"
     x="350.66266"
     font-family="'Bitstream Vera Sans'"
     fill="#000000"><tspan
       id="tspan4089-7-2-9-1-9"
       y="-1315.7588"
       x="350.66266" /></text>
  <text
     id="text4087-2-6-5-5-52"
     opacity=".8"
     xml:space="preserve"
     font-size="12.666px"
     y="-1356.5005"
     x="374.62357"
     font-family="'Bitstream Vera Sans'"
     fill="#000000"><tspan
       id="tspan4089-7-2-9-6-4"
       y="-1356.5005"
       x="374.62357" /></text>
  <text
     id="text4087-2-6-5-3-4"
     opacity=".8"
     xml:space="preserve"
     font-size="12.666px"
     y="-1363.7104"
     x="-1116.8396"
     font-family="'Bitstream Vera Sans'"
     fill="#000000"><tspan
       id="tspan4089-7-2-9-18-3"
       y="-1363.7104"
       x="-1116.8396" /></text>
  <text
     id="text4087-2-6-5-4-7"
     opacity=".8"
     xml:space="preserve"
     font-size="12.666px"
     y="-1636.9446"
     x="343.70316"
     font-family="'Bitstream Vera Sans'"
     fill="#000000"><tspan
       id="tspan4089-7-2-9-9-54"
       y="-1636.9446"
       x="343.70316" /></text>
  <text
     id="text4087-2-6-5-7-1-2"
     opacity=".8"
     xml:space="preserve"
     font-size="12.666px"
     y="-1010.2533"
     x="1829.8265"
     font-family="'Bitstream Vera Sans'"
     fill="#000000"><tspan
       id="tspan4089-7-2-9-1-8-0"
       y="-1010.2533"
       x="1829.8265" /></text>
  <text
     id="text4087-2-6-5-5-5-6"
     opacity=".8"
     xml:space="preserve"
     font-size="12.666px"
     y="-1050.9949"
     x="1853.7874"
     font-family="'Bitstream Vera Sans'"
     fill="#000000"><tspan
       id="tspan4089-7-2-9-6-9-8"
       y="-1050.9949"
       x="1853.7874" /></text>
  <text
     id="text4087-2-6-5-75-4"
     opacity=".8"
     xml:space="preserve"
     font-size="12.666px"
     y="-1058.2048"
     x="362.32431"
     font-family="'Bitstream Vera Sans'"
     fill="#000000"><tspan
       id="tspan4089-7-2-9-3-9"
       y="-1058.2048"
       x="362.32431" /></text>
  <text
     id="text4087-2-6-5-4-8-1"
     opacity=".8"
     xml:space="preserve"
     font-size="12.666px"
     y="-1331.439"
     x="1822.8671"
     font-family="'Bitstream Vera Sans'"
     fill="#000000"><tspan
       id="tspan4089-7-2-9-9-8-8"
       y="-1331.439"
       x="1822.8671" /></text>
  <text
     id="text4087-2-6-5-45-0"
     opacity=".8"
     xml:space="preserve"
     font-size="12.666px"
     y="-1106.2961"
     x="-575.492"
     font-family="'Bitstream Vera Sans'"
     fill="#000000"><tspan
       id="tspan4089-7-2-9-75-2"
       y="-1106.2961"
       x="-575.492" /></text>
  <text
     id="text4087-2-6-5-59-5"
     opacity=".8"
     xml:space="preserve"
     font-size="12.666px"
     y="-360.74261"
     x="-2399.1777"
     font-family="'Bitstream Vera Sans'"
     fill="#000000"><tspan
       id="tspan4089-7-2-9-4-00"
       y="-360.74261"
       x="-2399.1777" /></text>
  <text
     id="text4087-2-6-5-264"
     opacity=".8"
     xml:space="preserve"
     font-size="12.666px"
     y="-267.87045"
     x="-684.42224"
     font-family="'Bitstream Vera Sans'"
     fill="#000000"><tspan
       id="tspan4089-7-2-9-8"
       y="-267.87045"
       x="-684.42224" /></text>
  <text
     id="text4087-2-6-5-42"
     opacity=".8"
     xml:space="preserve"
     font-size="12.666px"
     y="-26.956278"
     x="155.5923"
     font-family="'Bitstream Vera Sans'"
     fill="#000000"><tspan
       id="tspan4089-7-2-9-93"
       y="-26.956278"
       x="155.5923" /></text>
  <text
     id="text4087-2-6-5-5-05"
     opacity=".8"
     xml:space="preserve"
     font-size="12.666px"
     y="-67.697998"
     x="179.55324"
     font-family="'Bitstream Vera Sans'"
     fill="#000000"><tspan
       id="tspan4089-7-2-9-6-49"
       y="-67.697998"
       x="179.55324" /></text>
  <text
     id="text4087-2-6-5-1-4"
     opacity=".8"
     xml:space="preserve"
     font-size="12.666px"
     y="-261.72662"
     x="-1090.2634"
     font-family="'Bitstream Vera Sans'"
     fill="#000000"><tspan
       id="tspan4089-7-2-9-7-7"
       y="-261.72662"
       x="-1090.2634" /></text>
  <text
     id="text4087-2-6-5-7-56"
     opacity=".8"
     xml:space="preserve"
     font-size="12.666px"
     y="-675.19678"
     x="-282.66141"
     font-family="'Bitstream Vera Sans'"
     fill="#000000"><tspan
       id="tspan4089-7-2-9-1-1"
       y="-675.19678"
       x="-282.66141" /></text>
  <text
     id="text4087-2-6-5-5-8"
     opacity=".8"
     xml:space="preserve"
     font-size="12.666px"
     y="-715.93848"
     x="-258.70047"
     font-family="'Bitstream Vera Sans'"
     fill="#000000"><tspan
       id="tspan4089-7-2-9-6-7"
       y="-715.93848"
       x="-258.70047" /></text>
  <text
     id="text4087-2-6-5-3-42"
     opacity=".8"
     xml:space="preserve"
     font-size="12.666px"
     y="-723.14838"
     x="-1750.1636"
     font-family="'Bitstream Vera Sans'"
     fill="#000000"><tspan
       id="tspan4089-7-2-9-18-39"
       y="-723.14838"
       x="-1750.1636" /></text>
  <text
     id="text4087-2-6-5-4-4"
     opacity=".8"
     xml:space="preserve"
     font-size="12.666px"
     y="-996.38251"
     x="-289.62085"
     font-family="'Bitstream Vera Sans'"
     fill="#000000"><tspan
       id="tspan4089-7-2-9-9-3"
       y="-996.38251"
       x="-289.62085" /></text>
  <text
     id="text4087-2-6-5-7-1-0"
     opacity=".8"
     xml:space="preserve"
     font-size="12.666px"
     y="-369.69113"
     x="1196.5026"
     font-family="'Bitstream Vera Sans'"
     fill="#000000"><tspan
       id="tspan4089-7-2-9-1-8-5"
       y="-369.69113"
       x="1196.5026" /></text>
  <text
     id="text4087-2-6-5-5-5-5"
     opacity=".8"
     xml:space="preserve"
     font-size="12.666px"
     y="-410.43286"
     x="1220.4634"
     font-family="'Bitstream Vera Sans'"
     fill="#000000"><tspan
       id="tspan4089-7-2-9-6-9-2"
       y="-410.43286"
       x="1220.4634" /></text>
  <text
     id="text4087-2-6-5-75-9"
     opacity=".8"
     xml:space="preserve"
     font-size="12.666px"
     y="-417.64282"
     x="-270.99973"
     font-family="'Bitstream Vera Sans'"
     fill="#000000"><tspan
       id="tspan4089-7-2-9-3-1"
       y="-417.64282"
       x="-270.99973" /></text>
  <text
     id="text4087-2-6-5-4-8-18"
     opacity=".8"
     xml:space="preserve"
     font-size="12.666px"
     y="-690.87689"
     x="1189.5431"
     font-family="'Bitstream Vera Sans'"
     fill="#000000"><tspan
       id="tspan4089-7-2-9-9-8-4"
       y="-690.87689"
       x="1189.5431" /></text>
  <text
     id="text4087-2-6-5-45-3"
     opacity=".8"
     xml:space="preserve"
     font-size="12.666px"
     y="-465.7341"
     x="-1208.816"
     font-family="'Bitstream Vera Sans'"
     fill="#000000"><tspan
       id="tspan4089-7-2-9-75-7"
       y="-465.7341"
       x="-1208.816" /></text>
  <text
     id="text4087-2-6-5-59-8"
     opacity=".8"
     xml:space="preserve"
     font-size="12.666px"
     y="279.81946"
     x="-3032.5017"
     font-family="'Bitstream Vera Sans'"
     fill="#000000"><tspan
       id="tspan4089-7-2-9-4-2"
       y="279.81946"
       x="-3032.5017" /></text>
  <g
     id="layer4-0"
     transform="matrix(.90475 0 0 .90475 -716.75 -676.29)">
    <text
       id="text4087-2-6-5-20"
       opacity=".8"
       xml:space="preserve"
       font-size="14px"
       y="1159.4154"
       x="-664.2738"
       font-family="'Bitstream Vera Sans'"
       fill="#000000"><tspan
         id="tspan4089-7-2-9-82"
         y="1159.4154"
         x="-664.2738" /></text>
  </g>
  <text
     id="text4087-2-6-5-9"
     opacity=".8"
     xml:space="preserve"
     font-size="12.666px"
     y="18.050589"
     x="877.22626"
     font-family="'Bitstream Vera Sans'"
     fill="#000000"><tspan
       id="tspan4089-7-2-9-43"
       y="18.050589"
       x="877.22626" /></text>
  <text
     id="text4087-2-6-5-5-51"
     opacity=".8"
     xml:space="preserve"
     font-size="12.666px"
     y="-22.691116"
     x="901.18719"
     font-family="'Bitstream Vera Sans'"
     fill="#000000"><tspan
       id="tspan4089-7-2-9-6-74"
       y="-22.691116"
       x="901.18719" /></text>
  <text
     id="text4087-2-6-5-2-3"
     opacity=".8"
     xml:space="preserve"
     font-size="12.666px"
     y="-52.76926"
     x="-569.37115"
     font-family="'Bitstream Vera Sans'"
     fill="#000000"><tspan
       id="tspan4089-7-2-9-2-1"
       y="-52.76926"
       x="-569.37115" /></text>
  <text
     id="text4087-2-6-5-59-4"
     opacity=".8"
     xml:space="preserve"
     font-size="12.666px"
     y="692.78418"
     x="-2393.0571"
     font-family="'Bitstream Vera Sans'"
     fill="#000000"><tspan
       id="tspan4089-7-2-9-4-6"
       y="692.78418"
       x="-2393.0571" /></text>
  <text
     id="text4087-2-6-5-1-9"
     opacity=".8"
     xml:space="preserve"
     font-size="12.666px"
     y="-438.09021"
     x="-454.88007"
     font-family="'Bitstream Vera Sans'"
     fill="#000000"><tspan
       id="tspan4089-7-2-9-7-4"
       y="-438.09021"
       x="-454.88007" /></text>
  <text
     id="text4087-2-6-5-7-2"
     opacity=".8"
     xml:space="preserve"
     font-size="12.666px"
     y="-851.5603"
     x="352.72208"
     font-family="'Bitstream Vera Sans'"
     fill="#000000"><tspan
       id="tspan4089-7-2-9-1-26"
       y="-851.5603"
       x="352.72208" /></text>
  <text
     id="text4087-2-6-5-5-3-4"
     opacity=".8"
     xml:space="preserve"
     font-size="12.666px"
     y="-892.30206"
     x="376.68301"
     font-family="'Bitstream Vera Sans'"
     fill="#000000"><tspan
       id="tspan4089-7-2-9-6-5-1"
       y="-892.30206"
       x="376.68301" /></text>
  <text
     id="text4087-2-6-5-3-2"
     opacity=".8"
     xml:space="preserve"
     font-size="12.666px"
     y="-899.51196"
     x="-1114.7802"
     font-family="'Bitstream Vera Sans'"
     fill="#000000"><tspan
       id="tspan4089-7-2-9-18-8"
       y="-899.51196"
       x="-1114.7802" /></text>
  <text
     id="text4087-2-6-5-4-89"
     opacity=".8"
     xml:space="preserve"
     font-size="12.666px"
     y="-1172.7461"
     x="345.7626"
     font-family="'Bitstream Vera Sans'"
     fill="#000000"><tspan
       id="tspan4089-7-2-9-9-2"
       y="-1172.7461"
       x="345.7626" /></text>
  <text
     id="text4087-2-6-5-7-1-8"
     opacity=".8"
     xml:space="preserve"
     font-size="12.666px"
     y="-546.05475"
     x="1831.8861"
     font-family="'Bitstream Vera Sans'"
     fill="#000000"><tspan
       id="tspan4089-7-2-9-1-8-8"
       y="-546.05475"
       x="1831.8861" /></text>
  <text
     id="text4087-2-6-5-5-5-8"
     opacity=".8"
     xml:space="preserve"
     font-size="12.666px"
     y="-586.79651"
     x="1855.8469"
     font-family="'Bitstream Vera Sans'"
     fill="#000000"><tspan
       id="tspan4089-7-2-9-6-9-6"
       y="-586.79651"
       x="1855.8469" /></text>
  <text
     id="text4087-2-6-5-75-8"
     opacity=".8"
     xml:space="preserve"
     font-size="12.666px"
     y="-594.00641"
     x="364.38376"
     font-family="'Bitstream Vera Sans'"
     fill="#000000"><tspan
       id="tspan4089-7-2-9-3-3"
       y="-594.00641"
       x="364.38376" /></text>
  <text
     id="text4087-2-6-5-4-8-8"
     opacity=".8"
     xml:space="preserve"
     font-size="12.666px"
     y="-867.24036"
     x="1824.9266"
     font-family="'Bitstream Vera Sans'"
     fill="#000000"><tspan
       id="tspan4089-7-2-9-9-8-3"
       y="-867.24036"
       x="1824.9266" /></text>
  <text
     id="text4087-2-6-5-45-33"
     opacity=".8"
     xml:space="preserve"
     font-size="12.666px"
     y="-642.09772"
     x="-573.43256"
     font-family="'Bitstream Vera Sans'"
     fill="#000000"><tspan
       id="tspan4089-7-2-9-75-8"
       y="-642.09772"
       x="-573.43256" /></text>
  <text
     id="text4087-2-6-5-59-7-0"
     opacity=".8"
     xml:space="preserve"
     font-size="12.666px"
     y="103.45585"
     x="-2397.1182"
     font-family="'Bitstream Vera Sans'"
     fill="#000000"><tspan
       id="tspan4089-7-2-9-4-0-4"
       y="103.45585"
       x="-2397.1182" /></text>
  <text
     id="text4087-2-6-5-8-7"
     opacity=".8"
     xml:space="preserve"
     font-size="12.666px"
     y="196.32799"
     x="-682.36279"
     font-family="'Bitstream Vera Sans'"
     fill="#000000"><tspan
       id="tspan4089-7-2-9-19-6"
       y="196.32799"
       x="-682.36279" /></text>
  <text
     id="text4087-2-6-5-7-5-8"
     opacity=".8"
     xml:space="preserve"
     font-size="12.666px"
     y="17.14584"
     x="426.66153"
     font-family="'Bitstream Vera Sans'"
     fill="#000000"><tspan
       id="tspan4089-7-2-9-1-2-9"
       y="17.14584"
       x="426.66153" /></text>
  <text
     id="text4087-2-6-5-5-0-0"
     opacity=".8"
     xml:space="preserve"
     font-size="12.666px"
     y="-23.595865"
     x="450.62247"
     font-family="'Bitstream Vera Sans'"
     fill="#000000"><tspan
       id="tspan4089-7-2-9-6-2-6"
       y="-23.595865"
       x="450.62247" /></text>
  <text
     id="text4087-2-6-5-26-8"
     opacity=".8"
     xml:space="preserve"
     font-size="12.666px"
     y="-30.805836"
     x="-1040.8407"
     font-family="'Bitstream Vera Sans'"
     fill="#000000"><tspan
       id="tspan4089-7-2-9-90-7"
       y="-30.805836"
       x="-1040.8407" /></text>
  <text
     id="text4087-2-6-5-4-3-9"
     opacity=".8"
     xml:space="preserve"
     font-size="12.666px"
     y="-304.03989"
     x="419.70206"
     font-family="'Bitstream Vera Sans'"
     fill="#000000"><tspan
       id="tspan4089-7-2-9-9-5-0"
       y="-304.03989"
       x="419.70206" /></text>
  <text
     id="text4087-2-6-5-55-3"
     opacity=".8"
     xml:space="preserve"
     font-size="12.666px"
     y="-33.520081"
     x="-608.03253"
     font-family="'Bitstream Vera Sans'"
     fill="#000000"><tspan
       id="tspan4089-7-2-9-32-3"
       y="-33.520081"
       x="-608.03253" /></text>
  <text
     id="text4087-2-6-5-59-9-3"
     opacity=".8"
     xml:space="preserve"
     font-size="12.666px"
     y="712.03345"
     x="-2431.7185"
     font-family="'Bitstream Vera Sans'"
     fill="#000000"><tspan
       id="tspan4089-7-2-9-4-1-7"
       y="712.03345"
       x="-2431.7185" /></text>
  <text
     id="text4087-2-6-5-1-8-3"
     opacity=".8"
     xml:space="preserve"
     font-size="12.666px"
     y="-895.0506"
     x="-456.93948"
     font-family="'Bitstream Vera Sans'"
     fill="#000000"><tspan
       id="tspan4089-7-2-9-7-8-2"
       y="-895.0506"
       x="-456.93948" /></text>
  <text
     id="text4087-2-6-5-7-8-6"
     opacity=".8"
     xml:space="preserve"
     font-size="12.666px"
     y="-1308.5208"
     x="350.66266"
     font-family="'Bitstream Vera Sans'"
     fill="#000000"><tspan
       id="tspan4089-7-2-9-1-9-5"
       y="-1308.5208"
       x="350.66266" /></text>
  <text
     id="text4087-2-6-5-5-52-2"
     opacity=".8"
     xml:space="preserve"
     font-size="12.666px"
     y="-1349.2626"
     x="374.62357"
     font-family="'Bitstream Vera Sans'"
     fill="#000000"><tspan
       id="tspan4089-7-2-9-6-4-6"
       y="-1349.2626"
       x="374.62357" /></text>
  <text
     id="text4087-2-6-5-3-4-5"
     opacity=".8"
     xml:space="preserve"
     font-size="12.666px"
     y="-1356.4724"
     x="-1116.8396"
     font-family="'Bitstream Vera Sans'"
     fill="#000000"><tspan
       id="tspan4089-7-2-9-18-3-8"
       y="-1356.4724"
       x="-1116.8396" /></text>
  <text
     id="text4087-2-6-5-4-7-7"
     opacity=".8"
     xml:space="preserve"
     font-size="12.666px"
     y="-1629.7065"
     x="343.70316"
     font-family="'Bitstream Vera Sans'"
     fill="#000000"><tspan
       id="tspan4089-7-2-9-9-54-9"
       y="-1629.7065"
       x="343.70316" /></text>
  <text
     id="text4087-2-6-5-7-1-2-6"
     opacity=".8"
     xml:space="preserve"
     font-size="12.666px"
     y="-1003.0153"
     x="1829.8265"
     font-family="'Bitstream Vera Sans'"
     fill="#000000"><tspan
       id="tspan4089-7-2-9-1-8-0-0"
       y="-1003.0153"
       x="1829.8265" /></text>
  <text
     id="text4087-2-6-5-5-5-6-4"
     opacity=".8"
     xml:space="preserve"
     font-size="12.666px"
     y="-1043.757"
     x="1853.7874"
     font-family="'Bitstream Vera Sans'"
     fill="#000000"><tspan
       id="tspan4089-7-2-9-6-9-8-1"
       y="-1043.757"
       x="1853.7874" /></text>
  <text
     id="text4087-2-6-5-75-4-0"
     opacity=".8"
     xml:space="preserve"
     font-size="12.666px"
     y="-1050.9668"
     x="362.32431"
     font-family="'Bitstream Vera Sans'"
     fill="#000000"><tspan
       id="tspan4089-7-2-9-3-9-4"
       y="-1050.9668"
       x="362.32431" /></text>
  <text
     id="text4087-2-6-5-4-8-1-8"
     opacity=".8"
     xml:space="preserve"
     font-size="12.666px"
     y="-1324.2009"
     x="1822.8671"
     font-family="'Bitstream Vera Sans'"
     fill="#000000"><tspan
       id="tspan4089-7-2-9-9-8-8-7"
       y="-1324.2009"
       x="1822.8671" /></text>
  <text
     id="text4087-2-6-5-45-0-0"
     opacity=".8"
     xml:space="preserve"
     font-size="12.666px"
     y="-1099.0581"
     x="-575.492"
     font-family="'Bitstream Vera Sans'"
     fill="#000000"><tspan
       id="tspan4089-7-2-9-75-2-8"
       y="-1099.0581"
       x="-575.492" /></text>
  <text
     id="text4087-2-6-5-59-5-6"
     opacity=".8"
     xml:space="preserve"
     font-size="12.666px"
     y="-353.50461"
     x="-2399.1777"
     font-family="'Bitstream Vera Sans'"
     fill="#000000"><tspan
       id="tspan4089-7-2-9-4-00-2"
       y="-353.50461"
       x="-2399.1777" /></text>
  <text
     id="text4087-2-6-5-264-4"
     opacity=".8"
     xml:space="preserve"
     font-size="12.666px"
     y="-260.63245"
     x="-684.42224"
     font-family="'Bitstream Vera Sans'"
     fill="#000000"><tspan
       id="tspan4089-7-2-9-8-7"
       y="-260.63245"
       x="-684.42224" /></text>
  <text
     id="text4087-2-6-5-42-9"
     opacity=".8"
     xml:space="preserve"
     font-size="12.666px"
     y="-19.71829"
     x="155.5923"
     font-family="'Bitstream Vera Sans'"
     fill="#000000"><tspan
       id="tspan4089-7-2-9-93-3"
       y="-19.71829"
       x="155.5923" /></text>
  <text
     id="text4087-2-6-5-5-05-9"
     opacity=".8"
     xml:space="preserve"
     font-size="12.666px"
     y="-60.460011"
     x="179.55324"
     font-family="'Bitstream Vera Sans'"
     fill="#000000"><tspan
       id="tspan4089-7-2-9-6-49-2"
       y="-60.460011"
       x="179.55324" /></text>
  <text
     id="text4087-2-6-5-1-4-8"
     opacity=".8"
     xml:space="preserve"
     font-size="12.666px"
     y="-254.4886"
     x="-1090.2634"
     font-family="'Bitstream Vera Sans'"
     fill="#000000"><tspan
       id="tspan4089-7-2-9-7-7-3"
       y="-254.4886"
       x="-1090.2634" /></text>
  <text
     id="text4087-2-6-5-7-56-0"
     opacity=".8"
     xml:space="preserve"
     font-size="12.666px"
     y="-667.9588"
     x="-282.66141"
     font-family="'Bitstream Vera Sans'"
     fill="#000000"><tspan
       id="tspan4089-7-2-9-1-1-1"
       y="-667.9588"
       x="-282.66141" /></text>
  <text
     id="text4087-2-6-5-5-8-7"
     opacity=".8"
     xml:space="preserve"
     font-size="12.666px"
     y="-708.7005"
     x="-258.70047"
     font-family="'Bitstream Vera Sans'"
     fill="#000000"><tspan
       id="tspan4089-7-2-9-6-7-8"
       y="-708.7005"
       x="-258.70047" /></text>
  <text
     id="text4087-2-6-5-3-42-9"
     opacity=".8"
     xml:space="preserve"
     font-size="12.666px"
     y="-715.91046"
     x="-1750.1636"
     font-family="'Bitstream Vera Sans'"
     fill="#000000"><tspan
       id="tspan4089-7-2-9-18-39-1"
       y="-715.91046"
       x="-1750.1636" /></text>
  <text
     id="text4087-2-6-5-4-4-5"
     opacity=".8"
     xml:space="preserve"
     font-size="12.666px"
     y="-989.14447"
     x="-289.62085"
     font-family="'Bitstream Vera Sans'"
     fill="#000000"><tspan
       id="tspan4089-7-2-9-9-3-4"
       y="-989.14447"
       x="-289.62085" /></text>
  <text
     id="text4087-2-6-5-7-1-0-9"
     opacity=".8"
     xml:space="preserve"
     font-size="12.666px"
     y="-362.45316"
     x="1196.5026"
     font-family="'Bitstream Vera Sans'"
     fill="#000000"><tspan
       id="tspan4089-7-2-9-1-8-5-2"
       y="-362.45316"
       x="1196.5026" /></text>
  <text
     id="text4087-2-6-5-5-5-5-5"
     opacity=".8"
     xml:space="preserve"
     font-size="12.666px"
     y="-403.19489"
     x="1220.4634"
     font-family="'Bitstream Vera Sans'"
     fill="#000000"><tspan
       id="tspan4089-7-2-9-6-9-2-7"
       y="-403.19489"
       x="1220.4634" /></text>
  <text
     id="text4087-2-6-5-75-9-4"
     opacity=".8"
     xml:space="preserve"
     font-size="12.666px"
     y="-410.40482"
     x="-270.99973"
     font-family="'Bitstream Vera Sans'"
     fill="#000000"><tspan
       id="tspan4089-7-2-9-3-1-9"
       y="-410.40482"
       x="-270.99973" /></text>
  <text
     id="text4087-2-6-5-4-8-18-9"
     opacity=".8"
     xml:space="preserve"
     font-size="12.666px"
     y="-683.63892"
     x="1189.5431"
     font-family="'Bitstream Vera Sans'"
     fill="#000000"><tspan
       id="tspan4089-7-2-9-9-8-4-4"
       y="-683.63892"
       x="1189.5431" /></text>
  <text
     id="text4087-2-6-5-45-3-5"
     opacity=".8"
     xml:space="preserve"
     font-size="12.666px"
     y="-458.49609"
     x="-1208.816"
     font-family="'Bitstream Vera Sans'"
     fill="#000000"><tspan
       id="tspan4089-7-2-9-75-7-9"
       y="-458.49609"
       x="-1208.816" /></text>
  <text
     id="text4087-2-6-5-59-8-3"
     opacity=".8"
     xml:space="preserve"
     font-size="12.666px"
     y="287.05743"
     x="-3032.5017"
     font-family="'Bitstream Vera Sans'"
     fill="#000000"><tspan
       id="tspan4089-7-2-9-4-2-5"
       y="287.05743"
       x="-3032.5017" /></text>
  <g
     id="layer4-0-7"
     transform="matrix(.90475 0 0 .90475 -716.75 -669.05)">
    <text
       id="text4087-2-6-5-20-0"
       opacity=".8"
       xml:space="preserve"
       font-size="14px"
       y="1159.4154"
       x="-664.2738"
       font-family="'Bitstream Vera Sans'"
       fill="#000000"><tspan
         id="tspan4089-7-2-9-82-8"
         y="1159.4154"
         x="-664.2738" /></text>
  </g>
  <text
     id="text7276"
     xml:space="preserve"
     font-size="12.666px"
     y="-361.22546"
     x="435.90427"
     font-family="'Droid Sans'"
     fill="#000000"><tspan
       id="tspan7278"
       y="-361.22546"
       x="435.90427" /><tspan
       id="tspan7280"
       y="-345.3924"
       x="435.90427" /></text>
  <text
     id="text4087-2-6-5-51"
     opacity=".8"
     xml:space="preserve"
     font-size="12.666px"
     y="-843.27002"
     x="901.0882"
     font-family="'Bitstream Vera Sans'"
     fill="#000000"><tspan
       id="tspan4089-7-2-9-97"
       y="-843.27002"
       x="901.0882" /></text>
  <text
     id="text4087-2-6-5-59-2"
     opacity=".8"
     xml:space="preserve"
     font-size="12.666px"
     y="-97.716553"
     x="-922.59778"
     font-family="'Bitstream Vera Sans'"
     fill="#000000"><tspan
       id="tspan4089-7-2-9-4-4"
       y="-97.716553"
       x="-922.59778" /></text>
  <text
     id="text4087-2-6-5-7-7"
     opacity=".8"
     xml:space="preserve"
     font-size="12.666px"
     y="-1128.2659"
     x="1628.1677"
     font-family="'Bitstream Vera Sans'"
     fill="#000000"><tspan
       id="tspan4089-7-2-9-1-6"
       y="-1128.2659"
       x="1628.1677" /></text>
  <text
     id="text4087-2-6-5-5-6"
     opacity=".8"
     xml:space="preserve"
     font-size="12.666px"
     y="-1169.0076"
     x="1652.1285"
     font-family="'Bitstream Vera Sans'"
     fill="#000000"><tspan
       id="tspan4089-7-2-9-6-53"
       y="-1169.0076"
       x="1652.1285" /></text>
  <text
     id="text4087-2-6-5-54"
     opacity=".8"
     xml:space="preserve"
     font-size="12.666px"
     y="-1176.2175"
     x="160.66542"
     font-family="'Bitstream Vera Sans'"
     fill="#000000"><tspan
       id="tspan4089-7-2-9-0"
       y="-1176.2175"
       x="160.66542" /></text>
  <text
     id="text4087-2-6-5-4-1"
     opacity=".8"
     xml:space="preserve"
     font-size="12.666px"
     y="-1449.4517"
     x="1621.2083"
     font-family="'Bitstream Vera Sans'"
     fill="#000000"><tspan
       id="tspan4089-7-2-9-9-28"
       y="-1449.4517"
       x="1621.2083" /></text>
  <g
     id="g4632"
     transform="translate(-2,2)">
    <rect
       id="rect4203-9"
       transform="matrix(0,-1,-1,0,0,0)"
       rx="16"
       ry="16"
       height="32"
       width="32"
       y="-40"
       x="-40"
       style="fill:#6573c3" />
    <path
       id="rect4502"
       d="M 8.0253906,23.5 C 8.0202495,23.667553 8,23.831155 8,24 8,32.864 15.136,40 24,40 32.864,40 40,32.864 40,24 40,23.831155 39.97975,23.667553 39.97461,23.5 39.709854,32.128653 32.695155,39 24,39 15.304845,39 8.2901455,32.128653 8.0253906,23.5 Z"
       style="opacity:0.3;fill:#000000;fill-opacity:1"
       inkscape:connector-curvature="0" />
    <path
       id="rect4497"
       d="M 24,8 C 15.136,8 8,15.136 8,24 8,24.168845 8.02025,24.332447 8.025391,24.5 8.2901455,15.871347 15.304845,9 24,9 32.695155,9 39.709854,15.871347 39.974609,24.5 39.97975,24.332447 40,24.168845 40,24 40,15.136 32.864,8 24,8 Z"
       style="opacity:0.2;fill:#ffffff;fill-opacity:1"
       inkscape:connector-curvature="0" />
    <path
       style="opacity:0.2;fill:#000000;fill-opacity:1;fill-rule:evenodd;stroke:none;stroke-width:0.62795258;stroke-linecap:round;stroke-linejoin:round;stroke-miterlimit:4;stroke-dasharray:none;stroke-opacity:1"
       d="m 34.948501,4.0004992 c -0.01033,3.456e-4 -0.02227,0.00698 -0.03279,0.00773 -0.07642,0.00536 -0.155966,0.024989 -0.237269,0.057907 -0.06688,0.027 -0.134163,0.056752 -0.198688,0.1100222 -0.06768,0.055873 -0.129699,0.1352288 -0.189043,0.2277651 -0.01532,0.023759 -0.02984,0.04876 -0.04437,0.075278 -0.05369,0.098514 -0.103248,0.2104487 -0.142745,0.3512989 -0.0024,0.00834 -0.0054,0.012735 -0.0077,0.021233 -0.109536,-0.5224118 -1.255789,-0.3956938 -1.255789,-0.3956938 0,0 0.0019,0.00192 0.002,0.00193 -2.5e-5,2.7e-6 -0.0039,0 -0.0039,0 0,0 0.09576,0.064449 0.189042,0.1544171 0.04659,0.045219 0.09326,0.095783 0.127314,0.1486264 2.56e-4,3.934e-4 -2.54e-4,0.00153 0,0.00193 0.03411,0.052667 0.05442,0.1058712 0.05208,0.1563472 0,0 0,0.00193 0,0.00193 -0.196312,0.022235 -0.389341,0.053752 -0.580634,0.09458 -0.04158,-0.09261 -0.03669,-0.2310201 -0.02701,-0.3783219 0.0097,-0.147302 0.0243,-0.3021741 -0.002,-0.4304377 -7.59e-4,0.00115 -0.0012,0.00271 -0.002,0.00386 -3.36e-4,-0.00173 3.53e-4,-0.00408 0,-0.00579 -0.0813,0.1232095 -0.138843,0.2725995 -0.181327,0.4265772 -0.04248,0.1539777 -0.0683,0.3121795 -0.08488,0.4536002 -0.03799,0.010257 -0.07419,0.025634 -0.111884,0.036675 -0.148155,0.043024 -0.297461,0.085479 -0.439814,0.1409057 C 31.675707,5.0918908 31.561372,4.9434398 31.441552,4.8034749 31.318553,4.659795 31.185125,4.5368087 31.044175,4.4309436 c -0.02577,-0.019623 -0.05081,-0.039664 -0.07715,-0.057907 -0.143087,-0.097708 -0.292201,-0.1791948 -0.451389,-0.233556 -0.0048,-0.00166 -0.0086,-0.0061 -0.0135,-0.00773 -0.0012,-4.01e-4 -0.0027,3.984e-4 -0.0039,0 -0.160447,-0.052858 -0.330133,-0.077272 -0.505402,-0.081069 -0.01737,-3.78e-4 -0.03264,-0.00786 -0.05015,-0.00773 -0.02842,2.282e-4 -0.05997,0.013856 -0.08873,0.015442 -0.135771,0.00743 -0.275184,0.030415 -0.418597,0.069488 -0.04947,0.013465 -0.09821,0.025059 -0.148532,0.042465 -0.189176,0.065461 -0.382043,0.149768 -0.582564,0.2740905 -0.716634,0.4443104 -1.052089,1.1545726 -1.151621,1.941795 -2.076711,0.4325285 -4.413799,0.7989111 -6.4757,0.8068295 -0.02313,8.98e-5 -0.04832,0.00193 -0.07137,0.00193 -2.221269,0 -4.022401,0.6439929 -5.349158,1.8298427 -0.378772,0.3383632 -0.718198,0.7204957 -1.018518,1.1446167 -2.95e-4,4.15e-4 2.93e-4,0.0015 0,0.0019 -0.149943,0.211854 -0.290615,0.433579 -0.420526,0.665923 -0.06622,0.118454 -0.122292,0.246943 -0.183256,0.370602 -0.05897,0.11959 -0.123465,0.234629 -0.177469,0.359019 -2.34e-4,5.38e-4 2.33e-4,0.0014 0,0.0019 -0.109476,0.252302 -0.208241,0.514007 -0.29707,0.785597 -0.08887,0.271695 -0.167427,0.553121 -0.235338,0.843504 -0.05216,0.223056 -0.09346,0.455317 -0.133104,0.689085 -0.01217,0.07179 -0.02952,0.139538 -0.04051,0.212325 -9.7e-5,6.41e-4 9.7e-5,0.0013 0,0.002 -0.04647,0.308535 -0.0812,0.625564 -0.106097,0.951596 -9.9e-5,0.0013 9.9e-5,0.0026 0,0.0039 -0.02476,0.325499 -0.03949,0.659445 -0.04244,1.001781 -0.0059,0.687306 7.89e-4,1.309399 0.01929,1.872308 3.7e-5,0.0012 -3.9e-5,0.0027 0,0.0039 0.01851,0.561183 0.04842,1.064077 0.0868,1.513288 5e-5,5.72e-4 -4.8e-5,0.0014 0,0.002 0.03845,0.449468 0.08687,0.845718 0.140818,1.194802 8.6e-5,5.56e-4 -8.6e-5,0.0014 0,0.002 0.05394,0.348737 0.114401,0.650823 0.179398,0.911061 1.33e-4,5.31e-4 -1.32e-4,0.0014 0,0.002 0.06497,0.259859 0.134803,0.478813 0.206404,0.662064 1.92e-4,4.87e-4 -1.91e-4,0.0015 0,0.002 0.07156,0.182858 0.146153,0.32967 0.219909,0.447811 2.56e-4,4.1e-4 -2.57e-4,0.0015 0,0.002 0.0737,0.117789 0.148421,0.205306 0.219907,0.27023 0.07215,0.06563 0.14099,0.109383 0.206405,0.133186 0.422929,0.153887 0.295015,-0.03885 0.227624,-0.127395 -0.01506,-0.0198 -0.03584,-0.0589 -0.03666,-0.05983 l 0.187115,0.113884 0.189043,0.117742 0,-0.002 0,-0.231627 0.177469,0.02317 0.154321,0.02124 0.144677,-0.287601 0.0463,-0.09072 0.426312,0 c 0,0 0.167147,-0.102979 0.264274,-0.378322 0.01053,-0.02985 0.02626,-0.04665 0.03473,-0.08107 1.27e-4,-5.12e-4 -1.27e-4,-0.0014 0,-0.002 0.02888,-0.117186 0.04459,-0.261182 0.03279,-0.438159 -0.03559,-0.534246 0.193751,-0.747275 0.150463,-1.102152 -0.01399,-0.117134 -0.05682,-0.25038 -0.150463,-0.414996 -0.186784,-0.327075 -0.384927,-1.899367 -0.447532,-3.482105 -9.31e-4,-0.02353 -0.003,-0.04596 -0.0039,-0.06949 -0.02945,-0.802114 -0.02399,-1.6021 0.03665,-2.240977 6.9e-5,-7.34e-4 -7e-5,-0.0012 0,-0.002 0.06069,-0.638022 0.177629,-1.113224 0.366514,-1.26815 0.189483,-0.154051 0.47692,-0.359515 0.829476,-0.584855 0.352252,-0.225178 0.769203,-0.471351 1.219136,-0.708389 0.674967,-0.355597 1.424048,-0.691492 2.135419,-0.9072 0.237206,-0.07185 0.469432,-0.130313 0.694446,-0.171788 0.675607,-0.124532 1.277499,-0.26922 1.986885,-0.360951 0.471661,-0.06078 0.99142,-0.0979 1.610725,-0.09072 5.91e-4,7e-6 0.0014,-6e-6 0.002,0 0.01417,1.67e-4 0.03202,0.0017 0.0463,0.0019 0.923,0.0138 2.063971,0.125275 3.603399,0.405345 0.0033,0.272857 0.02595,0.596825 0.06945,0.99406 2.52e-4,0.0023 -2.54e-4,0.0035 0,0.0058 9e-5,8.19e-4 -9e-5,0.0011 0,0.002 0.119335,1.085547 0.364208,1.715078 0.702162,2.289233 0.337954,0.574156 0.76795,1.091675 1.257717,1.951446 5.09e-4,8.92e-4 0.0014,9.89e-4 0.002,0.002 0.148481,0.265175 0.304553,0.503479 0.468752,0.714179 5.12e-4,6.6e-4 0.0014,0.0013 0.002,0.002 0.164555,0.210893 0.337232,0.39483 0.516975,0.552041 0.179561,0.157052 0.367211,0.28737 0.561345,0.391834 7.58e-4,4.1e-4 0.0012,0.0015 0.002,0.002 0.193887,0.104102 0.394024,0.182821 0.601853,0.235486 0.834986,0.212862 1.779544,0.01513 2.81636,-0.563622 0.853771,-0.499548 1.48522,-0.734254 2.064045,-1.063549 0.144875,-0.08204 0.285265,-0.170634 0.426313,-0.270229 0.14136,-0.09981 0.281511,-0.210905 0.424383,-0.339718 0.142109,-0.128377 0.287005,-0.273758 0.435957,-0.442019 3.02e-4,-3.4e-4 -3.01e-4,-0.0016 0,-0.002 0.149094,-0.168365 0.305619,-0.3575 0.466822,-0.577133 0.04239,-0.05777 0.05173,-0.08642 0.09066,-0.140906 0.202,-0.281436 0.381464,-0.537387 0.503474,-0.748924 0.312569,-0.231904 0.626436,-0.467793 0.922069,-0.660134 0.718847,-0.48267 1.504321,-1.231042 1.988813,-2.082698 2.95e-4,-5.17e-4 -2.94e-4,-0.0014 0,-0.0019 0.241888,-0.425539 0.408469,-0.876816 0.455247,-1.3337777 6.6e-5,-6.417e-4 -6.4e-5,-0.00129 0,-0.00193 0.01157,-0.1137566 0.01563,-0.227511 0.01158,-0.3416479 -2.3e-5,-6.334e-4 2.4e-5,-0.0013 0,-0.00193 -0.01273,-0.3446734 -0.09955,-0.6888905 -0.27993,-1.0252731 -0.107853,-0.2011221 -0.226623,-0.3693281 -0.35301,-0.5172972 -0.03983,-0.046636 -0.08394,-0.080056 -0.125386,-0.1216036 -0.08789,-0.088188 -0.177515,-0.1712702 -0.271991,-0.2374163 -0.0541,-0.037751 -0.1099,-0.067696 -0.165897,-0.098441 -0.09213,-0.050866 -0.185017,-0.094738 -0.281635,-0.127394 -0.05731,-0.01917 -0.114958,-0.035288 -0.173612,-0.048256 -0.111301,-0.025035 -0.22423,-0.03877 -0.339505,-0.042465 -0.04125,-0.00117 -0.08181,-0.00533 -0.123458,-0.00386 -0.157924,0.00495 -0.318402,0.026656 -0.480324,0.067558 -0.004,0.00101 -0.0076,9.016e-4 -0.01158,0.00193 -6.26e-4,1.612e-4 -0.0013,-1.618e-4 -0.002,0 -0.320283,0.082758 -0.644027,0.2283426 -0.962577,0.4342981 -0.0019,-0.00261 -0.004,-0.00511 -0.0058,-0.00773 -0.08811,-0.1239517 -0.183963,-0.2426495 -0.283565,-0.3590199 -0.02418,-0.028254 -0.04463,-0.059064 -0.06945,-0.08686 2.11e-4,-4.403e-4 -2.09e-4,-0.00148 0,-0.00193 0.04551,-0.095254 0.100475,-0.2221855 0.142749,-0.3590197 0.04217,-0.137148 0.07138,-0.2838682 0.06559,-0.4169263 -0.184202,0.2174887 -0.238848,0.7322987 -0.538196,0.4304377 -0.03748,-0.037801 -0.06125,-0.071788 -0.0733,-0.1023013 -0.01205,-0.030513 -0.01131,-0.057112 -0.0039,-0.081069 0.0073,-0.022373 0.03653,-0.034905 0.05595,-0.052116 0.104137,-0.092334 0.331789,-0.1235337 0.331789,-0.1235337 0,0 -0.0019,-0.00192 -0.002,-0.00193 0,0 -0.356342,-0.2703263 -0.638503,-0.2837414 -0.04703,-0.00224 -0.09219,0.00287 -0.133104,0.017372 -0.04016,0.014164 -0.07757,0.038418 -0.108024,0.073347 0.115528,-0.4336093 -0.002,-0.6646978 -0.148535,-0.7875272 C 37.872519,5.2442612 37.697155,5.228315 37.697155,5.228315 c 0,0 -6e-6,0.00192 0,0.00193 3e-6,-2e-7 0.131331,0.1400039 0.187117,0.3030436 0.0059,0.017379 0.01739,0.032375 0.02122,0.050186 1.26e-4,5.832e-4 -1.24e-4,0.00135 0,0.00193 0.01277,0.061032 0.01081,0.1244932 -0.01543,0.1833702 -2.68e-4,6.163e-4 2.76e-4,0.00132 0,0.00193 -0.01782,0.039191 -0.05001,0.071791 -0.08873,0.09651 -0.01288,0.00822 -0.03002,0.00913 -0.04437,0.015442 -0.02849,0.011847 -0.05676,0.02514 -0.08873,0.028953 -0.07838,-0.047065 -0.158626,-0.092381 -0.239197,-0.1370453 -0.02931,-0.016245 -0.05723,-0.034548 -0.0868,-0.050186 -0.02469,-0.069989 -0.02983,-0.1633874 0,-0.2779507 4.13e-4,-0.00159 -4.29e-4,-0.00227 0,-0.00386 -0.185563,-0.066158 -0.327742,-0.014618 -0.4321,0.073348 -0.08107,-0.03609 -0.162418,-0.071042 -0.244984,-0.1042315 l 0.06558,-0.3377875 0.08295,-0.4207866 -0.002,0.00386 0,-0.00386 -0.416668,0.6543425 C 36.332733,5.2852617 36.270827,5.2643317 36.2079,5.2437547 36.19324,5.0438687 36.12191,4.820591 35.910831,4.6878532 c -0.07013,-0.044312 -0.155774,-0.078842 -0.260416,-0.098441 -0.07096,0.2649829 -0.21182,0.3845754 -0.362656,0.4169261 -0.05437,-0.010406 -0.109481,-0.018192 -0.163965,-0.027023 -0.05398,-0.00919 -0.108091,-0.019175 -0.162037,-0.027023 -0.07348,-0.040372 -0.13605,-0.094854 -0.179399,-0.1582776 -0.04272,-0.063291 -0.06468,-0.1343279 -0.05787,-0.2046027 0.0088,-0.0906 0.05308,-0.1683636 0.113812,-0.233556 0.182902,-0.1941752 0.516976,-0.279881 0.516976,-0.2798809 0,0 -0.05766,-0.026274 -0.150463,-0.048256 -0.06962,-0.016486 -0.158577,-0.030301 -0.256559,-0.027023 z m -18.157813,22.1549948 0,0.521157 -0.378087,-0.237416 0,0.285671 -0.426311,-0.237417 0.09453,0.237417 -0.380017,-0.18916 0.04822,0.472902 -0.378087,-0.378322 0.140818,0.662063 -0.378087,-0.18916 0.331791,0.853154 -0.474538,-0.615738 0.33179,0.853153 -0.283565,-0.18916 0.378087,0.758575 -0.33179,-0.285674 0.380016,0.521159 -0.331791,-0.18916 c 0,0 1.70443,3.223985 4.546687,5.072601 0.710565,0.462155 1.500946,0.992333 2.386192,1.515218 0.885327,0.522923 1.865606,1.038245 2.955249,1.470824 1.361915,0.54066 2.894549,0.950887 4.627706,1.08478 0.347048,0.02687 0.701254,0.0429 1.064816,0.04632 0.725738,0.0068 1.484702,-0.03439 2.278167,-0.135115 0.793462,-0.100725 1.483611,-0.299809 2.083335,-0.571343 0.599706,-0.271532 1.108311,-0.615702 1.541281,-1.005642 0.649048,-0.584504 1.127337,-1.273093 1.477625,-1.976539 l 0,-0.002 c 1.051066,-2.111875 0.96065,-4.360354 0.96065,-4.360354 -1.770489,4.005337 -3.362494,5.279228 -6.04939,4.555306 -0.245743,-0.06617 -0.50853,-0.161594 -0.773537,-0.260529 -0.403669,-0.150924 -0.8229,-0.326195 -1.277006,-0.550112 -5.058689,-2.494369 -12.364984,-6.827141 -12.364984,-6.827141 l -0.0463,0.331997 -0.709877,-0.61574 0,0.189163 -0.331791,-0.331997 -0.04822,0.285671 -0.33179,-0.474832 0,0.380252 -0.331791,-0.474832 z"
       id="path4630"
       inkscape:connector-curvature="0" />
    <path
       inkscape:connector-curvature="0"
       id="path4509"
       d="m 34.948501,3.0004988 c -0.01033,3.456e-4 -0.02227,0.00698 -0.03279,0.00773 -0.07642,0.00536 -0.155966,0.024989 -0.237269,0.057907 -0.06688,0.027 -0.134163,0.056752 -0.198688,0.1100222 -0.06768,0.055873 -0.129699,0.1352288 -0.189043,0.2277651 -0.01532,0.023759 -0.02984,0.04876 -0.04437,0.075278 -0.05369,0.098514 -0.103248,0.2104487 -0.142745,0.3512989 -0.0024,0.00834 -0.0054,0.012735 -0.0077,0.021233 -0.109536,-0.5224118 -1.255789,-0.3956938 -1.255789,-0.3956938 0,0 0.0019,0.00192 0.002,0.00193 -2.5e-5,2.7e-6 -0.0039,0 -0.0039,0 0,0 0.09576,0.064449 0.189042,0.1544171 0.04659,0.045219 0.09326,0.095783 0.127314,0.1486264 2.56e-4,3.934e-4 -2.54e-4,0.00153 0,0.00193 0.03411,0.052667 0.05442,0.1058712 0.05208,0.1563472 0,0 0,0.00193 0,0.00193 -0.196312,0.022235 -0.389341,0.053752 -0.580634,0.09458 -0.04158,-0.09261 -0.03669,-0.2310201 -0.02701,-0.3783219 0.0097,-0.147302 0.0243,-0.3021741 -0.002,-0.4304377 -7.59e-4,0.00115 -0.0012,0.00271 -0.002,0.00386 -3.36e-4,-0.00173 3.53e-4,-0.00408 0,-0.00579 -0.0813,0.1232095 -0.138843,0.2725995 -0.181327,0.4265772 -0.04248,0.1539777 -0.0683,0.3121795 -0.08488,0.4536002 -0.03799,0.010257 -0.07419,0.025634 -0.111884,0.036675 -0.148155,0.043024 -0.297461,0.085479 -0.439814,0.1409057 -0.101387,-0.170978 -0.215722,-0.319429 -0.335542,-0.4593939 -0.122999,-0.1436799 -0.256427,-0.2666662 -0.397377,-0.3725313 -0.02577,-0.019623 -0.05081,-0.039664 -0.07715,-0.057907 -0.143087,-0.097708 -0.292201,-0.1791948 -0.451389,-0.233556 -0.0048,-0.00166 -0.0086,-0.0061 -0.0135,-0.00773 -0.0012,-4.01e-4 -0.0027,3.984e-4 -0.0039,0 -0.160447,-0.052858 -0.330133,-0.077272 -0.505402,-0.081069 -0.01737,-3.78e-4 -0.03264,-0.00786 -0.05015,-0.00773 -0.02842,2.282e-4 -0.05997,0.013856 -0.08873,0.015442 -0.135771,0.00743 -0.275184,0.030415 -0.418597,0.069488 -0.04947,0.013465 -0.09821,0.025059 -0.148532,0.042465 -0.189176,0.065461 -0.382043,0.149768 -0.582564,0.2740905 -0.716634,0.4443104 -1.052089,1.1545726 -1.151621,1.941795 -2.076711,0.4325285 -4.413799,0.7989111 -6.4757,0.8068295 -0.02313,8.98e-5 -0.04832,0.00193 -0.07137,0.00193 -2.221269,0 -4.022401,0.6439929 -5.349158,1.8298427 -0.378772,0.3383632 -0.718198,0.7204957 -1.018518,1.1446167 -2.95e-4,4.152e-4 2.93e-4,0.00151 0,0.00193 -0.149943,0.211854 -0.290615,0.4335792 -0.420526,0.6659234 -0.06622,0.1184538 -0.122292,0.246943 -0.183256,0.370602 -0.05897,0.11959 -0.123465,0.234629 -0.177469,0.359019 -2.34e-4,5.38e-4 2.33e-4,0.0014 0,0.0019 -0.109476,0.252302 -0.208241,0.514007 -0.29707,0.785597 -0.08887,0.271695 -0.167427,0.553121 -0.235338,0.843504 -0.05216,0.223056 -0.09346,0.455317 -0.133104,0.689085 -0.01217,0.07179 -0.02952,0.139538 -0.04051,0.212325 -9.7e-5,6.41e-4 9.7e-5,0.0013 0,0.002 -0.04647,0.308535 -0.0812,0.625564 -0.106097,0.951596 -9.9e-5,0.0013 9.9e-5,0.0026 0,0.0039 -0.02476,0.325499 -0.03949,0.659445 -0.04244,1.001781 -0.0059,0.687306 7.89e-4,1.309399 0.01929,1.872308 3.7e-5,0.0012 -3.9e-5,0.0027 0,0.0039 0.01851,0.561183 0.04842,1.064077 0.0868,1.513288 5e-5,5.72e-4 -4.8e-5,0.0014 0,0.002 0.03845,0.449468 0.08687,0.845718 0.140818,1.194802 8.6e-5,5.56e-4 -8.6e-5,0.0014 0,0.002 0.05394,0.348737 0.114401,0.650823 0.179398,0.911061 1.33e-4,5.31e-4 -1.32e-4,0.0014 0,0.002 0.06497,0.259859 0.134803,0.478813 0.206404,0.662064 1.92e-4,4.87e-4 -1.91e-4,0.0015 0,0.002 0.07156,0.182858 0.146153,0.32967 0.219909,0.447811 2.56e-4,4.1e-4 -2.57e-4,0.0015 0,0.002 0.0737,0.117789 0.148421,0.205306 0.219907,0.27023 0.07215,0.06563 0.14099,0.109383 0.206405,0.133186 0.422929,0.153887 0.295015,-0.03885 0.227624,-0.127395 -0.01506,-0.0198 -0.03584,-0.0589 -0.03666,-0.05983 l 0.187115,0.113884 0.189043,0.117742 0,-0.002 0,-0.231627 0.177469,0.02317 0.154321,0.02124 0.144677,-0.287601 0.0463,-0.09072 0.426312,0 c 0,0 0.167147,-0.102979 0.264274,-0.378322 0.01053,-0.02985 0.02626,-0.04665 0.03473,-0.08107 1.27e-4,-5.12e-4 -1.27e-4,-0.0014 0,-0.002 0.02888,-0.117186 0.04459,-0.261182 0.03279,-0.438159 -0.03559,-0.534246 0.193751,-0.747275 0.150463,-1.102152 -0.01399,-0.117134 -0.05682,-0.25038 -0.150463,-0.414996 -0.186784,-0.327075 -0.384927,-1.899367 -0.447532,-3.482105 -9.31e-4,-0.02353 -0.003,-0.04596 -0.0039,-0.06949 -0.02945,-0.802114 -0.02399,-1.6021 0.03665,-2.240977 6.9e-5,-7.34e-4 -7e-5,-0.0012 0,-0.002 0.06069,-0.638022 0.177629,-1.113224 0.366514,-1.26815 0.189483,-0.154051 0.47692,-0.359515 0.829476,-0.584855 0.352252,-0.225178 0.769203,-0.471351 1.219136,-0.708389 0.674967,-0.355597 1.424048,-0.691492 2.135419,-0.9072004 0.237206,-0.071854 0.469432,-0.130313 0.694446,-0.1717882 0.675607,-0.1245319 1.277499,-0.26922 1.986885,-0.3609504 0.471661,-0.060781 0.99142,-0.097902 1.610725,-0.09072 5.91e-4,6.7e-6 0.0014,-6.6e-6 0.002,0 0.01417,1.666e-4 0.03202,0.00172 0.0463,0.00193 0.923,0.013805 2.063971,0.1252749 3.603399,0.4053446 0.0033,0.2728573 0.02595,0.5968254 0.06945,0.9940604 2.52e-4,0.0023 -2.54e-4,0.0035 0,0.0058 9e-5,8.19e-4 -9e-5,0.0011 0,0.002 0.119335,1.085547 0.364208,1.715078 0.702162,2.289233 0.337954,0.574156 0.76795,1.091675 1.257717,1.951446 5.09e-4,8.92e-4 0.0014,9.89e-4 0.002,0.002 0.148481,0.265175 0.304553,0.503479 0.468752,0.714179 5.12e-4,6.6e-4 0.0014,0.0013 0.002,0.002 0.164555,0.210893 0.337232,0.39483 0.516975,0.552041 0.179561,0.157052 0.367211,0.28737 0.561345,0.391834 7.58e-4,4.1e-4 0.0012,0.0015 0.002,0.002 0.193887,0.104102 0.394024,0.182821 0.601853,0.235486 0.834986,0.212862 1.779544,0.01513 2.81636,-0.563622 0.853771,-0.499548 1.48522,-0.734254 2.064045,-1.063549 0.144875,-0.08204 0.285265,-0.170634 0.426313,-0.270229 0.14136,-0.09981 0.281511,-0.210905 0.424383,-0.339718 0.142109,-0.128377 0.287005,-0.273758 0.435957,-0.442019 3.02e-4,-3.4e-4 -3.01e-4,-0.0016 0,-0.002 0.149094,-0.168365 0.305619,-0.3575 0.466822,-0.577133 0.04239,-0.05777 0.05173,-0.08642 0.09066,-0.140906 0.202,-0.281436 0.381464,-0.537387 0.503474,-0.748924 0.312569,-0.231904 0.626436,-0.467793 0.922069,-0.660134 0.718847,-0.48267 1.504321,-1.231042 1.988813,-2.0826982 2.95e-4,-5.174e-4 -2.94e-4,-0.00138 0,-0.00188 0.241888,-0.4255397 0.408469,-0.8768161 0.455247,-1.3337779 6.6e-5,-6.417e-4 -6.4e-5,-0.00129 0,-0.00193 0.01157,-0.1137566 0.01563,-0.227511 0.01158,-0.3416479 -2.3e-5,-6.334e-4 2.4e-5,-0.0013 0,-0.00193 -0.01273,-0.3446734 -0.09955,-0.6888905 -0.27993,-1.0252731 -0.107853,-0.2011221 -0.226623,-0.3693281 -0.35301,-0.5172972 -0.03983,-0.046636 -0.08394,-0.080056 -0.125386,-0.1216036 -0.08789,-0.088188 -0.177515,-0.1712702 -0.271991,-0.2374163 -0.0541,-0.037751 -0.1099,-0.067696 -0.165897,-0.098441 -0.09213,-0.050866 -0.185017,-0.094738 -0.281635,-0.127394 -0.05731,-0.01917 -0.114958,-0.035288 -0.173612,-0.048256 -0.111301,-0.025035 -0.22423,-0.03877 -0.339505,-0.042465 -0.04125,-0.00117 -0.08181,-0.00533 -0.123458,-0.00386 -0.157924,0.00495 -0.318402,0.026656 -0.480324,0.067558 -0.004,0.00101 -0.0076,9.016e-4 -0.01158,0.00193 -6.26e-4,1.612e-4 -0.0013,-1.618e-4 -0.002,0 -0.320283,0.082758 -0.644027,0.2283426 -0.962577,0.4342981 -0.0019,-0.00261 -0.004,-0.00511 -0.0058,-0.00773 -0.08811,-0.1239517 -0.183963,-0.2426495 -0.283565,-0.3590199 -0.02418,-0.028254 -0.04463,-0.059064 -0.06945,-0.08686 2.11e-4,-4.403e-4 -2.09e-4,-0.00148 0,-0.00193 0.04551,-0.095254 0.100475,-0.2221855 0.142749,-0.3590197 0.04217,-0.137148 0.07138,-0.2838682 0.06559,-0.4169263 -0.184202,0.2174887 -0.238848,0.7322987 -0.538196,0.4304377 -0.03748,-0.037801 -0.06125,-0.071788 -0.0733,-0.1023013 -0.01205,-0.030513 -0.01131,-0.057112 -0.0039,-0.081069 0.0073,-0.022373 0.03653,-0.034905 0.05595,-0.052116 0.104137,-0.092334 0.331789,-0.1235337 0.331789,-0.1235337 0,0 -0.0019,-0.00192 -0.002,-0.00193 0,0 -0.356342,-0.2703263 -0.638503,-0.2837414 -0.04703,-0.00224 -0.09219,0.00287 -0.133104,0.017372 -0.04016,0.014164 -0.07757,0.038418 -0.108024,0.073347 0.115528,-0.4336093 -0.002,-0.6646978 -0.148535,-0.7875272 -0.146782,-0.1230293 -0.322146,-0.1389755 -0.322146,-0.1389755 0,0 -6e-6,0.00192 0,0.00193 3e-6,-2e-7 0.131331,0.1400039 0.187117,0.3030436 0.0059,0.017379 0.01739,0.032375 0.02122,0.050186 1.26e-4,5.832e-4 -1.24e-4,0.00135 0,0.00193 0.01277,0.061032 0.01081,0.1244932 -0.01543,0.1833702 -2.68e-4,6.163e-4 2.76e-4,0.00132 0,0.00193 -0.01782,0.039191 -0.05001,0.071791 -0.08873,0.09651 -0.01288,0.00822 -0.03002,0.00913 -0.04437,0.015442 -0.02849,0.011847 -0.05676,0.02514 -0.08873,0.028953 -0.07838,-0.047065 -0.158626,-0.092381 -0.239197,-0.1370453 -0.02931,-0.016245 -0.05723,-0.034548 -0.0868,-0.050186 -0.02469,-0.069989 -0.02983,-0.1633874 0,-0.2779507 4.13e-4,-0.00159 -4.29e-4,-0.00227 0,-0.00386 -0.185563,-0.066158 -0.327742,-0.014618 -0.4321,0.073348 -0.08107,-0.03609 -0.162418,-0.071042 -0.244984,-0.1042315 l 0.06558,-0.3377875 0.08295,-0.4207866 -0.002,0.00386 0,-0.00386 -0.416668,0.6543425 C 36.332733,4.2852613 36.270827,4.2643313 36.2079,4.2437543 36.19324,4.0438683 36.12191,3.8205906 35.910831,3.6878528 c -0.07013,-0.044312 -0.155774,-0.078842 -0.260416,-0.098441 -0.07096,0.2649829 -0.21182,0.3845754 -0.362656,0.4169261 -0.05437,-0.010406 -0.109481,-0.018192 -0.163965,-0.027023 -0.05398,-0.00919 -0.108091,-0.019175 -0.162037,-0.027023 -0.07348,-0.040372 -0.13605,-0.094854 -0.179399,-0.1582776 -0.04272,-0.063291 -0.06468,-0.1343279 -0.05787,-0.2046027 0.0088,-0.0906 0.05308,-0.1683636 0.113812,-0.233556 0.182902,-0.1941752 0.516976,-0.279881 0.516976,-0.2798809 0,0 -0.05766,-0.026274 -0.150463,-0.048256 -0.06962,-0.016486 -0.158577,-0.030301 -0.256559,-0.027023 z m -18.157813,22.1549952 0,0.521157 -0.378087,-0.237416 0,0.285671 -0.426311,-0.237417 0.09453,0.237417 -0.380017,-0.18916 0.04822,0.472902 -0.378087,-0.378322 0.140818,0.662063 -0.378087,-0.18916 0.331791,0.853154 -0.474538,-0.615738 0.33179,0.853153 -0.283565,-0.18916 0.378087,0.758575 -0.33179,-0.285674 0.380016,0.521159 -0.331791,-0.18916 c 0,0 1.70443,3.223985 4.546687,5.072601 0.710565,0.462155 1.500946,0.992333 2.386192,1.515218 0.885327,0.522923 1.865606,1.038245 2.955249,1.470824 1.361915,0.54066 2.894549,0.950887 4.627706,1.08478 0.347048,0.02687 0.701254,0.0429 1.064816,0.04632 0.725738,0.0068 1.484702,-0.03439 2.278167,-0.135115 0.793462,-0.100725 1.483611,-0.299809 2.083335,-0.571343 0.599706,-0.271532 1.108311,-0.615702 1.541281,-1.005642 0.649048,-0.584504 1.127337,-1.273093 1.477625,-1.976539 l 0,-0.002 c 1.051066,-2.111875 0.96065,-4.360354 0.96065,-4.360354 -1.770489,4.005337 -3.362494,5.279228 -6.04939,4.555306 -0.245743,-0.06617 -0.50853,-0.161594 -0.773537,-0.260529 -0.403669,-0.150924 -0.8229,-0.326195 -1.277006,-0.550112 -5.058689,-2.494369 -12.364984,-6.827141 -12.364984,-6.827141 l -0.0463,0.331997 -0.709877,-0.61574 0,0.189163 -0.331791,-0.331997 -0.04822,0.285671 -0.33179,-0.474832 0,0.380252 -0.331791,-0.474832 z"
       style="opacity:1;fill:#9db9ff;fill-opacity:1;fill-rule:evenodd;stroke:none;stroke-width:0.62795258;stroke-linecap:round;stroke-linejoin:round;stroke-miterlimit:4;stroke-dasharray:none;stroke-opacity:1" />
    <circle
       r="1.0107132"
       cy="-0.56792653"
       cx="32.987755"
       style="opacity:1;fill:#464646;fill-opacity:1;stroke:none;stroke-width:0.25;stroke-linecap:round;stroke-linejoin:round;stroke-miterlimit:4;stroke-dasharray:none;stroke-dashoffset:0;stroke-opacity:1"
       id="circle4611"
       transform="matrix(0.96592581,0.2588191,-0.2588191,0.96592581,0,0)" />
    <circle
       r="1"
       cy="-0.1758671"
       cx="-39.293369"
       transform="matrix(-0.96592581,-0.25881909,-0.25881911,0.96592581,0,0)"
       id="circle4613"
       style="opacity:1;fill:#464646;fill-opacity:1;stroke:none;stroke-width:0.25;stroke-linecap:round;stroke-linejoin:round;stroke-miterlimit:4;stroke-dasharray:none;stroke-dashoffset:0;stroke-opacity:1" />
    <path
       style="fill:#464646;fill-opacity:1;fill-rule:evenodd;stroke:none;stroke-width:0.41941813px;stroke-linecap:butt;stroke-linejoin:miter;stroke-opacity:1"
       d="m 32.634983,13.080801 c -0.570752,0.03266 -0.703851,0.109727 -0.605268,0.58021 0.09858,0.470483 0.370331,1.133111 0.999602,1.301723 0.629271,0.168613 1.19663,-0.269177 1.517483,-0.627272 0.320851,-0.358096 0.405991,-0.371864 -0.234074,-0.805112 -0.640063,-0.433248 -1.106989,-0.482214 -1.677743,-0.449549 z"
       id="path4615"
       sodipodi:nodetypes="czzzzz"
       inkscape:connector-curvature="0" />
    <path
       id="path4620"
       d="m 34.949219,3 c -0.01033,3.456e-4 -0.02268,0.00706 -0.0332,0.00781 -0.07642,0.00536 -0.156979,0.025676 -0.238282,0.058594 -0.06688,0.027 -0.13274,0.056105 -0.197265,0.109375 -0.06768,0.055873 -0.130109,0.1359794 -0.189453,0.2285157 -0.01532,0.023759 -0.03039,0.047701 -0.04492,0.074219 -0.05369,0.098514 -0.103081,0.2107123 -0.142578,0.3515625 -0.0024,0.00834 -0.0055,0.012986 -0.0078,0.021484 -0.109536,-0.5224118 -1.255859,-0.3964844 -1.255859,-0.3964844 0,0 0.002,0.00195 0.002,0.00195 l -0.0039,0 c 0,0 0.09617,0.066282 0.189453,0.15625 0.04659,0.045219 0.0929,0.095594 0.126953,0.1484376 0,0 0,0.00195 0,0.00195 0.03411,0.052667 0.05507,0.105774 0.05273,0.15625 l 0,0.00195 c -0.196312,0.022235 -0.388785,0.052922 -0.580078,0.09375 C 32.58544,3.9230034 32.59,3.784009 32.59968,3.6367072 c 0.0097,-0.147302 0.02435,-0.301424 -0.002,-0.4296876 -7.59e-4,0.00115 -0.0012,0.00276 -0.002,0.00391 -3.36e-4,-0.00173 3.53e-4,-0.00415 0,-0.00586 -0.0813,0.1232095 -0.139157,0.2718036 -0.181641,0.4257813 -0.04248,0.1539777 -0.06936,0.3136574 -0.08594,0.4550781 -0.03799,0.010257 -0.07363,0.024115 -0.111328,0.035156 -0.148155,0.043024 -0.2971,0.087151 -0.439453,0.1425781 C 31.675957,4.0926939 31.561226,3.9426993 31.441406,3.8027344 31.318407,3.6590545 31.185872,3.5375057 31.044922,3.4316406 c -0.02577,-0.019623 -0.05178,-0.040351 -0.07813,-0.058594 -0.143087,-0.097708 -0.291984,-0.1800138 -0.451172,-0.234375 -0.0048,-0.00166 -0.0088,-0.00618 -0.01367,-0.00781 -0.0012,-4.01e-4 -0.0027,3.984e-4 -0.0039,0 -0.160447,-0.052858 -0.33059,-0.076281 -0.505859,-0.080078 -0.01737,-3.779e-4 -0.03132,-0.00794 -0.04883,-0.00781 -0.02842,2.282e-4 -0.06108,0.014039 -0.08984,0.015625 -0.135771,0.00743 -0.274556,0.029286 -0.417969,0.068359 -0.04947,0.013465 -0.09812,0.025563 -0.148438,0.042969 -0.189176,0.065461 -0.38151,0.1510681 -0.582031,0.2753906 -0.716634,0.4443104 -1.052812,1.1541838 -1.152344,1.9414063 -2.076711,0.4325285 -4.414661,0.7987222 -6.476562,0.8066406 -0.02313,8.98e-5 -0.04726,0.00195 -0.07031,0.00195 -2.221269,0 -4.022852,0.6442283 -5.349609,1.8300781 -0.378772,0.3383632 -0.717258,0.7204103 -1.017578,1.1445313 0,0 0,0.00195 0,0.00195 -0.149943,0.211854 -0.291964,0.4336714 -0.421875,0.6660156 -0.06622,0.1184538 -0.12263,0.2454819 -0.183594,0.3691409 -0.05897,0.11959 -0.121777,0.234985 -0.175781,0.359375 0,0 0,0.002 0,0.002 -0.109476,0.252302 -0.208046,0.513567 -0.296875,0.785157 -0.08887,0.271695 -0.168417,0.553367 -0.236328,0.84375 -0.05216,0.223056 -0.09317,0.455685 -0.132813,0.689453 -0.01217,0.07179 -0.03003,0.140103 -0.04101,0.21289 0,0 0,0.002 0,0.002 -0.04647,0.308536 -0.08057,0.62514 -0.105469,0.951172 -9.9e-5,0.0013 9.9e-5,0.0026 0,0.0039 -0.02476,0.325499 -0.04002,0.659617 -0.04297,1.001953 -0.0025,0.295274 0.0058,0.533007 0.0078,0.804687 0.006,-0.272977 0.01522,-0.544584 0.03516,-0.80664 9.9e-5,-0.0013 -9.9e-5,-0.0026 0,-0.0039 0.0249,-0.326032 0.059,-0.642637 0.105469,-0.951172 0,0 0,-0.002 0,-0.002 0.01099,-0.07279 0.02884,-0.1411 0.04101,-0.21289 0.03964,-0.233768 0.08065,-0.466397 0.132813,-0.689453 0.06791,-0.290383 0.147458,-0.572055 0.236328,-0.84375 0.08883,-0.27159 0.187399,-0.532855 0.296875,-0.785157 0,0 0,-0.002 0,-0.002 0.054,-0.12439 0.116811,-0.239785 0.175781,-0.359375 0.06096,-0.123659 0.117374,-0.250686 0.183594,-0.36914 0.129911,-0.232344 0.271932,-0.454162 0.421875,-0.666016 0,0 0,-0.002 0,-0.002 0.30032,-0.4241216 0.638806,-0.8061687 1.017578,-1.1445319 1.326757,-1.1858498 3.12834,-1.8300781 5.349609,-1.8300781 0.02305,0 0.04718,-0.00186 0.07031,-0.00195 2.061901,-0.00792 4.399851,-0.3741121 6.476562,-0.8066406 0.09953,-0.7872225 0.43571,-1.4970959 1.152344,-1.9414063 0.200521,-0.1243225 0.392855,-0.2099296 0.582031,-0.2753906 0.05032,-0.017406 0.09897,-0.029504 0.148438,-0.042969 0.143413,-0.039073 0.282198,-0.060929 0.417969,-0.068359 0.02876,-0.00159 0.06142,-0.015397 0.08984,-0.015625 0.01751,-1.301e-4 0.03146,0.00743 0.04883,0.00781 0.175269,0.0038 0.345412,0.02722 0.505859,0.080078 0.0012,3.984e-4 0.0027,-4.01e-4 0.0039,0 0.0049,0.00163 0.0089,0.00615 0.01367,0.00781 0.159188,0.054361 0.308085,0.136667 0.451172,0.234375 0.02634,0.018243 0.05235,0.038971 0.07813,0.058594 0.14095,0.1058651 0.273485,0.2274139 0.396484,0.3710938 0.11982,0.1399649 0.234551,0.2899595 0.335938,0.4609375 0.142353,-0.055427 0.291298,-0.099554 0.439453,-0.1425781 0.03769,-0.011041 0.07334,-0.024899 0.111328,-0.035156 0.01658,-0.1414207 0.04346,-0.3011004 0.08594,-0.4550781 0.04248,-0.1539777 0.100341,-0.3025718 0.181641,-0.4257813 3.53e-4,0.00171 -3.36e-4,0.00413 0,0.00586 8e-4,-0.00115 0.0012,-0.00276 0.002,-0.00391 0.0263,0.1282637 0.01165,0.2823856 0.002,0.4296876 -0.0097,0.1473017 -0.01424,0.2862962 0.02734,0.3789062 0.191293,-0.040828 0.383766,-0.071515 0.580078,-0.09375 l 0,-0.00195 c 0.0023,-0.050476 -0.01862,-0.103583 -0.05273,-0.15625 0,0 0,-0.00195 0,-0.00195 -0.03405,-0.052843 -0.08036,-0.1032185 -0.126953,-0.1484376 -0.09328,-0.089968 -0.189453,-0.15625 -0.189453,-0.15625 l 0.0039,0 c 0,0 -0.002,-0.00195 -0.002,-0.00195 0,0 1.146323,-0.1259274 1.255859,0.3964844 0.0023,-0.0085 0.0054,-0.013144 0.0078,-0.021484 0.0395,-0.1408502 0.08889,-0.2530485 0.142578,-0.3515625 0.01453,-0.026518 0.0296,-0.05046 0.04492,-0.074219 0.05934,-0.092536 0.121773,-0.1726426 0.189453,-0.2285157 0.06453,-0.05327 0.130385,-0.082375 0.197265,-0.109375 0.0813,-0.032918 0.161862,-0.053234 0.238282,-0.058594 0.01052,-7.5e-4 0.02287,-0.00747 0.0332,-0.00781 0.09798,-0.00328 0.186239,0.010858 0.255859,0.027344 0.0928,0.021982 0.150391,0.048828 0.150391,0.048828 0,-1e-7 -0.334676,0.085122 -0.517578,0.2792969 -0.06073,0.065192 -0.104482,0.1437749 -0.113282,0.234375 -0.0068,0.070275 0.01587,0.1417871 0.05859,0.2050781 0.04335,0.063424 0.104254,0.1178311 0.177735,0.1582031 0.05394,0.00785 0.108129,0.016201 0.162109,0.025391 0.05448,0.00883 0.109692,0.016938 0.164062,0.027344 0.150836,-0.032351 0.292322,-0.1510328 0.363282,-0.4160156 0.104642,0.019599 0.189635,0.053344 0.259765,0.097656 0.211079,0.1327378 0.282215,0.3567546 0.296875,0.5566406 0.06293,0.020577 0.12522,0.040309 0.1875,0.0625 l 0.417969,-0.6542968 0,0.00391 0.002,-0.00391 -0.08398,0.421875 -0.06445,0.3378906 c 0.08257,0.033189 0.16307,0.067426 0.24414,0.1035156 0.104358,-0.087966 0.246078,-0.1384236 0.431641,-0.072266 -4.29e-4,0.00159 4.13e-4,0.00232 0,0.00391 -0.02983,0.1145633 -0.02469,0.2073548 0,0.2773438 0.02957,0.015638 0.05858,0.034536 0.08789,0.050781 0.08057,0.044664 0.159901,0.089654 0.238281,0.1367188 0.03197,-0.00381 0.06135,-0.01745 0.08984,-0.029297 0.01435,-0.00631 0.03009,-0.00741 0.04297,-0.015625 0.03872,-0.024719 0.07202,-0.056512 0.08984,-0.095703 0,0 0,-0.00195 0,-0.00195 0.02624,-0.058877 0.0284,-0.1225617 0.01563,-0.1835937 0,0 0,-0.00195 0,-0.00195 -0.0038,-0.017811 -0.01558,-0.033402 -0.02148,-0.050781 -0.05579,-0.1630397 -0.187497,-0.3027345 -0.1875,-0.3027343 l 0,-0.00195 c 0,0 0.175483,0.015723 0.322265,0.1386719 0.146535,0.1228294 0.263966,0.3535001 0.148438,0.7871094 0.03045,-0.034929 0.06726,-0.058102 0.107422,-0.072266 0.04091,-0.014502 0.08578,-0.019818 0.132812,-0.017578 0.282161,0.013415 0.638672,0.2832031 0.638672,0.2832031 0,0 0.002,0.00195 0.002,0.00195 0,0 -0.227894,0.030713 -0.332031,0.1230468 -0.01942,0.017211 -0.04739,0.030361 -0.05469,0.052734 -0.0074,0.023957 -0.0081,0.049565 0.0039,0.080078 0.01205,0.030513 0.03478,0.065715 0.07227,0.1035156 0.290683,0.2931234 0.353499,-0.181202 0.525391,-0.4082032 -0.04209,-0.052434 -0.08111,-0.106923 -0.125,-0.1582031 -0.02418,-0.028254 -0.04549,-0.058141 -0.07031,-0.085937 0,0 0,-0.00195 0,-0.00195 0.04551,-0.095254 0.100305,-0.2225408 0.142579,-0.359375 0.04217,-0.137148 0.0722,-0.2829575 0.06641,-0.4160156 -0.184202,0.2174887 -0.239715,0.7315485 -0.539063,0.4296875 -0.03748,-0.037801 -0.06021,-0.071049 -0.07227,-0.1015625 -0.01205,-0.030513 -0.01132,-0.058074 -0.0039,-0.082031 0.0073,-0.022373 0.03527,-0.035523 0.05469,-0.052734 0.104137,-0.092334 0.332031,-0.1230468 0.332031,-0.1230468 0,0 -0.002,-0.00195 -0.002,-0.00195 0,0 -0.356511,-0.269788 -0.638672,-0.2832031 -0.04703,-0.00224 -0.0919,0.00308 -0.132812,0.017578 -0.04016,0.014164 -0.07697,0.037337 -0.107422,0.072266 0.115528,-0.4336093 -0.0019,-0.66428 -0.148438,-0.7871094 -0.146857,-0.1230052 -0.32234,-0.1386478 -0.32234,-0.1386478 l 0,0.00195 c 3e-6,-2e-7 0.131714,0.1396946 0.1875,0.3027343 0.0059,0.017379 0.01765,0.03297 0.02148,0.050781 0,0 0,0.00195 0,0.00195 0.01277,0.061032 0.01062,0.1247168 -0.01563,0.1835937 0,0 0,0.00195 0,0.00195 -0.01782,0.039191 -0.05112,0.070984 -0.08984,0.095703 -0.01288,0.00822 -0.02862,0.00931 -0.04297,0.015625 -0.02849,0.011847 -0.05787,0.025484 -0.08984,0.029297 -0.07838,-0.047065 -0.15771,-0.092055 -0.238281,-0.1367188 -0.02931,-0.016245 -0.05832,-0.035143 -0.08789,-0.050781 -0.02469,-0.069989 -0.02983,-0.1627805 0,-0.2773438 4.13e-4,-0.00159 -4.29e-4,-0.00232 0,-0.00391 -0.185563,-0.066158 -0.327283,-0.0157 -0.431641,0.072266 -0.08107,-0.03609 -0.161574,-0.070326 -0.24414,-0.1035156 l 0.06445,-0.3378906 0.08398,-0.421875 -0.002,0.00391 0,-0.00391 -0.417969,0.6542968 c -0.06228,-0.022191 -0.124573,-0.041923 -0.1875,-0.0625 C 36.192315,4.0442416 36.121175,3.8202248 35.9101,3.687487 35.83997,3.643175 35.754977,3.60943 35.650335,3.589831 c -0.07096,0.2649829 -0.212446,0.3836649 -0.363282,0.4160156 -0.05437,-0.010406 -0.109578,-0.018513 -0.164062,-0.027344 -0.05398,-0.00919 -0.108164,-0.017543 -0.162109,-0.025391 -0.07348,-0.040372 -0.134386,-0.09478 -0.177735,-0.1582031 -0.04272,-0.063291 -0.0654,-0.1348034 -0.05859,-0.2050781 0.0088,-0.0906 0.05255,-0.1691826 0.113282,-0.234375 0.182902,-0.1941753 0.517578,-0.279297 0.517578,-0.2792969 0,0 -0.05759,-0.026846 -0.150391,-0.048828 C 35.135458,3.0108577 35.047201,2.996722 34.949219,3 Z m 5.935547,3.0058594 c -0.157924,0.00495 -0.318547,0.027457 -0.480469,0.068359 -0.004,0.00101 -0.0077,9.247e-4 -0.01172,0.00195 0,0 -0.002,0 -0.002,0 -0.320283,0.082758 -0.644341,0.2276382 -0.962891,0.4335937 -0.0019,-0.00261 -0.0041,-0.00519 -0.0059,-0.00781 -0.04658,-0.065527 -0.100073,-0.12643 -0.150391,-0.1894531 4.7e-5,0.1238092 -0.02193,0.2572142 -0.06055,0.3828125 -0.04227,0.1368342 -0.09707,0.264121 -0.142579,0.359375 0,0 0,0.00195 0,0.00195 0.02482,0.027796 0.04613,0.057684 0.07031,0.085937 0.0996,0.1163704 0.195093,0.2354233 0.283203,0.359375 0.0018,0.00262 0.004,0.0052 0.0059,0.00781 0.31855,-0.2059555 0.642608,-0.3508357 0.962891,-0.4335937 0,0 0.002,0 0.002,0 0.004,-0.00103 0.0077,-9.432e-4 0.01172,-0.00195 0.161922,-0.040902 0.322545,-0.063409 0.480469,-0.068359 0.04165,-0.00147 0.0818,0.00274 0.123046,0.00391 0.115275,0.0037 0.228543,0.017934 0.339844,0.042969 0.05865,0.012968 0.116518,0.027705 0.173828,0.046875 0.09662,0.032656 0.18912,0.07804 0.28125,0.1289062 0.056,0.030745 0.111916,0.059905 0.166016,0.097656 0.09448,0.066146 0.183594,0.1500932 0.271484,0.2382812 0.04145,0.041548 0.08517,0.074458 0.125,0.1210938 0.126387,0.1479691 0.245663,0.316456 0.353516,0.5175781 0.105581,0.1968927 0.17142,0.3968749 0.216797,0.5976562 0.01429,-0.075911 0.04297,-0.150241 0.05078,-0.2265624 0,0 0,-0.00195 0,-0.00195 0.01157,-0.1137566 0.01577,-0.22766 0.01172,-0.3417968 0,0 0,-0.00195 0,-0.00195 C 42.985317,7.8838422 42.89913,7.5395076 42.71875,7.203125 42.610897,7.0020029 42.491621,6.833516 42.365234,6.6855469 c -0.03983,-0.046636 -0.08355,-0.079546 -0.125,-0.1210938 -0.08789,-0.088188 -0.177008,-0.1721351 -0.271484,-0.2382812 -0.0541,-0.037751 -0.110019,-0.066911 -0.166016,-0.097656 -0.09213,-0.050866 -0.184632,-0.094297 -0.28125,-0.1269531 -0.05731,-0.01917 -0.115174,-0.03586 -0.173828,-0.048828 -0.111301,-0.025035 -0.224569,-0.039274 -0.339844,-0.042969 -0.04125,-0.00117 -0.0814,-0.00538 -0.123046,-0.00391 z M 15.671875,15.195312 c -0.01174,0.444579 -0.01177,0.910405 0.0059,1.390626 9e-4,0.02353 0.003,0.04678 0.0039,0.07031 0.0626,1.582738 0.260481,3.153394 0.447265,3.480469 0.02067,0.03633 0.01725,0.05836 0.0332,0.0918 0.05377,-0.254303 0.146522,-0.435301 0.117188,-0.675782 -0.01399,-0.117134 -0.05675,-0.251399 -0.150391,-0.416015 -0.186784,-0.327075 -0.38466,-1.897731 -0.447265,-3.480469 -9.31e-4,-0.02353 -0.003,-0.04678 -0.0039,-0.07031 -0.0049,-0.132584 -0.003,-0.258876 -0.0059,-0.390626 z m 1.119141,9.960938 0,0.519531 -0.378907,-0.236328 0,0.285156 -0.425781,-0.236328 0.09375,0.236328 -0.378906,-0.189453 0.04687,0.472656 -0.376953,-0.376953 0.140625,0.66211 -0.378907,-0.189453 0.277344,0.714843 -0.03906,-0.1875 0.376953,0.376953 -0.04687,-0.472656 0.378906,0.189453 -0.09375,-0.236328 0.425781,0.236328 0,-0.285156 0.378907,0.236328 0,-0.519531 0.332031,0.474609 0,-0.380859 0.332031,0.474609 0.04687,-0.285156 0.332031,0.332031 0,-0.189453 0.710938,0.615235 0.04492,-0.332032 c 0,0 7.306545,4.333756 12.365234,6.828125 0.454106,0.223917 0.873675,0.397904 1.277344,0.548829 0.265007,0.09894 0.527694,0.195548 0.773437,0.261718 2.653984,0.715055 4.239704,-0.529636 5.984375,-4.419922 0.06841,-0.660373 0.06445,-1.134765 0.06445,-1.134765 -1.770489,4.005337 -3.361933,5.278609 -6.048829,4.554687 -0.245743,-0.06617 -0.50843,-0.162783 -0.773437,-0.261718 -0.40366,-0.150925 -0.823229,-0.324912 -1.277335,-0.548829 C 25.896389,30.19899 18.589844,25.865234 18.589844,25.865234 l -0.04492,0.332032 -0.710938,-0.615235 0,0.189453 -0.332031,-0.332031 -0.04687,0.285156 -0.332031,-0.474609 0,0.380859 -0.332031,-0.474609 z m -1.800782,1.183594 0.332032,0.853515 -0.283204,-0.189453 0.25,0.501953 -0.15625,-0.402343 0.378907,0.189453 -0.08008,-0.38086 -0.441407,-0.572265 z M 15.113281,27.5 15.464844,27.957031 15.375,27.726562 15.113281,27.5 Z m 0.01953,0.308594 c 0,0 0.08913,0.147388 0.119141,0.201172 l -0.06836,-0.171875 -0.05078,-0.0293 z"
       style="opacity:0.1;fill:#ffffff;fill-opacity:1;fill-rule:evenodd;stroke:none;stroke-width:0.62795258;stroke-linecap:round;stroke-linejoin:round;stroke-miterlimit:4;stroke-dasharray:none;stroke-opacity:1"
       inkscape:connector-curvature="0" />
  </g>
</svg>
