<?xml version="1.0" encoding="UTF-8" standalone="no"?>
<!-- Creator: CorelDRAW X6 -->

<svg
   xmlns:dc="http://purl.org/dc/elements/1.1/"
   xmlns:cc="http://creativecommons.org/ns#"
   xmlns:rdf="http://www.w3.org/1999/02/22-rdf-syntax-ns#"
   xmlns:svg="http://www.w3.org/2000/svg"
   xmlns="http://www.w3.org/2000/svg"
   xmlns:sodipodi="http://sodipodi.sourceforge.net/DTD/sodipodi-0.dtd"
   xmlns:inkscape="http://www.inkscape.org/namespaces/inkscape"
   xml:space="preserve"
   width="48"
   height="48"
   version="1.1"
   style="clip-rule:evenodd;fill-rule:evenodd;image-rendering:optimizeQuality;shape-rendering:geometricPrecision;text-rendering:geometricPrecision"
   viewBox="0 0 3543.2937 3543.2932"
   id="svg2"
   inkscape:version="0.91 r"
   sodipodi:docname="kdepim-googledrive.svg"><metadata
     id="metadata18"><rdf:RDF><cc:Work
         rdf:about=""><dc:format>image/svg+xml</dc:format><dc:type
           rdf:resource="http://purl.org/dc/dcmitype/StillImage" /><dc:title /></cc:Work></rdf:RDF></metadata><sodipodi:namedview
     pagecolor="#ffffff"
     bordercolor="#666666"
     borderopacity="1"
     objecttolerance="10"
     gridtolerance="10"
     guidetolerance="10"
     inkscape:pageopacity="0"
     inkscape:pageshadow="2"
     inkscape:window-width="1600"
     inkscape:window-height="843"
     id="namedview16"
     showgrid="false"
     units="px"
     inkscape:zoom="8.08"
     inkscape:cx="13.292524"
     inkscape:cy="23.716724"
     inkscape:window-x="-4"
     inkscape:window-y="31"
     inkscape:window-maximized="1"
     inkscape:current-layer="svg2" /><defs
     id="defs4"><style
       type="text/css"
       id="style6"><![CDATA[
    .fil2 {fill:#11A861}
    .fil0 {fill:#3777E3}
    .fil1 {fill:#FFCF63}
   ]]></style></defs><path
     style="fill:#4e8dcc;fill-opacity:1"
     d="m 3475.2942,2214.5584 -596.3683,1033.4607 -2214.55835,0 590.54875,-1033.4607 z"
     id="polygon4149"
     inkscape:connector-curvature="0"
     sodipodi:nodetypes="ccccc" /><path
     sodipodi:nodetypes="ccccc"
     inkscape:connector-curvature="0"
     id="path4152"
     d="m 1181.0978,291.65451 1193.1874,-0.26015 1107.2792,1917.86394 -1190.2776,5.3001 z"
     style="fill:#fcc345;fill-opacity:1" /><path
     sodipodi:nodetypes="ccccc"
     inkscape:connector-curvature="0"
     id="path4154"
     d="M 670.63762,3248.0191 73.818616,2214.8185 1181.0977,296.95465 1780.8266,1325.1153 Z"
     style="fill:#6cbf48;fill-opacity:1" /><path
     inkscape:connector-curvature="0"
     style="opacity:0.1;fill:#ffffff;fill-opacity:1"
     d="m 2374.3065,291.38142 -1193.2086,0.28836 42.6763,73.81862 1150.5323,-0.28863 1064.7471,1844.16793 42.5322,-0.1476 L 2374.3065,291.37775 Z"
     id="path4156" /><path
     inkscape:connector-curvature="0"
     style="opacity:0.3;fill:#000000;fill-opacity:1"
     d="m 1181.0979,291.66978 1110.1627,1922.88852 1190.3252,-5.3345 -42.5322,-73.6744 -1147.793,5.1903 -1067.4864,-1849.06992 -42.6763,0 z"
     id="path4161" /><path
     inkscape:connector-curvature="0"
     style="opacity:0.1;fill:#ffffff;fill-opacity:1"
     d="M 1181.0979,297.00433 73.818616,2214.8467 95.15681,2251.756 1181.0979,370.82295 1759.3917,1362.184 1780.8741,1325.1305 1181.0979,297.00433 Z"
     id="path4166" /><path
     inkscape:connector-curvature="0"
     style="opacity:0.3;fill:#000000;fill-opacity:1"
     d="M 1759.3917,1288.3653 670.56716,3174.2004 95.15681,2177.9374 73.818616,2214.8467 670.56716,3248.019 1780.8741,1325.1305 l -21.4824,-36.7652 z"
     id="path4171" /><path
     inkscape:connector-curvature="0"
     style="opacity:0.1;fill:#ffffff;fill-opacity:1"
     d="m 1254.9165,2214.5583 -590.54896,1033.4607 42.24386,0 548.3051,-959.642 2177.7933,0 42.5322,-73.8187 -2220.3255,0 z"
     id="path4176" /><path
     inkscape:connector-curvature="0"
     style="opacity:0.3;fill:#000000;fill-opacity:1"
     d="m 3432.7098,2214.5583 -553.7838,959.6421 -2172.3146,0 -42.24386,73.8186 2214.55846,0 596.316,-1033.4607 -42.5322,0 z"
     id="path4181" /></svg>