<?xml version="1.0" encoding="UTF-8" standalone="no"?>
<!-- Created with Inkscape (http://www.inkscape.org/) -->

<svg
   xmlns:dc="http://purl.org/dc/elements/1.1/"
   xmlns:cc="http://creativecommons.org/ns#"
   xmlns:rdf="http://www.w3.org/1999/02/22-rdf-syntax-ns#"
   xmlns:svg="http://www.w3.org/2000/svg"
   xmlns="http://www.w3.org/2000/svg"
   xmlns:xlink="http://www.w3.org/1999/xlink"
   xmlns:sodipodi="http://sodipodi.sourceforge.net/DTD/sodipodi-0.dtd"
   xmlns:inkscape="http://www.inkscape.org/namespaces/inkscape"
   id="svg2817"
   height="48"
   width="48"
   version="1.0"
   inkscape:version="0.91 r"
   sodipodi:docname="kfourinline.svg">
  <sodipodi:namedview
     pagecolor="#ffffff"
     bordercolor="#666666"
     borderopacity="1"
     objecttolerance="10"
     gridtolerance="10"
     guidetolerance="10"
     inkscape:pageopacity="0"
     inkscape:pageshadow="2"
     inkscape:window-width="1600"
     inkscape:window-height="846"
     id="namedview20"
     showgrid="false"
     inkscape:zoom="7.03"
     inkscape:cx="-31.993249"
     inkscape:cy="24"
     inkscape:window-x="0"
     inkscape:window-y="26"
     inkscape:window-maximized="1"
     inkscape:current-layer="svg2817" />
  <metadata
     id="metadata57">
    <rdf:RDF>
      <cc:Work
         rdf:about="">
        <dc:format>image/svg+xml</dc:format>
        <dc:type
           rdf:resource="http://purl.org/dc/dcmitype/StillImage" />
        <dc:title />
      </cc:Work>
    </rdf:RDF>
  </metadata>
  <defs
     id="defs2819">
    <linearGradient
       gradientTransform="translate(0,1)"
       x1="24.292"
       x2="24.239"
       y1="22.121"
       gradientUnits="userSpaceOnUse"
       y2="3.9509"
       id="linearGradient4191">
      <stop
         offset="0"
         id="stop4187" />
      <stop
         offset="1"
         stop-opacity="0"
         id="stop4189" />
    </linearGradient>
    <linearGradient
       y2="3.9509"
       x2="24.239"
       y1="23.946499"
       x1="24.089167"
       gradientTransform="matrix(0,1,-1,0,-12.4,-2e-7)"
       gradientUnits="userSpaceOnUse"
       id="linearGradient4161"
       xlink:href="#linearGradient4191"
       inkscape:collect="always" />
    <linearGradient
       inkscape:collect="always"
       xlink:href="#linearGradient4191"
       id="linearGradient4178"
       gradientUnits="userSpaceOnUse"
       gradientTransform="translate(-60.4,1)"
       x1="24.292"
       y1="22.121"
       x2="24.239"
       y2="3.9509" />
  </defs>
  <rect
     style="fill:#66a6de;fill-opacity:1"
     x="-44"
     y="-44"
     width="40"
     height="40"
     ry="2"
     rx="2"
     transform="matrix(0,-1,-1,0,0,0)"
     id="rect4203-6" />
  <path
     style="opacity:0.2;fill:#ffffff"
     inkscape:connector-curvature="0"
     d="M 6,4 C 4.892,4 4,4.892 4,6 L 4,7 C 4,5.892 4.892,5 6,5 l 36,0 c 1.108,0 2,0.892 2,2 L 44,6 C 44,4.892 43.108,4 42,4 L 6,4 Z"
     id="rect4592" />
  <path
     style="opacity:0.3"
     inkscape:connector-curvature="0"
     d="M 6,44 C 4.892,44 4,43.108 4,42 l 0,-1 c 0,1.108 0.892,2 2,2 l 36,0 c 1.108,0 2,-0.892 2,-2 l 0,1 c 0,1.108 -0.892,2 -2,2 L 6,44 Z"
     id="path4597" />
  <path
     style="fill:#ffffff"
     id="path4183"
     d="m 22,15 a 7,7 0 0 1 -7,7 7,7 0 0 1 -7,-7 7,7 0 0 1 7,-7 7,7 0 0 1 7,7 z"
     inkscape:connector-curvature="0" />
  <path
     style="fill:#c44d40;fill-opacity:1"
     id="path4186"
     d="m 40,15 a 7,7 0 0 1 -7,7 7,7 0 0 1 -7,-7 7,7 0 0 1 7,-7 7,7 0 0 1 7,7 z"
     inkscape:connector-curvature="0" />
  <path
     style="fill:#4d4d4d;fill-opacity:1"
     id="path4194"
     d="m 22,34 a 7,7 0 0 1 -7,7 7,7 0 0 1 -7,-7 7,7 0 0 1 7,-7 7,7 0 0 1 7,7 z"
     inkscape:connector-curvature="0" />
  <path
     style="fill:#c44d40;fill-opacity:1"
     id="path4196"
     d="m 40,34 a 7,7 0 0 1 -7,7 7,7 0 0 1 -7,-7 7,7 0 0 1 7,-7 7,7 0 0 1 7,7 z"
     inkscape:connector-curvature="0" />
  <g
     id="g4193"
     transform="translate(60.4,1e-7)">
    <path
       id="path4026"
       d="m -54.4,5 c -1.108,0 -2,0.892 -2,2 l 0,17 40,0 0,-17 c 0,-1.108 -0.892,-2 -2,-2 l -36,0 z"
       style="opacity:0.1;fill:url(#linearGradient4178)"
       inkscape:connector-curvature="0" />
    <path
       sodipodi:nodetypes="ssccsss"
       inkscape:connector-curvature="0"
       style="opacity:0.1;fill:url(#linearGradient4161)"
       d="m -16.4,5.9999998 c 0,-1.108 -0.892,-2 -2,-2 l -18,0 0,40.0000002 18,0 c 1.108,0 2,-0.892 2,-2 z"
       id="path4159" />
  </g>
</svg>
