<?xml version="1.0" encoding="UTF-8" standalone="no"?>
<!-- Created with Inkscape (http://www.inkscape.org/) -->
<svg id="svg2817" xmlns:rdf="http://www.w3.org/1999/02/22-rdf-syntax-ns#" xmlns="http://www.w3.org/2000/svg" height="48" width="48" version="1.0" xmlns:cc="http://creativecommons.org/ns#" xmlns:xlink="http://www.w3.org/1999/xlink" xmlns:dc="http://purl.org/dc/elements/1.1/">
 <metadata id="metadata57">
  <rdf:RDF>
   <cc:Work rdf:about="">
    <dc:format>image/svg+xml</dc:format>
    <dc:type rdf:resource="http://purl.org/dc/dcmitype/StillImage"/>
    <dc:title/>
   </cc:Work>
  </rdf:RDF>
 </metadata>
 <g id="g4182" transform="translate(0,1)">
  <rect id="rect4203" transform="matrix(0,-1,-1,0,0,0)" rx="2" ry="2" height="40" width="40" y="-44" x="-43" fill="#fabd7f"/>
  <path id="path4068" opacity=".1" fill="#fff" d="m4 6v-1c0-1.108 0.892-2 2-2h36c1.108 0 2 0.892 2 2v1c0-1.108-0.892-2-2-2h-36c-1.108 0-2 0.892-2 2z"/>
  <path id="path3937" fill="#fff" d="m17 28 7 9 7-9h-4v1c0 0.554-0.446 1-1 1h-4c-0.554 0-1-0.446-1-1v-1h-4zm5-17h4c0.554 0 1 0.446 1 1v17c0 0.554-0.446 1-1 1h-4c-0.554 0-1-0.446-1-1v-17c0-0.554 0.446-1 1-1z"/>
  <path id="path4009" opacity=".1" d="m6 4c-1.108 0-2 0.892-2 2v17h40v-17c0-1.108-0.892-2-2-2h-36z"/>
  <path id="path4038" opacity=".1" d="m4 23 20 20h18c1.108 0 2-0.892 2-2v-18h-40z"/>
  <path id="path4026" opacity=".05" d="m6 4c-1.108 0-2 0.892-2 2v17h40v-17c0-1.108-0.892-2-2-2h-36z"/>
  <path id="rect4177" opacity=".3" d="m4 40v1c0 1.108 0.892 2 2 2h36c1.108 0 2-0.892 2-2v-1c0 1.108-0.892 2-2 2h-36c-1.108 0-2-0.892-2-2z"/>
 </g>
</svg>
