<?xml version="1.0" encoding="UTF-8" standalone="no"?>
<!-- Created with Inkscape (http://www.inkscape.org/) -->

<svg
   xmlns:dc="http://purl.org/dc/elements/1.1/"
   xmlns:cc="http://creativecommons.org/ns#"
   xmlns:rdf="http://www.w3.org/1999/02/22-rdf-syntax-ns#"
   xmlns:svg="http://www.w3.org/2000/svg"
   xmlns="http://www.w3.org/2000/svg"
   xmlns:sodipodi="http://sodipodi.sourceforge.net/DTD/sodipodi-0.dtd"
   xmlns:inkscape="http://www.inkscape.org/namespaces/inkscape"
   width="48"
   height="48"
   viewBox="0 0 48 48.000001"
   id="svg4558"
   version="1.1"
   inkscape:version="0.91 r"
   sodipodi:docname="musescore.svg">
  <defs
     id="defs4560" />
  <sodipodi:namedview
     id="base"
     pagecolor="#ffffff"
     bordercolor="#666666"
     borderopacity="1.0"
     inkscape:pageopacity="0.0"
     inkscape:pageshadow="2"
     inkscape:zoom="0.35"
     inkscape:cx="-87.857143"
     inkscape:cy="520"
     inkscape:document-units="px"
     inkscape:current-layer="layer1"
     showgrid="false"
     units="px"
     inkscape:window-width="1600"
     inkscape:window-height="846"
     inkscape:window-x="-5"
     inkscape:window-y="28"
     inkscape:window-maximized="1" />
  <metadata
     id="metadata4563">
    <rdf:RDF>
      <cc:Work
         rdf:about="">
        <dc:format>image/svg+xml</dc:format>
        <dc:type
           rdf:resource="http://purl.org/dc/dcmitype/StillImage" />
        <dc:title></dc:title>
      </cc:Work>
    </rdf:RDF>
  </metadata>
  <g
     inkscape:label="Layer 1"
     inkscape:groupmode="layer"
     id="layer1"
     transform="translate(0,-1004.3622)">
    <g
       transform="translate(0,1004.3622)"
       id="g4552">
      <rect
         style="fill:#f8d7ae;fill-opacity:1"
         x="-44"
         y="-44.108002"
         width="40"
         height="40"
         transform="matrix(0,-1,-1,0,0,0)"
         rx="20"
         ry="20"
         id="rect4203" />
      <path
         style="opacity:0.2;fill:#ffffff"
         inkscape:connector-curvature="0"
         d="M 24,4 C 12.92,4 4,12.92 4,24 4,24.168 4.008,24.333 4.0117,24.5 4.2764,13.654 13.088,5 23.9997,5 c 10.9117,0 19.724,8.6539 19.988,19.5 0.004,-0.16686 0.0117,-0.33213 0.0117,-0.5 0,-11.08 -8.92,-20 -20,-20 z"
         id="rect4903" />
      <path
         inkscape:connector-curvature="0"
         d="m 30.504,12 c -2.218,0 -3.56,1.376 -4.07,2.621 -0.511,1.246 -0.428,2.434 -0.428,2.434 l 1.996,-0.11 c 0,0 -0.028,-0.812 0.281,-1.566 0.31,-0.755 0.72,-1.379 2.221,-1.379 1.501,0 1.909,0.624 2.219,1.379 0.309,0.754 0.283,1.566 0.283,1.566 l 1.996,0.11 c 0,0 0.083,-1.188 -0.428,-2.434 C 34.063,13.376 32.722,12 30.504,12 Z M 30.5,16 A 1.5,1.5 0 0 0 29,17.5 1.5,1.5 0 0 0 30.5,19 1.5,1.5 0 0 0 32,17.5 1.5,1.5 0 0 0 30.5,16 Z m -13.996,3.988 c -2.218,0 -3.56,1.376 -4.07,2.621 -0.511,1.246 -0.428,2.434 -0.428,2.434 l -0.002,-0.055 0,11.012 2,0 0,-11.039 -0.002,-0.027 c 0,0 -0.028,-0.812 0.281,-1.567 0.31,-0.754 0.72,-1.379 2.221,-1.379 1.501,0 1.909,0.625 2.219,1.379 0.309,0.755 0.283,1.567 0.283,1.567 l -0.002,0.027 0,0.025 L 19,29 l 0.004,0 0,6.988 2,0 0,-11 0,-0.027 L 21,24.934 c 0,0 -0.028,-0.812 0.281,-1.567 0.31,-0.754 0.722,-1.379 2.223,-1.379 1.501,0 1.909,0.625 2.219,1.379 0.309,0.755 0.283,1.567 0.283,1.567 l -0.004,0.027 0,2.039 0,4 0.004,-0.055 c 0,0 -0.083,1.188 0.428,2.434 0.51,1.245 1.852,2.621 4.07,2.621 2.218,0 3.559,-1.376 4.07,-2.621 0.511,-1.246 0.428,-2.434 0.428,-2.434 l 0.002,0.055 0,-11 -2,0 0,11.027 0.002,0.028 c 0,0 0.026,0.812 -0.283,1.566 C 32.413,33.376 32.005,34 30.504,34 29.003,34 28.593,33.376 28.283,32.621 27.974,31.867 28.002,31.055 28.002,31.055 l 0.002,-0.028 0,-5.027 0,-1.012 -0.002,0.055 c 0,0 0.083,-1.188 -0.428,-2.434 -0.51,-1.245 -1.852,-2.621 -4.07,-2.621 -1.642,0 -2.8,0.754 -3.5,1.651 -0.7,-0.897 -1.859,-1.651 -3.5,-1.651 z"
         style="color:#000000;text-indent:0;text-decoration:none;text-decoration-line:none;text-decoration-style:solid;text-decoration-color:#000000;text-transform:none;block-progression:tb;white-space:normal;isolation:auto;mix-blend-mode:normal;solid-color:#000000;fill:#2a567b;fill-rule:evenodd;color-rendering:auto;image-rendering:auto;shape-rendering:auto"
         id="path4734" />
      <path
         style="opacity:0.3"
         inkscape:connector-curvature="0"
         d="M 4.0117,23.5 C 4.0076,23.667 4,23.832 4,24 c 0,11.08 8.92,20 20,20 11.08,0 20,-8.92 20,-20 0,-0.16787 -0.0076,-0.33314 -0.01172,-0.5 -0.264,10.846 -9.076,19.5 -19.988,19.5 -10.912,0 -19.724,-8.654 -19.988,-19.5 z"
         id="rect4849" />
    </g>
  </g>
</svg>
