<?xml version="1.0" encoding="UTF-8" standalone="no"?>
<!-- Created with Inkscape (http://www.inkscape.org/) -->

<svg
   xmlns:dc="http://purl.org/dc/elements/1.1/"
   xmlns:cc="http://creativecommons.org/ns#"
   xmlns:rdf="http://www.w3.org/1999/02/22-rdf-syntax-ns#"
   xmlns:svg="http://www.w3.org/2000/svg"
   xmlns="http://www.w3.org/2000/svg"
   xmlns:sodipodi="http://sodipodi.sourceforge.net/DTD/sodipodi-0.dtd"
   xmlns:inkscape="http://www.inkscape.org/namespaces/inkscape"
   id="svg2817"
   height="48"
   width="48"
   version="1.0"
   inkscape:version="0.91 r"
   sodipodi:docname="mypaint.svg">
  <sodipodi:namedview
     pagecolor="#ffffff"
     bordercolor="#666666"
     borderopacity="1"
     objecttolerance="10"
     gridtolerance="10"
     guidetolerance="10"
     inkscape:pageopacity="0"
     inkscape:pageshadow="2"
     inkscape:window-width="1600"
     inkscape:window-height="846"
     id="namedview229"
     showgrid="false"
     inkscape:zoom="5.71"
     inkscape:cx="41.653639"
     inkscape:cy="24"
     inkscape:window-x="0"
     inkscape:window-y="26"
     inkscape:window-maximized="1"
     inkscape:current-layer="svg2817" />
  <metadata
     id="metadata57">
    <rdf:RDF>
      <cc:Work
         rdf:about="">
        <dc:format>image/svg+xml</dc:format>
        <dc:type
           rdf:resource="http://purl.org/dc/dcmitype/StillImage" />
        <dc:title></dc:title>
      </cc:Work>
    </rdf:RDF>
  </metadata>
  <defs
     id="defs2819" />
  <text
     id="text4087-2-6-5"
     opacity=".8"
     font-size="12.666px"
     xml:space="preserve"
     y="10.812601"
     x="877.22626"
     font-family="'Bitstream Vera Sans'"
     fill="#000000"><tspan
       id="tspan4089-7-2-9"
       y="10.812601"
       x="877.22626" /></text>
  <text
     id="text4087-2-6-5-5"
     opacity=".8"
     font-size="12.666px"
     xml:space="preserve"
     y="-29.929106"
     x="901.18719"
     font-family="'Bitstream Vera Sans'"
     fill="#000000"><tspan
       id="tspan4089-7-2-9-6"
       y="-29.929106"
       x="901.18719" /></text>
  <text
     id="text4087-2-6-5-2"
     opacity=".8"
     font-size="12.666px"
     xml:space="preserve"
     y="-60.007248"
     x="-569.37115"
     font-family="'Bitstream Vera Sans'"
     fill="#000000"><tspan
       id="tspan4089-7-2-9-2"
       y="-60.007248"
       x="-569.37115" /></text>
  <text
     id="text4087-2-6-5-59"
     opacity=".8"
     font-size="12.666px"
     xml:space="preserve"
     y="685.5462"
     x="-2393.0571"
     font-family="'Bitstream Vera Sans'"
     fill="#000000"><tspan
       id="tspan4089-7-2-9-4"
       y="685.5462"
       x="-2393.0571" /></text>
  <text
     id="text4087-2-6-5-1"
     opacity=".8"
     font-size="12.666px"
     xml:space="preserve"
     y="-445.32822"
     x="-454.88007"
     font-family="'Bitstream Vera Sans'"
     fill="#000000"><tspan
       id="tspan4089-7-2-9-7"
       y="-445.32822"
       x="-454.88007" /></text>
  <text
     id="text4087-2-6-5-7"
     opacity=".8"
     font-size="12.666px"
     xml:space="preserve"
     y="-858.79834"
     x="352.72208"
     font-family="'Bitstream Vera Sans'"
     fill="#000000"><tspan
       id="tspan4089-7-2-9-1"
       y="-858.79834"
       x="352.72208" /></text>
  <text
     id="text4087-2-6-5-5-3"
     opacity=".8"
     font-size="12.666px"
     xml:space="preserve"
     y="-899.54004"
     x="376.68301"
     font-family="'Bitstream Vera Sans'"
     fill="#000000"><tspan
       id="tspan4089-7-2-9-6-5"
       y="-899.54004"
       x="376.68301" /></text>
  <text
     id="text4087-2-6-5-3"
     opacity=".8"
     font-size="12.666px"
     xml:space="preserve"
     y="-906.74994"
     x="-1114.7802"
     font-family="'Bitstream Vera Sans'"
     fill="#000000"><tspan
       id="tspan4089-7-2-9-18"
       y="-906.74994"
       x="-1114.7802" /></text>
  <text
     id="text4087-2-6-5-4"
     opacity=".8"
     font-size="12.666px"
     xml:space="preserve"
     y="-1179.9841"
     x="345.7626"
     font-family="'Bitstream Vera Sans'"
     fill="#000000"><tspan
       id="tspan4089-7-2-9-9"
       y="-1179.9841"
       x="345.7626" /></text>
  <text
     id="text4087-2-6-5-7-1"
     opacity=".8"
     font-size="12.666px"
     xml:space="preserve"
     y="-553.29272"
     x="1831.8861"
     font-family="'Bitstream Vera Sans'"
     fill="#000000"><tspan
       id="tspan4089-7-2-9-1-8"
       y="-553.29272"
       x="1831.8861" /></text>
  <text
     id="text4087-2-6-5-5-5"
     opacity=".8"
     font-size="12.666px"
     xml:space="preserve"
     y="-594.03448"
     x="1855.8469"
     font-family="'Bitstream Vera Sans'"
     fill="#000000"><tspan
       id="tspan4089-7-2-9-6-9"
       y="-594.03448"
       x="1855.8469" /></text>
  <text
     id="text4087-2-6-5-75"
     opacity=".8"
     font-size="12.666px"
     xml:space="preserve"
     y="-601.24438"
     x="364.38376"
     font-family="'Bitstream Vera Sans'"
     fill="#000000"><tspan
       id="tspan4089-7-2-9-3"
       y="-601.24438"
       x="364.38376" /></text>
  <text
     id="text4087-2-6-5-4-8"
     opacity=".8"
     font-size="12.666px"
     xml:space="preserve"
     y="-874.47839"
     x="1824.9266"
     font-family="'Bitstream Vera Sans'"
     fill="#000000"><tspan
       id="tspan4089-7-2-9-9-8"
       y="-874.47839"
       x="1824.9266" /></text>
  <text
     id="text4087-2-6-5-45"
     opacity=".8"
     font-size="12.666px"
     xml:space="preserve"
     y="-649.33569"
     x="-573.43256"
     font-family="'Bitstream Vera Sans'"
     fill="#000000"><tspan
       id="tspan4089-7-2-9-75"
       y="-649.33569"
       x="-573.43256" /></text>
  <text
     id="text4087-2-6-5-59-7"
     opacity=".8"
     font-size="12.666px"
     xml:space="preserve"
     y="96.217857"
     x="-2397.1182"
     font-family="'Bitstream Vera Sans'"
     fill="#000000"><tspan
       id="tspan4089-7-2-9-4-0"
       y="96.217857"
       x="-2397.1182" /></text>
  <text
     id="text4087-2-6-5-8"
     opacity=".8"
     font-size="12.666px"
     xml:space="preserve"
     y="189.09"
     x="-682.36279"
     font-family="'Bitstream Vera Sans'"
     fill="#000000"><tspan
       id="tspan4089-7-2-9-19"
       y="189.09"
       x="-682.36279" /></text>
  <text
     id="text4087-2-6-5-7-5"
     opacity=".8"
     font-size="12.666px"
     xml:space="preserve"
     y="9.9078522"
     x="426.66153"
     font-family="'Bitstream Vera Sans'"
     fill="#000000"><tspan
       id="tspan4089-7-2-9-1-2"
       y="9.9078522"
       x="426.66153" /></text>
  <text
     id="text4087-2-6-5-5-0"
     opacity=".8"
     font-size="12.666px"
     xml:space="preserve"
     y="-30.833855"
     x="450.62247"
     font-family="'Bitstream Vera Sans'"
     fill="#000000"><tspan
       id="tspan4089-7-2-9-6-2"
       y="-30.833855"
       x="450.62247" /></text>
  <text
     id="text4087-2-6-5-26"
     opacity=".8"
     font-size="12.666px"
     xml:space="preserve"
     y="-38.043827"
     x="-1040.8407"
     font-family="'Bitstream Vera Sans'"
     fill="#000000"><tspan
       id="tspan4089-7-2-9-90"
       y="-38.043827"
       x="-1040.8407" /></text>
  <text
     id="text4087-2-6-5-4-3"
     opacity=".8"
     font-size="12.666px"
     xml:space="preserve"
     y="-311.27789"
     x="419.70206"
     font-family="'Bitstream Vera Sans'"
     fill="#000000"><tspan
       id="tspan4089-7-2-9-9-5"
       y="-311.27789"
       x="419.70206" /></text>
  <text
     id="text4087-2-6-5-55"
     opacity=".8"
     font-size="12.666px"
     xml:space="preserve"
     y="-40.758072"
     x="-608.03253"
     font-family="'Bitstream Vera Sans'"
     fill="#000000"><tspan
       id="tspan4089-7-2-9-32"
       y="-40.758072"
       x="-608.03253" /></text>
  <text
     id="text4087-2-6-5-59-9"
     opacity=".8"
     font-size="12.666px"
     xml:space="preserve"
     y="704.79541"
     x="-2431.7185"
     font-family="'Bitstream Vera Sans'"
     fill="#000000"><tspan
       id="tspan4089-7-2-9-4-1"
       y="704.79541"
       x="-2431.7185" /></text>
  <text
     id="text4087-2-6-5-1-8"
     opacity=".8"
     font-size="12.666px"
     xml:space="preserve"
     y="-902.28857"
     x="-456.93948"
     font-family="'Bitstream Vera Sans'"
     fill="#000000"><tspan
       id="tspan4089-7-2-9-7-8"
       y="-902.28857"
       x="-456.93948" /></text>
  <text
     id="text4087-2-6-5-7-8"
     opacity=".8"
     font-size="12.666px"
     xml:space="preserve"
     y="-1315.7588"
     x="350.66266"
     font-family="'Bitstream Vera Sans'"
     fill="#000000"><tspan
       id="tspan4089-7-2-9-1-9"
       y="-1315.7588"
       x="350.66266" /></text>
  <text
     id="text4087-2-6-5-5-52"
     opacity=".8"
     font-size="12.666px"
     xml:space="preserve"
     y="-1356.5005"
     x="374.62357"
     font-family="'Bitstream Vera Sans'"
     fill="#000000"><tspan
       id="tspan4089-7-2-9-6-4"
       y="-1356.5005"
       x="374.62357" /></text>
  <text
     id="text4087-2-6-5-3-4"
     opacity=".8"
     font-size="12.666px"
     xml:space="preserve"
     y="-1363.7104"
     x="-1116.8396"
     font-family="'Bitstream Vera Sans'"
     fill="#000000"><tspan
       id="tspan4089-7-2-9-18-3"
       y="-1363.7104"
       x="-1116.8396" /></text>
  <text
     id="text4087-2-6-5-4-7"
     opacity=".8"
     font-size="12.666px"
     xml:space="preserve"
     y="-1636.9446"
     x="343.70316"
     font-family="'Bitstream Vera Sans'"
     fill="#000000"><tspan
       id="tspan4089-7-2-9-9-54"
       y="-1636.9446"
       x="343.70316" /></text>
  <text
     id="text4087-2-6-5-7-1-2"
     opacity=".8"
     font-size="12.666px"
     xml:space="preserve"
     y="-1010.2533"
     x="1829.8265"
     font-family="'Bitstream Vera Sans'"
     fill="#000000"><tspan
       id="tspan4089-7-2-9-1-8-0"
       y="-1010.2533"
       x="1829.8265" /></text>
  <text
     id="text4087-2-6-5-5-5-6"
     opacity=".8"
     font-size="12.666px"
     xml:space="preserve"
     y="-1050.9949"
     x="1853.7874"
     font-family="'Bitstream Vera Sans'"
     fill="#000000"><tspan
       id="tspan4089-7-2-9-6-9-8"
       y="-1050.9949"
       x="1853.7874" /></text>
  <text
     id="text4087-2-6-5-75-4"
     opacity=".8"
     font-size="12.666px"
     xml:space="preserve"
     y="-1058.2048"
     x="362.32431"
     font-family="'Bitstream Vera Sans'"
     fill="#000000"><tspan
       id="tspan4089-7-2-9-3-9"
       y="-1058.2048"
       x="362.32431" /></text>
  <text
     id="text4087-2-6-5-4-8-1"
     opacity=".8"
     font-size="12.666px"
     xml:space="preserve"
     y="-1331.439"
     x="1822.8671"
     font-family="'Bitstream Vera Sans'"
     fill="#000000"><tspan
       id="tspan4089-7-2-9-9-8-8"
       y="-1331.439"
       x="1822.8671" /></text>
  <text
     id="text4087-2-6-5-45-0"
     opacity=".8"
     font-size="12.666px"
     xml:space="preserve"
     y="-1106.2961"
     x="-575.492"
     font-family="'Bitstream Vera Sans'"
     fill="#000000"><tspan
       id="tspan4089-7-2-9-75-2"
       y="-1106.2961"
       x="-575.492" /></text>
  <text
     id="text4087-2-6-5-59-5"
     opacity=".8"
     font-size="12.666px"
     xml:space="preserve"
     y="-360.74261"
     x="-2399.1777"
     font-family="'Bitstream Vera Sans'"
     fill="#000000"><tspan
       id="tspan4089-7-2-9-4-00"
       y="-360.74261"
       x="-2399.1777" /></text>
  <text
     id="text4087-2-6-5-264"
     opacity=".8"
     font-size="12.666px"
     xml:space="preserve"
     y="-267.87045"
     x="-684.42224"
     font-family="'Bitstream Vera Sans'"
     fill="#000000"><tspan
       id="tspan4089-7-2-9-8"
       y="-267.87045"
       x="-684.42224" /></text>
  <text
     id="text4087-2-6-5-42"
     opacity=".8"
     font-size="12.666px"
     xml:space="preserve"
     y="-26.956278"
     x="155.5923"
     font-family="'Bitstream Vera Sans'"
     fill="#000000"><tspan
       id="tspan4089-7-2-9-93"
       y="-26.956278"
       x="155.5923" /></text>
  <text
     id="text4087-2-6-5-5-05"
     opacity=".8"
     font-size="12.666px"
     xml:space="preserve"
     y="-67.697998"
     x="179.55324"
     font-family="'Bitstream Vera Sans'"
     fill="#000000"><tspan
       id="tspan4089-7-2-9-6-49"
       y="-67.697998"
       x="179.55324" /></text>
  <text
     id="text4087-2-6-5-1-4"
     opacity=".8"
     font-size="12.666px"
     xml:space="preserve"
     y="-261.72662"
     x="-1090.2634"
     font-family="'Bitstream Vera Sans'"
     fill="#000000"><tspan
       id="tspan4089-7-2-9-7-7"
       y="-261.72662"
       x="-1090.2634" /></text>
  <text
     id="text4087-2-6-5-7-56"
     opacity=".8"
     font-size="12.666px"
     xml:space="preserve"
     y="-675.19678"
     x="-282.66141"
     font-family="'Bitstream Vera Sans'"
     fill="#000000"><tspan
       id="tspan4089-7-2-9-1-1"
       y="-675.19678"
       x="-282.66141" /></text>
  <text
     id="text4087-2-6-5-5-8"
     opacity=".8"
     font-size="12.666px"
     xml:space="preserve"
     y="-715.93848"
     x="-258.70047"
     font-family="'Bitstream Vera Sans'"
     fill="#000000"><tspan
       id="tspan4089-7-2-9-6-7"
       y="-715.93848"
       x="-258.70047" /></text>
  <text
     id="text4087-2-6-5-3-42"
     opacity=".8"
     font-size="12.666px"
     xml:space="preserve"
     y="-723.14838"
     x="-1750.1636"
     font-family="'Bitstream Vera Sans'"
     fill="#000000"><tspan
       id="tspan4089-7-2-9-18-39"
       y="-723.14838"
       x="-1750.1636" /></text>
  <text
     id="text4087-2-6-5-4-4"
     opacity=".8"
     font-size="12.666px"
     xml:space="preserve"
     y="-996.38251"
     x="-289.62085"
     font-family="'Bitstream Vera Sans'"
     fill="#000000"><tspan
       id="tspan4089-7-2-9-9-3"
       y="-996.38251"
       x="-289.62085" /></text>
  <text
     id="text4087-2-6-5-7-1-0"
     opacity=".8"
     font-size="12.666px"
     xml:space="preserve"
     y="-369.69113"
     x="1196.5026"
     font-family="'Bitstream Vera Sans'"
     fill="#000000"><tspan
       id="tspan4089-7-2-9-1-8-5"
       y="-369.69113"
       x="1196.5026" /></text>
  <text
     id="text4087-2-6-5-5-5-5"
     opacity=".8"
     font-size="12.666px"
     xml:space="preserve"
     y="-410.43286"
     x="1220.4634"
     font-family="'Bitstream Vera Sans'"
     fill="#000000"><tspan
       id="tspan4089-7-2-9-6-9-2"
       y="-410.43286"
       x="1220.4634" /></text>
  <text
     id="text4087-2-6-5-75-9"
     opacity=".8"
     font-size="12.666px"
     xml:space="preserve"
     y="-417.64282"
     x="-270.99973"
     font-family="'Bitstream Vera Sans'"
     fill="#000000"><tspan
       id="tspan4089-7-2-9-3-1"
       y="-417.64282"
       x="-270.99973" /></text>
  <text
     id="text4087-2-6-5-4-8-18"
     opacity=".8"
     font-size="12.666px"
     xml:space="preserve"
     y="-690.87689"
     x="1189.5431"
     font-family="'Bitstream Vera Sans'"
     fill="#000000"><tspan
       id="tspan4089-7-2-9-9-8-4"
       y="-690.87689"
       x="1189.5431" /></text>
  <text
     id="text4087-2-6-5-45-3"
     opacity=".8"
     font-size="12.666px"
     xml:space="preserve"
     y="-465.7341"
     x="-1208.816"
     font-family="'Bitstream Vera Sans'"
     fill="#000000"><tspan
       id="tspan4089-7-2-9-75-7"
       y="-465.7341"
       x="-1208.816" /></text>
  <text
     id="text4087-2-6-5-59-8"
     opacity=".8"
     font-size="12.666px"
     xml:space="preserve"
     y="279.81946"
     x="-3032.5017"
     font-family="'Bitstream Vera Sans'"
     fill="#000000"><tspan
       id="tspan4089-7-2-9-4-2"
       y="279.81946"
       x="-3032.5017" /></text>
  <g
     id="layer4-0"
     transform="matrix(.90475 0 0 .90475 -716.75 -676.29)">
    <text
       id="text4087-2-6-5-20"
       opacity=".8"
       font-size="14px"
       xml:space="preserve"
       y="1159.4154"
       x="-664.2738"
       font-family="'Bitstream Vera Sans'"
       fill="#000000"><tspan
         id="tspan4089-7-2-9-82"
         y="1159.4154"
         x="-664.2738" /></text>
  </g>
  <text
     id="text4087-2-6-5-9"
     opacity=".8"
     font-size="12.666px"
     xml:space="preserve"
     y="18.050589"
     x="877.22626"
     font-family="'Bitstream Vera Sans'"
     fill="#000000"><tspan
       id="tspan4089-7-2-9-43"
       y="18.050589"
       x="877.22626" /></text>
  <text
     id="text4087-2-6-5-5-51"
     opacity=".8"
     font-size="12.666px"
     xml:space="preserve"
     y="-22.691116"
     x="901.18719"
     font-family="'Bitstream Vera Sans'"
     fill="#000000"><tspan
       id="tspan4089-7-2-9-6-74"
       y="-22.691116"
       x="901.18719" /></text>
  <text
     id="text4087-2-6-5-2-3"
     opacity=".8"
     font-size="12.666px"
     xml:space="preserve"
     y="-52.76926"
     x="-569.37115"
     font-family="'Bitstream Vera Sans'"
     fill="#000000"><tspan
       id="tspan4089-7-2-9-2-1"
       y="-52.76926"
       x="-569.37115" /></text>
  <text
     id="text4087-2-6-5-59-4"
     opacity=".8"
     font-size="12.666px"
     xml:space="preserve"
     y="692.78418"
     x="-2393.0571"
     font-family="'Bitstream Vera Sans'"
     fill="#000000"><tspan
       id="tspan4089-7-2-9-4-6"
       y="692.78418"
       x="-2393.0571" /></text>
  <text
     id="text4087-2-6-5-1-9"
     opacity=".8"
     font-size="12.666px"
     xml:space="preserve"
     y="-438.09021"
     x="-454.88007"
     font-family="'Bitstream Vera Sans'"
     fill="#000000"><tspan
       id="tspan4089-7-2-9-7-4"
       y="-438.09021"
       x="-454.88007" /></text>
  <text
     id="text4087-2-6-5-7-2"
     opacity=".8"
     font-size="12.666px"
     xml:space="preserve"
     y="-851.5603"
     x="352.72208"
     font-family="'Bitstream Vera Sans'"
     fill="#000000"><tspan
       id="tspan4089-7-2-9-1-26"
       y="-851.5603"
       x="352.72208" /></text>
  <text
     id="text4087-2-6-5-5-3-4"
     opacity=".8"
     font-size="12.666px"
     xml:space="preserve"
     y="-892.30206"
     x="376.68301"
     font-family="'Bitstream Vera Sans'"
     fill="#000000"><tspan
       id="tspan4089-7-2-9-6-5-1"
       y="-892.30206"
       x="376.68301" /></text>
  <text
     id="text4087-2-6-5-3-2"
     opacity=".8"
     font-size="12.666px"
     xml:space="preserve"
     y="-899.51196"
     x="-1114.7802"
     font-family="'Bitstream Vera Sans'"
     fill="#000000"><tspan
       id="tspan4089-7-2-9-18-8"
       y="-899.51196"
       x="-1114.7802" /></text>
  <text
     id="text4087-2-6-5-4-89"
     opacity=".8"
     font-size="12.666px"
     xml:space="preserve"
     y="-1172.7461"
     x="345.7626"
     font-family="'Bitstream Vera Sans'"
     fill="#000000"><tspan
       id="tspan4089-7-2-9-9-2"
       y="-1172.7461"
       x="345.7626" /></text>
  <text
     id="text4087-2-6-5-7-1-8"
     opacity=".8"
     font-size="12.666px"
     xml:space="preserve"
     y="-546.05475"
     x="1831.8861"
     font-family="'Bitstream Vera Sans'"
     fill="#000000"><tspan
       id="tspan4089-7-2-9-1-8-8"
       y="-546.05475"
       x="1831.8861" /></text>
  <text
     id="text4087-2-6-5-5-5-8"
     opacity=".8"
     font-size="12.666px"
     xml:space="preserve"
     y="-586.79651"
     x="1855.8469"
     font-family="'Bitstream Vera Sans'"
     fill="#000000"><tspan
       id="tspan4089-7-2-9-6-9-6"
       y="-586.79651"
       x="1855.8469" /></text>
  <text
     id="text4087-2-6-5-75-8"
     opacity=".8"
     font-size="12.666px"
     xml:space="preserve"
     y="-594.00641"
     x="364.38376"
     font-family="'Bitstream Vera Sans'"
     fill="#000000"><tspan
       id="tspan4089-7-2-9-3-3"
       y="-594.00641"
       x="364.38376" /></text>
  <text
     id="text4087-2-6-5-4-8-8"
     opacity=".8"
     font-size="12.666px"
     xml:space="preserve"
     y="-867.24036"
     x="1824.9266"
     font-family="'Bitstream Vera Sans'"
     fill="#000000"><tspan
       id="tspan4089-7-2-9-9-8-3"
       y="-867.24036"
       x="1824.9266" /></text>
  <text
     id="text4087-2-6-5-45-33"
     opacity=".8"
     font-size="12.666px"
     xml:space="preserve"
     y="-642.09772"
     x="-573.43256"
     font-family="'Bitstream Vera Sans'"
     fill="#000000"><tspan
       id="tspan4089-7-2-9-75-8"
       y="-642.09772"
       x="-573.43256" /></text>
  <text
     id="text4087-2-6-5-59-7-0"
     opacity=".8"
     font-size="12.666px"
     xml:space="preserve"
     y="103.45585"
     x="-2397.1182"
     font-family="'Bitstream Vera Sans'"
     fill="#000000"><tspan
       id="tspan4089-7-2-9-4-0-4"
       y="103.45585"
       x="-2397.1182" /></text>
  <text
     id="text4087-2-6-5-8-7"
     opacity=".8"
     font-size="12.666px"
     xml:space="preserve"
     y="196.32799"
     x="-682.36279"
     font-family="'Bitstream Vera Sans'"
     fill="#000000"><tspan
       id="tspan4089-7-2-9-19-6"
       y="196.32799"
       x="-682.36279" /></text>
  <text
     id="text4087-2-6-5-7-5-8"
     opacity=".8"
     font-size="12.666px"
     xml:space="preserve"
     y="17.14584"
     x="426.66153"
     font-family="'Bitstream Vera Sans'"
     fill="#000000"><tspan
       id="tspan4089-7-2-9-1-2-9"
       y="17.14584"
       x="426.66153" /></text>
  <text
     id="text4087-2-6-5-5-0-0"
     opacity=".8"
     font-size="12.666px"
     xml:space="preserve"
     y="-23.595865"
     x="450.62247"
     font-family="'Bitstream Vera Sans'"
     fill="#000000"><tspan
       id="tspan4089-7-2-9-6-2-6"
       y="-23.595865"
       x="450.62247" /></text>
  <text
     id="text4087-2-6-5-26-8"
     opacity=".8"
     font-size="12.666px"
     xml:space="preserve"
     y="-30.805836"
     x="-1040.8407"
     font-family="'Bitstream Vera Sans'"
     fill="#000000"><tspan
       id="tspan4089-7-2-9-90-7"
       y="-30.805836"
       x="-1040.8407" /></text>
  <text
     id="text4087-2-6-5-4-3-9"
     opacity=".8"
     font-size="12.666px"
     xml:space="preserve"
     y="-304.03989"
     x="419.70206"
     font-family="'Bitstream Vera Sans'"
     fill="#000000"><tspan
       id="tspan4089-7-2-9-9-5-0"
       y="-304.03989"
       x="419.70206" /></text>
  <text
     id="text4087-2-6-5-55-3"
     opacity=".8"
     font-size="12.666px"
     xml:space="preserve"
     y="-33.520081"
     x="-608.03253"
     font-family="'Bitstream Vera Sans'"
     fill="#000000"><tspan
       id="tspan4089-7-2-9-32-3"
       y="-33.520081"
       x="-608.03253" /></text>
  <text
     id="text4087-2-6-5-59-9-3"
     opacity=".8"
     font-size="12.666px"
     xml:space="preserve"
     y="712.03345"
     x="-2431.7185"
     font-family="'Bitstream Vera Sans'"
     fill="#000000"><tspan
       id="tspan4089-7-2-9-4-1-7"
       y="712.03345"
       x="-2431.7185" /></text>
  <text
     id="text4087-2-6-5-1-8-3"
     opacity=".8"
     font-size="12.666px"
     xml:space="preserve"
     y="-895.0506"
     x="-456.93948"
     font-family="'Bitstream Vera Sans'"
     fill="#000000"><tspan
       id="tspan4089-7-2-9-7-8-2"
       y="-895.0506"
       x="-456.93948" /></text>
  <text
     id="text4087-2-6-5-7-8-6"
     opacity=".8"
     font-size="12.666px"
     xml:space="preserve"
     y="-1308.5208"
     x="350.66266"
     font-family="'Bitstream Vera Sans'"
     fill="#000000"><tspan
       id="tspan4089-7-2-9-1-9-5"
       y="-1308.5208"
       x="350.66266" /></text>
  <text
     id="text4087-2-6-5-5-52-2"
     opacity=".8"
     font-size="12.666px"
     xml:space="preserve"
     y="-1349.2626"
     x="374.62357"
     font-family="'Bitstream Vera Sans'"
     fill="#000000"><tspan
       id="tspan4089-7-2-9-6-4-6"
       y="-1349.2626"
       x="374.62357" /></text>
  <text
     id="text4087-2-6-5-3-4-5"
     opacity=".8"
     font-size="12.666px"
     xml:space="preserve"
     y="-1356.4724"
     x="-1116.8396"
     font-family="'Bitstream Vera Sans'"
     fill="#000000"><tspan
       id="tspan4089-7-2-9-18-3-8"
       y="-1356.4724"
       x="-1116.8396" /></text>
  <text
     id="text4087-2-6-5-4-7-7"
     opacity=".8"
     font-size="12.666px"
     xml:space="preserve"
     y="-1629.7065"
     x="343.70316"
     font-family="'Bitstream Vera Sans'"
     fill="#000000"><tspan
       id="tspan4089-7-2-9-9-54-9"
       y="-1629.7065"
       x="343.70316" /></text>
  <text
     id="text4087-2-6-5-7-1-2-6"
     opacity=".8"
     font-size="12.666px"
     xml:space="preserve"
     y="-1003.0153"
     x="1829.8265"
     font-family="'Bitstream Vera Sans'"
     fill="#000000"><tspan
       id="tspan4089-7-2-9-1-8-0-0"
       y="-1003.0153"
       x="1829.8265" /></text>
  <text
     id="text4087-2-6-5-5-5-6-4"
     opacity=".8"
     font-size="12.666px"
     xml:space="preserve"
     y="-1043.757"
     x="1853.7874"
     font-family="'Bitstream Vera Sans'"
     fill="#000000"><tspan
       id="tspan4089-7-2-9-6-9-8-1"
       y="-1043.757"
       x="1853.7874" /></text>
  <text
     id="text4087-2-6-5-75-4-0"
     opacity=".8"
     font-size="12.666px"
     xml:space="preserve"
     y="-1050.9668"
     x="362.32431"
     font-family="'Bitstream Vera Sans'"
     fill="#000000"><tspan
       id="tspan4089-7-2-9-3-9-4"
       y="-1050.9668"
       x="362.32431" /></text>
  <text
     id="text4087-2-6-5-4-8-1-8"
     opacity=".8"
     font-size="12.666px"
     xml:space="preserve"
     y="-1324.2009"
     x="1822.8671"
     font-family="'Bitstream Vera Sans'"
     fill="#000000"><tspan
       id="tspan4089-7-2-9-9-8-8-7"
       y="-1324.2009"
       x="1822.8671" /></text>
  <text
     id="text4087-2-6-5-45-0-0"
     opacity=".8"
     font-size="12.666px"
     xml:space="preserve"
     y="-1099.0581"
     x="-575.492"
     font-family="'Bitstream Vera Sans'"
     fill="#000000"><tspan
       id="tspan4089-7-2-9-75-2-8"
       y="-1099.0581"
       x="-575.492" /></text>
  <text
     id="text4087-2-6-5-59-5-6"
     opacity=".8"
     font-size="12.666px"
     xml:space="preserve"
     y="-353.50461"
     x="-2399.1777"
     font-family="'Bitstream Vera Sans'"
     fill="#000000"><tspan
       id="tspan4089-7-2-9-4-00-2"
       y="-353.50461"
       x="-2399.1777" /></text>
  <text
     id="text4087-2-6-5-264-4"
     opacity=".8"
     font-size="12.666px"
     xml:space="preserve"
     y="-260.63245"
     x="-684.42224"
     font-family="'Bitstream Vera Sans'"
     fill="#000000"><tspan
       id="tspan4089-7-2-9-8-7"
       y="-260.63245"
       x="-684.42224" /></text>
  <text
     id="text4087-2-6-5-42-9"
     opacity=".8"
     font-size="12.666px"
     xml:space="preserve"
     y="-19.71829"
     x="155.5923"
     font-family="'Bitstream Vera Sans'"
     fill="#000000"><tspan
       id="tspan4089-7-2-9-93-3"
       y="-19.71829"
       x="155.5923" /></text>
  <text
     id="text4087-2-6-5-5-05-9"
     opacity=".8"
     font-size="12.666px"
     xml:space="preserve"
     y="-60.460011"
     x="179.55324"
     font-family="'Bitstream Vera Sans'"
     fill="#000000"><tspan
       id="tspan4089-7-2-9-6-49-2"
       y="-60.460011"
       x="179.55324" /></text>
  <text
     id="text4087-2-6-5-1-4-8"
     opacity=".8"
     font-size="12.666px"
     xml:space="preserve"
     y="-254.4886"
     x="-1090.2634"
     font-family="'Bitstream Vera Sans'"
     fill="#000000"><tspan
       id="tspan4089-7-2-9-7-7-3"
       y="-254.4886"
       x="-1090.2634" /></text>
  <text
     id="text4087-2-6-5-7-56-0"
     opacity=".8"
     font-size="12.666px"
     xml:space="preserve"
     y="-667.9588"
     x="-282.66141"
     font-family="'Bitstream Vera Sans'"
     fill="#000000"><tspan
       id="tspan4089-7-2-9-1-1-1"
       y="-667.9588"
       x="-282.66141" /></text>
  <text
     id="text4087-2-6-5-5-8-7"
     opacity=".8"
     font-size="12.666px"
     xml:space="preserve"
     y="-708.7005"
     x="-258.70047"
     font-family="'Bitstream Vera Sans'"
     fill="#000000"><tspan
       id="tspan4089-7-2-9-6-7-8"
       y="-708.7005"
       x="-258.70047" /></text>
  <text
     id="text4087-2-6-5-3-42-9"
     opacity=".8"
     font-size="12.666px"
     xml:space="preserve"
     y="-715.91046"
     x="-1750.1636"
     font-family="'Bitstream Vera Sans'"
     fill="#000000"><tspan
       id="tspan4089-7-2-9-18-39-1"
       y="-715.91046"
       x="-1750.1636" /></text>
  <text
     id="text4087-2-6-5-4-4-5"
     opacity=".8"
     font-size="12.666px"
     xml:space="preserve"
     y="-989.14447"
     x="-289.62085"
     font-family="'Bitstream Vera Sans'"
     fill="#000000"><tspan
       id="tspan4089-7-2-9-9-3-4"
       y="-989.14447"
       x="-289.62085" /></text>
  <text
     id="text4087-2-6-5-7-1-0-9"
     opacity=".8"
     font-size="12.666px"
     xml:space="preserve"
     y="-362.45316"
     x="1196.5026"
     font-family="'Bitstream Vera Sans'"
     fill="#000000"><tspan
       id="tspan4089-7-2-9-1-8-5-2"
       y="-362.45316"
       x="1196.5026" /></text>
  <text
     id="text4087-2-6-5-5-5-5-5"
     opacity=".8"
     font-size="12.666px"
     xml:space="preserve"
     y="-403.19489"
     x="1220.4634"
     font-family="'Bitstream Vera Sans'"
     fill="#000000"><tspan
       id="tspan4089-7-2-9-6-9-2-7"
       y="-403.19489"
       x="1220.4634" /></text>
  <text
     id="text4087-2-6-5-75-9-4"
     opacity=".8"
     font-size="12.666px"
     xml:space="preserve"
     y="-410.40482"
     x="-270.99973"
     font-family="'Bitstream Vera Sans'"
     fill="#000000"><tspan
       id="tspan4089-7-2-9-3-1-9"
       y="-410.40482"
       x="-270.99973" /></text>
  <text
     id="text4087-2-6-5-4-8-18-9"
     opacity=".8"
     font-size="12.666px"
     xml:space="preserve"
     y="-683.63892"
     x="1189.5431"
     font-family="'Bitstream Vera Sans'"
     fill="#000000"><tspan
       id="tspan4089-7-2-9-9-8-4-4"
       y="-683.63892"
       x="1189.5431" /></text>
  <text
     id="text4087-2-6-5-45-3-5"
     opacity=".8"
     font-size="12.666px"
     xml:space="preserve"
     y="-458.49609"
     x="-1208.816"
     font-family="'Bitstream Vera Sans'"
     fill="#000000"><tspan
       id="tspan4089-7-2-9-75-7-9"
       y="-458.49609"
       x="-1208.816" /></text>
  <text
     id="text4087-2-6-5-59-8-3"
     opacity=".8"
     font-size="12.666px"
     xml:space="preserve"
     y="287.05743"
     x="-3032.5017"
     font-family="'Bitstream Vera Sans'"
     fill="#000000"><tspan
       id="tspan4089-7-2-9-4-2-5"
       y="287.05743"
       x="-3032.5017" /></text>
  <g
     id="layer4-0-7"
     transform="matrix(.90475 0 0 .90475 -716.75 -669.05)">
    <text
       id="text4087-2-6-5-20-0"
       opacity=".8"
       font-size="14px"
       xml:space="preserve"
       y="1159.4154"
       x="-664.2738"
       font-family="'Bitstream Vera Sans'"
       fill="#000000"><tspan
         id="tspan4089-7-2-9-82-8"
         y="1159.4154"
         x="-664.2738" /></text>
  </g>
  <text
     id="text7276"
     font-size="12.666px"
     xml:space="preserve"
     y="-361.22546"
     x="435.90427"
     font-family="'Droid Sans'"
     fill="#000000"><tspan
       id="tspan7278"
       y="-361.22546"
       x="435.90427" /><tspan
       id="tspan7280"
       y="-345.3924"
       x="435.90427" /></text>
  <text
     id="text4087-2-6-5-51"
     opacity=".8"
     font-size="12.666px"
     xml:space="preserve"
     y="-843.27002"
     x="901.0882"
     font-family="'Bitstream Vera Sans'"
     fill="#000000"><tspan
       id="tspan4089-7-2-9-97"
       y="-843.27002"
       x="901.0882" /></text>
  <text
     id="text4087-2-6-5-59-2"
     opacity=".8"
     font-size="12.666px"
     xml:space="preserve"
     y="-97.716553"
     x="-922.59778"
     font-family="'Bitstream Vera Sans'"
     fill="#000000"><tspan
       id="tspan4089-7-2-9-4-4"
       y="-97.716553"
       x="-922.59778" /></text>
  <text
     id="text4087-2-6-5-7-7"
     opacity=".8"
     font-size="12.666px"
     xml:space="preserve"
     y="-1128.2659"
     x="1628.1677"
     font-family="'Bitstream Vera Sans'"
     fill="#000000"><tspan
       id="tspan4089-7-2-9-1-6"
       y="-1128.2659"
       x="1628.1677" /></text>
  <text
     id="text4087-2-6-5-5-6"
     opacity=".8"
     font-size="12.666px"
     xml:space="preserve"
     y="-1169.0076"
     x="1652.1285"
     font-family="'Bitstream Vera Sans'"
     fill="#000000"><tspan
       id="tspan4089-7-2-9-6-53"
       y="-1169.0076"
       x="1652.1285" /></text>
  <text
     id="text4087-2-6-5-54"
     opacity=".8"
     font-size="12.666px"
     xml:space="preserve"
     y="-1176.2175"
     x="160.66542"
     font-family="'Bitstream Vera Sans'"
     fill="#000000"><tspan
       id="tspan4089-7-2-9-0"
       y="-1176.2175"
       x="160.66542" /></text>
  <text
     id="text4087-2-6-5-4-1"
     opacity=".8"
     font-size="12.666px"
     xml:space="preserve"
     y="-1449.4517"
     x="1621.2083"
     font-family="'Bitstream Vera Sans'"
     fill="#000000"><tspan
       id="tspan4089-7-2-9-9-28"
       y="-1449.4517"
       x="1621.2083" /></text>
  <path
     style="fill:#d2d2d2;fill-opacity:1"
     inkscape:connector-curvature="0"
     d="m 44.001,40 0,-32 c 0,-1.108 -0.892,-2 -2,-2 l -36,0 c -1.108,0 -2,0.892 -2,2 l 0,32 c 0,1.108 0.892,2 2,2 l 36,0 c 1.108,0 2,-0.892 2,-2 z"
     id="rect4203" />
  <path
     inkscape:connector-curvature="0"
     style="fill:#729fcf;fill-opacity:1;fill-rule:evenodd;stroke:none;stroke-width:1px;stroke-linecap:butt;stroke-linejoin:miter;stroke-opacity:1"
     d="m 14.901961,12.000016 -5.6470597,6.666662 c 0,0 1.8823547,-1.333331 2.5098047,-1.999998 0.627452,-0.666667 3.137255,-4.666664 3.137255,-4.666664 z m 2.509805,0 -3.285539,3.878903 c 0.316698,-0.49653 0.775734,-1.212238 0.775734,-1.212238 l -5.6470598,6.666662 c 0,0 0.9698068,-0.690227 1.7500008,-1.32552 l -1.1225498,1.32552 c 0,0 0.6891828,-0.494218 1.3737758,-1.028646 l -2.0012268,2.36198 c 0,0 0.9688078,-0.689231 1.7487758,-1.324219 l -1.1213248,1.324219 c 0,0 1.4740588,-1.05305 2.2389718,-1.755208 l -0.356618,0.421874 c 0,0 0.373537,-0.275094 0.665442,-0.489583 l -3.8026978,4.48958 c 0,0 0.969806,-0.690228 1.7500008,-1.325519 L 9.2549012,25.33334 c 0,0 0.470588,-0.333333 1.0196078,-0.749999 0.115722,-0.08783 0.232698,-0.183154 0.351718,-0.276041 l -1.9987768,2.359373 c 0,0 0.969806,-0.690228 1.7500008,-1.32552 l -1.1225498,1.32552 c 0,0 1.4740588,-1.053048 2.2389718,-1.755207 l -0.356617,0.421874 c 0,0 0.373536,-0.275092 0.665441,-0.489582 l -3.8026968,4.48958 c 0,0 1.882352,-1.333332 2.5098028,-1.999999 0.198432,-0.210832 0.597058,-0.78144 1.03309,-1.427082 0.23677,-0.179858 0.483508,-0.375048 0.716911,-0.565104 l -1.122548,1.32552 c 0,0 0.373536,-0.275094 0.665441,-0.489583 l -3.8026968,4.48958 c 0,0 1.474057,-1.053048 2.2389698,-1.755206 l -0.3566178,0.421874 c 0,0 0.4705888,-0.333333 1.0196098,-0.75 0.11572,-0.08783 0.232698,-0.183154 0.351715,-0.276041 L 9.2549012,30.66667 c 0,0 0.9698068,-0.690228 1.7500008,-1.32552 l -1.1225498,1.32552 c 0,0 0.9698078,-0.690228 1.7500018,-1.32552 l -1.122551,1.32552 c 0,0 1.477334,-1.055699 2.241424,-1.757811 l -0.359069,0.424479 c 0,0 0.689181,-0.494219 1.373774,-1.028645 l -2.001226,2.361977 c 0,0 0.464367,-0.329735 0.998775,-0.734374 l -2.8811288,3.401039 c 0,0 0.9698078,-0.690228 1.7500018,-1.32552 l -1.122551,1.32552 c 0,0 0.47059,-0.333332 1.019609,-0.75 0.115721,-0.08783 0.232699,-0.183154 0.351716,-0.276041 l -1.9987758,2.359374 c 0,0 0.9698078,-0.690229 1.7500018,-1.32552 l -1.122551,1.32552 c 0,0 1.474059,-1.053049 2.238972,-1.755207 l -0.356617,0.421874 c 0,0 0.470588,-0.333332 1.019607,-0.75 0.115721,-0.08783 0.232698,-0.183154 0.351717,-0.276041 l -1.998776,2.359374 c 0,0 0.969807,-0.690229 1.75,-1.32552 l -1.122548,1.32552 c 0,0 1.478782,-1.055714 2.242646,-1.757812 l -0.360293,0.424479 c 0,0 1.478782,-1.055713 2.242646,-1.757811 l -0.360294,0.424479 c 0,0 0.688414,-0.493342 1.372549,-1.027344 l -2,2.360676 c 0,0 0.968808,-0.689229 1.748775,-1.324218 l -1.121324,1.324218 c 0,0 0.969807,-0.690228 1.75,-1.32552 l -1.122549,1.32552 c 0,0 0.968807,-0.689229 1.748774,-1.324218 l -1.121322,1.324218 c 0,0 0.969806,-0.690228 1.749999,-1.32552 l -1.122549,1.32552 c 0,0 0.969807,-0.690228 1.75,-1.32552 l -1.122549,1.32552 c 0,0 0.969807,-0.690228 1.75,-1.32552 l -1.122548,1.32552 c 0,0 0.688218,-0.494462 1.372548,-1.028645 l -2,2.361978 c 0,0 0.969807,-0.690229 1.75,-1.32552 l -1.122548,1.32552 c 0,0 0.689181,-0.494219 1.373773,-1.028645 L 18.666667,36 c 0,0 0.969807,-0.690228 1.75,-1.32552 L 19.294119,36 c 0,0 1.474057,-1.053048 2.238969,-1.755206 l -0.356617,0.421874 c 0,0 0.470589,-0.333333 1.019609,-0.750001 0.11572,-0.08783 0.232698,-0.183153 0.351715,-0.27604 L 20.54902,36 c 0,0 0.969807,-0.690228 1.75,-1.32552 L 21.176471,36 c 0,0 1.478782,-1.055712 2.242648,-1.757812 l -0.360295,0.42448 c 0,0 1.882353,-1.333333 2.509804,-1.999999 0.114447,-0.121599 0.304115,-0.376888 0.517157,-0.675782 0.296174,-0.241889 0.565649,-0.474698 0.737745,-0.657551 0.114446,-0.121599 0.304115,-0.376887 0.517157,-0.67578 0.185953,-0.151871 0.322825,-0.280712 0.469362,-0.415365 l -0.359067,0.424479 c 0,0 0.373535,-0.275094 0.665439,-0.489582 l -3.802694,4.48958 c 0,0 0.968807,-0.68923 1.748774,-1.324218 l -1.121324,1.324218 c 0,0 0.968808,-0.68923 1.748774,-1.324218 l -1.121323,1.324218 c 0,0 0.470588,-0.333333 1.019608,-0.750001 0.115721,-0.08783 0.232698,-0.183153 0.351715,-0.27604 L 24.941177,36 c 0,0 0.969806,-0.690228 1.75,-1.32552 L 25.568628,36 c 0,0 1.474058,-1.053048 2.238969,-1.755206 l -0.356615,0.421874 c 0,0 0.470587,-0.333333 1.019606,-0.750001 0.11572,-0.08783 0.232698,-0.183153 0.351715,-0.27604 L 26.82353,36 c 0,0 0.969805,-0.690228 1.749999,-1.32552 L 27.450982,36 c 0,0 1.478781,-1.055712 2.242645,-1.757812 l -0.360294,0.42448 c 0,0 0.969807,-0.690229 1.75,-1.32552 l -1.122549,1.32552 c 0,0 0.968807,-0.68923 1.748774,-1.324218 l -1.121323,1.324218 c 0,0 0.968808,-0.68923 1.748775,-1.324218 l -1.121324,1.324218 c 0,0 0.969807,-0.690229 1.749999,-1.32552 l -1.122548,1.32552 c 0,0 0.969806,-0.690229 1.75,-1.32552 l -1.122548,1.32552 c 0,0 0.969806,-0.690229 1.749999,-1.32552 l -1.122549,1.32552 c 0,0 0.968808,-0.68923 1.748774,-1.324218 l -1.121323,1.324218 c 0,0 1.882353,-1.333333 2.509804,-1.999999 0.627451,-0.666666 3.137255,-4.666663 3.137255,-4.666663 l -2.686275,3.171872 c 0.934684,-1.388054 2.058824,-3.171872 2.058824,-3.171872 l -0.965686,1.139322 c 0.805625,-1.224832 1.593137,-2.472655 1.593137,-2.472655 l -0.964461,1.138021 C 39.213364,26.580344 40,25.33334 40,25.33334 l -3.285539,3.878904 c 0.316699,-0.496531 0.775735,-1.212238 0.775735,-1.212238 l -2.686275,3.171872 c 0.435257,-0.646379 0.71281,-1.068818 1.10049,-1.673176 0.380857,-0.302684 0.74465,-0.604991 0.958334,-0.83203 C 37.490196,28.000006 40,24.000008 40,24.000008 l -2.686274,3.171873 c 0.934682,-1.388055 2.058823,-3.171873 2.058823,-3.171873 l -0.965686,1.140625 C 39.212692,23.91552 40,22.666677 40,22.666677 l -1.639706,1.933591 c 0.09114,-0.144246 0.384804,-0.60026 0.384804,-0.60026 l -2.685049,3.169268 c 0.934388,-1.387753 2.057598,-3.169268 2.057598,-3.169268 l -0.107843,0.126301 c 0.717694,-1.100411 1.362745,-2.1263 1.362745,-2.1263 l -2.459559,2.902342 c 0.190753,-0.300627 0.577206,-0.902343 0.577206,-0.902343 l -2.685049,3.169268 c 0.434842,-0.645827 0.712046,-1.066933 1.099264,-1.670571 0.380857,-0.302683 0.74465,-0.604991 0.958334,-0.832031 C 37.490196,24.000008 40,20.000011 40,20.000011 l -2.686274,3.171872 c 0.934682,-1.388054 2.058823,-3.171872 2.058823,-3.171872 L 36.6875,23.169279 c 0.934389,-1.387754 2.057598,-3.169268 2.057598,-3.169268 l -2.686275,3.171872 c 0.934683,-1.388054 2.058824,-3.171872 2.058824,-3.171872 l -2.685049,3.169268 c 0.249637,-0.37076 0.489799,-0.72746 0.742647,-1.115884 0.0155,-0.0158 0.04581,-0.03826 0.06004,-0.05339 0.627452,-0.666666 3.137255,-4.666664 3.137255,-4.666664 l -2.6875,3.171873 c 0.934763,-1.388132 2.060051,-3.17187 2.060051,-3.17187 l -0.966912,1.141926 c 0.806178,-1.225594 1.594363,-2.47526 1.594363,-2.47526 l -2.682598,3.166664 c 0.934015,-1.387371 2.055147,-3.166664 2.055147,-3.166664 l -0.96446,1.138021 c 0.80528,-1.224346 1.591915,-2.47135 1.591915,-2.47135 l -2.6875,3.171872 c 0.934761,-1.388133 2.060049,-3.171872 2.060049,-3.171872 l -0.966912,1.141926 c 0.806178,-1.225593 1.594363,-2.475259 1.594363,-2.475259 l -2.682598,3.166666 c 0.934015,-1.387374 2.055147,-3.166667 2.055147,-3.166667 l -1.643383,1.938802 c 0.09265,-0.146641 0.388482,-0.605469 0.388482,-0.605469 l -2.686275,3.171872 c 0.934683,-1.388054 2.058823,-3.171872 2.058823,-3.171872 l -0.96446,1.13802 c 0.805276,-1.224349 1.591912,-2.471353 1.591912,-2.471353 l -1.643383,1.940104 c 0.09291,-0.147038 0.38848,-0.606771 0.38848,-0.606771 l -1.642157,1.938801 c 0.09248,-0.14637 0.387255,-0.605469 0.387255,-0.605469 l -0.963235,1.135417 c 0.804723,-1.223586 1.590687,-2.468749 1.590687,-2.468749 l -2.681373,3.162759 c 0.238565,-0.35441 0.478301,-0.707585 0.720588,-1.079427 0.705882,-1.083332 1.333333,-2.083332 1.333333,-2.083332 l -0.965686,1.139322 c 0.805625,-1.22483 1.593138,-2.472655 1.593138,-2.472655 l -1.643383,1.940104 c 0.09291,-0.147038 0.38848,-0.606771 0.38848,-0.606771 l -0.966911,1.141926 c 0.806177,-1.225593 1.594362,-2.475259 1.594362,-2.475259 l -1.639706,1.933593 c 0.09114,-0.144246 0.384805,-0.60026 0.384805,-0.60026 l -1.643384,1.938801 c 0.09265,-0.14664 0.388482,-0.605469 0.388482,-0.605469 l -3.28554,3.878905 c 0.316699,-0.496532 0.775735,-1.21224 0.775735,-1.21224 l -0.966912,1.141927 c 0.09945,-0.151185 0.181818,-0.271951 0.279412,-0.421874 0.0155,-0.0158 0.04581,-0.03826 0.06004,-0.05339 0.114262,-0.121402 0.303349,-0.376281 0.515933,-0.674479 0.296709,-0.242281 0.566614,-0.475725 0.73897,-0.658853 0.62745,-0.666667 3.137255,-4.666664 3.137255,-4.666664 l -1.643383,1.941404 c 0.09316,-0.147436 0.388483,-0.608071 0.388483,-0.608071 l -0.966912,1.140624 c 0.805973,-1.225311 1.594362,-2.473957 1.594362,-2.473957 l -2.687499,3.171873 c 0.934759,-1.388133 2.060049,-3.171873 2.060049,-3.171873 l -3.28554,3.878904 c 0.316699,-0.49653 0.775736,-1.212238 0.775736,-1.212238 l -0.964461,1.138021 c 0.80528,-1.224346 1.591916,-2.47135 1.591916,-2.47135 l -0.966912,1.140625 c 0.805973,-1.225313 1.594362,-2.473958 1.594362,-2.473958 l -1.639705,1.933593 c 0.09113,-0.144246 0.384804,-0.60026 0.384804,-0.60026 l -0.963236,1.135415 c 0.804724,-1.223584 1.590687,-2.468748 1.590687,-2.468748 l -2.683824,3.167967 c 0.23949,-0.355712 0.479699,-0.711175 0.723039,-1.084634 0.705882,-1.083333 1.333334,-2.083333 1.333334,-2.083333 l -1.643383,1.938802 c 0.09265,-0.146641 0.388481,-0.605469 0.388481,-0.605469 L 27.06372,16.60418 c 0.09223,-0.145972 0.387256,-0.604167 0.387256,-0.604167 l -0.968137,1.143229 c 0.09979,-0.151695 0.182711,-0.272744 0.280637,-0.423177 0.0155,-0.0158 0.04581,-0.03826 0.06004,-0.05339 0.627451,-0.666666 3.137254,-4.666663 3.137254,-4.666663 l -1.643382,1.9388 c 0.09266,-0.146639 0.388482,-0.605466 0.388482,-0.605466 l -1.643382,1.941404 c 0.09316,-0.147437 0.388481,-0.608072 0.388481,-0.608072 l -0.966912,1.140624 c 0.805982,-1.22531 1.59437,-2.473955 1.59437,-2.473955 l -1.643381,1.9388 c 0.09265,-0.146641 0.38848,-0.605469 0.38848,-0.605469 l -0.96078,1.132815 c 0.08718,-0.132575 0.169049,-0.251053 0.254902,-0.382812 0.705882,-1.083334 1.333334,-2.083333 1.333334,-2.083333 l -1.643383,1.938802 c 0.09265,-0.146641 0.38848,-0.605469 0.38848,-0.605469 l -0.963235,1.135415 c 0.804724,-1.223583 1.590686,-2.468748 1.590686,-2.468748 l -2.677696,3.158853 c 0.23769,-0.353175 0.475622,-0.705208 0.716911,-1.07552 0.705883,-1.083334 1.333334,-2.083333 1.333334,-2.083333 l -1.643382,1.938802 c 0.09265,-0.146641 0.38848,-0.605469 0.38848,-0.605469 l -1.643382,1.941405 c 0.09316,-0.147437 0.38848,-0.608073 0.38848,-0.608073 l -0.96446,1.138021 c 0.0884,-0.134403 0.171534,-0.254433 0.258578,-0.388021 0.01002,-0.01537 0.0084,-0.01461 0.01838,-0.02995 0.0155,-0.0158 0.04581,-0.03826 0.06004,-0.05339 0.627451,-0.666666 3.137254,-4.666664 3.137254,-4.666664 l -1.639705,1.933594 c 0.09114,-0.144246 0.384804,-0.60026 0.384804,-0.60026 l -1.639706,1.933591 c 0.09114,-0.144246 0.384804,-0.60026 0.384804,-0.60026 l -0.966912,1.140625 c 0.805974,-1.225311 1.594363,-2.473956 1.594363,-2.473956 l -2.6875,3.171872 c 0.93476,-1.388132 2.060049,-3.171872 2.060049,-3.171872 l -1.643383,1.938801 c 0.09265,-0.146641 0.388481,-0.60547 0.388481,-0.60547 l -1.639706,1.936198 c 0.09164,-0.145037 0.384803,-0.602865 0.384803,-0.602865 l -0.966911,1.140626 c 0.09925,-0.150888 0.182011,-0.270948 0.279411,-0.420575 0.0155,-0.0158 0.04581,-0.03826 0.06004,-0.05339 C 21.176449,16 23.686253,12.000003 23.686253,12.000003 l -1.643383,1.938801 c 0.09266,-0.14664 0.388483,-0.605466 0.388483,-0.605466 l -1.643383,1.9388 c 0.09265,-0.14664 0.388481,-0.605469 0.388481,-0.605469 l -1.643382,1.938802 c 0.09265,-0.146641 0.38848,-0.60547 0.38848,-0.60547 l -2.686264,3.171876 c 0.250095,-0.371403 0.490499,-0.729257 0.743872,-1.118488 0.0155,-0.0158 0.04581,-0.03826 0.06004,-0.05339 0.627452,-0.666666 3.137255,-4.666664 3.137255,-4.666664 l -1.643382,1.938801 c 0.09267,-0.146625 0.388496,-0.605453 0.388496,-0.605453 l -1.643382,1.941405 c 0.09316,-0.147437 0.388481,-0.608073 0.388481,-0.608073 l -0.966913,1.140625 c 0.09925,-0.150887 0.182012,-0.270947 0.279413,-0.420573 0.0155,-0.0158 0.04581,-0.03826 0.06004,-0.05339 0.627451,-0.666666 3.137255,-4.666663 3.137255,-4.666663 l -3.285539,3.878904 c 0.3167,-0.49653 0.775737,-1.212238 0.775737,-1.212238 l -1.643383,1.9388 c 0.09265,-0.146639 0.388481,-0.605468 0.388481,-0.605468 l -0.966912,1.141927 c 0.806178,-1.225592 1.594362,-2.475259 1.594362,-2.475259 l -0.966912,1.140624 c 0.805975,-1.225311 1.594364,-2.473956 1.594364,-2.473956 l -1.643383,1.938801 c 0.09265,-0.146641 0.388481,-0.605469 0.388481,-0.605469 l -4.465687,5.27083 c 0.373876,-0.527703 0.826512,-1.205314 1.268383,-1.884114 0.0155,-0.0158 0.04581,-0.03826 0.06004,-0.05339 0.114446,-0.121598 0.304114,-0.376887 0.517157,-0.67578 0.296173,-0.241891 0.565648,-0.474699 0.737744,-0.657551 0.627451,-0.666667 3.137255,-4.666665 3.137255,-4.666665 l -1.643383,1.938801 c 0.09266,-0.146641 0.388483,-0.605468 0.388483,-0.605468 l -1.639706,1.933593 c 0.09113,-0.144251 0.384804,-0.600266 0.384804,-0.600266 l -1.639705,1.936197 c 0.09163,-0.145037 0.384803,-0.602864 0.384803,-0.602864 l -0.966911,1.140624 c 0.09925,-0.150886 0.18201,-0.270945 0.279411,-0.420573 0.0155,-0.0158 0.04581,-0.03826 0.06004,-0.05339 C 14.901934,15.999997 17.411739,12 17.411739,12 Z m -2.509805,1.333332 -5.6470598,6.666663 c 0,0 1.8823548,-1.333333 2.5098048,-1.999999 0.627452,-0.666665 3.137255,-4.666664 3.137255,-4.666664 z m 5.134805,5.640622 -0.816178,0.963541 c 0.146663,-0.207003 0.309323,-0.446425 0.479168,-0.697916 0.111299,-0.08454 0.222796,-0.176493 0.33701,-0.265625 z m 2.13848,0.291667 -0.519608,0.613281 c 0.114226,-0.179088 0.19739,-0.307988 0.279411,-0.4375 0.113655,-0.08413 0.111872,-0.07862 0.240197,-0.175781 z m 12.216911,0.243488 -0.843137,0.996093 c 0.162678,-0.241584 0.323564,-0.481517 0.491421,-0.736978 0.08743,-0.06285 0.19716,-0.145536 0.351716,-0.259115 z m -12.855392,0.06641 -0.360294,0.424479 c 0,0 0.246529,-0.182337 0.333334,-0.244793 l -1.764707,2.083333 c 0.250095,-0.371404 0.490499,-0.729258 0.743873,-1.118489 0.0155,-0.0158 0.04581,-0.03826 0.06004,-0.05339 0.114261,-0.121404 0.303349,-0.376281 0.515931,-0.67448 0.186747,-0.15249 0.324782,-0.281522 0.471814,-0.416666 z m -8.02451,0.434894 -0.40196,0.473958 c 0.103262,-0.159731 0.109019,-0.170533 0.203431,-0.317708 0.0666,-0.05291 0.133893,-0.103636 0.198529,-0.15625 z m 6.27451,0 -0.40196,0.473958 c 0.103261,-0.159731 0.109018,-0.170533 0.203431,-0.317708 0.0666,-0.05291 0.133893,-0.103636 0.198529,-0.15625 z m 11.172794,0.588542 -0.519609,0.61328 c 0.114227,-0.179088 0.197391,-0.307987 0.279413,-0.437499 0.113655,-0.08413 0.111871,-0.07861 0.240196,-0.175781 z m -12.254901,0.244789 -0.841912,0.994791 c 0.162677,-0.241585 0.323564,-0.481518 0.491421,-0.736977 0.08708,-0.06259 0.196753,-0.144849 0.350491,-0.257814 z m 11.616421,0.06511 -0.360295,0.424479 c 0,0 0.245146,-0.181809 0.330882,-0.243489 l -0.719362,0.848958 c 0.09265,-0.146641 0.38848,-0.605469 0.38848,-0.605469 l -0.96446,1.13802 c 0.09857,-0.149868 0.180222,-0.269359 0.27696,-0.417968 0.0155,-0.0158 0.04581,-0.03826 0.06004,-0.05339 0.114262,-0.121402 0.303349,-0.37628 0.515933,-0.674477 0.186745,-0.152491 0.32478,-0.281523 0.471813,-0.416668 z m -6.140931,0.433594 -0.199755,0.236979 -0.199755,0.235677 c 0.102697,-0.158875 0.108309,-0.17003 0.202205,-0.316406 0.06633,-0.05271 0.132944,-0.103849 0.197305,-0.15625 z m -1.883579,0.0014 -0.401961,0.473957 c 0.103262,-0.159762 0.10902,-0.170565 0.203432,-0.317738 0.0666,-0.05291 0.133893,-0.103636 0.198529,-0.15625 z m 12.094362,0.833333 -0.840686,0.992187 c 0.161871,-0.240412 0.321981,-0.478944 0.488971,-0.733072 0.0871,-0.0626 0.197363,-0.145699 0.351715,-0.259115 z m -20.709557,2.669269 -0.833334,0.983072 c 0.160608,-0.238597 0.319711,-0.474574 0.485294,-0.726561 0.0862,-0.06197 0.195805,-0.144681 0.34804,-0.256511 z m 2.341911,3.162727 -1.121324,1.324218 c 0,0 0.246529,-0.182337 0.333333,-0.244791 l -1.764705,2.08333 c 0.675858,-1.003686 1.181527,-1.795591 1.562499,-2.397133 0.335015,-0.247967 0.614049,-0.459393 0.990197,-0.765624 z m 0.62745,0 -0.199754,0.236979 -0.19853,0.233072 c 0.101871,-0.157605 0.107793,-0.16853 0.200981,-0.313801 0.06633,-0.05271 0.132944,-0.103849 0.197303,-0.15625 z m 0.626226,0.0014 -0.401961,0.473956 c 0.103262,-0.159762 0.10902,-0.170565 0.203432,-0.317738 0.0666,-0.05291 0.133893,-0.103636 0.198529,-0.15625 z m -1.085784,0.835936 -0.833334,0.983073 c 0.160609,-0.238598 0.319713,-0.474575 0.485295,-0.726562 0.0862,-0.06196 0.195805,-0.14468 0.348039,-0.256511 z m 0.296569,0.243491 -0.0429,0.05208 c 0.0092,-0.01399 0.01776,-0.02637 0.02696,-0.04036 0.004,-0.0029 0.01181,-0.0088 0.01593,-0.01172 z m 15.221812,0.252603 -0.199754,0.23698 -0.19853,0.233071 c 0.101871,-0.157606 0.107792,-0.168529 0.200981,-0.313801 0.06633,-0.05271 0.132943,-0.103849 0.197303,-0.15625 z m 1.882353,0 -1.121322,1.324186 c 0,0 0.372901,-0.275541 0.664215,-0.489583 l -2.620099,3.093748 c 0.373876,-0.527702 0.826512,-1.205313 1.268384,-1.884113 0.0155,-0.0158 0.04581,-0.03826 0.06004,-0.05339 0.19843,-0.210833 0.597056,-0.781442 1.033087,-1.427082 0.236316,-0.179512 0.482665,-0.374093 0.715687,-0.563802 z m 1.882354,0 -0.400735,0.473958 c 0.103214,-0.159671 0.10909,-0.170639 0.203431,-0.317708 0.06633,-0.05271 0.132943,-0.103849 0.197304,-0.15625 z m -4.393383,0.0014 -0.401961,0.473957 c 0.103262,-0.159794 0.109019,-0.170595 0.203432,-0.31777 0.0666,-0.05291 0.133893,-0.103636 0.198529,-0.15625 z m 1.254902,0 -0.401961,0.473957 c 0.103262,-0.159794 0.10902,-0.170595 0.203431,-0.31777 0.0666,-0.05291 0.133894,-0.103636 0.19853,-0.15625 z m 1.882353,0 -0.401961,0.473957 c 0.103262,-0.159794 0.109019,-0.170595 0.203432,-0.31777 0.0666,-0.05291 0.133893,-0.103636 0.198529,-0.15625 z m -7.905636,0.296875 -1.280638,1.511718 c 0.338863,-0.524166 0.472001,-0.734965 0.667893,-1.04427 0.123592,-0.09148 0.120618,-0.08484 0.261029,-0.191406 0.115721,-0.08783 0.232699,-0.183156 0.351716,-0.276042 z m 8.707107,0.535156 -0.843137,0.996092 c 0.162677,-0.241585 0.323563,-0.481517 0.491421,-0.736978 0.08743,-0.06285 0.19716,-0.145536 0.351716,-0.259114 z m -1.256127,0.0014 -0.841913,0.99479 c 0.162678,-0.241585 0.323565,-0.481517 0.491422,-0.736978 0.08708,-0.06259 0.196753,-0.144847 0.350491,-0.257812 z M 31.25,30.180154 30.420343,31.15932 c 0.15937,-0.236801 0.316155,-0.472725 0.480392,-0.722655 0,0 0.0013,-0.0014 0.0013,-0.0014 0.0862,-0.06195 0.196055,-0.143561 0.348039,-0.255208 z m -0.955883,0.242187 -0.04657,0.05469 c 0.0092,-0.01399 0.01776,-0.02637 0.02696,-0.04036 0.0049,-0.0034 0.01452,-0.01066 0.0196,-0.01432 z m -0.629901,0.0014 -0.0429,0.05208 c 0.0092,-0.01399 0.01776,-0.02637 0.02696,-0.04036 0.004,-0.0029 0.01181,-0.0088 0.01593,-0.01172 z m 1.882352,0 -0.0429,0.05208 c 0.0092,-0.01399 0.01776,-0.02637 0.02696,-0.04036 0.004,-0.0029 0.01181,-0.0088 0.01593,-0.01172 z m -6.566175,1.085937 -0.843137,0.996093 c 0.162677,-0.241585 0.323563,-0.481517 0.491421,-0.736978 0.08743,-0.06285 0.197161,-0.145537 0.351716,-0.259115 z m 0.07598,0.798177 -0.816177,0.963541 c 0.146662,-0.207004 0.309323,-0.446424 0.479166,-0.697917 0.1113,-0.08454 0.222797,-0.176493 0.337011,-0.265624 z"
     id="path4256" />
  <path
     inkscape:connector-curvature="0"
     style="fill:#726639;fill-opacity:1"
     d="m 6.0019531,6 c -1.108,0 -2,0.892 -2,2 l 0,32 c 0,1.108 0.892,2 2,2 l 35.9999999,0 c 1.108,0 2,-0.892 2,-2 l 0,-32 c 0,-1.108 -0.892,-2 -2,-2 L 6.0019531,6 Z m 0,2 35.9999999,0 0,32 -35.9999999,0 0,-32 z"
     id="path4394" />
  <path
     style="opacity:0.2;fill:#ffffff"
     inkscape:connector-curvature="0"
     d="m 6.001,6 c -1.108,0 -2,0.892 -2,2 l 0,1 c 0,-1.108 0.892,-2 2,-2 l 36,0 c 1.108,0 2,0.892 2,2 l 0,-1 c 0,-1.108 -0.892,-2 -2,-2 z"
     id="rect4085" />
  <path
     style="opacity:0.3"
     inkscape:connector-curvature="0"
     d="m 4.001,39 0,1 c 0,1.108 0.892,2 2,2 l 36,0 c 1.108,0 2,-0.892 2,-2 l 0,-1 c 0,1.108 -0.892,2 -2,2 l -36,0 c -1.108,0 -2,-0.892 -2,-2 z"
     id="path4499" />
</svg>
