<?xml version="1.0" encoding="UTF-8" standalone="no"?>
<!-- Created with Inkscape (http://www.inkscape.org/) -->

<svg
   xmlns:dc="http://purl.org/dc/elements/1.1/"
   xmlns:cc="http://creativecommons.org/ns#"
   xmlns:rdf="http://www.w3.org/1999/02/22-rdf-syntax-ns#"
   xmlns:svg="http://www.w3.org/2000/svg"
   xmlns="http://www.w3.org/2000/svg"
   xmlns:xlink="http://www.w3.org/1999/xlink"
   xmlns:sodipodi="http://sodipodi.sourceforge.net/DTD/sodipodi-0.dtd"
   xmlns:inkscape="http://www.inkscape.org/namespaces/inkscape"
   id="svg2817"
   height="48"
   width="48"
   version="1.0"
   inkscape:version="0.91 r13725"
   sodipodi:docname="otter-browser.svg">
  <sodipodi:namedview
     pagecolor="#ffffff"
     bordercolor="#666666"
     borderopacity="1"
     objecttolerance="10"
     gridtolerance="10"
     guidetolerance="10"
     inkscape:pageopacity="0"
     inkscape:pageshadow="2"
     inkscape:window-width="1600"
     inkscape:window-height="843"
     id="namedview12"
     showgrid="false"
     inkscape:zoom="1"
     inkscape:cx="24"
     inkscape:cy="20.666435"
     inkscape:window-x="0"
     inkscape:window-y="31"
     inkscape:window-maximized="1"
     inkscape:current-layer="svg2817" />
  <metadata
     id="metadata57">
    <rdf:RDF>
      <cc:Work
         rdf:about="">
        <dc:format>image/svg+xml</dc:format>
        <dc:type
           rdf:resource="http://purl.org/dc/dcmitype/StillImage" />
        <dc:title></dc:title>
      </cc:Work>
    </rdf:RDF>
  </metadata>
  <defs
     id="defs2819">
    <linearGradient
       inkscape:collect="always"
       id="linearGradient4715">
      <stop
         style="stop-color:#c38a39;stop-opacity:1;"
         offset="0"
         id="stop4717" />
      <stop
         style="stop-color:#c38a39;stop-opacity:0;"
         offset="1"
         id="stop4719" />
    </linearGradient>
    <clipPath
       id="clipPath4186"
       clipPathUnits="userSpaceOnUse">
      <circle
         id="path4188"
         style="color:#000000"
         cx="286"
         cy="26"
         r="10"
         fill="url(#linearGradient4190)" />
    </clipPath>
    <linearGradient
       id="linearGradient4145">
      <stop
         style="stop-color:#9b6534;stop-opacity:1;"
         offset="0"
         id="stop4147" />
      <stop
         style="stop-color:#e6a556;stop-opacity:0;"
         offset="1"
         id="stop4149" />
    </linearGradient>
    <linearGradient
       id="linearGradient3924">
      <stop
         style="stop-color:#ffffff;stop-opacity:1;"
         offset="0"
         id="stop3926" />
      <stop
         style="stop-color:#c9d4e6;stop-opacity:1;"
         offset="1"
         id="stop3928" />
    </linearGradient>
    <linearGradient
       id="linearGradient4241">
      <stop
         style="stop-color:#000000;stop-opacity:1;"
         offset="0"
         id="stop4243" />
      <stop
         style="stop-color:#743800;stop-opacity:0.54901963;"
         offset="1"
         id="stop4245" />
    </linearGradient>
    <linearGradient
       id="linearGradient3905">
      <stop
         id="stop3907"
         offset="0"
         style="stop-color:#ffffff;stop-opacity:1;" />
      <stop
         id="stop3909"
         offset="1"
         style="stop-color:#c59641;stop-opacity:0;" />
    </linearGradient>
    <filter
       inkscape:collect="always"
       id="filter4085"
       x="-0.045958582"
       width="1.0919172"
       y="-0.16613898"
       height="1.332278">
      <feGaussianBlur
         inkscape:collect="always"
         stdDeviation="2.7316268"
         id="feGaussianBlur4087" />
    </filter>
    <radialGradient
       inkscape:collect="always"
       xlink:href="#linearGradient4145"
       id="radialGradient4171"
       cx="187.75626"
       cy="978.42615"
       fx="187.75626"
       fy="978.42615"
       r="35.24752"
       gradientTransform="matrix(0.07088492,0.03857708,-0.0280038,0.05145664,34.541265,-21.099443)"
       gradientUnits="userSpaceOnUse" />
    <linearGradient
       inkscape:collect="always"
       xlink:href="#linearGradient4145"
       id="linearGradient5824"
       gradientUnits="userSpaceOnUse"
       gradientTransform="matrix(0.07890958,0.00294923,-0.00317309,0.08489916,8.6650937,-48.009386)"
       x1="248.86356"
       y1="966.33557"
       x2="123.4153"
       y2="1014.9003" />
    <radialGradient
       inkscape:collect="always"
       xlink:href="#linearGradient3924"
       id="radialGradient3932"
       cx="210.9041"
       cy="744.07831"
       fx="210.9041"
       fy="744.07831"
       r="24.991377"
       gradientTransform="matrix(0.05699451,0,0,0.04504261,9.5789114,-12.80475)"
       gradientUnits="userSpaceOnUse" />
    <linearGradient
       inkscape:collect="always"
       xlink:href="#linearGradient4241"
       id="linearGradient4247"
       x1="182.25566"
       y1="723.83667"
       x2="229.50136"
       y2="723.83667"
       gradientUnits="userSpaceOnUse"
       gradientTransform="matrix(0.05699451,0,0,0.05699451,9.5789114,-21.697901)" />
    <radialGradient
       inkscape:collect="always"
       xlink:href="#linearGradient4145"
       id="radialGradient3919"
       gradientUnits="userSpaceOnUse"
       gradientTransform="matrix(-0.07088492,0.03857708,0.0280038,0.05145664,15.894939,-21.504405)"
       cx="187.75626"
       cy="978.42615"
       fx="187.75626"
       fy="978.42615"
       r="35.24752" />
    <linearGradient
       inkscape:collect="always"
       xlink:href="#linearGradient4145"
       id="linearGradient3921"
       gradientUnits="userSpaceOnUse"
       gradientTransform="matrix(-0.07890958,0.00294923,0.00317309,0.08489916,41.77111,-48.414347)"
       x1="248.86356"
       y1="966.33557"
       x2="123.4153"
       y2="1014.9003" />
    <linearGradient
       inkscape:collect="always"
       xlink:href="#linearGradient4715"
       id="linearGradient4721"
       x1="24.450779"
       y1="22.184124"
       x2="24.813498"
       y2="35.787064"
       gradientUnits="userSpaceOnUse" />
    <linearGradient
       inkscape:collect="always"
       xlink:href="#linearGradient3905"
       id="linearGradient3929"
       gradientUnits="userSpaceOnUse"
       x1="127.71897"
       y1="767.60815"
       x2="143.92509"
       y2="796.83856"
       gradientTransform="matrix(0.13857935,0.17966349,-0.12668909,0.12142099,103.85554,-87.924212)" />
  </defs>
  <path
     sodipodi:nodetypes="scsscsccssscccs"
     inkscape:connector-curvature="0"
     id="path3892"
     d="m 22.51478,18.148823 c 0.879824,0 1.992446,0.140666 2.720319,0.536444 0.405543,-0.194447 1.045425,-0.07082 1.532595,-0.166462 2.159966,-0.424033 3.418559,-0.290753 3.801559,0.887665 0.236492,0.727638 0.339406,2.162688 -0.461601,2.942758 0.08332,0.226087 0.453706,1.529302 0.432238,1.655442 -0.373577,2.195032 -1.984222,2.224758 -2.919071,2.767236 -0.312912,0.336919 -0.177308,1.189292 -0.04595,1.497758 0.3282,0.698439 1.859591,3.049931 2.078705,3.729206 1.253993,3.887491 1.321201,1.316231 -0.280857,2.780403 -7.537444,6.888714 -9.422935,1.283525 -11.629422,-3.412085 -1.30687,-2.781142 -0.521862,-5.004714 -0.197262,-6.979967 -0.963059,-0.114954 -1.914157,-1.121471 -1.403093,-2.04997 0.308417,-0.482916 1.271205,-0.848868 1.869095,-0.864934 0.770829,-1.994219 2.296018,-3.323494 4.502745,-3.323494 z"
     style="fill:#643400;fill-opacity:1;stroke:none" />
  <path
     style="opacity:1;fill:url(#linearGradient4721);fill-opacity:1;stroke:none;stroke-width:3;stroke-miterlimit:1;stroke-dasharray:none;stroke-opacity:1"
     d="m 22.837383,18.220066 c 0.81776,0 1.75919,0.218911 2.435717,0.602005 0.376936,-0.188215 0.894002,-0.266427 1.345021,-0.368008 2.025138,-0.456111 3.616358,-0.160422 3.917452,1.176433 0.186491,0.828023 0.261132,2.043931 -0.601207,2.696737 0.177465,0.129557 0.46811,1.601345 0.414992,1.809269 -0.364607,1.427197 -1.048529,1.60691 -2.832345,2.485464 -0.290838,0.32612 -0.323722,1.289097 -0.201631,1.587677 0.305049,0.676056 1.821116,2.855644 2.024774,3.51315 1.165533,3.762908 1.175026,1.343008 -0.314018,2.760257 -7.005736,6.667945 -8.75822,1.187222 -10.809057,-3.357904 -1.21468,-2.692011 -0.749917,-4.954657 -0.448217,-6.866609 -0.895122,-0.11127 -1.924808,-0.920027 -1.449794,-1.818768 0.286662,-0.46744 1.194775,-0.835457 1.750488,-0.851008 0.716454,-1.930307 2.716765,-3.368695 4.767825,-3.368695 z"
     id="path3783"
     inkscape:connector-curvature="0"
     sodipodi:nodetypes="scsscsccssscccs" />
  <path
     style="fill:#643400;fill-opacity:1;stroke:none"
     d="m 18.213298,24.658093 c -0.963059,-0.114954 -2.581422,-1.392343 -2.070358,-2.320842 0.308417,-0.482916 1.296392,-0.777983 1.894283,-0.79405 -0.08119,0.02248 1.180179,0.286464 0.4499,0.160329 -1.504721,-0.259895 -2.373746,0.677347 -2.295573,1.401781 0.02447,0.226738 0.611757,0.784011 0.889017,0.88474 0.950325,0.345249 1.047324,0.349705 1.132731,0.668042 z"
     id="path3911"
     inkscape:connector-curvature="0"
     sodipodi:nodetypes="cccsssc" />
  <path
     sodipodi:nodetypes="cssssssc"
     inkscape:connector-curvature="0"
     id="path4075"
     d="m 22.198463,22.813355 c 0.06702,-0.357769 0.965549,-0.479409 0.804649,-0.46674 -0.37072,0.02919 -0.489947,0.161746 -0.469556,0.198646 0.232285,0.42033 0.913631,2.189116 3.239763,1.537661 0.546112,-0.152944 1.094599,-0.188559 1.396337,-0.459061 0.840068,-0.753103 1.059185,-1.116603 1.437803,-1.585167 0.0733,-0.09071 0.165972,0.06264 0.476582,0.251844 0.05712,0.03479 0.48789,0.02852 0.47978,-0.04685"
     style="opacity:0.20625;fill:none;stroke:#582d00;stroke-width:0.15080747;stroke-linecap:round;stroke-linejoin:round;stroke-miterlimit:4;stroke-dasharray:none;stroke-opacity:1" />
  <path
     sodipodi:nodetypes="cscsc"
     inkscape:connector-curvature="0"
     id="path4257"
     d="m 28.085978,20.481335 c 1.325005,-0.685256 2.880065,-2.258535 1.219473,-2.43711 -0.05036,-0.0054 -0.744461,-0.04138 -0.799589,-0.04423 -2.399624,0.08407 -3.421106,0.632381 -3.259104,0.924187 0.495265,0.892092 1.196238,1.646981 2.83922,1.557151 z"
     style="fill:#733200;fill-opacity:1;stroke:none" />
  <path
     sodipodi:nodetypes="csssccc"
     inkscape:connector-curvature="0"
     id="path3985"
     d="m 214.83453,784.56449 c 0.67665,0.82784 4.22586,-6.95631 7.60536,-7.90081 5.43359,-1.51858 20.38083,-6.12266 21.82345,-5.28454 0.91702,0.53276 -16.36928,6.5101 -15.8249,7.32066 9.0255,13.43862 10.68552,31.1067 42.50058,26.97274 36.36191,-3.88702 38.03109,-6.73682 63.71897,-38.65673 1.7039,-2.00837 20.32319,12.49306 22.82463,10.52408"
     style="opacity:0.51000001;fill:none;stroke:#a05200;stroke-width:2.43125129;stroke-linecap:butt;stroke-linejoin:miter;stroke-miterlimit:4;stroke-opacity:1;filter:url(#filter4085)"
     transform="matrix(0.05699451,0,0,0.05699451,9.5789114,-21.697901)" />
  <path
     sodipodi:nodetypes="cscsc"
     inkscape:connector-curvature="0"
     id="path3934"
     d="m 20.170123,21.779595 c 0.0309,0.04225 0.218247,0.110664 0.97815,-0.01963 0.736782,-0.126335 1.826763,-0.741274 1.830472,-1.113289 0.03532,-0.670688 -0.551124,-1.077358 -1.669689,-1.05898 -0.879271,0.01445 -1.224511,1.499143 -1.138933,2.191904 z"
     style="fill:#643400;fill-opacity:1;stroke:none" />
  <path
     style="opacity:1;fill:url(#radialGradient3932);fill-opacity:1;stroke:none;stroke-width:3.21087432;stroke-miterlimit:1;stroke-opacity:1"
     d="m 20.266418,21.684754 c 0.625872,0.285339 2.659629,-0.509327 2.665739,-1.105496 0,-0.593664 -0.52413,-0.902956 -1.44342,-0.902956 -0.919288,0 -1.222319,1.41479 -1.222319,2.008452 z"
     id="path3000"
     inkscape:connector-curvature="0"
     sodipodi:nodetypes="ccsc" />
  <path
     style="fill:none;stroke:#582d00;stroke-width:0.03596353;stroke-linecap:round;stroke-linejoin:round;stroke-miterlimit:4;stroke-dasharray:none;stroke-opacity:1"
     d="m 22.200889,22.789991 c 0.03857,0.04718 -0.01105,-0.137075 0.169864,-0.222325 0.279564,-0.131735 0.376234,-0.203143 0.474391,-0.208574 0.636942,-0.03524 -0.378987,-0.0245 -0.25362,0.153638 0.49231,0.699519 0.891853,2.109526 3.218251,1.488998 0.546175,-0.145683 1.058234,-0.203117 1.360006,-0.460779 0.840164,-0.717351 1.003892,-1.134981 1.382552,-1.581302 0.07331,-0.08641 0.181967,0.05837 0.500374,0.225849 0.103403,0.05439 0.441566,0.0423 0.476515,0.01479"
     id="path3798"
     inkscape:connector-curvature="0"
     sodipodi:nodetypes="csssssssc" />
  <path
     style="fill:url(#linearGradient4247);fill-opacity:1;stroke:none"
     d="m 22.333485,19.424581 c -1.014287,-0.73108 -1.600437,0.358292 -2.367001,0.76613 0.23184,-1.039585 1.867288,-1.690671 2.687707,-0.9496 0.04722,0.06168 -0.251366,0.171959 -0.320706,0.18347 z"
     id="path4191"
     inkscape:connector-curvature="0"
     sodipodi:nodetypes="cccc" />
  <ellipse
     style="fill:#434343;fill-opacity:1;stroke:none;stroke-width:0.17265001;stroke-linecap:square;stroke-linejoin:miter;stroke-miterlimit:4;stroke-dasharray:none;stroke-opacity:1"
     id="path3978"
     cx="21.988754"
     cy="20.534161"
     rx="0.53538406"
     ry="0.50289661" />
  <g
     id="g4750"
     style="fill:#582b00;fill-opacity:1">
    <g
       style="fill:#582b00;fill-opacity:1"
       id="g4723">
      <path
         style="color:#000000;display:inline;overflow:visible;visibility:visible;fill:#582b00;fill-opacity:1;fill-rule:nonzero;stroke:none;stroke-width:1.89999998;marker:none;enable-background:accumulate"
         id="path3939"
         d="m 26.195836,20.786364 c -0.04712,0.01902 -0.09539,0.0413 -0.143054,0.06172 -0.05113,0.02131 -0.102597,0.0431 -0.154288,0.06578 -0.07656,0.03441 -0.153036,0.07218 -0.229638,0.106859 -0.06475,0.02886 -0.129704,0.05917 -0.194597,0.08897 -0.06148,0.02766 -0.123051,0.05893 -0.183122,0.09065 -0.07776,0.04272 -0.154643,0.08598 -0.23145,0.129164 -0.105014,0.06043 -0.214055,0.119002 -0.32087,0.178729 -0.139369,0.07839 -0.275599,0.157816 -0.411593,0.237204 -0.09848,0.05761 -0.198139,0.115133 -0.289837,0.173629 -0.0615,0.03792 -0.110823,0.07497 -0.162013,0.11199 -0.03178,0.02326 -0.0657,0.04662 -0.101035,0.07025 0,0 0.121617,-0.116487 0.121617,-0.116487 l 0,0 c 0.03432,-0.02335 0.06703,-0.04647 0.0988,-0.06952 0.05155,-0.03726 0.103604,-0.07466 0.165815,-0.112721 0.09267,-0.05761 0.191403,-0.114142 0.288826,-0.170961 0.136811,-0.07966 0.273778,-0.159392 0.413592,-0.238152 0.107632,-0.06033 0.21701,-0.119869 0.323031,-0.180838 0.07809,-0.04395 0.155801,-0.08829 0.235605,-0.131377 0.06196,-0.03226 0.124873,-0.06392 0.187968,-0.09213 0.06476,-0.02953 0.129636,-0.05989 0.194253,-0.08851 0.07681,-0.03498 0.153734,-0.07257 0.230515,-0.107088 0.05246,-0.02326 0.104714,-0.04585 0.156462,-0.06726 0.04762,-0.0206 0.09545,-0.04167 0.143111,-0.06249 0,0 -0.138104,0.122582 -0.138104,0.122582 z"
         inkscape:connector-curvature="0" />
      <path
         inkscape:connector-curvature="0"
         d="m 26.479852,20.706751 c -0.04059,0.02306 -0.08075,0.04914 -0.1212,0.0735 -0.0437,0.02561 -0.08751,0.05169 -0.13112,0.07858 -0.06417,0.04054 -0.126558,0.08401 -0.190638,0.124795 -0.0544,0.03408 -0.108275,0.06945 -0.162344,0.10437 -0.05152,0.03258 -0.101309,0.06834 -0.149283,0.104272 -0.06126,0.04797 -0.121317,0.0963 -0.181325,0.144551 -0.08135,0.06718 -0.167928,0.13329 -0.251551,0.200104 -0.108876,0.08758 -0.213891,0.175636 -0.318673,0.263627 -0.07582,0.06382 -0.15293,0.127734 -0.22108,0.191409 -0.04637,0.04156 -0.0802,0.0807 -0.116051,0.120057 -0.02212,0.02468 -0.04645,0.04974 -0.07216,0.07523 0,0 0.07078,-0.118479 0.07078,-0.118479 l 0,0 c 0.02478,-0.02511 0.04795,-0.04979 0.07016,-0.07429 0.0361,-0.03962 0.07268,-0.07944 0.119732,-0.121215 0.06963,-0.06303 0.146259,-0.125948 0.221349,-0.188938 0.105512,-0.08834 0.211158,-0.176766 0.320322,-0.264729 0.08419,-0.06745 0.170636,-0.134451 0.252788,-0.202243 0.06099,-0.0491 0.121383,-0.09848 0.184634,-0.147055 0.04971,-0.03667 0.100736,-0.07295 0.153694,-0.10623 0.05407,-0.03467 0.107837,-0.07007 0.162212,-0.103919 0.06415,-0.04107 0.127102,-0.08445 0.191456,-0.125116 0.04413,-0.0275 0.08838,-0.05439 0.13269,-0.08017 0.04031,-0.02452 0.08062,-0.04947 0.120875,-0.07418 0,0 -0.08526,0.126059 -0.08526,0.126059 z"
         id="path3941"
         style="color:#000000;display:inline;overflow:visible;visibility:visible;fill:#582b00;fill-opacity:1;fill-rule:nonzero;stroke:none;stroke-width:1.89999998;marker:none;enable-background:accumulate" />
      <path
         style="color:#000000;display:inline;overflow:visible;visibility:visible;fill:#582b00;fill-opacity:1;fill-rule:nonzero;stroke:none;stroke-width:1.89999998;marker:none;enable-background:accumulate"
         id="path3943"
         d="m 26.787595,20.760926 c -0.04059,0.02306 -0.08075,0.04914 -0.121201,0.0735 -0.0437,0.02561 -0.08751,0.05169 -0.131119,0.07858 -0.06417,0.04054 -0.126559,0.08401 -0.190638,0.124795 -0.0544,0.03408 -0.108276,0.06945 -0.162344,0.10437 -0.05152,0.03258 -0.10131,0.06834 -0.149283,0.104271 -0.06126,0.04797 -0.121318,0.0963 -0.181326,0.144552 -0.08135,0.06718 -0.167927,0.13329 -0.25155,0.200103 -0.108876,0.08758 -0.213891,0.175637 -0.318673,0.263628 -0.07582,0.06382 -0.15293,0.127734 -0.22108,0.191409 -0.04636,0.04156 -0.08021,0.0807 -0.116051,0.120057 -0.02212,0.02468 -0.04645,0.04974 -0.07217,0.07523 0,0 0.07078,-0.118479 0.07078,-0.118479 l 0,0 c 0.02478,-0.02511 0.04795,-0.04979 0.07016,-0.07429 0.0361,-0.03962 0.07268,-0.07944 0.119732,-0.121215 0.06963,-0.06303 0.146259,-0.125948 0.221349,-0.188938 0.105511,-0.08834 0.211158,-0.176766 0.320322,-0.264729 0.08419,-0.06745 0.170636,-0.134451 0.252788,-0.202243 0.06099,-0.0491 0.121383,-0.09848 0.184634,-0.147055 0.04971,-0.03667 0.100735,-0.07295 0.153694,-0.10623 0.05407,-0.03467 0.107837,-0.07007 0.162212,-0.103919 0.06415,-0.04107 0.127101,-0.08445 0.191455,-0.125116 0.04413,-0.0275 0.08838,-0.05439 0.13269,-0.08017 0.04031,-0.02452 0.08062,-0.04947 0.120876,-0.07418 0,0 -0.08526,0.126058 -0.08526,0.126058 z"
         inkscape:connector-curvature="0" />
      <path
         inkscape:connector-curvature="0"
         d="m 27.205685,20.66089 c -0.03162,0.0257 -0.06128,0.05398 -0.0921,0.08081 -0.03365,0.02836 -0.0672,0.05714 -0.100111,0.0866 -0.04795,0.04421 -0.09253,0.09073 -0.140258,0.135141 -0.04079,0.03722 -0.08038,0.0755 -0.120398,0.113418 -0.03847,0.03552 -0.07352,0.07358 -0.106542,0.111556 -0.04112,0.05032 -0.08078,0.100774 -0.12042,0.151165 -0.05286,0.06986 -0.111813,0.139487 -0.167272,0.209332 -0.07191,0.09145 -0.139473,0.182797 -0.206818,0.274054 -0.04865,0.06616 -0.09864,0.132584 -0.139203,0.197578 -0.02848,0.04268 -0.04485,0.08153 -0.06323,0.120851 -0.01115,0.02461 -0.02447,0.04985 -0.03903,0.07566 0,0 0.01583,-0.113313 0.01583,-0.113313 l 0,0 c 0.01376,-0.02534 0.02603,-0.0501 0.03737,-0.07456 0.01853,-0.03958 0.03747,-0.0794 0.06657,-0.122365 0.04246,-0.06463 0.09243,-0.130115 0.14073,-0.195453 0.06795,-0.09166 0.135995,-0.183414 0.20802,-0.275242 0.05574,-0.07048 0.114114,-0.140871 0.167515,-0.211372 0.04026,-0.05126 0.07975,-0.102695 0.122685,-0.153805 0.0345,-0.03885 0.0706,-0.07754 0.110255,-0.113871 0.04014,-0.03769 0.0796,-0.07599 0.120483,-0.113005 0.04767,-0.04467 0.09288,-0.0912 0.140967,-0.135533 0.03317,-0.03007 0.06676,-0.05962 0.100985,-0.08821 0.0306,-0.02694 0.06097,-0.05426 0.09142,-0.08136 0,0 -0.02744,0.121915 -0.02744,0.121915 z"
         id="path3945"
         style="color:#000000;display:inline;overflow:visible;visibility:visible;fill:#582b00;fill-opacity:1;fill-rule:nonzero;stroke:none;stroke-width:1.89999998;marker:none;enable-background:accumulate" />
      <path
         style="color:#000000;display:inline;overflow:visible;visibility:visible;fill:#582b00;fill-opacity:1;fill-rule:nonzero;stroke:none;stroke-width:1.89999998;marker:none;enable-background:accumulate"
         id="path3947"
         d="m 27.320324,20.74842 c -0.02413,0.02664 -0.04528,0.05546 -0.06817,0.08305 -0.02532,0.02927 -0.05038,0.05892 -0.07454,0.08914 -0.03473,0.0452 -0.06509,0.0922 -0.09952,0.137558 -0.02968,0.03809 -0.05773,0.07705 -0.08635,0.115705 -0.02785,0.03631 -0.05119,0.07462 -0.07243,0.112662 -0.02537,0.05015 -0.04916,0.100284 -0.07295,0.150358 -0.03078,0.06922 -0.06805,0.138811 -0.101566,0.208266 -0.04314,0.09088 -0.08175,0.181232 -0.120164,0.271486 -0.02766,0.06542 -0.05664,0.131206 -0.07621,0.194774 -0.01479,0.04192 -0.0182,0.07916 -0.02357,0.117028 -0.003,0.02366 -0.008,0.04811 -0.01417,0.07321 0,0 -0.02363,-0.105546 -0.02363,-0.105546 l 0,0 c 0.0055,-0.02459 0.0096,-0.04849 0.01281,-0.07204 0.0054,-0.03812 0.0112,-0.0765 0.02654,-0.118738 0.02169,-0.06342 0.05099,-0.128342 0.07857,-0.192971 0.0389,-0.09068 0.07787,-0.181462 0.121005,-0.272691 0.03359,-0.07007 0.06998,-0.140303 0.101097,-0.210163 0.02414,-0.05093 0.04739,-0.101948 0.0744,-0.153 0.02249,-0.03898 0.04671,-0.07798 0.07552,-0.115144 0.02883,-0.03846 0.05673,-0.07742 0.08658,-0.115335 0.03427,-0.0456 0.0653,-0.09266 0.100126,-0.137986 0.0242,-0.0308 0.04904,-0.06116 0.07489,-0.09069 0.02262,-0.02767 0.04486,-0.05568 0.06726,-0.08349 0,0 0.01447,0.11456 0.01447,0.11456 z"
         inkscape:connector-curvature="0" />
      <path
         inkscape:connector-curvature="0"
         d="m 26.264897,20.632992 c -0.04989,0.0157 -0.10193,0.03471 -0.152791,0.05184 -0.05436,0.01773 -0.109189,0.03595 -0.164523,0.05507 -0.08223,0.02918 -0.165509,0.0619 -0.247869,0.09137 -0.06947,0.02443 -0.139604,0.05036 -0.209519,0.07577 -0.06605,0.02347 -0.133382,0.05072 -0.199482,0.07857 -0.08612,0.0378 -0.171612,0.07625 -0.25701,0.114627 -0.117222,0.05392 -0.237543,0.105536 -0.356193,0.15856 -0.154968,0.06967 -0.307381,0.140708 -0.459565,0.211729 -0.110242,0.05155 -0.221545,0.102916 -0.325822,0.156018 -0.0695,0.03424 -0.127456,0.06867 -0.187129,0.102891 -0.03714,0.02154 -0.07629,0.04299 -0.116837,0.0646 0,0 0.151325,-0.111273 0.151325,-0.111273 l 0,0 c 0.03952,-0.0214 0.07747,-0.04271 0.114531,-0.06403 0.06008,-0.03445 0.120684,-0.06899 0.190885,-0.103313 0.104876,-0.05209 0.214994,-0.102486 0.323997,-0.153309 0.153029,-0.07124 0.306226,-0.142527 0.461726,-0.212542 0.119607,-0.05359 0.240562,-0.106178 0.358895,-0.160579 0.08684,-0.03907 0.173458,-0.07857 0.261589,-0.116574 0.06803,-0.02825 0.136735,-0.05579 0.204455,-0.07969 0.0697,-0.02514 0.139785,-0.05113 0.209046,-0.07532 0.08266,-0.02976 0.166286,-0.06226 0.248756,-0.09154 0.05625,-0.01967 0.112067,-0.03865 0.167028,-0.05643 0.05087,-0.01731 0.102107,-0.0351 0.153098,-0.05263 0,0 -0.168591,0.116177 -0.168591,0.116177 z"
         id="path3949"
         style="color:#000000;display:inline;overflow:visible;visibility:visible;fill:#582b00;fill-opacity:1;fill-rule:nonzero;stroke:none;stroke-width:1.89999998;marker:none;enable-background:accumulate" />
    </g>
    <g
       style="fill:#582b00;fill-opacity:1"
       id="g4731">
      <path
         inkscape:connector-curvature="0"
         d="m 29.842587,19.894013 c 0.03538,5.86e-4 0.07312,0.0047 0.109539,0.0068 0.03875,0.0015 0.07794,0.0034 0.117718,0.0063 0.05935,0.0054 0.120449,0.01496 0.179972,0.02063 0.05007,0.0042 0.101018,0.01016 0.151668,0.0155 0.04768,0.0043 0.09733,0.01315 0.146407,0.02326 0.06442,0.01517 0.128649,0.03146 0.192803,0.04769 0.08845,0.02392 0.178072,0.04354 0.267114,0.06569 0.116424,0.02949 0.231715,0.06182 0.346859,0.09422 0.08345,0.02361 0.167478,0.04654 0.247758,0.07461 0.05315,0.01719 0.0993,0.03929 0.146434,0.06042 0.02941,0.01347 0.06002,0.02601 0.09154,0.0382 0,0 -0.12716,-0.08598 -0.12716,-0.08598 l 0,0 c -0.03082,-0.01233 -0.06066,-0.02517 -0.08995,-0.03838 -0.04746,-0.02126 -0.09526,-0.04245 -0.148861,-0.05946 -0.08033,-0.02649 -0.163339,-0.04862 -0.245798,-0.07176 -0.115728,-0.03234 -0.231576,-0.06469 -0.348435,-0.09442 -0.0898,-0.02251 -0.180117,-0.04316 -0.269393,-0.06727 -0.06525,-0.01656 -0.130502,-0.03379 -0.196209,-0.04841 -0.05038,-0.0099 -0.100957,-0.01851 -0.149795,-0.02273 -0.05044,-0.0051 -0.10137,-0.01111 -0.151239,-0.01509 -0.05979,-0.0059 -0.121036,-0.01511 -0.180564,-0.02049 -0.0405,-0.0033 -0.08054,-0.0058 -0.11967,-0.0071 -0.03649,-0.0023 -0.07335,-0.0051 -0.109975,-0.0077 0,0 0.139242,0.08549 0.139242,0.08549 z"
         id="path3973"
         style="color:#000000;display:inline;overflow:visible;visibility:visible;fill:#582b00;fill-opacity:1;fill-rule:nonzero;stroke:none;stroke-width:1.89999998;marker:none;enable-background:accumulate" />
      <path
         style="color:#000000;display:inline;overflow:visible;visibility:visible;fill:#582b00;fill-opacity:1;fill-rule:nonzero;stroke:none;stroke-width:1.89999998;marker:none;enable-background:accumulate"
         id="path3975"
         d="m 29.647939,19.934351 c 0.03403,0.0089 0.06943,0.02174 0.104083,0.03233 0.03705,0.01054 0.07442,0.02161 0.112102,0.0338 0.05597,0.01915 0.112541,0.04285 0.168593,0.06235 0.04729,0.01587 0.09499,0.03362 0.142559,0.05071 0.04495,0.01542 0.09067,0.03566 0.135502,0.05703 0.05836,0.0299 0.116264,0.06083 0.174103,0.0917 0.07935,0.04406 0.16093,0.0842 0.241303,0.126675 0.104957,0.05605 0.208096,0.11459 0.311076,0.17317 0.07459,0.04258 0.149933,0.08463 0.220338,0.13081 0.04696,0.02921 0.08592,0.06156 0.126073,0.09321 0.02499,0.02002 0.05136,0.03941 0.0787,0.05868 0,0 -0.100953,-0.113561 -0.100953,-0.113561 l 0,0 c -0.02664,-0.01924 -0.05219,-0.03874 -0.07712,-0.05849 -0.04043,-0.03184 -0.08122,-0.06369 -0.128663,-0.09284 -0.07086,-0.04465 -0.145406,-0.08569 -0.219169,-0.127581 -0.103558,-0.05866 -0.20723,-0.117355 -0.312545,-0.173737 -0.08102,-0.043 -0.163001,-0.08432 -0.243104,-0.128746 -0.05881,-0.03144 -0.117461,-0.06354 -0.177209,-0.0932 -0.04616,-0.02143 -0.09281,-0.04172 -0.138909,-0.05731 -0.04743,-0.01677 -0.09509,-0.03462 -0.142249,-0.05021 -0.05625,-0.01983 -0.113069,-0.04313 -0.169202,-0.06235 -0.03829,-0.0127 -0.07632,-0.02457 -0.113789,-0.03501 -0.03465,-0.01084 -0.06954,-0.02223 -0.104267,-0.03333 0,0 0.112749,0.115917 0.112749,0.115917 z"
         inkscape:connector-curvature="0" />
      <path
         inkscape:connector-curvature="0"
         d="m 29.511703,20.154055 c 0.03403,0.0089 0.06943,0.02174 0.104083,0.03233 0.03705,0.01054 0.07442,0.02161 0.112102,0.0338 0.05597,0.01915 0.112541,0.04285 0.168592,0.06235 0.04729,0.01587 0.09499,0.03362 0.14256,0.05071 0.04495,0.01542 0.09067,0.03566 0.135502,0.05703 0.05836,0.0299 0.116264,0.06083 0.174104,0.0917 0.07935,0.04406 0.160929,0.0842 0.241302,0.126675 0.104957,0.05605 0.208096,0.11459 0.311076,0.173171 0.07459,0.04258 0.149933,0.08463 0.220338,0.13081 0.04696,0.02921 0.08592,0.06156 0.126073,0.09321 0.02499,0.02002 0.05136,0.03941 0.0787,0.05868 0,0 -0.100954,-0.113561 -0.100954,-0.113561 l 0,0 c -0.02664,-0.01924 -0.05219,-0.03874 -0.07712,-0.05849 -0.04043,-0.03184 -0.08122,-0.06369 -0.128663,-0.09284 -0.07086,-0.04465 -0.145406,-0.08569 -0.219169,-0.127581 -0.103557,-0.05866 -0.20723,-0.117354 -0.312545,-0.173737 -0.08102,-0.043 -0.163001,-0.08432 -0.243104,-0.128746 -0.05881,-0.03144 -0.117461,-0.06354 -0.177209,-0.0932 -0.04615,-0.02143 -0.09281,-0.04172 -0.138909,-0.05731 -0.04743,-0.01677 -0.09509,-0.03462 -0.142249,-0.05021 -0.05625,-0.01983 -0.113068,-0.04313 -0.169202,-0.06235 -0.03829,-0.0127 -0.07632,-0.02457 -0.113788,-0.03501 -0.03466,-0.01084 -0.06954,-0.02223 -0.104268,-0.03333 0,0 0.112749,0.115916 0.112749,0.115916 z"
         id="path3977"
         style="color:#000000;display:inline;overflow:visible;visibility:visible;fill:#582b00;fill-opacity:1;fill-rule:nonzero;stroke:none;stroke-width:1.89999998;marker:none;enable-background:accumulate" />
      <path
         style="color:#000000;display:inline;overflow:visible;visibility:visible;fill:#582b00;fill-opacity:1;fill-rule:nonzero;stroke:none;stroke-width:1.89999998;marker:none;enable-background:accumulate"
         id="path3979"
         d="m 29.234293,20.234939 c 0.03063,0.01661 0.06157,0.03742 0.09236,0.05584 0.03313,0.01894 0.06642,0.03846 0.09974,0.05915 0.04922,0.03174 0.09787,0.06806 0.147075,0.100166 0.04167,0.02652 0.08325,0.05496 0.124874,0.08274 0.03952,0.02554 0.07856,0.05594 0.116454,0.08724 0.04881,0.04277 0.0969,0.08644 0.144956,0.130033 0.06549,0.06147 0.134132,0.119645 0.201011,0.179815 0.08719,0.07914 0.171994,0.160277 0.256633,0.241416 0.06127,0.05892 0.123396,0.117495 0.179708,0.178933 0.03797,0.03943 0.0674,0.08005 0.09817,0.120255 0.01906,0.02534 0.03963,0.05039 0.06116,0.07555 0,0 -0.06874,-0.134193 -0.06874,-0.134193 l 0,0 c -0.02086,-0.02497 -0.0406,-0.04994 -0.05968,-0.075 -0.03098,-0.04047 -0.06231,-0.08102 -0.100764,-0.120506 -0.05714,-0.06006 -0.118755,-0.117461 -0.179397,-0.175516 -0.08518,-0.08135 -0.170457,-0.162765 -0.257909,-0.242311 -0.06737,-0.06083 -0.136101,-0.120246 -0.202226,-0.182253 -0.04885,-0.04438 -0.09737,-0.08935 -0.147575,-0.132225 -0.03916,-0.03167 -0.07909,-0.06235 -0.119675,-0.08831 -0.04157,-0.02743 -0.08309,-0.05596 -0.124701,-0.08218 -0.04931,-0.03247 -0.0983,-0.06846 -0.147664,-0.100308 -0.03378,-0.02132 -0.06751,-0.04178 -0.101059,-0.06072 -0.03073,-0.01866 -0.06155,-0.03792 -0.09229,-0.05686 0,0 0.07954,0.139248 0.07954,0.139248 z"
         inkscape:connector-curvature="0" />
      <path
         inkscape:connector-curvature="0"
         d="m 29.219354,20.401184 c 0.02711,0.02148 0.05377,0.04716 0.08072,0.07045 0.02915,0.02419 0.05835,0.04899 0.08737,0.07493 0.04266,0.0395 0.08393,0.08343 0.126511,0.123293 0.03618,0.0331 0.07193,0.06808 0.10783,0.102404 0.03424,0.03177 0.06713,0.06826 0.09875,0.105455 0.04027,0.05033 0.07969,0.101424 0.11907,0.152439 0.05331,0.07156 0.110302,0.140388 0.165207,0.210893 0.07146,0.0926 0.140206,0.186788 0.208795,0.280945 0.04962,0.06834 0.100139,0.136485 0.144436,0.206493 0.03022,0.04524 0.05185,0.09023 0.07486,0.135032 0.01418,0.02818 0.02989,0.05634 0.04652,0.08475 0,0 -0.04345,-0.143923 -0.04345,-0.143923 l 0,0 c -0.01601,-0.02811 -0.03092,-0.05605 -0.04517,-0.08396 -0.02318,-0.0451 -0.04668,-0.09034 -0.07737,-0.13571 -0.04535,-0.06878 -0.09559,-0.135682 -0.144744,-0.203066 -0.06908,-0.09446 -0.138249,-0.188991 -0.209887,-0.282041 -0.05527,-0.07124 -0.112128,-0.141305 -0.165963,-0.213501 -0.04003,-0.05192 -0.07962,-0.104381 -0.12125,-0.155038 -0.03279,-0.03776 -0.06651,-0.07468 -0.101721,-0.107045 -0.03592,-0.03398 -0.07159,-0.06904 -0.107759,-0.101824 -0.04262,-0.04023 -0.08429,-0.0839 -0.127065,-0.123529 -0.02936,-0.02666 -0.05882,-0.05245 -0.08838,-0.07671 -0.02684,-0.02352 -0.05366,-0.04765 -0.08046,-0.07145 0,0 0.05315,0.150705 0.05315,0.150705 z"
         id="path3981"
         style="color:#000000;display:inline;overflow:visible;visibility:visible;fill:#582b00;fill-opacity:1;fill-rule:nonzero;stroke:none;stroke-width:1.89999998;marker:none;enable-background:accumulate" />
      <path
         style="color:#000000;display:inline;overflow:visible;visibility:visible;fill:#582b00;fill-opacity:1;fill-rule:nonzero;stroke:none;stroke-width:1.89999998;marker:none;enable-background:accumulate"
         id="path3983"
         d="m 29.724001,19.735877 c 0.0351,-0.0049 0.07312,-0.0068 0.109503,-0.01041 0.03858,-0.0046 0.07767,-0.0088 0.117517,-0.01214 0.05962,-0.004 0.121677,-0.0041 0.181515,-0.0078 0.05025,-0.0037 0.101647,-0.0058 0.152653,-0.0084 0.0479,-0.0032 0.0985,-0.0022 0.14876,6e-5 0.06629,0.0049 0.132576,0.01089 0.198781,0.01686 0.09154,0.0097 0.183508,0.01507 0.275333,0.02299 0.120153,0.01086 0.239663,0.0247 0.359041,0.03863 0.08653,0.01022 0.173535,0.01968 0.257694,0.03479 0.05548,0.0086 0.104865,0.02318 0.155064,0.03663 0.03137,0.0087 0.06377,0.01624 0.09701,0.02332 0,0 -0.14032,-0.0648 -0.14032,-0.0648 l 0,0 c -0.03258,-0.0073 -0.06426,-0.01531 -0.09547,-0.02375 -0.05053,-0.01353 -0.101405,-0.02692 -0.157303,-0.03531 -0.08394,-0.01354 -0.169793,-0.02238 -0.255275,-0.03229 -0.119945,-0.01378 -0.24001,-0.02755 -0.360632,-0.03858 -0.09264,-0.0081 -0.185468,-0.01439 -0.277855,-0.02419 -0.06734,-0.0061 -0.134803,-0.0129 -0.202273,-0.01704 -0.0515,-0.0018 -0.102995,-0.0025 -0.152021,9.9e-4 -0.05075,0.0029 -0.102154,0.0049 -0.152159,0.0087 -0.06015,0.0035 -0.122283,0.004 -0.182077,0.008 -0.04062,0.0031 -0.08065,0.0068 -0.11958,0.01168 -0.03649,0.0034 -0.07342,0.0064 -0.110091,0.0096 0,0 0.152186,0.06242 0.152186,0.06242 z"
         inkscape:connector-curvature="0" />
    </g>
  </g>
  <path
     style="color:#000000;display:inline;overflow:visible;visibility:visible;opacity:0.3;fill:url(#linearGradient3929);fill-opacity:1;fill-rule:nonzero;stroke:none;marker:none;enable-background:accumulate"
     d="m 27.951959,34.650692 c -0.543246,1.46113 -3.398858,1.772699 -4.35273,0.752513 C 22.430228,34.152934 20.310322,32.039235 20,30.383892 c 0.532843,-2.322476 5.958203,-1.856315 6.565891,0.02524 0.592546,1.83467 1.674761,3.12241 1.386068,4.241558 z"
     id="path3927"
     inkscape:connector-curvature="0"
     sodipodi:nodetypes="cscsc" />
  <path
     inkscape:connector-curvature="0"
     id="path4230"
     style="color:#000000;fill:#3b94f7;fill-opacity:1"
     d="M 24,4 A 20,20 0 0 0 4,24 20,20 0 0 0 24,44 20,20 0 0 0 44,24 20,20 0 0 0 24,4 Z m 0,8 a 9,12 0 0 1 9,12 9,12 0 0 1 -9,12 9,12 0 0 1 -9,-12 9,12 0 0 1 9,-12 z" />
  <circle
     id="path4240"
     style="color:#000000;opacity:0;stroke-width:0.45455"
     clip-path="url(#clipPath4186)"
     r="10"
     transform="matrix(2,0,0,2,-548,-28)"
     cy="26"
     cx="286" />
  <circle
     id="path4242"
     style="color:#000000;opacity:0;stroke-width:0.90908998"
     clip-path="url(#clipPath4186)"
     r="10"
     transform="matrix(2,0,0,2,-548,-28)"
     cy="26"
     cx="286" />
  <path
     inkscape:connector-curvature="0"
     id="path4270"
     style="color:#000000;opacity:0.2;fill:#ffffff"
     d="M 24,4 A 20,20 0 0 0 4,24 20,20 0 0 0 4.0215,24.418 20,20 0 0 1 23.9995,5 20,20 0 0 1 43.9785,24.582 20,20 0 0 0 43.9995,24 a 20,20 0 0 0 -20,-20 z m 8.984,20.424 A 9,12 0 0 1 24,36 9,12 0 0 1 15.016,24.576 9,12 0 0 0 15,25 9,12 0 0 0 24,37 9,12 0 0 0 33,25 9,12 0 0 0 32.984,24.424 Z" />
  <path
     inkscape:connector-curvature="0"
     id="path4275"
     style="color:#000000;opacity:0.3;fill:#434343;fill-opacity:1"
     d="m 24,11 a 9,12 0 0 0 -9,12 9,12 0 0 0 0.01563,0.57617 9,12 0 0 1 8.984,-11.576 9,12 0 0 1 8.984,11.424 9,12 0 0 0 0.016,-0.424 9,12 0 0 0 -9,-12 z M 4.022,23.418 A 20,20 0 0 0 4.0005,24 a 20,20 0 0 0 20,20 20,20 0 0 0 20,-20 20,20 0 0 0 -0.021,-0.418 A 20,20 0 0 1 24.0005,43 20,20 0 0 1 4.0225,23.418 Z" />
  <g
     id="g4568"
     transform="matrix(0.83333345,0,0,0.83333345,3.4999972,3.8333288)">
    <path
       sodipodi:nodetypes="ccccsssccccscsc"
       inkscape:connector-curvature="0"
       id="path3802"
       d="m 21.302354,34.855874 c -1.09214,-1.003455 -1.990046,0.141794 -2.444959,0.776011 -0.225691,0.426759 -0.359698,0.589637 -0.981596,1.967114 -0.187546,0.457365 -0.631981,1.24367 -0.122069,1.433981 0.527258,0.319398 1.848678,-2.639647 1.738891,-2.639691 -0.08946,-3.8e-5 -1.877859,2.034601 -1.366266,2.850672 0.835254,1.332365 1.888694,-2.332735 1.788798,-2.318213 -0.08711,0.01267 -1.664801,2.451669 -0.820232,2.858931 0.190569,0.08026 0.319701,-0.04753 0.530147,-0.222634 0.656864,-0.33997 1.65715,-1.0517 1.813929,-1.47197 0.04702,-0.209912 -1.771163,1.0826 -1.785879,1.407208 -0.02252,0.666289 0.401981,0.601506 0.778162,0.315129 0.719299,-0.547578 1.730316,-2.071338 1.723027,-2.222249 0.33768,-0.710528 0.387427,-1.192511 0.36696,-1.764866 -0.0125,-0.349331 -0.674813,-0.887465 -1.218913,-0.969423 z"
       style="fill:#643400;fill-opacity:1;stroke:none" />
    <path
       sodipodi:nodetypes="cccsssssssssssc"
       inkscape:connector-curvature="0"
       id="path4169"
       d="m 22.354531,36.239199 c 0.03589,-0.187333 -0.440323,-1.134122 -1.138235,-1.079319 -0.688228,-0.945736 -1.461403,-0.365877 -1.53406,-0.272336 -1.093111,1.165204 -1.050091,1.683494 -1.696628,2.383816 -0.35211,0.381402 -0.302837,0.834473 -0.295844,1.105366 0.0012,0.04443 0.03175,0.879375 0.457636,0.283866 0.309044,-0.432116 1.189238,-2.147173 1.260197,-2.087215 0.09327,0.07881 -1.160877,2.148769 -1.242421,2.393084 -0.07126,0.213497 0.292536,0.789219 0.659111,0.255791 0.48533,-0.706236 1.313117,-2.472507 1.428345,-2.398459 0.211256,0.135761 -1.43199,2.242023 -1.277739,2.667977 0.332093,0.917061 1.263497,-1.052259 1.88651,-1.992331 0.12989,-0.19599 0.181782,-0.09227 0.168346,-0.06736 -0.320553,0.594306 -2.436497,3.468881 -0.379792,1.989142 0.74504,-0.536034 1.247897,-1.801882 1.704574,-3.182024 z"
       style="fill:url(#radialGradient4171);fill-opacity:1;stroke:none" />
    <path
       style="fill:url(#linearGradient5824);fill-opacity:1;stroke:none"
       d="m 21.483825,35.098569 c -1.836455,-1.987462 -3.122371,1.605749 -3.829671,3.127616 -0.261689,0.563062 0.113744,1.093009 0.505336,0.464631 0.309044,-0.432117 1.177148,-2.177397 1.248107,-2.117439 0.09327,0.07881 -1.16204,2.148386 -1.242421,2.393084 -0.07126,0.216917 0.292536,0.805647 0.659111,0.255791 0.475342,-0.713001 1.313117,-2.472507 1.428345,-2.398459 0.211256,0.135761 -1.43199,2.242023 -1.277739,2.667977 0.332093,0.917061 1.263497,-1.052259 1.88651,-1.992331 0.12989,-0.19599 0.182967,-0.09159 0.168346,-0.06736 -0.857153,1.458389 -1.293384,1.880922 -1.303376,2.221023 0.138032,1.585024 4.618645,-4.18333 1.757452,-4.554535 z"
       id="path4101"
       inkscape:connector-curvature="0"
       sodipodi:nodetypes="cscssssssccc" />
  </g>
  <g
     id="g4563"
     transform="matrix(0.83333345,0,0,0.83333345,3.4999972,3.8333288)">
    <path
       style="fill:#643400;fill-opacity:1;stroke:none"
       d="m 29.13385,34.450913 c 1.09214,-1.003456 1.990046,0.141794 2.444959,0.77601 0.225691,0.426759 0.359698,0.589638 0.981596,1.967114 0.187546,0.457365 0.631981,1.243675 0.122069,1.433986 -0.527258,0.319398 -1.848678,-2.639651 -1.738891,-2.639696 0.08946,-3.7e-5 1.87786,2.034607 1.366267,2.850677 -0.835254,1.332364 -1.888695,-2.33274 -1.788799,-2.318217 0.08711,0.01267 1.664801,2.451672 0.820232,2.858934 -0.190569,0.08026 -0.319701,-0.04753 -0.530147,-0.222634 -0.656864,-0.339969 -1.657149,-1.051698 -1.813929,-1.471975 -0.04702,-0.209911 1.771163,1.082605 1.785879,1.407214 0.02252,0.666288 -0.401981,0.601506 -0.778162,0.31513 -0.719299,-0.547579 -1.730316,-2.071344 -1.723027,-2.222255 -0.33768,-0.710528 -0.387427,-1.19251 -0.36696,-1.764866 0.0125,-0.349331 0.674813,-0.887465 1.218913,-0.969422 z"
       id="path3913"
       inkscape:connector-curvature="0"
       sodipodi:nodetypes="ccccsssccccscsc" />
    <path
       style="fill:url(#radialGradient3919);fill-opacity:1;stroke:none"
       d="m 28.081673,35.834237 c -0.03589,-0.187333 0.440323,-1.134122 1.138235,-1.079318 0.688228,-0.945737 1.461403,-0.365877 1.53406,-0.272337 1.093111,1.165204 1.050091,1.683495 1.696628,2.383816 0.35211,0.381402 0.302837,0.834472 0.295844,1.10537 -0.0012,0.04442 -0.03174,0.879375 -0.457636,0.283867 -0.309044,-0.432116 -1.189238,-2.147178 -1.260197,-2.08722 -0.09327,0.07882 1.160877,2.148775 1.242421,2.393088 0.07126,0.213498 -0.292536,0.78922 -0.659111,0.255793 -0.48533,-0.706238 -1.313117,-2.472513 -1.428345,-2.398463 -0.211256,0.13576 1.43199,2.242026 1.277739,2.667981 -0.332093,0.917059 -1.263497,-1.05226 -1.88651,-1.992337 -0.12989,-0.19599 -0.181782,-0.09226 -0.168346,-0.06736 0.320553,0.594305 2.436497,3.468886 0.379792,1.989147 -0.74504,-0.536034 -1.247897,-1.801887 -1.704574,-3.182029 z"
       id="path3915"
       inkscape:connector-curvature="0"
       sodipodi:nodetypes="cccsssssssssssc" />
    <path
       sodipodi:nodetypes="cscssssssccc"
       inkscape:connector-curvature="0"
       id="path3917"
       d="m 28.952379,34.693607 c 1.836455,-1.987462 3.122371,1.605751 3.829671,3.127621 0.261689,0.563062 -0.113743,1.093008 -0.505336,0.46463 -0.309044,-0.432116 -1.177148,-2.177401 -1.248107,-2.117443 -0.09327,0.07882 1.16204,2.148391 1.242421,2.393088 0.07126,0.216918 -0.292536,0.805648 -0.659111,0.255793 -0.475342,-0.713001 -1.313117,-2.472513 -1.428345,-2.398463 -0.211256,0.13576 1.43199,2.242026 1.277739,2.667981 -0.332093,0.917059 -1.263497,-1.05226 -1.88651,-1.992337 -0.12989,-0.19599 -0.182967,-0.09159 -0.168346,-0.06736 0.857153,1.458393 1.293384,1.880927 1.303376,2.221027 -0.138032,1.585025 -4.618645,-4.183333 -1.757452,-4.554539 z"
       style="fill:url(#linearGradient3921);fill-opacity:1;stroke:none" />
  </g>
</svg>
