<?xml version="1.0" encoding="UTF-8" standalone="no"?>
<!-- Created with Inkscape (http://www.inkscape.org/) -->

<svg
   xmlns:dc="http://purl.org/dc/elements/1.1/"
   xmlns:cc="http://creativecommons.org/ns#"
   xmlns:rdf="http://www.w3.org/1999/02/22-rdf-syntax-ns#"
   xmlns:svg="http://www.w3.org/2000/svg"
   xmlns="http://www.w3.org/2000/svg"
   xmlns:sodipodi="http://sodipodi.sourceforge.net/DTD/sodipodi-0.dtd"
   xmlns:inkscape="http://www.inkscape.org/namespaces/inkscape"
   id="svg2817"
   height="48"
   width="48"
   version="1.0"
   inkscape:version="0.91 r"
   sodipodi:docname="palemoon.svg">
  <sodipodi:namedview
     pagecolor="#ffffff"
     bordercolor="#666666"
     borderopacity="1"
     objecttolerance="10"
     gridtolerance="10"
     guidetolerance="10"
     inkscape:pageopacity="0"
     inkscape:pageshadow="2"
     inkscape:window-width="1600"
     inkscape:window-height="842"
     id="namedview16"
     showgrid="false"
     inkscape:zoom="7.54"
     inkscape:cx="24"
     inkscape:cy="24"
     inkscape:window-x="-4"
     inkscape:window-y="32"
     inkscape:window-maximized="1"
     inkscape:current-layer="svg2817" />
  <metadata
     id="metadata57">
    <rdf:RDF>
      <cc:Work
         rdf:about="">
        <dc:format>image/svg+xml</dc:format>
        <dc:type
           rdf:resource="http://purl.org/dc/dcmitype/StillImage" />
        <dc:title></dc:title>
      </cc:Work>
    </rdf:RDF>
  </metadata>
  <defs
     id="defs2819">
    <clipPath
       id="clipPath4186"
       clipPathUnits="userSpaceOnUse">
      <circle
         id="path4188"
         style="color:#000000"
         cy="26"
         cx="286"
         r="10"
         fill="url(#linearGradient4190)" />
    </clipPath>
  </defs>
  <g
     id="g4185">
    <circle
       id="path4230"
       style="color:#000000;fill:#37a0f2"
       cy="24"
       cx="24"
       r="20" />
    <path
       id="path4169"
       d="M 22.111328 4.1074219 A 20 20 0 0 0 14.873047 6.2070312 C 14.973687 6.527062 14.856307 6.8881735 14.488281 7.2070312 C 14.239276 7.4227953 14.035156 7.7589034 14.035156 7.9550781 C 14.035156 8.5547569 14.577447 9.4756018 15.009766 9.609375 C 15.585259 9.7874463 15.391592 10.400992 14.652344 10.740234 C 14.310023 10.897325 13.889386 11.348642 13.716797 11.744141 C 13.544207 12.139642 13.289556 12.530136 13.152344 12.611328 C 13.015074 12.692518 12.902344 13.001761 12.902344 13.298828 C 12.902344 13.713658 13.091712 13.914771 13.714844 14.164062 C 14.16109 14.342584 14.694946 14.472644 14.902344 14.453125 C 16.092874 14.341075 16.176319 15.034583 15.134766 16.390625 C 14.581806 17.110555 14.315969 17.291652 13.939453 17.201172 C 13.58803 17.116712 13.395974 17.216131 13.236328 17.564453 C 13.067551 17.932679 12.791837 18.058097 12.050781 18.109375 C 11.322372 18.159785 10.995886 18.307756 10.722656 18.707031 C 10.523467 18.998109 10.235416 19.234375 10.082031 19.234375 C 9.928645 19.234375 9.568363 19.429554 9.28125 19.667969 C 8.696767 20.153326 8.4685519 20.202171 8.2636719 19.884766 C 7.9928599 19.465222 7.4086245 19.677184 6.5390625 20.509766 C 5.7700985 21.246023 5.6769657 21.442938 5.7929688 22.082031 C 5.9993558 23.21913 6.6160855 24.228158 7.3203125 24.580078 C 7.9348235 24.887176 7.9467807 24.920298 7.5742188 25.314453 C 7.3598798 25.541236 6.9922085 25.784238 6.7578125 25.855469 C 6.0808395 26.061195 6.4618679 26.319216 7.6699219 26.472656 C 8.9062709 26.629678 9.2905306 27.078322 8.7128906 27.689453 C 8.3907556 28.030274 8.4088953 28.093697 8.9257812 28.417969 C 9.9358142 29.051614 10.738871 28.663608 9.7910156 28 C 9.1816686 27.573388 9.6077538 27.399393 10.501953 27.708984 C 11.214545 27.955692 11.355508 27.941658 11.777344 27.576172 C 12.641898 26.827031 13.581616 27.935041 12.791016 28.771484 C 12.287828 29.303839 12.440344 29.946396 13.091797 30.035156 C 13.379621 30.074386 13.977692 30.342256 14.421875 30.630859 C 14.866044 30.919461 15.350005 31.15625 15.496094 31.15625 C 15.642182 31.15625 16.05427 31.449014 16.412109 31.806641 C 17.13817 32.532247 17.541257 32.624375 17.746094 32.113281 C 17.992382 31.498744 17.893303 31.182097 17.230469 30.458984 C 16.702743 29.88325 15.845703 28.352849 15.845703 27.986328 C 15.845703 27.759682 16.717282 27.95185 17.205078 28.285156 C 17.510357 28.49377 18.004313 28.762761 18.302734 28.884766 C 18.621298 29.014971 18.951021 29.418917 19.101562 29.861328 C 19.337495 30.554641 19.430464 30.615234 20.261719 30.615234 L 21.166016 30.615234 L 21.302734 32.240234 C 21.467273 34.194776 21.623979 34.590708 22.294922 34.751953 C 22.789162 34.870717 23.316406 35.635991 23.316406 36.234375 C 23.316406 36.39344 22.960816 36.783032 22.527344 37.099609 C 21.989163 37.492634 21.757152 37.826756 21.792969 38.154297 C 21.837639 38.563271 21.745073 38.627008 21.166016 38.583984 C 20.792516 38.556194 20.14526 38.68713 19.728516 38.875 C 19.236055 39.096989 18.7018 39.168057 18.201172 39.078125 C 17.625097 38.974615 17.429688 39.014818 17.429688 39.240234 C 17.429688 39.405973 17.228496 39.716471 16.982422 39.929688 C 16.373885 40.456989 16.625334 40.735991 17.558594 40.568359 C 18.138652 40.464168 18.364943 40.510483 18.464844 40.759766 C 18.677803 41.291113 18.138029 42.051301 17.636719 41.925781 C 17.319407 41.846381 17.166809 41.954544 17.068359 42.330078 C 17.0335 42.463076 16.971238 42.575737 16.896484 42.671875 A 20 20 0 0 0 20.060547 43.607422 C 19.960713 43.415653 19.847249 43.242498 19.736328 43.164062 C 19.22092 42.799611 19.565703 41.85414 20.275391 41.683594 C 20.997827 41.509996 20.884018 41.040967 20.097656 40.951172 C 19.409404 40.872582 18.675724 40.175483 18.90625 39.818359 C 19.060818 39.578897 19.719985 39.613805 21.052734 39.929688 C 21.654571 40.072341 22.066495 39.786185 23.460938 38.259766 C 24.268366 37.375926 24.888802 37.007813 25.570312 37.007812 C 25.829843 37.007812 26.756661 36.769005 27.630859 36.476562 C 29.281363 35.924445 29.926017 35.944381 29.865234 36.546875 C 29.738776 37.800545 30.54646 37.759154 31.861328 36.445312 C 32.409339 35.897717 32.909587 35.50221 32.974609 35.564453 C 33.226146 35.805291 32.773762 36.978491 32.246094 37.453125 C 31.577372 38.054628 31.544204 38.434691 32.132812 38.736328 C 32.455303 38.901576 32.592095 39.237294 32.642578 39.990234 L 32.710938 41.017578 L 33.546875 41.017578 C 33.84012 41.017578 34.082798 41.057786 34.279297 41.132812 A 20 20 0 0 0 43.96875 24.626953 C 43.662778 23.973189 43.684788 23.577925 43.96875 23.132812 A 20 20 0 0 0 43.878906 22.011719 C 43.696528 22.003443 43.510876 21.995022 43.296875 22.003906 C 42.289305 22.045856 41.425781 21.64862 41.425781 21.142578 C 41.425781 21.035935 41.068371 20.595394 40.630859 20.164062 C 40.135296 19.675504 39.880583 19.244249 39.955078 19.019531 C 40.022638 18.81572 39.876715 18.48689 39.619141 18.263672 C 39.368372 18.046384 39.162109 17.696176 39.162109 17.486328 C 39.162109 17.151267 38.948848 17.109171 37.408203 17.146484 L 35.654297 17.189453 L 35.683594 18.917969 C 35.735654 21.946003 36.186542 22.731931 37.578125 22.224609 C 38.215083 21.992406 39.77997 22.168216 40.224609 22.521484 C 40.385519 22.649374 40.618588 23.113266 40.742188 23.552734 C 40.8658 23.992202 41.32415 24.752735 41.761719 25.242188 C 42.648265 26.233881 42.717108 26.620777 42.208984 27.785156 C 41.765682 28.800999 41.288361 28.683896 41.382812 27.582031 L 41.453125 26.761719 L 40.703125 26.902344 C 40.288159 26.980524 39.768015 27.287486 39.535156 27.589844 C 39.20322 28.020868 39.047649 28.084423 38.798828 27.886719 C 38.625471 27.748955 38.484375 27.457979 38.484375 27.242188 C 38.484375 27.026411 38.270136 26.786149 38.009766 26.707031 C 37.749395 26.627901 37.392488 26.234631 37.216797 25.832031 C 36.935758 25.188035 36.942745 24.991112 37.269531 24.208984 C 37.601096 23.415566 37.604355 23.284671 37.298828 22.992188 C 37.018642 22.72392 36.874209 22.715267 36.505859 22.935547 C 36.13553 23.156977 35.961342 23.140633 35.521484 22.845703 C 35.2275 22.648543 34.715289 22.486328 34.382812 22.486328 C 33.707803 22.486328 33.503906 22.15791 33.503906 21.072266 C 33.503906 20.06945 32.905713 19.704993 31.482422 19.835938 C 30.493998 19.926877 30.276143 19.861764 29.478516 19.248047 C 28.986252 18.869279 28.208319 17.9568 27.748047 17.21875 C 27.287761 16.4807 26.79255 15.709604 26.648438 15.505859 C 26.440072 15.211245 26.490727 14.928481 26.898438 14.125 L 27.412109 13.115234 L 26.326172 13.261719 C 24.393706 13.523057 24.003014 13.773497 24.833984 14.21875 C 25.157626 14.392167 25.171763 14.481257 24.921875 14.769531 C 24.758191 14.958362 24.68117 15.256952 24.751953 15.433594 C 24.822793 15.610237 24.733304 16.025912 24.552734 16.357422 C 24.372137 16.688931 24.220874 17.154162 24.214844 17.392578 C 24.195914 18.138299 22.919505 18.730789 21.498047 18.652344 C 19.343844 18.533471 19.169249 18.567454 18.404297 19.277344 C 17.44812 20.164683 17.32455 20.578445 17.769531 21.402344 C 18.201296 22.201769 18.966522 22.52082 20.292969 22.455078 C 21.47919 22.396238 21.613333 22.500943 21.341797 23.285156 C 21.111284 23.950821 20.336612 24.207481 19.8125 23.791016 C 19.408402 23.469903 18.015246 23.718063 17.587891 24.1875 C 17.408729 24.384306 17.142856 24.899741 16.998047 25.332031 C 16.748046 26.078271 16.675175 26.123627 15.554688 26.232422 C 14.43686 26.340971 14.329475 26.305153 13.525391 25.564453 C 12.627834 24.737625 12.475811 24.106463 12.908203 23.017578 C 13.099611 22.535548 13.242397 22.457159 13.753906 22.550781 C 14.767934 22.736377 15.167969 22.383837 15.167969 21.300781 C 15.167969 20.775576 15.065913 20.284612 14.941406 20.210938 C 14.816939 20.137268 14.714844 19.85894 14.714844 19.591797 C 14.714844 19.324654 14.587288 18.981153 14.431641 18.830078 C 14.204813 18.609901 14.237602 18.492088 14.599609 18.236328 C 14.848002 18.060839 15.256243 17.942687 15.505859 17.972656 C 15.75549 18.002636 16.443892 17.894836 17.037109 17.734375 C 17.894253 17.50253 18.145943 17.327543 18.261719 16.876953 C 18.48169 16.020884 19.018663 15.333984 19.46875 15.333984 C 20.179989 15.333984 20.194533 13.661798 19.503906 11.230469 C 19.401942 10.871374 19.121331 10.642677 18.625 10.519531 C 18.223462 10.419911 17.786047 10.145877 17.654297 9.9101562 C 17.522575 9.6744365 17.282228 9.4824219 17.119141 9.4824219 C 16.956068 9.4824219 16.637458 9.2872445 16.412109 9.0488281 C 16.185281 8.8088495 15.71592 8.6152344 15.359375 8.6152344 C 14.514451 8.6152344 14.500434 8.0333909 15.337891 7.7265625 C 16.223186 7.4022219 17.600506 7.8273652 17.933594 8.5273438 C 18.385231 9.4764127 18.885737 9.0803686 19.046875 7.6464844 C 19.246179 5.8729606 19.857615 5.3632813 21.787109 5.3632812 L 23.173828 5.3632812 L 22.566406 4.7558594 C 22.376745 4.5663202 22.220122 4.3345557 22.111328 4.1074219 z M 29.300781 4.7363281 C 29.262276 4.771547 29.224322 4.8002505 29.185547 4.8398438 C 28.721819 5.3133684 28.504423 5.3808768 27.787109 5.2714844 C 26.535156 5.0805614 26.69628 5.5846712 28.082031 6.1933594 C 28.831422 6.5225283 29.312749 6.8977287 29.476562 7.2773438 C 30.266891 9.1089083 30.810625 10.094878 31.083984 10.195312 C 31.636417 10.398283 31.965302 9.9906049 32.087891 8.9492188 C 32.228574 7.7543789 32.633158 7.5010721 33.359375 8.1542969 C 33.641198 8.4077944 34.034701 8.6152344 34.234375 8.6152344 C 34.854704 8.6152344 35.314453 8.8644618 35.314453 9.2011719 C 35.314453 9.3786304 35.523767 9.8061207 35.78125 10.152344 C 36.159816 10.66137 36.417188 10.783203 37.125 10.783203 C 37.99368 10.783203 38.526967 10.945728 39.615234 11.546875 C 39.632135 11.55621 39.649059 11.559434 39.666016 11.568359 A 20 20 0 0 0 29.300781 4.7363281 z M 4.0039062 23.914062 A 20 20 0 0 0 4 24 A 20 20 0 0 0 4.390625 27.841797 C 5.1151937 28.136999 5.3153989 28.020009 5.390625 27.345703 C 5.429455 26.997269 5.611682 26.601518 5.796875 26.464844 C 6.082964 26.253697 6.0314315 26.145698 5.4453125 25.746094 C 5.0659235 25.487428 4.6920064 25.035066 4.6152344 24.742188 C 4.5408413 24.458346 4.2891646 24.148003 4.0039062 23.914062 z M 10.298828 30.525391 C 10.11227 30.505781 9.8867047 30.606378 9.6367188 30.845703 C 9.1078117 31.352099 9.1876764 32.369497 9.7871094 32.771484 C 10.473641 33.231913 10.739415 33.09781 10.826172 32.248047 C 10.933285 31.199572 10.709272 30.568456 10.298828 30.525391 z M 13.693359 33.548828 C 13.489105 33.555628 13.264099 33.702137 13.039062 34.009766 C 12.800242 34.336218 12.73465 34.7572 12.826172 35.396484 C 12.93869 36.182139 12.88959 36.349904 12.478516 36.560547 C 11.950365 36.831185 11.837382 37.63506 12.269531 38.048828 C 12.69996 38.460948 13.109903 38.353275 13.257812 37.789062 C 13.468469 36.985456 14.644692 36.890644 15.449219 37.613281 C 15.791596 37.920815 16.072266 38.077108 16.072266 37.958984 C 16.072266 37.840901 15.715059 37.412196 15.279297 37.007812 C 14.611855 36.388413 14.488281 36.123989 14.488281 35.326172 C 14.488281 34.19956 14.142734 33.534636 13.693359 33.548828 z M 8.1191406 36.130859 A 20 20 0 0 0 8.5820312 36.714844 C 8.445699 36.504256 8.290071 36.301628 8.1191406 36.130859 z M 14.859375 39.201172 C 14.757584 39.236084 14.714844 39.362962 14.714844 39.585938 C 14.714844 39.811603 14.57052 40.048628 14.394531 40.113281 C 14.16086 40.199081 14.106654 40.470289 14.197266 41.117188 C 14.214246 41.238388 14.218693 41.335421 14.224609 41.435547 A 20 20 0 0 0 15.056641 41.863281 C 15.042902 41.517359 15.106114 41.110046 15.287109 40.599609 C 15.594037 39.734006 15.605001 39.516685 15.355469 39.365234 C 15.120667 39.222731 14.961166 39.166259 14.859375 39.201172 z "
       style="fill:#000000;fill-opacity:1;opacity:0.2" />
    <circle
       id="path4240"
       style="color:#000000;opacity:0;stroke-width:0.45455"
       clip-path="url(#clipPath4186)"
       transform="matrix(2,0,0,2,-548,-28)"
       cy="26"
       cx="286"
       r="10" />
    <circle
       id="path4242"
       style="color:#000000;opacity:0;stroke-width:0.90908998"
       clip-path="url(#clipPath4186)"
       transform="matrix(2,0,0,2,-548,-28)"
       cy="26"
       cx="286"
       r="10" />
    <path
       id="rect3436"
       d="M 24,4 C 12.921,4 4.002,12.92 4.002,24 c 0,0.16772 -0.004,0.33329 0,0.5 C 4.2662,13.654 13.089,5 24,5 c 10.911,0 19.734,8.6536 19.998,19.5 0.004,-0.16671 0,-0.33228 0,-0.5 C 43.998,12.92 35.079,4 24,4 Z"
       inkscape:connector-curvature="0"
       style="opacity:0.2;fill:#ffffff" />
    <path
       id="circle4330"
       style="color:#000000;opacity:0.3"
       d="M 43.979,23.418 A 20,20 0 0 1 24,43 20,20 0 0 1 4.022,23.582 20,20 0 0 0 4,24 20,20 0 0 0 24,44 20,20 0 0 0 44,24 20,20 0 0 0 43.979,23.418 Z"
       inkscape:connector-curvature="0" />
  </g>
</svg>
