<?xml version="1.0" encoding="UTF-8" standalone="no"?>
<!-- Created with Inkscape (http://www.inkscape.org/) -->

<svg
   xmlns:dc="http://purl.org/dc/elements/1.1/"
   xmlns:cc="http://creativecommons.org/ns#"
   xmlns:rdf="http://www.w3.org/1999/02/22-rdf-syntax-ns#"
   xmlns:svg="http://www.w3.org/2000/svg"
   xmlns="http://www.w3.org/2000/svg"
   xmlns:sodipodi="http://sodipodi.sourceforge.net/DTD/sodipodi-0.dtd"
   xmlns:inkscape="http://www.inkscape.org/namespaces/inkscape"
   width="48"
   height="48"
   viewBox="0 0 48 48.000001"
   id="svg4559"
   version="1.1"
   inkscape:version="0.91 r"
   sodipodi:docname="smplayer.svg">
  <defs
     id="defs4561" />
  <sodipodi:namedview
     id="base"
     pagecolor="#ffffff"
     bordercolor="#666666"
     borderopacity="1.0"
     inkscape:pageopacity="0.0"
     inkscape:pageshadow="2"
     inkscape:zoom="8.6599296"
     inkscape:cx="10.653931"
     inkscape:cy="26.403183"
     inkscape:document-units="px"
     inkscape:current-layer="layer1"
     showgrid="false"
     units="px"
     inkscape:window-width="1600"
     inkscape:window-height="843"
     inkscape:window-x="-4"
     inkscape:window-y="31"
     inkscape:window-maximized="1" />
  <metadata
     id="metadata4564">
    <rdf:RDF>
      <cc:Work
         rdf:about="">
        <dc:format>image/svg+xml</dc:format>
        <dc:type
           rdf:resource="http://purl.org/dc/dcmitype/StillImage" />
        <dc:title />
      </cc:Work>
    </rdf:RDF>
  </metadata>
  <g
     inkscape:label="Layer 1"
     inkscape:groupmode="layer"
     id="layer1"
     transform="translate(0,-1004.3622)">
    <path
       id="path4706"
       d="m 37.99985,1028.3622 a 14,14 0 0 1 -14,14 14,14 0 0 1 -14,-14 14,14 0 0 1 14,-14 14,14 0 0 1 14,14 z"
       inkscape:connector-curvature="0"
       style="fill:#4d4d4d;fill-opacity:1" />
    <path
       id="rect4203-6-2"
       d="m 23.99985,1008.3622 c -11.08,0 -20,8.92 -20,20 0,11.08 8.92,20 20,20 11.08,0 20,-8.92 20,-20 0,-11.08 -8.92,-20 -20,-20 z m 0,3 a 6,6 0 0 1 6,6 6,6 0 0 1 -6,6 6,6 0 0 1 -6,-6 6,6 0 0 1 6,-6 z m -11,11 a 6,6 0 0 1 6,6 6,6 0 0 1 -6,6 6,6 0 0 1 -6,-6 6,6 0 0 1 6,-6 z m 22,0 a 6,6 0 0 1 6,6 6,6 0 0 1 -6,6 6,6 0 0 1 -6,-6 6,6 0 0 1 6,-6 z m -11,11 a 6,6 0 0 1 6,6 6,6 0 0 1 -6,6 6,6 0 0 1 -6,-6 6,6 0 0 1 6,-6 z"
       style="fill:#d2d2d2;fill-opacity:1"
       inkscape:connector-curvature="0" />
    <path
       id="path4709"
       d="m 23.36585,1025.2642 a 1,1 0 0 1 -0.366,1.366 1,1 0 0 1 -1.366,-0.366 1,1 0 0 1 0.366,-1.366 1,1 0 0 1 1.366,0.366 z"
       inkscape:connector-curvature="0"
       style="fill:#4d4d4d;fill-opacity:1" />
    <path
       id="path4712"
       d="m 26.36585,1030.4602 a 1,1 0 0 1 -0.366,1.366 1,1 0 0 1 -1.366,-0.366 1,1 0 0 1 0.366,-1.366 1,1 0 0 1 1.366,0.366 z"
       inkscape:connector-curvature="0"
       style="fill:#4d4d4d;fill-opacity:1" />
    <path
       id="path4720"
       d="m 27.09785,1027.7282 a 1,1 0 0 1 -1.366,-0.366 1,1 0 0 1 0.366,-1.366 1,1 0 0 1 1.366,0.366 1,1 0 0 1 -0.366,1.366 z"
       inkscape:connector-curvature="0"
       style="fill:#4d4d4d;fill-opacity:1" />
    <path
       id="path4722"
       d="m 21.90185,1030.7282 a 1,1 0 0 1 -1.366,-0.366 1,1 0 0 1 0.366,-1.366 1,1 0 0 1 1.366,0.366 1,1 0 0 1 -0.366,1.366 z"
       inkscape:connector-curvature="0"
       style="fill:#4d4d4d;fill-opacity:1" />
    <path
       id="path4732"
       d="m 23.99985,1008.3622 c -11.08,0 -20,8.92 -20,20 0,0.168 0.0076,0.333 0.0117,0.5 0.2647,-10.846 9.0763,-19.5 19.988,-19.5 10.9117,0 19.724,8.654 19.988,19.5 0.004,-0.167 0.012,-0.332 0.012,-0.5 0,-11.08 -8.92,-20 -20,-20 z m -5.9746,9.498 a 6,6 0 0 0 -0.025,0.502 6,6 0 0 0 6,6 6,6 0 0 0 6,-6 6,6 0 0 0 -0.025,-0.498 6,6 0 0 1 -5.975,5.498 6,6 0 0 1 -5.975,-5.502 z m -11,11 a 6,6 0 0 0 -0.025,0.502 6,6 0 0 0 6,6 6,6 0 0 0 6,-6 6,6 0 0 0 -0.025,-0.498 6,6 0 0 1 -5.975,5.498 6,6 0 0 1 -5.9746,-5.502 z m 22,0 a 6,6 0 0 0 -0.025,0.502 6,6 0 0 0 6,6 6,6 0 0 0 6,-6 6,6 0 0 0 -0.025,-0.498 6,6 0 0 1 -5.975,5.498 6,6 0 0 1 -5.975,-5.502 z m -11,11 a 6,6 0 0 0 -0.025,0.502 6,6 0 0 0 6,6 6,6 0 0 0 6,-6 6,6 0 0 0 -0.025,-0.498 6,6 0 0 1 -5.975,5.498 6,6 0 0 1 -5.975,-5.502 z"
       inkscape:connector-curvature="0"
       style="opacity:0.2;fill:#ffffff" />
    <path
       id="path4737"
       d="m 23.99985,1010.3622 a 6,6 0 0 0 -6,6 6,6 0 0 0 0.02539,0.4981 6,6 0 0 1 5.975,-5.498 6,6 0 0 1 5.975,5.502 6,6 0 0 0 0.025,-0.502 6,6 0 0 0 -6,-6 z m -11,11 a 6,6 0 0 0 -6,6 6,6 0 0 0 0.0254,0.498 6,6 0 0 1 5.9746,-5.498 6,6 0 0 1 5.975,5.502 6,6 0 0 0 0.025,-0.502 6,6 0 0 0 -6,-6 z m 22,0 a 6,6 0 0 0 -6,6 6,6 0 0 0 0.02539,0.4981 6,6 0 0 1 5.975,-5.498 6,6 0 0 1 5.975,5.502 6,6 0 0 0 0.025,-0.502 6,6 0 0 0 -6,-6 z m -30.988,6.5 c -0.0041,0.167 -0.0117,0.332 -0.0117,0.5 0,11.08 8.92,20 20,20 11.08,0 20,-8.92 20,-20 0,-0.1679 -0.0076,-0.3331 -0.01172,-0.5 -0.264,10.846 -9.076,19.5 -19.988,19.5 -10.912,0 -19.724,-8.654 -19.988,-19.5 z m 19.988,4.5 a 6,6 0 0 0 -6,6 6,6 0 0 0 0.02539,0.4981 6,6 0 0 1 5.975,-5.498 6,6 0 0 1 5.975,5.502 6,6 0 0 0 0.025,-0.502 6,6 0 0 0 -6,-6 z"
       inkscape:connector-curvature="0"
       style="opacity:0.3" />
  </g>
</svg>
