<?xml version="1.0" encoding="UTF-8" standalone="no"?>
<!-- Created with Inkscape (http://www.inkscape.org/) -->

<svg
   xmlns:dc="http://purl.org/dc/elements/1.1/"
   xmlns:cc="http://creativecommons.org/ns#"
   xmlns:rdf="http://www.w3.org/1999/02/22-rdf-syntax-ns#"
   xmlns:svg="http://www.w3.org/2000/svg"
   xmlns="http://www.w3.org/2000/svg"
   xmlns:sodipodi="http://sodipodi.sourceforge.net/DTD/sodipodi-0.dtd"
   xmlns:inkscape="http://www.inkscape.org/namespaces/inkscape"
   width="48"
   height="48"
   viewBox="0 0 48 48.000001"
   id="svg4559"
   version="1.1"
   inkscape:version="0.91 r"
   sodipodi:docname="smplayer.svg">
  <defs
     id="defs4561" />
  <sodipodi:namedview
     id="base"
     pagecolor="#ffffff"
     bordercolor="#666666"
     borderopacity="1.0"
     inkscape:pageopacity="0.0"
     inkscape:pageshadow="2"
     inkscape:zoom="0.35"
     inkscape:cx="-87.857143"
     inkscape:cy="520"
     inkscape:document-units="px"
     inkscape:current-layer="layer1"
     showgrid="false"
     units="px"
     inkscape:window-width="1600"
     inkscape:window-height="846"
     inkscape:window-x="-5"
     inkscape:window-y="28"
     inkscape:window-maximized="1" />
  <metadata
     id="metadata4564">
    <rdf:RDF>
      <cc:Work
         rdf:about="">
        <dc:format>image/svg+xml</dc:format>
        <dc:type
           rdf:resource="http://purl.org/dc/dcmitype/StillImage" />
        <dc:title></dc:title>
      </cc:Work>
    </rdf:RDF>
  </metadata>
  <g
     inkscape:label="Layer 1"
     inkscape:groupmode="layer"
     id="layer1"
     transform="translate(0,-1004.3622)">
    <g
       transform="translate(-1.5e-4,1004.3622)"
       id="g5107">
      <path
         style="fill:#242424"
         inkscape:connector-curvature="0"
         d="M 38,24 A 14,14 0 0 1 24,38 14,14 0 0 1 10,24 14,14 0 0 1 24,10 14,14 0 0 1 38,24 Z"
         id="path4706" />
      <path
         inkscape:connector-curvature="0"
         style="fill:#d2d2d2;fill-opacity:1"
         d="M 24,4 C 12.92,4 4,12.92 4,24 4,35.08 12.92,44 24,44 35.08,44 44,35.08 44,24 44,12.92 35.08,4 24,4 Z m 0,3 a 6,6 0 0 1 6,6 6,6 0 0 1 -6,6 6,6 0 0 1 -6,-6 6,6 0 0 1 6,-6 z M 13,18 a 6,6 0 0 1 6,6 6,6 0 0 1 -6,6 6,6 0 0 1 -6,-6 6,6 0 0 1 6,-6 z m 22,0 a 6,6 0 0 1 6,6 6,6 0 0 1 -6,6 6,6 0 0 1 -6,-6 6,6 0 0 1 6,-6 z M 24,29 a 6,6 0 0 1 6,6 6,6 0 0 1 -6,6 6,6 0 0 1 -6,-6 6,6 0 0 1 6,-6 z"
         id="rect4203-6-2" />
      <path
         style="fill:#242424"
         inkscape:connector-curvature="0"
         d="M 23.366,20.902 A 1,1 0 0 1 23,22.268 1,1 0 0 1 21.634,21.902 1,1 0 0 1 22,20.536 a 1,1 0 0 1 1.366,0.36602 z"
         id="path4709" />
      <path
         style="fill:#242424"
         inkscape:connector-curvature="0"
         d="M 26.366,26.098 A 1,1 0 0 1 26,27.464 1,1 0 0 1 24.634,27.098 1,1 0 0 1 25,25.732 a 1,1 0 0 1 1.366,0.36603 z"
         id="path4712" />
      <path
         style="fill:#242424"
         inkscape:connector-curvature="0"
         d="M 27.098,23.366 A 1,1 0 0 1 25.732,23 1,1 0 0 1 26.098,21.634 1,1 0 0 1 27.464,22 1,1 0 0 1 27.098,23.366 Z"
         id="path4720" />
      <path
         style="fill:#242424"
         inkscape:connector-curvature="0"
         d="M 21.902,26.366 A 1,1 0 0 1 20.536,26 1,1 0 0 1 20.902,24.634 1,1 0 0 1 22.268,25 1,1 0 0 1 21.902,26.366 Z"
         id="path4722" />
      <path
         style="opacity:0.2;fill:#ffffff"
         inkscape:connector-curvature="0"
         d="M 24,4 C 12.92,4 4,12.92 4,24 4,24.168 4.0076,24.333 4.0117,24.5 4.2764,13.654 13.088,5 23.9997,5 c 10.9117,0 19.724,8.654 19.988,19.5 0.004,-0.167 0.012,-0.332 0.012,-0.5 0,-11.08 -8.92,-20 -20,-20 z m -5.9746,9.498 a 6,6 0 0 0 -0.025,0.502 6,6 0 0 0 6,6 6,6 0 0 0 6,-6 6,6 0 0 0 -0.025,-0.498 6,6 0 0 1 -5.975,5.498 6,6 0 0 1 -5.975,-5.502 z m -11,11 A 6,6 0 0 0 7.0004,25 a 6,6 0 0 0 6,6 6,6 0 0 0 6,-6 6,6 0 0 0 -0.025,-0.498 A 6,6 0 0 1 13.0004,30 6,6 0 0 1 7.0258,24.498 Z m 22,0 a 6,6 0 0 0 -0.025,0.502 6,6 0 0 0 6,6 6,6 0 0 0 6,-6 6,6 0 0 0 -0.025,-0.498 6,6 0 0 1 -5.975,5.498 6,6 0 0 1 -5.975,-5.502 z m -11,11 a 6,6 0 0 0 -0.025,0.502 6,6 0 0 0 6,6 6,6 0 0 0 6,-6 6,6 0 0 0 -0.025,-0.498 6,6 0 0 1 -5.975,5.498 6,6 0 0 1 -5.975,-5.502 z"
         id="path4732" />
      <path
         style="opacity:0.3"
         inkscape:connector-curvature="0"
         d="m 24,6 a 6,6 0 0 0 -6,6 6,6 0 0 0 0.02539,0.49805 6,6 0 0 1 5.975,-5.498 6,6 0 0 1 5.975,5.502 6,6 0 0 0 0.025,-0.502 6,6 0 0 0 -6,-6 z M 13,17 A 6,6 0 0 0 7,23 6,6 0 0 0 7.0254,23.498 6,6 0 0 1 13,18 6,6 0 0 1 18.975,23.502 6,6 0 0 0 19,23 6,6 0 0 0 13,17 Z m 22,0 a 6,6 0 0 0 -6,6 6,6 0 0 0 0.02539,0.49805 6,6 0 0 1 5.975,-5.498 6,6 0 0 1 5.975,5.502 6,6 0 0 0 0.025,-0.502 6,6 0 0 0 -6,-6 z M 4.012,23.5 c -0.0041,0.167 -0.0117,0.332 -0.0117,0.5 0,11.08 8.92,20 20,20 11.08,0 20,-8.92 20,-20 0,-0.16787 -0.0076,-0.33314 -0.01172,-0.5 -0.264,10.846 -9.076,19.5 -19.988,19.5 -10.912,0 -19.724,-8.654 -19.988,-19.5 z M 24,28 a 6,6 0 0 0 -6,6 6,6 0 0 0 0.02539,0.49805 6,6 0 0 1 5.975,-5.498 6,6 0 0 1 5.975,5.502 6,6 0 0 0 0.025,-0.502 6,6 0 0 0 -6,-6 z"
         id="path4737" />
    </g>
  </g>
</svg>
