<?xml version="1.0" encoding="UTF-8" standalone="no"?>
<!-- Created with Inkscape (http://www.inkscape.org/) -->

<svg
   xmlns:dc="http://purl.org/dc/elements/1.1/"
   xmlns:cc="http://creativecommons.org/ns#"
   xmlns:rdf="http://www.w3.org/1999/02/22-rdf-syntax-ns#"
   xmlns:svg="http://www.w3.org/2000/svg"
   xmlns="http://www.w3.org/2000/svg"
   xmlns:sodipodi="http://sodipodi.sourceforge.net/DTD/sodipodi-0.dtd"
   xmlns:inkscape="http://www.inkscape.org/namespaces/inkscape"
   id="svg2817"
   height="48"
   width="48"
   version="1.0"
   inkscape:version="0.91 r"
   sodipodi:docname="telegram.svg">
  <sodipodi:namedview
     pagecolor="#ffffff"
     bordercolor="#666666"
     borderopacity="1"
     objecttolerance="10"
     gridtolerance="10"
     guidetolerance="10"
     inkscape:pageopacity="0"
     inkscape:pageshadow="2"
     inkscape:window-width="1600"
     inkscape:window-height="841"
     id="namedview16"
     showgrid="false"
     inkscape:zoom="1"
     inkscape:cx="23.79661"
     inkscape:cy="24"
     inkscape:window-x="-4"
     inkscape:window-y="33"
     inkscape:window-maximized="1"
     inkscape:current-layer="svg2817" />
  <metadata
     id="metadata57">
    <rdf:RDF>
      <cc:Work
         rdf:about="">
        <dc:format>image/svg+xml</dc:format>
        <dc:type
           rdf:resource="http://purl.org/dc/dcmitype/StillImage" />
        <dc:title></dc:title>
      </cc:Work>
    </rdf:RDF>
  </metadata>
  <defs
     id="defs2819">
    <clipPath
       id="clipPath4186"
       clipPathUnits="userSpaceOnUse">
      <circle
         id="path4188"
         style="color:#000000"
         cy="26"
         cx="286"
         r="10"
         fill="url(#linearGradient4190)" />
    </clipPath>
  </defs>
  <circle
     r="20"
     cx="24"
     cy="24"
     style="color:#000000;fill:#37a0f2"
     id="path4230" />
  <circle
     r="10"
     cx="286"
     cy="26"
     transform="matrix(2,0,0,2,-548,-28)"
     clip-path="url(#clipPath4186)"
     style="color:#000000;opacity:0;stroke-width:0.45455"
     id="path4240" />
  <circle
     r="10"
     cx="286"
     cy="26"
     transform="matrix(2,0,0,2,-548,-28)"
     clip-path="url(#clipPath4186)"
     style="color:#000000;opacity:0;stroke-width:0.90908998"
     id="path4242" />
  <path
     style="opacity:0.2;fill:#ffffff"
     inkscape:connector-curvature="0"
     d="M 24,4 C 12.921,4 4.002,12.92 4.002,24 c 0,0.16772 -0.004,0.33329 0,0.5 C 4.2662,13.654 13.089,5 24,5 c 10.911,0 19.734,8.6536 19.998,19.5 0.004,-0.16671 0,-0.33228 0,-0.5 C 43.998,12.92 35.079,4 24,4 Z"
     id="rect3436" />
  <path
     inkscape:connector-curvature="0"
     d="M 43.979,23.418 A 20,20 0 0 1 24,43 20,20 0 0 1 4.022,23.582 20,20 0 0 0 4,24 20,20 0 0 0 24,44 20,20 0 0 0 44,24 20,20 0 0 0 43.979,23.418 Z"
     style="color:#000000;opacity:0.3"
     id="circle4330" />
  <path
     style="opacity:0.2;fill:#000000;fill-opacity:1"
     d="m 25.24904,35.83406 c -0.5291,-0.32118 -0.86649,-0.87715 -2.336,-3.84935 -0.81331,-1.64502 -1.58749,-3.1061 -1.72039,-3.24686 C 21.04344,28.57981 19.81708,27.9283 17.98574,27.03417 14.36726,25.26747 14,24.98665 14,23.98663 c 0,-0.46704 0.22784,-0.91347 0.58512,-1.14651 0.12276,-0.08 3.90589,-1.43359 8.40694,-3.0078 7.90846,-2.76595 8.20253,-2.86107 8.74274,-2.82815 0.46753,0.0285 0.60297,0.076 0.82757,0.29019 0.33674,0.32115 0.48821,0.76633 0.42267,1.24225 -0.0705,0.51156 -5.7484,16.54977 -5.95956,16.83367 -0.45032,0.60542 -1.21445,0.80491 -1.77644,0.46378 z"
     id="path4158"
     inkscape:connector-curvature="0" />
  <path
     inkscape:connector-curvature="0"
     id="path4193"
     d="m 25.24904,34.83406 c -0.5291,-0.32118 -0.86649,-0.87715 -2.336,-3.84935 -0.81331,-1.64502 -1.58749,-3.1061 -1.72039,-3.24686 C 21.04344,27.57981 19.81708,26.9283 17.98574,26.03417 14.36726,24.26747 14,23.98665 14,22.98663 c 0,-0.46704 0.22784,-0.91347 0.58512,-1.14651 0.12276,-0.08 3.90589,-1.43359 8.40694,-3.0078 7.90846,-2.76595 8.20253,-2.86107 8.74274,-2.82815 0.46753,0.0285 0.60297,0.076 0.82757,0.29019 0.33674,0.32115 0.48821,0.76633 0.42267,1.24225 -0.0705,0.51156 -5.7484,16.54977 -5.95956,16.83367 -0.45032,0.60542 -1.21445,0.80491 -1.77644,0.46378 z"
     style="fill:#ffffff;fill-opacity:1" />
</svg>
