<?xml version="1.0" encoding="UTF-8" standalone="no"?>
<svg id="svg2" xmlns:rdf="http://www.w3.org/1999/02/22-rdf-syntax-ns#" xmlns="http://www.w3.org/2000/svg" height="16px" width="16px" version="1.1" xmlns:cc="http://creativecommons.org/ns#" xmlns:dc="http://purl.org/dc/elements/1.1/" viewBox="0 0 16 16">
 <metadata id="metadata17">
  <rdf:RDF>
   <cc:Work rdf:about="">
    <dc:format>image/svg+xml</dc:format>
    <dc:type rdf:resource="http://purl.org/dc/dcmitype/StillImage"/>
   </cc:Work>
  </rdf:RDF>
 </metadata>
 <g id="surface1" transform="matrix(1.2,0,0,1.2,-1.6,-1.1)">
  <path id="path5" d="m3.625 1.75c-0.3477 0-0.625 0.2773-0.625 0.625v11.25c0 0.34766 0.27734 0.625 0.625 0.625h8.75c0.348 0 0.625-0.277 0.625-0.625v-8.125l-3.4375-0.3125-0.3125-3.4375z" fill="#bf352e"/>
  <path id="path7" d="m9.25 1.75v3.125c0 0.3438 0.2812 0.625 0.625 0.625h3.125z" fill="#f36861"/>
  <path id="path9" d="m7.4922 6.1406c-0.14063 0-0.27734 0.070313-0.30859 0.1875-0.1211 0.4453 0.0117 1.1367 0.2383 1.9961l-0.0664 0.168c-0.1719 0.4219-0.3907 0.8398-0.5821 1.2148-0.7851 1.535-1.3945 2.367-1.8007 2.422l-0.00391-0.01563c-0.00781-0.19141 0.34375-0.6875 0.82422-1.0781 0.050781-0.04297 0.26562-0.24609 0.26562-0.24609s-0.28906 0.15234-0.35547 0.19141c-0.59765 0.35547-0.89843 0.71485-0.94531 0.95313-0.0156 0.075-0.0078 0.161 0.0547 0.196l0.15625 0.07813c0.4179 0.207 0.9296-0.34 1.6132-1.539 0.6953-0.23 1.5664-0.445 2.3555-0.559 0.70703 0.40234 1.5195 0.59375 1.832 0.51172 0.05859-0.01563 0.12109-0.0625 0.15234-0.10547 0.02344-0.03906 0.05859-0.19531 0.05859-0.19531s-0.05859 0.07813-0.10547 0.10156c-0.19922 0.09375-0.82031-0.0625-1.4609-0.375 0.55469-0.058594 1.0156-0.0625 1.2617 0.01563 0.3125 0.10156 0.3125 0.20312 0.30859 0.22656 0.004-0.019 0.016-0.086 0.016-0.117-0.008-0.074-0.031-0.141-0.086-0.1954-0.117-0.1172-0.402-0.1719-0.793-0.1797-0.2929 0-0.6444 0.0234-1.0272 0.0781-0.1719-0.1016-0.3594-0.2109-0.504-0.3477-0.371-0.3476-0.6836-0.8281-0.875-1.3671 0.0118-0.0508 0.0235-0.1016 0.0352-0.1524 0.0547-0.2422 0.0938-1.039 0.0938-1.039s-0.15234 0.59766-0.17578 0.6875c-0.0157 0.0585-0.0352 0.121-0.0586 0.1835-0.1172-0.4101-0.1758-0.8125-0.1758-1.1132 0-0.085937 0.00781-0.25391 0.03125-0.38281 0.0118-0.0938 0.0469-0.1446 0.0821-0.168 0.070313 0.015625 0.14844 0.125 0.22656 0.30469 0.070312 0.15234 0.066406 0.33203 0.066406 0.44531 0 0 0.078125-0.27734 0.058594-0.4375-0.0118-0.0977-0.1016-0.3477-0.3008-0.3477zm0.0703 2.4922c0.2031 0.4102 0.4844 0.8008 0.8555 1.1133 0.082 0.0703 0.1679 0.1367 0.2578 0.1992-0.67188 0.125-1.375 0.30078-2.0312 0.57422 0.12109-0.21094 0.25-0.4375 0.37891-0.6875 0.2538-0.4804 0.4101-0.8476 0.539-1.1992z" fill="#fff"/>
  <path id="path11" d="m3.625 1.75c-0.3477 0-0.625 0.2773-0.625 0.625v0.5c0-0.3477 0.2773-0.625 0.625-0.625h5.625v-0.5z" fill-opacity=".10196" fill="#fff"/>
 </g>
</svg>
