<?xml version="1.0" encoding="UTF-8" standalone="no"?>
<svg
   xmlns:dc="http://purl.org/dc/elements/1.1/"
   xmlns:cc="http://creativecommons.org/ns#"
   xmlns:rdf="http://www.w3.org/1999/02/22-rdf-syntax-ns#"
   xmlns:svg="http://www.w3.org/2000/svg"
   xmlns="http://www.w3.org/2000/svg"
   xmlns:sodipodi="http://sodipodi.sourceforge.net/DTD/sodipodi-0.dtd"
   xmlns:inkscape="http://www.inkscape.org/namespaces/inkscape"
   width="16px"
   height="16px"
   viewBox="0 0 16 16"
   version="1.1"
   id="svg2"
   inkscape:version="0.91 r"
   sodipodi:docname="application-vnd.android.package-archive.svg">
  <metadata
     id="metadata17">
    <rdf:RDF>
      <cc:Work
         rdf:about="">
        <dc:format>image/svg+xml</dc:format>
        <dc:type
           rdf:resource="http://purl.org/dc/dcmitype/StillImage" />
      </cc:Work>
    </rdf:RDF>
  </metadata>
  <defs
     id="defs15" />
  <sodipodi:namedview
     pagecolor="#ffffff"
     bordercolor="#666666"
     borderopacity="1"
     objecttolerance="10"
     gridtolerance="10"
     guidetolerance="10"
     inkscape:pageopacity="0"
     inkscape:pageshadow="2"
     inkscape:window-width="1535"
     inkscape:window-height="876"
     id="namedview13"
     showgrid="false"
     inkscape:zoom="14.75"
     inkscape:cx="-4.0338983"
     inkscape:cy="8"
     inkscape:window-x="65"
     inkscape:window-y="24"
     inkscape:window-maximized="1"
     inkscape:current-layer="svg2" />
  <g
     id="surface1"
     transform="matrix(1.2,0,0,1.2,-1.6,-1.1)">
    <path
       style="fill:#a1c538;fill-opacity:1;fill-rule:nonzero;stroke:none"
       d="M 3.625,1.75 C 3.277344,1.75 3,2.027344 3,2.375 l 0,11.25 c 0,0.347656 0.277344,0.625 0.625,0.625 l 8.75,0 C 12.722656,14.25 13,13.972656 13,13.625 L 13,5.5 9.5625,5.1875 9.25,1.75 Z m 0,0"
       id="path5"
       inkscape:connector-curvature="0" />
    <path
       style="fill:#d7f57a;fill-opacity:1;fill-rule:nonzero;stroke:none"
       d="m 9.25,1.75 0,3.125 C 9.25,5.21875 9.53125,5.5 9.875,5.5 L 13,5.5 Z m 0,0"
       id="path7"
       inkscape:connector-curvature="0" />
    <path
       style="fill:#ffffff;fill-opacity:1;fill-rule:nonzero;stroke:none"
       d="M 6.765625,6.195312 C 6.75,6.191406 6.734375,6.191406 6.722656,6.203125 6.699219,6.21875 6.691406,6.25 6.710938,6.277344 L 7.03125,6.71875 C 6.523438,6.945312 6.046875,7.5 6,8 L 9.75,8 C 9.703125,7.5 9.164062,6.945312 8.660156,6.71875 L 8.976562,6.277344 C 8.996094,6.25 8.992188,6.21875 8.964844,6.203125 8.941406,6.183594 8.90625,6.191406 8.886719,6.21875 L 8.558594,6.679688 C 8.339844,6.597656 8.097656,6.550781 7.84375,6.550781 c -0.253906,0 -0.496094,0.046875 -0.710938,0.128907 L 6.800781,6.21875 C 6.792969,6.207031 6.777344,6.195312 6.765625,6.195312 Z M 7.25,7 C 7.390625,7 7.5,7.113281 7.5,7.25 7.5,7.386719 7.386719,7.5 7.25,7.5 7.113281,7.5 7,7.386719 7,7.25 7,7.113281 7.113281,7 7.25,7 Z M 8.5,7 C 8.640625,7 8.75,7.113281 8.75,7.25 8.75,7.386719 8.636719,7.5 8.5,7.5 8.363281,7.5 8.25,7.386719 8.25,7.25 8.25,7.113281 8.363281,7 8.5,7 Z M 5.390625,8.25 C 5.175781,8.25 5,8.421875 5,8.628906 l 0,1.488282 C 5,10.328125 5.175781,10.5 5.390625,10.5 5.605469,10.5 5.75,10.328125 5.75,10.117188 l 0,-1.488282 C 5.75,8.421875 5.609375,8.25 5.390625,8.25 Z M 6,8.25 6,10.976562 C 6,11.140625 6.203125,11.25 6.371094,11.25 l 0.378906,0 0,0.941406 C 6.75,12.394531 6.945312,12.5 7.125,12.5 7.304688,12.5 7.527344,12.394531 7.5,12.191406 l 0,-0.941406 0.75,0 0,0.941406 C 8.25,12.394531 8.445312,12.5 8.625,12.5 8.804688,12.5 9.011719,12.394531 9,12.191406 L 9,11.25 l 0.316406,0 C 9.484375,11.25 9.75,11.140625 9.75,10.976562 L 9.75,8.25 Z m 4.390625,0 C 10.175781,8.25 10,8.421875 10,8.628906 l 0,1.488282 C 10,10.328125 10.175781,10.5 10.390625,10.5 10.605469,10.5 10.75,10.328125 10.75,10.117188 l 0,-1.488282 C 10.75,8.421875 10.609375,8.25 10.390625,8.25 Z m 0,0"
       id="path9"
       inkscape:connector-curvature="0" />
    <path
       style="fill:#ffffff;fill-opacity:0.10196102;fill-rule:nonzero;stroke:none"
       d="M 3.625,1.75 C 3.277344,1.75 3,2.027344 3,2.375 l 0,0.5 C 3,2.527344 3.277344,2.25 3.625,2.25 l 5.625,0 c 0,-0.5 0,0 0,-0.5 z m 0,0"
       id="path11"
       inkscape:connector-curvature="0" />
  </g>
</svg>
