<?xml version="1.0" encoding="UTF-8" standalone="no"?>
<svg
   xmlns:dc="http://purl.org/dc/elements/1.1/"
   xmlns:cc="http://creativecommons.org/ns#"
   xmlns:rdf="http://www.w3.org/1999/02/22-rdf-syntax-ns#"
   xmlns:svg="http://www.w3.org/2000/svg"
   xmlns="http://www.w3.org/2000/svg"
   xmlns:sodipodi="http://sodipodi.sourceforge.net/DTD/sodipodi-0.dtd"
   xmlns:inkscape="http://www.inkscape.org/namespaces/inkscape"
   width="16px"
   height="16px"
   viewBox="0 0 16 16"
   version="1.1"
   id="svg2"
   inkscape:version="0.91 r"
   sodipodi:docname="application-x-iso.svg">
  <metadata
     id="metadata19">
    <rdf:RDF>
      <cc:Work
         rdf:about="">
        <dc:format>image/svg+xml</dc:format>
        <dc:type
           rdf:resource="http://purl.org/dc/dcmitype/StillImage" />
      </cc:Work>
    </rdf:RDF>
  </metadata>
  <defs
     id="defs17" />
  <sodipodi:namedview
     pagecolor="#ffffff"
     bordercolor="#666666"
     borderopacity="1"
     objecttolerance="10"
     gridtolerance="10"
     guidetolerance="10"
     inkscape:pageopacity="0"
     inkscape:pageshadow="2"
     inkscape:window-width="1535"
     inkscape:window-height="876"
     id="namedview15"
     showgrid="false"
     inkscape:zoom="14.75"
     inkscape:cx="-4.0338983"
     inkscape:cy="8"
     inkscape:window-x="65"
     inkscape:window-y="24"
     inkscape:window-maximized="1"
     inkscape:current-layer="svg2" />
  <g
     id="surface1"
     transform="matrix(1.2,0,0,1.2,-1.6,-1.1)">
    <path
       style="fill:#c26375;fill-opacity:1;fill-rule:nonzero;stroke:none"
       d="M 3.625,1.75 C 3.277344,1.75 3,2.027344 3,2.375 l 0,11.25 c 0,0.347656 0.277344,0.625 0.625,0.625 l 8.75,0 C 12.722656,14.25 13,13.972656 13,13.625 L 13,5.5 9.5625,5.1875 9.25,1.75 Z m 0,0"
       id="path5"
       inkscape:connector-curvature="0" />
    <path
       style="fill:#ffffff;fill-opacity:0.50196078;fill-rule:nonzero;stroke:none"
       d="M 8,7.5 C 7.035156,7.5 6.25,8.285156 6.25,9.25 6.25,10.214844 7.035156,11 8,11 8.964844,11 9.75,10.214844 9.75,9.25 9.75,8.285156 8.964844,7.5 8,7.5 Z m 0,1 C 8.414062,8.5 8.75,8.835938 8.75,9.25 8.75,9.664062 8.414062,10 8,10 7.585938,10 7.25,9.664062 7.25,9.25 7.25,8.835938 7.585938,8.5 8,8.5 Z m 0,0"
       id="path7"
       inkscape:connector-curvature="0" />
    <path
       style="fill:#deb0b8;fill-opacity:1;fill-rule:nonzero;stroke:none"
       d="m 9.25,1.75 0,3.125 C 9.25,5.21875 9.53125,5.5 9.875,5.5 L 13,5.5 Z m 0,0"
       id="path9"
       inkscape:connector-curvature="0" />
    <path
       style="fill:#ffffff;fill-opacity:1;fill-rule:nonzero;stroke:none"
       d="M 8,6 C 6.199219,6 4.75,7.449219 4.75,9.25 c 0,1.800781 1.449219,3.25 3.25,3.25 1.800781,0 3.25,-1.449219 3.25,-3.25 C 11.25,7.449219 9.800781,6 8,6 Z M 8,8 C 8.691406,8 9.25,8.558594 9.25,9.25 9.25,9.941406 8.691406,10.5 8,10.5 7.308594,10.5 6.75,9.941406 6.75,9.25 6.75,8.558594 7.308594,8 8,8 Z m 0,0"
       id="path11"
       inkscape:connector-curvature="0" />
    <path
       style="fill:#ffffff;fill-opacity:0.10196102;fill-rule:nonzero;stroke:none"
       d="M 3.625,1.75 C 3.277344,1.75 3,2.027344 3,2.375 l 0,0.5 C 3,2.527344 3.277344,2.25 3.625,2.25 l 5.625,0 c 0,-0.5 0,0 0,-0.5 z m 0,0"
       id="path13"
       inkscape:connector-curvature="0" />
  </g>
</svg>
