<?xml version="1.0" encoding="UTF-8" standalone="no"?>
<svg
   xmlns:dc="http://purl.org/dc/elements/1.1/"
   xmlns:cc="http://creativecommons.org/ns#"
   xmlns:rdf="http://www.w3.org/1999/02/22-rdf-syntax-ns#"
   xmlns:svg="http://www.w3.org/2000/svg"
   xmlns="http://www.w3.org/2000/svg"
   xmlns:sodipodi="http://sodipodi.sourceforge.net/DTD/sodipodi-0.dtd"
   xmlns:inkscape="http://www.inkscape.org/namespaces/inkscape"
   width="16px"
   height="16px"
   viewBox="0 0 16 16"
   version="1.1"
   id="svg2"
   inkscape:version="0.91 r"
   sodipodi:docname="application-x-fictionbook.svg">
  <metadata
     id="metadata56">
    <rdf:RDF>
      <cc:Work
         rdf:about="">
        <dc:format>image/svg+xml</dc:format>
        <dc:type
           rdf:resource="http://purl.org/dc/dcmitype/StillImage" />
      </cc:Work>
    </rdf:RDF>
  </metadata>
  <sodipodi:namedview
     pagecolor="#ffffff"
     bordercolor="#666666"
     borderopacity="1"
     objecttolerance="10"
     gridtolerance="10"
     guidetolerance="10"
     inkscape:pageopacity="0"
     inkscape:pageshadow="2"
     inkscape:window-width="1535"
     inkscape:window-height="876"
     id="namedview54"
     showgrid="false"
     inkscape:zoom="1"
     inkscape:cx="-4.0338983"
     inkscape:cy="8"
     inkscape:window-x="65"
     inkscape:window-y="24"
     inkscape:window-maximized="1"
     inkscape:current-layer="svg2" />
  <defs
     id="defs4">
    <linearGradient
       id="linear0"
       gradientUnits="userSpaceOnUse"
       x1="24"
       y1="24"
       x2="44"
       y2="24"
       gradientTransform="matrix(0.325,0,0,0.333333,0.2,1.5e-7)">
      <stop
         offset="0"
         style="stop-color:rgb(0%,0%,0%);stop-opacity:0.101961;"
         id="stop7" />
      <stop
         offset="1"
         style="stop-color:rgb(0%,0%,0%);stop-opacity:0;"
         id="stop9" />
    </linearGradient>
  </defs>
  <g
     id="surface1"
     transform="translate(-0.5,0)">
    <path
       style="fill:#dcd4a6;fill-opacity:1;fill-rule:nonzero;stroke:none"
       d="m 14.5,13.332031 0,-10.664062 C 14.5,2.296875 14.210938,2 13.851562,2 L 2.148438,2 C 1.789062,2 1.5,2.296875 1.5,2.667969 l 0,10.664062 C 1.5,13.703125 1.789062,14 2.148438,14 l 11.703124,0 C 14.210938,14 14.5,13.703125 14.5,13.332031 Z m 0,0"
       id="path12"
       inkscape:connector-curvature="0" />
    <path
       style="fill:#000000;fill-opacity:0.50196096;fill-rule:nonzero;stroke:none"
       d="m 8.75,8.25 5,0 0,-0.5 -5,0 z m 0,0"
       id="path14"
       inkscape:connector-curvature="0" />
    <path
       style="fill:#000000;fill-opacity:0.50196096;fill-rule:nonzero;stroke:none"
       d="m 8.75,7.25 5,0 0,-0.5 -5,0 z m 0,0"
       id="path16"
       inkscape:connector-curvature="0" />
    <path
       style="fill:#000000;fill-opacity:0.50196096;fill-rule:nonzero;stroke:none"
       d="m 8.75,6.25 4.5,0 0,-0.5 -4.5,0 z m 0,0"
       id="path18"
       inkscape:connector-curvature="0" />
    <path
       style="fill:#000000;fill-opacity:0.50196096;fill-rule:nonzero;stroke:none"
       d="m 8.75,5.25 3.5,0 0,-0.5 -3.5,0 z m 0,0"
       id="path20"
       inkscape:connector-curvature="0" />
    <path
       style="fill:#000000;fill-opacity:0.50196096;fill-rule:nonzero;stroke:none"
       d="m 8.75,4.25 5,0 0,-0.5 -5,0 z m 0,0"
       id="path22"
       inkscape:connector-curvature="0" />
    <path
       style="fill:#000000;fill-opacity:0.50196096;fill-rule:nonzero;stroke:none"
       d="m 8.75,3.25 4,0 0,-0.5 -4,0 z m 0,0"
       id="path24"
       inkscape:connector-curvature="0" />
    <path
       style="fill:#000000;fill-opacity:0.50196096;fill-rule:nonzero;stroke:none"
       d="m 2.25,3 5,0 0,0.5 -5,0 z m 0,0"
       id="path26"
       inkscape:connector-curvature="0" />
    <path
       style="fill:#000000;fill-opacity:0.50196096;fill-rule:nonzero;stroke:none"
       d="m 2.25,4 4.5,0 0,0.5 -4.5,0 z m 0,0"
       id="path28"
       inkscape:connector-curvature="0" />
    <path
       style="fill:#000000;fill-opacity:0.50196096;fill-rule:nonzero;stroke:none"
       d="m 2.25,5 4,0 0,0.5 -4,0 z m 0,0"
       id="path30"
       inkscape:connector-curvature="0" />
    <path
       style="fill:#000000;fill-opacity:0.50196096;fill-rule:nonzero;stroke:none"
       d="m 2.25,6 3.5,0 0,0.5 -3.5,0 z m 0,0"
       id="path32"
       inkscape:connector-curvature="0" />
    <path
       style="fill:#000000;fill-opacity:0.50196096;fill-rule:nonzero;stroke:none"
       d="m 2.25,7 3,0 0,0.5 -3,0 z m 0,0"
       id="path34"
       inkscape:connector-curvature="0" />
    <path
       style="fill:#000000;fill-opacity:0.50196096;fill-rule:nonzero;stroke:none"
       d="m 2.25,8 5,0 0,0.5 -5,0 z m 0,0"
       id="path36"
       inkscape:connector-curvature="0" />
    <path
       style="fill:#000000;fill-opacity:0.50196096;fill-rule:nonzero;stroke:none"
       d="m 2.25,9 5,0 0,0.5 -5,0 z m 0,0"
       id="path38"
       inkscape:connector-curvature="0" />
    <path
       style="fill:#000000;fill-opacity:0.50196096;fill-rule:nonzero;stroke:none"
       d="m 2.25,10 4.5,0 0,0.5 -4.5,0 z m 0,0"
       id="path40"
       inkscape:connector-curvature="0" />
    <path
       style="fill:#000000;fill-opacity:0.50196096;fill-rule:nonzero;stroke:none"
       d="m 2.25,11 3.5,0 0,0.5 -3.5,0 z m 0,0"
       id="path42"
       inkscape:connector-curvature="0" />
    <path
       style="fill:#000000;fill-opacity:0.50196096;fill-rule:nonzero;stroke:none"
       d="m 2.25,12 5,0 0,0.5 -5,0 z m 0,0"
       id="path44"
       inkscape:connector-curvature="0" />
    <path
       style="fill:#000000;fill-opacity:0.50196096;fill-rule:nonzero;stroke:none"
       d="m 2.25,13 4,0 0,0.5 -4,0 z m 0,0"
       id="path46"
       inkscape:connector-curvature="0" />
    <path
       style="fill:url(#linear0);fill-rule:nonzero;stroke:none"
       d="m 14.5,13.332031 0,-10.664062 C 14.5,2.296875 14.210938,2 13.851562,2 L 8,2 8,14 13.851562,14 C 14.210938,14 14.5,13.703125 14.5,13.332031 Z m 0,0"
       id="path48"
       inkscape:connector-curvature="0" />
    <path
       style="fill:#ff5757;fill-opacity:1;fill-rule:nonzero;stroke:none"
       d="m 5.5,2 2,0 0,5.332031 L 6.5,6 5.5,7.332031 Z m 0,0"
       id="path50"
       inkscape:connector-curvature="0" />
    <path
       style="fill:#ffffff;fill-opacity:0.2;fill-rule:nonzero;stroke:none"
       d="M 2.148438,2 C 1.789062,2 1.5,2.296875 1.5,2.667969 l 0,0.5 C 1.5,2.796875 1.789062,2.5 2.148438,2.5 l 11.703124,0 C 14.210938,2.5 14.5,2.796875 14.5,3.167969 l 0,-0.5 C 14.5,2.296875 14.210938,2 13.851562,2 Z m 0,0"
       id="path52"
       inkscape:connector-curvature="0" />
  </g>
</svg>
