<?xml version="1.0" encoding="UTF-8" standalone="no"?>
<svg
   xmlns:dc="http://purl.org/dc/elements/1.1/"
   xmlns:cc="http://creativecommons.org/ns#"
   xmlns:rdf="http://www.w3.org/1999/02/22-rdf-syntax-ns#"
   xmlns:svg="http://www.w3.org/2000/svg"
   xmlns="http://www.w3.org/2000/svg"
   xmlns:sodipodi="http://sodipodi.sourceforge.net/DTD/sodipodi-0.dtd"
   xmlns:inkscape="http://www.inkscape.org/namespaces/inkscape"
   width="16px"
   height="16px"
   viewBox="0 0 16 16"
   version="1.1"
   id="svg2"
   inkscape:version="0.91 r"
   sodipodi:docname="application-x-ms-dos-executable.svg">
  <metadata
     id="metadata19">
    <rdf:RDF>
      <cc:Work
         rdf:about="">
        <dc:format>image/svg+xml</dc:format>
        <dc:type
           rdf:resource="http://purl.org/dc/dcmitype/StillImage" />
        <dc:title></dc:title>
      </cc:Work>
    </rdf:RDF>
  </metadata>
  <defs
     id="defs17" />
  <sodipodi:namedview
     pagecolor="#ffffff"
     bordercolor="#666666"
     borderopacity="1"
     objecttolerance="10"
     gridtolerance="10"
     guidetolerance="10"
     inkscape:pageopacity="0"
     inkscape:pageshadow="2"
     inkscape:window-width="1535"
     inkscape:window-height="876"
     id="namedview15"
     showgrid="false"
     inkscape:zoom="1"
     inkscape:cx="-16.067797"
     inkscape:cy="8"
     inkscape:window-x="65"
     inkscape:window-y="24"
     inkscape:window-maximized="1"
     inkscape:current-layer="svg2"
     showborder="false" />
  <g
     id="g4158"
     transform="matrix(0.8666666,0,0,0.8666666,0.13333347,2.0000001)">
    <path
       style="fill:#9e333f;fill-opacity:1;fill-rule:nonzero;stroke:none"
       d="m 16.000001,14.251803 0,-13.50360508 C 16.000001,0.33353329 15.666467,2e-7 15.251803,2e-7 l -13.5036054,0 C 1.333533,2e-7 0.99999992,0.33353329 0.99999992,0.74819792 l 0,13.50360508 c 0,0.414665 0.33353308,0.748198 0.74819768,0.748198 l 13.5036054,0 c 0.414664,0 0.748198,-0.333533 0.748198,-0.748198 z m 0,0"
       id="path5"
       inkscape:connector-curvature="0" />
    <path
       style="fill:#ffffff;fill-opacity:0.2;fill-rule:nonzero;stroke:none"
       d="M 1.7481976,2e-7 C 1.333533,2e-7 0.99999992,0.33353329 0.99999992,0.74819792 l 0,0.57692308 c 0,-0.41466461 0.33353308,-0.7481977 0.74819768,-0.7481977 l 13.5036054,0 c 0.414664,0 0.748198,0.33353309 0.748198,0.7481977 l 0,-0.57692308 C 16.000001,0.33353329 15.666467,2e-7 15.251803,2e-7 Z m 0,0"
       id="path7"
       inkscape:connector-curvature="0" />
    <path
       style="fill:#000000;fill-opacity:0.30196102;fill-rule:nonzero;stroke:none"
       d="m 0.99999992,13.67488 0,0.576923 c 0,0.414665 0.33353308,0.748198 0.74819768,0.748198 l 13.5036054,0 c 0.414664,0 0.748198,-0.333533 0.748198,-0.748198 l 0,-0.576923 c 0,0.414665 -0.333534,0.748198 -0.748198,0.748198 l -13.5036054,0 c -0.4146646,0 -0.74819768,-0.333533 -0.74819768,-0.748198 z m 0,0"
       id="path9"
       inkscape:connector-curvature="0" />
    <path
       style="fill:#000000;fill-opacity:0.2;fill-rule:nonzero;stroke:none"
       d="m 2.8118985,2.3076926 c -0.2028243,0 -0.3695908,0.1667665 -0.3695908,0.3695908 l 0,4.4531263 c 0,0.2028243 0.1667665,0.3695908 0.3695908,0.3695908 l 4.4531263,0 c 0.2028242,0 0.3695908,-0.1667665 0.3695908,-0.3695908 l 0,-4.4531263 c 0,-0.2028243 -0.1667666,-0.3695908 -0.3695908,-0.3695908 z m 6.9230772,0 c -0.2028243,0 -0.3695908,0.1667665 -0.3695908,0.3695908 l 0,4.4531263 c 0,0.2028243 0.1667665,0.3695908 0.3695908,0.3695908 l 4.4531263,0 c 0.202824,0 0.369591,-0.1667665 0.369591,-0.3695908 l 0,-4.4531263 c 0,-0.2028243 -0.166767,-0.3695908 -0.369591,-0.3695908 z M 2.8118985,8.9423083 c -0.2028243,0 -0.3695908,0.1667665 -0.3695908,0.3695907 l 0,4.453126 c 0,0.202825 0.1667665,0.369591 0.3695908,0.369591 l 4.4531263,0 c 0.2028242,0 0.3695908,-0.166766 0.3695908,-0.369591 l 0,-4.453126 c 0,-0.2028242 -0.1667666,-0.3695907 -0.3695908,-0.3695907 z m 6.9230772,0 c -0.2028243,0 -0.3695908,0.1667665 -0.3695908,0.3695907 l 0,4.453126 c 0,0.202825 0.1667665,0.369591 0.3695908,0.369591 l 4.4531263,0 c 0.202824,0 0.369591,-0.166766 0.369591,-0.369591 l 0,-4.453126 c 0,-0.2028242 -0.166767,-0.3695907 -0.369591,-0.3695907 z m 0,0"
       id="path11"
       inkscape:connector-curvature="0" />
    <path
       style="fill:#ffffff;fill-opacity:1;fill-rule:nonzero;stroke:none"
       d="m 2.8118985,1.7307695 c -0.2028243,0 -0.3695908,0.1667665 -0.3695908,0.3695908 l 0,4.4531263 c 0,0.2028243 0.1667665,0.3695908 0.3695908,0.3695908 l 4.4531263,0 c 0.2028242,0 0.3695908,-0.1667665 0.3695908,-0.3695908 l 0,-4.4531263 c 0,-0.2028243 -0.1667666,-0.3695908 -0.3695908,-0.3695908 z m 6.9230772,0 c -0.2028243,0 -0.3695908,0.1667665 -0.3695908,0.3695908 l 0,4.4531263 c 0,0.2028243 0.1667665,0.3695908 0.3695908,0.3695908 l 4.4531263,0 c 0.202824,0 0.369591,-0.1667665 0.369591,-0.3695908 l 0,-4.4531263 c 0,-0.2028243 -0.166767,-0.3695908 -0.369591,-0.3695908 z M 2.8118985,8.3653852 c -0.2028243,0 -0.3695908,0.1667665 -0.3695908,0.3695907 l 0,4.4531261 c 0,0.202825 0.1667665,0.369591 0.3695908,0.369591 l 4.4531263,0 c 0.2028242,0 0.3695908,-0.166766 0.3695908,-0.369591 l 0,-4.4531261 c 0,-0.2028242 -0.1667666,-0.3695907 -0.3695908,-0.3695907 z m 6.9230772,0 c -0.2028243,0 -0.3695908,0.1667665 -0.3695908,0.3695907 l 0,4.4531261 c 0,0.202825 0.1667665,0.369591 0.3695908,0.369591 l 4.4531263,0 c 0.202824,0 0.369591,-0.166766 0.369591,-0.369591 l 0,-4.4531261 c 0,-0.2028242 -0.166767,-0.3695907 -0.369591,-0.3695907 z m 0,0"
       id="path13"
       inkscape:connector-curvature="0" />
  </g>
</svg>
