<?xml version="1.0" encoding="UTF-8" standalone="no"?>
<svg
   xmlns:dc="http://purl.org/dc/elements/1.1/"
   xmlns:cc="http://creativecommons.org/ns#"
   xmlns:rdf="http://www.w3.org/1999/02/22-rdf-syntax-ns#"
   xmlns:svg="http://www.w3.org/2000/svg"
   xmlns="http://www.w3.org/2000/svg"
   xmlns:sodipodi="http://sodipodi.sourceforge.net/DTD/sodipodi-0.dtd"
   xmlns:inkscape="http://www.inkscape.org/namespaces/inkscape"
   width="16px"
   height="16px"
   viewBox="0 0 16 16"
   version="1.1"
   id="svg2"
   inkscape:version="0.91 r"
   sodipodi:docname="application-x-executable.svg">
  <metadata
     id="metadata13">
    <rdf:RDF>
      <cc:Work
         rdf:about="">
        <dc:format>image/svg+xml</dc:format>
        <dc:type
           rdf:resource="http://purl.org/dc/dcmitype/StillImage" />
      </cc:Work>
    </rdf:RDF>
  </metadata>
  <defs
     id="defs11" />
  <sodipodi:namedview
     pagecolor="#ffffff"
     bordercolor="#666666"
     borderopacity="1"
     objecttolerance="10"
     gridtolerance="10"
     guidetolerance="10"
     inkscape:pageopacity="0"
     inkscape:pageshadow="2"
     inkscape:window-width="1535"
     inkscape:window-height="876"
     id="namedview9"
     showgrid="false"
     inkscape:zoom="14.75"
     inkscape:cx="-4.0338983"
     inkscape:cy="8"
     inkscape:window-x="65"
     inkscape:window-y="24"
     inkscape:window-maximized="1"
     inkscape:current-layer="svg2" />
  <g
     id="surface1"
     transform="matrix(1.12,0,0,1.12,-0.96000086,-0.96)">
    <path
       style="fill:#7f949e;fill-opacity:1;fill-rule:nonzero;stroke:none"
       d="m 6.683594,1.75 0.00391,0 C 6.550781,1.765625 6.429688,1.875 6.40625,2.003906 L 6.1875,3.078125 C 5.601562,3.292969 5.054688,3.617188 4.578125,4.027344 L 3.457031,3.65625 C 3.316406,3.609375 3.148438,3.667969 3.074219,3.792969 L 1.789062,5.960938 C 1.71875,6.085938 1.75,6.257812 1.859375,6.351562 L 2.820312,7.171875 C 2.777344,7.445312 2.753906,7.722656 2.75,8 c 0,0.277344 0.023438,0.558594 0.070312,0.832031 L 1.859375,9.652344 C 1.746094,9.746094 1.714844,9.917969 1.789062,10.042969 l 1.285157,2.167969 c 0.074219,0.125 0.242187,0.183593 0.378906,0.136718 l 1.121094,-0.371094 c 0.476562,0.40625 1.023437,0.726563 1.613281,0.941407 l 0.214844,1.078125 C 6.429688,14.136719 6.566406,14.25 6.714844,14.25 l 2.570312,0 c 0.144532,0 0.28125,-0.113281 0.308594,-0.253906 L 9.8125,12.921875 c 0.589844,-0.214844 1.132812,-0.539063 1.609375,-0.945313 l 1.125,0.367188 c 0.136719,0.04687 0.304687,-0.01172 0.378906,-0.136719 l 1.285157,-2.167969 c 0.07422,-0.125 0.04297,-0.296874 -0.07031,-0.390624 L 13.179688,8.828125 C 13.222656,8.554688 13.246094,8.277344 13.25,8 13.25,7.71875 13.22656,7.441406 13.17969,7.164062 L 14.140625,6.347656 C 14.25,6.253906 14.28125,6.082031 14.210938,5.957031 L 12.925781,3.789062 c -0.07422,-0.125 -0.242187,-0.183593 -0.382812,-0.140624 l -1.121094,0.375 C 10.949219,3.617188 10.402344,3.296875 9.8125,3.078125 L 9.59375,2.003906 C 9.566406,1.863281 9.429688,1.753906 9.285156,1.75 l -2.570312,0 c -0.011719,0 -0.019532,0 -0.03125,0 z M 8,5.5 c 1.378906,0 2.5,1.121094 2.5,2.5 0,1.378906 -1.121094,2.5 -2.5,2.5 C 6.621094,10.5 5.5,9.378906 5.5,8 5.5,6.621094 6.621094,5.5 8,5.5 Z m 0,0"
       id="path5"
       inkscape:connector-curvature="0" />
    <path
       style="fill:#ffffff;fill-opacity:0.10196102;fill-rule:nonzero;stroke:none"
       d="m 6.683594,1.75 0.00391,0 C 6.550781,1.765625 6.429688,1.875 6.40625,2.003906 L 6.1875,3.078125 C 5.601562,3.292969 5.054688,3.617188 4.578125,4.027344 L 3.457031,3.65625 C 3.316406,3.609375 3.148438,3.667969 3.074219,3.792969 L 1.789062,5.960938 C 1.71875,6.085938 1.75,6.253906 1.855469,6.347656 L 3.074219,4.292969 C 3.148438,4.167969 3.316406,4.109375 3.457031,4.15625 L 4.578125,4.527344 C 5.054688,4.117188 5.601562,3.792969 6.1875,3.578125 L 6.40625,2.503906 C 6.429688,2.375 6.550781,2.265625 6.6875,2.25 l -0.00391,0 c 0.011718,0 0.019531,0 0.03125,0 l 2.570312,0 c 0.144532,0.00391 0.28125,0.113281 0.308594,0.253906 L 9.8125,3.578125 c 0.589844,0.21875 1.136719,0.539063 1.609375,0.945313 l 1.121094,-0.375 c 0.140625,-0.042969 0.308593,0.015624 0.382812,0.140624 L 14.140625,6.34375 C 14.25,6.25 14.28125,6.078125 14.210938,5.957031 L 12.925781,3.789062 c -0.07422,-0.125 -0.242187,-0.183593 -0.382812,-0.140624 l -1.121094,0.375 C 10.949219,3.617188 10.402344,3.296875 9.8125,3.078125 L 9.59375,2.003906 C 9.566406,1.863281 9.429688,1.753906 9.285156,1.75 l -2.570312,0 c -0.011719,0 -0.019532,0 -0.03125,0 z m 6.546875,5.875 -0.05078,0.039062 c 0.03516,0.210938 0.05469,0.421876 0.05859,0.632813 C 13.246094,8.199219 13.25,8.097656 13.25,8 13.246094,7.875 13.242188,7.75 13.230469,7.625 Z M 2.769531,7.628906 C 2.757812,7.753906 2.753906,7.875 2.75,8 2.753906,8.066406 2.753906,8.136719 2.761719,8.203125 2.773438,8.027344 2.792969,7.847656 2.820312,7.671875 Z M 5.511719,8.25 C 5.503906,8.332031 5.5,8.414062 5.5,8.5 5.5,9.878906 6.621094,11 8,11 9.378906,11 10.5,9.878906 10.5,8.5 10.5,8.414062 10.496094,8.332031 10.488281,8.25 10.363281,9.511719 9.296875,10.5 8,10.5 6.703125,10.5 5.636719,9.511719 5.511719,8.25 Z m 7.71875,0.625 c -0.01172,0.152344 -0.02734,0.304688 -0.05078,0.453125 l 0.960937,0.820313 c 0,0 0.0039,0.0039 0.0039,0.0039 l 0.06641,-0.113282 c 0.07422,-0.125 0.04297,-0.296874 -0.07031,-0.390624 z m -10.460938,0 -0.910156,0.777344 C 1.746094,9.746094 1.714844,9.917969 1.789062,10.042969 l 0.066407,0.113281 c 0,0 0.00391,-0.0039 0.00391,-0.0039 L 2.820312,9.332031 C 2.796875,9.179688 2.78125,9.027344 2.769531,8.875 Z m 0,0"
       id="path7"
       inkscape:connector-curvature="0" />
  </g>
</svg>
