<?xml version="1.0" encoding="UTF-8" standalone="no"?>
<svg id="svg2" xmlns:rdf="http://www.w3.org/1999/02/22-rdf-syntax-ns#" xmlns="http://www.w3.org/2000/svg" height="16px" width="16px" version="1.1" xmlns:cc="http://creativecommons.org/ns#" xmlns:dc="http://purl.org/dc/elements/1.1/" viewBox="0 0 16 16">
 <metadata id="metadata13">
  <rdf:RDF>
   <cc:Work rdf:about="">
    <dc:format>image/svg+xml</dc:format>
    <dc:type rdf:resource="http://purl.org/dc/dcmitype/StillImage"/>
   </cc:Work>
  </rdf:RDF>
 </metadata>
 <g id="surface1" transform="matrix(1.12 0 0 1.12 -0.96 -.96)">
  <path id="path5" d="m6.6836 1.75h0.00391c-0.1367 0.0156-0.2578 0.125-0.2813 0.2539l-0.2187 1.0742c-0.5859 0.2149-1.1328 0.5391-1.6094 0.9492l-1.1211-0.3711c-0.1406-0.0468-0.3086 0.0118-0.3828 0.1368l-1.2851 2.1679c-0.0703 0.125-0.0391 0.2969 0.0703 0.3907l0.9609 0.8203c-0.043 0.2734-0.0664 0.5508-0.0703 0.8281 0 0.27734 0.023438 0.55859 0.070312 0.83203l-0.9609 0.8203c-0.1133 0.0938-0.1446 0.2657-0.0703 0.3907l1.2852 2.168c0.074219 0.125 0.24219 0.18359 0.37891 0.13672l1.1211-0.37109c0.47656 0.40625 1.0234 0.72656 1.6133 0.94141l0.21484 1.0781c0.0273 0.141 0.164 0.254 0.3124 0.254h2.5703c0.14453 0 0.28125-0.11328 0.30859-0.25391l0.2188-1.074c0.58984-0.21484 1.1328-0.53906 1.6094-0.94531l1.125 0.36719c0.13672 0.04687 0.30469-0.01172 0.37891-0.13672l1.2852-2.168c0.07422-0.125 0.04297-0.29687-0.07031-0.39062l-0.961-0.8203c0.043-0.2734 0.066-0.5508 0.07-0.8281 0-0.2812-0.023-0.5586-0.07-0.8359l0.961-0.8164c0.109-0.0938 0.14-0.2657 0.07-0.3907l-1.285-2.1679c-0.07422-0.125-0.24219-0.18359-0.38281-0.14062l-1.1211 0.375c-0.473-0.4063-1.02-0.7266-1.6095-0.9454l-0.2187-1.0742c-0.0274-0.1406-0.1641-0.25-0.3086-0.2539h-2.5703-0.03125zm1.3164 3.75c1.3789 0 2.5 1.1211 2.5 2.5s-1.1211 2.5-2.5 2.5-2.5-1.1211-2.5-2.5 1.1211-2.5 2.5-2.5z" fill="#7f949e"/>
  <path id="path7" d="m6.6836 1.75h0.00391c-0.1367 0.0156-0.2578 0.125-0.2813 0.2539l-0.2187 1.0742c-0.5859 0.2149-1.1328 0.5391-1.6094 0.9492l-1.1211-0.3711c-0.1406-0.0468-0.3086 0.0118-0.3828 0.1368l-1.2851 2.1679c-0.0703 0.125-0.0391 0.293 0.0664 0.3868l1.2187-2.0547c0.0742-0.125 0.2422-0.1836 0.3828-0.1368l1.1211 0.3711c0.4766-0.4101 1.0235-0.7343 1.6094-0.9492l0.2187-1.0742c0.0235-0.1289 0.1446-0.2383 0.2813-0.2539h-0.00391 0.03125 2.5703c0.14453 0.00391 0.28125 0.11328 0.30859 0.25391l0.2188 1.0742c0.58984 0.21875 1.1367 0.53906 1.6094 0.94531l1.1211-0.375c0.14062-0.042969 0.30859 0.015624 0.38281 0.14062l1.215 2.0548c0.109-0.0938 0.14-0.2657 0.07-0.3868l-1.285-2.1679c-0.07422-0.125-0.24219-0.18359-0.38281-0.14062l-1.1211 0.375c-0.473-0.4063-1.02-0.7266-1.6095-0.9454l-0.2187-1.0742c-0.0274-0.1406-0.1641-0.25-0.3086-0.2539h-2.5703-0.03125zm6.5469 5.875-0.05078 0.039062c0.03516 0.21094 0.05469 0.42188 0.05859 0.63281 0.008-0.0977 0.012-0.1992 0.012-0.2969-0.004-0.125-0.008-0.25-0.02-0.375zm-10.46 0.0039c-0.0117 0.125-0.0156 0.2461-0.0195 0.3711 0.0039 0.0664 0.0039 0.1367 0.0117 0.2031 0.0117-0.1758 0.0313-0.3554 0.0586-0.5312zm2.7422 0.6211c-0.0078 0.082-0.0117 0.1641-0.0117 0.25 0 1.3789 1.1211 2.5 2.5 2.5s2.5-1.1211 2.5-2.5c0-0.0859-0.004-0.168-0.012-0.25-0.125 1.2617-1.1911 2.25-2.488 2.25s-2.3633-0.9883-2.4883-2.25zm7.7188 0.625c-0.01172 0.15234-0.02734 0.30469-0.05078 0.45312l0.96094 0.82031 0.0039 0.0039 0.06641-0.11328c0.07422-0.125 0.04297-0.29687-0.07031-0.39062zm-10.461 0-0.91016 0.77734c-0.1127 0.0938-0.144 0.2657-0.0697 0.3907l0.066407 0.11328 0.00391-0.0039 0.9609-0.82c-0.0234-0.1523-0.0391-0.3047-0.0508-0.457z" fill-opacity=".10196" fill="#fff"/>
 </g>
</svg>
