<?xml version="1.0" encoding="UTF-8"?>
<svg xmlns="http://www.w3.org/2000/svg" xmlns:xlink="http://www.w3.org/1999/xlink" width="16px" height="16px" viewBox="0 0 16 16" version="1.1">
<defs>
<linearGradient id="linear0" gradientUnits="userSpaceOnUse" x1="160" y1="267" x2="160" y2="278" gradientTransform="matrix(0.35,0,0,0.35,-48,-83.35)">
<stop offset="0" style="stop-color:rgb(0%,0%,0%);stop-opacity:0.2;"/>
<stop offset="1" style="stop-color:rgb(0%,0%,0%);stop-opacity:0;"/>
</linearGradient>
</defs>
<g id="surface1">
<path style=" stroke:none;fill-rule:nonzero;fill:rgb(100%,46.27451%,41.568627%);fill-opacity:1;" d="M 1.75 2 C 1.335938 2 1 2.335938 1 2.75 L 1 11 L 15 11 L 15 2.75 C 15 2.335938 14.664062 2 14.25 2 Z M 14.9375 13.515625 C 14.902344 13.597656 14.859375 13.6875 14.796875 13.75 C 14.859375 13.679688 14.902344 13.605469 14.9375 13.515625 Z M 14.796875 13.75 C 14.671875 13.875 14.492188 13.953125 14.296875 13.953125 L 1.75 14 L 14.25 14 C 14.46875 14 14.660156 13.898438 14.796875 13.75 Z M 14.796875 13.75 "/>
<path style=" stroke:none;fill-rule:nonzero;fill:rgb(100%,100%,100%);fill-opacity:0.2;" d="M 1.75 2 C 1.335938 2 1 2.335938 1 2.75 L 1 3.25 C 1 2.835938 1.335938 2.5 1.75 2.5 L 14.25 2.5 C 14.664062 2.5 15 2.835938 15 3.25 L 15 2.75 C 15 2.335938 14.664062 2 14.25 2 Z M 1.75 2 "/>
<path style=" stroke:none;fill-rule:evenodd;fill:rgb(0%,0%,0%);fill-opacity:0.2;" d="M 11 5 C 12.105469 5 13 5.894531 13 7 C 13 8.105469 12.105469 9 11 9 C 9.894531 9 9 8.105469 9 7 C 9 5.894531 9.894531 5 11 5 Z M 11 5 "/>
<path style=" stroke:none;fill-rule:evenodd;fill:rgb(100%,99.607843%,89.411765%);fill-opacity:1;" d="M 11 4.5 C 12.105469 4.5 13 5.394531 13 6.5 C 13 7.605469 12.105469 8.5 11 8.5 C 9.894531 8.5 9 7.605469 9 6.5 C 9 5.394531 9.894531 4.5 11 4.5 Z M 11 4.5 "/>
<path style=" stroke:none;fill-rule:nonzero;fill:rgb(82.352941%,18.431373%,47.843137%);fill-opacity:1;" d="M 1 11 L 1 13.25 C 1 13.25 1 14.003906 1.75 14 L 14.300781 13.949219 C 14.6875 13.949219 15 13.636719 15 13.25 L 15 11 Z M 1 11 "/>
<path style=" stroke:none;fill-rule:nonzero;fill:url(#linear0);" d="M 1 11 L 4 14 L 14.25 14 C 15 14 15 13.25 15 13.25 L 15 11 Z M 1 11 "/>
<path style=" stroke:none;fill-rule:nonzero;fill:rgb(0%,0%,0%);fill-opacity:1;" d="M 1 11 L 1 10.601562 C 1 10.601562 2.007812 9.933594 2.292969 9.875 C 2.578125 9.816406 2.914062 9.863281 3.257812 9.929688 C 3.601562 9.996094 4.117188 10.082031 4.277344 10.085938 C 4.4375 10.09375 4.726562 10.074219 5.066406 10.054688 C 5.402344 10.03125 5.960938 10.015625 6.136719 10.015625 C 6.308594 10.015625 6.746094 10.039062 7.207031 10.070312 C 7.671875 10.097656 8.308594 10.144531 8.453125 10.15625 C 8.597656 10.171875 8.769531 10.195312 8.960938 10.222656 C 9.152344 10.25 9.488281 10.289062 9.605469 10.300781 C 9.722656 10.308594 9.996094 10.347656 10.316406 10.378906 C 10.632812 10.40625 11.140625 10.417969 11.289062 10.40625 C 11.433594 10.394531 11.742188 10.285156 12.085938 10.1875 C 12.429688 10.085938 12.808594 9.992188 13.09375 10.015625 C 13.382812 10.039062 15 10.601562 15 10.601562 L 15 11 Z M 1 11 "/>
<path style=" stroke:none;fill-rule:nonzero;fill:rgb(0%,0%,0%);fill-opacity:0.101961;" d="M 1.75 14 C 1.335938 14 1 13.664062 1 13.25 L 1 12.75 C 1 13.164062 1.335938 13.5 1.75 13.5 L 14.25 13.5 C 14.664062 13.5 15 13.164062 15 12.75 L 15 13.25 C 15 13.664062 14.664062 14 14.25 14 Z M 1.75 14 "/>
<path style=" stroke:none;fill-rule:nonzero;fill:rgb(0%,0%,0%);fill-opacity:0.301961;" d="M 1 12.75 L 1 13.25 C 1 13.664062 1.335938 14 1.75 14 L 14.25 14 C 14.664062 14 15 13.664062 15 13.25 L 15 12.75 C 15 13.164062 14.664062 13.5 14.25 13.5 L 1.75 13.5 C 1.335938 13.5 1 13.164062 1 12.75 Z M 1 12.75 "/>
</g>
</svg>
