<?xml version="1.0" encoding="UTF-8" standalone="no"?>
<svg id="svg2" xmlns:rdf="http://www.w3.org/1999/02/22-rdf-syntax-ns#" xmlns="http://www.w3.org/2000/svg" height="16px" width="16px" version="1.1" xmlns:cc="http://creativecommons.org/ns#" xmlns:dc="http://purl.org/dc/elements/1.1/" viewBox="0 0 16 16">
 <metadata id="metadata19">
  <rdf:RDF>
   <cc:Work rdf:about="">
    <dc:format>image/svg+xml</dc:format>
    <dc:type rdf:resource="http://purl.org/dc/dcmitype/StillImage"/>
    <dc:title/>
   </cc:Work>
  </rdf:RDF>
 </metadata>
 <g id="g4158" transform="matrix(.86667 0 0 .86667 .13333 2)">
  <path id="path5" d="m16 14.252v-13.504c0-0.41447-0.334-0.748-0.748-0.748h-13.504c-0.4145 2e-7 -0.748 0.33353-0.748 0.7482v13.504c0 0.41466 0.33353 0.7482 0.7482 0.7482h13.504c0.41466 0 0.7482-0.33353 0.7482-0.7482z" fill="#9e333f"/>
  <path id="path7" d="m1.7482 2e-7c-0.4147 0-0.7482 0.33353-0.7482 0.7482v0.57692c0-0.41466 0.33353-0.7482 0.7482-0.7482h13.504c0.41466 0 0.7482 0.33353 0.7482 0.7482v-0.57692c0-0.41465-0.334-0.74818-0.748-0.74818z" fill-opacity=".2" fill="#fff"/>
  <path id="path9" d="m1 13.675v0.57692c0 0.41466 0.33353 0.7482 0.7482 0.7482h13.504c0.41466 0 0.7482-0.33353 0.7482-0.7482v-0.57692c0 0.41466-0.33353 0.7482-0.7482 0.7482h-13.504c-0.41466 0-0.7482-0.33353-0.7482-0.7482z" fill-opacity=".30196"/>
  <path id="path11" d="m2.8119 2.3077c-0.20282 0-0.36959 0.16677-0.36959 0.36959v4.4531c0 0.20282 0.16677 0.36959 0.36959 0.36959h4.4531c0.20282 0 0.36959-0.16677 0.36959-0.36959v-4.4531c0-0.20282-0.16677-0.36959-0.36959-0.36959zm6.9231 0c-0.20282 0-0.36959 0.16677-0.36959 0.36959v4.4531c0 0.20282 0.16677 0.36959 0.36959 0.36959h4.4531c0.20282 0 0.36959-0.16677 0.36959-0.36959v-4.4531c0-0.20282-0.16677-0.36959-0.36959-0.36959zm-6.9231 6.6346c-0.20282 0-0.36959 0.16677-0.36959 0.36959v4.4531c0 0.20282 0.16677 0.36959 0.36959 0.36959h4.4531c0.20282 0 0.36959-0.16677 0.36959-0.36959v-4.4531c0-0.20282-0.16677-0.36959-0.36959-0.36959zm6.9231 0c-0.20282 0-0.36959 0.16677-0.36959 0.36959v4.4531c0 0.20282 0.16677 0.36959 0.36959 0.36959h4.4531c0.20282 0 0.36959-0.16677 0.36959-0.36959v-4.4531c0-0.20282-0.16677-0.36959-0.36959-0.36959z" fill-opacity=".2"/>
  <path id="path13" d="m2.8119 1.7308c-0.20282 0-0.36959 0.16677-0.36959 0.36959v4.4531c0 0.20282 0.16677 0.36959 0.36959 0.36959h4.4531c0.20282 0 0.36959-0.16677 0.36959-0.36959v-4.4531c0-0.20282-0.16677-0.36959-0.36959-0.36959zm6.9231 0c-0.20282 0-0.36959 0.16677-0.36959 0.36959v4.4531c0 0.20282 0.16677 0.36959 0.36959 0.36959h4.4531c0.20282 0 0.36959-0.16677 0.36959-0.36959v-4.4531c0-0.20282-0.16677-0.36959-0.36959-0.36959zm-6.9231 6.6346c-0.20282 0-0.36959 0.16677-0.36959 0.36959v4.4531c0 0.20282 0.16677 0.36959 0.36959 0.36959h4.4531c0.20282 0 0.36959-0.16677 0.36959-0.36959v-4.4531c0-0.20282-0.16677-0.36959-0.36959-0.36959zm6.9231 0c-0.20282 0-0.36959 0.16677-0.36959 0.36959v4.4531c0 0.20282 0.16677 0.36959 0.36959 0.36959h4.4531c0.20282 0 0.36959-0.16677 0.36959-0.36959v-4.4531c0-0.20282-0.16677-0.36959-0.36959-0.36959z" fill="#fff"/>
 </g>
</svg>
