<?xml version="1.0" encoding="UTF-8" standalone="no"?>
<svg
   xmlns:dc="http://purl.org/dc/elements/1.1/"
   xmlns:cc="http://creativecommons.org/ns#"
   xmlns:rdf="http://www.w3.org/1999/02/22-rdf-syntax-ns#"
   xmlns:svg="http://www.w3.org/2000/svg"
   xmlns="http://www.w3.org/2000/svg"
   xmlns:sodipodi="http://sodipodi.sourceforge.net/DTD/sodipodi-0.dtd"
   xmlns:inkscape="http://www.inkscape.org/namespaces/inkscape"
   width="16px"
   height="16px"
   viewBox="0 0 16 16"
   version="1.1"
   id="svg2"
   inkscape:version="0.91 r"
   sodipodi:docname="application-x-plasma.svg">
  <metadata
     id="metadata17">
    <rdf:RDF>
      <cc:Work
         rdf:about="">
        <dc:format>image/svg+xml</dc:format>
        <dc:type
           rdf:resource="http://purl.org/dc/dcmitype/StillImage" />
      </cc:Work>
    </rdf:RDF>
  </metadata>
  <defs
     id="defs15" />
  <sodipodi:namedview
     pagecolor="#ffffff"
     bordercolor="#666666"
     borderopacity="1"
     objecttolerance="10"
     gridtolerance="10"
     guidetolerance="10"
     inkscape:pageopacity="0"
     inkscape:pageshadow="2"
     inkscape:window-width="1535"
     inkscape:window-height="876"
     id="namedview13"
     showgrid="false"
     inkscape:zoom="14.75"
     inkscape:cx="-4.0338983"
     inkscape:cy="8"
     inkscape:window-x="65"
     inkscape:window-y="24"
     inkscape:window-maximized="1"
     inkscape:current-layer="svg2" />
  <g
     id="surface1"
     transform="matrix(1.2,0,0,1.2,-1.6,-1.1)">
    <path
       style="fill:#deab47;fill-opacity:1;fill-rule:nonzero;stroke:none"
       d="M 3.625,1.75 C 3.277344,1.75 3,2.027344 3,2.375 l 0,11.25 c 0,0.347656 0.277344,0.625 0.625,0.625 l 8.75,0 C 12.722656,14.25 13,13.972656 13,13.625 L 13,5.5 9.5625,5.1875 9.25,1.75 Z m 0,0"
       id="path5"
       inkscape:connector-curvature="0" />
    <path
       style="fill:#f5cc7a;fill-opacity:1;fill-rule:nonzero;stroke:none"
       d="m 9.25,1.75 0,3.125 C 9.25,5.21875 9.53125,5.5 9.875,5.5 L 13,5.5 Z m 0,0"
       id="path7"
       inkscape:connector-curvature="0" />
    <path
       style="fill:#ffffff;fill-opacity:1;fill-rule:nonzero;stroke:none"
       d="M 7.351562,6.5 C 7.21875,6.5 7.085938,6.515625 6.972656,6.542969 6.101562,6.753906 5.214844,7.15625 4.769531,8.074219 c -0.6875,1.492187 -0.011719,3.261719 1.5,3.9375 0.839844,0.367187 1.632813,0.332031 2.289063,-0.25 0.195312,-0.171875 0.351562,-0.371094 0.414062,-0.65625 0.125,-0.570313 -0.175781,-1.375 -1.402344,-1.921875 C 6.414062,8.667969 6.199219,7.90625 6.363281,7.40625 6.527344,6.90625 7.136719,6.453125 8.082031,6.644531 8.183594,6.664062 8.28125,6.691406 8.382812,6.726562 8.191406,6.597656 7.753906,6.496094 7.351562,6.5 Z M 9.125,6.5 C 8.78125,6.5 8.5,6.78125 8.5,7.125 8.5,7.46875 8.78125,7.75 9.125,7.75 9.46875,7.75 9.75,7.46875 9.75,7.125 9.75,6.78125 9.46875,6.5 9.125,6.5 Z m 1.25,0.75 C 10.03125,7.25 9.75,7.53125 9.75,7.875 9.75,8.21875 10.03125,8.5 10.375,8.5 10.71875,8.5 11,8.21875 11,7.875 11,7.53125 10.71875,7.25 10.375,7.25 Z m 0.5,1.5 C 10.53125,8.75 10.25,9.03125 10.25,9.375 10.25,9.71875 10.53125,10 10.875,10 11.21875,10 11.5,9.71875 11.5,9.375 11.5,9.03125 11.21875,8.75 10.875,8.75 Z m 0,0"
       id="path9"
       inkscape:connector-curvature="0" />
    <path
       style="fill:#ffffff;fill-opacity:0.2;fill-rule:nonzero;stroke:none"
       d="M 3.625,1.75 C 3.277344,1.75 3,2.027344 3,2.375 l 0,0.5 C 3,2.527344 3.277344,2.25 3.625,2.25 l 5.625,0 c 0,-0.5 0,0 0,-0.5 z m 0,0"
       id="path11"
       inkscape:connector-curvature="0" />
  </g>
</svg>
