<?xml version="1.0" encoding="UTF-8" standalone="no"?>
<svg id="svg2" xmlns:rdf="http://www.w3.org/1999/02/22-rdf-syntax-ns#" xmlns="http://www.w3.org/2000/svg" height="16px" width="16px" version="1.1" xmlns:cc="http://creativecommons.org/ns#" xmlns:dc="http://purl.org/dc/elements/1.1/" viewBox="0 0 16 16">
 <metadata id="metadata17">
  <rdf:RDF>
   <cc:Work rdf:about="">
    <dc:format>image/svg+xml</dc:format>
    <dc:type rdf:resource="http://purl.org/dc/dcmitype/StillImage"/>
   </cc:Work>
  </rdf:RDF>
 </metadata>
 <g id="surface1" transform="matrix(1.2 0 0 1.2 -.6 -1.1)">
  <path id="path5" d="m3.625 1.75c-0.3477 0-0.625 0.2773-0.625 0.625v11.25c0 0.34766 0.27734 0.625 0.625 0.625h8.75c0.348 0 0.625-0.277 0.625-0.625v-8.125l-3.4375-0.3125-0.3125-3.4375z" fill="#1e94f0"/>
  <path id="path7" d="m7.6367 6.2695c-1.6211 0.1797-2.8867 1.5586-2.8867 3.2305 0 1.793 1.457 3.25 3.25 3.25s3.25-1.457 3.25-3.25c0-1.6484-1.2305-3.0078-2.8164-3.2188 0 0-0.44531-0.058594-0.79688-0.011719zm0.14844 0.4375v1.0977c-0.3124-0.0117-0.6093-0.0469-0.8828-0.0977 0.043-0.0976 0.086-0.1875 0.1329-0.2734 0.2148-0.3906 0.4765-0.6367 0.75-0.7266zm0.461 0.0196c0.0273 0.0039 0.0508 0.0078 0.0742 0.0117 0.2461 0.1055 0.4805 0.3398 0.6758 0.6953 0.0469 0.082 0.0898 0.1719 0.1328 0.2695-0.2734 0.0508-0.5703 0.086-0.8828 0.0977zm-1.4258 0.1836c-0.0664 0.0937-0.1328 0.1914-0.1914 0.2968-0.0664 0.1211-0.1289 0.2539-0.1836 0.3907-0.1484-0.043-0.2891-0.0938-0.418-0.1485 0.23047-0.22266 0.5-0.40234 0.79297-0.53906zm2.4688 0.10938c0.2734 0.0859 0.4843 0.2616 0.6797 0.4296-0.1172 0.0508-0.2461 0.0977-0.3868 0.1406-0.0547-0.1328-0.1132-0.2617-0.1797-0.3828-0.0351-0.0664-0.0742-0.125-0.1132-0.1875zm-3.5547 0.7616c0.00391 0.019531-0.00781-0.023438 0-0.00391 0.16797 0.078125 0.36328 0.20312 0.5625 0.26172-0.1016 0.3633-0.1641 0.7618-0.1836 1.1837h-0.94141c0.0508-0.5391 0.2539-1.0313 0.5625-1.4415zm4.5312 0.00391c0.30859 0.40625 0.51172 0.89844 0.5625 1.4375h-0.91016c-0.0194-0.4257-0.0819-0.8281-0.1834-1.1914 0.1836-0.0585 0.3706-0.1679 0.5276-0.2421 0.0078-0.015624 0 0.011719 0.0078-0.00391zm-0.9848 0.3594c0.0938 0.3243 0.1524 0.6914 0.1719 1.0782h-1.207v-0.95703c0.3672-0.0118 0.7148-0.0548 1.0351-0.1212zm-2.5352 0.00781c0.32422 0.0625 0.67188 0.10156 1.0391 0.11328v0.95703h-1.207c0.0196-0.3867 0.0781-0.746 0.168-1.0703zm-1.5819 1.5352h0.94922c0.019531 0.42969 0.085938 0.83984 0.19141 1.2109-0.21094 0.02734-0.57031 0.23828-0.58594 0.25-0.3672-0.445-0.5118-0.851-0.5547-1.4644zm1.4141 0h1.207v0.98438c-0.36328 0.01172-0.71094 0.05078-1.0312 0.11328-0.0938-0.328-0.1563-0.703-0.1759-1.0975zm1.668 0h1.207c-0.0196 0.3985-0.0821 0.7735-0.1798 1.1055-0.3203-0.066-0.664-0.105-1.0273-0.121zm1.6719 0h0.91406c-0.03516 0.55859-0.19922 1.043-0.51562 1.4688-0.14844-0.08984-0.41797-0.1875-0.58984-0.25 0.10547-0.37109 0.17188-0.78516 0.19141-1.2188zm-2.1328 1.4492v1.0625c-0.2736-0.091-0.5353-0.333-0.7501-0.723-0.043-0.079-0.0821-0.161-0.1211-0.247 0.27344-0.05078 0.5625-0.08203 0.87109-0.09375zm0.46094 0c0.30859 0.01172 0.59766 0.04687 0.86719 0.09766-0.035156 0.08594-0.074219 0.16406-0.11719 0.24219-0.21484 0.39063-0.47656 0.63281-0.75 0.72266zm-1.7891 0.20312c0.050781 0.125 0.10938 0.24609 0.17188 0.35938 0.085938 0.16016 0.1875 0.30469 0.30078 0.43359-0.35547-0.14453-0.67578-0.35547-0.94531-0.625 0.14453-0.0625 0.30078-0.12109 0.47266-0.16797zm3.1133 0.0078c0.16016 0.04687 0.30859 0.10156 0.44531 0.16016-0.25391 0.25781-0.55859 0.46094-0.89453 0.60547 0.10547-0.125 0.19922-0.26172 0.28125-0.41406 0.0625-0.10938 0.11719-0.23047 0.16797-0.35156z" fill-rule="evenodd" fill="#fff"/>
  <path id="path9" d="m9.25 1.75v3.125c0 0.3438 0.2812 0.625 0.625 0.625h3.125z" fill="#7abff5"/>
  <path id="path11" d="m3.625 1.75c-0.3477 0-0.625 0.2773-0.625 0.625v0.5c0-0.3477 0.2773-0.625 0.625-0.625h5.625v-0.5z" fill-opacity=".10196" fill="#fff"/>
 </g>
</svg>
