<?xml version="1.0" encoding="UTF-8" standalone="no"?>
<svg id="svg2" xmlns:rdf="http://www.w3.org/1999/02/22-rdf-syntax-ns#" xmlns="http://www.w3.org/2000/svg" height="16px" width="16px" version="1.1" xmlns:cc="http://creativecommons.org/ns#" xmlns:dc="http://purl.org/dc/elements/1.1/" viewBox="0 0 16 16">
 <metadata id="metadata17">
  <rdf:RDF>
   <cc:Work rdf:about="">
    <dc:format>image/svg+xml</dc:format>
    <dc:type rdf:resource="http://purl.org/dc/dcmitype/StillImage"/>
   </cc:Work>
  </rdf:RDF>
 </metadata>
 <g id="surface1" transform="matrix(1.2,0,0,1.2,-1.6,-1.1)">
  <path id="path5" d="m3.625 1.75c-0.3477 0-0.625 0.2773-0.625 0.625v11.25c0 0.34766 0.27734 0.625 0.625 0.625h8.75c0.348 0 0.625-0.277 0.625-0.625v-8.125l-3.4375-0.3125-0.3125-3.4375z" fill="#ebe8d7"/>
  <path id="path7" d="m9.25 1.75v3.125c0 0.3438 0.2812 0.625 0.625 0.625h3.125z" fill="#f8f8f0"/>
  <path id="path9" d="m5.8672 7.2773c-0.2383 0.1446-0.711 0.3477-1.1016 0.461l0.0117 0.0351c0.1875-0.0195 0.3829-0.0468 0.5704-0.0781v0.47656h-0.57812l0.015625 0.050781h0.47266c-0.0938 0.3829-0.2618 0.7891-0.5079 1.0821l0.0391 0.0351c0.2265-0.164 0.414-0.3554 0.5586-0.5742v0.98438h0.058594c0.16016 0 0.26172-0.0625 0.26562-0.078125v-1.1133c0.11719 0.10547 0.22656 0.27344 0.25 0.40625 0.039063 0.035156 0.082031 0.050781 0.125 0.050781 0.082031 0 0.15234-0.0625 0.15234-0.14453 0-0.11719-0.12891-0.26562-0.52734-0.35547v-0.29297h0.43359c0.082 0.0001 0.1211-0.0117 0.1445-0.0468l-0.3008-0.2031-0.1601 0.1992h-0.11719v-0.53906c0.13672-0.03125 0.26953-0.0625 0.375-0.09375 0.039063 0.00781 0.074219 0.015626 0.10156 0.015626 0.039062 0 0.070312-0.00781 0.089843-0.023438zm1.4258 0.36719-0.13672 0.15625h-0.53906l-0.34375-0.12891v2.0234c0.29297 0 0.32812-0.10547 0.32812-0.10937v-0.19141h0.58594v0.25391c0.24609 0 0.33203-0.074219 0.33203-0.078126v-1.6445c0.0665-0.0117 0.1134-0.0352 0.1329-0.0586zm-0.69141 0.20703h0.58594v1.4883h-0.58594zm3.4805 2.3789c-0.34375 0-0.59375 0.08203-0.74609 0.23828-0.12891 0.13281-0.20313 0.33594-0.22266 0.60156h-0.58984v-0.50391c0-0.06641 0.011718-0.11328 0.03125-0.14062 0.019531-0.02734 0.050781-0.04297 0.097656-0.04687l0.0899-0.004c0.035156-0.0039 0.050781-0.01953 0.050781-0.05078 0-0.02344-0.00391-0.03906-0.00781-0.04297-0.00391-0.0039-0.019531-0.0078-0.042968-0.0078-0.00391 0-0.019532 0-0.046876 0.0039-0.10156 0.0039-0.19922 0.0039-0.29297 0.0039-0.10156 0-0.20312 0-0.30859-0.0039-0.023438-0.0039-0.039062-0.0039-0.042969-0.0039-0.023437 0-0.035156 0.0039-0.042969 0.0078-0.0039 0.004-0.0078 0.02-0.0078 0.043 0 0.03125 0.019531 0.04687 0.054688 0.05078l0.085937 0.0039c0.046875 0.0039 0.078125 0.01953 0.097656 0.04687s0.03125 0.07422 0.03125 0.14062v1.3477c0 0.06641-0.011719 0.11328-0.03125 0.14063-0.019531 0.02734-0.050781 0.04297-0.097656 0.04687l-0.085937 0.0039c-0.00391 0-0.00391 0.0039-0.00781 0.0039-0.0313-0.001-0.0469 0.015-0.0469 0.042 0 0.02344 0.00391 0.03906 0.00781 0.04687 0.00781 0.0039 0.023438 0.0078 0.042969 0.0078 0.00391 0 0.019531 0 0.042969-0.0039 0.10547-0.0039 0.20703-0.0039 0.30469-0.0078 0.097656 0 0.19531 0.0039 0.29687 0.0078 0.023438 0.0039 0.039063 0.0039 0.046876 0.0039 0.023437 0 0.035156-0.0039 0.042968-0.0078 0.00391-0.0078 0.00781-0.02344 0.00781-0.04687 0-0.02734-0.015625-0.04297-0.042969-0.04297-0.00391-0.0039-0.00391-0.0039-0.00781-0.0039l-0.085938-0.0039c-0.050781-0.0039-0.082031-0.01953-0.10156-0.04687-0.019532-0.02734-0.03125-0.07422-0.03125-0.14063v-0.55469h0.58594c0.015625 0.28906 0.082031 0.51172 0.20703 0.65234 0.14453 0.16016 0.375 0.23828 0.69141 0.23828 0.34375 0 0.59766-0.08203 0.75781-0.24219 0.15625-0.16016 0.23828-0.41406 0.23828-0.76562 0-0.35938-0.07422-0.61328-0.21875-0.77344s-0.37891-0.23828-0.70312-0.23828zm-0.03125 0.09766c0.23828 0 0.40625 0.07031 0.51172 0.21094 0.10547 0.14453 0.15625 0.375 0.15625 0.70313 0 0.32031-0.05078 0.55078-0.15625 0.69531-0.10547 0.14062-0.27734 0.21094-0.51172 0.21094-0.23828 0-0.41016-0.07031-0.51172-0.21094-0.10547-0.14453-0.16016-0.375-0.16016-0.70312 0-0.31641 0.054688-0.54688 0.16016-0.69141s0.27734-0.21484 0.51172-0.21484z" fill-opacity=".50196"/>
  <path id="path11" d="m3.625 1.75c-0.3477 0-0.625 0.2773-0.625 0.625v0.5c0-0.3477 0.2773-0.625 0.625-0.625h5.625v-0.5z" fill-opacity=".2" fill="#fff"/>
 </g>
</svg>
