<?xml version="1.0" encoding="UTF-8" standalone="no"?>
<svg
   xmlns:dc="http://purl.org/dc/elements/1.1/"
   xmlns:cc="http://creativecommons.org/ns#"
   xmlns:rdf="http://www.w3.org/1999/02/22-rdf-syntax-ns#"
   xmlns:svg="http://www.w3.org/2000/svg"
   xmlns="http://www.w3.org/2000/svg"
   xmlns:sodipodi="http://sodipodi.sourceforge.net/DTD/sodipodi-0.dtd"
   xmlns:inkscape="http://www.inkscape.org/namespaces/inkscape"
   width="16px"
   height="16px"
   viewBox="0 0 16 16"
   version="1.1"
   id="svg2"
   inkscape:version="0.91 r"
   sodipodi:docname="application-x-theme.svg">
  <metadata
     id="metadata30">
    <rdf:RDF>
      <cc:Work
         rdf:about="">
        <dc:format>image/svg+xml</dc:format>
        <dc:type
           rdf:resource="http://purl.org/dc/dcmitype/StillImage" />
      </cc:Work>
    </rdf:RDF>
  </metadata>
  <sodipodi:namedview
     pagecolor="#ffffff"
     bordercolor="#666666"
     borderopacity="1"
     objecttolerance="10"
     gridtolerance="10"
     guidetolerance="10"
     inkscape:pageopacity="0"
     inkscape:pageshadow="2"
     inkscape:window-width="1535"
     inkscape:window-height="876"
     id="namedview28"
     showgrid="false"
     inkscape:zoom="39.78"
     inkscape:cx="9.0604028"
     inkscape:cy="8"
     inkscape:window-x="65"
     inkscape:window-y="24"
     inkscape:window-maximized="1"
     inkscape:current-layer="svg2" />
  <defs
     id="defs4">
    <linearGradient
       id="linear0"
       gradientUnits="userSpaceOnUse"
       x1="143"
       y1="203"
       x2="127"
       y2="203"
       gradientTransform="matrix(0,-0.328125,0.325,0,-53.1,54.921875)">
      <stop
         offset="0"
         style="stop-color:rgb(100%,100%,100%);stop-opacity:0.101961;"
         id="stop7" />
      <stop
         offset="1"
         style="stop-color:rgb(100%,100%,100%);stop-opacity:0;"
         id="stop9" />
    </linearGradient>
  </defs>
  <g
     id="surface1"
     transform="matrix(1.1538462,0,0,1.1538462,-0.73076938,-1.2884615)">
    <path
       style="fill:#5e7a8a;fill-opacity:1;fill-rule:nonzero;stroke:none"
       d="m 14.5,8 0,-4.59375 c 0,-0.363281 -0.289062,-0.5562501 -0.648438,-0.5562501 l -11.703124,0 C 1.789062,2.8499999 1.5,3.042969 1.5,3.40625 l 0,9.1875 C 1.5,12.957031 1.789062,13.25 2.148438,13.25 l 7.101562,0 z"
       id="path12"
       inkscape:connector-curvature="0"
       sodipodi:nodetypes="csssssscc" />
    <path
       style="fill:#7d94a1;fill-opacity:1;fill-rule:nonzero;stroke:none"
       d="m 13.5,8.640625 0,-4.890625 -11,0 0,8.5 7.5,0 z m 0,0"
       id="path14"
       inkscape:connector-curvature="0" />
    <path
       style="fill:#ffffff;fill-opacity:1;fill-rule:nonzero;stroke:none"
       d="M 7.316406,4.75 C 7.246094,4.757812 7.183594,4.8125 7.171875,4.882812 L 7.0625,5.417969 C 6.746094,5.53125 6.453125,5.703125 6.199219,5.925781 L 5.636719,5.742188 C 5.5625,5.714844 5.476562,5.746094 5.4375,5.8125 L 4.769531,6.9375 C 4.734375,7.003906 4.75,7.09375 4.804688,7.140625 L 5.289062,7.554688 C 5.265625,7.703125 5.25,7.851562 5.25,8 c 0,0.148438 0.011719,0.300781 0.039062,0.449219 L 4.804688,8.859375 C 4.75,8.90625 4.734375,8.996094 4.769531,9.0625 l 0.667969,1.125 c 0.039062,0.06641 0.125,0.09766 0.199219,0.07031 l 0.5625,-0.183593 c 0.253906,0.222656 0.546875,0.390625 0.863281,0.507812 l 0.109375,0.535157 C 7.183594,11.191406 7.253906,11.25 7.332031,11.25 l 1.335938,0 c 0.078125,0 0.148437,-0.05859 0.160156,-0.132812 L 8.9375,10.582031 C 9.253906,10.46875 9.546875,10.296875 9.800781,10.074219 l 0.5625,0.183593 c 0.07422,0.02734 0.160157,-0.0039 0.199219,-0.07031 l 0.667969,-1.125 C 11.265625,8.996094 11.25,8.90625 11.195312,8.859375 L 10.710938,8.445312 C 10.734375,8.300781 10.75,8.148438 10.75,8 10.75,7.851562 10.73828,7.699219 10.71094,7.554688 L 11.195312,7.140625 C 11.25,7.09375 11.265625,7.003906 11.230469,6.9375 L 10.5625,5.8125 C 10.523438,5.746094 10.4375,5.714844 10.363281,5.742188 l -0.5625,0.183593 C 9.546875,5.703125 9.253906,5.535156 8.9375,5.417969 L 8.828125,4.882812 C 8.816406,4.808594 8.746094,4.75 8.667969,4.75 l -1.335938,0 c -0.00391,0 -0.011719,0 -0.015625,0 z M 8,6.75 C 8.691406,6.75 9.25,7.308594 9.25,8 9.25,8.691406 8.691406,9.25 8,9.25 7.308594,9.25 6.75,8.691406 6.75,8 6.75,7.308594 7.308594,6.75 8,6.75 Z m 0,0"
       id="path16"
       inkscape:connector-curvature="0" />
    <path
       style="fill:url(#linear0);fill-rule:nonzero;stroke:none"
       d="M 1.5,12.59375 C 1.5,12.957031 1.789062,13.25 2.148438,13.25 l 7.152343,0 L 14.5,8 1.5,8 Z m 0,0"
       id="path18"
       inkscape:connector-curvature="0" />
    <path
       style="fill:#b0cfdc;fill-opacity:1;fill-rule:nonzero;stroke:none"
       d="M 14.5,8 9.949219,8 C 9.589844,8 9.25,8.292969 9.25,8.65625 l 0,4.59375 z m 0,0"
       id="path20"
       inkscape:connector-curvature="0" />
    <path
       style="fill:#ffffff;fill-opacity:0.2;fill-rule:nonzero;stroke:none"
       d="M 9.949219,8 C 9.589844,8 9.300781,8.292969 9.300781,8.65625 l 0,0.328125 c 0,-0.363281 0.289063,-0.65625 0.648438,-0.65625 l 4.226562,0 L 14.5,8 Z m 0,0"
       id="path22"
       inkscape:connector-curvature="0" />
    <path
       style="fill:#ffffff;fill-opacity:0.2;fill-rule:nonzero;stroke:none"
       d="M 2.148438,2.8499999 C 1.789062,2.8499999 1.5,3.042969 1.5,3.40625 l 0,0.5 C 1.5,3.542969 1.789062,3.25 2.148438,3.25 l 11.703124,0 C 14.210938,3.25 14.5,3.542969 14.5,3.90625 l 0,-0.5 c 0,-0.363281 -0.289062,-0.5562501 -0.648438,-0.5562501 z"
       id="path24"
       inkscape:connector-curvature="0"
       sodipodi:nodetypes="sscsscsss" />
    <path
       style="fill:#000000;fill-opacity:0.30196102;fill-rule:nonzero;stroke:none"
       d="m 14.5,7.5 -5.25,5.25 -7.101562,0 C 1.789062,12.75 1.5,12.457031 1.5,12.09375 l 0,0.5 C 1.5,12.957031 1.789062,13.25 2.148438,13.25 L 9.25,13.25 14.5,8 Z m 0,0"
       id="path26"
       inkscape:connector-curvature="0" />
  </g>
</svg>
