<?xml version="1.0" encoding="UTF-8" standalone="no"?>
<svg id="svg2" xmlns:rdf="http://www.w3.org/1999/02/22-rdf-syntax-ns#" xmlns="http://www.w3.org/2000/svg" height="16px" width="16px" version="1.1" xmlns:cc="http://creativecommons.org/ns#" xmlns:dc="http://purl.org/dc/elements/1.1/" viewBox="0 0 16 16">
 <metadata id="metadata17">
  <rdf:RDF>
   <cc:Work rdf:about="">
    <dc:format>image/svg+xml</dc:format>
    <dc:type rdf:resource="http://purl.org/dc/dcmitype/StillImage"/>
   </cc:Work>
  </rdf:RDF>
 </metadata>
 <g id="surface1" transform="matrix(1.2,0,0,1.2,-1.6,-1.1)">
  <path id="path5" d="m3.625 1.75c-0.3477 0-0.625 0.2773-0.625 0.625v11.25c0 0.34766 0.27734 0.625 0.625 0.625h8.75c0.348 0 0.625-0.277 0.625-0.625v-8.125l-3.4375-0.3125-0.3125-3.4375z" fill="#bdc263"/>
  <path id="path7" d="m9.25 1.75v3.125c0 0.3438 0.2812 0.625 0.625 0.625h3.125z" fill="#dedeb0"/>
  <path id="path9" d="m6.5 6.5v3.6055c-0.1562-0.071-0.3281-0.106-0.5-0.106-0.69141 0-1.25 0.55859-1.25 1.25s0.55859 1.25 1.25 1.25c0.67969 0 1.2383-0.54688 1.25-1.2266v-3.273h2.75v2.105c-0.1562-0.07-0.3281-0.105-0.5-0.105-0.69141 0-1.25 0.55859-1.25 1.25s0.55859 1.25 1.25 1.25c0.66406 0 1.2148-0.52344 1.2461-1.1875l0.004-0.007v-4.805z" fill="#fff"/>
  <path id="path11" d="m3.625 1.75c-0.3477 0-0.625 0.2773-0.625 0.625v0.5c0-0.3477 0.2773-0.625 0.625-0.625h5.625v-0.5z" fill-opacity=".10196" fill="#fff"/>
 </g>
</svg>
