<?xml version="1.0" encoding="UTF-8" standalone="no"?>
<svg
   xmlns:dc="http://purl.org/dc/elements/1.1/"
   xmlns:cc="http://creativecommons.org/ns#"
   xmlns:rdf="http://www.w3.org/1999/02/22-rdf-syntax-ns#"
   xmlns:svg="http://www.w3.org/2000/svg"
   xmlns="http://www.w3.org/2000/svg"
   xmlns:sodipodi="http://sodipodi.sourceforge.net/DTD/sodipodi-0.dtd"
   xmlns:inkscape="http://www.inkscape.org/namespaces/inkscape"
   width="16px"
   height="16px"
   viewBox="0 0 16 16"
   version="1.1"
   id="svg2"
   inkscape:version="0.91 r"
   sodipodi:docname="rpm.svg">
  <metadata
     id="metadata21">
    <rdf:RDF>
      <cc:Work
         rdf:about="">
        <dc:format>image/svg+xml</dc:format>
        <dc:type
           rdf:resource="http://purl.org/dc/dcmitype/StillImage" />
      </cc:Work>
    </rdf:RDF>
  </metadata>
  <defs
     id="defs19" />
  <sodipodi:namedview
     pagecolor="#ffffff"
     bordercolor="#666666"
     borderopacity="1"
     objecttolerance="10"
     gridtolerance="10"
     guidetolerance="10"
     inkscape:pageopacity="0"
     inkscape:pageshadow="2"
     inkscape:window-width="1535"
     inkscape:window-height="876"
     id="namedview17"
     showgrid="false"
     inkscape:zoom="14.75"
     inkscape:cx="-4.0338983"
     inkscape:cy="8"
     inkscape:window-x="65"
     inkscape:window-y="24"
     inkscape:window-maximized="1"
     inkscape:current-layer="svg2" />
  <g
     id="surface1"
     transform="translate(-0.5,0.5)">
    <path
       style="fill:#d1d1d1;fill-opacity:1;fill-rule:nonzero;stroke:none"
       d="m 14.5,13.851562 0,-11.703124 C 14.5,1.789062 14.210938,1.5 13.851562,1.5 L 2.148438,1.5 C 1.789062,1.5 1.5,1.789062 1.5,2.148438 l 0,11.703124 C 1.5,14.210938 1.789062,14.5 2.148438,14.5 l 11.703124,0 C 14.210938,14.5 14.5,14.210938 14.5,13.851562 Z m 0,0"
       id="path5"
       inkscape:connector-curvature="0" />
    <path
       style="fill:#b09961;fill-opacity:1;fill-rule:nonzero;stroke:none"
       d="m 6,5.5 0,5.25 1.25,0 0,-2 2,0 0,-3.25 z M 7.351562,6.851562 8,6.851562 8,7.5 7.351562,7.5 Z m 0,0"
       id="path7"
       inkscape:connector-curvature="0" />
    <path
       style="fill:#b09961;fill-opacity:1;fill-rule:nonzero;stroke:none"
       d="m 2.5,5.5 0,5.25 1.25,0 0,-1.25 0.75,1.25 1.25,0 -0.625,-2 0.625,0 0,-3.25 z m 1.300781,1.351562 0.648438,0 0,0.648438 -0.648438,0 z m 0,0"
       id="path9"
       inkscape:connector-curvature="0" />
    <path
       style="fill:#b09961;fill-opacity:1;fill-rule:nonzero;stroke:none"
       d="m 9.5,5.5 0,5.25 1.25,0 0,-2.25 0.875,1 0.875,-1 0,2.25 1.25,0 0,-5.25 -1.25,0 -0.875,2 -0.875,-2 z m 0,0"
       id="path11"
       inkscape:connector-curvature="0" />
    <path
       style="fill:#ffffff;fill-opacity:0.2;fill-rule:nonzero;stroke:none"
       d="M 2.148438,1.5 C 1.789062,1.5 1.5,1.789062 1.5,2.148438 l 0,0.5 C 1.5,2.289062 1.789062,2 2.148438,2 L 13.851562,2 C 14.210938,2 14.5,2.289062 14.5,2.648438 l 0,-0.5 C 14.5,1.789062 14.210938,1.5 13.851562,1.5 Z m 0,0"
       id="path13"
       inkscape:connector-curvature="0" />
    <path
       style="fill:#000000;fill-opacity:0.30196102;fill-rule:nonzero;stroke:none"
       d="m 1.5,13.351562 0,0.5 C 1.5,14.210938 1.789062,14.5 2.148438,14.5 l 11.703124,0 C 14.210938,14.5 14.5,14.210938 14.5,13.851562 l 0,-0.5 C 14.5,13.710938 14.210938,14 13.851562,14 L 2.148438,14 C 1.789062,14 1.5,13.710938 1.5,13.351562 Z m 0,0"
       id="path15"
       inkscape:connector-curvature="0" />
  </g>
</svg>
