<?xml version="1.0" encoding="UTF-8" standalone="no"?>
<svg id="svg2" xmlns:rdf="http://www.w3.org/1999/02/22-rdf-syntax-ns#" xmlns="http://www.w3.org/2000/svg" height="16px" width="16px" version="1.1" xmlns:cc="http://creativecommons.org/ns#" xmlns:dc="http://purl.org/dc/elements/1.1/" viewBox="0 0 16 16">
 <metadata id="metadata17">
  <rdf:RDF>
   <cc:Work rdf:about="">
    <dc:format>image/svg+xml</dc:format>
    <dc:type rdf:resource="http://purl.org/dc/dcmitype/StillImage"/>
   </cc:Work>
  </rdf:RDF>
 </metadata>
 <g id="surface1" transform="matrix(1.2,0,0,1.2,-1.6,-1.1)">
  <path id="path5" d="m3.625 1.75c-0.3477 0-0.625 0.2773-0.625 0.625v11.25c0 0.34766 0.27734 0.625 0.625 0.625h8.75c0.348 0 0.625-0.277 0.625-0.625v-8.125l-3.4375-0.3125-0.3125-3.4375z" fill="#ebe8d7"/>
  <path id="path7" d="m9.25 1.75v3.125c0 0.3438 0.2812 0.625 0.625 0.625h3.125z" fill="#f8f8f0"/>
  <path id="path9" d="m7.3086 6.75-0.0547 0.6289c-0.2656 0.0938-0.5117 0.2383-0.7266 0.4219l-0.582-0.2735-0.6953 1.1915 0.5391 0.371c-0.0274 0.1368-0.0391 0.2735-0.0391 0.4102 0 0.13672 0.011719 0.27344 0.039062 0.41016l-0.5391 0.3708 0.69531 1.1875 0.58203-0.26953c0.21484 0.18359 0.46094 0.32812 0.72656 0.42188l0.0508 0.629h1.3906l0.050782-0.62891c0.26562-0.09375 0.51172-0.23828 0.72656-0.42188l0.5823 0.27 0.695-1.188-0.539-0.3708c0.027-0.1368 0.039-0.2735 0.039-0.4102s-0.012-0.2734-0.039-0.4102l0.539-0.371-0.695-1.1876-0.5823 0.2696c-0.211-0.1836-0.4571-0.3281-0.7266-0.4219l-0.0508-0.6289zm0.6914 1.75c0.55078 0 1 0.44922 1 1s-0.44922 1-1 1-1-0.44922-1-1 0.44922-1 1-1z" fill-opacity=".50196"/>
  <path id="path11" d="m3.625 1.75c-0.3477 0-0.625 0.2773-0.625 0.625v0.5c0-0.3477 0.2773-0.625 0.625-0.625h5.625v-0.5z" fill-opacity=".2" fill="#fff"/>
 </g>
</svg>
