<?xml version="1.0" encoding="UTF-8" standalone="no"?>
<svg id="svg2" xmlns:rdf="http://www.w3.org/1999/02/22-rdf-syntax-ns#" xmlns="http://www.w3.org/2000/svg" height="16px" width="16px" version="1.1" xmlns:cc="http://creativecommons.org/ns#" xmlns:dc="http://purl.org/dc/elements/1.1/" viewBox="0 0 16 16">
 <metadata id="metadata19">
  <rdf:RDF>
   <cc:Work rdf:about="">
    <dc:format>image/svg+xml</dc:format>
    <dc:type rdf:resource="http://purl.org/dc/dcmitype/StillImage"/>
   </cc:Work>
  </rdf:RDF>
 </metadata>
 <g id="surface1" transform="matrix(1.2,0,0,1.2,-1.6,-1.1)">
  <path id="path5" d="m3.625 1.75c-0.3477 0-0.625 0.2773-0.625 0.625v11.25c0 0.34766 0.27734 0.625 0.625 0.625h8.75c0.348 0 0.625-0.277 0.625-0.625v-8.125l-3.4375-0.3125-0.3125-3.4375z" fill="#ebe8d7"/>
  <path id="path7" d="m9.25 1.75v3.125c0 0.3438 0.2812 0.625 0.625 0.625h3.125z" fill="#f8f8f0"/>
  <path id="path9" d="m7.6797 7c-0.7578 0-1.4766 0.5-1.4297 1.0391v0.71094h-0.52344c-0.5391 0-0.9766 0.4844-0.9766 1.2422v0.39062c0 0.758 0.4375 1.367 0.9766 1.367h0.52344v-0.78125c0-0.434 0.4102-0.719 0.8438-0.719h1.5625s0.84375-0.0625 0.84375-0.84375v-1.3672c0-0.539-0.6719-1.039-1.4297-1.039zm-0.5547 0.75c0.207 0 0.375 0.168 0.375 0.375s-0.168 0.375-0.375 0.375-0.375-0.168-0.375-0.375 0.168-0.375 0.375-0.375z" fill-opacity=".50196"/>
  <path id="path11" d="m3.625 1.75c-0.3477 0-0.625 0.2773-0.625 0.625v0.5c0-0.3477 0.2773-0.625 0.625-0.625h5.625v-0.5z" fill-opacity=".2" fill="#fff"/>
  <path id="path13" d="m8.0703 13.5c0.7578 0 1.4766-0.5 1.4297-1.039v-0.71094h0.52344c0.539 0 0.977-0.484 0.977-1.242v-0.39062c0-0.7576-0.438-1.367-0.977-1.367h-0.523v0.7812c0 0.4336-0.4102 0.7188-0.8438 0.7188h-1.5625s-0.84375 0.0625-0.84375 0.84375v1.3672c0 0.539 0.6719 1.039 1.4297 1.039zm0.5547-0.75c-0.207 0-0.375-0.168-0.375-0.375s0.168-0.375 0.375-0.375 0.375 0.168 0.375 0.375-0.168 0.375-0.375 0.375z" fill-opacity=".30196"/>
 </g>
</svg>
