<?xml version="1.0" encoding="UTF-8" standalone="no"?>
<svg id="svg2" xmlns:rdf="http://www.w3.org/1999/02/22-rdf-syntax-ns#" xmlns="http://www.w3.org/2000/svg" height="16px" width="16px" version="1.1" xmlns:cc="http://creativecommons.org/ns#" xmlns:dc="http://purl.org/dc/elements/1.1/" viewBox="0 0 16 16">
 <metadata id="metadata17">
  <rdf:RDF>
   <cc:Work rdf:about="">
    <dc:format>image/svg+xml</dc:format>
    <dc:type rdf:resource="http://purl.org/dc/dcmitype/StillImage"/>
   </cc:Work>
  </rdf:RDF>
 </metadata>
 <g id="surface1" transform="matrix(1.2,0,0,1.2,-1.6,-1.1)">
  <path id="path5" d="m3.625 1.75c-0.3477 0-0.625 0.2773-0.625 0.625v11.25c0 0.34766 0.27734 0.625 0.625 0.625h8.75c0.348 0 0.625-0.277 0.625-0.625v-8.125l-3.4375-0.3125-0.3125-3.4375z" fill="#ebe8d7"/>
  <path id="path7" d="m9.25 1.75v3.125c0 0.3438 0.2812 0.625 0.625 0.625h3.125z" fill="#f8f8f0"/>
  <path id="path9" d="m6.7266 7.5c-0.3282-0.0156-0.6524 0.0938-0.8946 0.332-0.4804 0.4805-0.4336 1.2969 0.0977 1.8321l0.3359 0.3359-0.3359 0.336c-0.5313 0.535-0.5781 1.352-0.0977 1.832 0.4805 0.48 1.2969 0.434 1.8321-0.098l0.3359-0.336 0.3359 0.336c0.53516 0.53125 1.3516 0.57813 1.832 0.09766 0.48047-0.48047 0.43359-1.2969-0.09766-1.832l-0.3356-0.336 0.3356-0.3359c0.532-0.5352 0.578-1.3516 0.098-1.8321-0.4805-0.4804-1.2969-0.4336-1.8321 0.0977l-0.3359 0.3359-0.3359-0.3359c-0.2696-0.2656-0.6055-0.4102-0.9375-0.4297zm1.2734 1.25l0.023438 0.023438c0.00391 0.00391 0.00781 0.00781 0.011718 0.00781 0.00391 0.00781 0.011719 0.015625 0.015625 0.023438 0.00391 0 0.00391 0.00391 0.00781 0.00391 0.00391 0.00781 0.00781 0.015625 0.015625 0.023437 0 0.00391 0.00391 0.00781 0.00781 0.011719 0.00391 0.00781 0.00781 0.011719 0.00781 0.019531 0.00391 0.00781 0.00781 0.011719 0.011718 0.019531 0 0.00391 0 0.00781 0.00391 0.011719 0.00391 0.00391 0.00391 0.011719 0.00781 0.019531 0 0.00781 0 0.011719 0.00391 0.015626 0 0.00781 0 0.015624 0.00391 0.019531v0.011719c0.0039 0.0079 0.0039 0.0157 0.0039 0.0235v0.015625 0.015625c0 0.00781 0 0.015625-0.00391 0.023437v0.011719c-0.0039 0.0039-0.0039 0.0117-0.0039 0.0195-0.0039 0.0039-0.0039 0.0078-0.0039 0.0156-0.0039 0.0078-0.0039 0.0157-0.0078 0.0196s-0.0039 0.0078-0.0039 0.0117c-0.004 0.0078-0.0079 0.0117-0.0118 0.0195 0 0.00781-0.00391 0.011719-0.00781 0.019531-0.00391 0.00391-0.00781 0.00781-0.00781 0.011719-0.00781 0.00781-0.011719 0.015625-0.015625 0.023437-0.00391 0-0.00391 0.00391-0.00781 0.00391-0.00391 0.00781-0.011719 0.015626-0.015625 0.023438-0.00391 0-0.00781 0.00391-0.011718 0.00781-0.0078 0.0079-0.0156 0.0157-0.0234 0.0235l-0.0234-0.0234c-0.0039-0.0039-0.0078-0.0078-0.0118-0.0078-0.0039-0.0079-0.0117-0.0157-0.0156-0.0235-0.00391 0-0.00391-0.00391-0.00781-0.00391-0.0039-0.0078-0.0078-0.0156-0.0156-0.0234 0-0.00391-0.00391-0.00781-0.00781-0.011719-0.0039-0.0079-0.0078-0.0118-0.0078-0.0196-0.004-0.0078-0.0079-0.0117-0.0118-0.0195 0-0.00391 0-0.00781-0.00391-0.011719-0.00391-0.00391-0.00391-0.011719-0.00781-0.019531 0-0.00781 0-0.011719-0.00391-0.015626 0-0.00781 0-0.015624-0.00391-0.019531v-0.011719c-0.0039-0.0079-0.0039-0.0157-0.0039-0.0235v-0.015625-0.015625c0-0.00781 0-0.015625 0.00391-0.023437v-0.011719c0.0039-0.0039 0.0039-0.0117 0.0039-0.0195 0.0039-0.0039 0.0039-0.0078 0.0039-0.0156 0.0039-0.0078 0.0039-0.0157 0.0078-0.0196s0.0039-0.0078 0.0039-0.0117c0.004-0.0078 0.0079-0.0117 0.0118-0.0195 0-0.00781 0.00391-0.011719 0.00781-0.019531 0.00391-0.00391 0.00781-0.00781 0.00781-0.011719 0.00781-0.00781 0.011719-0.015625 0.015625-0.023437 0.00391 0 0.00391-0.00391 0.00781-0.00391 0.00391-0.00781 0.011719-0.015626 0.015625-0.023438 0.00391 0 0.00781-0.00391 0.011718-0.00781 0.0078-0.0079 0.0156-0.0157 0.0234-0.0235zm-0.4492 0.6055c0.027344 0 0.058594 0 0.085938 0.00781 0.027343 0.10547-0.00391 0.21875-0.082031 0.29688-0.074219 0.078125-0.1875 0.10938-0.29297 0.078125-0.03125-0.10547 0-0.21875 0.078125-0.29297 0.0546-0.0587 0.1328-0.0899 0.2109-0.0899zm0.89844 0c0.078125 0 0.15625 0.03125 0.21094 0.089843 0.078125 0.074219 0.10938 0.1875 0.078125 0.29297-0.10547 0.03125-0.21875 0-0.29297-0.078125-0.0781-0.0782-0.1094-0.1914-0.082-0.2969 0.0273-0.0078 0.0586-0.0078 0.0859-0.0078zm-0.4492 0.3945h0.019531 0.00391c0.00391 0 0.011718 0.00391 0.019531 0.00391h0.00391c0.00781 0.00391 0.011719 0.00391 0.019531 0.00391l0.00391 0.00391c0.00781 0 0.015626 0.00391 0.023438 0.00781 0.00781 0 0.011719 0.00391 0.019531 0.00781 0 0 0.00391 0 0.00391 0.00391 0.00391 0 0.00781 0.00391 0.011718 0.00391 0.00391 0.00391 0.00781 0.00781 0.015625 0.011719 0.00391 0.00391 0.00781 0.00781 0.011719 0.00781 0.00781 0.00781 0.015625 0.011718 0.019531 0.019531 0.00781 0.00391 0.011719 0.011719 0.019531 0.019531 0 0.00391 0.00391 0.00781 0.00781 0.011719 0.00391 0.00781 0.00781 0.011719 0.011719 0.015625 0 0.00391 0.00391 0.00781 0.00391 0.011718 0.00391 0 0.00391 0.00391 0.00391 0.00391 0.00391 0.00781 0.00781 0.011719 0.00781 0.019531 0.00391 0.00781 0.00781 0.015625 0.00781 0.023438l0.00391 0.00391c0 0.00781 0 0.011718 0.00391 0.019531v0.00391c0 0.00781 0.00391 0.015625 0.00391 0.019531v0.00391 0.019531 0.01953 0.0039c0 0.0039-0.00391 0.01172-0.00391 0.01953v0.0039c-0.00391 0.0078-0.00391 0.01172-0.00391 0.01953l-0.00391 0.0039c0 0.0078-0.00391 0.01563-0.00781 0.02344 0 0.0078-0.00391 0.01172-0.00781 0.01953 0 0 0 0.0039-0.00391 0.0039 0 0.0039-0.00391 0.0078-0.00391 0.01172-0.00391 0.0039-0.00781 0.0078-0.011719 0.01563-0.00391 0.0039-0.00781 0.0078-0.00781 0.01172-0.00781 0.0078-0.011718 0.01563-0.019531 0.01953-0.00391 0.0078-0.011719 0.01172-0.019531 0.01953-0.00391 0-0.00781 0.0039-0.011719 0.0078-0.00781 0.0039-0.011719 0.0078-0.015625 0.01172-0.00391 0-0.00781 0.0039-0.011718 0.0039 0 0.0039-0.00391 0.0039-0.00391 0.0039-0.00781 0.0039-0.011719 0.0078-0.019531 0.0078-0.00781 0.0039-0.015625 0.0078-0.023438 0.0078l-0.00391 0.0039c-0.00781 0-0.011718 0-0.019531 0.0039h-0.00391c-0.00781 0-0.015625 0.0039-0.019531 0.0039h-0.00391-0.019531-0.019531-0.00391c-0.00391 0-0.011718-0.0039-0.019531-0.0039h-0.00391c-0.00781-0.0039-0.011719-0.0039-0.019531-0.0039l-0.00391-0.0039c-0.00781 0-0.015626-0.0039-0.023438-0.0078-0.00781 0-0.011719-0.0039-0.019531-0.0078 0 0-0.00391 0-0.00391-0.0039-0.00391 0-0.00781-0.0039-0.011718-0.0039-0.00391-0.0039-0.00781-0.0078-0.015625-0.01172-0.00391-0.0039-0.00781-0.0078-0.011719-0.0078-0.00781-0.0078-0.015625-0.01172-0.019531-0.01953-0.00781-0.0039-0.011719-0.01172-0.019531-0.01953 0-0.0039-0.00391-0.0078-0.00781-0.01172-0.00391-0.0078-0.00781-0.01172-0.011719-0.01563 0-0.0039-0.00391-0.0078-0.00391-0.01172-0.00391 0-0.00391-0.0039-0.00391-0.0039-0.00391-0.0078-0.00781-0.01172-0.00781-0.01953-0.00391-0.0078-0.00781-0.01563-0.00781-0.02344l-0.00391-0.0039c0-0.0078 0-0.01172-0.00391-0.01953v-0.0039c0-0.0078-0.00391-0.01563-0.00391-0.01953v-0.0039-0.01953-0.019531-0.00391c0-0.00391 0.00391-0.011718 0.00391-0.019531v-0.00391c0.00391-0.00781 0.00391-0.011719 0.00391-0.019531l0.00391-0.00391c0-0.00781 0.00391-0.015626 0.00781-0.023438 0-0.00781 0.00391-0.011719 0.00781-0.019531 0 0 0-0.00391 0.00391-0.00391 0-0.00391 0.00391-0.00781 0.00391-0.011718 0.0039-0.0039 0.0078-0.0078 0.0117-0.0156 0.0039-0.0039 0.0078-0.0078 0.0078-0.0117 0.0078-0.0079 0.0117-0.0157 0.0195-0.0196 0.0039-0.0078 0.0117-0.0117 0.0196-0.0195 0.00391 0 0.00781-0.00391 0.011719-0.00781 0.00781-0.00391 0.011719-0.00781 0.015625-0.011719 0.00391 0 0.00781-0.00391 0.011718-0.00391 0-0.00391 0.00391-0.00391 0.00391-0.00391 0.00781-0.00391 0.011719-0.00781 0.019531-0.00781 0.00781-0.00391 0.015625-0.00781 0.023438-0.00781l0.00391-0.00391c0.00781 0 0.011718 0 0.019531-0.00391h0.00391c0.00781 0 0.015625-0.00391 0.019531-0.00391h0.00391 0.019531zm-1.0039 0.125c0.0937 0 0.1875 0.043 0.2539 0.125-0.1367 0.168-0.3633 0.168-0.5 0 0.0664-0.0781 0.1523-0.125 0.2461-0.125zm2.0078 0c0.0938 0 0.1797 0.0469 0.2461 0.125-0.1367 0.168-0.3633 0.168-0.5 0 0.0664-0.082 0.1602-0.125 0.2539-0.125zm-1.668 0.48047c0.082031-0.0039 0.16016 0.03125 0.21875 0.08984 0.078124 0.07422 0.10937 0.1875 0.082031 0.29297-0.10547 0.03125-0.21875 0-0.29688-0.07813-0.078125-0.07813-0.10938-0.19141-0.078125-0.29688 0.023437-0.0039 0.046875-0.0078 0.074219-0.0078zm1.3281 0c0.027344 0 0.050782 0.0039 0.074219 0.0078 0.03125 0.10547 0 0.21875-0.078125 0.29688s-0.19141 0.10938-0.29688 0.07813c-0.027343-0.10547 0.00391-0.21875 0.082031-0.29297 0.058594-0.05859 0.13672-0.09375 0.21875-0.08984zm-0.664 0.395c0.00781 0.0078 0.015625 0.01563 0.023438 0.02344 0.00391 0.0039 0.00781 0.0078 0.011718 0.0078 0.00391 0.0078 0.011719 0.01563 0.015625 0.02344 0.00391 0 0.00391 0.0039 0.00781 0.0039 0.00391 0.0078 0.00781 0.01563 0.015625 0.02344 0 0.0039 0.00391 0.0078 0.00781 0.01172 0.00391 0.0078 0.00781 0.01172 0.00781 0.01953 0.00391 0.0078 0.00781 0.01172 0.011718 0.01953 0 0.0039 0 0.0078 0.00391 0.01172 0.00391 0.0039 0.00391 0.01172 0.00781 0.01953 0 0.0078 0 0.01172 0.00391 0.01563 0 0.0078 0 0.01562 0.00391 0.01953v0.01172c0.00391 0.0078 0.00391 0.01562 0.00391 0.02344v0.01563 0.01563c0 0.0078 0 0.01563-0.00391 0.02344v0.01172c-0.00391 0.0039-0.00391 0.01172-0.00391 0.01953-0.00391 0.0039-0.00391 0.0078-0.00391 0.01563-0.00391 0.0078-0.00391 0.01562-0.00781 0.01953-0.00391 0.0039-0.00391 0.0078-0.00391 0.01172-0.00391 0.0078-0.00781 0.01172-0.011718 0.01953 0 0.0078-0.00391 0.01172-0.00781 0.01953-0.00391 0.0039-0.00781 0.0078-0.00781 0.01172-0.00781 0.0078-0.011719 0.01563-0.015625 0.02344-0.00391 0-0.00391 0.0039-0.00781 0.0039-0.00391 0.0078-0.011719 0.01563-0.015625 0.02344-0.00391 0-0.00781 0.0039-0.011718 0.0078-0.0078 0.007-0.0156 0.015-0.0234 0.023-0.0078-0.008-0.0156-0.016-0.0234-0.023-0.00391-0.0039-0.00781-0.0078-0.011718-0.0078-0.00391-0.0078-0.011719-0.01563-0.015625-0.02344-0.00391 0-0.00391-0.0039-0.00781-0.0039-0.00391-0.0078-0.00781-0.01563-0.015625-0.02344 0-0.0039-0.00391-0.0078-0.00781-0.01172-0.00391-0.0078-0.00781-0.01172-0.00781-0.01953-0.00391-0.0078-0.00781-0.01172-0.011718-0.01953 0-0.0039 0-0.0078-0.00391-0.01172-0.00391-0.0039-0.00391-0.01172-0.00781-0.01953 0-0.0078 0-0.01172-0.00391-0.01563 0-0.0078 0-0.01562-0.00391-0.01953v-0.01172c-0.0039-0.009-0.0039-0.017-0.0039-0.024v-0.01563-0.01563c0-0.0078 0-0.01563 0.00391-0.02344v-0.01172c0.00391-0.0039 0.00391-0.01172 0.00391-0.01953 0.00391-0.0039 0.00391-0.0078 0.00391-0.01563 0.00391-0.0078 0.00391-0.01562 0.00781-0.01953 0.00391-0.0039 0.00391-0.0078 0.00391-0.01172 0.00391-0.0078 0.00781-0.01172 0.011718-0.01953 0-0.0078 0.00391-0.01172 0.00781-0.01953 0.00391-0.0039 0.00781-0.0078 0.00781-0.01172 0.00781-0.0078 0.011719-0.01563 0.015625-0.02344 0.00391 0 0.00391-0.0039 0.00781-0.0039 0.00391-0.0078 0.011719-0.01563 0.015625-0.02344 0.00391 0 0.00781-0.0039 0.011718-0.0078 0.0078-0.008 0.0156-0.016 0.0234-0.024z" fill-opacity=".50196"/>
  <path id="path11" d="m3.625 1.75c-0.3477 0-0.625 0.2773-0.625 0.625v0.5c0-0.3477 0.2773-0.625 0.625-0.625h5.625v-0.5z" fill-opacity=".2" fill="#fff"/>
 </g>
</svg>
