<?xml version="1.0" encoding="UTF-8" standalone="no"?>
<svg id="svg2" xmlns:rdf="http://www.w3.org/1999/02/22-rdf-syntax-ns#" xmlns="http://www.w3.org/2000/svg" height="16px" width="16px" version="1.1" xmlns:cc="http://creativecommons.org/ns#" xmlns:xlink="http://www.w3.org/1999/xlink" viewBox="0 0 16 16" xmlns:dc="http://purl.org/dc/elements/1.1/">
 <metadata id="metadata67">
  <rdf:RDF>
   <cc:Work rdf:about="">
    <dc:format>image/svg+xml</dc:format>
    <dc:type rdf:resource="http://purl.org/dc/dcmitype/StillImage"/>
   </cc:Work>
  </rdf:RDF>
 </metadata>
 <defs id="defs4">
  <filter id="alpha" height="100%" width="100%" y="0%" x="0%" filterUnits="objectBoundingBox">
   <feColorMatrix id="feColorMatrix7" values="0 0 0 0 1 0 0 0 0 1 0 0 0 0 1 0 0 0 1 0" type="matrix" in="SourceGraphic"/>
  </filter>
  <mask id="mask0">
   <g id="g10" filter="url(#alpha)">
    <rect id="rect12" fill-opacity=".50196" height="16" width="16" y="0" x="0"/>
   </g>
  </mask>
  <clipPath id="clip1">
   <rect id="rect15" width="16" height="16"/>
  </clipPath>
  <g id="surface108" clip-path="url(#clip1)">
   <path id="path18" d="m4.25 2.75c-0.1367 0-0.25 0.1133-0.25 0.25v1.5c0 0.1367 0.1133 0.25 0.25 0.25h1c0.1367 0 0.25-0.1133 0.25-0.25v-1.5c0-0.1367-0.1133-0.25-0.25-0.25zm0.25 0.5h0.5v1h-0.5z"/>
   <path id="path20" d="m6.375 2.75h0.25c0.0703 0 0.125 0.0547 0.125 0.125v1.75c0 0.0703-0.0547 0.125-0.125 0.125h-0.25c-0.0703 0-0.125-0.0547-0.125-0.125v-1.75c0-0.0703 0.0547-0.125 0.125-0.125z"/>
   <path id="path22" d="m7.625 2.75h0.25c0.0703 0 0.125 0.0547 0.125 0.125v1.75c0 0.0703-0.0547 0.125-0.125 0.125h-0.25c-0.0703 0-0.125-0.0547-0.125-0.125v-1.75c0-0.0703 0.0547-0.125 0.125-0.125z"/>
   <path id="path24" d="m8.75 2.75c-0.1367 0-0.25 0.1133-0.25 0.25v1.5c0 0.1367 0.1133 0.25 0.25 0.25h1c0.1367 0 0.25-0.1133 0.25-0.25v-1.5c0-0.1367-0.1133-0.25-0.25-0.25zm0.25 0.5h0.5v1h-0.5z"/>
   <path id="path26" d="m6.25 5.5c-0.1367 0-0.25 0.1133-0.25 0.25v1.5c0 0.1367 0.1133 0.25 0.25 0.25h1c0.1367 0 0.25-0.1133 0.25-0.25v-1.5c0-0.1367-0.1133-0.25-0.25-0.25zm0.25 0.5h0.5v1h-0.5z"/>
   <path id="path28" d="m8.375 5.5h0.25c0.0703 0 0.125 0.0547 0.125 0.125v1.75c0 0.0703-0.0547 0.125-0.125 0.125h-0.25c-0.0703 0-0.125-0.0547-0.125-0.125v-1.75c0-0.0703 0.0547-0.125 0.125-0.125z"/>
   <path id="path30" d="m9.625 5.5h0.25c0.0703 0 0.125 0.0547 0.125 0.125v1.75c0 0.0703-0.0547 0.125-0.125 0.125h-0.25c-0.0703 0-0.125-0.0547-0.125-0.125v-1.75c0-0.0703 0.0547-0.125 0.125-0.125z"/>
   <path id="path32" d="m10.75 5.5c-0.137 0-0.25 0.1133-0.25 0.25v1.5c0 0.1367 0.113 0.25 0.25 0.25h1c0.137 0 0.25-0.1133 0.25-0.25v-1.5c0-0.1367-0.113-0.25-0.25-0.25zm0.25 0.5h0.5v1h-0.5z"/>
   <path id="path34" d="m6.25 8.25c-0.1367 0-0.25 0.1133-0.25 0.25v1.5c0 0.137 0.1133 0.25 0.25 0.25h1c0.1367 0 0.25-0.113 0.25-0.25v-1.5c0-0.1367-0.1133-0.25-0.25-0.25zm0.25 0.5h0.5v1h-0.5z"/>
   <path id="path36" d="m8.375 8.25h0.25c0.0703 0 0.125 0.0547 0.125 0.125v1.75c0 0.07-0.0547 0.125-0.125 0.125h-0.25c-0.0703 0-0.125-0.055-0.125-0.125v-1.75c0-0.0703 0.0547-0.125 0.125-0.125z"/>
   <path id="path38" d="m9.625 8.25h0.25c0.0703 0 0.125 0.0547 0.125 0.125v1.75c0 0.07-0.0547 0.125-0.125 0.125h-0.25c-0.0703 0-0.125-0.055-0.125-0.125v-1.75c0-0.0703 0.0547-0.125 0.125-0.125z"/>
   <path id="path40" d="m10.75 8.25c-0.137 0-0.25 0.1133-0.25 0.25v1.5c0 0.137 0.113 0.25 0.25 0.25h1c0.137 0 0.25-0.113 0.25-0.25v-1.5c0-0.1367-0.113-0.25-0.25-0.25zm0.25 0.5h0.5v1h-0.5z"/>
   <path id="path42" d="m4.25 11c-0.1367 0-0.25 0.113-0.25 0.25v1.5c0 0.137 0.1133 0.25 0.25 0.25h1c0.1367 0 0.25-0.113 0.25-0.25v-1.5c0-0.137-0.1133-0.25-0.25-0.25zm0.25 0.5h0.5v1h-0.5z"/>
   <path id="path44" d="m6.375 11h0.25c0.0703 0 0.125 0.055 0.125 0.125v1.75c0 0.07-0.0547 0.125-0.125 0.125h-0.25c-0.0703 0-0.125-0.055-0.125-0.125v-1.75c0-0.07 0.0547-0.125 0.125-0.125z"/>
   <path id="path46" d="m7.625 11h0.25c0.0703 0 0.125 0.055 0.125 0.125v1.75c0 0.07-0.0547 0.125-0.125 0.125h-0.25c-0.0703 0-0.125-0.055-0.125-0.125v-1.75c0-0.07 0.0547-0.125 0.125-0.125z"/>
   <path id="path48" d="m8.75 11c-0.1367 0-0.25 0.113-0.25 0.25v1.5c0 0.137 0.1133 0.25 0.25 0.25h1c0.1367 0 0.25-0.113 0.25-0.25v-1.5c0-0.137-0.1133-0.25-0.25-0.25zm0.25 0.5h0.5v1h-0.5z"/>
   <path id="path50" d="m4.625 5.5h0.25c0.0703 0 0.125 0.0547 0.125 0.125v1.75c0 0.0703-0.0547 0.125-0.125 0.125h-0.25c-0.0703 0-0.125-0.0547-0.125-0.125v-1.75c0-0.0703 0.0547-0.125 0.125-0.125z"/>
   <path id="path52" d="m11.125 11h0.25c0.07 0 0.125 0.055 0.125 0.125v1.75c0 0.07-0.055 0.125-0.125 0.125h-0.25c-0.07 0-0.125-0.055-0.125-0.125v-1.75c0-0.07 0.055-0.125 0.125-0.125z"/>
   <path id="path54" d="m4.25 8.25c-0.1367 0-0.25 0.1133-0.25 0.25v1.5c0 0.137 0.1133 0.25 0.25 0.25h1c0.1367 0 0.25-0.113 0.25-0.25v-1.5c0-0.1367-0.1133-0.25-0.25-0.25zm0.25 0.5h0.5v1h-0.5z"/>
  </g>
 </defs>
 <g id="surface1" transform="matrix(1.2,0,0,1.2,-1.6,-1.1)">
  <path id="path57" d="m3.625 1.75c-0.3477 0-0.625 0.2773-0.625 0.625v11.25c0 0.34766 0.27734 0.625 0.625 0.625h8.75c0.348 0 0.625-0.277 0.625-0.625v-8.125l-3.4375-0.3125-0.3125-3.4375z" fill="#ebe8d7"/>
  <use id="use59" xlink:href="#surface108" mask="url(#mask0)" height="100%" width="100%" y="0" x="0"/>
  <path id="path61" d="m9.25 1.75v3.125c0 0.3438 0.2812 0.625 0.625 0.625h3.125z" fill="#f8f8f0"/>
  <path id="path63" d="m3.625 1.75c-0.3477 0-0.625 0.2773-0.625 0.625v0.5c0-0.3477 0.2773-0.625 0.625-0.625h5.625v-0.5z" fill-opacity=".2" fill="#fff"/>
 </g>
</svg>
