<?xml version="1.0" encoding="UTF-8" standalone="no"?>
<svg xmlns="http://www.w3.org/2000/svg" height="16px" width="16px" version="1.1" xmlns:xlink="http://www.w3.org/1999/xlink" viewBox="0 0 16 16">
 <g id="surface1">
  <path fill="#f46e2c" d="m8 0c-3.8672 0-7 3.1328-7 7v4.5c0 1.785 1.2695 2.27 2 2.402v-6.902c0-2.7695 2.2305-5 5-5 2.77 0 5 2.2305 5 5v6.906c0.73-0.133 2-0.621 2-2.406v-4.5c0-3.8672-3.133-7-7-7z"/>
  <path fill="#f68b55" d="m3 8v7h2.5v-7zm7.5 0v7h2.5v-7z"/>
  <path fill="#fff" d="m8 0c-3.8672 0-7 3.1328-7 7v0.5c0-3.8672 3.1328-7 7-7 3.867 0 7 3.1328 7 7v-0.5c0-3.8672-3.133-7-7-7z" fill-opacity=".10196"/>
  <path fill="#fff" d="m3 8v0.5h2.5v-0.5zm7.5 0v0.5h2.5v-0.5z" fill-opacity=".10196"/>
  <path d="m8 1.5c-2.7695 0-5 2.2305-5 5v0.5c0-2.7695 2.2305-5 5-5 2.77 0 5 2.2305 5 5v-0.5c0-2.7695-2.23-5-5-5zm-7 9.5v0.5c0 1.785 1.2695 2.27 2 2.402v-0.5c-0.7305-0.132-2-0.617-2-2.402zm14 0c0 1.785-1.27 2.273-2 2.406v0.5c0.73-0.133 2-0.621 2-2.406zm-12 3.5v0.5h2.5v-0.5zm7.5 0v0.5h2.5v-0.5z" fill-opacity=".30196"/>
 </g>
</svg>
