<?xml version="1.0" encoding="UTF-8" standalone="no"?>
<svg
   xmlns:dc="http://purl.org/dc/elements/1.1/"
   xmlns:cc="http://creativecommons.org/ns#"
   xmlns:rdf="http://www.w3.org/1999/02/22-rdf-syntax-ns#"
   xmlns:svg="http://www.w3.org/2000/svg"
   xmlns="http://www.w3.org/2000/svg"
   xmlns:sodipodi="http://sodipodi.sourceforge.net/DTD/sodipodi-0.dtd"
   xmlns:inkscape="http://www.inkscape.org/namespaces/inkscape"
   width="16px"
   height="16px"
   viewBox="0 0 16 16"
   version="1.1"
   id="svg2"
   inkscape:version="0.91 r"
   sodipodi:docname="x-content-software.svg">
  <metadata
     id="metadata23">
    <rdf:RDF>
      <cc:Work
         rdf:about="">
        <dc:format>image/svg+xml</dc:format>
        <dc:type
           rdf:resource="http://purl.org/dc/dcmitype/StillImage" />
      </cc:Work>
    </rdf:RDF>
  </metadata>
  <defs
     id="defs21" />
  <sodipodi:namedview
     pagecolor="#ffffff"
     bordercolor="#666666"
     borderopacity="1"
     objecttolerance="10"
     gridtolerance="10"
     guidetolerance="10"
     inkscape:pageopacity="0"
     inkscape:pageshadow="2"
     inkscape:window-width="1535"
     inkscape:window-height="876"
     id="namedview19"
     showgrid="false"
     inkscape:zoom="14.75"
     inkscape:cx="-4.0338983"
     inkscape:cy="8"
     inkscape:window-x="65"
     inkscape:window-y="24"
     inkscape:window-maximized="1"
     inkscape:current-layer="svg2" />
  <g
     id="g4163"
     transform="translate(-0.5,0.5)">
    <path
       style="fill:#e6e6e6;fill-opacity:1;fill-rule:nonzero;stroke:none"
       d="m 5.5,1.5 -1,1 0,1.5 -4,0 0,9.25 C 0.5,13.664062 0.835938,14 1.25,14 l 12.5,0 c 0.414062,0 0.75,-0.335938 0.75,-0.75 l 0,-9.25 -4,0 0,-1.5 -1,-1 z m 0,1 4,0 0,1.5 -4,0 z m 0,0"
       id="path5"
       inkscape:connector-curvature="0" />
    <path
       style="fill:#000000;fill-opacity:0.30196102;fill-rule:nonzero;stroke:none"
       d="m 5.5,2 0,0.5 4,0 0,-0.5 z m -5,10.75 0,0.5 C 0.5,13.664062 0.835938,14 1.25,14 l 12.5,0 c 0.414062,0 0.75,-0.335938 0.75,-0.75 l 0,-0.5 c 0,0.414062 -0.335938,0.75 -0.75,0.75 l -12.5,0 C 0.835938,13.5 0.5,13.164062 0.5,12.75 Z m 0,0"
       id="path7"
       inkscape:connector-curvature="0" />
    <path
       style="fill:#000000;fill-opacity:0.05098039;fill-rule:nonzero;stroke:none"
       d="m 0.5,4 14,0 0,5 -14,0 z m 0,0"
       id="path9"
       inkscape:connector-curvature="0" />
    <path
       style="fill:#ffffff;fill-opacity:0.10196102;fill-rule:nonzero;stroke:none"
       d="m 5.5,1.5 -1,1 0,0.5 1,-1 4,0 1,1 0,-0.5 -1,-1 z m -5,2.5 0,0.5 4,0 0,-0.5 z m 5,0 0,0.5 4,0 0,-0.5 z m 5,0 0,0.5 4,0 0,-0.5 z m 0,0"
       id="path15"
       inkscape:connector-curvature="0" />
    <g
       transform="translate(0.5,0)"
       id="g4158">
      <path
         inkscape:connector-curvature="0"
         id="path11"
         d="M 15,11.75 C 15,13.820312 13.320312,15.5 11.25,15.5 9.179688,15.5 7.5,13.820312 7.5,11.75 7.5,9.679688 9.179688,8 11.25,8 13.320312,8 15,9.679688 15,11.75 Z m 0,0"
         style="fill:#4ab3e3;fill-opacity:1;fill-rule:evenodd;stroke:none" />
      <path
         inkscape:connector-curvature="0"
         id="path13"
         d="M 12,9.480469 12,11.5 12.75,11.480469 11.25,13.5 l -1.5,-2.019531 0.75,0 0,-2 z M 9.5,13.5 l 3.5,0 0,0.5 -3.5,0 z m 0,0"
         style="fill:#ffffff;fill-opacity:1;fill-rule:nonzero;stroke:none" />
      <path
         inkscape:connector-curvature="0"
         id="path17"
         d="M 14.988281,11.472656 C 14.871094,13.453125 13.234375,14.996094 11.25,15 9.289062,15 7.65625,13.484375 7.511719,11.527344 7.503906,11.601562 7.5,11.675781 7.5,11.75 c 0,2.070312 1.679688,3.75 3.75,3.75 2.070312,0 3.75,-1.679688 3.75,-3.75 0,-0.09375 -0.0039,-0.1875 -0.01172,-0.277344 z m 0,0"
         style="fill:#000000;fill-opacity:0.30196102;fill-rule:evenodd;stroke:none" />
    </g>
  </g>
</svg>
