<?xml version="1.0" encoding="UTF-8" standalone="no"?>
<svg xmlns="http://www.w3.org/2000/svg" height="16px" width="16px" version="1.1" xmlns:xlink="http://www.w3.org/1999/xlink" viewBox="0 0 16 16">
 <g id="surface1">
  <path fill="#301435" d="m15 13.25v-10.5c0-0.4141-0.336-0.75-0.75-0.75h-12.5c-0.4141 0-0.75 0.3359-0.75 0.75v10.5c0 0.414 0.3359 0.75 0.75 0.75h12.5c0.414 0 0.75-0.336 0.75-0.75z"/>
  <path fill="#fff" d="m5 5.5c-0.2773 0-0.5 0.2227-0.5 0.5v4c0 0.277 0.2227 0.5 0.5 0.5h4.5c0.2773 0 0.5-0.223 0.5-0.5v-4c0-0.2773-0.2227-0.5-0.5-0.5zm5 2.5l2 1.5v-3z" fill-opacity=".8"/>
  <path fill="#fff" d="m1.75 14c-0.4141 0-0.75-0.336-0.75-0.75v-5.25h14v5.25c0 0.414-0.336 0.75-0.75 0.75z" fill-opacity=".050980"/>
  <path d="m1 12.75v0.5c0 0.414 0.3359 0.75 0.75 0.75h12.5c0.414 0 0.75-0.336 0.75-0.75v-0.5c0 0.414-0.336 0.75-0.75 0.75h-12.5c-0.4141 0-0.75-0.336-0.75-0.75z" fill-opacity=".30196"/>
  <path d="m1.75 2c-0.4141 0-0.75 0.3359-0.75 0.75v5.25h14v-5.25c0-0.4141-0.336-0.75-0.75-0.75z" fill-opacity=".050980"/>
 </g>
</svg>
