<?xml version="1.0" encoding="UTF-8" standalone="no"?>
<!-- Created with Inkscape (http://www.inkscape.org/) -->

<svg
   xmlns:dc="http://purl.org/dc/elements/1.1/"
   xmlns:cc="http://creativecommons.org/ns#"
   xmlns:rdf="http://www.w3.org/1999/02/22-rdf-syntax-ns#"
   xmlns:svg="http://www.w3.org/2000/svg"
   xmlns="http://www.w3.org/2000/svg"
   xmlns:sodipodi="http://sodipodi.sourceforge.net/DTD/sodipodi-0.dtd"
   xmlns:inkscape="http://www.inkscape.org/namespaces/inkscape"
   width="24"
   height="24"
   id="svg2"
   version="1.1"
   inkscape:version="0.91 r13725"
   viewBox="0 0 24 24"
   sodipodi:docname="kstars_fitsviewer.svg">
  <defs
     id="defs4">
    <style
       type="text/css"
       id="current-color-scheme">
      .ColorScheme-Text {
        color:#4d4d4d;
      }
      .ColorScheme-Background {
        color:#eff0f1;
      }
      .ColorScheme-Highlight {
        color:#3daee9;
      }
      .ColorScheme-ViewText {
        color:#31363b;
      }
      .ColorScheme-ViewBackground {
        color:#fcfcfc;
      }
      .ColorScheme-ViewHover {
        color:#93cee9;
      }
      .ColorScheme-ViewFocus{
        color:#3daee9;
      }
      .ColorScheme-ButtonText {
        color:#31363b;
      }
      .ColorScheme-ButtonBackground {
        color:#eff0f1;
      }
      .ColorScheme-ButtonHover {
        color:#93cee9;
      }
      .ColorScheme-ButtonFocus{
        color:#3daee9;
      }
      </style>
  </defs>
  <sodipodi:namedview
     id="base"
     pagecolor="#ffffff"
     bordercolor="#666666"
     borderopacity="1.0"
     inkscape:pageopacity="0.0"
     inkscape:pageshadow="2"
     inkscape:zoom="19.284731"
     inkscape:cx="-9.087776"
     inkscape:cy="11.696577"
     inkscape:document-units="px"
     inkscape:current-layer="layer1"
     showgrid="false"
     inkscape:showpageshadow="false"
     units="px"
     inkscape:window-width="1600"
     inkscape:window-height="847"
     inkscape:window-x="0"
     inkscape:window-y="30"
     inkscape:window-maximized="1"
     inkscape:object-nodes="true"
     inkscape:snap-bbox="true"
     inkscape:snap-global="true"
     showguides="false">
    <inkscape:grid
       type="xygrid"
       id="grid4120" />
    <sodipodi:guide
       position="2,20.000017"
       orientation="18,0"
       id="guide4126" />
    <sodipodi:guide
       position="2,2.0000174"
       orientation="0,18"
       id="guide4128" />
    <sodipodi:guide
       position="20,2.0000174"
       orientation="-18,0"
       id="guide4130" />
    <sodipodi:guide
       position="20,20.000017"
       orientation="0,-18"
       id="guide4132" />
    <sodipodi:guide
       position="3,19.000017"
       orientation="16,0"
       id="guide4134" />
    <sodipodi:guide
       position="3,3.0000174"
       orientation="0,16"
       id="guide4136" />
    <sodipodi:guide
       position="19,3.0000174"
       orientation="-16,0"
       id="guide4138" />
    <sodipodi:guide
       position="19,19.000017"
       orientation="0,-16"
       id="guide4140" />
    <sodipodi:guide
       position="19,13.000017"
       orientation="-6,0"
       id="guide4199" />
    <sodipodi:guide
       position="19,19.000017"
       orientation="0,-6.0000172"
       id="guide4201" />
  </sodipodi:namedview>
  <metadata
     id="metadata7">
    <rdf:RDF>
      <cc:Work
         rdf:about="">
        <dc:format>image/svg+xml</dc:format>
        <dc:type
           rdf:resource="http://purl.org/dc/dcmitype/StillImage" />
        <dc:title />
      </cc:Work>
    </rdf:RDF>
  </metadata>
  <g
     inkscape:label="Capa 1"
     inkscape:groupmode="layer"
     id="layer1"
     transform="translate(0,-1028.3622)">
    <path
       style="opacity:0.72;fill:#ffffff;fill-opacity:1;stroke:none"
       d="m 9.9999999,1034.3598 c -3.8659933,0 -6.0000078,2.6792 -6.0000078,5.9837 0,3.3046 2.1340145,5.7657 6.0000078,5.7657 -3.2216794,0 -4.8340178,-3.0118 -4.8339922,-5.7657 -2.56e-5,-2.7539 1.6123131,-4.9874 4.8339922,-4.9874 1.4560841,0 2.7709001,0.4736 3.7929691,1.2277 -0.571781,-0.174 -1.179557,-0.2641 -1.792969,-0.2658 -2.7614268,0 -5.0000043,1.7535 -5.0000001,3.9165 l 0,0.01 c 0.00102,0.106 0.00754,0.2119 0.019531,0.3175 0.1929498,3.2303 3.2389801,5.8002 6.9804691,5.8002 3.865992,0 6.000008,-2.7422 6.000008,-6.1234 0,-3.3813 -2.134014,-5.8766 -6.000008,-5.8766 3.221678,0 4.834018,3.057 4.833992,5.8747 2.6e-5,2.8177 -1.612316,5.1022 -4.833992,5.1022 -1.67251,0 -3.17659,-0.6201 -4.2402347,-1.6064 0.6950177,0.2741 1.4621087,0.4173 2.2402347,0.4183 2.70495,0 4.916912,-1.6895 4.992188,-3.8075 l 0.0078,0 c 0,-0.019 -0.0037,-0.038 -0.0039,-0.057 0.0014,-0.017 0.0027,-0.035 0.0039,-0.052 -0.0017,-0.1336 -0.01214,-0.267 -0.03125,-0.3997 -0.302591,-3.066 -3.303618,-5.475 -6.9687501,-5.475 z"
       id="path4172"
       inkscape:connector-curvature="0"
       sodipodi:nodetypes="csccsccsccssccsccccccccc" />
  </g>
</svg>
