<?xml version="1.0" encoding="UTF-8" standalone="no"?>
<!-- Created with Inkscape (http://www.inkscape.org/) -->

<svg
   xmlns:dc="http://purl.org/dc/elements/1.1/"
   xmlns:cc="http://creativecommons.org/ns#"
   xmlns:rdf="http://www.w3.org/1999/02/22-rdf-syntax-ns#"
   xmlns:svg="http://www.w3.org/2000/svg"
   xmlns="http://www.w3.org/2000/svg"
   xmlns:sodipodi="http://sodipodi.sourceforge.net/DTD/sodipodi-0.dtd"
   xmlns:inkscape="http://www.inkscape.org/namespaces/inkscape"
   width="24"
   height="24"
   id="svg4355"
   version="1.1"
   inkscape:version="0.91 r13725"
   sodipodi:docname="labplot-xy-equation-curve.svg">
  <defs
     id="defs4357">
    <style
       type="text/css"
       id="current-color-scheme">
      .ColorScheme-Text {
        color:#4d4d4d;
      }
      .ColorScheme-Background {
        color:#eff0f1;
      }
      .ColorScheme-Highlight {
        color:#3daee9;
      }
      .ColorScheme-ViewText {
        color:#31363b;
      }
      .ColorScheme-ViewBackground {
        color:#fcfcfc;
      }
      .ColorScheme-ViewHover {
        color:#93cee9;
      }
      .ColorScheme-ViewFocus{
        color:#3daee9;
      }
      .ColorScheme-ButtonText {
        color:#31363b;
      }
      .ColorScheme-ButtonBackground {
        color:#eff0f1;
      }
      .ColorScheme-ButtonHover {
        color:#93cee9;
      }
      .ColorScheme-ButtonFocus{
        color:#3daee9;
      }
      </style>
  </defs>
  <sodipodi:namedview
     id="base"
     pagecolor="#ffffff"
     bordercolor="#666666"
     borderopacity="1.0"
     inkscape:pageopacity="0.0"
     inkscape:pageshadow="2"
     inkscape:zoom="17.16"
     inkscape:cx="7.92507"
     inkscape:cy="9.374312"
     inkscape:document-units="px"
     inkscape:current-layer="g3984"
     showgrid="false"
     width="0px"
     height="0px"
     fit-margin-top="0"
     fit-margin-left="0"
     fit-margin-right="0"
     fit-margin-bottom="0"
     inkscape:window-width="1600"
     inkscape:window-height="847"
     inkscape:window-x="0"
     inkscape:window-y="30"
     inkscape:window-maximized="1"
     inkscape:showpageshadow="false"
     inkscape:snap-bbox="true"
     inkscape:snap-global="false"
     showguides="false">
    <inkscape:grid
       type="xygrid"
       id="grid4114" />
    <sodipodi:guide
       position="2.0000011,19.999996"
       orientation="18,0"
       id="guide4120" />
    <sodipodi:guide
       position="2.0000011,1.9999962"
       orientation="0,18"
       id="guide4122" />
    <sodipodi:guide
       position="20.000001,1.9999962"
       orientation="-18,0"
       id="guide4124" />
    <sodipodi:guide
       position="15.734266,3.030303"
       orientation="0,-18"
       id="guide4126" />
    <sodipodi:guide
       position="3.0000011,18.999996"
       orientation="16,0"
       id="guide4128" />
    <sodipodi:guide
       position="3.0000011,2.9999962"
       orientation="0,16"
       id="guide4130" />
    <sodipodi:guide
       position="19.000001,2.9999962"
       orientation="-16,0"
       id="guide4132" />
    <sodipodi:guide
       position="19.000001,18.999996"
       orientation="0,-16"
       id="guide4134" />
  </sodipodi:namedview>
  <metadata
     id="metadata4360">
    <rdf:RDF>
      <cc:Work
         rdf:about="">
        <dc:format>image/svg+xml</dc:format>
        <dc:type
           rdf:resource="http://purl.org/dc/dcmitype/StillImage" />
        <dc:title></dc:title>
      </cc:Work>
    </rdf:RDF>
  </metadata>
  <g
     inkscape:label="Capa 1"
     inkscape:groupmode="layer"
     id="layer1"
     transform="translate(-544.57141,-740.93359)">
    <g
       id="g3845"
       transform="translate(0,-0.53516)">
      <g
         id="g3984"
         transform="translate(0,3)">
        <path
           style="color:#4d4d4d;font-style:normal;font-variant:normal;font-weight:normal;font-stretch:normal;font-size:medium;line-height:normal;font-family:sans-serif;text-indent:0;text-align:start;text-decoration:none;text-decoration-line:none;text-decoration-style:solid;text-decoration-color:#ffffff;letter-spacing:normal;word-spacing:normal;text-transform:none;direction:ltr;block-progression:tb;writing-mode:lr-tb;baseline-shift:baseline;text-anchor:start;white-space:normal;clip-rule:nonzero;display:inline;overflow:visible;visibility:visible;opacity:0.72;isolation:auto;mix-blend-mode:normal;color-interpolation:sRGB;color-interpolation-filters:linearRGB;solid-color:#ffffff;solid-opacity:1;fill:#ffffff;fill-opacity:1;fill-rule:nonzero;stroke:none;stroke-width:1;stroke-linecap:butt;stroke-linejoin:miter;stroke-miterlimit:4;stroke-dasharray:none;stroke-dashoffset:0;stroke-opacity:1;color-rendering:auto;image-rendering:auto;shape-rendering:auto;text-rendering:auto;enable-background:accumulate"
           d="m 556.57141,743.46893 c -0.93056,0 -1.72962,0.49542 -2.44531,1.14454 -0.71569,0.6491 -1.37788,1.4764 -2.06055,2.28319 -0.84454,1.16696 -2.99865,2.73752 -3.49414,3.00197 l 0,0.0703 0,0 0,1 c 1.27201,0 1.3661,0.79186 2.39844,1.85155 0.0397,0.11742 0.0763,0.23817 0.12695,0.3418 0.0753,0.15404 0.13895,0.32965 0.42383,0.45118 l 0.11914,0.0508 0.0801,-0.008 c 0.11398,0.13109 0.23038,0.2508 0.34375,0.38477 0.68268,0.80679 1.34682,1.63409 2.0625,2.2832 0.71569,0.6491 1.51475,1.14453 2.44531,1.14453 0.93055,0 1.72962,-0.49542 2.44531,-1.14454 0.71569,-0.6491 1.37788,-1.47641 2.06055,-2.28319 1.36535,-1.61361 1.76497,-3.07227 3.49414,-3.07227 l 0,-1 c -0.78416,0 -0.49768,-0.3107 -1.17383,-0.78906 -0.0989,-0.0875 -0.20044,-0.1734 -0.29492,-0.26563 -0.2881,-0.2812 -0.55342,-0.56271 -0.78906,-0.78711 -0.11781,-0.11219 -0.22544,-0.21022 -0.34571,-0.29492 -0.0327,-0.0231 -0.0759,-0.0441 -0.11523,-0.0664 -0.26004,-0.28276 -0.51969,-0.56694 -0.77539,-0.86914 -0.68268,-0.80679 -1.34486,-1.63409 -2.06055,-2.28319 -0.71569,-0.64911 -1.51475,-1.14454 -2.44531,-1.14454 z m 0,1 c 0.56944,0 1.14538,0.31709 1.77344,0.88672 0.62806,0.56964 1.27838,1.36734 1.9707,2.18555 0.12133,0.14338 0.25591,0.28523 0.38086,0.42968 -0.0592,0.0497 -0.11612,0.10182 -0.16602,0.15821 -0.23429,0.26477 -0.41434,0.59335 -0.58007,0.9707 -0.33145,0.75472 -0.59715,1.71005 -0.83594,2.66406 -0.23878,0.95401 -0.44806,1.90433 -0.63867,2.59961 -0.0418,0.15233 -0.0757,0.22764 -0.11524,0.35156 -0.0935,-0.24922 -0.18738,-0.49638 -0.29297,-0.86718 -0.28929,-1.01583 -0.60343,-2.39778 -0.91015,-3.7793 -0.30671,-1.38152 -0.60635,-2.76351 -0.875,-3.8125 -0.13432,-0.5245 -0.25868,-0.96257 -0.38281,-1.29492 -0.0407,-0.10878 -0.0875,-0.19449 -0.13282,-0.28516 0.2724,-0.13082 0.53971,-0.20703 0.80469,-0.20703 z m -1.56445,0.9922 c 0.0914,0.26477 0.19285,0.59864 0.30664,1.04296 0.26045,1.01695 0.55973,2.39638 0.86719,3.78125 0.30745,1.38487 0.62358,2.77477 0.92578,3.83593 0.1511,0.53059 0.29567,0.97579 0.44922,1.32032 0.0768,0.17227 0.1523,0.31938 0.25781,0.45507 0.0169,0.0217 0.0482,0.0433 0.0684,0.0664 -0.45279,0.32842 -0.8842,0.50586 -1.31055,0.50586 -0.56945,0 -1.14538,-0.31709 -1.77344,-0.88672 -0.62806,-0.56965 -1.27837,-1.36734 -1.9707,-2.18556 -0.0629,-0.0743 -0.13348,-0.14791 -0.19727,-0.22265 0.0423,-0.0461 0.0854,-0.0914 0.12305,-0.14063 0.23728,-0.31073 0.41346,-0.68917 0.57227,-1.11914 0.31763,-0.8599 0.54953,-1.93 0.76757,-2.98242 0.21804,-1.05242 0.42147,-2.08793 0.64649,-2.82227 0.0894,-0.29175 0.18207,-0.48202 0.26758,-0.64843 z m -1.43946,1.21092 c -0.1562,0.64684 -0.30415,1.33759 -0.45312,2.05665 -0.21639,1.04444 -0.44872,2.08571 -0.72656,2.83789 -0.13747,0.37216 -0.28812,0.67108 -0.42578,0.85352 -0.0415,-0.0452 -0.0791,-0.0919 -0.1211,-0.13672 -0.0929,-0.31393 -0.18998,-0.71182 -0.29687,-1.125 -0.11434,-0.44195 -0.23417,-0.88506 -0.39258,-1.2539 -0.0587,-0.1368 -0.12675,-0.26121 -0.20899,-0.38086 0.68684,-0.59577 1.30636,-1.29885 1.88477,-1.98243 0.25377,-0.29992 0.49678,-0.58496 0.74023,-0.86915 z m 7.79688,2.0547 c 0.43884,0.46267 0.90762,0.89137 1.41211,1.25391 0.21311,0.1967 0.43639,0.38546 0.67969,0.55273 -1.22446,0.65712 -2.23342,1.78883 -3.14258,2.86328 -0.27556,0.32567 -0.53961,0.63728 -0.80274,0.94336 0.1814,-0.69548 0.36589,-1.49967 0.57422,-2.33203 0.23414,-0.93546 0.49757,-1.85992 0.78125,-2.50586 0.14184,-0.32296 0.29161,-0.57475 0.41211,-0.71093 0.058,-0.0656 0.0643,-0.0536 0.0859,-0.0645 z m -11.20899,1.43164 c 0.0263,0.0445 0.0461,0.0661 0.0781,0.14063 0.0737,0.17156 0.14815,0.45797 0.22266,0.71875 -0.28648,-0.21251 -0.58905,-0.39177 -0.90235,-0.54883 0.14433,-0.0724 0.28934,-0.14332 0.42774,-0.22852 0.0587,-0.0298 0.11496,-0.0495 0.17382,-0.082 z"
           id="path4725"
           inkscape:connector-curvature="0"
           sodipodi:nodetypes="sscccccccccccssssccccsccsssssscccscccssccsccsscscssscscssccssccsccsccccscsccccccccc" />
        <g
           id="g3012">
          <g
             id="g3008" />
        </g>
      </g>
    </g>
  </g>
</svg>
