<?xml version="1.0" encoding="UTF-8" standalone="no"?>
<!-- Created with Inkscape (http://www.inkscape.org/) -->

<svg
   xmlns:dc="http://purl.org/dc/elements/1.1/"
   xmlns:cc="http://creativecommons.org/ns#"
   xmlns:rdf="http://www.w3.org/1999/02/22-rdf-syntax-ns#"
   xmlns:svg="http://www.w3.org/2000/svg"
   xmlns="http://www.w3.org/2000/svg"
   xmlns:sodipodi="http://sodipodi.sourceforge.net/DTD/sodipodi-0.dtd"
   xmlns:inkscape="http://www.inkscape.org/namespaces/inkscape"
   width="16"
   height="16"
   viewBox="0 0 16 16"
   id="svg4143"
   version="1.1"
   inkscape:version="0.91 r13725"
   sodipodi:docname="folder-games.svg">
  <defs
     id="defs4145" />
  <sodipodi:namedview
     id="base"
     pagecolor="#747474"
     bordercolor="#666666"
     borderopacity="1.0"
     inkscape:pageopacity="0"
     inkscape:pageshadow="2"
     inkscape:zoom="3.52"
     inkscape:cx="-83.571429"
     inkscape:cy="63.403409"
     inkscape:document-units="px"
     inkscape:current-layer="layer1"
     showgrid="false"
     units="px"
     inkscape:window-width="1548"
     inkscape:window-height="846"
     inkscape:window-x="52"
     inkscape:window-y="30"
     inkscape:window-maximized="1" />
  <metadata
     id="metadata4148">
    <rdf:RDF>
      <cc:Work
         rdf:about="">
        <dc:format>image/svg+xml</dc:format>
        <dc:type
           rdf:resource="http://purl.org/dc/dcmitype/StillImage" />
        <dc:title></dc:title>
      </cc:Work>
    </rdf:RDF>
  </metadata>
  <g
     inkscape:label="Layer 1"
     inkscape:groupmode="layer"
     id="layer1"
     transform="translate(0,-1036.3622)">
    <path
       inkscape:connector-curvature="0"
       d="m 3.784565,1038.3934 c -0.24234,10e-4 -0.52104,0.066 -0.80589,0.2188 -1.03738,0.5465 -1.99198,2.336 -2.51067,4.6562 -0.44216,1.9709 -0.60455,4.6661 -0.34095,5.75 0.22958,0.9317 0.62706,1.3438 1.33282,1.3438 1.04588,-0.018 2.35927,-1.1823 3.19257,-2.75 0.6027,-0.8679 2.00051,-1.2625 3.34756,-1.2188 1.34704,-0.047 2.74485,0.3509 3.34755,1.2188 0.8333,1.5677 2.14669,2.7321 3.19257,2.75 0.70576,0 1.10324,-0.4121 1.33282,-1.3438 0.2636,-1.0839 0.10121,-3.7791 -0.34095,-5.75 -0.51869,-2.3202 -1.47329,-4.1097 -2.51067,-4.6562 -0.5697,-0.3046 -1.04015,-0.2956 -1.4568,0 -0.52719,0.3763 -1.62582,0.7796 -3.56452,0.7812 -1.93871,0 -3.03734,-0.4049 -3.56453,-0.7812 -0.20832,-0.1478 -0.40857,-0.2199 -0.65091,-0.2188 z m 0.24797,3 0.99186,0 0,1 0.99187,0 0,1 -0.99187,0 0,1 -0.99186,0 0,-1 -0.99187,0 0,-1 0.99187,0 0,-1 z m 7.439,0 c 0.2739,0 0.49593,0.2239 0.49593,0.5 0,0.2762 -0.22203,0.5 -0.49593,0.5 -0.2739,0 -0.49593,-0.2238 -0.49593,-0.5 0,-0.2761 0.22203,-0.5 0.49593,-0.5 z m -0.99187,1 c 0.2739,0 0.49594,0.2239 0.49594,0.5 0,0.2762 -0.22204,0.5 -0.49594,0.5 -0.27389,0 -0.49593,-0.2238 -0.49593,-0.5 0,-0.2761 0.22204,-0.5 0.49593,-0.5 z m 1.98374,0 c 0.27389,0 0.49593,0.2239 0.49593,0.5 0,0.2762 -0.22204,0.5 -0.49593,0.5 -0.2739,0 -0.49594,-0.2238 -0.49594,-0.5 0,-0.2761 0.22204,-0.5 0.49594,-0.5 z m -0.99187,1 c 0.2739,0 0.49593,0.2239 0.49593,0.5 0,0.2762 -0.22203,0.5 -0.49593,0.5 -0.2739,0 -0.49593,-0.2238 -0.49593,-0.5 0,-0.2761 0.22203,-0.5 0.49593,-0.5 z"
       id="path10"
       style="opacity:0.72000002;fill:#ffffff;fill-opacity:1" />
  </g>
</svg>
