<?xml version="1.0" encoding="UTF-8" standalone="no"?>
<!-- Created with Inkscape (http://www.inkscape.org/) -->

<svg
   xmlns:dc="http://purl.org/dc/elements/1.1/"
   xmlns:cc="http://creativecommons.org/ns#"
   xmlns:rdf="http://www.w3.org/1999/02/22-rdf-syntax-ns#"
   xmlns:svg="http://www.w3.org/2000/svg"
   xmlns="http://www.w3.org/2000/svg"
   xmlns:sodipodi="http://sodipodi.sourceforge.net/DTD/sodipodi-0.dtd"
   xmlns:inkscape="http://www.inkscape.org/namespaces/inkscape"
   id="svg7384"
   style="enable-background:new"
   height="48"
   width="48"
   version="1.1"
   inkscape:version="0.91 r"
   sodipodi:docname="notification-display-brightness.svg">
  <defs
     id="defs11" />
  <sodipodi:namedview
     pagecolor="#ffffff"
     bordercolor="#666666"
     borderopacity="1"
     objecttolerance="10"
     gridtolerance="10"
     guidetolerance="10"
     inkscape:pageopacity="0"
     inkscape:pageshadow="2"
     inkscape:window-width="1535"
     inkscape:window-height="876"
     id="namedview9"
     showgrid="false"
     inkscape:zoom="4.9166667"
     inkscape:cx="-8.3389831"
     inkscape:cy="24"
     inkscape:window-x="65"
     inkscape:window-y="24"
     inkscape:window-maximized="1"
     inkscape:current-layer="svg7384" />
  <metadata
     id="metadata90">
    <rdf:RDF>
      <cc:Work
         rdf:about="">
        <dc:format>image/svg+xml</dc:format>
        <dc:type
           rdf:resource="http://purl.org/dc/dcmitype/StillImage" />
        <dc:title>Paper Symbolic Icon Theme</dc:title>
      </cc:Work>
    </rdf:RDF>
  </metadata>
  <title
     id="title8473">Paper Symbolic Icon Theme</title>
  <g
     id="layer12"
     transform="translate(-445 58)">
    <path
       id="rect3762"
       fill="#444"
       d="m469-48.562c-1.5359 1.5156-3.0326 3.0735-4.5938 4.5625h-5.4062v5.4062c-1.4892 1.5612-3.0467 3.0578-4.5625 4.5938 1.5158 1.5361 3.0734 3.0324 4.5625 4.5938v5.4062h5.4062c1.5612 1.4892 3.0578 3.0467 4.5938 4.5625 1.5361-1.5158 3.0324-3.0734 4.5938-4.5625h5.4062v-5.4062c1.4892-1.5612 3.0467-3.0578 4.5625-4.5938-1.5158-1.5361-3.0734-3.0324-4.5625-4.5938v-5.4062h-5.4062c-1.5612-1.4892-3.0578-3.0467-4.5938-4.5625zm0 5.5625c4.9706 0 9 4.0294 9 9s-4.0294 9-9 9-9-4.0294-9-9 4.0294-9 9-9z"
       style="fill:#ffffff;fill-opacity:1" />
    <path
       id="path3797"
       fill="#444"
       d="m469-40c-3.3137 0-6 2.6863-6 6s2.6863 6 6 6v-12z"
       style="fill:#ffffff;fill-opacity:1" />
    <rect
       id="rect5812"
       opacity=".1"
       style="color:#bebebe"
       height="48"
       width="48"
       y="-58"
       x="445"
       fill="none" />
  </g>
</svg>
