<?xml version="1.0" encoding="UTF-8" standalone="no"?>
<!-- Created with Inkscape (http://www.inkscape.org/) -->

<svg
   xmlns:dc="http://purl.org/dc/elements/1.1/"
   xmlns:cc="http://creativecommons.org/ns#"
   xmlns:rdf="http://www.w3.org/1999/02/22-rdf-syntax-ns#"
   xmlns:svg="http://www.w3.org/2000/svg"
   xmlns="http://www.w3.org/2000/svg"
   xmlns:sodipodi="http://sodipodi.sourceforge.net/DTD/sodipodi-0.dtd"
   xmlns:inkscape="http://www.inkscape.org/namespaces/inkscape"
   width="22"
   height="22"
   id="svg3049"
   version="1.1"
   inkscape:version="0.91 r13725"
   sodipodi:docname="atmosphere.svg"
   inkscape:export-filename="/home/uri/.kde/share/icons/NITRUX-KDE/16x16/actions/view-right-new.png"
   inkscape:export-xdpi="30"
   inkscape:export-ydpi="30">
  <defs
     id="defs3051">
    <style
       type="text/css"
       id="current-color-scheme">
      .ColorScheme-Text {
        color:#4d4d4d;
      }
      .ColorScheme-Background {
        color:#eff0f1;
      }
      .ColorScheme-Highlight {
        color:#3daee9;
      }
      .ColorScheme-ViewText {
        color:#31363b;
      }
      .ColorScheme-ViewBackground {
        color:#fcfcfc;
      }
      .ColorScheme-ViewHover {
        color:#93cee9;
      }
      .ColorScheme-ViewFocus{
        color:#3daee9;
      }
      .ColorScheme-ButtonText {
        color:#31363b;
      }
      .ColorScheme-ButtonBackground {
        color:#eff0f1;
      }
      .ColorScheme-ButtonHover {
        color:#93cee9;
      }
      .ColorScheme-ButtonFocus{
        color:#3daee9;
      }
      </style>
  </defs>
  <sodipodi:namedview
     id="base"
     pagecolor="#ffffff"
     bordercolor="#666666"
     borderopacity="1.0"
     inkscape:pageopacity="0.0"
     inkscape:pageshadow="2"
     inkscape:zoom="1"
     inkscape:cx="7.0667009"
     inkscape:cy="6.17697"
     inkscape:document-units="px"
     inkscape:current-layer="layer1-6"
     showgrid="false"
     fit-margin-top="0"
     fit-margin-left="0"
     fit-margin-right="0"
     fit-margin-bottom="0"
     inkscape:window-width="1600"
     inkscape:window-height="847"
     inkscape:window-x="0"
     inkscape:window-y="30"
     inkscape:window-maximized="1"
     inkscape:showpageshadow="false"
     borderlayer="true"
     inkscape:snap-bbox="true"
     inkscape:snap-global="true"
     inkscape:object-nodes="true"
     showguides="false">
    <inkscape:grid
       type="xygrid"
       id="grid4085" />
    <sodipodi:guide
       position="2.0000044,14.00003"
       orientation="12,0"
       id="guide4075" />
    <sodipodi:guide
       position="2.0000044,2.0000296"
       orientation="0,12"
       id="guide4077" />
    <sodipodi:guide
       position="14,9"
       orientation="-12,0"
       id="guide4079" />
    <sodipodi:guide
       position="14,14"
       orientation="0,-12"
       id="guide4081" />
  </sodipodi:namedview>
  <metadata
     id="metadata3054">
    <rdf:RDF>
      <cc:Work
         rdf:about="">
        <dc:format>image/svg+xml</dc:format>
        <dc:type
           rdf:resource="http://purl.org/dc/dcmitype/StillImage" />
        <dc:title></dc:title>
      </cc:Work>
    </rdf:RDF>
  </metadata>
  <g
     inkscape:label="Capa 1"
     inkscape:groupmode="layer"
     id="layer1"
     transform="translate(-421.71429,-525.79074)">
    <g
       transform="matrix(0.75,0,0,0.74999813,421.46429,-241.22897)"
       id="layer1-0"
       inkscape:label="Capa 1">
      <g
         transform="translate(6.2937501e-7,-2.041003e-4)"
         id="layer1-6"
         inkscape:label="Capa 1">
        <path
           style="opacity:0.72;fill:#ffffff;fill-opacity:1;stroke:none;stroke-width:2.66667008;stroke-linecap:round;stroke-linejoin:round;stroke-miterlimit:4;stroke-dasharray:none;stroke-opacity:1"
           d="m 14.999999,1028.029 a 9.3333326,9.3333574 0 0 0 -9.3333327,9.3334 9.3333326,9.3333574 0 0 0 9.3333327,9.3334 9.3333326,9.3333574 0 0 0 9.333333,-9.3334 9.3333326,9.3333574 0 0 0 -9.333333,-9.3334 z m 0,2.6667 c 0.230119,0 0.442553,0.019 0.666667,0.042 0.01681,0 0.03452,9e-4 0.05208,0 a 6.6666662,6.6666842 0 0 1 0.408854,0.062 c 0.154862,0.03 0.299623,0.065 0.455729,0.1041 0.342128,0.084 0.680964,0.1984 1,0.3334 0.175902,0.074 0.3322,0.1613 0.500001,0.25 -10e-5,0.012 0.0011,0.027 0,0.042 0.03864,0.017 0.05971,0.089 0.125,0.125 0.02397,0.013 0.01908,0.032 0.04167,0.044 0.03864,0.021 0.09132,0.043 0.08333,0.081 -0.01067,0.053 -0.08767,0.042 -0.125,0.083 0.0051,0.077 -0.06339,0.073 -0.08333,0.125 0.012,0.033 0.07805,0.043 0.08333,0.083 -0.0065,0.043 -0.09936,0.039 -0.08333,0.083 0.07201,0.056 0.140338,0.013 0.208333,0 0.149321,-0.019 0.283004,-0.01 0.375,-0.083 -0.012,-0.071 0.132987,-0.061 0.125,-0.125 0.03821,0.028 0.08707,0.055 0.125,0.083 -0.01435,0.014 -0.02556,0.034 -0.04167,0.042 -0.02801,0.013 -0.058,0.026 -0.08333,0.042 -0.03733,0.024 -0.08229,0.055 -0.125,0.083 -0.03065,0.021 -0.093,0.125 -0.125,0.125 -0.03865,0 -0.097,-0.05 -0.125,-0.042 -0.04004,0.013 -0.03808,0.067 -0.08333,0.083 -0.08799,0.032 -0.261007,-0.049 -0.291667,0.083 0.03733,0.076 0.18334,0.041 0.25,0.083 0.04136,0.027 0.114333,0.1214 0.125,0.1667 0.01067,0.037 0.01599,0.21 0,0.25 -0.04136,0.1067 -0.169016,0.085 -0.291667,0.083 l -0.08333,0 c -0.206645,-0.013 -0.406668,-0.1066 -0.500001,0.042 0.0066,0.1133 0.02537,0.193 0,0.2917 -0.01863,0.072 -0.128998,0.1462 -0.125,0.2083 0.0015,0.032 0.07534,0.08 0.08333,0.125 0.0051,0.024 -0.01076,0.061 0,0.083 0.03469,0.065 0.105338,-0.013 0.166667,0 0.05867,0.013 0.125,0.098 0.125,0.164 0,0.047 -0.01227,0.1215 -0.04167,0.1667 -0.05867,0.088 -0.166004,0.077 -0.25,0.125 -0.0693,0.04 -0.08366,0.1395 -0.125,0.2083 -0.044,0.075 -0.100692,0.1042 -0.08333,0.211 -0.05999,0.1186 -0.126016,0.1926 -0.25,0.25 -0.03601,0.016 -0.09167,0.018 -0.125,0.042 -0.02669,0.019 -0.04597,0.082 -0.08333,0.125 -0.04664,0.052 -0.09967,0.085 -0.125,0.125 -0.0187,0.031 -0.02172,0.082 -0.04167,0.125 -0.02933,0.056 -0.08767,0.069 -0.125,0.125 -0.01731,0.027 -0.02304,0.09 -0.04167,0.125 -0.04268,0.077 -0.09133,0.1404 -0.08333,0.2084 0.0066,0.064 0.07934,0.066 0.08333,0.125 0.0037,0.032 -0.04299,0.047 -0.04167,0.083 0.0015,0.051 0.03771,0.085 0.04167,0.125 0.0093,0.099 -0.06471,0.1409 -0.08333,0.2083 -0.0093,0.032 0.008,0.055 0,0.081 -0.01599,0.049 -0.082,0.1077 -0.08333,0.1666 -0.0015,0.041 0.07937,0.066 0.08333,0.125 0.0029,0.039 -0.04966,0.088 -0.04167,0.125 0.01467,0.072 0.152343,0.1524 0.208333,0.2084 0.076,0.076 0.17501,0.1283 0.208333,0.2083 0.02801,0.068 0.03138,0.1992 0.08333,0.25 0.03865,0.037 0.117342,0.043 0.166666,0.083 0.04664,0.036 0.07567,0.043 0.125,0.083 0.08133,0.064 0.204003,0.2176 0.333334,0.2083 0.06798,-0.013 0.132338,-0.07 0.208334,-0.083 0.07867,-0.013 0.170008,-0.048 0.25,-0.042 0.06131,0.013 0.144337,0.046 0.208333,0.042 0.06665,-0.013 0.132347,-0.01 0.208333,-0.042 0.132,-0.057 0.349688,-0.1526 0.541667,-0.125 0.146652,0.021 0.14734,0.1847 0.25,0.25 0.11732,0.013 0.198343,-0.023 0.291667,0 0.07069,0.017 0.160001,0.1112 0.166666,0.1667 0.0067,0.057 -0.07535,0.1304 -0.08333,0.1666 -0.01863,0.077 0.01333,0.159 0,0.2084 -0.01067,0.039 -0.04299,0.086 -0.04167,0.125 0,0.035 0.04731,0.121 0.08333,0.1666 0.044,0.056 0.113333,0.1064 0.166666,0.1667 0.09732,0.112 0.14034,0.227 0.208334,0.375 0.01731,0.037 -0.01599,0.077 0,0.125 -0.02933,0.2239 -0.103347,0.3771 -0.25,0.625 -0.06931,0.08 -0.168002,0.1501 -0.166667,0.25 -0.0051,0.24 0.135665,0.393 0.125,0.625 -0.02397,0.3119 0.02405,0.3335 0,0.5 0.105333,0.053 0.03065,0.2225 0,0.3333 -0.04532,0.132 -0.09967,0.162 -0.125,0.25 0.07077,0.031 0.171361,0.018 0.25,0 a 6.6666662,6.6666842 0 0 1 -0.01307,0.013 c -0.0364,0.038 -0.07544,0.075 -0.111973,0.112 -0.285771,0.2858 -0.613044,0.5569 -0.947919,0.7891 a 6.6666662,6.6666842 0 0 1 -0.09115,0.065 c -0.262047,0.1748 -0.541498,0.3218 -0.825522,0.4609 a 6.6666662,6.6666842 0 0 1 -0.416665,0.1875 6.6666662,6.6666842 0 0 1 -0.01041,0.01 c -0.221146,0.089 -0.45173,0.1597 -0.684896,0.224 a 6.6666662,6.6666842 0 0 1 -1.234338,0.2108 c -0.164887,0.01 -0.328598,0.016 -0.497396,0.016 -0.245871,0 -0.488124,-0.015 -0.726562,-0.042 a 6.6666662,6.6666842 0 0 1 -0.773438,-0.1328 c -0.31503,-0.085 -0.618328,-0.2083 -0.916666,-0.3255 -0.01249,-0.023 -0.0445,-0.056 -0.04167,-0.083 0.0693,-0.029 0.199341,0.099 0.25,0 0.02537,-0.047 -0.03337,-0.1616 0,-0.2083 0.02398,-0.032 0.159009,-0.032 0.208333,-0.042 0.07069,-0.013 0.168338,-0.023 0.208334,-0.042 0.044,-0.028 0.09133,-0.1262 0.08333,-0.2084 -0.0037,-0.039 -0.05275,-0.049 -0.08333,-0.083 -0.0253,-0.029 0.01731,-0.055 0,-0.083 -0.03197,-0.047 -0.111668,-0.057 -0.125,-0.125 0.09599,-0.019 0.236348,0.08 0.375,0.042 0.06534,-0.019 0.177665,-0.1468 0.208333,-0.2083 0.0093,-0.019 -0.01064,-0.057 0,-0.081 0.01203,-0.024 0.03763,-0.07 0.04167,-0.083 0.0093,-0.036 -0.008,-0.018 0,-0.042 0.02398,-0.068 0.085,-0.1209 0.125,-0.1693 0.03065,-0.037 0.09696,-0.086 0.125,-0.125 0.03197,-0.041 0.0204,-0.044 0.04167,-0.081 0.02002,-0.1214 -0.071,-0.2268 -0.04167,-0.3334 0.03197,-0.12 0.217349,-0.1953 0.333333,-0.25 0.03997,-0.019 0.09167,-0.032 0.125,-0.044 0.07999,-0.028 0.175339,-0.055 0.25,-0.081 0.125327,-0.045 0.146997,-0.1354 0.208333,-0.25 0.02933,-0.053 0.07798,-0.1276 0.08333,-0.1666 0.0051,-0.035 -0.0066,-0.042 0,-0.083 0.0066,-0.039 -0.01064,-0.08 0,-0.125 0.01467,-0.057 0.04167,-0.1861 0.04167,-0.25 0,-0.053 -0.04035,-0.077 -0.04167,-0.125 -0.0093,-0.1733 0.06102,-0.1553 0.125,-0.25 0.03197,-0.047 0.06075,-0.1332 0.08333,-0.1666 0.107991,-0.16 0.304999,-0.2157 0.291667,-0.4584 -0.0051,-0.08 -0.06636,-0.2663 -0.125,-0.2916 -0.03337,-0.015 -0.07567,-0.024 -0.125,-0.042 -0.157322,-0.059 -0.294353,-0.2367 -0.458334,-0.25 l -0.08333,0 c -0.06402,0 -0.136342,-0.032 -0.208333,-0.042 -0.04532,-0.013 -0.140002,0.013 -0.166667,0 -0.04136,-0.02 -0.05004,-0.1023 -0.08333,-0.125 -0.02669,-0.019 -0.08368,-0.029 -0.125,-0.044 -0.06534,-0.024 -0.09067,-0.076 -0.166667,-0.081 -0.02398,0 -0.05669,0.013 -0.08333,0 -0.04136,-0.013 -0.08634,-0.02 -0.125,-0.044 -0.04796,-0.029 -0.105003,-0.04 -0.125,-0.081 0.044,-0.1438 -0.09567,-0.166 -0.125,-0.25 -0.01335,-0.039 0.01335,-0.132 0,-0.1666 -0.01731,-0.049 -0.07033,-0.084 -0.125,-0.125 -0.09599,-0.075 -0.154343,-0.1078 -0.291667,-0.125 -0.06131,-0.013 -0.135007,0.013 -0.208333,0 -0.07732,-0.013 -0.191341,-0.058 -0.25,-0.125 -0.05603,-0.065 -0.07568,-0.1359 -0.125,-0.1667 -0.04664,-0.029 -0.093,-0.053 -0.125,-0.083 -0.01467,-0.013 -0.02832,-0.011 -0.04167,-0.042 -0.02398,-0.049 -0.071,-0.065 -0.04167,-0.125 -0.05331,-0.027 -0.02601,0.051 -0.08333,0.042 -0.05199,-0.073 -0.09101,-0.1464 -0.208333,-0.125 -0.05331,0.013 -0.104004,0.1236 -0.166667,0.125 -0.05199,0 -0.09867,-0.1144 -0.166667,-0.125 -0.05199,-0.013 -0.130667,0.048 -0.166666,0.042 -0.05735,-0.013 -0.07304,-0.049 -0.125,-0.083 -0.03865,-0.025 -0.103667,-0.085 -0.125,-0.083 -0.06666,0 -0.116344,0.1321 -0.208334,0.083 -0.04532,-0.057 0.09502,-0.072 0.04167,-0.125 -0.03997,-0.039 -0.05132,0.023 -0.08333,0.042 -0.03733,0.024 -0.08368,0.027 -0.125,0.042 -0.092,0.035 -0.178009,0.045 -0.25,0.083 -0.06666,0.035 -0.08634,0.057 -0.125,0.125 -0.03065,0.056 -0.07834,0.164 -0.125,0.1666 -0.05603,0 -0.07433,-0.061 -0.125,-0.083 -0.153318,-0.067 -0.2483462,0.039 -0.3750002,0.042 -0.1173253,0 -0.2969981,-0.181 -0.2916666,-0.2917 0.00367,-0.068 0.033672,-0.166 0.041667,-0.25 0.0066,-0.067 0.082087,-0.1475 0.083333,-0.2083 0.00147,-0.083 -0.1550054,-0.1156 -0.2083334,-0.125 -0.1253266,-0.023 -0.2740113,0.056 -0.4166666,0 -0.026693,-0.045 0.02568,-0.08 0.041667,-0.125 0.00931,-0.024 -0.00932,-0.055 0,-0.083 0.015987,-0.043 0.1050093,-0.08 0.1249999,-0.125 0.014667,-0.035 -0.014667,-0.081 0,-0.125 0.017307,-0.048 0.0793,-0.09 0.083333,-0.125 0.00513,-0.045 -0.0474,-0.096 -0.083333,-0.125 -0.1106599,0.013 -0.1860019,0.012 -0.2499999,0.044 -0.1439827,0.065 -0.104676,0.2463 -0.25,0.2917 -0.049353,0.016 -0.1106694,0.032 -0.1666667,0.042 -0.023657,0.013 -0.053981,8e-4 -0.080729,0 a 6.6666662,6.6666842 0 0 1 0.015625,-0.078 c 0.0098,-0.015 0.019709,-0.03 0.023437,-0.047 0.09502,-0.4333 0.2418599,-0.8527 0.4166667,-1.25 l 0.041667,0 c 0.050673,0.013 0.081007,0.079 0.125,0.083 0.1226573,0.013 0.1486679,-0.1131 0.2499999,-0.1667 0.1039947,0.015 0.1553414,-0.013 0.25,0 0.06402,0.013 0.1576747,0.076 0.2083334,0.081 0.04268,0 0.043331,-0.047 0.083333,-0.042 0.039967,0.013 0.1183333,0.077 0.125,0.125 0.0066,0.06 -0.059047,0.1422 -0.041667,0.2083 0.062701,0.064 0.2023395,0.088 0.2916665,0.125 0.05867,-0.049 0.0093,-0.139 0,-0.2083 -0.0015,-0.031 0.0037,-0.097 0,-0.125 -0.0066,-0.048 -0.04167,-0.084 -0.04167,-0.125 0,-0.1907 0.163678,-0.2588 0.291666,-0.3334 0.05463,-0.032 0.118671,-0.101 0.166667,-0.125 0.06798,-0.033 0.110671,-0.01 0.166667,-0.042 0.101317,-0.057 0.171335,-0.1434 0.25,-0.2084 0.03601,-0.087 -0.0037,-0.2063 0,-0.2916 0.03601,-0.023 0.08638,0 0.125,0 0.06131,-0.013 0.09033,-0.09 0.125,-0.125 0.02002,-0.02 0.05931,-0.022 0.08333,-0.042 0.06131,-0.048 0.07165,-0.1037 0.125,-0.125 0.0187,-0.013 0.05396,-0.032 0.08333,-0.042 0.04004,-0.013 0.102676,-0.018 0.166667,-0.042 0.04136,-0.015 0.150665,-0.024 0.166667,-0.042 0.02002,-0.02 -0.0051,-0.094 0,-0.125 0.03197,-0.1506 0.240345,-0.1576 0.375,-0.2084 0.09332,-0.035 0.187672,-0.1436 0.291666,-0.125 -0.02002,0.072 -0.100668,0.08 -0.08333,0.1667 0.02266,0.1213 0.165668,-0.026 0.208333,-0.044 0.08133,-0.035 0.22667,-0.085 0.333334,-0.125 0.09332,-0.033 0.254652,-0.056 0.166666,-0.164 -0.07333,-0.013 -0.102676,0.055 -0.166666,0.081 -0.044,0.013 -0.04603,-0.038 -0.08333,-0.042 -0.03601,0 -0.0473,0.048 -0.08333,0.042 -0.03601,-0.013 -0.078,-0.081 -0.08333,-0.125 -0.01467,-0.112 0.07968,-0.1258 0.125,-0.2083 -0.03065,-0.1014 -0.164677,-0.041 -0.25,-0.081 0.0093,-0.06 0.05434,-0.1116 0.125,-0.125 0.05735,-0.013 0.215335,0.011 0.25,0.042 0.02002,0.017 -0.03059,0.055 0,0.083 0.03469,0.031 0.07967,0.013 0.125,0 0.01599,-0.076 -0.09667,-0.034 -0.08333,-0.083 0.09065,-0.059 0.26434,-0.027 0.375,-0.042 0.06402,-0.013 0.151002,-0.053 0.208334,-0.083 0.05331,-0.031 0.069,-0.092 0.125,-0.042 0.01599,0.055 -0.01108,0.096 -0.04167,0.125 -0.102659,0.091 -0.211675,0.1865 -0.291667,0.2917 0.04935,0.048 0.125672,0.032 0.208334,0.042 0.03197,0.013 0.09166,-0.01 0.125,0 0.04004,0.013 0.093,-0.013 0.125,0 0.05603,0.013 0.06901,0.125 0.125,0.125 0.09066,0 0.05203,-0.1064 0,-0.1667 0.01599,-0.063 0.0644,-0.1224 0.04167,-0.1667 -0.04136,-0.083 -0.200332,0.025 -0.208333,-0.083 -0.0051,-0.067 0.05932,-0.074 0.08333,-0.125 -0.01064,-0.128 0.09667,-0.134 0.08333,-0.25 -0.0066,-0.048 -0.04999,-0.038 -0.08333,-0.083 -0.01731,-0.024 -0.02172,-0.1064 -0.04167,-0.125 -0.0693,-0.059 -0.200333,-0.013 -0.208334,-0.125 -0.0037,-0.067 0.0093,-0.1369 0,-0.2084 -0.0093,-0.068 -0.06636,-0.2783 -0.125,-0.2916 -0.07466,-0.016 -0.119006,0.1249 -0.208333,0.1666 -0.04796,0.023 -0.159009,0.05 -0.208333,0.042 -0.03197,-0.013 -0.07933,-0.021 -0.08333,-0.083 -0.0053,-0.057 0.06246,-0.082 0.08333,-0.125 0.0052,-0.011 -0.0027,-0.027 0,-0.042 0.03286,-0.01 0.06607,-0.019 0.09896,-0.029 a 6.6666662,6.6666842 0 0 1 0.432292,-0.096 c 0.0177,0 0.03538,0 0.05208,0 0.178072,-0.033 0.358927,-0.065 0.541666,-0.083 0.221651,-0.023 0.438535,-0.042 0.666666,-0.042 z m -2.708333,0.625 c -0.04244,0.2434 -0.27033,0.3404 -0.541667,0.3333 -0.06131,0.059 -0.0084,0.1687 -0.04167,0.25 -0.02801,0.068 -0.140346,0.1304 -0.208334,0.125 -0.04935,0 -0.125,-0.078 -0.125,-0.125 0,-0.057 0.09103,-0.059 0.04167,-0.125 0.0022,-0.013 0.02781,-0.028 0.04167,-0.042 0.02699,-0.017 0.05614,-0.025 0.08333,-0.042 0.241604,-0.1487 0.489282,-0.2576 0.75,-0.375 z m 5.583333,0.25 c -0.02457,0.013 -0.02004,0.028 -0.04167,0.042 -0.05068,0.031 -0.08632,0.069 -0.125,0.083 -0.05463,0.02 -0.116995,0.034 -0.125,0.083 -0.0066,0.041 0.04306,0.045 0.04167,0.083 -0.02002,0.049 -0.03096,0.065 -0.04167,0.125 0.06798,0.1106 0.207677,-0.024 0.291666,-0.042 0.03733,-0.013 0.06333,-0.012 0.08333,-0.044 0.02265,-0.036 0.0244,-0.074 0.04167,-0.125 0.01871,-0.056 0.09001,-0.076 0.08333,-0.125 -0.0051,-0.049 -0.125679,-0.088 -0.208334,-0.081 z m -7.291666,0.8333 c 0.06322,0.051 0.152078,0.1608 0.04167,0.2084 -0.01335,0.013 -0.176338,0.047 -0.208333,0.042 -0.01291,0 -0.03036,-0.032 -0.04167,-0.042 0.06888,-0.067 0.13661,-0.1443 0.208334,-0.2084 z m 0.25,0.25 c 0.03197,0 0.04598,0.081 0.08333,0.083 0.03601,0 0.06196,-0.047 0.08333,-0.042 0.05603,0.015 0.09502,0.1251 0.04167,0.1667 -0.044,0.013 -0.05138,-0.047 -0.08333,-0.042 -0.09066,0.016 -0.14034,0.2137 -0.208334,0.2083 -0.06402,-0.013 -0.107029,-0.1616 -0.04167,-0.2083 0.0015,-0.04 -0.0027,-0.042 0,-0.083 0.02002,-0.024 0.07164,-0.087 0.125,-0.083 z m -0.333334,0.042 c 0.0187,0 0.03499,-0.013 0.04167,0 -0.0093,0.071 -0.02872,0.092 -0.08333,0.125 -0.09466,0.057 -0.177666,0.128 -0.208334,0.25 -0.0093,0.036 -0.121338,0.1339 -0.166666,0.125 -0.1053282,-0.023 0.05935,-0.2195 0.08333,-0.25 0.02669,-0.033 0.0527,-0.045 0.08333,-0.083 0.03065,-0.037 0.05407,-0.1037 0.08333,-0.125 0.03197,-0.023 0.110676,-0.044 0.166666,-0.042 z m 9.041667,0.2083 c 0.10532,-0.013 0.160336,0.1032 0.208333,0.1667 0.03997,0.052 0.142995,0.1304 0.208334,0.1667 0.03733,0.02 0.08367,0.065 0.125,0.083 0.08665,0.039 0.245993,0.1647 0.25,0.25 0.0015,0.043 -0.04835,0.085 -0.04167,0.125 0.06535,0.013 0.123667,-0.101 0.125,-0.1666 0.122547,0.1733 0.227469,0.3568 0.333333,0.5416 0.05,0.087 0.120587,0.1601 0.166667,0.25 -0.05881,0.017 -0.07388,0.026 -0.08333,0.083 -0.01335,0.075 0.02865,0.1951 -0.08333,0.2083 -0.07063,0.013 -0.15268,-0.061 -0.25,-0.083 -0.03997,-0.013 -0.093,0.013 -0.125,0 -0.07333,-0.024 -0.06233,-0.1223 -0.125,-0.1667 -0.03601,-0.025 -0.150996,-0.077 -0.208333,-0.083 -0.03601,0 -0.04604,0.013 -0.08333,0 -0.04532,-0.013 -0.129334,0.019 -0.166667,0 -0.03601,-0.023 -0.115653,-0.094 -0.125,-0.125 -0.01467,-0.049 0.122333,-0.083 0.125,-0.125 0.0029,-0.032 -0.035,-0.076 -0.04167,-0.125 -0.0051,-0.029 0.0065,-0.063 0,-0.083 -0.0093,-0.035 -0.07035,-0.04 -0.125,-0.042 l -0.125,0 c -0.05867,0 -0.176673,-0.01 -0.25,0 l -0.125,0 c -0.115986,0.013 -0.201004,-0.013 -0.291666,0 -0.06535,0 -0.188672,0.055 -0.25,0.083 -0.03065,0.015 -0.04332,0.022 -0.08333,0.042 -0.01863,0.013 -0.05928,0.031 -0.08333,0.042 -0.03732,0.017 -0.089,0.073 -0.125,0.083 -0.05199,0.013 -0.11368,-0.013 -0.208333,0 -0.06797,0 -0.165332,-0.044 -0.166667,-0.125 -0.0015,-0.124 0.216016,-0.061 0.333333,-0.083 0.044,-0.013 0.07164,-0.051 0.125,-0.083 0.02537,-0.015 0.01768,-0.026 0.04167,-0.042 0.03996,-0.028 0.118333,-0.093 0.125,-0.125 0.0051,-0.029 -0.004,-0.061 0,-0.083 0.0051,-0.028 0.04733,-0.046 0.08333,-0.083 0.05603,-0.056 0.09733,-0.1305 0.166667,-0.1667 0.04664,-0.024 0.103667,-0.043 0.125,-0.081 0.0051,-0.043 -0.0015,-0.043 0,-0.083 0.02933,-0.027 0.05936,-0.036 0.08333,-0.042 0.07201,-0.016 0.124347,0 0.208334,0 0.036,0 0.08633,0.017 0.125,0 0.03197,-0.021 0.05133,-0.067 0.08333,-0.083 0.03468,-0.019 0.08229,-0.039 0.125,-0.042 l 0,0 z m 0.75,0.7917 -0.166667,0 c -0.05867,0 -0.132,-0.031 -0.166666,0 0.04936,0.08 0.13934,0.105 0.25,0.125 0.03997,-0.029 0.06471,-0.074 0.08333,-0.125 z m -9.125,-0.75 0.125,0 c 0.03337,0 0.07,-0.013 0.08333,0 -0.02134,0.088 -0.222337,0.074 -0.291666,0.042 0.0037,-0.033 0.04062,-0.036 0.08333,-0.042 z m -0.291667,0.1667 c -0.05824,0.042 -0.115891,0.096 -0.208333,0.125 -0.05067,0.016 -0.115664,0.014 -0.125,-0.042 -0.01071,-0.069 0.07965,-0.035 0.125,-0.042 0.05867,-0.013 0.140339,-0.039 0.208333,-0.042 z m 8.666667,0 c -0.044,0.015 -0.06535,0.1116 0,0.125 0.03065,-0.019 0.04973,-0.068 0.04167,-0.125 -0.01731,-0.019 -0.02839,-0.013 -0.04167,0 z m -0.08333,0.2083 c 0.0015,0.075 0.01467,0.1436 0,0.2084 0.04268,0.083 0.145341,0.014 0.166666,-0.042 0.02537,-0.1387 -0.01933,-0.184 -0.08333,-0.1667 -0.02133,0.013 -0.06075,-0.017 -0.08333,0 z m -11.0416668,3.125 c 0.075152,0.068 0.1183893,0.1638 0.2083333,0.2084 0.033367,0.017 0.082335,0.031 0.125,0.042 0.034687,0.013 0.050017,-0.011 0.083333,0 0.070693,0.024 0.1523433,0.058 0.2083333,0.083 0.085331,0.037 0.1766665,0.1656 0.25,0.2083 0.00367,0.043 -0.013347,0.093 0,0.125 0.034687,0.047 0.068996,0.093 0.125,0.125 0.06798,0.037 0.1026753,0.095 0.1666666,0.125 0.02266,0.013 0.048617,-0.013 0.083333,0 0.087992,0.027 0.1323373,0.1474 0.2083333,0.125 0.049353,-0.015 0.033673,-0.077 0.041667,-0.125 0.033367,-0.036 0.072963,-0.083 0.1250003,-0.083 0.08265,0 0.09433,0.1275 0.125,0.2083 0.01731,0.045 0.07138,0.077 0.08333,0.125 0.02002,0.083 0.01731,0.3257 0,0.375 -0.02134,0.061 -0.116001,0.058 -0.166666,0.125 -0.02398,0.032 -0.02304,0.1023 -0.04167,0.125 -0.03197,0.039 -0.059304,0.046 -0.083334,0.083 -0.013347,0.02 -0.029712,0.055 -0.041667,0.083 -0.04004,0.085 -0.1166854,0.1473 -0.083333,0.25 0.013347,0.041 0.083333,0.076 0.083333,0.125 0,0.059 -0.1156654,0.1024 -0.125,0.1666 -0.0066,0.047 0.027072,0.1044 0.041667,0.1667 0.01064,0.047 0.097001,0.094 0.125,0.125 0.046641,0.052 0.082334,0.1423 0.1250005,0.2083 0.08399,0.1294 0.125686,0.29 0.208333,0.4167 0.044,0.065 0.137333,0.098 0.166667,0.1667 0.01467,0.035 -0.01335,0.093 0,0.125 0.04796,0.108 0.267009,0.2384 0.375,0.2916 0.05067,0.025 0.120012,0.015 0.166666,0.042 0.07069,0.04 0.214008,0.1462 0.25,0.2083 0.03197,0.056 0.02568,0.2025 0.04167,0.2917 0.02002,0.1173 -0.0051,0.2065 0,0.3333 0.0037,0.069 0.04167,0.098 0.04167,0.1667 0,0.024 0.0015,0.1 0,0.125 -0.0015,0.083 0.0066,0.166 0,0.25 -0.0037,0.045 -0.0029,0.086 0,0.125 0.0037,0.041 0.03903,0.046 0.04167,0.083 0.0029,0.039 -0.0457,0.094 -0.04167,0.125 0.0093,0.084 0.06733,0.1309 0.08333,0.2084 0.01335,0.061 0.04966,0.2183 0.04167,0.2916 -0.0051,0.039 -0.03631,0.081 -0.04167,0.125 -0.0037,0.035 0.0051,0.051 0,0.083 -0.0031,0.026 0.0023,0.049 0,0.07 a 6.6666662,6.6666842 0 0 1 -0.151041,-0.091 c -0.345018,-0.236 -0.680077,-0.5186 -0.973959,-0.8125 -0.04079,-0.041 -0.08527,-0.083 -0.125,-0.125 -0.2407748,-0.2535 -0.4678168,-0.5444 -0.6666668,-0.8333 -0.018018,-0.026 -0.024015,-0.057 -0.041667,-0.083 -0.2307285,-0.3457 -0.4195809,-0.6962 -0.5833333,-1.0834 -0.011807,-0.028 -0.03023,-0.055 -0.041667,-0.083 -0.1405032,-0.3453 -0.2519019,-0.712 -0.3333334,-1.0833 -0.015369,-0.07 -0.028523,-0.1375 -0.041667,-0.2084 -0.033016,-0.178 -0.064775,-0.3589 -0.083333,-0.5416 -0.02276,-0.2242 -0.041667,-0.4366 -0.041667,-0.6667 0,-0.3169 0.040581,-0.6116 0.083333,-0.9167 z m 2.5833328,0.7084 c 0.06402,-0.029 0.05199,0.074 0,0.083 -0.04935,0.013 -0.04796,-0.059 0,-0.083 z"
           id="path4144"
           inkscape:connector-curvature="0" />
      </g>
    </g>
  </g>
</svg>
