<?xml version="1.0" encoding="UTF-8" standalone="no"?>
<!-- Created with Inkscape (http://www.inkscape.org/) -->

<svg
   xmlns:dc="http://purl.org/dc/elements/1.1/"
   xmlns:cc="http://creativecommons.org/ns#"
   xmlns:rdf="http://www.w3.org/1999/02/22-rdf-syntax-ns#"
   xmlns:svg="http://www.w3.org/2000/svg"
   xmlns="http://www.w3.org/2000/svg"
   xmlns:sodipodi="http://sodipodi.sourceforge.net/DTD/sodipodi-0.dtd"
   xmlns:inkscape="http://www.inkscape.org/namespaces/inkscape"
   width="22"
   height="22"
   id="svg2"
   version="1.1"
   inkscape:version="0.91 r"
   sodipodi:docname="im-google-talk.svg">
  <defs
     id="defs4" />
  <sodipodi:namedview
     id="base"
     pagecolor="#ffffff"
     bordercolor="#666666"
     borderopacity="1.0"
     inkscape:pageopacity="0.0"
     inkscape:pageshadow="2"
     inkscape:zoom="20.08"
     inkscape:cx="-0.85142421"
     inkscape:cy="11.226839"
     inkscape:document-units="px"
     inkscape:current-layer="layer1"
     showgrid="false"
     inkscape:window-width="1600"
     inkscape:window-height="849"
     inkscape:window-x="0"
     inkscape:window-y="26"
     inkscape:window-maximized="1"
     inkscape:showpageshadow="false"
     showguides="false">
    <inkscape:grid
       type="xygrid"
       id="grid4109" />
    <sodipodi:guide
       position="2,20.000017"
       orientation="18,0"
       id="guide4113" />
    <sodipodi:guide
       position="2,2.0000174"
       orientation="0,18"
       id="guide4115" />
    <sodipodi:guide
       position="20,2.0000174"
       orientation="-18,0"
       id="guide4117" />
    <sodipodi:guide
       position="20,20.000017"
       orientation="0,-18"
       id="guide4119" />
    <sodipodi:guide
       position="3,19.000017"
       orientation="16,0"
       id="guide4121" />
    <sodipodi:guide
       position="3,3.0000174"
       orientation="0,16"
       id="guide4123" />
    <sodipodi:guide
       position="19,3.0000174"
       orientation="-16,0"
       id="guide4125" />
    <sodipodi:guide
       position="19,19.000017"
       orientation="0,-16"
       id="guide4127" />
  </sodipodi:namedview>
  <metadata
     id="metadata7">
    <rdf:RDF>
      <cc:Work
         rdf:about="">
        <dc:format>image/svg+xml</dc:format>
        <dc:type
           rdf:resource="http://purl.org/dc/dcmitype/StillImage" />
        <dc:title />
      </cc:Work>
    </rdf:RDF>
  </metadata>
  <g
     inkscape:label="Capa 1"
     inkscape:groupmode="layer"
     id="layer1"
     transform="translate(0,-1030.3622)">
    <path
       style="opacity:0.72;fill:#ffffff;fill-opacity:0.72;stroke:none"
       d="m 11,1034.3622 c -3.8658955,0 -7.0000009,2.3506 -7,5.25 0,2.855 3.2159059,5.6795 7,5.75 l 0,3 c 7,-4 7,-6.7675 7,-8.75 0,-2.8994 -3.134106,-5.25 -7,-5.25 z m -4,3 3,0 0,3 c 0,1 -0.999999,2 -2,2 l 0,-1 c 0,0 1,0 1,-1 l -2,0 0,-3 z m 5,0 3,0 0,3 c 0,1 -1,2 -2,2 l 0,-1 c 0,0 1,0 1,-1 l -2,0 0,-3 z"
       id="path4147"
       inkscape:connector-curvature="0" />
  </g>
</svg>
