<?xml version="1.0" encoding="UTF-8" standalone="no"?>
<!-- Created with Inkscape (http://www.inkscape.org/) -->

<svg
   xmlns:osb="http://www.openswatchbook.org/uri/2009/osb"
   xmlns:dc="http://purl.org/dc/elements/1.1/"
   xmlns:cc="http://creativecommons.org/ns#"
   xmlns:rdf="http://www.w3.org/1999/02/22-rdf-syntax-ns#"
   xmlns:svg="http://www.w3.org/2000/svg"
   xmlns="http://www.w3.org/2000/svg"
   xmlns:sodipodi="http://sodipodi.sourceforge.net/DTD/sodipodi-0.dtd"
   xmlns:inkscape="http://www.inkscape.org/namespaces/inkscape"
   sodipodi:docname="kdenlive-custom-effect.svg"
   inkscape:export-filename="/home/sam/source-symbolic.png"
   inkscape:export-xdpi="270"
   inkscape:export-ydpi="270"
   height="22"
   id="svg7384"
   style="enable-background:new"
   version="1.1"
   inkscape:version="0.91 r"
   width="22">
  <sodipodi:namedview
     inkscape:bbox-nodes="true"
     inkscape:bbox-paths="false"
     bordercolor="#666666"
     borderlayer="false"
     borderopacity="1"
     inkscape:current-layer="layer12"
     inkscape:cx="-14.651419"
     inkscape:cy="6.9634742"
     gridtolerance="10"
     inkscape:guide-bbox="true"
     guidetolerance="10"
     id="namedview88"
     inkscape:object-nodes="true"
     inkscape:object-paths="true"
     objecttolerance="10"
     pagecolor="#f7f7f7"
     inkscape:pageopacity="0"
     inkscape:pageshadow="2"
     showborder="true"
     showgrid="false"
     showguides="true"
     inkscape:showpageshadow="false"
     inkscape:snap-bbox="true"
     inkscape:snap-bbox-edge-midpoints="false"
     inkscape:snap-bbox-midpoints="true"
     inkscape:snap-center="false"
     inkscape:snap-global="true"
     inkscape:snap-grids="true"
     inkscape:snap-intersection-paths="true"
     inkscape:snap-midpoints="true"
     inkscape:snap-nodes="true"
     inkscape:snap-object-midpoints="true"
     inkscape:snap-others="true"
     inkscape:snap-page="false"
     inkscape:snap-smooth-nodes="true"
     inkscape:snap-to-guides="true"
     inkscape:window-height="849"
     inkscape:window-maximized="1"
     inkscape:window-width="1600"
     inkscape:window-x="0"
     inkscape:window-y="26"
     inkscape:zoom="13.12">
    <inkscape:grid
       color="#ffffff"
       dotted="false"
       empcolor="#0800ff"
       empopacity="0.4627451"
       empspacing="4"
       enabled="true"
       id="grid4866"
       opacity="0.16470588"
       originx="-44.000624"
       originy="-256.00334"
       snapvisiblegridlinesonly="true"
       spacingx="0.25px"
       spacingy="0.25px"
       type="xygrid"
       visible="true" />
  </sodipodi:namedview>
  <metadata
     id="metadata90">
    <rdf:RDF>
      <cc:Work
         rdf:about="">
        <dc:format>image/svg+xml</dc:format>
        <dc:type
           rdf:resource="http://purl.org/dc/dcmitype/StillImage" />
        <dc:title>Paper Symbolic Icon Theme</dc:title>
      </cc:Work>
    </rdf:RDF>
  </metadata>
  <title
     id="title8473">Paper Symbolic Icon Theme</title>
  <defs
     id="defs7386">
    <linearGradient
       id="linearGradient5606"
       osb:paint="solid">
      <stop
         id="stop5608"
         offset="0"
         style="stop-color:#ffffff;stop-opacity:0.72;" />
    </linearGradient>
  </defs>
  <g
     inkscape:groupmode="layer"
     id="layer12"
     inkscape:label="actions"
     style="display:inline"
     transform="translate(-285.00082,39.00334)">
    <path
       style="display:inline;opacity:0.72;fill:#ffffff;fill-opacity:0.72;stroke:none;enable-background:new"
       d="m 290.00082,-36.00334 c -1.108,0 -2,0.892 -2,2 l 0,12 c 0,1.108 0.892,2 2,2 l 12,0 c 1.108,0 2,-0.892 2,-2 l 0,-12 c 0,-1.108 -0.892,-2 -2,-2 l -12,0 z m 1.71484,2 8.57032,0 c 0.94972,0 1.71484,0.765129 1.71484,1.714844 l 0,8.570312 c 0,0.949715 -0.76512,1.714844 -1.71484,1.714844 l -8.57032,0 c -0.94972,0 -1.71484,-0.765129 -1.71484,-1.714844 l 0,-8.570312 c 0,-0.949715 0.76512,-1.714844 1.71484,-1.714844 z m 3.02344,1 -0.11133,1.316406 a 3.9639616,3.9285714 0 0 0 -1.1582,0.664063 l -1.20703,-0.5625 -1.26172,2.164062 1.0957,0.75586 a 3.9639616,3.9285714 0 0 0 -0.0605,0.662109 3.9639616,3.9285714 0 0 0 0.0586,0.666016 l -1.09375,0.751953 1.26172,2.164062 1.20508,-0.5625 a 3.9639616,3.9285714 0 0 0 1.16015,0.660157 l 0.11133,1.320312 2.52344,0 0.11133,-1.316406 a 3.9639616,3.9285714 0 0 0 1.1582,-0.664063 l 1.20703,0.5625 1.26172,-2.164062 -1.0957,-0.75586 a 3.9639616,3.9285714 0 0 0 0.0605,-0.662109 3.9639616,3.9285714 0 0 0 -0.0586,-0.666016 l 1.09375,-0.751953 -1.26172,-2.164062 -1.20508,0.5625 a 3.9639616,3.9285714 0 0 0 -1.16015,-0.660157 l -0.11133,-1.320312 -2.52344,0 z m 1.26172,3.572266 a 1.4414406,1.4285714 0 0 1 1.44141,1.427734 1.4414406,1.4285714 0 0 1 -1.44141,1.427734 1.4414406,1.4285714 0 0 1 -1.44141,-1.427734 1.4414406,1.4285714 0 0 1 1.44141,-1.427734 z"
       id="path10500-6-2"
       inkscape:connector-curvature="0" />
  </g>
</svg>
