<?xml version="1.0" encoding="UTF-8" standalone="no"?>
<svg
   xmlns:dc="http://purl.org/dc/elements/1.1/"
   xmlns:cc="http://creativecommons.org/ns#"
   xmlns:rdf="http://www.w3.org/1999/02/22-rdf-syntax-ns#"
   xmlns:svg="http://www.w3.org/2000/svg"
   xmlns="http://www.w3.org/2000/svg"
   xmlns:sodipodi="http://sodipodi.sourceforge.net/DTD/sodipodi-0.dtd"
   xmlns:inkscape="http://www.inkscape.org/namespaces/inkscape"
   viewBox="0 0 48 48"
   id="svg2"
   version="1.1"
   inkscape:version="0.91 r"
   sodipodi:docname="builder.svg">
  <metadata
     id="metadata85">
    <rdf:RDF>
      <cc:Work
         rdf:about="">
        <dc:format>image/svg+xml</dc:format>
        <dc:type
           rdf:resource="http://purl.org/dc/dcmitype/StillImage" />
        <dc:title></dc:title>
      </cc:Work>
    </rdf:RDF>
  </metadata>
  <sodipodi:namedview
     pagecolor="#bebebe"
     bordercolor="#666666"
     borderopacity="1"
     objecttolerance="10"
     gridtolerance="10"
     guidetolerance="10"
     inkscape:pageopacity="0"
     inkscape:pageshadow="2"
     inkscape:window-width="1600"
     inkscape:window-height="846"
     id="namedview83"
     showgrid="false"
     inkscape:zoom="1"
     inkscape:cx="39.840046"
     inkscape:cy="26.844501"
     inkscape:window-x="0"
     inkscape:window-y="26"
     inkscape:window-maximized="1"
     inkscape:current-layer="svg2" />
  <defs
     id="defs4" />
  <path
     style="fill:#4d4d4d;fill-opacity:1;stroke:none"
     d="M 36 26 L 34 30 L 37 33 L 36 30 L 37.167969 28 L 38 28 L 38 30 L 38.984375 33 L 40 30 L 40 28 L 40.814453 28 L 41.982422 30 L 40.982422 33 L 43.982422 30 L 42 26.035156 L 42 26 L 41.982422 26 L 40 26 L 38 26 L 36 26 z "
     id="path4397" />
  <path
     id="path65"
     style="fill:#ff4b36;fill-opacity:1;fill-rule:nonzero;stroke:none"
     d="m 35,23 8,0 0,3 -8,0 z"
     inkscape:connector-curvature="0" />
  <path
     style="opacity:1;fill:#4d4d4d;fill-opacity:1;stroke:none;stroke-width:4;stroke-linecap:round;stroke-linejoin:round;stroke-miterlimit:4;stroke-dasharray:none;stroke-opacity:1"
     d="m 10,38 14,0 3,6 -20,0 z"
     id="rect4213"
     inkscape:connector-curvature="0"
     sodipodi:nodetypes="ccccc" />
  <rect
     y="-20"
     x="18"
     height="6"
     width="20"
     id="rect4257"
     style="opacity:1;fill:#ffcf36;fill-opacity:1;stroke:none;stroke-width:4;stroke-linecap:round;stroke-linejoin:round;stroke-miterlimit:4;stroke-dasharray:none;stroke-opacity:1"
     transform="matrix(0,1,-1,0,0,0)" />
  <path
     style="opacity:0.2;fill:#ffffff;fill-opacity:1;stroke:none;stroke-width:4;stroke-linecap:round;stroke-linejoin:round;stroke-miterlimit:4;stroke-dasharray:none;stroke-opacity:1"
     d="M 14 18 L 14 19 L 20 19 L 20 18 L 14 18 z "
     id="rect4437" />
  <rect
     transform="matrix(-0.5,0.8660254,-0.8660254,-0.5,0,0)"
     style="opacity:1;fill:#ffa036;fill-opacity:1;stroke:none;stroke-width:4;stroke-linecap:round;stroke-linejoin:round;stroke-miterlimit:4;stroke-dasharray:none;stroke-opacity:1"
     id="rect4328"
     width="20"
     height="6"
     x="-7.447444"
     y="-28.258335" />
  <rect
     style="opacity:1;fill:#4d4d4d;fill-opacity:1;stroke:none;stroke-width:4;stroke-linecap:round;stroke-linejoin:round;stroke-miterlimit:4;stroke-dasharray:none;stroke-opacity:1"
     id="rect4342"
     width="4"
     height="10"
     x="37"
     y="12.999999" />
  <path
     style="opacity:0.2;fill:#ffffff;fill-opacity:1;stroke:none;stroke-width:4;stroke-linecap:round;stroke-linejoin:round;stroke-miterlimit:4;stroke-dasharray:none;stroke-opacity:1"
     d="M 23 4.6796875 L 13 22 L 13.433594 22.25 L 23 5.6796875 L 27.761719 8.4296875 L 28.195312 7.6796875 L 23 4.6796875 z "
     id="rect4447" />
  <path
     style="opacity:0.3;fill:#000000;fill-opacity:1;stroke:none;stroke-width:4;stroke-linecap:round;stroke-linejoin:round;stroke-miterlimit:4;stroke-dasharray:none;stroke-opacity:1"
     d="M 27.761719 7.4296875 L 18.195312 24 L 13.433594 21.25 L 13 22 L 18.195312 25 L 28.195312 7.6796875 L 27.761719 7.4296875 z "
     id="rect4452" />
  <rect
     y="-5.9855371"
     x="-43.344627"
     height="6"
     width="20"
     id="rect4330"
     style="opacity:1;fill:#ff6f36;fill-opacity:1;stroke:none;stroke-width:4;stroke-linecap:round;stroke-linejoin:round;stroke-miterlimit:4;stroke-dasharray:none;stroke-opacity:1"
     transform="matrix(-0.96592583,-0.25881905,0.25881905,-0.96592583,0,0)" />
  <circle
     style="opacity:1;fill:#4d4d4d;fill-opacity:1;stroke:none;stroke-width:4;stroke-linecap:round;stroke-linejoin:round;stroke-miterlimit:4;stroke-dasharray:none;stroke-opacity:1"
     id="path4399"
     cx="17"
     cy="21"
     r="1" />
  <circle
     r="1"
     cy="9"
     cx="24"
     id="circle4401"
     style="opacity:1;fill:#4d4d4d;fill-opacity:1;stroke:none;stroke-width:4;stroke-linecap:round;stroke-linejoin:round;stroke-miterlimit:4;stroke-dasharray:none;stroke-opacity:1" />
  <circle
     style="opacity:1;fill:#4d4d4d;fill-opacity:1;stroke:none;stroke-width:4;stroke-linecap:round;stroke-linejoin:round;stroke-miterlimit:4;stroke-dasharray:none;stroke-opacity:1"
     id="circle4403"
     cx="39"
     cy="13"
     r="1" />
  <path
     style="opacity:0.2;fill:#ffffff;fill-opacity:1;stroke:none;stroke-width:4;stroke-linecap:round;stroke-linejoin:round;stroke-miterlimit:4;stroke-dasharray:none;stroke-opacity:1"
     d="M 10 38 L 7 44 L 7.5 44 L 10 39 L 24 39 L 26.5 44 L 27 44 L 24 38 L 10 38 z "
     id="path4427" />
  <path
     style="opacity:0.3;fill:#000000;fill-opacity:1;stroke:none;stroke-width:4;stroke-linecap:round;stroke-linejoin:round;stroke-miterlimit:4;stroke-dasharray:none;stroke-opacity:1"
     d="M 7.5 43 L 7 44 L 27 44 L 26.5 43 L 7.5 43 z "
     id="path4432" />
  <path
     style="opacity:0.3;fill:#000000;fill-opacity:1;stroke:none;stroke-width:4;stroke-linecap:round;stroke-linejoin:round;stroke-miterlimit:4;stroke-dasharray:none;stroke-opacity:1"
     d="M 14 37 L 14 38 L 20 38 L 20 37 L 14 37 z "
     id="rect4442" />
  <path
     style="opacity:0.2;fill:#ffffff;fill-opacity:1;stroke:none;stroke-width:4;stroke-linecap:round;stroke-linejoin:round;stroke-miterlimit:4;stroke-dasharray:none;stroke-opacity:1"
     d="M 22.552734 6.0273438 L 21 11.824219 L 21.25 11.890625 L 22.552734 7.0273438 L 41.621094 12.138672 L 41.871094 11.205078 L 22.552734 6.0273438 z "
     id="rect4457" />
  <path
     style="opacity:0.3;fill:#000000;fill-opacity:1;stroke:none;stroke-width:4;stroke-linecap:round;stroke-linejoin:round;stroke-miterlimit:4;stroke-dasharray:none;stroke-opacity:1"
     d="M 21.25 10.890625 L 21 11.824219 L 40.318359 17 L 41.871094 11.205078 L 41.621094 11.138672 L 40.318359 16 L 21.25 10.890625 z "
     id="rect4462" />
  <path
     style="opacity:0.3;fill:#000000;fill-opacity:1;stroke:none;stroke-width:4;stroke-linecap:round;stroke-linejoin:round;stroke-miterlimit:4;stroke-dasharray:none;stroke-opacity:1"
     d="M 37 22 L 37 23 L 41 23 L 41 22 L 37 22 z "
     id="rect4467" />
  <path
     style="fill:#ffffff;fill-opacity:1;fill-rule:nonzero;stroke:none;opacity:0.2"
     d="M 35 23 L 35 24 L 43 24 L 43 23 L 35 23 z "
     id="path4472" />
  <path
     id="path4477"
     d="m 35,25 0,1 8,0 0,-1 -8,0 z"
     style="opacity:0.3;fill:#000000;fill-opacity:1;fill-rule:nonzero;stroke:none"
     inkscape:connector-curvature="0" />
  <path
     style="fill:#ffffff;fill-opacity:1;stroke:none;opacity:0.2"
     d="M 36 26 L 34 30 L 34.333984 30.333984 L 36 27 L 38 27 L 40 27 L 41.982422 27 L 42 27 L 42 27.035156 L 43.648438 30.333984 L 43.982422 30 L 42 26.035156 L 42 26 L 41.982422 26 L 40 26 L 38 26 L 36 26 z M 36.212891 30.636719 L 36 31 L 36.5 32.5 L 37 33 L 36.212891 30.636719 z M 41.769531 30.636719 L 40.982422 33 L 41.482422 32.5 L 41.982422 31 L 41.769531 30.636719 z "
     id="path4480" />
  <path
     style="fill:#000000;fill-opacity:1;stroke:none;opacity:0.3"
     d="M 37.167969 27 L 36 29 L 36.212891 29.636719 L 37.167969 28 L 38 28 L 38 27 L 37.167969 27 z M 40 27 L 40 28 L 40.814453 28 L 41.769531 29.636719 L 41.982422 29 L 40.814453 27 L 40 27 z M 38 29 L 38 30 L 38.984375 33 L 40 30 L 40 29 L 38.984375 32 L 38 29 z M 34.333984 29.333984 L 34 30 L 37 33 L 36.5 31.5 L 34.333984 29.333984 z M 43.648438 29.333984 L 41.482422 31.5 L 40.982422 33 L 43.982422 30 L 43.648438 29.333984 z "
     id="path4485" />
</svg>
