<?xml version="1.0" encoding="UTF-8" standalone="no"?>
<!-- Created with Inkscape (http://www.inkscape.org/) -->

<svg
   xmlns:dc="http://purl.org/dc/elements/1.1/"
   xmlns:cc="http://creativecommons.org/ns#"
   xmlns:rdf="http://www.w3.org/1999/02/22-rdf-syntax-ns#"
   xmlns:svg="http://www.w3.org/2000/svg"
   xmlns="http://www.w3.org/2000/svg"
   xmlns:sodipodi="http://sodipodi.sourceforge.net/DTD/sodipodi-0.dtd"
   xmlns:inkscape="http://www.inkscape.org/namespaces/inkscape"
   width="48"
   height="48"
   id="svg4426"
   sodipodi:version="0.32"
   inkscape:version="0.91 r13725"
   version="1.0"
   sodipodi:docname="gambas3.svg"
   inkscape:output_extension="org.inkscape.output.svg.inkscape">
  <title
     id="title3158">Gambas logo</title>
  <defs
     id="defs4428" />
  <sodipodi:namedview
     id="base"
     pagecolor="#ffffff"
     bordercolor="#666666"
     borderopacity="1.0"
     gridtolerance="10000"
     guidetolerance="10"
     objecttolerance="10"
     inkscape:pageopacity="0.0"
     inkscape:pageshadow="2"
     inkscape:zoom="11.42"
     inkscape:cx="24.255801"
     inkscape:cy="18.504382"
     inkscape:document-units="px"
     inkscape:current-layer="layer1"
     showgrid="false"
     inkscape:window-width="1600"
     inkscape:window-height="845"
     inkscape:window-x="0"
     inkscape:window-y="31"
     inkscape:window-maximized="1" />
  <metadata
     id="metadata4431">
    <rdf:RDF>
      <cc:Work
         rdf:about="">
        <dc:format>image/svg+xml</dc:format>
        <dc:type
           rdf:resource="http://purl.org/dc/dcmitype/StillImage" />
        <dc:title>Gambas logo</dc:title>
        <dc:date>2008-09-15</dc:date>
        <dc:creator>
          <cc:Agent>
            <dc:title>Fabien Bodard</dc:title>
          </cc:Agent>
        </dc:creator>
        <dc:rights>
          <cc:Agent>
            <dc:title>Creative Commons</dc:title>
          </cc:Agent>
        </dc:rights>
        <dc:publisher>
          <cc:Agent>
            <dc:title>Fabien Bodard</dc:title>
          </cc:Agent>
        </dc:publisher>
        <dc:identifier>gbFBodard150908</dc:identifier>
        <dc:relation>http://gambas.sf.net</dc:relation>
        <dc:subject>
          <rdf:Bag>
            <rdf:li>gambas3 logo basic shrimp</rdf:li>
          </rdf:Bag>
        </dc:subject>
        <dc:description>A pretty shrimp, a malicious new gambas logo... we got the power!</dc:description>
        <dc:contributor>
          <cc:Agent>
            <dc:title>Fabien Bodard</dc:title>
          </cc:Agent>
        </dc:contributor>
        <cc:license
           rdf:resource="http://creativecommons.org/licenses/by-sa/3.0/" />
      </cc:Work>
      <cc:License
         rdf:about="http://creativecommons.org/licenses/by-sa/3.0/">
        <cc:permits
           rdf:resource="http://creativecommons.org/ns#Reproduction" />
        <cc:permits
           rdf:resource="http://creativecommons.org/ns#Distribution" />
        <cc:requires
           rdf:resource="http://creativecommons.org/ns#Notice" />
        <cc:requires
           rdf:resource="http://creativecommons.org/ns#Attribution" />
        <cc:permits
           rdf:resource="http://creativecommons.org/ns#DerivativeWorks" />
        <cc:requires
           rdf:resource="http://creativecommons.org/ns#ShareAlike" />
      </cc:License>
    </rdf:RDF>
  </metadata>
  <g
     inkscape:label="Layer 1"
     inkscape:groupmode="layer"
     id="layer1"
     transform="translate(0,-208)">
    <path
       style="fill:#82b5df;fill-opacity:1;fill-rule:evenodd;stroke:none;stroke-width:1.74183249;stroke-linecap:butt;stroke-linejoin:miter;stroke-miterlimit:4;stroke-dasharray:none;stroke-opacity:1"
       d="M 34.308594 4.0019531 C 30.004057 5.2385031 27.31519 12.73911 27.777344 12.5625 L 27.84375 14.300781 C 28.514389 14.3377 29.128176 14.423555 29.589844 14.582031 C 31.248899 15.151526 33.351922 14.122142 34.710938 13.242188 C 34.741446 12.900379 34.758527 12.564404 34.753906 12.244141 C 35.487708 11.619161 36.292138 10.825004 36.515625 10.183594 C 36.956337 8.9187438 37.351805 6.4264269 36.648438 5.4355469 C 36.293835 4.9359969 35.782872 7.0371844 35.767578 7.2089844 C 35.739528 7.5240244 34.984763 6.8801075 34.75 7.0859375 C 34.313296 7.4688275 34.732781 8.3217781 34.560547 8.2988281 C 34.335468 8.2688281 34.261474 7.8647337 34.037109 7.9023438 C 33.444003 8.4048738 33.107195 9.014335 32.847656 9.609375 C 32.682149 9.563475 32.517735 9.5140156 32.363281 9.4472656 C 32.140223 9.3507656 32.165861 8.7538381 32.244141 8.5175781 C 32.341871 8.2226081 32.857285 8.4267275 32.994141 8.1484375 C 33.143115 7.8455475 32.853579 7.3200338 33.064453 7.0585938 C 33.188694 6.9045537 33.421846 7.1155844 33.542969 6.9589844 C 33.928456 6.4604644 34.567122 3.9276831 34.308594 4.0019531 z "
       transform="translate(0,208)"
       id="path4508" />
    <path
       style="fill:#3398c3;fill-opacity:1;fill-rule:evenodd;stroke:none;stroke-width:1.72886324;stroke-linecap:butt;stroke-linejoin:miter;stroke-miterlimit:4;stroke-dasharray:none;stroke-opacity:1"
       d="M 40.820312 9.3398438 C 40.394267 10.844864 39.855723 11.830551 39.224609 12.462891 C 39.314018 12.079531 39.310445 11.658456 39.193359 11.191406 L 37.349609 13.201172 C 37.469985 12.858602 37.543744 12.496023 37.458984 12.070312 L 35.693359 13.591797 C 35.981757 13.218257 36.135613 12.776762 36.095703 12.195312 C 36.121276 12.243953 32.271275 15.502471 29.589844 14.582031 C 27.355401 13.815017 22.051004 14.369911 19.701172 17.232422 C 12.56226 17.951936 6.4825624 24.57507 7.0351562 29.650391 C 7.6110267 34.939481 12.741765 38.179803 13.974609 38.501953 C 14.268576 38.59745 14.537842 38.638509 14.792969 38.654297 C 15.096868 40.720717 16.432597 42.94813 18.076172 43.837891 C 19.511699 44.615021 23.28125 42.332031 23.28125 42.332031 C 20.807357 40.856281 19.24264 39.41075 18.076172 37.9375 C 19.917069 37.81461 22.551958 38.493786 25.017578 39.003906 C 25.335046 38.980926 24.989365 35.504785 21.857422 34.546875 C 20.238537 34.051729 17.189947 33.778872 15.65625 35.296875 C 15.09802 33.976192 14.631598 31.70769 15.771484 30.214844 C 16.956845 28.662425 20.767755 27.513494 22.480469 27.361328 C 22.640699 27.432443 22.796315 27.518121 22.958984 27.578125 C 28.627081 29.424905 42.749012 18.519774 40.820312 9.3398438 z "
       transform="translate(0,208)"
       id="path4520" />
    <path
       style="fill:#000000;fill-opacity:1;fill-rule:evenodd;stroke:none;stroke-width:1.72886324;stroke-linecap:butt;stroke-linejoin:miter;stroke-miterlimit:4;stroke-dasharray:none;stroke-opacity:1;opacity:0.3"
       d="M 40.974609 10.601562 C 40.501347 19.206185 28.167092 28.275031 22.958984 26.578125 C 22.796315 26.518125 22.640699 26.432428 22.480469 26.361328 C 20.767755 26.513498 16.956845 27.662424 15.771484 29.214844 C 15.154585 30.02276 15.015627 31.055826 15.099609 32.044922 C 15.16477 31.38851 15.362096 30.750997 15.771484 30.214844 C 16.956845 28.662425 20.767755 27.513494 22.480469 27.361328 C 22.640699 27.432443 22.796315 27.518121 22.958984 27.578125 C 28.369522 29.340987 41.471561 19.485483 40.974609 10.601562 z M 39.226562 11.435547 C 39.224639 11.444241 39.226628 11.454235 39.224609 11.462891 C 39.226781 11.460715 39.228299 11.457262 39.230469 11.455078 C 39.229392 11.448457 39.227687 11.442188 39.226562 11.435547 z M 37.458984 12.070312 L 37.361328 12.154297 C 37.356221 12.169452 37.354906 12.186098 37.349609 12.201172 L 37.460938 12.080078 C 37.460281 12.076686 37.459661 12.073713 37.458984 12.070312 z M 36.095703 12.195312 C 36.098921 12.201434 35.888773 12.365926 35.779297 12.458984 C 35.75015 12.503178 35.72605 12.549455 35.693359 12.591797 L 36.095703 12.246094 C 36.094837 12.228366 36.096938 12.213306 36.095703 12.195312 z M 7.03125 28.494141 C 7.0013465 28.885352 6.9940901 29.273217 7.0351562 29.650391 C 7.6110267 34.939481 12.741765 38.179803 13.974609 38.501953 C 14.268576 38.59745 14.537842 38.638509 14.792969 38.654297 C 15.096868 40.720717 16.432597 42.94813 18.076172 43.837891 C 19.511699 44.615021 23.28125 42.332031 23.28125 42.332031 C 22.975247 42.149492 22.722509 41.968834 22.443359 41.787109 C 21.256681 42.408031 19.096828 43.390428 18.076172 42.837891 C 16.432597 41.948121 15.096868 39.720717 14.792969 37.654297 C 14.537842 37.638507 14.268576 37.597453 13.974609 37.501953 C 12.741765 37.179803 7.6110267 33.939481 7.0351562 28.650391 C 7.029575 28.599129 7.0354838 28.54571 7.03125 28.494141 z M 18.802734 36.927734 C 18.549691 36.919928 18.306284 36.922139 18.076172 36.9375 C 18.340948 37.271912 18.633522 37.605266 18.945312 37.9375 C 20.696354 38.016584 22.915994 38.569103 25.017578 39.003906 C 25.12543 38.996099 25.144092 38.574666 25.015625 38.003906 C 22.858756 37.557605 20.573524 36.982365 18.802734 36.927734 z "
       transform="translate(0,208)"
       id="path4380" />
    <path
       inkscape:connector-curvature="0"
       style="fill:#3398c3;fill-opacity:1;fill-rule:evenodd;stroke:#000000;stroke-width:0.1746418px;stroke-linecap:butt;stroke-linejoin:miter;stroke-opacity:1"
       d="m 24.442691,236.60262 c -0.03054,0.0619 -0.99348,-0.47903 -1.336349,-0.59933 -0.389871,-0.13678 -0.923097,0.86042 -0.679127,1.19866 0.34777,0.48215 1.438474,0.59777 1.380165,0.64372 l 0.635311,-1.24305 z"
       id="path4584"
       sodipodi:nodetypes="csscc" />
    <path
       style="fill:#ffffff;fill-opacity:1;fill-rule:evenodd;stroke:none;stroke-width:1.72886324;stroke-linecap:butt;stroke-linejoin:miter;stroke-miterlimit:4;stroke-dasharray:none;stroke-opacity:1;opacity:0.2"
       d="M 40.820312 9.3398438 C 40.395734 10.839685 39.858776 11.822489 39.230469 12.455078 C 39.289122 12.815635 39.296372 13.155198 39.224609 13.462891 C 39.855723 12.830551 40.394267 11.844864 40.820312 10.339844 C 40.907953 10.756982 40.950953 11.178658 40.974609 11.601562 C 41.016409 10.841587 40.976834 10.084832 40.820312 9.3398438 z M 39.193359 11.191406 L 37.460938 13.080078 C 37.542515 13.50139 37.469024 13.861338 37.349609 14.201172 L 39.193359 12.191406 C 39.214745 12.276708 39.212626 12.353262 39.226562 12.435547 C 39.309838 12.059174 39.307802 11.647911 39.193359 11.191406 z M 37.458984 12.070312 L 36.095703 13.246094 C 36.12287 13.801346 35.972875 14.229762 35.693359 14.591797 L 37.361328 13.154297 C 37.472311 12.824992 37.540028 12.477356 37.458984 12.070312 z M 36.095703 12.195312 C 36.121276 12.243953 32.271275 15.502471 29.589844 14.582031 C 27.355401 13.815017 22.051004 14.369911 19.701172 17.232422 C 12.634218 17.944683 6.6160214 24.439838 7.03125 29.494141 C 7.4048241 24.621461 13.09349 18.898391 19.701172 18.232422 C 22.051004 15.369912 27.355401 14.815011 29.589844 15.582031 C 31.933842 16.386643 35.018815 14.105404 35.779297 13.458984 C 36.007555 13.113171 36.13111 12.711162 36.095703 12.195312 z M 15.099609 33.044922 C 14.983339 34.216201 15.298507 35.450515 15.65625 36.296875 C 17.189947 34.778875 20.238537 35.051725 21.857422 35.546875 C 23.923887 36.178906 24.763309 37.894516 25.013672 39.003906 C 25.014918 39.004164 25.016332 39.003649 25.017578 39.003906 C 25.335046 38.980926 24.989365 35.504785 21.857422 34.546875 C 20.238537 34.051729 17.189947 33.778872 15.65625 35.296875 C 15.400131 34.690938 15.170807 33.883443 15.099609 33.044922 z M 18.802734 38.927734 C 18.549691 38.919928 18.306284 38.922139 18.076172 38.9375 C 19.097966 40.228027 20.465013 41.498223 22.441406 42.785156 C 22.924474 42.53244 23.28125 42.332031 23.28125 42.332031 C 21.368904 41.191261 20.007112 40.068918 18.945312 38.9375 C 18.898792 38.935399 18.848576 38.929149 18.802734 38.927734 z "
       transform="translate(0,208)"
       id="path4375" />
    <path
       inkscape:connector-curvature="0"
       style="fill:#82b5df;fill-opacity:1;fill-rule:evenodd;stroke:none;stroke-width:1.72886324;stroke-linecap:butt;stroke-linejoin:miter;stroke-miterlimit:4;stroke-dasharray:none;stroke-opacity:1"
       d="m 25.901333,231.71872 c -0.421245,0.005 -0.926278,0.13677 -1.465707,0.4389 -0.798237,0.4471 -2.022589,3.60933 -2.432786,4.66862 -1.666796,1.44676 -1.800241,4.77659 -0.873388,6.43058 3.597676,6.42014 13.463201,10.24261 16.227458,6.95527 -0.585843,-0.90727 -1.617231,-1.03987 -2.955329,-1.96849 -0.285913,0.0527 -0.533473,0.16528 -0.718547,0.37455 l -0.725994,-1.22971 c -0.279362,0.0433 -0.510779,-0.36236 -0.785187,0.11677 -0.519773,-0.3758 -0.490269,-0.51615 -0.391613,-0.81385 0.08804,-0.22436 0.197389,-0.40098 0.310076,-0.57315 0.783412,0.25831 1.618059,0.54493 2.162693,0.765 0.311281,0.12577 0.05911,-0.90377 0.393183,-0.93063 0.464749,-0.0374 0.568899,1.16308 1.034109,1.19397 0.400425,0.0266 0.571282,-1.17385 0.923958,-0.97988 0.533057,0.29318 2.565298,2.01922 2.425337,1.14551 -0.305705,-1.90842 -2.714304,-4.03826 -4.157218,-4.86166 -0.727782,-0.41531 -2.127672,-0.61318 -3.252469,-0.71058 -1.267024,-1.77809 -3.352809,-3.88692 -4.987877,-4.78739 -0.09127,-0.0503 -0.17796,-0.0909 -0.266956,-0.13623 0.457798,-1.30891 1.227858,-3.37128 0.639753,-4.57409 -0.158843,-0.32488 -0.561892,-0.52951 -1.103496,-0.52351 z"
       id="path4596" />
    <circle
       r="2"
       cy="227"
       cx="27"
       id="circle4410"
       style="opacity:0.2;fill:#000000;fill-opacity:1;fill-rule:evenodd;stroke:none" />
    <circle
       style="fill:#ffffff;fill-opacity:1;fill-rule:evenodd;stroke:none"
       id="path3985"
       cx="27"
       cy="226"
       r="2" />
    <path
       style="fill:#ffffff;fill-opacity:1;fill-rule:evenodd;stroke:none;stroke-width:1.72886324;stroke-linecap:butt;stroke-linejoin:miter;stroke-miterlimit:4;stroke-dasharray:none;stroke-opacity:1;opacity:0.2"
       d="M 25.900391 23.71875 C 25.479146 23.72375 24.974976 23.856073 24.435547 24.158203 C 23.63731 24.605303 22.41215 27.766882 22.001953 28.826172 C 20.890908 29.790546 20.474484 31.586225 20.585938 33.169922 C 20.680325 31.879196 21.121366 30.590511 22.001953 29.826172 C 22.41215 28.766882 23.63731 25.605303 24.435547 25.158203 C 24.974976 24.856073 25.479146 24.72375 25.900391 24.71875 C 26.441995 24.71275 26.845063 24.917307 27.003906 25.242188 C 27.098615 25.435889 27.148448 25.657123 27.179688 25.888672 C 27.255391 25.275236 27.226294 24.697021 27.003906 24.242188 C 26.845063 23.917307 26.441995 23.71275 25.900391 23.71875 z M 26.65625 28.966797 C 26.556355 29.264906 26.453845 29.563056 26.365234 29.816406 C 26.45423 29.861736 26.541542 29.902825 26.632812 29.953125 C 28.267881 30.853595 30.352117 32.962144 31.619141 34.740234 C 32.743938 34.837634 34.145265 35.035862 34.873047 35.451172 C 36.123613 36.164808 38.09522 37.859366 38.798828 39.541016 C 38.966752 39.576505 39.063104 39.523541 39.029297 39.3125 C 38.723592 37.40408 36.315961 35.274572 34.873047 34.451172 C 34.145265 34.035862 32.743938 33.837634 31.619141 33.740234 C 30.357906 31.970269 28.287921 29.874113 26.65625 28.966797 z M 32.554688 39.283203 C 32.430221 39.25007 32.306284 39.271175 32.171875 39.505859 C 32.08335 39.441855 32.029734 39.392129 31.970703 39.339844 C 31.904644 39.45175 31.833423 39.553471 31.779297 39.691406 C 31.680641 39.989106 31.652102 40.130059 32.171875 40.505859 C 32.446283 40.026729 32.677669 40.431972 32.957031 40.388672 L 33.683594 41.617188 C 33.868668 41.407917 34.116431 41.296841 34.402344 41.244141 C 35.417557 41.948683 36.253987 42.195836 36.855469 42.669922 C 37.039541 42.535112 37.211141 42.386852 37.357422 42.212891 C 36.771579 41.305621 35.740442 41.172761 34.402344 40.244141 C 34.116431 40.296841 33.868668 40.407917 33.683594 40.617188 L 32.984375 39.435547 C 32.908761 39.409388 32.848516 39.385655 32.771484 39.359375 C 32.73062 39.344897 32.690288 39.332699 32.650391 39.316406 C 32.615649 39.304638 32.589545 39.294949 32.554688 39.283203 z "
       transform="translate(0,208)"
       id="path4385" />
    <path
       style="fill:#000000;fill-opacity:1;fill-rule:evenodd;stroke:none;stroke-width:1.72886324;stroke-linecap:butt;stroke-linejoin:miter;stroke-miterlimit:4;stroke-dasharray:none;stroke-opacity:1;opacity:0.3"
       d="M 27.179688 24.888672 C 27.055193 25.89747 26.649919 27.002451 26.365234 27.816406 C 26.45423 27.861736 26.541542 27.902825 26.632812 27.953125 C 26.640284 27.95724 26.64876 27.962632 26.65625 27.966797 C 26.989405 26.972585 27.305088 25.81673 27.179688 24.888672 z M 20.585938 32.169922 C 20.501666 33.322313 20.69172 34.475691 21.128906 35.255859 C 24.726582 41.675999 34.593165 45.500231 37.357422 42.212891 C 37.216057 41.993965 37.046768 41.820703 36.855469 41.669922 C 33.561143 44.082604 24.536198 40.336254 21.128906 34.255859 C 20.81987 33.704378 20.641687 32.962097 20.585938 32.169922 z M 34.646484 36.953125 C 34.312411 36.979985 34.565187 38.008582 34.253906 37.882812 C 33.709272 37.662743 32.873256 37.377451 32.089844 37.119141 C 31.977157 37.291311 31.867337 37.467046 31.779297 37.691406 C 31.697443 37.938404 31.683134 38.085136 31.970703 38.339844 C 32.012093 38.269728 32.046436 38.185462 32.089844 38.119141 C 32.258125 38.174627 32.385061 38.226045 32.554688 38.283203 C 32.586094 38.291563 32.618765 38.303491 32.650391 38.316406 C 32.694459 38.331334 32.727709 38.34444 32.771484 38.359375 C 32.831939 38.380794 32.89259 38.39866 32.957031 38.388672 L 32.984375 38.435547 C 33.434507 38.591274 33.934459 38.753734 34.253906 38.882812 C 34.565187 39.008582 34.312411 37.979985 34.646484 37.953125 C 35.111233 37.915725 35.214478 39.115594 35.679688 39.146484 C 36.080112 39.173084 36.25084 37.972046 36.603516 38.166016 C 37.136573 38.459196 39.169258 40.18621 39.029297 39.3125 C 38.988545 39.058097 38.907049 38.799668 38.798828 38.541016 C 38.271546 38.429578 37.007815 37.388379 36.603516 37.166016 C 36.25084 36.972046 36.080112 38.173084 35.679688 38.146484 C 35.214478 38.115594 35.111233 36.915725 34.646484 36.953125 z "
       transform="translate(0,208)"
       id="path4390" />
    <path
       style="fill:#ffffff;fill-opacity:1;fill-rule:evenodd;stroke:none;stroke-width:1.74183249;stroke-linecap:butt;stroke-linejoin:miter;stroke-miterlimit:4;stroke-dasharray:none;stroke-opacity:1;opacity:0.2"
       d="M 34.308594 4.0019531 C 30.004057 5.2385031 27.31519 12.73911 27.777344 12.5625 L 27.798828 13.132812 C 28.174781 11.608335 30.605972 6.1607155 34.212891 5.0390625 C 34.346715 4.4624761 34.421659 3.9694716 34.308594 4.0019531 z M 36.509766 5.3613281 C 36.174053 5.4309763 35.78096 7.0586594 35.767578 7.2089844 C 35.739528 7.5240244 34.984763 6.8801075 34.75 7.0859375 C 34.313296 7.4688275 34.732781 8.3217781 34.560547 8.2988281 C 34.335468 8.2688281 34.261474 7.8647337 34.037109 7.9023438 C 33.444003 8.4048738 33.107195 9.014335 32.847656 9.609375 C 32.682149 9.563475 32.517735 9.5140156 32.363281 9.4472656 C 32.349036 9.441103 32.344299 9.4182183 32.332031 9.4082031 C 32.294042 9.4344728 32.2611 9.4663903 32.244141 9.5175781 C 32.165861 9.7538381 32.140223 10.350766 32.363281 10.447266 C 32.517735 10.514016 32.682149 10.563475 32.847656 10.609375 C 33.107195 10.014335 33.444003 9.4048738 34.037109 8.9023438 C 34.261474 8.8647337 34.335468 9.2688281 34.560547 9.2988281 C 34.732781 9.3217781 34.313296 8.4688275 34.75 8.0859375 C 34.984763 7.8801075 35.739528 8.5240244 35.767578 8.2089844 C 35.782872 8.0371844 36.293835 5.9359969 36.648438 6.4355469 C 36.86823 6.7451829 36.97069 7.2090293 37.007812 7.7285156 C 37.077111 6.8158359 37.002956 5.9349807 36.648438 5.4355469 C 36.604112 5.3731031 36.557725 5.3513784 36.509766 5.3613281 z "
       transform="translate(0,208)"
       id="path4395" />
    <path
       style="fill:#000000;fill-opacity:1;fill-rule:evenodd;stroke:none;stroke-width:1.74183249;stroke-linecap:butt;stroke-linejoin:miter;stroke-miterlimit:4;stroke-dasharray:none;stroke-opacity:1;opacity:0.3"
       d="M 34.308594 4.0019531 C 34.27643 4.0111928 34.246827 4.0291291 34.214844 4.0390625 C 34.042577 4.7809436 33.759926 5.678411 33.542969 5.9589844 C 33.421846 6.1155844 33.188694 5.9045537 33.064453 6.0585938 C 32.853581 6.3200338 33.143115 6.8455475 32.994141 7.1484375 C 32.857285 7.4267775 32.341871 7.2226081 32.244141 7.5175781 C 32.17086 7.7387502 32.152205 8.2613187 32.332031 8.4082031 C 32.512794 8.2831526 32.881034 8.3784343 32.994141 8.1484375 C 33.143115 7.8455475 32.853579 7.3200338 33.064453 7.0585938 C 33.188694 6.9045537 33.421846 7.1155844 33.542969 6.9589844 C 33.928456 6.4604644 34.567122 3.9276831 34.308594 4.0019531 z M 37.007812 6.7285156 C 36.940031 7.6267893 36.734205 8.5562669 36.515625 9.1835938 C 36.292138 9.8250038 35.487708 10.619161 34.753906 11.244141 C 34.758526 11.564401 34.741447 11.900377 34.710938 12.242188 C 33.351921 13.122138 31.248899 14.151531 29.589844 13.582031 C 29.128176 13.423561 28.514389 13.337681 27.84375 13.300781 L 27.798828 12.128906 C 27.730917 12.402469 27.707805 12.589074 27.777344 12.5625 L 27.84375 14.300781 C 28.514389 14.3377 29.128176 14.423555 29.589844 14.582031 C 31.248899 15.151526 33.351922 14.122141 34.710938 13.242188 C 34.741446 12.900378 34.758527 12.564404 34.753906 12.244141 C 35.487708 11.619161 36.292138 10.825004 36.515625 10.183594 C 36.818621 9.3139914 37.089975 7.8716902 37.007812 6.7285156 z "
       transform="translate(0,208)"
       id="path4405" />
  </g>
</svg>
