<?xml version="1.0" encoding="UTF-8" standalone="no"?>
<!-- Created with Inkscape (http://www.inkscape.org/) -->

<svg
   xmlns:dc="http://purl.org/dc/elements/1.1/"
   xmlns:cc="http://creativecommons.org/ns#"
   xmlns:rdf="http://www.w3.org/1999/02/22-rdf-syntax-ns#"
   xmlns:svg="http://www.w3.org/2000/svg"
   xmlns="http://www.w3.org/2000/svg"
   xmlns:sodipodi="http://sodipodi.sourceforge.net/DTD/sodipodi-0.dtd"
   xmlns:inkscape="http://www.inkscape.org/namespaces/inkscape"
   id="svg2817"
   height="48"
   width="48"
   version="1.0"
   inkscape:version="0.91 r"
   sodipodi:docname="kdiamond.svg">
  <sodipodi:namedview
     pagecolor="#ffffff"
     bordercolor="#666666"
     borderopacity="1"
     objecttolerance="10"
     gridtolerance="10"
     guidetolerance="10"
     inkscape:pageopacity="0"
     inkscape:pageshadow="2"
     inkscape:window-width="1600"
     inkscape:window-height="843"
     id="namedview21"
     showgrid="false"
     inkscape:zoom="1"
     inkscape:cx="31.377415"
     inkscape:cy="21.089382"
     inkscape:window-x="-4"
     inkscape:window-y="31"
     inkscape:window-maximized="1"
     inkscape:current-layer="svg2817"
     showguides="false" />
  <metadata
     id="metadata57">
    <rdf:RDF>
      <cc:Work
         rdf:about="">
        <dc:format>image/svg+xml</dc:format>
        <dc:type
           rdf:resource="http://purl.org/dc/dcmitype/StillImage" />
        <dc:title></dc:title>
      </cc:Work>
    </rdf:RDF>
  </metadata>
  <defs
     id="defs2819" />
  <rect
     id="rect3351"
     transform="matrix(-0.70710678,-0.70710678,-0.70710678,0.70710678,0,0)"
     rx="0.65555471"
     ry="0.65555471"
     height="13.111094"
     width="13.111094"
     y="-6.5555477"
     x="-24.940323"
     style="fill:#69b3de;fill-opacity:1" />
  <rect
     style="fill:#f0cc57;fill-opacity:1"
     x="-40.496677"
     y="-22.111893"
     width="13.111094"
     height="13.111094"
     ry="0.65555471"
     rx="0.65555471"
     transform="matrix(-0.70710678,-0.70710678,-0.70710678,0.70710678,0,0)"
     id="rect4142" />
  <rect
     style="fill:#e94a63"
     x="-40.496666"
     y="9.0007973"
     width="13.111094"
     height="13.111094"
     ry="0.65555471"
     rx="0.65555471"
     transform="matrix(-0.70710678,-0.70710678,-0.70710678,0.70710678,0,0)"
     id="rect4150" />
  <rect
     id="rect4152"
     transform="matrix(-0.70710678,-0.70710678,-0.70710678,0.70710678,0,0)"
     rx="0.65555471"
     ry="0.65555471"
     height="13.111094"
     width="13.111094"
     y="-6.5555477"
     x="-56.05302"
     style="fill:#69b746;fill-opacity:1" />
  <path
     inkscape:connector-curvature="0"
     style="opacity:0.3;fill:#000000;fill-opacity:1"
     d="m 4.2304688,12.5 -0.037109,0.03711 c -0.2568052,0.256806 -0.2568052,0.668976 0,0.925782 l 8.3437492,8.34375 c 0.256806,0.256805 0.668976,0.256805 0.925782,0 l 8.34375,-8.34375 c 0.256805,-0.256806 0.256805,-0.668976 0,-0.925782 L 21.769531,12.5 l -8.30664,8.306641 c -0.256806,0.256805 -0.668976,0.256805 -0.925782,0 L 4.2304688,12.5 Z m 22.0000002,0 -0.03711,0.03711 c -0.256805,0.256806 -0.256805,0.668976 0,0.925782 l 8.34375,8.34375 c 0.256806,0.256805 0.668976,0.256805 0.925782,0 l 8.34375,-8.34375 c 0.256805,-0.256806 0.256805,-0.668976 0,-0.925782 L 43.769531,12.5 l -8.30664,8.306641 c -0.256806,0.256805 -0.668976,0.256805 -0.925782,0 L 26.230469,12.5 Z m -22.0000002,22 -0.037109,0.03711 c -0.2568052,0.256806 -0.2568052,0.668976 0,0.925782 l 8.3437492,8.34375 c 0.256806,0.256805 0.668976,0.256805 0.925782,0 l 8.34375,-8.34375 c 0.256805,-0.256806 0.256805,-0.668976 0,-0.925782 L 21.769531,34.5 l -8.30664,8.306641 c -0.256806,0.256805 -0.668976,0.256805 -0.925782,0 L 4.2304688,34.5 Z m 22.0000002,0 -0.03711,0.03711 c -0.256805,0.256806 -0.256805,0.668976 0,0.925782 l 8.34375,8.34375 c 0.256806,0.256805 0.668976,0.256805 0.925782,0 l 8.34375,-8.34375 c 0.256805,-0.256806 0.256805,-0.668976 0,-0.925782 L 43.769531,34.5 l -8.30664,8.306641 c -0.256806,0.256805 -0.668976,0.256805 -0.925782,0 L 26.230469,34.5 Z"
     id="rect4158" />
  <path
     inkscape:connector-curvature="0"
     style="opacity:0.1;fill:#ffffff;fill-opacity:1"
     d="M 13,4 C 12.832428,4 12.665512,4.064957 12.537109,4.1933594 L 4.1933594,12.537109 c -0.2568052,0.256806 -0.2568052,0.668976 0,0.925782 L 4.2304688,13.5 12.537109,5.1933594 C 12.665512,5.064957 12.832428,5 13,5 c 0.167572,0 0.334488,0.064957 0.462891,0.1933594 L 21.769531,13.5 l 0.03711,-0.03711 c 0.256805,-0.256806 0.256805,-0.668976 0,-0.925782 L 13.462891,4.1933594 C 13.334488,4.0649568 13.167572,4 13,4 Z m 22,0 c -0.167572,0 -0.334488,0.064957 -0.462891,0.1933594 l -8.34375,8.3437496 c -0.256805,0.256806 -0.256805,0.668976 0,0.925782 L 26.230469,13.5 34.537109,5.1933594 C 34.665512,5.064957 34.832428,5 35,5 c 0.167572,0 0.334488,0.064957 0.462891,0.1933594 L 43.769531,13.5 l 0.03711,-0.03711 c 0.256805,-0.256806 0.256805,-0.668976 0,-0.925782 L 35.462891,4.1933594 C 35.334488,4.0649568 35.167572,4 35,4 Z M 13,26 c -0.167572,0 -0.334488,0.06496 -0.462891,0.193359 l -8.3437496,8.34375 c -0.2568052,0.256806 -0.2568052,0.668976 0,0.925782 L 4.2304688,35.5 12.537109,27.193359 C 12.665512,27.06496 12.832428,27 13,27 c 0.167572,0 0.334488,0.06496 0.462891,0.193359 l 8.30664,8.306641 0.03711,-0.03711 c 0.256805,-0.256806 0.256805,-0.668976 0,-0.925782 l -8.34375,-8.34375 C 13.334488,26.064957 13.167572,26 13,26 Z m 22,0 c -0.167572,0 -0.334488,0.06496 -0.462891,0.193359 l -8.34375,8.34375 c -0.256805,0.256806 -0.256805,0.668976 0,0.925782 l 0.03711,0.03711 8.30664,-8.306641 C 34.665512,27.06496 34.832428,27 35,27 c 0.167572,0 0.334488,0.06496 0.462891,0.193359 l 8.30664,8.306641 0.03711,-0.03711 c 0.256805,-0.256806 0.256805,-0.668976 0,-0.925782 l -8.34375,-8.34375 C 35.334488,26.064957 35.167572,26 35,26 Z"
     id="path4167" />
</svg>
