<?xml version="1.0" encoding="UTF-8" standalone="no"?>
<!-- Created with Inkscape (http://www.inkscape.org/) -->

<svg
   xmlns:dc="http://purl.org/dc/elements/1.1/"
   xmlns:cc="http://creativecommons.org/ns#"
   xmlns:rdf="http://www.w3.org/1999/02/22-rdf-syntax-ns#"
   xmlns:svg="http://www.w3.org/2000/svg"
   xmlns="http://www.w3.org/2000/svg"
   xmlns:sodipodi="http://sodipodi.sourceforge.net/DTD/sodipodi-0.dtd"
   xmlns:inkscape="http://www.inkscape.org/namespaces/inkscape"
   id="svg2817"
   height="48"
   width="48"
   version="1.0"
   inkscape:version="0.91 r13725"
   sodipodi:docname="supertuxkart.svg">
  <defs
     id="defs247" />
  <sodipodi:namedview
     pagecolor="#ffffff"
     bordercolor="#666666"
     borderopacity="1"
     objecttolerance="10"
     gridtolerance="10"
     guidetolerance="10"
     inkscape:pageopacity="0"
     inkscape:pageshadow="2"
     inkscape:window-width="1600"
     inkscape:window-height="848"
     id="namedview245"
     showgrid="false"
     inkscape:zoom="19.88"
     inkscape:cx="27.855658"
     inkscape:cy="12.80585"
     inkscape:window-x="0"
     inkscape:window-y="29"
     inkscape:window-maximized="1"
     inkscape:current-layer="svg2817" />
  <metadata
     id="metadata57">
    <rdf:RDF>
      <cc:Work
         rdf:about="">
        <dc:format>image/svg+xml</dc:format>
        <dc:type
           rdf:resource="http://purl.org/dc/dcmitype/StillImage" />
        <dc:title></dc:title>
      </cc:Work>
    </rdf:RDF>
  </metadata>
  <text
     id="text4087-2-6-5"
     opacity=".8"
     font-size="12.666px"
     xml:space="preserve"
     y="10.812601"
     x="877.22626"
     font-family="'Bitstream Vera Sans'"
     fill="#000000"><tspan
       id="tspan4089-7-2-9"
       y="10.812601"
       x="877.22626" /></text>
  <text
     id="text4087-2-6-5-5"
     opacity=".8"
     font-size="12.666px"
     xml:space="preserve"
     y="-29.929106"
     x="901.18719"
     font-family="'Bitstream Vera Sans'"
     fill="#000000"><tspan
       id="tspan4089-7-2-9-6"
       y="-29.929106"
       x="901.18719" /></text>
  <text
     id="text4087-2-6-5-2"
     opacity=".8"
     font-size="12.666px"
     xml:space="preserve"
     y="-60.007248"
     x="-569.37115"
     font-family="'Bitstream Vera Sans'"
     fill="#000000"><tspan
       id="tspan4089-7-2-9-2"
       y="-60.007248"
       x="-569.37115" /></text>
  <text
     id="text4087-2-6-5-59"
     opacity=".8"
     font-size="12.666px"
     xml:space="preserve"
     y="685.5462"
     x="-2393.0571"
     font-family="'Bitstream Vera Sans'"
     fill="#000000"><tspan
       id="tspan4089-7-2-9-4"
       y="685.5462"
       x="-2393.0571" /></text>
  <text
     id="text4087-2-6-5-1"
     opacity=".8"
     font-size="12.666px"
     xml:space="preserve"
     y="-445.32822"
     x="-454.88007"
     font-family="'Bitstream Vera Sans'"
     fill="#000000"><tspan
       id="tspan4089-7-2-9-7"
       y="-445.32822"
       x="-454.88007" /></text>
  <text
     id="text4087-2-6-5-7"
     opacity=".8"
     font-size="12.666px"
     xml:space="preserve"
     y="-858.79834"
     x="352.72208"
     font-family="'Bitstream Vera Sans'"
     fill="#000000"><tspan
       id="tspan4089-7-2-9-1"
       y="-858.79834"
       x="352.72208" /></text>
  <text
     id="text4087-2-6-5-5-3"
     opacity=".8"
     font-size="12.666px"
     xml:space="preserve"
     y="-899.54004"
     x="376.68301"
     font-family="'Bitstream Vera Sans'"
     fill="#000000"><tspan
       id="tspan4089-7-2-9-6-5"
       y="-899.54004"
       x="376.68301" /></text>
  <text
     id="text4087-2-6-5-3"
     opacity=".8"
     font-size="12.666px"
     xml:space="preserve"
     y="-906.74994"
     x="-1114.7802"
     font-family="'Bitstream Vera Sans'"
     fill="#000000"><tspan
       id="tspan4089-7-2-9-18"
       y="-906.74994"
       x="-1114.7802" /></text>
  <text
     id="text4087-2-6-5-4"
     opacity=".8"
     font-size="12.666px"
     xml:space="preserve"
     y="-1179.9841"
     x="345.7626"
     font-family="'Bitstream Vera Sans'"
     fill="#000000"><tspan
       id="tspan4089-7-2-9-9"
       y="-1179.9841"
       x="345.7626" /></text>
  <text
     id="text4087-2-6-5-7-1"
     opacity=".8"
     font-size="12.666px"
     xml:space="preserve"
     y="-553.29272"
     x="1831.8861"
     font-family="'Bitstream Vera Sans'"
     fill="#000000"><tspan
       id="tspan4089-7-2-9-1-8"
       y="-553.29272"
       x="1831.8861" /></text>
  <text
     id="text4087-2-6-5-5-5"
     opacity=".8"
     font-size="12.666px"
     xml:space="preserve"
     y="-594.03448"
     x="1855.8469"
     font-family="'Bitstream Vera Sans'"
     fill="#000000"><tspan
       id="tspan4089-7-2-9-6-9"
       y="-594.03448"
       x="1855.8469" /></text>
  <text
     id="text4087-2-6-5-75"
     opacity=".8"
     font-size="12.666px"
     xml:space="preserve"
     y="-601.24438"
     x="364.38376"
     font-family="'Bitstream Vera Sans'"
     fill="#000000"><tspan
       id="tspan4089-7-2-9-3"
       y="-601.24438"
       x="364.38376" /></text>
  <text
     id="text4087-2-6-5-4-8"
     opacity=".8"
     font-size="12.666px"
     xml:space="preserve"
     y="-874.47839"
     x="1824.9266"
     font-family="'Bitstream Vera Sans'"
     fill="#000000"><tspan
       id="tspan4089-7-2-9-9-8"
       y="-874.47839"
       x="1824.9266" /></text>
  <text
     id="text4087-2-6-5-45"
     opacity=".8"
     font-size="12.666px"
     xml:space="preserve"
     y="-649.33569"
     x="-573.43256"
     font-family="'Bitstream Vera Sans'"
     fill="#000000"><tspan
       id="tspan4089-7-2-9-75"
       y="-649.33569"
       x="-573.43256" /></text>
  <text
     id="text4087-2-6-5-59-7"
     opacity=".8"
     font-size="12.666px"
     xml:space="preserve"
     y="96.217857"
     x="-2397.1182"
     font-family="'Bitstream Vera Sans'"
     fill="#000000"><tspan
       id="tspan4089-7-2-9-4-0"
       y="96.217857"
       x="-2397.1182" /></text>
  <text
     id="text4087-2-6-5-8"
     opacity=".8"
     font-size="12.666px"
     xml:space="preserve"
     y="189.09"
     x="-682.36279"
     font-family="'Bitstream Vera Sans'"
     fill="#000000"><tspan
       id="tspan4089-7-2-9-19"
       y="189.09"
       x="-682.36279" /></text>
  <text
     id="text4087-2-6-5-7-5"
     opacity=".8"
     font-size="12.666px"
     xml:space="preserve"
     y="9.9078522"
     x="426.66153"
     font-family="'Bitstream Vera Sans'"
     fill="#000000"><tspan
       id="tspan4089-7-2-9-1-2"
       y="9.9078522"
       x="426.66153" /></text>
  <text
     id="text4087-2-6-5-5-0"
     opacity=".8"
     font-size="12.666px"
     xml:space="preserve"
     y="-30.833855"
     x="450.62247"
     font-family="'Bitstream Vera Sans'"
     fill="#000000"><tspan
       id="tspan4089-7-2-9-6-2"
       y="-30.833855"
       x="450.62247" /></text>
  <text
     id="text4087-2-6-5-26"
     opacity=".8"
     font-size="12.666px"
     xml:space="preserve"
     y="-38.043827"
     x="-1040.8407"
     font-family="'Bitstream Vera Sans'"
     fill="#000000"><tspan
       id="tspan4089-7-2-9-90"
       y="-38.043827"
       x="-1040.8407" /></text>
  <text
     id="text4087-2-6-5-4-3"
     opacity=".8"
     font-size="12.666px"
     xml:space="preserve"
     y="-311.27789"
     x="419.70206"
     font-family="'Bitstream Vera Sans'"
     fill="#000000"><tspan
       id="tspan4089-7-2-9-9-5"
       y="-311.27789"
       x="419.70206" /></text>
  <text
     id="text4087-2-6-5-55"
     opacity=".8"
     font-size="12.666px"
     xml:space="preserve"
     y="-40.758072"
     x="-608.03253"
     font-family="'Bitstream Vera Sans'"
     fill="#000000"><tspan
       id="tspan4089-7-2-9-32"
       y="-40.758072"
       x="-608.03253" /></text>
  <text
     id="text4087-2-6-5-59-9"
     opacity=".8"
     font-size="12.666px"
     xml:space="preserve"
     y="704.79541"
     x="-2431.7185"
     font-family="'Bitstream Vera Sans'"
     fill="#000000"><tspan
       id="tspan4089-7-2-9-4-1"
       y="704.79541"
       x="-2431.7185" /></text>
  <text
     id="text4087-2-6-5-1-8"
     opacity=".8"
     font-size="12.666px"
     xml:space="preserve"
     y="-902.28857"
     x="-456.93948"
     font-family="'Bitstream Vera Sans'"
     fill="#000000"><tspan
       id="tspan4089-7-2-9-7-8"
       y="-902.28857"
       x="-456.93948" /></text>
  <text
     id="text4087-2-6-5-7-8"
     opacity=".8"
     font-size="12.666px"
     xml:space="preserve"
     y="-1315.7588"
     x="350.66266"
     font-family="'Bitstream Vera Sans'"
     fill="#000000"><tspan
       id="tspan4089-7-2-9-1-9"
       y="-1315.7588"
       x="350.66266" /></text>
  <text
     id="text4087-2-6-5-5-52"
     opacity=".8"
     font-size="12.666px"
     xml:space="preserve"
     y="-1356.5005"
     x="374.62357"
     font-family="'Bitstream Vera Sans'"
     fill="#000000"><tspan
       id="tspan4089-7-2-9-6-4"
       y="-1356.5005"
       x="374.62357" /></text>
  <text
     id="text4087-2-6-5-3-4"
     opacity=".8"
     font-size="12.666px"
     xml:space="preserve"
     y="-1363.7104"
     x="-1116.8396"
     font-family="'Bitstream Vera Sans'"
     fill="#000000"><tspan
       id="tspan4089-7-2-9-18-3"
       y="-1363.7104"
       x="-1116.8396" /></text>
  <text
     id="text4087-2-6-5-4-7"
     opacity=".8"
     font-size="12.666px"
     xml:space="preserve"
     y="-1636.9446"
     x="343.70316"
     font-family="'Bitstream Vera Sans'"
     fill="#000000"><tspan
       id="tspan4089-7-2-9-9-54"
       y="-1636.9446"
       x="343.70316" /></text>
  <text
     id="text4087-2-6-5-7-1-2"
     opacity=".8"
     font-size="12.666px"
     xml:space="preserve"
     y="-1010.2533"
     x="1829.8265"
     font-family="'Bitstream Vera Sans'"
     fill="#000000"><tspan
       id="tspan4089-7-2-9-1-8-0"
       y="-1010.2533"
       x="1829.8265" /></text>
  <text
     id="text4087-2-6-5-5-5-6"
     opacity=".8"
     font-size="12.666px"
     xml:space="preserve"
     y="-1050.9949"
     x="1853.7874"
     font-family="'Bitstream Vera Sans'"
     fill="#000000"><tspan
       id="tspan4089-7-2-9-6-9-8"
       y="-1050.9949"
       x="1853.7874" /></text>
  <text
     id="text4087-2-6-5-75-4"
     opacity=".8"
     font-size="12.666px"
     xml:space="preserve"
     y="-1058.2048"
     x="362.32431"
     font-family="'Bitstream Vera Sans'"
     fill="#000000"><tspan
       id="tspan4089-7-2-9-3-9"
       y="-1058.2048"
       x="362.32431" /></text>
  <text
     id="text4087-2-6-5-4-8-1"
     opacity=".8"
     font-size="12.666px"
     xml:space="preserve"
     y="-1331.439"
     x="1822.8671"
     font-family="'Bitstream Vera Sans'"
     fill="#000000"><tspan
       id="tspan4089-7-2-9-9-8-8"
       y="-1331.439"
       x="1822.8671" /></text>
  <text
     id="text4087-2-6-5-45-0"
     opacity=".8"
     font-size="12.666px"
     xml:space="preserve"
     y="-1106.2961"
     x="-575.492"
     font-family="'Bitstream Vera Sans'"
     fill="#000000"><tspan
       id="tspan4089-7-2-9-75-2"
       y="-1106.2961"
       x="-575.492" /></text>
  <text
     id="text4087-2-6-5-59-5"
     opacity=".8"
     font-size="12.666px"
     xml:space="preserve"
     y="-360.74261"
     x="-2399.1777"
     font-family="'Bitstream Vera Sans'"
     fill="#000000"><tspan
       id="tspan4089-7-2-9-4-00"
       y="-360.74261"
       x="-2399.1777" /></text>
  <text
     id="text4087-2-6-5-264"
     opacity=".8"
     font-size="12.666px"
     xml:space="preserve"
     y="-267.87045"
     x="-684.42224"
     font-family="'Bitstream Vera Sans'"
     fill="#000000"><tspan
       id="tspan4089-7-2-9-8"
       y="-267.87045"
       x="-684.42224" /></text>
  <text
     id="text4087-2-6-5-42"
     opacity=".8"
     font-size="12.666px"
     xml:space="preserve"
     y="-26.956278"
     x="155.5923"
     font-family="'Bitstream Vera Sans'"
     fill="#000000"><tspan
       id="tspan4089-7-2-9-93"
       y="-26.956278"
       x="155.5923" /></text>
  <text
     id="text4087-2-6-5-5-05"
     opacity=".8"
     font-size="12.666px"
     xml:space="preserve"
     y="-67.697998"
     x="179.55324"
     font-family="'Bitstream Vera Sans'"
     fill="#000000"><tspan
       id="tspan4089-7-2-9-6-49"
       y="-67.697998"
       x="179.55324" /></text>
  <text
     id="text4087-2-6-5-1-4"
     opacity=".8"
     font-size="12.666px"
     xml:space="preserve"
     y="-261.72662"
     x="-1090.2634"
     font-family="'Bitstream Vera Sans'"
     fill="#000000"><tspan
       id="tspan4089-7-2-9-7-7"
       y="-261.72662"
       x="-1090.2634" /></text>
  <text
     id="text4087-2-6-5-7-56"
     opacity=".8"
     font-size="12.666px"
     xml:space="preserve"
     y="-675.19678"
     x="-282.66141"
     font-family="'Bitstream Vera Sans'"
     fill="#000000"><tspan
       id="tspan4089-7-2-9-1-1"
       y="-675.19678"
       x="-282.66141" /></text>
  <text
     id="text4087-2-6-5-5-8"
     opacity=".8"
     font-size="12.666px"
     xml:space="preserve"
     y="-715.93848"
     x="-258.70047"
     font-family="'Bitstream Vera Sans'"
     fill="#000000"><tspan
       id="tspan4089-7-2-9-6-7"
       y="-715.93848"
       x="-258.70047" /></text>
  <text
     id="text4087-2-6-5-3-42"
     opacity=".8"
     font-size="12.666px"
     xml:space="preserve"
     y="-723.14838"
     x="-1750.1636"
     font-family="'Bitstream Vera Sans'"
     fill="#000000"><tspan
       id="tspan4089-7-2-9-18-39"
       y="-723.14838"
       x="-1750.1636" /></text>
  <text
     id="text4087-2-6-5-4-4"
     opacity=".8"
     font-size="12.666px"
     xml:space="preserve"
     y="-996.38251"
     x="-289.62085"
     font-family="'Bitstream Vera Sans'"
     fill="#000000"><tspan
       id="tspan4089-7-2-9-9-3"
       y="-996.38251"
       x="-289.62085" /></text>
  <text
     id="text4087-2-6-5-7-1-0"
     opacity=".8"
     font-size="12.666px"
     xml:space="preserve"
     y="-369.69113"
     x="1196.5026"
     font-family="'Bitstream Vera Sans'"
     fill="#000000"><tspan
       id="tspan4089-7-2-9-1-8-5"
       y="-369.69113"
       x="1196.5026" /></text>
  <text
     id="text4087-2-6-5-5-5-5"
     opacity=".8"
     font-size="12.666px"
     xml:space="preserve"
     y="-410.43286"
     x="1220.4634"
     font-family="'Bitstream Vera Sans'"
     fill="#000000"><tspan
       id="tspan4089-7-2-9-6-9-2"
       y="-410.43286"
       x="1220.4634" /></text>
  <text
     id="text4087-2-6-5-75-9"
     opacity=".8"
     font-size="12.666px"
     xml:space="preserve"
     y="-417.64282"
     x="-270.99973"
     font-family="'Bitstream Vera Sans'"
     fill="#000000"><tspan
       id="tspan4089-7-2-9-3-1"
       y="-417.64282"
       x="-270.99973" /></text>
  <text
     id="text4087-2-6-5-4-8-18"
     opacity=".8"
     font-size="12.666px"
     xml:space="preserve"
     y="-690.87689"
     x="1189.5431"
     font-family="'Bitstream Vera Sans'"
     fill="#000000"><tspan
       id="tspan4089-7-2-9-9-8-4"
       y="-690.87689"
       x="1189.5431" /></text>
  <text
     id="text4087-2-6-5-45-3"
     opacity=".8"
     font-size="12.666px"
     xml:space="preserve"
     y="-465.7341"
     x="-1208.816"
     font-family="'Bitstream Vera Sans'"
     fill="#000000"><tspan
       id="tspan4089-7-2-9-75-7"
       y="-465.7341"
       x="-1208.816" /></text>
  <text
     id="text4087-2-6-5-59-8"
     opacity=".8"
     font-size="12.666px"
     xml:space="preserve"
     y="279.81946"
     x="-3032.5017"
     font-family="'Bitstream Vera Sans'"
     fill="#000000"><tspan
       id="tspan4089-7-2-9-4-2"
       y="279.81946"
       x="-3032.5017" /></text>
  <g
     id="layer4-0"
     transform="matrix(.90475 0 0 .90475 -716.75 -676.29)">
    <text
       id="text4087-2-6-5-20"
       opacity=".8"
       font-size="14px"
       xml:space="preserve"
       y="1159.4154"
       x="-664.2738"
       font-family="'Bitstream Vera Sans'"
       fill="#000000"><tspan
         id="tspan4089-7-2-9-82"
         y="1159.4154"
         x="-664.2738" /></text>
  </g>
  <text
     id="text4087-2-6-5-9"
     opacity=".8"
     font-size="12.666px"
     xml:space="preserve"
     y="18.050589"
     x="877.22626"
     font-family="'Bitstream Vera Sans'"
     fill="#000000"><tspan
       id="tspan4089-7-2-9-43"
       y="18.050589"
       x="877.22626" /></text>
  <text
     id="text4087-2-6-5-5-51"
     opacity=".8"
     font-size="12.666px"
     xml:space="preserve"
     y="-22.691116"
     x="901.18719"
     font-family="'Bitstream Vera Sans'"
     fill="#000000"><tspan
       id="tspan4089-7-2-9-6-74"
       y="-22.691116"
       x="901.18719" /></text>
  <text
     id="text4087-2-6-5-2-3"
     opacity=".8"
     font-size="12.666px"
     xml:space="preserve"
     y="-52.76926"
     x="-569.37115"
     font-family="'Bitstream Vera Sans'"
     fill="#000000"><tspan
       id="tspan4089-7-2-9-2-1"
       y="-52.76926"
       x="-569.37115" /></text>
  <text
     id="text4087-2-6-5-59-4"
     opacity=".8"
     font-size="12.666px"
     xml:space="preserve"
     y="692.78418"
     x="-2393.0571"
     font-family="'Bitstream Vera Sans'"
     fill="#000000"><tspan
       id="tspan4089-7-2-9-4-6"
       y="692.78418"
       x="-2393.0571" /></text>
  <text
     id="text4087-2-6-5-1-9"
     opacity=".8"
     font-size="12.666px"
     xml:space="preserve"
     y="-438.09021"
     x="-454.88007"
     font-family="'Bitstream Vera Sans'"
     fill="#000000"><tspan
       id="tspan4089-7-2-9-7-4"
       y="-438.09021"
       x="-454.88007" /></text>
  <text
     id="text4087-2-6-5-7-2"
     opacity=".8"
     font-size="12.666px"
     xml:space="preserve"
     y="-851.5603"
     x="352.72208"
     font-family="'Bitstream Vera Sans'"
     fill="#000000"><tspan
       id="tspan4089-7-2-9-1-26"
       y="-851.5603"
       x="352.72208" /></text>
  <text
     id="text4087-2-6-5-5-3-4"
     opacity=".8"
     font-size="12.666px"
     xml:space="preserve"
     y="-892.30206"
     x="376.68301"
     font-family="'Bitstream Vera Sans'"
     fill="#000000"><tspan
       id="tspan4089-7-2-9-6-5-1"
       y="-892.30206"
       x="376.68301" /></text>
  <text
     id="text4087-2-6-5-3-2"
     opacity=".8"
     font-size="12.666px"
     xml:space="preserve"
     y="-899.51196"
     x="-1114.7802"
     font-family="'Bitstream Vera Sans'"
     fill="#000000"><tspan
       id="tspan4089-7-2-9-18-8"
       y="-899.51196"
       x="-1114.7802" /></text>
  <text
     id="text4087-2-6-5-4-89"
     opacity=".8"
     font-size="12.666px"
     xml:space="preserve"
     y="-1172.7461"
     x="345.7626"
     font-family="'Bitstream Vera Sans'"
     fill="#000000"><tspan
       id="tspan4089-7-2-9-9-2"
       y="-1172.7461"
       x="345.7626" /></text>
  <text
     id="text4087-2-6-5-7-1-8"
     opacity=".8"
     font-size="12.666px"
     xml:space="preserve"
     y="-546.05475"
     x="1831.8861"
     font-family="'Bitstream Vera Sans'"
     fill="#000000"><tspan
       id="tspan4089-7-2-9-1-8-8"
       y="-546.05475"
       x="1831.8861" /></text>
  <text
     id="text4087-2-6-5-5-5-8"
     opacity=".8"
     font-size="12.666px"
     xml:space="preserve"
     y="-586.79651"
     x="1855.8469"
     font-family="'Bitstream Vera Sans'"
     fill="#000000"><tspan
       id="tspan4089-7-2-9-6-9-6"
       y="-586.79651"
       x="1855.8469" /></text>
  <text
     id="text4087-2-6-5-75-8"
     opacity=".8"
     font-size="12.666px"
     xml:space="preserve"
     y="-594.00641"
     x="364.38376"
     font-family="'Bitstream Vera Sans'"
     fill="#000000"><tspan
       id="tspan4089-7-2-9-3-3"
       y="-594.00641"
       x="364.38376" /></text>
  <text
     id="text4087-2-6-5-4-8-8"
     opacity=".8"
     font-size="12.666px"
     xml:space="preserve"
     y="-867.24036"
     x="1824.9266"
     font-family="'Bitstream Vera Sans'"
     fill="#000000"><tspan
       id="tspan4089-7-2-9-9-8-3"
       y="-867.24036"
       x="1824.9266" /></text>
  <text
     id="text4087-2-6-5-45-33"
     opacity=".8"
     font-size="12.666px"
     xml:space="preserve"
     y="-642.09772"
     x="-573.43256"
     font-family="'Bitstream Vera Sans'"
     fill="#000000"><tspan
       id="tspan4089-7-2-9-75-8"
       y="-642.09772"
       x="-573.43256" /></text>
  <text
     id="text4087-2-6-5-59-7-0"
     opacity=".8"
     font-size="12.666px"
     xml:space="preserve"
     y="103.45585"
     x="-2397.1182"
     font-family="'Bitstream Vera Sans'"
     fill="#000000"><tspan
       id="tspan4089-7-2-9-4-0-4"
       y="103.45585"
       x="-2397.1182" /></text>
  <text
     id="text4087-2-6-5-8-7"
     opacity=".8"
     font-size="12.666px"
     xml:space="preserve"
     y="196.32799"
     x="-682.36279"
     font-family="'Bitstream Vera Sans'"
     fill="#000000"><tspan
       id="tspan4089-7-2-9-19-6"
       y="196.32799"
       x="-682.36279" /></text>
  <text
     id="text4087-2-6-5-7-5-8"
     opacity=".8"
     font-size="12.666px"
     xml:space="preserve"
     y="17.14584"
     x="426.66153"
     font-family="'Bitstream Vera Sans'"
     fill="#000000"><tspan
       id="tspan4089-7-2-9-1-2-9"
       y="17.14584"
       x="426.66153" /></text>
  <text
     id="text4087-2-6-5-5-0-0"
     opacity=".8"
     font-size="12.666px"
     xml:space="preserve"
     y="-23.595865"
     x="450.62247"
     font-family="'Bitstream Vera Sans'"
     fill="#000000"><tspan
       id="tspan4089-7-2-9-6-2-6"
       y="-23.595865"
       x="450.62247" /></text>
  <text
     id="text4087-2-6-5-26-8"
     opacity=".8"
     font-size="12.666px"
     xml:space="preserve"
     y="-30.805836"
     x="-1040.8407"
     font-family="'Bitstream Vera Sans'"
     fill="#000000"><tspan
       id="tspan4089-7-2-9-90-7"
       y="-30.805836"
       x="-1040.8407" /></text>
  <text
     id="text4087-2-6-5-4-3-9"
     opacity=".8"
     font-size="12.666px"
     xml:space="preserve"
     y="-304.03989"
     x="419.70206"
     font-family="'Bitstream Vera Sans'"
     fill="#000000"><tspan
       id="tspan4089-7-2-9-9-5-0"
       y="-304.03989"
       x="419.70206" /></text>
  <text
     id="text4087-2-6-5-55-3"
     opacity=".8"
     font-size="12.666px"
     xml:space="preserve"
     y="-33.520081"
     x="-608.03253"
     font-family="'Bitstream Vera Sans'"
     fill="#000000"><tspan
       id="tspan4089-7-2-9-32-3"
       y="-33.520081"
       x="-608.03253" /></text>
  <text
     id="text4087-2-6-5-59-9-3"
     opacity=".8"
     font-size="12.666px"
     xml:space="preserve"
     y="712.03345"
     x="-2431.7185"
     font-family="'Bitstream Vera Sans'"
     fill="#000000"><tspan
       id="tspan4089-7-2-9-4-1-7"
       y="712.03345"
       x="-2431.7185" /></text>
  <text
     id="text4087-2-6-5-1-8-3"
     opacity=".8"
     font-size="12.666px"
     xml:space="preserve"
     y="-895.0506"
     x="-456.93948"
     font-family="'Bitstream Vera Sans'"
     fill="#000000"><tspan
       id="tspan4089-7-2-9-7-8-2"
       y="-895.0506"
       x="-456.93948" /></text>
  <text
     id="text4087-2-6-5-7-8-6"
     opacity=".8"
     font-size="12.666px"
     xml:space="preserve"
     y="-1308.5208"
     x="350.66266"
     font-family="'Bitstream Vera Sans'"
     fill="#000000"><tspan
       id="tspan4089-7-2-9-1-9-5"
       y="-1308.5208"
       x="350.66266" /></text>
  <text
     id="text4087-2-6-5-5-52-2"
     opacity=".8"
     font-size="12.666px"
     xml:space="preserve"
     y="-1349.2626"
     x="374.62357"
     font-family="'Bitstream Vera Sans'"
     fill="#000000"><tspan
       id="tspan4089-7-2-9-6-4-6"
       y="-1349.2626"
       x="374.62357" /></text>
  <text
     id="text4087-2-6-5-3-4-5"
     opacity=".8"
     font-size="12.666px"
     xml:space="preserve"
     y="-1356.4724"
     x="-1116.8396"
     font-family="'Bitstream Vera Sans'"
     fill="#000000"><tspan
       id="tspan4089-7-2-9-18-3-8"
       y="-1356.4724"
       x="-1116.8396" /></text>
  <text
     id="text4087-2-6-5-4-7-7"
     opacity=".8"
     font-size="12.666px"
     xml:space="preserve"
     y="-1629.7065"
     x="343.70316"
     font-family="'Bitstream Vera Sans'"
     fill="#000000"><tspan
       id="tspan4089-7-2-9-9-54-9"
       y="-1629.7065"
       x="343.70316" /></text>
  <text
     id="text4087-2-6-5-7-1-2-6"
     opacity=".8"
     font-size="12.666px"
     xml:space="preserve"
     y="-1003.0153"
     x="1829.8265"
     font-family="'Bitstream Vera Sans'"
     fill="#000000"><tspan
       id="tspan4089-7-2-9-1-8-0-0"
       y="-1003.0153"
       x="1829.8265" /></text>
  <text
     id="text4087-2-6-5-5-5-6-4"
     opacity=".8"
     font-size="12.666px"
     xml:space="preserve"
     y="-1043.757"
     x="1853.7874"
     font-family="'Bitstream Vera Sans'"
     fill="#000000"><tspan
       id="tspan4089-7-2-9-6-9-8-1"
       y="-1043.757"
       x="1853.7874" /></text>
  <text
     id="text4087-2-6-5-75-4-0"
     opacity=".8"
     font-size="12.666px"
     xml:space="preserve"
     y="-1050.9668"
     x="362.32431"
     font-family="'Bitstream Vera Sans'"
     fill="#000000"><tspan
       id="tspan4089-7-2-9-3-9-4"
       y="-1050.9668"
       x="362.32431" /></text>
  <text
     id="text4087-2-6-5-4-8-1-8"
     opacity=".8"
     font-size="12.666px"
     xml:space="preserve"
     y="-1324.2009"
     x="1822.8671"
     font-family="'Bitstream Vera Sans'"
     fill="#000000"><tspan
       id="tspan4089-7-2-9-9-8-8-7"
       y="-1324.2009"
       x="1822.8671" /></text>
  <text
     id="text4087-2-6-5-45-0-0"
     opacity=".8"
     font-size="12.666px"
     xml:space="preserve"
     y="-1099.0581"
     x="-575.492"
     font-family="'Bitstream Vera Sans'"
     fill="#000000"><tspan
       id="tspan4089-7-2-9-75-2-8"
       y="-1099.0581"
       x="-575.492" /></text>
  <text
     id="text4087-2-6-5-59-5-6"
     opacity=".8"
     font-size="12.666px"
     xml:space="preserve"
     y="-353.50461"
     x="-2399.1777"
     font-family="'Bitstream Vera Sans'"
     fill="#000000"><tspan
       id="tspan4089-7-2-9-4-00-2"
       y="-353.50461"
       x="-2399.1777" /></text>
  <text
     id="text4087-2-6-5-264-4"
     opacity=".8"
     font-size="12.666px"
     xml:space="preserve"
     y="-260.63245"
     x="-684.42224"
     font-family="'Bitstream Vera Sans'"
     fill="#000000"><tspan
       id="tspan4089-7-2-9-8-7"
       y="-260.63245"
       x="-684.42224" /></text>
  <text
     id="text4087-2-6-5-42-9"
     opacity=".8"
     font-size="12.666px"
     xml:space="preserve"
     y="-19.71829"
     x="155.5923"
     font-family="'Bitstream Vera Sans'"
     fill="#000000"><tspan
       id="tspan4089-7-2-9-93-3"
       y="-19.71829"
       x="155.5923" /></text>
  <text
     id="text4087-2-6-5-5-05-9"
     opacity=".8"
     font-size="12.666px"
     xml:space="preserve"
     y="-60.460011"
     x="179.55324"
     font-family="'Bitstream Vera Sans'"
     fill="#000000"><tspan
       id="tspan4089-7-2-9-6-49-2"
       y="-60.460011"
       x="179.55324" /></text>
  <text
     id="text4087-2-6-5-1-4-8"
     opacity=".8"
     font-size="12.666px"
     xml:space="preserve"
     y="-254.4886"
     x="-1090.2634"
     font-family="'Bitstream Vera Sans'"
     fill="#000000"><tspan
       id="tspan4089-7-2-9-7-7-3"
       y="-254.4886"
       x="-1090.2634" /></text>
  <text
     id="text4087-2-6-5-7-56-0"
     opacity=".8"
     font-size="12.666px"
     xml:space="preserve"
     y="-667.9588"
     x="-282.66141"
     font-family="'Bitstream Vera Sans'"
     fill="#000000"><tspan
       id="tspan4089-7-2-9-1-1-1"
       y="-667.9588"
       x="-282.66141" /></text>
  <text
     id="text4087-2-6-5-5-8-7"
     opacity=".8"
     font-size="12.666px"
     xml:space="preserve"
     y="-708.7005"
     x="-258.70047"
     font-family="'Bitstream Vera Sans'"
     fill="#000000"><tspan
       id="tspan4089-7-2-9-6-7-8"
       y="-708.7005"
       x="-258.70047" /></text>
  <text
     id="text4087-2-6-5-3-42-9"
     opacity=".8"
     font-size="12.666px"
     xml:space="preserve"
     y="-715.91046"
     x="-1750.1636"
     font-family="'Bitstream Vera Sans'"
     fill="#000000"><tspan
       id="tspan4089-7-2-9-18-39-1"
       y="-715.91046"
       x="-1750.1636" /></text>
  <text
     id="text4087-2-6-5-4-4-5"
     opacity=".8"
     font-size="12.666px"
     xml:space="preserve"
     y="-989.14447"
     x="-289.62085"
     font-family="'Bitstream Vera Sans'"
     fill="#000000"><tspan
       id="tspan4089-7-2-9-9-3-4"
       y="-989.14447"
       x="-289.62085" /></text>
  <text
     id="text4087-2-6-5-7-1-0-9"
     opacity=".8"
     font-size="12.666px"
     xml:space="preserve"
     y="-362.45316"
     x="1196.5026"
     font-family="'Bitstream Vera Sans'"
     fill="#000000"><tspan
       id="tspan4089-7-2-9-1-8-5-2"
       y="-362.45316"
       x="1196.5026" /></text>
  <text
     id="text4087-2-6-5-5-5-5-5"
     opacity=".8"
     font-size="12.666px"
     xml:space="preserve"
     y="-403.19489"
     x="1220.4634"
     font-family="'Bitstream Vera Sans'"
     fill="#000000"><tspan
       id="tspan4089-7-2-9-6-9-2-7"
       y="-403.19489"
       x="1220.4634" /></text>
  <text
     id="text4087-2-6-5-75-9-4"
     opacity=".8"
     font-size="12.666px"
     xml:space="preserve"
     y="-410.40482"
     x="-270.99973"
     font-family="'Bitstream Vera Sans'"
     fill="#000000"><tspan
       id="tspan4089-7-2-9-3-1-9"
       y="-410.40482"
       x="-270.99973" /></text>
  <text
     id="text4087-2-6-5-4-8-18-9"
     opacity=".8"
     font-size="12.666px"
     xml:space="preserve"
     y="-683.63892"
     x="1189.5431"
     font-family="'Bitstream Vera Sans'"
     fill="#000000"><tspan
       id="tspan4089-7-2-9-9-8-4-4"
       y="-683.63892"
       x="1189.5431" /></text>
  <text
     id="text4087-2-6-5-45-3-5"
     opacity=".8"
     font-size="12.666px"
     xml:space="preserve"
     y="-458.49609"
     x="-1208.816"
     font-family="'Bitstream Vera Sans'"
     fill="#000000"><tspan
       id="tspan4089-7-2-9-75-7-9"
       y="-458.49609"
       x="-1208.816" /></text>
  <text
     id="text4087-2-6-5-59-8-3"
     opacity=".8"
     font-size="12.666px"
     xml:space="preserve"
     y="287.05743"
     x="-3032.5017"
     font-family="'Bitstream Vera Sans'"
     fill="#000000"><tspan
       id="tspan4089-7-2-9-4-2-5"
       y="287.05743"
       x="-3032.5017" /></text>
  <g
     id="layer4-0-7"
     transform="matrix(.90475 0 0 .90475 -716.75 -669.05)">
    <text
       id="text4087-2-6-5-20-0"
       opacity=".8"
       font-size="14px"
       xml:space="preserve"
       y="1159.4154"
       x="-664.2738"
       font-family="'Bitstream Vera Sans'"
       fill="#000000"><tspan
         id="tspan4089-7-2-9-82-8"
         y="1159.4154"
         x="-664.2738" /></text>
  </g>
  <text
     id="text7276"
     font-size="12.666px"
     xml:space="preserve"
     y="-361.22546"
     x="435.90427"
     font-family="'Droid Sans'"
     fill="#000000"><tspan
       id="tspan7278"
       y="-361.22546"
       x="435.90427" /><tspan
       id="tspan7280"
       y="-345.3924"
       x="435.90427" /></text>
  <text
     id="text4087-2-6-5-51"
     opacity=".8"
     font-size="12.666px"
     xml:space="preserve"
     y="-843.27002"
     x="901.0882"
     font-family="'Bitstream Vera Sans'"
     fill="#000000"><tspan
       id="tspan4089-7-2-9-97"
       y="-843.27002"
       x="901.0882" /></text>
  <text
     id="text4087-2-6-5-59-2"
     opacity=".8"
     font-size="12.666px"
     xml:space="preserve"
     y="-97.716553"
     x="-922.59778"
     font-family="'Bitstream Vera Sans'"
     fill="#000000"><tspan
       id="tspan4089-7-2-9-4-4"
       y="-97.716553"
       x="-922.59778" /></text>
  <text
     id="text4087-2-6-5-7-7"
     opacity=".8"
     font-size="12.666px"
     xml:space="preserve"
     y="-1128.2659"
     x="1628.1677"
     font-family="'Bitstream Vera Sans'"
     fill="#000000"><tspan
       id="tspan4089-7-2-9-1-6"
       y="-1128.2659"
       x="1628.1677" /></text>
  <text
     id="text4087-2-6-5-5-6"
     opacity=".8"
     font-size="12.666px"
     xml:space="preserve"
     y="-1169.0076"
     x="1652.1285"
     font-family="'Bitstream Vera Sans'"
     fill="#000000"><tspan
       id="tspan4089-7-2-9-6-53"
       y="-1169.0076"
       x="1652.1285" /></text>
  <text
     id="text4087-2-6-5-54"
     opacity=".8"
     font-size="12.666px"
     xml:space="preserve"
     y="-1176.2175"
     x="160.66542"
     font-family="'Bitstream Vera Sans'"
     fill="#000000"><tspan
       id="tspan4089-7-2-9-0"
       y="-1176.2175"
       x="160.66542" /></text>
  <text
     id="text4087-2-6-5-4-1"
     opacity=".8"
     font-size="12.666px"
     xml:space="preserve"
     y="-1449.4517"
     x="1621.2083"
     font-family="'Bitstream Vera Sans'"
     fill="#000000"><tspan
       id="tspan4089-7-2-9-9-28"
       y="-1449.4517"
       x="1621.2083" /></text>
  <g
     id="g4555"
     transform="matrix(.085093 0 0 .0828 3.4459 5)"
     fill="#006969" />
  <g
     id="g5224"
     transform="matrix(.048608 .028504 -.027307 .048040 18.018 12.78)"
     fill="#1f1209" />
  <g
     id="g5416"
     transform="matrix(.051645 .030286 -.029014 .051042 19.644 11.016)"
     fill="#3f2512" />
  <g
     style="fill:#787878;fill-opacity:1"
     id="g4435"
     transform="matrix(1.2981,0,0,1.2651,3.4781,4.9995469)">
    <g
       style="fill:#787878;fill-opacity:1"
       id="g4437" />
  </g>
  <path
     inkscape:connector-curvature="0"
     style="opacity:1;fill:#303030;fill-opacity:1;stroke:none;stroke-width:2;stroke-linecap:round;stroke-linejoin:round;stroke-miterlimit:4;stroke-dasharray:none;stroke-opacity:1"
     d="M 6.0292969,32 C 4.9050903,32 4,32.892326 4,34 l 0,8 c 0,1.107674 0.9050903,2 2.0292969,2 l 1.9414062,0 C 9.0949097,44 10,43.107674 10,42 l 0,-8 C 10,32.892326 9.0949097,32 7.9707031,32 L 6.0292969,32 Z M 40.029297,32 C 38.90509,32 38,32.892326 38,34 l 0,8 c 0,1.107674 0.90509,2 2.029297,2 l 1.941406,0 C 43.09491,44 44,43.107674 44,42 l 0,-8 c 0,-1.107674 -0.90509,-2 -2.029297,-2 l -1.941406,0 z"
     id="rect4362" />
  <path
     inkscape:connector-curvature="0"
     style="opacity:0.3;fill:#000000;fill-opacity:1;stroke:none;stroke-width:2;stroke-linecap:round;stroke-linejoin:round;stroke-miterlimit:4;stroke-dasharray:none;stroke-opacity:1"
     d="m 4,41 0,1 c 0,1.107674 0.9050903,2 2.0292969,2 l 1.9414062,0 C 9.0949097,44 10,43.107674 10,42 l 0,-1 c 0,1.107674 -0.9050903,2 -2.0292969,2 L 6.0292969,43 C 4.9050903,43 4,42.107674 4,41 Z m 34,0 0,1 c 0,1.107674 0.90509,2 2.029297,2 l 1.941406,0 C 43.09491,44 44,43.107674 44,42 l 0,-1 c 0,1.107674 -0.90509,2 -2.029297,2 l -1.941406,0 C 38.90509,43 38,42.107674 38,41 Z"
     id="path4459" />
  <g
     style="fill:#4d4d4d"
     id="g4544"
     transform="matrix(1.2981,0,0,1.2651,3.4781,4)">
    <g
       style="fill:#4d4d4d"
       id="g4504">
      <path
         style="fill:#4d4d4d"
         d="M 24.001953,4 C 16.61836,4 10.630859,9.832831 10.630859,17.03125 c 0,1.266365 0.19247,2.486965 0.539063,3.644531 0,0 -2.0468157,7.286472 -1.3867189,10.882813 0.1923062,1.047722 0.5871979,2.056237 1.1093749,3.005859 C 12.926858,31.823742 18.153272,30.003726 24,30 c 5.844185,0.0017 11.071408,1.818337 13.111328,4.556641 0.520529,-0.947372 0.915462,-1.953073 1.107422,-2.998047 0.660615,-3.59619 -1.386719,-10.882813 -1.386719,-10.882813 0.347891,-1.157566 0.539063,-2.378166 0.539063,-3.644531 C 37.371094,9.8340961 31.388142,4 24.001953,4 Z"
         transform="matrix(0.77035668,0,0,0.79045135,-2.6793776,-3.1618054)"
         id="path4506"
         inkscape:connector-curvature="0"
         sodipodi:nodetypes="sscscccscss" />
    </g>
  </g>
  <circle
     r="3"
     cy="14"
     cx="17"
     id="circle4421"
     style="opacity:0.2;fill:#000000;fill-opacity:1" />
  <circle
     style="fill:#ffffff"
     id="path4623"
     cx="17"
     cy="13"
     r="3" />
  <circle
     r="3"
     cy="14"
     cx="31"
     id="circle4423"
     style="opacity:0.2;fill:#000000;fill-opacity:1" />
  <circle
     style="fill:#ffffff"
     id="circle4625"
     cx="31"
     cy="13"
     r="3" />
  <ellipse
     style="fill:#ffffff"
     id="circle4627"
     rx="10"
     ry="11"
     cy="29"
     cx="24" />
  <g
     transform="matrix(1.2981,0,0,1.2651,3.4781,4)"
     id="g4464"
     style="fill:#000000;fill-opacity:1">
    <g
       id="g4466"
       style="fill:#000000;fill-opacity:1">
      <path
         inkscape:connector-curvature="0"
         style="opacity:0.3;fill:#000000;fill-opacity:1"
         d="m 10.652344,16.609375 c -0.0047,0.141383 -0.02149,0.279387 -0.02149,0.421875 0,1.087599 0.148565,2.139291 0.408203,3.148438 0.04005,-0.149563 0.13086,-0.503907 0.13086,-0.503907 -0.293382,-0.979849 -0.468318,-2.0067 -0.517578,-3.066406 z m 26.697265,0 c -0.049,1.059706 -0.223097,2.086557 -0.517578,3.066406 0,0 0.0911,0.353538 0.13086,0.501953 0.259889,-1.00859 0.408203,-2.059544 0.408203,-3.146484 0,-0.142463 -0.01683,-0.280515 -0.02148,-0.421875 z M 24,29 c -5.846728,0.0037 -11.073142,1.823742 -13.107422,4.564453 -0.522177,-0.949622 -0.9170687,-1.958137 -1.1093749,-3.005859 -0.058498,-0.318707 -0.090086,-0.673941 -0.109375,-1.042969 -0.016777,0.742619 7.672e-4,1.451251 0.109375,2.042969 0.1923062,1.047722 0.5871979,2.056237 1.1093749,3.005859 C 12.926858,31.823742 18.153272,30.003726 24,30 c 5.844185,0.0017 11.071408,1.818337 13.111328,4.556641 0.520529,-0.947372 0.915462,-1.953073 1.107422,-2.998047 0.108693,-0.591693 0.126116,-1.300361 0.109375,-2.042969 -0.01932,0.369019 -0.05083,0.724275 -0.109375,1.042969 -0.19196,1.044974 -0.586893,2.050675 -1.107422,2.998047 C 35.071408,30.818337 29.844185,29.0017 24,29 Z"
         transform="matrix(0.77035668,0,0,0.79045135,-2.6793776,-3.1618054)"
         id="path4468" />
    </g>
  </g>
  <path
     style="opacity:0.2"
     inkscape:connector-curvature="0"
     id="path4618"
     d="m 21,16 6,0 c -0.481,4.109 -3,8 -3,8 0,0 -3,-4.6183 -3,-8 z" />
  <g
     id="g4417"
     transform="translate(-2,-1)">
    <circle
       r="1.5"
       cy="14.5"
       cx="18.5"
       id="path4629"
       style="fill:#303030" />
    <circle
       r="1.5"
       cy="14.5"
       cx="32.5"
       id="circle4631"
       style="fill:#303030" />
  </g>
  <path
     style="fill:#cd5252"
     inkscape:connector-curvature="0"
     id="rect4653"
     d="m 21,15 6,0 c -0.481,4.109 -3,8 -3,8 0,0 -3,-4.6183 -3,-8 z" />
  <path
     style="opacity:1;fill:#303030;fill-opacity:1;stroke:none;stroke-width:2;stroke-linecap:round;stroke-linejoin:round;stroke-miterlimit:4;stroke-dasharray:none;stroke-opacity:1"
     d="m 23.999994,25 a 5,5 0 0 0 -5,5 5,5 0 0 0 5,5 5,5 0 0 0 5,-5 5,5 0 0 0 -5,-5 z m 0,2 a 3,3 0 0 1 1.949219,0.720703 l -1.949219,1.125 -1.947266,-1.123047 A 3,3 0 0 1 23.999994,27 Z m 2.949219,2.451172 A 3,3 0 0 1 26.999994,30 a 3,3 0 0 1 -2,2.826172 l 0,-2.25 1.949219,-1.125 z m -5.896485,0.002 1.947266,1.123 0,2.248047 a 3,3 0 0 1 -2,-2.824219 3,3 0 0 1 0.05273,-0.546875 z"
     id="path4366"
     inkscape:connector-curvature="0" />
  <path
     inkscape:connector-curvature="0"
     style="opacity:1;fill:#f5432a;fill-opacity:1;stroke:none;stroke-width:2;stroke-linecap:round;stroke-linejoin:round;stroke-miterlimit:4;stroke-dasharray:none;stroke-opacity:1"
     d="m 24,30 a 14,7 0 0 0 -14,7 14,7 0 0 0 0.59375,2 L 5,39 l 0,3 9.220703,0 A 14,7 0 0 0 24,44 14,7 0 0 0 33.792969,42 L 43,42 43,39 37.410156,39 A 14,7 0 0 0 38,37 14,7 0 0 0 24,30 Z"
     id="path4360" />
  <ellipse
     style="opacity:1;fill:#4d4d4d;fill-opacity:1;stroke:none;stroke-width:2;stroke-linecap:round;stroke-linejoin:round;stroke-miterlimit:4;stroke-dasharray:none;stroke-opacity:1"
     id="path4387"
     cx="-12.915935"
     cy="29.971832"
     rx="3.5495861"
     ry="6.2769771"
     transform="matrix(0.70174882,-0.71242445,0.86960806,0.49374267,0,0)" />
  <ellipse
     transform="matrix(-0.70174882,-0.71242445,-0.86960806,0.49374267,0,0)"
     ry="6.2769771"
     rx="3.5495861"
     cy="-5.4276433"
     cx="-37.449409"
     id="ellipse4389"
     style="opacity:1;fill:#4d4d4d;fill-opacity:1;stroke:none;stroke-width:2;stroke-linecap:round;stroke-linejoin:round;stroke-miterlimit:4;stroke-dasharray:none;stroke-opacity:1" />
  <ellipse
     ry="2"
     rx="2.0000002"
     cy="37"
     cx="16"
     id="ellipse4425"
     style="opacity:0.2;fill:#000000;fill-opacity:1;stroke:none;stroke-width:2;stroke-linecap:round;stroke-linejoin:round;stroke-miterlimit:4;stroke-dasharray:none;stroke-opacity:1" />
  <ellipse
     style="opacity:1;fill:#ffffff;fill-opacity:1;stroke:none;stroke-width:2;stroke-linecap:round;stroke-linejoin:round;stroke-miterlimit:4;stroke-dasharray:none;stroke-opacity:1"
     id="path4398"
     cx="16"
     cy="36"
     rx="2.0000002"
     ry="2" />
  <ellipse
     ry="2"
     rx="2.0000002"
     style="opacity:0.2;fill:#000000;fill-opacity:1;stroke:none;stroke-width:2;stroke-linecap:round;stroke-linejoin:round;stroke-miterlimit:4;stroke-dasharray:none;stroke-opacity:1"
     id="ellipse4427"
     cx="32"
     cy="37" />
  <ellipse
     cy="36"
     cx="32"
     id="circle4400"
     style="opacity:1;fill:#ffffff;fill-opacity:1;stroke:none;stroke-width:2;stroke-linecap:round;stroke-linejoin:round;stroke-miterlimit:4;stroke-dasharray:none;stroke-opacity:1"
     rx="2.0000002"
     ry="2" />
  <path
     style="opacity:0.5;fill:#000000;fill-opacity:1;stroke:none;stroke-width:2;stroke-linecap:round;stroke-linejoin:round;stroke-miterlimit:4;stroke-dasharray:none;stroke-opacity:1"
     d="M 23.5,33 C 23.223,33 23,33.669 23,34.5 l 0,3 c 0,0.831 0.223,1.5 0.5,1.5 0.277,0 0.5,-0.669 0.5,-1.5 l 0,-3 C 24,33.669 23.777,33 23.5,33 Z m -2,1 C 21.223,34 21,34.446 21,35 l 0,2 c 0,0.554 0.223,1 0.5,1 0.277,0 0.5,-0.446 0.5,-1 l 0,-2 c 0,-0.554 -0.223,-1 -0.5,-1 z"
     id="rect4404"
     inkscape:connector-curvature="0"
     sodipodi:nodetypes="ssssssssssssss" />
  <path
     sodipodi:nodetypes="ssssssssssssss"
     inkscape:connector-curvature="0"
     id="path4415"
     d="m 25.5,33 c 0.277,0 0.5,0.669 0.5,1.5 l 0,3 C 26,38.331 25.777,39 25.5,39 25.223,39 25,38.331 25,37.5 l 0,-3 C 25,33.669 25.223,33 25.5,33 Z m 2,1 c 0.277,0 0.5,0.446 0.5,1 l 0,2 c 0,0.554 -0.223,1 -0.5,1 C 27.223,38 27,37.554 27,37 l 0,-2 c 0,-0.554 0.223,-1 0.5,-1 z"
     style="opacity:0.5;fill:#000000;fill-opacity:1;stroke:none;stroke-width:2;stroke-linecap:round;stroke-linejoin:round;stroke-miterlimit:4;stroke-dasharray:none;stroke-opacity:1" />
  <g
     transform="matrix(1.2981,0,0,1.2651,3.4781,4)"
     id="g4429"
     style="fill:#ffffff;fill-opacity:1">
    <g
       id="g4431"
       style="fill:#ffffff;fill-opacity:1">
      <path
         inkscape:connector-curvature="0"
         style="opacity:0.2;fill:#ffffff;fill-opacity:1"
         d="M 24.001953,4 C 16.61836,4 10.630859,9.832831 10.630859,17.03125 c 0,0.19442 0.01255,0.385925 0.02149,0.578125 C 10.882598,10.607862 16.7643,5 24.001953,5 c 7.239985,0 13.117247,5.609294 13.347656,12.609375 0.0089,-0.1922 0.02148,-0.383705 0.02148,-0.578125 C 37.371094,9.8340961 31.388142,4 24.001953,4 Z m 12.960938,17.177734 c -0.04283,0.166141 -0.08167,0.334378 -0.13086,0.498047 0,0 1.411226,5.068965 1.496094,8.839844 0.175793,-3.357799 -1.060801,-8.201509 -1.365234,-9.337891 z m -25.923829,0.002 c -0.305256,1.139956 -1.540655,5.979824 -1.3652339,9.335937 0.085051,-3.770932 1.4960939,-8.839844 1.4960939,-8.839844 -0.04882,-0.163068 -0.08826,-0.330571 -0.13086,-0.496093 z"
         transform="matrix(0.77035668,0,0,0.79045135,-2.6793776,-3.1618054)"
         id="path4433" />
    </g>
  </g>
  <path
     inkscape:connector-curvature="0"
     style="opacity:0.2;fill:#ffffff;fill-opacity:1;stroke:none;stroke-width:2;stroke-linecap:round;stroke-linejoin:round;stroke-miterlimit:4;stroke-dasharray:none;stroke-opacity:1"
     d="M 24,30 A 14,7 0 0 0 10,37 14,7 0 0 0 10.04883,37.451172 14,7 0 0 1 24,31 14,7 0 0 1 37.951172,37.517578 14,7 0 0 0 38,37 14,7 0 0 0 24,30 Z m -19,9 0,1 5.59375,0 A 14,7 0 0 1 10.166016,39 L 5,39 Z m 32.835938,0 a 14,7 0 0 1 -0.425782,1 L 43,40 l 0,-1 -5.164062,0 z"
     id="path4443" />
  <path
     inkscape:connector-curvature="0"
     style="opacity:0.3;fill:#000000;fill-opacity:1;stroke:none;stroke-width:2;stroke-linecap:round;stroke-linejoin:round;stroke-miterlimit:4;stroke-dasharray:none;stroke-opacity:1"
     d="M 10.048828,36.451172 A 14,7 0 0 0 10,37 a 14,7 0 0 0 0.166016,1 l 0.427734,0 a 14,7 0 0 1 -0.544922,-1.548828 z m 27.902344,0.06641 A 14,7 0 0 1 37.410156,38 l 0.425782,0 A 14,7 0 0 0 38,37 14,7 0 0 0 37.951172,36.517578 Z M 5,41 l 0,1 9.220703,0 A 14,7 0 0 0 24,44 14,7 0 0 0 33.792969,42 L 43,42 43,41 33.792969,41 A 14,7 0 0 1 24,43 14,7 0 0 1 14.220703,41 L 5,41 Z"
     id="path4448" />
  <path
     inkscape:connector-curvature="0"
     style="opacity:0.2;fill:#ffffff;fill-opacity:1;stroke:none;stroke-width:2;stroke-linecap:round;stroke-linejoin:round;stroke-miterlimit:4;stroke-dasharray:none;stroke-opacity:1"
     d="M 6.0292969,32 C 4.9050903,32 4,32.892326 4,34 l 0,1 c 0,-1.107674 0.9050903,-2 2.0292969,-2 l 1.9414062,0 C 9.0949097,33 10,33.892326 10,35 l 0,-1 C 10,32.892326 9.0949097,32 7.9707031,32 L 6.0292969,32 Z M 40.029297,32 C 38.90509,32 38,32.892326 38,34 l 0,1 c 0,-1.107674 0.90509,-2 2.029297,-2 l 1.941406,0 C 43.09491,33 44,33.892326 44,35 l 0,-1 c 0,-1.107674 -0.90509,-2 -2.029297,-2 l -1.941406,0 z"
     id="path4454" />
  <g
     style="fill:#707070;fill-opacity:1"
     id="g4470"
     transform="matrix(1.2981,0,0,1.2651,3.4781,2.9995469)">
    <g
       style="fill:#707070;fill-opacity:1"
       id="g4472" />
  </g>
</svg>
