<?xml version="1.0" encoding="UTF-8" standalone="no"?>
<!-- Created with Inkscape (http://www.inkscape.org/) -->
<svg id="svg2817" xmlns:rdf="http://www.w3.org/1999/02/22-rdf-syntax-ns#" xmlns="http://www.w3.org/2000/svg" height="48" width="48" version="1.0" xmlns:cc="http://creativecommons.org/ns#" xmlns:xlink="http://www.w3.org/1999/xlink" xmlns:dc="http://purl.org/dc/elements/1.1/">
 <metadata id="metadata57">
  <rdf:RDF>
   <cc:Work rdf:about="">
    <dc:format>image/svg+xml</dc:format>
    <dc:type rdf:resource="http://purl.org/dc/dcmitype/StillImage"/>
    <dc:title/>
   </cc:Work>
  </rdf:RDF>
 </metadata>
 <text id="text4087-2-6-5" opacity=".8" font-size="12.666px" xml:space="preserve" y="10.812601" x="877.22626" font-family="&apos;Bitstream Vera Sans&apos;" fill="#000000"><tspan id="tspan4089-7-2-9" y="10.812601" x="877.22626"/></text>
 <text id="text4087-2-6-5-5" opacity=".8" font-size="12.666px" xml:space="preserve" y="-29.929106" x="901.18719" font-family="&apos;Bitstream Vera Sans&apos;" fill="#000000"><tspan id="tspan4089-7-2-9-6" y="-29.929106" x="901.18719"/></text>
 <text id="text4087-2-6-5-2" opacity=".8" font-size="12.666px" xml:space="preserve" y="-60.007248" x="-569.37115" font-family="&apos;Bitstream Vera Sans&apos;" fill="#000000"><tspan id="tspan4089-7-2-9-2" y="-60.007248" x="-569.37115"/></text>
 <text id="text4087-2-6-5-59" opacity=".8" font-size="12.666px" xml:space="preserve" y="685.5462" x="-2393.0571" font-family="&apos;Bitstream Vera Sans&apos;" fill="#000000"><tspan id="tspan4089-7-2-9-4" y="685.5462" x="-2393.0571"/></text>
 <text id="text4087-2-6-5-1" opacity=".8" font-size="12.666px" xml:space="preserve" y="-445.32822" x="-454.88007" font-family="&apos;Bitstream Vera Sans&apos;" fill="#000000"><tspan id="tspan4089-7-2-9-7" y="-445.32822" x="-454.88007"/></text>
 <text id="text4087-2-6-5-7" opacity=".8" font-size="12.666px" xml:space="preserve" y="-858.79834" x="352.72208" font-family="&apos;Bitstream Vera Sans&apos;" fill="#000000"><tspan id="tspan4089-7-2-9-1" y="-858.79834" x="352.72208"/></text>
 <text id="text4087-2-6-5-5-3" opacity=".8" font-size="12.666px" xml:space="preserve" y="-899.54004" x="376.68301" font-family="&apos;Bitstream Vera Sans&apos;" fill="#000000"><tspan id="tspan4089-7-2-9-6-5" y="-899.54004" x="376.68301"/></text>
 <text id="text4087-2-6-5-3" opacity=".8" font-size="12.666px" xml:space="preserve" y="-906.74994" x="-1114.7802" font-family="&apos;Bitstream Vera Sans&apos;" fill="#000000"><tspan id="tspan4089-7-2-9-18" y="-906.74994" x="-1114.7802"/></text>
 <text id="text4087-2-6-5-4" opacity=".8" font-size="12.666px" xml:space="preserve" y="-1179.9841" x="345.7626" font-family="&apos;Bitstream Vera Sans&apos;" fill="#000000"><tspan id="tspan4089-7-2-9-9" y="-1179.9841" x="345.7626"/></text>
 <text id="text4087-2-6-5-7-1" opacity=".8" font-size="12.666px" xml:space="preserve" y="-553.29272" x="1831.8861" font-family="&apos;Bitstream Vera Sans&apos;" fill="#000000"><tspan id="tspan4089-7-2-9-1-8" y="-553.29272" x="1831.8861"/></text>
 <text id="text4087-2-6-5-5-5" opacity=".8" font-size="12.666px" xml:space="preserve" y="-594.03448" x="1855.8469" font-family="&apos;Bitstream Vera Sans&apos;" fill="#000000"><tspan id="tspan4089-7-2-9-6-9" y="-594.03448" x="1855.8469"/></text>
 <text id="text4087-2-6-5-75" opacity=".8" font-size="12.666px" xml:space="preserve" y="-601.24438" x="364.38376" font-family="&apos;Bitstream Vera Sans&apos;" fill="#000000"><tspan id="tspan4089-7-2-9-3" y="-601.24438" x="364.38376"/></text>
 <text id="text4087-2-6-5-4-8" opacity=".8" font-size="12.666px" xml:space="preserve" y="-874.47839" x="1824.9266" font-family="&apos;Bitstream Vera Sans&apos;" fill="#000000"><tspan id="tspan4089-7-2-9-9-8" y="-874.47839" x="1824.9266"/></text>
 <text id="text4087-2-6-5-45" opacity=".8" font-size="12.666px" xml:space="preserve" y="-649.33569" x="-573.43256" font-family="&apos;Bitstream Vera Sans&apos;" fill="#000000"><tspan id="tspan4089-7-2-9-75" y="-649.33569" x="-573.43256"/></text>
 <text id="text4087-2-6-5-59-7" opacity=".8" font-size="12.666px" xml:space="preserve" y="96.217857" x="-2397.1182" font-family="&apos;Bitstream Vera Sans&apos;" fill="#000000"><tspan id="tspan4089-7-2-9-4-0" y="96.217857" x="-2397.1182"/></text>
 <text id="text4087-2-6-5-8" opacity=".8" font-size="12.666px" xml:space="preserve" y="189.09" x="-682.36279" font-family="&apos;Bitstream Vera Sans&apos;" fill="#000000"><tspan id="tspan4089-7-2-9-19" y="189.09" x="-682.36279"/></text>
 <text id="text4087-2-6-5-7-5" opacity=".8" font-size="12.666px" xml:space="preserve" y="9.9078522" x="426.66153" font-family="&apos;Bitstream Vera Sans&apos;" fill="#000000"><tspan id="tspan4089-7-2-9-1-2" y="9.9078522" x="426.66153"/></text>
 <text id="text4087-2-6-5-5-0" opacity=".8" font-size="12.666px" xml:space="preserve" y="-30.833855" x="450.62247" font-family="&apos;Bitstream Vera Sans&apos;" fill="#000000"><tspan id="tspan4089-7-2-9-6-2" y="-30.833855" x="450.62247"/></text>
 <text id="text4087-2-6-5-26" opacity=".8" font-size="12.666px" xml:space="preserve" y="-38.043827" x="-1040.8407" font-family="&apos;Bitstream Vera Sans&apos;" fill="#000000"><tspan id="tspan4089-7-2-9-90" y="-38.043827" x="-1040.8407"/></text>
 <text id="text4087-2-6-5-4-3" opacity=".8" font-size="12.666px" xml:space="preserve" y="-311.27789" x="419.70206" font-family="&apos;Bitstream Vera Sans&apos;" fill="#000000"><tspan id="tspan4089-7-2-9-9-5" y="-311.27789" x="419.70206"/></text>
 <text id="text4087-2-6-5-55" opacity=".8" font-size="12.666px" xml:space="preserve" y="-40.758072" x="-608.03253" font-family="&apos;Bitstream Vera Sans&apos;" fill="#000000"><tspan id="tspan4089-7-2-9-32" y="-40.758072" x="-608.03253"/></text>
 <text id="text4087-2-6-5-59-9" opacity=".8" font-size="12.666px" xml:space="preserve" y="704.79541" x="-2431.7185" font-family="&apos;Bitstream Vera Sans&apos;" fill="#000000"><tspan id="tspan4089-7-2-9-4-1" y="704.79541" x="-2431.7185"/></text>
 <text id="text4087-2-6-5-1-8" opacity=".8" font-size="12.666px" xml:space="preserve" y="-902.28857" x="-456.93948" font-family="&apos;Bitstream Vera Sans&apos;" fill="#000000"><tspan id="tspan4089-7-2-9-7-8" y="-902.28857" x="-456.93948"/></text>
 <text id="text4087-2-6-5-7-8" opacity=".8" font-size="12.666px" xml:space="preserve" y="-1315.7588" x="350.66266" font-family="&apos;Bitstream Vera Sans&apos;" fill="#000000"><tspan id="tspan4089-7-2-9-1-9" y="-1315.7588" x="350.66266"/></text>
 <text id="text4087-2-6-5-5-52" opacity=".8" font-size="12.666px" xml:space="preserve" y="-1356.5005" x="374.62357" font-family="&apos;Bitstream Vera Sans&apos;" fill="#000000"><tspan id="tspan4089-7-2-9-6-4" y="-1356.5005" x="374.62357"/></text>
 <text id="text4087-2-6-5-3-4" opacity=".8" font-size="12.666px" xml:space="preserve" y="-1363.7104" x="-1116.8396" font-family="&apos;Bitstream Vera Sans&apos;" fill="#000000"><tspan id="tspan4089-7-2-9-18-3" y="-1363.7104" x="-1116.8396"/></text>
 <text id="text4087-2-6-5-4-7" opacity=".8" font-size="12.666px" xml:space="preserve" y="-1636.9446" x="343.70316" font-family="&apos;Bitstream Vera Sans&apos;" fill="#000000"><tspan id="tspan4089-7-2-9-9-54" y="-1636.9446" x="343.70316"/></text>
 <text id="text4087-2-6-5-7-1-2" opacity=".8" font-size="12.666px" xml:space="preserve" y="-1010.2533" x="1829.8265" font-family="&apos;Bitstream Vera Sans&apos;" fill="#000000"><tspan id="tspan4089-7-2-9-1-8-0" y="-1010.2533" x="1829.8265"/></text>
 <text id="text4087-2-6-5-5-5-6" opacity=".8" font-size="12.666px" xml:space="preserve" y="-1050.9949" x="1853.7874" font-family="&apos;Bitstream Vera Sans&apos;" fill="#000000"><tspan id="tspan4089-7-2-9-6-9-8" y="-1050.9949" x="1853.7874"/></text>
 <text id="text4087-2-6-5-75-4" opacity=".8" font-size="12.666px" xml:space="preserve" y="-1058.2048" x="362.32431" font-family="&apos;Bitstream Vera Sans&apos;" fill="#000000"><tspan id="tspan4089-7-2-9-3-9" y="-1058.2048" x="362.32431"/></text>
 <text id="text4087-2-6-5-4-8-1" opacity=".8" font-size="12.666px" xml:space="preserve" y="-1331.439" x="1822.8671" font-family="&apos;Bitstream Vera Sans&apos;" fill="#000000"><tspan id="tspan4089-7-2-9-9-8-8" y="-1331.439" x="1822.8671"/></text>
 <text id="text4087-2-6-5-45-0" opacity=".8" font-size="12.666px" xml:space="preserve" y="-1106.2961" x="-575.492" font-family="&apos;Bitstream Vera Sans&apos;" fill="#000000"><tspan id="tspan4089-7-2-9-75-2" y="-1106.2961" x="-575.492"/></text>
 <text id="text4087-2-6-5-59-5" opacity=".8" font-size="12.666px" xml:space="preserve" y="-360.74261" x="-2399.1777" font-family="&apos;Bitstream Vera Sans&apos;" fill="#000000"><tspan id="tspan4089-7-2-9-4-00" y="-360.74261" x="-2399.1777"/></text>
 <text id="text4087-2-6-5-264" opacity=".8" font-size="12.666px" xml:space="preserve" y="-267.87045" x="-684.42224" font-family="&apos;Bitstream Vera Sans&apos;" fill="#000000"><tspan id="tspan4089-7-2-9-8" y="-267.87045" x="-684.42224"/></text>
 <text id="text4087-2-6-5-42" opacity=".8" font-size="12.666px" xml:space="preserve" y="-26.956278" x="155.5923" font-family="&apos;Bitstream Vera Sans&apos;" fill="#000000"><tspan id="tspan4089-7-2-9-93" y="-26.956278" x="155.5923"/></text>
 <text id="text4087-2-6-5-5-05" opacity=".8" font-size="12.666px" xml:space="preserve" y="-67.697998" x="179.55324" font-family="&apos;Bitstream Vera Sans&apos;" fill="#000000"><tspan id="tspan4089-7-2-9-6-49" y="-67.697998" x="179.55324"/></text>
 <text id="text4087-2-6-5-1-4" opacity=".8" font-size="12.666px" xml:space="preserve" y="-261.72662" x="-1090.2634" font-family="&apos;Bitstream Vera Sans&apos;" fill="#000000"><tspan id="tspan4089-7-2-9-7-7" y="-261.72662" x="-1090.2634"/></text>
 <text id="text4087-2-6-5-7-56" opacity=".8" font-size="12.666px" xml:space="preserve" y="-675.19678" x="-282.66141" font-family="&apos;Bitstream Vera Sans&apos;" fill="#000000"><tspan id="tspan4089-7-2-9-1-1" y="-675.19678" x="-282.66141"/></text>
 <text id="text4087-2-6-5-5-8" opacity=".8" font-size="12.666px" xml:space="preserve" y="-715.93848" x="-258.70047" font-family="&apos;Bitstream Vera Sans&apos;" fill="#000000"><tspan id="tspan4089-7-2-9-6-7" y="-715.93848" x="-258.70047"/></text>
 <text id="text4087-2-6-5-3-42" opacity=".8" font-size="12.666px" xml:space="preserve" y="-723.14838" x="-1750.1636" font-family="&apos;Bitstream Vera Sans&apos;" fill="#000000"><tspan id="tspan4089-7-2-9-18-39" y="-723.14838" x="-1750.1636"/></text>
 <text id="text4087-2-6-5-4-4" opacity=".8" font-size="12.666px" xml:space="preserve" y="-996.38251" x="-289.62085" font-family="&apos;Bitstream Vera Sans&apos;" fill="#000000"><tspan id="tspan4089-7-2-9-9-3" y="-996.38251" x="-289.62085"/></text>
 <text id="text4087-2-6-5-7-1-0" opacity=".8" font-size="12.666px" xml:space="preserve" y="-369.69113" x="1196.5026" font-family="&apos;Bitstream Vera Sans&apos;" fill="#000000"><tspan id="tspan4089-7-2-9-1-8-5" y="-369.69113" x="1196.5026"/></text>
 <text id="text4087-2-6-5-5-5-5" opacity=".8" font-size="12.666px" xml:space="preserve" y="-410.43286" x="1220.4634" font-family="&apos;Bitstream Vera Sans&apos;" fill="#000000"><tspan id="tspan4089-7-2-9-6-9-2" y="-410.43286" x="1220.4634"/></text>
 <text id="text4087-2-6-5-75-9" opacity=".8" font-size="12.666px" xml:space="preserve" y="-417.64282" x="-270.99973" font-family="&apos;Bitstream Vera Sans&apos;" fill="#000000"><tspan id="tspan4089-7-2-9-3-1" y="-417.64282" x="-270.99973"/></text>
 <text id="text4087-2-6-5-4-8-18" opacity=".8" font-size="12.666px" xml:space="preserve" y="-690.87689" x="1189.5431" font-family="&apos;Bitstream Vera Sans&apos;" fill="#000000"><tspan id="tspan4089-7-2-9-9-8-4" y="-690.87689" x="1189.5431"/></text>
 <text id="text4087-2-6-5-45-3" opacity=".8" font-size="12.666px" xml:space="preserve" y="-465.7341" x="-1208.816" font-family="&apos;Bitstream Vera Sans&apos;" fill="#000000"><tspan id="tspan4089-7-2-9-75-7" y="-465.7341" x="-1208.816"/></text>
 <text id="text4087-2-6-5-59-8" opacity=".8" font-size="12.666px" xml:space="preserve" y="279.81946" x="-3032.5017" font-family="&apos;Bitstream Vera Sans&apos;" fill="#000000"><tspan id="tspan4089-7-2-9-4-2" y="279.81946" x="-3032.5017"/></text>
 <g id="layer4-0" transform="matrix(.90475 0 0 .90475 -716.75 -676.29)">
  <text id="text4087-2-6-5-20" opacity=".8" font-size="14px" xml:space="preserve" y="1159.4154" x="-664.2738" font-family="&apos;Bitstream Vera Sans&apos;" fill="#000000"><tspan id="tspan4089-7-2-9-82" y="1159.4154" x="-664.2738"/></text>
 </g>
 <text id="text4087-2-6-5-9" opacity=".8" font-size="12.666px" xml:space="preserve" y="18.050589" x="877.22626" font-family="&apos;Bitstream Vera Sans&apos;" fill="#000000"><tspan id="tspan4089-7-2-9-43" y="18.050589" x="877.22626"/></text>
 <text id="text4087-2-6-5-5-51" opacity=".8" font-size="12.666px" xml:space="preserve" y="-22.691116" x="901.18719" font-family="&apos;Bitstream Vera Sans&apos;" fill="#000000"><tspan id="tspan4089-7-2-9-6-74" y="-22.691116" x="901.18719"/></text>
 <text id="text4087-2-6-5-2-3" opacity=".8" font-size="12.666px" xml:space="preserve" y="-52.76926" x="-569.37115" font-family="&apos;Bitstream Vera Sans&apos;" fill="#000000"><tspan id="tspan4089-7-2-9-2-1" y="-52.76926" x="-569.37115"/></text>
 <text id="text4087-2-6-5-59-4" opacity=".8" font-size="12.666px" xml:space="preserve" y="692.78418" x="-2393.0571" font-family="&apos;Bitstream Vera Sans&apos;" fill="#000000"><tspan id="tspan4089-7-2-9-4-6" y="692.78418" x="-2393.0571"/></text>
 <text id="text4087-2-6-5-1-9" opacity=".8" font-size="12.666px" xml:space="preserve" y="-438.09021" x="-454.88007" font-family="&apos;Bitstream Vera Sans&apos;" fill="#000000"><tspan id="tspan4089-7-2-9-7-4" y="-438.09021" x="-454.88007"/></text>
 <text id="text4087-2-6-5-7-2" opacity=".8" font-size="12.666px" xml:space="preserve" y="-851.5603" x="352.72208" font-family="&apos;Bitstream Vera Sans&apos;" fill="#000000"><tspan id="tspan4089-7-2-9-1-26" y="-851.5603" x="352.72208"/></text>
 <text id="text4087-2-6-5-5-3-4" opacity=".8" font-size="12.666px" xml:space="preserve" y="-892.30206" x="376.68301" font-family="&apos;Bitstream Vera Sans&apos;" fill="#000000"><tspan id="tspan4089-7-2-9-6-5-1" y="-892.30206" x="376.68301"/></text>
 <text id="text4087-2-6-5-3-2" opacity=".8" font-size="12.666px" xml:space="preserve" y="-899.51196" x="-1114.7802" font-family="&apos;Bitstream Vera Sans&apos;" fill="#000000"><tspan id="tspan4089-7-2-9-18-8" y="-899.51196" x="-1114.7802"/></text>
 <text id="text4087-2-6-5-4-89" opacity=".8" font-size="12.666px" xml:space="preserve" y="-1172.7461" x="345.7626" font-family="&apos;Bitstream Vera Sans&apos;" fill="#000000"><tspan id="tspan4089-7-2-9-9-2" y="-1172.7461" x="345.7626"/></text>
 <text id="text4087-2-6-5-7-1-8" opacity=".8" font-size="12.666px" xml:space="preserve" y="-546.05475" x="1831.8861" font-family="&apos;Bitstream Vera Sans&apos;" fill="#000000"><tspan id="tspan4089-7-2-9-1-8-8" y="-546.05475" x="1831.8861"/></text>
 <text id="text4087-2-6-5-5-5-8" opacity=".8" font-size="12.666px" xml:space="preserve" y="-586.79651" x="1855.8469" font-family="&apos;Bitstream Vera Sans&apos;" fill="#000000"><tspan id="tspan4089-7-2-9-6-9-6" y="-586.79651" x="1855.8469"/></text>
 <text id="text4087-2-6-5-75-8" opacity=".8" font-size="12.666px" xml:space="preserve" y="-594.00641" x="364.38376" font-family="&apos;Bitstream Vera Sans&apos;" fill="#000000"><tspan id="tspan4089-7-2-9-3-3" y="-594.00641" x="364.38376"/></text>
 <text id="text4087-2-6-5-4-8-8" opacity=".8" font-size="12.666px" xml:space="preserve" y="-867.24036" x="1824.9266" font-family="&apos;Bitstream Vera Sans&apos;" fill="#000000"><tspan id="tspan4089-7-2-9-9-8-3" y="-867.24036" x="1824.9266"/></text>
 <text id="text4087-2-6-5-45-33" opacity=".8" font-size="12.666px" xml:space="preserve" y="-642.09772" x="-573.43256" font-family="&apos;Bitstream Vera Sans&apos;" fill="#000000"><tspan id="tspan4089-7-2-9-75-8" y="-642.09772" x="-573.43256"/></text>
 <text id="text4087-2-6-5-59-7-0" opacity=".8" font-size="12.666px" xml:space="preserve" y="103.45585" x="-2397.1182" font-family="&apos;Bitstream Vera Sans&apos;" fill="#000000"><tspan id="tspan4089-7-2-9-4-0-4" y="103.45585" x="-2397.1182"/></text>
 <text id="text4087-2-6-5-8-7" opacity=".8" font-size="12.666px" xml:space="preserve" y="196.32799" x="-682.36279" font-family="&apos;Bitstream Vera Sans&apos;" fill="#000000"><tspan id="tspan4089-7-2-9-19-6" y="196.32799" x="-682.36279"/></text>
 <text id="text4087-2-6-5-7-5-8" opacity=".8" font-size="12.666px" xml:space="preserve" y="17.14584" x="426.66153" font-family="&apos;Bitstream Vera Sans&apos;" fill="#000000"><tspan id="tspan4089-7-2-9-1-2-9" y="17.14584" x="426.66153"/></text>
 <text id="text4087-2-6-5-5-0-0" opacity=".8" font-size="12.666px" xml:space="preserve" y="-23.595865" x="450.62247" font-family="&apos;Bitstream Vera Sans&apos;" fill="#000000"><tspan id="tspan4089-7-2-9-6-2-6" y="-23.595865" x="450.62247"/></text>
 <text id="text4087-2-6-5-26-8" opacity=".8" font-size="12.666px" xml:space="preserve" y="-30.805836" x="-1040.8407" font-family="&apos;Bitstream Vera Sans&apos;" fill="#000000"><tspan id="tspan4089-7-2-9-90-7" y="-30.805836" x="-1040.8407"/></text>
 <text id="text4087-2-6-5-4-3-9" opacity=".8" font-size="12.666px" xml:space="preserve" y="-304.03989" x="419.70206" font-family="&apos;Bitstream Vera Sans&apos;" fill="#000000"><tspan id="tspan4089-7-2-9-9-5-0" y="-304.03989" x="419.70206"/></text>
 <text id="text4087-2-6-5-55-3" opacity=".8" font-size="12.666px" xml:space="preserve" y="-33.520081" x="-608.03253" font-family="&apos;Bitstream Vera Sans&apos;" fill="#000000"><tspan id="tspan4089-7-2-9-32-3" y="-33.520081" x="-608.03253"/></text>
 <text id="text4087-2-6-5-59-9-3" opacity=".8" font-size="12.666px" xml:space="preserve" y="712.03345" x="-2431.7185" font-family="&apos;Bitstream Vera Sans&apos;" fill="#000000"><tspan id="tspan4089-7-2-9-4-1-7" y="712.03345" x="-2431.7185"/></text>
 <text id="text4087-2-6-5-1-8-3" opacity=".8" font-size="12.666px" xml:space="preserve" y="-895.0506" x="-456.93948" font-family="&apos;Bitstream Vera Sans&apos;" fill="#000000"><tspan id="tspan4089-7-2-9-7-8-2" y="-895.0506" x="-456.93948"/></text>
 <text id="text4087-2-6-5-7-8-6" opacity=".8" font-size="12.666px" xml:space="preserve" y="-1308.5208" x="350.66266" font-family="&apos;Bitstream Vera Sans&apos;" fill="#000000"><tspan id="tspan4089-7-2-9-1-9-5" y="-1308.5208" x="350.66266"/></text>
 <text id="text4087-2-6-5-5-52-2" opacity=".8" font-size="12.666px" xml:space="preserve" y="-1349.2626" x="374.62357" font-family="&apos;Bitstream Vera Sans&apos;" fill="#000000"><tspan id="tspan4089-7-2-9-6-4-6" y="-1349.2626" x="374.62357"/></text>
 <text id="text4087-2-6-5-3-4-5" opacity=".8" font-size="12.666px" xml:space="preserve" y="-1356.4724" x="-1116.8396" font-family="&apos;Bitstream Vera Sans&apos;" fill="#000000"><tspan id="tspan4089-7-2-9-18-3-8" y="-1356.4724" x="-1116.8396"/></text>
 <text id="text4087-2-6-5-4-7-7" opacity=".8" font-size="12.666px" xml:space="preserve" y="-1629.7065" x="343.70316" font-family="&apos;Bitstream Vera Sans&apos;" fill="#000000"><tspan id="tspan4089-7-2-9-9-54-9" y="-1629.7065" x="343.70316"/></text>
 <text id="text4087-2-6-5-7-1-2-6" opacity=".8" font-size="12.666px" xml:space="preserve" y="-1003.0153" x="1829.8265" font-family="&apos;Bitstream Vera Sans&apos;" fill="#000000"><tspan id="tspan4089-7-2-9-1-8-0-0" y="-1003.0153" x="1829.8265"/></text>
 <text id="text4087-2-6-5-5-5-6-4" opacity=".8" font-size="12.666px" xml:space="preserve" y="-1043.757" x="1853.7874" font-family="&apos;Bitstream Vera Sans&apos;" fill="#000000"><tspan id="tspan4089-7-2-9-6-9-8-1" y="-1043.757" x="1853.7874"/></text>
 <text id="text4087-2-6-5-75-4-0" opacity=".8" font-size="12.666px" xml:space="preserve" y="-1050.9668" x="362.32431" font-family="&apos;Bitstream Vera Sans&apos;" fill="#000000"><tspan id="tspan4089-7-2-9-3-9-4" y="-1050.9668" x="362.32431"/></text>
 <text id="text4087-2-6-5-4-8-1-8" opacity=".8" font-size="12.666px" xml:space="preserve" y="-1324.2009" x="1822.8671" font-family="&apos;Bitstream Vera Sans&apos;" fill="#000000"><tspan id="tspan4089-7-2-9-9-8-8-7" y="-1324.2009" x="1822.8671"/></text>
 <text id="text4087-2-6-5-45-0-0" opacity=".8" font-size="12.666px" xml:space="preserve" y="-1099.0581" x="-575.492" font-family="&apos;Bitstream Vera Sans&apos;" fill="#000000"><tspan id="tspan4089-7-2-9-75-2-8" y="-1099.0581" x="-575.492"/></text>
 <text id="text4087-2-6-5-59-5-6" opacity=".8" font-size="12.666px" xml:space="preserve" y="-353.50461" x="-2399.1777" font-family="&apos;Bitstream Vera Sans&apos;" fill="#000000"><tspan id="tspan4089-7-2-9-4-00-2" y="-353.50461" x="-2399.1777"/></text>
 <text id="text4087-2-6-5-264-4" opacity=".8" font-size="12.666px" xml:space="preserve" y="-260.63245" x="-684.42224" font-family="&apos;Bitstream Vera Sans&apos;" fill="#000000"><tspan id="tspan4089-7-2-9-8-7" y="-260.63245" x="-684.42224"/></text>
 <text id="text4087-2-6-5-42-9" opacity=".8" font-size="12.666px" xml:space="preserve" y="-19.71829" x="155.5923" font-family="&apos;Bitstream Vera Sans&apos;" fill="#000000"><tspan id="tspan4089-7-2-9-93-3" y="-19.71829" x="155.5923"/></text>
 <text id="text4087-2-6-5-5-05-9" opacity=".8" font-size="12.666px" xml:space="preserve" y="-60.460011" x="179.55324" font-family="&apos;Bitstream Vera Sans&apos;" fill="#000000"><tspan id="tspan4089-7-2-9-6-49-2" y="-60.460011" x="179.55324"/></text>
 <text id="text4087-2-6-5-1-4-8" opacity=".8" font-size="12.666px" xml:space="preserve" y="-254.4886" x="-1090.2634" font-family="&apos;Bitstream Vera Sans&apos;" fill="#000000"><tspan id="tspan4089-7-2-9-7-7-3" y="-254.4886" x="-1090.2634"/></text>
 <text id="text4087-2-6-5-7-56-0" opacity=".8" font-size="12.666px" xml:space="preserve" y="-667.9588" x="-282.66141" font-family="&apos;Bitstream Vera Sans&apos;" fill="#000000"><tspan id="tspan4089-7-2-9-1-1-1" y="-667.9588" x="-282.66141"/></text>
 <text id="text4087-2-6-5-5-8-7" opacity=".8" font-size="12.666px" xml:space="preserve" y="-708.7005" x="-258.70047" font-family="&apos;Bitstream Vera Sans&apos;" fill="#000000"><tspan id="tspan4089-7-2-9-6-7-8" y="-708.7005" x="-258.70047"/></text>
 <text id="text4087-2-6-5-3-42-9" opacity=".8" font-size="12.666px" xml:space="preserve" y="-715.91046" x="-1750.1636" font-family="&apos;Bitstream Vera Sans&apos;" fill="#000000"><tspan id="tspan4089-7-2-9-18-39-1" y="-715.91046" x="-1750.1636"/></text>
 <text id="text4087-2-6-5-4-4-5" opacity=".8" font-size="12.666px" xml:space="preserve" y="-989.14447" x="-289.62085" font-family="&apos;Bitstream Vera Sans&apos;" fill="#000000"><tspan id="tspan4089-7-2-9-9-3-4" y="-989.14447" x="-289.62085"/></text>
 <text id="text4087-2-6-5-7-1-0-9" opacity=".8" font-size="12.666px" xml:space="preserve" y="-362.45316" x="1196.5026" font-family="&apos;Bitstream Vera Sans&apos;" fill="#000000"><tspan id="tspan4089-7-2-9-1-8-5-2" y="-362.45316" x="1196.5026"/></text>
 <text id="text4087-2-6-5-5-5-5-5" opacity=".8" font-size="12.666px" xml:space="preserve" y="-403.19489" x="1220.4634" font-family="&apos;Bitstream Vera Sans&apos;" fill="#000000"><tspan id="tspan4089-7-2-9-6-9-2-7" y="-403.19489" x="1220.4634"/></text>
 <text id="text4087-2-6-5-75-9-4" opacity=".8" font-size="12.666px" xml:space="preserve" y="-410.40482" x="-270.99973" font-family="&apos;Bitstream Vera Sans&apos;" fill="#000000"><tspan id="tspan4089-7-2-9-3-1-9" y="-410.40482" x="-270.99973"/></text>
 <text id="text4087-2-6-5-4-8-18-9" opacity=".8" font-size="12.666px" xml:space="preserve" y="-683.63892" x="1189.5431" font-family="&apos;Bitstream Vera Sans&apos;" fill="#000000"><tspan id="tspan4089-7-2-9-9-8-4-4" y="-683.63892" x="1189.5431"/></text>
 <text id="text4087-2-6-5-45-3-5" opacity=".8" font-size="12.666px" xml:space="preserve" y="-458.49609" x="-1208.816" font-family="&apos;Bitstream Vera Sans&apos;" fill="#000000"><tspan id="tspan4089-7-2-9-75-7-9" y="-458.49609" x="-1208.816"/></text>
 <text id="text4087-2-6-5-59-8-3" opacity=".8" font-size="12.666px" xml:space="preserve" y="287.05743" x="-3032.5017" font-family="&apos;Bitstream Vera Sans&apos;" fill="#000000"><tspan id="tspan4089-7-2-9-4-2-5" y="287.05743" x="-3032.5017"/></text>
 <g id="layer4-0-7" transform="matrix(.90475 0 0 .90475 -716.75 -669.05)">
  <text id="text4087-2-6-5-20-0" opacity=".8" font-size="14px" xml:space="preserve" y="1159.4154" x="-664.2738" font-family="&apos;Bitstream Vera Sans&apos;" fill="#000000"><tspan id="tspan4089-7-2-9-82-8" y="1159.4154" x="-664.2738"/></text>
 </g>
 <text id="text7276" font-size="12.666px" xml:space="preserve" y="-361.22546" x="435.90427" font-family="&apos;Droid Sans&apos;" fill="#000000"><tspan id="tspan7278" y="-361.22546" x="435.90427"/><tspan id="tspan7280" y="-345.3924" x="435.90427"/></text>
 <text id="text4087-2-6-5-51" opacity=".8" font-size="12.666px" xml:space="preserve" y="-843.27002" x="901.0882" font-family="&apos;Bitstream Vera Sans&apos;" fill="#000000"><tspan id="tspan4089-7-2-9-97" y="-843.27002" x="901.0882"/></text>
 <text id="text4087-2-6-5-59-2" opacity=".8" font-size="12.666px" xml:space="preserve" y="-97.716553" x="-922.59778" font-family="&apos;Bitstream Vera Sans&apos;" fill="#000000"><tspan id="tspan4089-7-2-9-4-4" y="-97.716553" x="-922.59778"/></text>
 <text id="text4087-2-6-5-7-7" opacity=".8" font-size="12.666px" xml:space="preserve" y="-1128.2659" x="1628.1677" font-family="&apos;Bitstream Vera Sans&apos;" fill="#000000"><tspan id="tspan4089-7-2-9-1-6" y="-1128.2659" x="1628.1677"/></text>
 <text id="text4087-2-6-5-5-6" opacity=".8" font-size="12.666px" xml:space="preserve" y="-1169.0076" x="1652.1285" font-family="&apos;Bitstream Vera Sans&apos;" fill="#000000"><tspan id="tspan4089-7-2-9-6-53" y="-1169.0076" x="1652.1285"/></text>
 <text id="text4087-2-6-5-54" opacity=".8" font-size="12.666px" xml:space="preserve" y="-1176.2175" x="160.66542" font-family="&apos;Bitstream Vera Sans&apos;" fill="#000000"><tspan id="tspan4089-7-2-9-0" y="-1176.2175" x="160.66542"/></text>
 <text id="text4087-2-6-5-4-1" opacity=".8" font-size="12.666px" xml:space="preserve" y="-1449.4517" x="1621.2083" font-family="&apos;Bitstream Vera Sans&apos;" fill="#000000"><tspan id="tspan4089-7-2-9-9-28" y="-1449.4517" x="1621.2083"/></text>
 <path id="path2445" d="m24 4c-11.045 0-20 8.954-20 20s8.955 20 20 20 20-8.954 20-20-8.955-20-20-20zm0.0958 2.7698c9.5165 0 17.238 7.7147 17.238 17.23 0 9.5165-7.722 17.23-17.238 17.23-5.1386 0-9.7495-2.2521-12.906-5.8195 1.2979-1.0073 3.4694-0.76157 6.1436-0.45672 1.2816 0.1458 2.7425 0.31258 4.2505 0.34622 4.2128 0.0245 8.7456-0.7444 11.543-1.9668 1.8087-0.79321 2.9667-1.3156 3.6906-1.9742 0.26101-0.2141 0.39807-0.57178 0.53775-0.9429l0.0958-0.25046c0.11725-0.29975 0.28551-0.94476 0.36095-1.2965 0.0336-0.15396 0.0502-0.31952-0.0589-0.40516l-0.39042 0.0737c-1.2276 0.73612-4.2945 2.1381-7.1676 2.1952-3.5603 0.0744-10.736-3.5841-11.484-3.9705l-0.0737-0.0884c-0.17944-0.42821-1.2533-2.9775-1.4807-3.5138 5.1651 3.4012 9.4473 5.2838 12.729 5.5764 3.649 0.32422 6.4954-1.668 7.7127-2.5193 0.23756-0.16211 0.41913-0.28923 0.49356-0.31676l0.081-0.1326c-0.203-1.283-2.117-7.489-3.559-8.98-0.4-0.409-0.717-0.806-1.363-1.186-5.218-3.041-17.607-4.873-18.188-4.957l-0.0958 0.02947-0.0368 0.08103s-0.0465 2.5727-0.0516 2.8582c-0.42515-0.1407-1.7435-0.5723-3.6317-1.0902 2.4637-3.0485 6.2394-5.7532 12.847-5.7532zm4.5525 9.1197c0.0879-0.0013 0.17668-0.0029 0.26519 0 2.9231 0.10501 5.2196 2.567 5.1197 5.488-0.052 1.4131-0.64777 2.7187-1.6796 3.6832-1.0348 0.9696-2.3798 1.475-3.8011 1.4291-2.918-0.10909-5.2145-2.5711-5.1197-5.488 0.05-1.4151 0.64902-2.7292 1.6869-3.6906 0.96922-0.909 2.2097-1.4019 3.5286-1.4217zm-0.13996 1.5617c-0.85131 0.05176-1.6547 0.39742-2.2836 0.98711-0.71675 0.67291-1.1397 1.584-1.1713 2.5709-0.0673 2.0391 1.5283 3.7551 3.5654 3.8306 0.98999 0.0306 1.9291-0.31624 2.6519-0.98711 0.72082-0.67597 1.1407-1.5954 1.1713-2.5783 0.0683-2.0422-1.5346-3.7518-3.5727-3.8232-0.12337-0.0046-0.23935-0.0074-0.36096 0zm0.97237 1.849c0.90537 0 1.6354 0.49199 1.6354 1.0976 0 0.60256-0.72999 1.0976-1.6354 1.0976-0.90842 0-1.6427-0.49607-1.6427-1.0976 0-0.60562 0.7343-1.0976 1.6427-1.0976z" fill="#6eaa36"/>
 <path id="path4752" opacity=".3" d="m24.096 5.7695c-6.608 0-10.384 2.7055-12.848 5.7535 0.28 0.077 0.447 0.131 0.701 0.204 2.468-2.706 6.125-4.9575 12.147-4.9575 9.347 0 16.945 7.4485 17.213 16.73 0.004-0.168 0.025-0.331 0.025-0.5 0-9.516-7.722-17.23-17.238-17.23zm4.552 9.1195c-1.318 0.019-2.56 0.513-3.529 1.422-1.038 0.961-1.635 2.276-1.685 3.691-0.008 0.23 0.004 0.456 0.025 0.68 0.123-1.292 0.701-2.483 1.66-3.371 0.969-0.909 2.211-1.403 3.529-1.422 0.088-0.002 0.178-0.003 0.266 0 2.691 0.096 4.843 2.192 5.092 4.802 0.01-0.104 0.023-0.208 0.027-0.314 0.1-2.921-2.196-5.383-5.119-5.488-0.088-0.003-0.178-0.002-0.266 0zm0.832 3.412c-0.908 0-1.642 0.492-1.642 1.097 0 0.181 0.073 0.348 0.189 0.498 0.273-0.352 0.817-0.595 1.453-0.595 0.635 0 1.179 0.244 1.45 0.597 0.116-0.15 0.185-0.319 0.185-0.5 0-0.605-0.729-1.097-1.635-1.097zm2.918 2.308c-0.105 0.854-0.489 1.647-1.127 2.245-0.722 0.67-1.662 1.016-2.652 0.986-1.812-0.067-3.267-1.434-3.521-3.17-0.015 0.113-0.042 0.224-0.045 0.34-0.068 2.039 1.529 3.754 3.566 3.83 0.99 0.03 1.93-0.316 2.652-0.986 0.721-0.676 1.14-1.598 1.17-2.581 0.008-0.227-0.01-0.446-0.043-0.664zm-15.242 1.551c0.089 0.209 0.335 0.792 0.576 1.365 4.905 3.162 8.997 4.93 12.155 5.211 3.649 0.325 6.493-1.668 7.711-2.519 0.237-0.162 0.419-0.289 0.494-0.317l0.082-0.132c-0.023-0.147-0.137-0.531-0.201-0.791-0.094 0.054-0.195 0.117-0.375 0.24-1.218 0.851-4.062 2.844-7.711 2.519-3.282-0.292-7.566-2.175-12.731-5.576zm-13.144 1.34c-0.0041 0.167-0.0117 0.332-0.0117 0.5 0 11.046 8.955 20 20 20s20-8.954 20-20c0-0.168-0.008-0.333-0.012-0.5-0.266 10.814-9.111 19.5-19.988 19.5s-19.722-8.686-19.988-19.5zm33.742 4.965l-0.113 0.021c-0.069 0.255-0.128 0.523-0.19 0.68l-0.096 0.25c-0.139 0.371-0.276 0.729-0.537 0.943-0.724 0.659-1.882 1.182-3.691 1.975-2.798 1.222-7.33 1.991-11.543 1.967-1.508-0.034-2.968-0.202-4.25-0.348-2.674-0.305-4.847-0.55-6.145 0.457 0.199 0.225 0.419 0.429 0.629 0.643 1.32-0.57 3.232-0.36 5.516-0.1 1.282 0.146 2.742 0.314 4.25 0.348 4.213 0.024 8.745-0.745 11.543-1.967 1.809-0.793 2.967-1.316 3.691-1.975 0.261-0.214 0.398-0.572 0.537-0.943l0.096-0.25c0.117-0.3 0.286-0.945 0.361-1.297 0.034-0.154 0.051-0.319-0.058-0.404z"/>
 <path id="path4757" opacity=".2" fill="#fff" d="m24 4c-11.045 0-20 8.954-20 20 0 0.168 0.0076 0.333 0.0117 0.5 0.2662-10.814 9.1113-19.5 19.988-19.5s19.722 8.686 19.988 19.5c0.004-0.167 0.012-0.332 0.012-0.5 0-11.046-8.955-20-20-20zm-8.936 6.645l-0.095 0.029-0.037 0.082s-0.046 2.572-0.051 2.857c-0.362-0.12-1.473-0.471-2.932-0.886-0.24 0.263-0.482 0.526-0.701 0.796 1.888 0.518 3.208 0.95 3.633 1.09 0.005-0.285 0.051-2.857 0.051-2.857l0.037-0.082 0.095-0.029c0.581 0.084 12.97 1.915 18.188 4.957 0.645 0.379 0.964 0.778 1.363 1.187 1.277 1.321 2.858 6.167 3.358 8.188 0.029-0.018 0.101-0.07 0.119-0.077l0.082-0.132c-0.202-1.283-2.117-7.488-3.559-8.979-0.399-0.409-0.718-0.808-1.363-1.187-5.218-3.042-17.607-4.873-18.188-4.957zm13.444 6.806c-0.851 0.052-1.654 0.397-2.283 0.987-0.717 0.672-1.141 1.585-1.172 2.572-0.008 0.225 0.013 0.444 0.045 0.66 0.107-0.854 0.494-1.638 1.127-2.232 0.629-0.59 1.432-0.935 2.283-0.987 0.121-0.007 0.238-0.004 0.361 0 1.811 0.064 3.273 1.424 3.529 3.158 0.014-0.112 0.04-0.221 0.043-0.336 0.069-2.042-1.534-3.75-3.572-3.822-0.123-0.004-0.24-0.007-0.361 0zm-0.481 3.445c-0.117 0.151-0.189 0.321-0.189 0.502 0 0.602 0.734 1.098 1.642 1.098 0.906 0 1.635-0.495 1.635-1.098 0-0.18-0.07-0.349-0.185-0.5-0.272 0.353-0.815 0.598-1.45 0.598-0.636 0-1.18-0.247-1.453-0.6zm-4.568 0.786c-0.01 0.106-0.022 0.212-0.025 0.32-0.095 2.917 2.201 5.379 5.119 5.488 1.421 0.046 2.766-0.46 3.801-1.429 1.031-0.965 1.627-2.271 1.679-3.684 0.008-0.232-0.006-0.46-0.027-0.686-0.123 1.292-0.698 2.477-1.652 3.37-1.035 0.969-2.38 1.475-3.801 1.429-2.688-0.1-4.844-2.199-5.094-4.808zm-6.303 2.478c0.228 0.536 1.301 3.086 1.481 3.514l0.074 0.088c0.748 0.386 7.924 4.045 11.484 3.97 2.873-0.057 5.941-1.459 7.168-2.195l0.278-0.051c0.062-0.231 0.136-0.449 0.171-0.617 0.034-0.154 0.051-0.319-0.058-0.404l-0.391 0.072c-1.227 0.736-4.295 2.138-7.168 2.195-3.56 0.075-10.736-3.584-11.484-3.97l-0.074-0.088c-0.11-0.262-0.524-1.246-0.905-2.149-0.193-0.124-0.38-0.236-0.576-0.365zm24.153 0.34c-0.268 9.283-7.867 16.73-17.213 16.73-4.815 0-9.152-1.993-12.278-5.177-0.225 0.097-0.439 0.21-0.629 0.357 3.157 3.568 7.768 5.82 12.907 5.82 9.515 0 17.238-7.713 17.238-17.23 0-0.169-0.021-0.332-0.025-0.5z"/>
</svg>
