<?xml version="1.0" encoding="UTF-8" standalone="no"?>
<!-- Created with Inkscape (http://www.inkscape.org/) -->

<svg
   xmlns:dc="http://purl.org/dc/elements/1.1/"
   xmlns:cc="http://creativecommons.org/ns#"
   xmlns:rdf="http://www.w3.org/1999/02/22-rdf-syntax-ns#"
   xmlns:svg="http://www.w3.org/2000/svg"
   xmlns="http://www.w3.org/2000/svg"
   xmlns:xlink="http://www.w3.org/1999/xlink"
   xmlns:sodipodi="http://sodipodi.sourceforge.net/DTD/sodipodi-0.dtd"
   xmlns:inkscape="http://www.inkscape.org/namespaces/inkscape"
   width="48"
   height="48"
   viewBox="0 0 48.000001 48.000001"
   id="svg4468"
   version="1.1"
   inkscape:version="0.91 r13725"
   sodipodi:docname="tvtime.svg">
  <defs
     id="defs4470">
    <linearGradient
       inkscape:collect="always"
       id="linearGradient5340">
      <stop
         style="stop-color:#000000;stop-opacity:1;"
         offset="0"
         id="stop5342" />
      <stop
         style="stop-color:#000000;stop-opacity:0;"
         offset="1"
         id="stop5344" />
    </linearGradient>
    <linearGradient
       inkscape:collect="always"
       xlink:href="#linearGradient5340"
       id="linearGradient5346"
       x1="24.19817"
       y1="1026.2128"
       x2="23.878048"
       y2="1010.4354"
       gradientUnits="userSpaceOnUse" />
  </defs>
  <sodipodi:namedview
     id="base"
     pagecolor="#ffffff"
     bordercolor="#666666"
     borderopacity="1.0"
     inkscape:pageopacity="0.0"
     inkscape:pageshadow="2"
     inkscape:zoom="13.12"
     inkscape:cx="1.052058"
     inkscape:cy="21.686679"
     inkscape:document-units="px"
     inkscape:current-layer="layer1"
     showgrid="false"
     units="px"
     inkscape:window-width="1600"
     inkscape:window-height="843"
     inkscape:window-x="0"
     inkscape:window-y="31"
     inkscape:window-maximized="1" />
  <metadata
     id="metadata4473">
    <rdf:RDF>
      <cc:Work
         rdf:about="">
        <dc:format>image/svg+xml</dc:format>
        <dc:type
           rdf:resource="http://purl.org/dc/dcmitype/StillImage" />
        <dc:title />
      </cc:Work>
    </rdf:RDF>
  </metadata>
  <g
     inkscape:label="Layer 1"
     inkscape:groupmode="layer"
     id="layer1"
     transform="translate(0,-1004.3622)">
    <rect
       style="fill:#7e7e7e"
       x="-1046.3622"
       y="-36"
       width="32"
       height="24"
       transform="matrix(0,-1,-1,0,0,0)"
       rx="2"
       ry="2"
       id="rect4777" />
    <rect
       style="fill:#757575"
       x="-1042.3622"
       y="-44"
       width="32"
       height="40"
       ry="2"
       rx="2"
       transform="matrix(0,-1,-1,0,0,0)"
       id="rect4203-7" />
    <rect
       style="fill:#464646;fill-opacity:1"
       x="-1039.3622"
       y="-41"
       width="26"
       height="34"
       transform="matrix(0,-1,-1,0,0,0)"
       rx="0"
       ry="0"
       id="rect3282" />
    <path
       style="opacity:0.8;fill:#ffffff;fill-opacity:1;stroke:none;stroke-width:1;stroke-linecap:round;stroke-linejoin:round;stroke-miterlimit:4;stroke-dasharray:none;stroke-opacity:1"
       d="m 11,1018.3622 0,4 4,0 0,12 4,0 0,-12 4,0 0,-4 -4,0 -4,0 z m 14,0 3,16 6,0 3,-16 -4,0 -2,10.666 -2,-10.666 z"
       id="rect4360"
       inkscape:connector-curvature="0"
       sodipodi:nodetypes="ccccccccccccccccccc" />
    <path
       inkscape:connector-curvature="0"
       style="opacity:0.1;fill:url(#linearGradient5346);fill-opacity:1"
       d="m 4,1012.3622 c 0,-1.108 0.892,-2 2,-2 l 36,0 c 1.108,0 2,0.892 2,2 l 0,14 -40,0 z"
       id="path4294" />
    <path
       style="opacity:0.2;fill:#ffffff"
       inkscape:connector-curvature="0"
       d="m 6,1010.3622 c -1.108,0 -2,0.892 -2,2 l 0,1 c 0,-1.108 0.892,-2 2,-2 l 36,0 c 1.108,0 2,0.892 2,2 l 0,-1 c 0,-1.108 -0.892,-2 -2,-2 l -36,0 z"
       id="rect4414" />
    <path
       style="opacity:0.3"
       inkscape:connector-curvature="0"
       d="m 12,1043.3622 0,1 c 0,1.108 0.892,2 2,2 l 20,0 c 1.108,0 2,-0.892 2,-2 l 0,-1 c 0,1.108 -0.892,2 -2,2 l -20,0 c -1.108,0 -2,-0.892 -2,-2 z"
       id="rect4779" />
    <path
       style="opacity:0.3"
       inkscape:connector-curvature="0"
       d="m 4,1039.3622 0,1 c 0,1.108 0.892,2 2,2 l 36,0 c 1.108,0 2,-0.892 2,-2 l 0,-1 c 0,1.108 -0.892,2 -2,2 l -36,0 c -1.108,0 -2,-0.892 -2,-2 z"
       id="rect4077" />
  </g>
</svg>
