<?xml version="1.0" encoding="UTF-8" standalone="no"?>
<!-- Created with Inkscape (http://www.inkscape.org/) -->
<svg id="svg2" xmlns:rdf="http://www.w3.org/1999/02/22-rdf-syntax-ns#" xmlns="http://www.w3.org/2000/svg" height="48" width="48" version="1.1" xmlns:cc="http://creativecommons.org/ns#" xmlns:dc="http://purl.org/dc/elements/1.1/" viewBox="0 0 48 48.000001">
 <metadata id="metadata7">
  <rdf:RDF>
   <cc:Work rdf:about="">
    <dc:format>image/svg+xml</dc:format>
    <dc:type rdf:resource="http://purl.org/dc/dcmitype/StillImage"/>
    <dc:title/>
   </cc:Work>
  </rdf:RDF>
 </metadata>
 <g id="layer1" transform="translate(0 -1004.4)">
  <path id="path4750" fill="#eec464" d="m10 1008.4c-1.108 0-2 0.892-2 2v36c0 1.108 0.892 2 2 2h28c1.108 0 2-0.892 2-2v-26l-11-1-1-11z"/>
  <path id="path4752" opacity=".2" fill="#fff" d="m10 1008.4c-1.108 0-2 0.892-2 2v1c0-1.108 0.892-2 2-2h18l11 11h1l-12-12z"/>
  <path id="path4756" fill="#f8f8a8" d="m28 1008.4v10c0 1.1046 0.89543 2 2 2h10l-12-12z"/>
  <path id="path4435" fill="#2a2a2a" d="m24 1033.6 7.727-2.071 2.071 7.727-7.727 2.071z"/>
  <path id="path4437" fill="#2a2a2a" d="m24.417 1023.5 1.155 3.4158 1.155 3.415-3.863-1.035-3.864-1.036 2.708-2.3797z"/>
  <path id="path4439" fill="#2a2a2a" d="m23 1034.4a4 4 0 0 1 -4 4 4 4 0 0 1 -4 -4 4 4 0 0 1 4 -4 4 4 0 0 1 4 4z"/>
 </g>
</svg>
