<?xml version="1.0" encoding="UTF-8" standalone="no"?>
<!-- Created with Inkscape (http://www.inkscape.org/) -->

<svg
   xmlns:dc="http://purl.org/dc/elements/1.1/"
   xmlns:cc="http://creativecommons.org/ns#"
   xmlns:rdf="http://www.w3.org/1999/02/22-rdf-syntax-ns#"
   xmlns:svg="http://www.w3.org/2000/svg"
   xmlns="http://www.w3.org/2000/svg"
   xmlns:sodipodi="http://sodipodi.sourceforge.net/DTD/sodipodi-0.dtd"
   xmlns:inkscape="http://www.inkscape.org/namespaces/inkscape"
   width="48"
   height="48"
   viewBox="0 0 48 48.000001"
   id="svg2"
   version="1.1"
   inkscape:version="0.91 r"
   sodipodi:docname="application-x-plasma.svg">
  <defs
     id="defs4" />
  <sodipodi:namedview
     id="base"
     pagecolor="#ffffff"
     bordercolor="#666666"
     borderopacity="1.0"
     inkscape:pageopacity="0.0"
     inkscape:pageshadow="2"
     inkscape:zoom="1"
     inkscape:cx="18.863114"
     inkscape:cy="26.721183"
     inkscape:document-units="px"
     inkscape:current-layer="layer1"
     showgrid="false"
     units="px"
     inkscape:window-width="1600"
     inkscape:window-height="843"
     inkscape:window-x="-4"
     inkscape:window-y="31"
     inkscape:window-maximized="1" />
  <metadata
     id="metadata7">
    <rdf:RDF>
      <cc:Work
         rdf:about="">
        <dc:format>image/svg+xml</dc:format>
        <dc:type
           rdf:resource="http://purl.org/dc/dcmitype/StillImage" />
        <dc:title />
      </cc:Work>
    </rdf:RDF>
  </metadata>
  <g
     inkscape:label="Layer 1"
     inkscape:groupmode="layer"
     id="layer1"
     transform="translate(0,-1004.3622)">
    <path
       id="path4750"
       d="m 10,1008.3622 c -1.108,0 -2,0.892 -2,2 l 0,36 c 0,1.108 0.892,2 2,2 l 28,0 c 1.108,0 2,-0.892 2,-2 l 0,-26 -11,-1 -1,-11 z"
       style="fill:#dfac49;fill-opacity:1"
       inkscape:connector-curvature="0" />
    <path
       id="path4752"
       d="m 10,1008.3622 c -1.108,0 -2,0.892 -2,2 l 0,1 c 0,-1.108 0.892,-2 2,-2 l 18,0 11,11 1,0 -12,-12 z"
       inkscape:connector-curvature="0"
       style="opacity:0.2;fill:#ffffff" />
    <path
       id="path4756"
       d="m 28,1008.3622 0,10 c 0,1.1046 0.89543,2 2,2 l 10,0 -12,-12 z"
       style="fill:#f5cc7c;fill-opacity:1"
       inkscape:connector-curvature="0" />
    <g
       id="g11802"
       transform="translate(50.999422,1007.2624)"
       style="opacity:1;fill:#ffffff;fill-opacity:1">
      <g
         transform="matrix(-0.062784,0,0,-0.062981,-19.4334,34.183)"
         id="g4438"
         style="fill:#ffffff;fill-opacity:1">
        <g
           id="Layer_5_17_"
           style="fill:#ffffff;fill-opacity:1">
          <g
             id="g4441"
             style="fill:#ffffff;fill-opacity:1">
            <path
               transform="matrix(11.498,0,0,11.498,-135.83,-118.41)"
               d="m 20.314,12.539 c -0.83567,0.7607 -1.5166,1.6303 -1.7871,2.8809 -0.53798,2.4879 0.77013,5.9992 6.0527,8.3926 4.9711,2.2523 5.9094,5.5908 5.2031,7.7656 -0.71244,2.1934 -3.3358,4.1732 -7.4102,3.3359 -0.43517,-0.09181 -0.86438,-0.21026 -1.2891,-0.35156 1.0881,0.73142 4.0872,1.2861 6.068,0.79777 3.7616,-0.92745 7.5687,-2.6789 9.4984,-6.6982 2.9574,-6.5276 0.05302,-14.246 -6.4746,-17.203 -3.6091,-1.6034 -7.0252,-1.4532 -9.8613,1.0801 z"
               id="path4443"
               inkscape:connector-curvature="0"
               style="fill:#ffffff;fill-opacity:1" />
          </g>
        </g>
      </g>
      <path
         d="m -21.4004,18 a 2.1,2.1 0 0 1 -2.1,2.1 2.1,2.1 0 0 1 -2.1,-2.1 2.1,2.1 0 0 1 2.1,-2.1 2.1,2.1 0 0 1 2.1,2.1 z"
         id="path4514"
         inkscape:connector-curvature="0"
         style="fill:#ffffff;fill-opacity:1" />
      <path
         d="m -17.2004,20.8 a 2.1,2.1 0 0 1 -2.1,2.1 2.1,2.1 0 0 1 -2.1,-2.1 2.1,2.1 0 0 1 2.1,-2.1 2.1,2.1 0 0 1 2.1,2.1 z"
         id="path4517"
         inkscape:connector-curvature="0"
         style="fill:#ffffff;fill-opacity:1" />
      <path
         d="m -15.8004,25.7 a 2.1,2.1 0 0 1 -2.1,2.1 2.1,2.1 0 0 1 -2.1,-2.1 2.1,2.1 0 0 1 2.1,-2.1 2.1,2.1 0 0 1 2.1,2.1 z"
         id="path4519"
         inkscape:connector-curvature="0"
         style="fill:#ffffff;fill-opacity:1" />
    </g>
  </g>
</svg>
