<?xml version="1.0" encoding="UTF-8" standalone="no"?>
<!-- Created with Inkscape (http://www.inkscape.org/) -->

<svg
   xmlns:dc="http://purl.org/dc/elements/1.1/"
   xmlns:cc="http://creativecommons.org/ns#"
   xmlns:rdf="http://www.w3.org/1999/02/22-rdf-syntax-ns#"
   xmlns:svg="http://www.w3.org/2000/svg"
   xmlns="http://www.w3.org/2000/svg"
   xmlns:sodipodi="http://sodipodi.sourceforge.net/DTD/sodipodi-0.dtd"
   xmlns:inkscape="http://www.inkscape.org/namespaces/inkscape"
   width="48"
   height="48"
   viewBox="0 0 48.000001 48.000001"
   id="svg4358"
   version="1.1"
   inkscape:version="0.91 r"
   sodipodi:docname="application-x-javascript.svg">
  <defs
     id="defs4360">
    <clipPath
       id="clipPath4266-4"
       clipPathUnits="userSpaceOnUse">
      <path
         style="fill:#ffffff"
         inkscape:connector-curvature="0"
         id="path4268-0"
         d="m 146,240 c -1.108,0 -2,0.892 -2,2 l 0,36 c 0,1.108 0.892,2 2,2 l 28,0 c 1.108,0 2,-0.892 2,-2 l 0,-26 -12,-12 -18,0 z" />
    </clipPath>
    <filter
       id="filter4987"
       height="1.2229"
       width="1.26"
       y="-0.11143"
       x="-0.13">
      <feGaussianBlur
         id="feGaussianBlur4989"
         stdDeviation="0.65" />
    </filter>
  </defs>
  <sodipodi:namedview
     id="base"
     pagecolor="#ffffff"
     bordercolor="#666666"
     borderopacity="1.0"
     inkscape:pageopacity="0.0"
     inkscape:pageshadow="2"
     inkscape:zoom="0.35"
     inkscape:cx="-105"
     inkscape:cy="520"
     inkscape:document-units="px"
     inkscape:current-layer="layer1"
     showgrid="false"
     units="px"
     inkscape:window-width="1600"
     inkscape:window-height="842"
     inkscape:window-x="-4"
     inkscape:window-y="32"
     inkscape:window-maximized="1" />
  <metadata
     id="metadata4363">
    <rdf:RDF>
      <cc:Work
         rdf:about="">
        <dc:format>image/svg+xml</dc:format>
        <dc:type
           rdf:resource="http://purl.org/dc/dcmitype/StillImage" />
        <dc:title></dc:title>
      </cc:Work>
    </rdf:RDF>
  </metadata>
  <g
     inkscape:label="Layer 1"
     inkscape:groupmode="layer"
     id="layer1"
     transform="translate(0,-1004.3622)">
    <g
       transform="translate(-0.195,1004.7215)"
       id="g4351">
      <path
         inkscape:connector-curvature="0"
         transform="translate(-135.61,-237.72)"
         clip-path="url(#clipPath4266-4)"
         d="m 163.22,242.45 0,11 c 0,1.1046 0.89543,2 2,2 l 10,0 -1,-1 -10,-9 z"
         style="opacity:0.1;filter:url(#filter4987);enable-background:new"
         id="path4754" />
      <path
         inkscape:connector-curvature="0"
         style="fill:#e67d4a;fill-opacity:1"
         d="M 10,4 C 8.892,4 8,4.892 8,6 l 0,36 c 0,1.108 0.892,2 2,2 l 28,0 c 1.108,0 2,-0.892 2,-2 L 40,16 29,15 28,4 Z"
         id="path4750" />
      <path
         style="opacity:0.2;fill:#ffffff"
         inkscape:connector-curvature="0"
         d="M 10,4 C 8.892,4 8,4.892 8,6 L 8,7 C 8,5.892 8.892,5 10,5 L 28,5 39,16 40,16 28,4 Z"
         id="path4752" />
      <path
         inkscape:connector-curvature="0"
         style="fill:#e0c0b1;fill-opacity:1"
         d="m 28,4 0,10 c 0,1.1046 0.89543,2 2,2 L 40,16 28,4 Z"
         id="path4756" />
      <path
         inkscape:connector-curvature="0"
         id="path4364"
         d="m 19.064453,21.482422 a 1.0001,1.0001 0 0 0 -0.0957,0.002 1.0001,1.0001 0 0 0 -0.263672,0.05469 c 0,0 -0.62631,0.206336 -1.351562,0.587891 -0.725252,0.381555 -1.606752,0.916438 -2.173828,1.833985 -0.631167,1.021247 -0.391602,2.113778 -0.195313,2.767578 0.196289,0.653801 0.304352,0.939241 0.123047,1.376953 -0.08854,0.213761 -0.631003,0.68172 -1.22461,0.972656 C 13.289207,29.36906 12.75,29.521484 12.75,29.521484 A 1.0001,1.0001 0 0 0 12.035156,30.75 1.0001,1.0001 0 0 0 12.75,31.951172 c 0,0 0.539208,0.152424 1.132812,0.443359 0.593606,0.290935 1.136067,0.758896 1.22461,0.972657 0.181305,0.43771 0.07324,0.723153 -0.123047,1.376953 -0.196289,0.653801 -0.435853,1.746329 0.195313,2.767578 0.567076,0.917546 1.448576,1.452429 2.173828,1.833984 0.725252,0.381555 1.351562,0.587891 1.351562,0.587891 a 1.0001,1.0001 0 1 0 0.628906,-1.896485 c 0,0 -0.475882,-0.159511 -1.048828,-0.460937 -0.572946,-0.301427 -1.185704,-0.76666 -1.402344,-1.117188 -0.245052,-0.396503 -0.164642,-0.533694 0.01758,-1.140625 0.182218,-0.606931 0.511183,-1.614708 0.05469,-2.716797 -0.404279,-0.976015 -1.211124,-1.492707 -1.933594,-1.865234 0.72247,-0.372527 1.529315,-0.889217 1.933594,-1.865234 0.4565,-1.102087 0.127535,-2.109867 -0.05469,-2.716797 -0.182217,-0.606931 -0.262627,-0.744122 -0.01758,-1.140625 0.21664,-0.350529 0.829398,-0.815761 1.402344,-1.117188 0.572946,-0.301426 1.048828,-0.460937 1.048828,-0.460937 a 1.0001,1.0001 0 0 0 -0.269531,-1.953125 z m 9.931641,0 a 1.0001,1.0001 0 0 0 -0.265625,1.953125 c 0,0 0.475882,0.159511 1.048828,0.460937 0.572946,0.301427 1.185705,0.766659 1.402344,1.117188 0.245048,0.396503 0.164639,0.533694 -0.01758,1.140625 -0.182221,0.60693 -0.511187,1.61471 -0.05469,2.716797 0.404279,0.976017 1.211124,1.492707 1.933594,1.865234 -0.72247,0.372527 -1.529315,0.889219 -1.933594,1.865234 -0.456496,1.102089 -0.12753,2.109866 0.05469,2.716797 0.182222,0.606931 0.262631,0.744122 0.01758,1.140625 -0.216639,0.350528 -0.829398,0.815761 -1.402344,1.117188 -0.572946,0.301426 -1.048828,0.460937 -1.048828,0.460937 a 1.0001,1.0001 0 1 0 0.628906,1.896485 c 0,0 0.62631,-0.206336 1.351563,-0.587891 0.725252,-0.381555 1.606752,-0.916438 2.173828,-1.833984 0.631166,-1.021249 0.391601,-2.113777 0.195312,-2.767578 -0.196287,-0.6538 -0.304352,-0.939243 -0.123047,-1.376953 0.08854,-0.213761 0.631004,-0.681722 1.22461,-0.972657 0.593605,-0.290935 1.132812,-0.443359 1.132812,-0.443359 A 1.0001,1.0001 0 0 0 36.029297,30.75 1.0001,1.0001 0 0 0 35.314453,29.521484 c 0,0 -0.539207,-0.152424 -1.132812,-0.443359 -0.593606,-0.290936 -1.13607,-0.758895 -1.22461,-0.972656 -0.181305,-0.437712 -0.07324,-0.723152 0.123047,-1.376953 0.196289,-0.6538 0.435854,-1.746331 -0.195312,-2.767578 -0.567076,-0.917547 -1.448576,-1.45243 -2.173828,-1.833985 -0.725252,-0.381555 -1.351563,-0.587891 -1.351563,-0.587891 a 1.0001,1.0001 0 0 0 -0.263672,-0.05469 1.0001,1.0001 0 0 0 -0.0957,-0.002 1.0001,1.0001 0 0 0 -0.0039,0 z M 24,26 a 2,2 0 0 0 -2,2 2,2 0 0 0 2,2 2,2 0 0 0 2,-2 2,2 0 0 0 -2,-2 z m 0,6 c -1.104569,0 -2,0.895431 -2,2 0,1.104569 0.895431,2 2,2 0.706972,0 0.999996,2 1,2 0,0 1,-3.602403 1,-4 0,-1.104569 -0.895431,-2 -2,-2 z"
         style="color:#000000;font-style:normal;font-variant:normal;font-weight:normal;font-stretch:normal;font-size:medium;line-height:normal;font-family:sans-serif;text-indent:0;text-align:start;text-decoration:none;text-decoration-line:none;text-decoration-style:solid;text-decoration-color:#000000;letter-spacing:normal;word-spacing:normal;text-transform:none;direction:ltr;block-progression:tb;writing-mode:lr-tb;baseline-shift:baseline;text-anchor:start;white-space:normal;clip-rule:nonzero;display:inline;overflow:visible;visibility:visible;opacity:1;isolation:auto;mix-blend-mode:normal;color-interpolation:sRGB;color-interpolation-filters:linearRGB;solid-color:#000000;solid-opacity:1;fill:#ffffff;fill-opacity:1;fill-rule:evenodd;stroke:none;stroke-width:2;stroke-linecap:round;stroke-linejoin:round;stroke-miterlimit:4;stroke-dasharray:none;stroke-dashoffset:0;stroke-opacity:1;color-rendering:auto;image-rendering:auto;shape-rendering:auto;text-rendering:auto;enable-background:accumulate" />
    </g>
  </g>
</svg>
