<?xml version="1.0" encoding="UTF-8" standalone="no"?>
<!-- Created with Inkscape (http://www.inkscape.org/) -->

<svg
   xmlns:dc="http://purl.org/dc/elements/1.1/"
   xmlns:cc="http://creativecommons.org/ns#"
   xmlns:rdf="http://www.w3.org/1999/02/22-rdf-syntax-ns#"
   xmlns:svg="http://www.w3.org/2000/svg"
   xmlns="http://www.w3.org/2000/svg"
   xmlns:sodipodi="http://sodipodi.sourceforge.net/DTD/sodipodi-0.dtd"
   xmlns:inkscape="http://www.inkscape.org/namespaces/inkscape"
   width="48"
   height="48"
   viewBox="0 0 48 48.000001"
   id="svg4346"
   version="1.1"
   inkscape:version="0.91 r"
   sodipodi:docname="audio-x-flac.svg">
  <defs
     id="defs4348" />
  <sodipodi:namedview
     id="base"
     pagecolor="#ffffff"
     bordercolor="#666666"
     borderopacity="1.0"
     inkscape:pageopacity="0.0"
     inkscape:pageshadow="2"
     inkscape:zoom="0.35"
     inkscape:cx="-87.857143"
     inkscape:cy="520"
     inkscape:document-units="px"
     inkscape:current-layer="layer1"
     showgrid="false"
     units="px"
     inkscape:window-width="1600"
     inkscape:window-height="846"
     inkscape:window-x="-5"
     inkscape:window-y="28"
     inkscape:window-maximized="1" />
  <metadata
     id="metadata4351">
    <rdf:RDF>
      <cc:Work
         rdf:about="">
        <dc:format>image/svg+xml</dc:format>
        <dc:type
           rdf:resource="http://purl.org/dc/dcmitype/StillImage" />
        <dc:title></dc:title>
      </cc:Work>
    </rdf:RDF>
  </metadata>
  <g
     inkscape:label="Layer 1"
     inkscape:groupmode="layer"
     id="layer1"
     transform="translate(0,-1004.3622)">
    <g
       id="g4651"
       transform="translate(0.39,1003.6379)">
      <path
         inkscape:connector-curvature="0"
         id="path21637"
         d="m 9.61,4.7243 c -1.108,0 -2,0.892 -2,2 l 0,36 c 0,1.108 0.892,2 2,2 l 28,0 c 1.108,0 2,-0.892 2,-2 l 0,-26 -11,-1 -1,-11 z"
         style="fill:#bfc264;fill-opacity:1" />
      <path
         style="opacity:0.1;fill:#ffffff"
         inkscape:connector-curvature="0"
         id="path21641"
         d="m 9.61,4.7243 c -1.108,0 -2,0.892 -2,2 l 0,1 c 0,-1.108 0.892,-2 2,-2 l 18,0 11,11 1,0 -12,-12 z" />
      <path
         inkscape:connector-curvature="0"
         id="path21645"
         d="m 27.61,4.7243 0,10 c 0,1.1046 0.89543,2 2,2 l 10,0 -12,-12 z"
         style="fill:#dee0b1;fill-opacity:1" />
      <path
         inkscape:connector-curvature="0"
         id="path8695"
         style="fill:#ffffff;enable-background:new"
         d="m 19.61,19.724 -0.0192,0 c 0.0381,4.1874 -7.3e-4,7.375 0,11.562 -1.8438,-1.1725 -4.5316,-0.41497 -5.5172,1.5309 -1.1469,1.9742 -0.16651,4.7651 1.9602,5.5923 2.0774,0.95043 4.7614,-0.2976 5.3772,-2.4962 0.30759,-1.2005 0.13601,-2.4536 0.18418,-3.6809 0.005,-2.8362 0.01,-4.6724 0.0149,-7.5086 l 9,0 c -0.006,2.5208 -0.0128,4.0417 -0.0192,6.5625 -1.8438,-1.1725 -4.5316,-0.41497 -5.5172,1.5309 -1.1469,1.9742 -0.16651,4.7651 1.9602,5.5923 2.2491,1.0177 5.4228,-0.5127 5.5925,-3.0831 -0.0756,-2.33 -0.01,-4.6677 -0.0263,-7.001 0.003,-2.8672 0.0105,-5.7344 0.01,-8.6016 l -0.0193,0 -12.981,0 z" />
    </g>
  </g>
</svg>
