<?xml version="1.0" encoding="UTF-8" standalone="no"?>
<!-- Created with Inkscape (http://www.inkscape.org/) -->

<svg
   xmlns:dc="http://purl.org/dc/elements/1.1/"
   xmlns:cc="http://creativecommons.org/ns#"
   xmlns:rdf="http://www.w3.org/1999/02/22-rdf-syntax-ns#"
   xmlns:svg="http://www.w3.org/2000/svg"
   xmlns="http://www.w3.org/2000/svg"
   xmlns:sodipodi="http://sodipodi.sourceforge.net/DTD/sodipodi-0.dtd"
   xmlns:inkscape="http://www.inkscape.org/namespaces/inkscape"
   id="svg4358"
   height="64"
   width="64"
   version="1.1"
   viewBox="0 0 64.000001 64.000001"
   inkscape:version="0.91 r"
   sodipodi:docname="text-x-qml.svg">
  <sodipodi:namedview
     pagecolor="#ffffff"
     bordercolor="#666666"
     borderopacity="1"
     objecttolerance="10"
     gridtolerance="10"
     guidetolerance="10"
     inkscape:pageopacity="0"
     inkscape:pageshadow="2"
     inkscape:window-width="1535"
     inkscape:window-height="876"
     id="namedview16"
     showgrid="false"
     inkscape:zoom="6.1198265"
     inkscape:cx="0.6235155"
     inkscape:cy="24"
     inkscape:window-x="65"
     inkscape:window-y="24"
     inkscape:window-maximized="1"
     inkscape:current-layer="svg4358" />
  <defs
     id="defs4360" />
  <metadata
     id="metadata4363">
    <rdf:RDF>
      <cc:Work
         rdf:about="">
        <dc:format>image/svg+xml</dc:format>
        <dc:type
           rdf:resource="http://purl.org/dc/dcmitype/StillImage" />
        <dc:title></dc:title>
      </cc:Work>
    </rdf:RDF>
  </metadata>
  <path
     id="path4750"
     d="M 14.5,7 C 13.115,7 12,8.115 12,9.5 l 0,45 c 0,1.385 1.115,2.5 2.5,2.5 l 35,0 C 50.885,57 52,55.885 52,54.5 L 52,22 38.25,20.75 37,7 Z"
     inkscape:connector-curvature="0"
     style="fill:#607d8b;fill-opacity:1" />
  <path
     id="path4756"
     d="m 37,7 0,12.5 c 0,1.38075 1.119287,2.5 2.5,2.5 L 52,22 37,7 Z"
     inkscape:connector-curvature="0"
     style="fill:#b1d1e0;fill-opacity:1" />
  <path
     inkscape:connector-curvature="0"
     style="color:#000000;text-indent:0;text-decoration:none;text-decoration-line:none;text-decoration-style:solid;text-decoration-color:#000000;text-transform:none;block-progression:tb;white-space:normal;isolation:auto;mix-blend-mode:normal;solid-color:#000000;fill:#ffffff;fill-rule:evenodd;color-rendering:auto;image-rendering:auto;shape-rendering:auto"
     d="m 25.759766,29 a 1.2403398,1.2421499 0 0 0 -0.117188,0.002 1.2403398,1.2421499 0 0 0 -0.328125,0.06836 c 0,0 -0.776264,0.256574 -1.675781,0.730469 -0.899466,0.473907 -1.99211,1.137711 -2.695313,2.277344 -0.782786,1.268357 -0.485629,2.625463 -0.242187,3.4375 0.243442,0.812037 0.377196,1.167228 0.152344,1.710937 -0.109808,0.265496 -0.78334,0.845677 -1.519532,1.207032 -0.736688,0.36143 -1.404296,0.550781 -1.404296,0.550781 a 1.2403398,1.2421499 0 0 0 -0.886719,1.527344 1.2403398,1.2421499 0 0 0 0.886719,1.490234 c 0,0 0.668117,0.189425 1.404296,0.550781 0.736205,0.361354 1.409773,0.943489 1.519532,1.208985 0.224851,0.543646 0.09109,0.898838 -0.152344,1.710937 -0.243442,0.812037 -0.540587,2.16902 0.242187,3.4375 0.703302,1.139621 1.795909,1.803386 2.695313,2.277344 0.899467,0.473907 1.675781,0.730469 1.675781,0.730469 a 1.2403398,1.2421499 0 1 0 0.78125,-2.355469 c 0,0 -0.590236,-0.199835 -1.300781,-0.574219 -0.710581,-0.374382 -1.471605,-0.95134 -1.740234,-1.386719 -0.303917,-0.492463 -0.204515,-0.662218 0.02148,-1.416015 0.225992,-0.753823 0.634512,-2.006162 0.06836,-3.375 -0.501395,-1.21224 -1.502381,-1.853752 -2.398437,-2.316406 0.89602,-0.462693 1.897017,-1.104215 2.398437,-2.316407 0.566158,-1.368836 0.157638,-2.621216 -0.06836,-3.375 -0.225992,-0.753823 -0.325394,-0.923577 -0.02148,-1.416015 0.268679,-0.435367 1.029715,-1.014275 1.740234,-1.388672 0.710581,-0.374383 1.300781,-0.572266 1.300781,-0.572266 A 1.2403398,1.2421499 0 0 0 25.761719,29 l -0.002,0 z m 11.474609,0 a 1.2403398,1.2421499 0 0 0 -0.330078,2.425781 c 0,0 0.5902,0.197883 1.300781,0.572266 0.710519,0.374397 1.471554,0.953305 1.740234,1.388672 0.30391,0.492438 0.204508,0.662192 -0.02148,1.416015 -0.225997,0.753784 -0.634517,2.006164 -0.06836,3.375 0.50142,1.212192 1.502417,1.853714 2.398437,2.316407 -0.896056,0.462654 -1.897042,1.104166 -2.398437,2.316406 -0.566153,1.368838 -0.157633,2.621177 0.06836,3.375 0.225999,0.753797 0.325401,0.923552 0.02148,1.416015 -0.268629,0.435379 -1.029653,1.012337 -1.740234,1.386719 -0.710545,0.374384 -1.300781,0.574219 -1.300781,0.574219 a 1.2403398,1.2421499 0 1 0 0.78125,2.355469 c 0,0 0.776314,-0.256562 1.675781,-0.730469 0.899404,-0.473958 1.992011,-1.137723 2.695313,-2.277344 0.782774,-1.26848 0.485629,-2.625463 0.242187,-3.4375 -0.243438,-0.812099 -0.377195,-1.167291 -0.152344,-1.710937 0.109759,-0.265496 0.783327,-0.847631 1.519532,-1.208985 0.736179,-0.361356 1.404296,-0.550781 1.404296,-0.550781 a 1.2403398,1.2421499 0 0 0 0.886719,-1.490234 1.2403398,1.2421499 0 0 0 -0.886719,-1.527344 c 10e-7,0 -0.667608,-0.189351 -1.404296,-0.550781 -0.736192,-0.361355 -1.409724,-0.941536 -1.519532,-1.207032 -0.224852,-0.543709 -0.0911,-0.8989 0.152344,-1.710937 0.243442,-0.812037 0.540599,-2.169143 -0.242187,-3.4375 -0.703203,-1.139633 -1.795847,-1.803437 -2.695313,-2.277344 -0.899517,-0.473895 -1.677734,-0.730469 -1.677734,-0.730469 A 1.2403398,1.2421499 0 0 0 37.357422,29.001953 1.2403398,1.2421499 0 0 0 37.238281,29 a 1.2403398,1.2421499 0 0 0 -0.0039,0 z M 31.5,34 A 2.5,2.5 0 0 0 29,36.5 2.5,2.5 0 0 0 31.5,39 2.5,2.5 0 0 0 34,36.5 2.5,2.5 0 0 0 31.5,34 Z m 0,7.5 c -1.38075,0 -2.5,1.119287 -2.5,2.5 0,1.380713 1.119287,2.5 2.5,2.5 0.883712,0 1.25,2.5 1.25,2.5 0,0 1.25,-4.503 1.25,-5 0,-1.38075 -1.119288,-2.5 -2.5,-2.5 z"
     id="path4176" />
  <path
     style="opacity:0.2;fill:#ffffff;fill-opacity:1"
     d="M 14.5,7 C 13.115,7 12,8.115 12,9.5 l 0,2 C 12,10.115 13.115,9 14.5,9 L 37,9 37,7 Z"
     id="path4165"
     inkscape:connector-curvature="0"
     sodipodi:nodetypes="sscsccs" />
</svg>
