<?xml version="1.0" encoding="UTF-8" standalone="no"?>
<!-- Created with Inkscape (http://www.inkscape.org/) -->

<svg
   xmlns:dc="http://purl.org/dc/elements/1.1/"
   xmlns:cc="http://creativecommons.org/ns#"
   xmlns:rdf="http://www.w3.org/1999/02/22-rdf-syntax-ns#"
   xmlns:svg="http://www.w3.org/2000/svg"
   xmlns="http://www.w3.org/2000/svg"
   xmlns:sodipodi="http://sodipodi.sourceforge.net/DTD/sodipodi-0.dtd"
   xmlns:inkscape="http://www.inkscape.org/namespaces/inkscape"
   id="svg2817"
   height="48"
   width="48"
   version="1.0"
   inkscape:version="0.91 r"
   sodipodi:docname="input-touchpad.svg">
  <defs
     id="defs17" />
  <sodipodi:namedview
     pagecolor="#ffffff"
     bordercolor="#666666"
     borderopacity="1"
     objecttolerance="10"
     gridtolerance="10"
     guidetolerance="10"
     inkscape:pageopacity="0"
     inkscape:pageshadow="2"
     inkscape:window-width="1181"
     inkscape:window-height="650"
     id="namedview15"
     showgrid="false"
     inkscape:zoom="4.9166667"
     inkscape:cx="-8.9491524"
     inkscape:cy="24"
     inkscape:window-x="53"
     inkscape:window-y="100"
     inkscape:window-maximized="0"
     inkscape:current-layer="svg2817" />
  <metadata
     id="metadata57">
    <rdf:RDF>
      <cc:Work
         rdf:about="">
        <dc:format>image/svg+xml</dc:format>
        <dc:type
           rdf:resource="http://purl.org/dc/dcmitype/StillImage" />
        <dc:title />
      </cc:Work>
    </rdf:RDF>
  </metadata>
  <rect
     id="rect4203"
     ry="2"
     rx="2"
     transform="matrix(0,-1,-1,0,0,0)"
     height="40"
     width="40"
     y="-44"
     x="-44"
     style="fill:#858a89;fill-opacity:1" />
  <path
     style="opacity:0.2;fill:#ffffff"
     inkscape:connector-curvature="0"
     id="rect4592"
     d="M 6,4 C 4.892,4 4,4.892 4,6 L 4,7 C 4,5.892 4.892,5 6,5 l 36,0 c 1.108,0 2,0.892 2,2 L 44,6 C 44,4.892 43.108,4 42,4 L 6,4 Z" />
  <rect
     style="opacity:0.2;fill:#000000;fill-opacity:1"
     id="rect4186"
     rx="2"
     ry="2"
     height="10"
     width="18"
     y="32"
     x="5" />
  <rect
     style="opacity:0.2;fill:#000000;fill-opacity:1"
     id="rect4188"
     rx="2"
     ry="2"
     height="10"
     width="18"
     y="32"
     x="25" />
  <rect
     style="opacity:0.2;fill:#000000;fill-opacity:1"
     id="rect4190"
     height="1"
     width="6"
     y="10"
     x="37" />
  <rect
     style="opacity:0.2;fill:#000000;fill-opacity:1"
     id="rect4192"
     height="1"
     width="6"
     y="13"
     x="37" />
  <rect
     style="opacity:0.2;fill:#000000;fill-opacity:1"
     id="rect4194"
     height="1"
     width="6"
     y="16"
     x="37" />
  <rect
     style="opacity:0.2;fill:#000000;fill-opacity:1"
     id="rect4204"
     height="1"
     width="6"
     y="19"
     x="37" />
  <rect
     style="opacity:0.2;fill:#000000;fill-opacity:1"
     id="rect4206"
     height="1"
     width="6"
     y="22"
     x="37" />
  <rect
     style="opacity:0.2;fill:#000000;fill-opacity:1"
     id="rect4208"
     height="1"
     width="6"
     y="25"
     x="37" />
  <path
     style="opacity:0.3"
     inkscape:connector-curvature="0"
     id="rect4182"
     d="m 4,41 0,1 c 0,1.108 0.892,2 2,2 l 36,0 c 1.108,0 2,-0.892 2,-2 l 0,-1 c 0,1.108 -0.892,2 -2,2 L 6,43 C 4.892,43 4,42.108 4,41 Z" />
</svg>
