<?xml version="1.0" encoding="UTF-8" standalone="no"?>
<!-- Created with Inkscape (http://www.inkscape.org/) -->

<svg
   xmlns:dc="http://purl.org/dc/elements/1.1/"
   xmlns:cc="http://creativecommons.org/ns#"
   xmlns:rdf="http://www.w3.org/1999/02/22-rdf-syntax-ns#"
   xmlns:svg="http://www.w3.org/2000/svg"
   xmlns="http://www.w3.org/2000/svg"
   xmlns:sodipodi="http://sodipodi.sourceforge.net/DTD/sodipodi-0.dtd"
   xmlns:inkscape="http://www.inkscape.org/namespaces/inkscape"
   id="svg2817"
   height="32"
   width="32"
   version="1.0"
   inkscape:version="0.91 r"
   sodipodi:docname="2048-qt.svg">
  <defs
     id="defs221" />
  <sodipodi:namedview
     pagecolor="#ffffff"
     bordercolor="#666666"
     borderopacity="1"
     objecttolerance="10"
     gridtolerance="10"
     guidetolerance="10"
     inkscape:pageopacity="0"
     inkscape:pageshadow="2"
     inkscape:window-width="1535"
     inkscape:window-height="876"
     id="namedview219"
     showgrid="false"
     inkscape:zoom="1"
     inkscape:cx="16"
     inkscape:cy="16"
     inkscape:window-x="65"
     inkscape:window-y="24"
     inkscape:window-maximized="1"
     inkscape:current-layer="svg2817" />
  <metadata
     id="metadata57">
    <rdf:RDF>
      <cc:Work
         rdf:about="">
        <dc:format>image/svg+xml</dc:format>
        <dc:type
           rdf:resource="http://purl.org/dc/dcmitype/StillImage" />
        <dc:title></dc:title>
      </cc:Work>
    </rdf:RDF>
  </metadata>
  <text
     id="text4087-2-6-5"
     opacity=".8"
     font-size="12.666px"
     xml:space="preserve"
     y="-5.1873989"
     x="877.22626"
     font-family="'Bitstream Vera Sans'"
     fill="#000000"><tspan
       id="tspan4089-7-2-9"
       y="-5.1873989"
       x="877.22626" /></text>
  <text
     id="text4087-2-6-5-5"
     opacity=".8"
     font-size="12.666px"
     xml:space="preserve"
     y="-45.929108"
     x="901.18719"
     font-family="'Bitstream Vera Sans'"
     fill="#000000"><tspan
       id="tspan4089-7-2-9-6"
       y="-45.929108"
       x="901.18719" /></text>
  <text
     id="text4087-2-6-5-2"
     opacity=".8"
     font-size="12.666px"
     xml:space="preserve"
     y="-76.007248"
     x="-569.37115"
     font-family="'Bitstream Vera Sans'"
     fill="#000000"><tspan
       id="tspan4089-7-2-9-2"
       y="-76.007248"
       x="-569.37115" /></text>
  <text
     id="text4087-2-6-5-59"
     opacity=".8"
     font-size="12.666px"
     xml:space="preserve"
     y="669.5462"
     x="-2393.0571"
     font-family="'Bitstream Vera Sans'"
     fill="#000000"><tspan
       id="tspan4089-7-2-9-4"
       y="669.5462"
       x="-2393.0571" /></text>
  <text
     id="text4087-2-6-5-1"
     opacity=".8"
     font-size="12.666px"
     xml:space="preserve"
     y="-461.32822"
     x="-454.88007"
     font-family="'Bitstream Vera Sans'"
     fill="#000000"><tspan
       id="tspan4089-7-2-9-7"
       y="-461.32822"
       x="-454.88007" /></text>
  <text
     id="text4087-2-6-5-7"
     opacity=".8"
     font-size="12.666px"
     xml:space="preserve"
     y="-874.79834"
     x="352.72208"
     font-family="'Bitstream Vera Sans'"
     fill="#000000"><tspan
       id="tspan4089-7-2-9-1"
       y="-874.79834"
       x="352.72208" /></text>
  <text
     id="text4087-2-6-5-5-3"
     opacity=".8"
     font-size="12.666px"
     xml:space="preserve"
     y="-915.54004"
     x="376.68301"
     font-family="'Bitstream Vera Sans'"
     fill="#000000"><tspan
       id="tspan4089-7-2-9-6-5"
       y="-915.54004"
       x="376.68301" /></text>
  <text
     id="text4087-2-6-5-3"
     opacity=".8"
     font-size="12.666px"
     xml:space="preserve"
     y="-922.74994"
     x="-1114.7802"
     font-family="'Bitstream Vera Sans'"
     fill="#000000"><tspan
       id="tspan4089-7-2-9-18"
       y="-922.74994"
       x="-1114.7802" /></text>
  <text
     id="text4087-2-6-5-4"
     opacity=".8"
     font-size="12.666px"
     xml:space="preserve"
     y="-1195.9841"
     x="345.7626"
     font-family="'Bitstream Vera Sans'"
     fill="#000000"><tspan
       id="tspan4089-7-2-9-9"
       y="-1195.9841"
       x="345.7626" /></text>
  <text
     id="text4087-2-6-5-7-1"
     opacity=".8"
     font-size="12.666px"
     xml:space="preserve"
     y="-569.29272"
     x="1831.8861"
     font-family="'Bitstream Vera Sans'"
     fill="#000000"><tspan
       id="tspan4089-7-2-9-1-8"
       y="-569.29272"
       x="1831.8861" /></text>
  <text
     id="text4087-2-6-5-5-5"
     opacity=".8"
     font-size="12.666px"
     xml:space="preserve"
     y="-610.03448"
     x="1855.8469"
     font-family="'Bitstream Vera Sans'"
     fill="#000000"><tspan
       id="tspan4089-7-2-9-6-9"
       y="-610.03448"
       x="1855.8469" /></text>
  <text
     id="text4087-2-6-5-75"
     opacity=".8"
     font-size="12.666px"
     xml:space="preserve"
     y="-617.24438"
     x="364.38376"
     font-family="'Bitstream Vera Sans'"
     fill="#000000"><tspan
       id="tspan4089-7-2-9-3"
       y="-617.24438"
       x="364.38376" /></text>
  <text
     id="text4087-2-6-5-4-8"
     opacity=".8"
     font-size="12.666px"
     xml:space="preserve"
     y="-890.47839"
     x="1824.9266"
     font-family="'Bitstream Vera Sans'"
     fill="#000000"><tspan
       id="tspan4089-7-2-9-9-8"
       y="-890.47839"
       x="1824.9266" /></text>
  <text
     id="text4087-2-6-5-45"
     opacity=".8"
     font-size="12.666px"
     xml:space="preserve"
     y="-665.33569"
     x="-573.43256"
     font-family="'Bitstream Vera Sans'"
     fill="#000000"><tspan
       id="tspan4089-7-2-9-75"
       y="-665.33569"
       x="-573.43256" /></text>
  <text
     id="text4087-2-6-5-59-7"
     opacity=".8"
     font-size="12.666px"
     xml:space="preserve"
     y="80.217857"
     x="-2397.1182"
     font-family="'Bitstream Vera Sans'"
     fill="#000000"><tspan
       id="tspan4089-7-2-9-4-0"
       y="80.217857"
       x="-2397.1182" /></text>
  <text
     id="text4087-2-6-5-8"
     opacity=".8"
     font-size="12.666px"
     xml:space="preserve"
     y="173.09"
     x="-682.36279"
     font-family="'Bitstream Vera Sans'"
     fill="#000000"><tspan
       id="tspan4089-7-2-9-19"
       y="173.09"
       x="-682.36279" /></text>
  <text
     id="text4087-2-6-5-7-5"
     opacity=".8"
     font-size="12.666px"
     xml:space="preserve"
     y="-6.0921478"
     x="426.66153"
     font-family="'Bitstream Vera Sans'"
     fill="#000000"><tspan
       id="tspan4089-7-2-9-1-2"
       y="-6.0921478"
       x="426.66153" /></text>
  <text
     id="text4087-2-6-5-5-0"
     opacity=".8"
     font-size="12.666px"
     xml:space="preserve"
     y="-46.833855"
     x="450.62247"
     font-family="'Bitstream Vera Sans'"
     fill="#000000"><tspan
       id="tspan4089-7-2-9-6-2"
       y="-46.833855"
       x="450.62247" /></text>
  <text
     id="text4087-2-6-5-26"
     opacity=".8"
     font-size="12.666px"
     xml:space="preserve"
     y="-54.043827"
     x="-1040.8407"
     font-family="'Bitstream Vera Sans'"
     fill="#000000"><tspan
       id="tspan4089-7-2-9-90"
       y="-54.043827"
       x="-1040.8407" /></text>
  <text
     id="text4087-2-6-5-4-3"
     opacity=".8"
     font-size="12.666px"
     xml:space="preserve"
     y="-327.27789"
     x="419.70206"
     font-family="'Bitstream Vera Sans'"
     fill="#000000"><tspan
       id="tspan4089-7-2-9-9-5"
       y="-327.27789"
       x="419.70206" /></text>
  <text
     id="text4087-2-6-5-55"
     opacity=".8"
     font-size="12.666px"
     xml:space="preserve"
     y="-56.758072"
     x="-608.03253"
     font-family="'Bitstream Vera Sans'"
     fill="#000000"><tspan
       id="tspan4089-7-2-9-32"
       y="-56.758072"
       x="-608.03253" /></text>
  <text
     id="text4087-2-6-5-59-9"
     opacity=".8"
     font-size="12.666px"
     xml:space="preserve"
     y="688.79541"
     x="-2431.7185"
     font-family="'Bitstream Vera Sans'"
     fill="#000000"><tspan
       id="tspan4089-7-2-9-4-1"
       y="688.79541"
       x="-2431.7185" /></text>
  <text
     id="text4087-2-6-5-1-8"
     opacity=".8"
     font-size="12.666px"
     xml:space="preserve"
     y="-918.28857"
     x="-456.93948"
     font-family="'Bitstream Vera Sans'"
     fill="#000000"><tspan
       id="tspan4089-7-2-9-7-8"
       y="-918.28857"
       x="-456.93948" /></text>
  <text
     id="text4087-2-6-5-7-8"
     opacity=".8"
     font-size="12.666px"
     xml:space="preserve"
     y="-1331.7588"
     x="350.66266"
     font-family="'Bitstream Vera Sans'"
     fill="#000000"><tspan
       id="tspan4089-7-2-9-1-9"
       y="-1331.7588"
       x="350.66266" /></text>
  <text
     id="text4087-2-6-5-5-52"
     opacity=".8"
     font-size="12.666px"
     xml:space="preserve"
     y="-1372.5005"
     x="374.62357"
     font-family="'Bitstream Vera Sans'"
     fill="#000000"><tspan
       id="tspan4089-7-2-9-6-4"
       y="-1372.5005"
       x="374.62357" /></text>
  <text
     id="text4087-2-6-5-3-4"
     opacity=".8"
     font-size="12.666px"
     xml:space="preserve"
     y="-1379.7104"
     x="-1116.8396"
     font-family="'Bitstream Vera Sans'"
     fill="#000000"><tspan
       id="tspan4089-7-2-9-18-3"
       y="-1379.7104"
       x="-1116.8396" /></text>
  <text
     id="text4087-2-6-5-4-7"
     opacity=".8"
     font-size="12.666px"
     xml:space="preserve"
     y="-1652.9446"
     x="343.70316"
     font-family="'Bitstream Vera Sans'"
     fill="#000000"><tspan
       id="tspan4089-7-2-9-9-54"
       y="-1652.9446"
       x="343.70316" /></text>
  <text
     id="text4087-2-6-5-7-1-2"
     opacity=".8"
     font-size="12.666px"
     xml:space="preserve"
     y="-1026.2533"
     x="1829.8265"
     font-family="'Bitstream Vera Sans'"
     fill="#000000"><tspan
       id="tspan4089-7-2-9-1-8-0"
       y="-1026.2533"
       x="1829.8265" /></text>
  <text
     id="text4087-2-6-5-5-5-6"
     opacity=".8"
     font-size="12.666px"
     xml:space="preserve"
     y="-1066.9949"
     x="1853.7874"
     font-family="'Bitstream Vera Sans'"
     fill="#000000"><tspan
       id="tspan4089-7-2-9-6-9-8"
       y="-1066.9949"
       x="1853.7874" /></text>
  <text
     id="text4087-2-6-5-75-4"
     opacity=".8"
     font-size="12.666px"
     xml:space="preserve"
     y="-1074.2048"
     x="362.32431"
     font-family="'Bitstream Vera Sans'"
     fill="#000000"><tspan
       id="tspan4089-7-2-9-3-9"
       y="-1074.2048"
       x="362.32431" /></text>
  <text
     id="text4087-2-6-5-4-8-1"
     opacity=".8"
     font-size="12.666px"
     xml:space="preserve"
     y="-1347.439"
     x="1822.8671"
     font-family="'Bitstream Vera Sans'"
     fill="#000000"><tspan
       id="tspan4089-7-2-9-9-8-8"
       y="-1347.439"
       x="1822.8671" /></text>
  <text
     id="text4087-2-6-5-45-0"
     opacity=".8"
     font-size="12.666px"
     xml:space="preserve"
     y="-1122.2961"
     x="-575.492"
     font-family="'Bitstream Vera Sans'"
     fill="#000000"><tspan
       id="tspan4089-7-2-9-75-2"
       y="-1122.2961"
       x="-575.492" /></text>
  <text
     id="text4087-2-6-5-59-5"
     opacity=".8"
     font-size="12.666px"
     xml:space="preserve"
     y="-376.74261"
     x="-2399.1777"
     font-family="'Bitstream Vera Sans'"
     fill="#000000"><tspan
       id="tspan4089-7-2-9-4-00"
       y="-376.74261"
       x="-2399.1777" /></text>
  <text
     id="text4087-2-6-5-264"
     opacity=".8"
     font-size="12.666px"
     xml:space="preserve"
     y="-283.87045"
     x="-684.42224"
     font-family="'Bitstream Vera Sans'"
     fill="#000000"><tspan
       id="tspan4089-7-2-9-8"
       y="-283.87045"
       x="-684.42224" /></text>
  <text
     id="text4087-2-6-5-42"
     opacity=".8"
     font-size="12.666px"
     xml:space="preserve"
     y="-42.956276"
     x="155.5923"
     font-family="'Bitstream Vera Sans'"
     fill="#000000"><tspan
       id="tspan4089-7-2-9-93"
       y="-42.956276"
       x="155.5923" /></text>
  <text
     id="text4087-2-6-5-5-05"
     opacity=".8"
     font-size="12.666px"
     xml:space="preserve"
     y="-83.697998"
     x="179.55324"
     font-family="'Bitstream Vera Sans'"
     fill="#000000"><tspan
       id="tspan4089-7-2-9-6-49"
       y="-83.697998"
       x="179.55324" /></text>
  <text
     id="text4087-2-6-5-1-4"
     opacity=".8"
     font-size="12.666px"
     xml:space="preserve"
     y="-277.72662"
     x="-1090.2634"
     font-family="'Bitstream Vera Sans'"
     fill="#000000"><tspan
       id="tspan4089-7-2-9-7-7"
       y="-277.72662"
       x="-1090.2634" /></text>
  <text
     id="text4087-2-6-5-7-56"
     opacity=".8"
     font-size="12.666px"
     xml:space="preserve"
     y="-691.19678"
     x="-282.66141"
     font-family="'Bitstream Vera Sans'"
     fill="#000000"><tspan
       id="tspan4089-7-2-9-1-1"
       y="-691.19678"
       x="-282.66141" /></text>
  <text
     id="text4087-2-6-5-5-8"
     opacity=".8"
     font-size="12.666px"
     xml:space="preserve"
     y="-731.93848"
     x="-258.70047"
     font-family="'Bitstream Vera Sans'"
     fill="#000000"><tspan
       id="tspan4089-7-2-9-6-7"
       y="-731.93848"
       x="-258.70047" /></text>
  <text
     id="text4087-2-6-5-3-42"
     opacity=".8"
     font-size="12.666px"
     xml:space="preserve"
     y="-739.14838"
     x="-1750.1636"
     font-family="'Bitstream Vera Sans'"
     fill="#000000"><tspan
       id="tspan4089-7-2-9-18-39"
       y="-739.14838"
       x="-1750.1636" /></text>
  <text
     id="text4087-2-6-5-4-4"
     opacity=".8"
     font-size="12.666px"
     xml:space="preserve"
     y="-1012.3825"
     x="-289.62085"
     font-family="'Bitstream Vera Sans'"
     fill="#000000"><tspan
       id="tspan4089-7-2-9-9-3"
       y="-1012.3825"
       x="-289.62085" /></text>
  <text
     id="text4087-2-6-5-7-1-0"
     opacity=".8"
     font-size="12.666px"
     xml:space="preserve"
     y="-385.69113"
     x="1196.5026"
     font-family="'Bitstream Vera Sans'"
     fill="#000000"><tspan
       id="tspan4089-7-2-9-1-8-5"
       y="-385.69113"
       x="1196.5026" /></text>
  <text
     id="text4087-2-6-5-5-5-5"
     opacity=".8"
     font-size="12.666px"
     xml:space="preserve"
     y="-426.43286"
     x="1220.4634"
     font-family="'Bitstream Vera Sans'"
     fill="#000000"><tspan
       id="tspan4089-7-2-9-6-9-2"
       y="-426.43286"
       x="1220.4634" /></text>
  <text
     id="text4087-2-6-5-75-9"
     opacity=".8"
     font-size="12.666px"
     xml:space="preserve"
     y="-433.64282"
     x="-270.99973"
     font-family="'Bitstream Vera Sans'"
     fill="#000000"><tspan
       id="tspan4089-7-2-9-3-1"
       y="-433.64282"
       x="-270.99973" /></text>
  <text
     id="text4087-2-6-5-4-8-18"
     opacity=".8"
     font-size="12.666px"
     xml:space="preserve"
     y="-706.87689"
     x="1189.5431"
     font-family="'Bitstream Vera Sans'"
     fill="#000000"><tspan
       id="tspan4089-7-2-9-9-8-4"
       y="-706.87689"
       x="1189.5431" /></text>
  <text
     id="text4087-2-6-5-45-3"
     opacity=".8"
     font-size="12.666px"
     xml:space="preserve"
     y="-481.7341"
     x="-1208.816"
     font-family="'Bitstream Vera Sans'"
     fill="#000000"><tspan
       id="tspan4089-7-2-9-75-7"
       y="-481.7341"
       x="-1208.816" /></text>
  <text
     id="text4087-2-6-5-59-8"
     opacity=".8"
     font-size="12.666px"
     xml:space="preserve"
     y="263.81946"
     x="-3032.5017"
     font-family="'Bitstream Vera Sans'"
     fill="#000000"><tspan
       id="tspan4089-7-2-9-4-2"
       y="263.81946"
       x="-3032.5017" /></text>
  <g
     id="layer4-0"
     transform="matrix(.90475 0 0 .90475 -716.75 -692.29)">
    <text
       id="text4087-2-6-5-20"
       opacity=".8"
       font-size="14px"
       xml:space="preserve"
       y="1159.4154"
       x="-664.2738"
       font-family="'Bitstream Vera Sans'"
       fill="#000000"><tspan
         id="tspan4089-7-2-9-82"
         y="1159.4154"
         x="-664.2738" /></text>
  </g>
  <text
     id="text4087-2-6-5-9"
     opacity=".8"
     font-size="12.666px"
     xml:space="preserve"
     y="2.0505886"
     x="877.22626"
     font-family="'Bitstream Vera Sans'"
     fill="#000000"><tspan
       id="tspan4089-7-2-9-43"
       y="2.0505886"
       x="877.22626" /></text>
  <text
     id="text4087-2-6-5-5-51"
     opacity=".8"
     font-size="12.666px"
     xml:space="preserve"
     y="-38.691116"
     x="901.18719"
     font-family="'Bitstream Vera Sans'"
     fill="#000000"><tspan
       id="tspan4089-7-2-9-6-74"
       y="-38.691116"
       x="901.18719" /></text>
  <text
     id="text4087-2-6-5-2-3"
     opacity=".8"
     font-size="12.666px"
     xml:space="preserve"
     y="-68.769257"
     x="-569.37115"
     font-family="'Bitstream Vera Sans'"
     fill="#000000"><tspan
       id="tspan4089-7-2-9-2-1"
       y="-68.769257"
       x="-569.37115" /></text>
  <text
     id="text4087-2-6-5-59-4"
     opacity=".8"
     font-size="12.666px"
     xml:space="preserve"
     y="676.78418"
     x="-2393.0571"
     font-family="'Bitstream Vera Sans'"
     fill="#000000"><tspan
       id="tspan4089-7-2-9-4-6"
       y="676.78418"
       x="-2393.0571" /></text>
  <text
     id="text4087-2-6-5-1-9"
     opacity=".8"
     font-size="12.666px"
     xml:space="preserve"
     y="-454.09021"
     x="-454.88007"
     font-family="'Bitstream Vera Sans'"
     fill="#000000"><tspan
       id="tspan4089-7-2-9-7-4"
       y="-454.09021"
       x="-454.88007" /></text>
  <text
     id="text4087-2-6-5-7-2"
     opacity=".8"
     font-size="12.666px"
     xml:space="preserve"
     y="-867.5603"
     x="352.72208"
     font-family="'Bitstream Vera Sans'"
     fill="#000000"><tspan
       id="tspan4089-7-2-9-1-26"
       y="-867.5603"
       x="352.72208" /></text>
  <text
     id="text4087-2-6-5-5-3-4"
     opacity=".8"
     font-size="12.666px"
     xml:space="preserve"
     y="-908.30206"
     x="376.68301"
     font-family="'Bitstream Vera Sans'"
     fill="#000000"><tspan
       id="tspan4089-7-2-9-6-5-1"
       y="-908.30206"
       x="376.68301" /></text>
  <text
     id="text4087-2-6-5-3-2"
     opacity=".8"
     font-size="12.666px"
     xml:space="preserve"
     y="-915.51196"
     x="-1114.7802"
     font-family="'Bitstream Vera Sans'"
     fill="#000000"><tspan
       id="tspan4089-7-2-9-18-8"
       y="-915.51196"
       x="-1114.7802" /></text>
  <text
     id="text4087-2-6-5-4-89"
     opacity=".8"
     font-size="12.666px"
     xml:space="preserve"
     y="-1188.7461"
     x="345.7626"
     font-family="'Bitstream Vera Sans'"
     fill="#000000"><tspan
       id="tspan4089-7-2-9-9-2"
       y="-1188.7461"
       x="345.7626" /></text>
  <text
     id="text4087-2-6-5-7-1-8"
     opacity=".8"
     font-size="12.666px"
     xml:space="preserve"
     y="-562.05475"
     x="1831.8861"
     font-family="'Bitstream Vera Sans'"
     fill="#000000"><tspan
       id="tspan4089-7-2-9-1-8-8"
       y="-562.05475"
       x="1831.8861" /></text>
  <text
     id="text4087-2-6-5-5-5-8"
     opacity=".8"
     font-size="12.666px"
     xml:space="preserve"
     y="-602.79651"
     x="1855.8469"
     font-family="'Bitstream Vera Sans'"
     fill="#000000"><tspan
       id="tspan4089-7-2-9-6-9-6"
       y="-602.79651"
       x="1855.8469" /></text>
  <text
     id="text4087-2-6-5-75-8"
     opacity=".8"
     font-size="12.666px"
     xml:space="preserve"
     y="-610.00641"
     x="364.38376"
     font-family="'Bitstream Vera Sans'"
     fill="#000000"><tspan
       id="tspan4089-7-2-9-3-3"
       y="-610.00641"
       x="364.38376" /></text>
  <text
     id="text4087-2-6-5-4-8-8"
     opacity=".8"
     font-size="12.666px"
     xml:space="preserve"
     y="-883.24036"
     x="1824.9266"
     font-family="'Bitstream Vera Sans'"
     fill="#000000"><tspan
       id="tspan4089-7-2-9-9-8-3"
       y="-883.24036"
       x="1824.9266" /></text>
  <text
     id="text4087-2-6-5-45-33"
     opacity=".8"
     font-size="12.666px"
     xml:space="preserve"
     y="-658.09772"
     x="-573.43256"
     font-family="'Bitstream Vera Sans'"
     fill="#000000"><tspan
       id="tspan4089-7-2-9-75-8"
       y="-658.09772"
       x="-573.43256" /></text>
  <text
     id="text4087-2-6-5-59-7-0"
     opacity=".8"
     font-size="12.666px"
     xml:space="preserve"
     y="87.455849"
     x="-2397.1182"
     font-family="'Bitstream Vera Sans'"
     fill="#000000"><tspan
       id="tspan4089-7-2-9-4-0-4"
       y="87.455849"
       x="-2397.1182" /></text>
  <text
     id="text4087-2-6-5-8-7"
     opacity=".8"
     font-size="12.666px"
     xml:space="preserve"
     y="180.32799"
     x="-682.36279"
     font-family="'Bitstream Vera Sans'"
     fill="#000000"><tspan
       id="tspan4089-7-2-9-19-6"
       y="180.32799"
       x="-682.36279" /></text>
  <text
     id="text4087-2-6-5-7-5-8"
     opacity=".8"
     font-size="12.666px"
     xml:space="preserve"
     y="1.1458397"
     x="426.66153"
     font-family="'Bitstream Vera Sans'"
     fill="#000000"><tspan
       id="tspan4089-7-2-9-1-2-9"
       y="1.1458397"
       x="426.66153" /></text>
  <text
     id="text4087-2-6-5-5-0-0"
     opacity=".8"
     font-size="12.666px"
     xml:space="preserve"
     y="-39.595863"
     x="450.62247"
     font-family="'Bitstream Vera Sans'"
     fill="#000000"><tspan
       id="tspan4089-7-2-9-6-2-6"
       y="-39.595863"
       x="450.62247" /></text>
  <text
     id="text4087-2-6-5-26-8"
     opacity=".8"
     font-size="12.666px"
     xml:space="preserve"
     y="-46.805836"
     x="-1040.8407"
     font-family="'Bitstream Vera Sans'"
     fill="#000000"><tspan
       id="tspan4089-7-2-9-90-7"
       y="-46.805836"
       x="-1040.8407" /></text>
  <text
     id="text4087-2-6-5-4-3-9"
     opacity=".8"
     font-size="12.666px"
     xml:space="preserve"
     y="-320.03989"
     x="419.70206"
     font-family="'Bitstream Vera Sans'"
     fill="#000000"><tspan
       id="tspan4089-7-2-9-9-5-0"
       y="-320.03989"
       x="419.70206" /></text>
  <text
     id="text4087-2-6-5-55-3"
     opacity=".8"
     font-size="12.666px"
     xml:space="preserve"
     y="-49.520081"
     x="-608.03253"
     font-family="'Bitstream Vera Sans'"
     fill="#000000"><tspan
       id="tspan4089-7-2-9-32-3"
       y="-49.520081"
       x="-608.03253" /></text>
  <text
     id="text4087-2-6-5-59-9-3"
     opacity=".8"
     font-size="12.666px"
     xml:space="preserve"
     y="696.03345"
     x="-2431.7185"
     font-family="'Bitstream Vera Sans'"
     fill="#000000"><tspan
       id="tspan4089-7-2-9-4-1-7"
       y="696.03345"
       x="-2431.7185" /></text>
  <text
     id="text4087-2-6-5-1-8-3"
     opacity=".8"
     font-size="12.666px"
     xml:space="preserve"
     y="-911.0506"
     x="-456.93948"
     font-family="'Bitstream Vera Sans'"
     fill="#000000"><tspan
       id="tspan4089-7-2-9-7-8-2"
       y="-911.0506"
       x="-456.93948" /></text>
  <text
     id="text4087-2-6-5-7-8-6"
     opacity=".8"
     font-size="12.666px"
     xml:space="preserve"
     y="-1324.5208"
     x="350.66266"
     font-family="'Bitstream Vera Sans'"
     fill="#000000"><tspan
       id="tspan4089-7-2-9-1-9-5"
       y="-1324.5208"
       x="350.66266" /></text>
  <text
     id="text4087-2-6-5-5-52-2"
     opacity=".8"
     font-size="12.666px"
     xml:space="preserve"
     y="-1365.2626"
     x="374.62357"
     font-family="'Bitstream Vera Sans'"
     fill="#000000"><tspan
       id="tspan4089-7-2-9-6-4-6"
       y="-1365.2626"
       x="374.62357" /></text>
  <text
     id="text4087-2-6-5-3-4-5"
     opacity=".8"
     font-size="12.666px"
     xml:space="preserve"
     y="-1372.4724"
     x="-1116.8396"
     font-family="'Bitstream Vera Sans'"
     fill="#000000"><tspan
       id="tspan4089-7-2-9-18-3-8"
       y="-1372.4724"
       x="-1116.8396" /></text>
  <text
     id="text4087-2-6-5-4-7-7"
     opacity=".8"
     font-size="12.666px"
     xml:space="preserve"
     y="-1645.7065"
     x="343.70316"
     font-family="'Bitstream Vera Sans'"
     fill="#000000"><tspan
       id="tspan4089-7-2-9-9-54-9"
       y="-1645.7065"
       x="343.70316" /></text>
  <text
     id="text4087-2-6-5-7-1-2-6"
     opacity=".8"
     font-size="12.666px"
     xml:space="preserve"
     y="-1019.0153"
     x="1829.8265"
     font-family="'Bitstream Vera Sans'"
     fill="#000000"><tspan
       id="tspan4089-7-2-9-1-8-0-0"
       y="-1019.0153"
       x="1829.8265" /></text>
  <text
     id="text4087-2-6-5-5-5-6-4"
     opacity=".8"
     font-size="12.666px"
     xml:space="preserve"
     y="-1059.757"
     x="1853.7874"
     font-family="'Bitstream Vera Sans'"
     fill="#000000"><tspan
       id="tspan4089-7-2-9-6-9-8-1"
       y="-1059.757"
       x="1853.7874" /></text>
  <text
     id="text4087-2-6-5-75-4-0"
     opacity=".8"
     font-size="12.666px"
     xml:space="preserve"
     y="-1066.9668"
     x="362.32431"
     font-family="'Bitstream Vera Sans'"
     fill="#000000"><tspan
       id="tspan4089-7-2-9-3-9-4"
       y="-1066.9668"
       x="362.32431" /></text>
  <text
     id="text4087-2-6-5-4-8-1-8"
     opacity=".8"
     font-size="12.666px"
     xml:space="preserve"
     y="-1340.2009"
     x="1822.8671"
     font-family="'Bitstream Vera Sans'"
     fill="#000000"><tspan
       id="tspan4089-7-2-9-9-8-8-7"
       y="-1340.2009"
       x="1822.8671" /></text>
  <text
     id="text4087-2-6-5-45-0-0"
     opacity=".8"
     font-size="12.666px"
     xml:space="preserve"
     y="-1115.0581"
     x="-575.492"
     font-family="'Bitstream Vera Sans'"
     fill="#000000"><tspan
       id="tspan4089-7-2-9-75-2-8"
       y="-1115.0581"
       x="-575.492" /></text>
  <text
     id="text4087-2-6-5-59-5-6"
     opacity=".8"
     font-size="12.666px"
     xml:space="preserve"
     y="-369.50461"
     x="-2399.1777"
     font-family="'Bitstream Vera Sans'"
     fill="#000000"><tspan
       id="tspan4089-7-2-9-4-00-2"
       y="-369.50461"
       x="-2399.1777" /></text>
  <text
     id="text4087-2-6-5-264-4"
     opacity=".8"
     font-size="12.666px"
     xml:space="preserve"
     y="-276.63245"
     x="-684.42224"
     font-family="'Bitstream Vera Sans'"
     fill="#000000"><tspan
       id="tspan4089-7-2-9-8-7"
       y="-276.63245"
       x="-684.42224" /></text>
  <text
     id="text4087-2-6-5-42-9"
     opacity=".8"
     font-size="12.666px"
     xml:space="preserve"
     y="-35.718292"
     x="155.5923"
     font-family="'Bitstream Vera Sans'"
     fill="#000000"><tspan
       id="tspan4089-7-2-9-93-3"
       y="-35.718292"
       x="155.5923" /></text>
  <text
     id="text4087-2-6-5-5-05-9"
     opacity=".8"
     font-size="12.666px"
     xml:space="preserve"
     y="-76.460007"
     x="179.55324"
     font-family="'Bitstream Vera Sans'"
     fill="#000000"><tspan
       id="tspan4089-7-2-9-6-49-2"
       y="-76.460007"
       x="179.55324" /></text>
  <text
     id="text4087-2-6-5-1-4-8"
     opacity=".8"
     font-size="12.666px"
     xml:space="preserve"
     y="-270.48859"
     x="-1090.2634"
     font-family="'Bitstream Vera Sans'"
     fill="#000000"><tspan
       id="tspan4089-7-2-9-7-7-3"
       y="-270.48859"
       x="-1090.2634" /></text>
  <text
     id="text4087-2-6-5-7-56-0"
     opacity=".8"
     font-size="12.666px"
     xml:space="preserve"
     y="-683.9588"
     x="-282.66141"
     font-family="'Bitstream Vera Sans'"
     fill="#000000"><tspan
       id="tspan4089-7-2-9-1-1-1"
       y="-683.9588"
       x="-282.66141" /></text>
  <text
     id="text4087-2-6-5-5-8-7"
     opacity=".8"
     font-size="12.666px"
     xml:space="preserve"
     y="-724.7005"
     x="-258.70047"
     font-family="'Bitstream Vera Sans'"
     fill="#000000"><tspan
       id="tspan4089-7-2-9-6-7-8"
       y="-724.7005"
       x="-258.70047" /></text>
  <text
     id="text4087-2-6-5-3-42-9"
     opacity=".8"
     font-size="12.666px"
     xml:space="preserve"
     y="-731.91046"
     x="-1750.1636"
     font-family="'Bitstream Vera Sans'"
     fill="#000000"><tspan
       id="tspan4089-7-2-9-18-39-1"
       y="-731.91046"
       x="-1750.1636" /></text>
  <text
     id="text4087-2-6-5-4-4-5"
     opacity=".8"
     font-size="12.666px"
     xml:space="preserve"
     y="-1005.1445"
     x="-289.62085"
     font-family="'Bitstream Vera Sans'"
     fill="#000000"><tspan
       id="tspan4089-7-2-9-9-3-4"
       y="-1005.1445"
       x="-289.62085" /></text>
  <text
     id="text4087-2-6-5-7-1-0-9"
     opacity=".8"
     font-size="12.666px"
     xml:space="preserve"
     y="-378.45316"
     x="1196.5026"
     font-family="'Bitstream Vera Sans'"
     fill="#000000"><tspan
       id="tspan4089-7-2-9-1-8-5-2"
       y="-378.45316"
       x="1196.5026" /></text>
  <text
     id="text4087-2-6-5-5-5-5-5"
     opacity=".8"
     font-size="12.666px"
     xml:space="preserve"
     y="-419.19489"
     x="1220.4634"
     font-family="'Bitstream Vera Sans'"
     fill="#000000"><tspan
       id="tspan4089-7-2-9-6-9-2-7"
       y="-419.19489"
       x="1220.4634" /></text>
  <text
     id="text4087-2-6-5-75-9-4"
     opacity=".8"
     font-size="12.666px"
     xml:space="preserve"
     y="-426.40482"
     x="-270.99973"
     font-family="'Bitstream Vera Sans'"
     fill="#000000"><tspan
       id="tspan4089-7-2-9-3-1-9"
       y="-426.40482"
       x="-270.99973" /></text>
  <text
     id="text4087-2-6-5-4-8-18-9"
     opacity=".8"
     font-size="12.666px"
     xml:space="preserve"
     y="-699.63892"
     x="1189.5431"
     font-family="'Bitstream Vera Sans'"
     fill="#000000"><tspan
       id="tspan4089-7-2-9-9-8-4-4"
       y="-699.63892"
       x="1189.5431" /></text>
  <text
     id="text4087-2-6-5-45-3-5"
     opacity=".8"
     font-size="12.666px"
     xml:space="preserve"
     y="-474.49609"
     x="-1208.816"
     font-family="'Bitstream Vera Sans'"
     fill="#000000"><tspan
       id="tspan4089-7-2-9-75-7-9"
       y="-474.49609"
       x="-1208.816" /></text>
  <text
     id="text4087-2-6-5-59-8-3"
     opacity=".8"
     font-size="12.666px"
     xml:space="preserve"
     y="271.05743"
     x="-3032.5017"
     font-family="'Bitstream Vera Sans'"
     fill="#000000"><tspan
       id="tspan4089-7-2-9-4-2-5"
       y="271.05743"
       x="-3032.5017" /></text>
  <g
     id="layer4-0-7"
     transform="matrix(.90475 0 0 .90475 -716.75 -685.05)">
    <text
       id="text4087-2-6-5-20-0"
       opacity=".8"
       font-size="14px"
       xml:space="preserve"
       y="1159.4154"
       x="-664.2738"
       font-family="'Bitstream Vera Sans'"
       fill="#000000"><tspan
         id="tspan4089-7-2-9-82-8"
         y="1159.4154"
         x="-664.2738" /></text>
  </g>
  <text
     id="text7276"
     font-size="12.666px"
     xml:space="preserve"
     y="-377.22546"
     x="435.90427"
     font-family="'Droid Sans'"
     fill="#000000"><tspan
       id="tspan7278"
       y="-377.22546"
       x="435.90427" /><tspan
       id="tspan7280"
       y="-361.3924"
       x="435.90427" /></text>
  <text
     id="text4087-2-6-5-51"
     opacity=".8"
     font-size="12.666px"
     xml:space="preserve"
     y="-859.27002"
     x="901.0882"
     font-family="'Bitstream Vera Sans'"
     fill="#000000"><tspan
       id="tspan4089-7-2-9-97"
       y="-859.27002"
       x="901.0882" /></text>
  <text
     id="text4087-2-6-5-59-2"
     opacity=".8"
     font-size="12.666px"
     xml:space="preserve"
     y="-113.71655"
     x="-922.59778"
     font-family="'Bitstream Vera Sans'"
     fill="#000000"><tspan
       id="tspan4089-7-2-9-4-4"
       y="-113.71655"
       x="-922.59778" /></text>
  <text
     id="text4087-2-6-5-7-7"
     opacity=".8"
     font-size="12.666px"
     xml:space="preserve"
     y="-1144.2659"
     x="1628.1677"
     font-family="'Bitstream Vera Sans'"
     fill="#000000"><tspan
       id="tspan4089-7-2-9-1-6"
       y="-1144.2659"
       x="1628.1677" /></text>
  <text
     id="text4087-2-6-5-5-6"
     opacity=".8"
     font-size="12.666px"
     xml:space="preserve"
     y="-1185.0076"
     x="1652.1285"
     font-family="'Bitstream Vera Sans'"
     fill="#000000"><tspan
       id="tspan4089-7-2-9-6-53"
       y="-1185.0076"
       x="1652.1285" /></text>
  <text
     id="text4087-2-6-5-54"
     opacity=".8"
     font-size="12.666px"
     xml:space="preserve"
     y="-1192.2175"
     x="160.66542"
     font-family="'Bitstream Vera Sans'"
     fill="#000000"><tspan
       id="tspan4089-7-2-9-0"
       y="-1192.2175"
       x="160.66542" /></text>
  <text
     id="text4087-2-6-5-4-1"
     opacity=".8"
     font-size="12.666px"
     xml:space="preserve"
     y="-1465.4517"
     x="1621.2083"
     font-family="'Bitstream Vera Sans'"
     fill="#000000"><tspan
       id="tspan4089-7-2-9-9-28"
       y="-1465.4517"
       x="1621.2083" /></text>
  <rect
     style="fill:#fec006;fill-opacity:1"
     x="-29"
     y="-29"
     width="26"
     height="26"
     ry="1.3"
     rx="1.3"
     transform="matrix(0,-1,-1,0,0,0)"
     id="rect4203" />
  <path
     style="fill:#7ec242;fill-opacity:1"
     inkscape:connector-curvature="0"
     d="M 27.7,29 C 28.42,29 29,28.437 29,27.737 L 29,16 3,16 3,27.737 c 0,0.69979 0.5798,1.2632 1.3,1.2632 z"
     id="path4009" />
  <path
     style="opacity:0.2;fill:#ffffff"
     inkscape:connector-curvature="0"
     d="M 4.3008,3 C 3.5806,3 3,3.5806 3,4.3008 l 0,1 C 3,4.5806 3.5806,4 4.3008,4 l 23.398,0 c 0.72,0 1.301,0.5806 1.301,1.3008 l 0,-1 C 28.9998,3.5806 28.4188,3 27.6988,3 L 4.3008,3 Z"
     id="rect4481" />
  <path
     style="opacity:0.3"
     inkscape:connector-curvature="0"
     d="m 3,26.699 0,1 C 3,28.419 3.5806,29 4.3008,29 l 23.398,0 c 0.72,0 1.301,-0.581 1.301,-1.301 l 0,-1 c 0,0.72 -0.581,1.301 -1.301,1.301 l -23.398,0 c -0.7204,0 -1.301,-0.581 -1.301,-1.301 z"
     id="rect4442" />
  <g
     transform="matrix(0.54431894,0,0,0.54431894,2.6454485,2.1136212)"
     style="font-style:normal;font-weight:normal;font-size:15px;line-height:125%;font-family:sans-serif;letter-spacing:0px;word-spacing:0px;fill:#4d4d4d;fill-opacity:1;stroke:none;stroke-width:1px;stroke-linecap:butt;stroke-linejoin:miter;stroke-opacity:1"
     id="text5678">
    <path
       inkscape:connector-curvature="0"
       d="m 15.214355,19.853516 -7.1850581,0 0,-1.574707 2.5195311,-2.717286 q 0.476074,-0.512695 0.864258,-0.944824 0.388184,-0.432129 0.666504,-0.842285 0.27832,-0.410156 0.432129,-0.834961 0.153808,-0.424805 0.153808,-0.915527 0,-0.541992 -0.329589,-0.842285 -0.322266,-0.300293 -0.871583,-0.300293 -0.578613,0 -1.113281,0.285644 -0.5346677,0.285645 -1.1206052,0.812988 L 8,10.522461 Q 8.3295898,10.222168 8.6884766,9.9511719 9.0473633,9.6728516 9.4794922,9.4604492 9.9116211,9.2480469 10.431641,9.1235352 q 0.520019,-0.131836 1.16455,-0.131836 0.769043,0 1.376954,0.2124024 0.615234,0.2124023 1.047363,0.6079101 0.432129,0.3881833 0.65918,0.9448243 0.234375,0.556641 0.234375,1.252441 0,0.629883 -0.219727,1.208496 -0.219727,0.57129 -0.600586,1.12793 -0.380859,0.549317 -0.88623,1.098633 -0.498047,0.541992 -1.069336,1.105957 l -1.289063,1.296387 0,0.102539 4.365234,0 0,1.904297 z"
       style="font-style:normal;font-variant:normal;font-weight:bold;font-stretch:normal;font-size:15px;font-family:'Droid Sans';-inkscape-font-specification:'Droid Sans Bold';fill:#4d4d4d;fill-opacity:1"
       id="path5683" />
    <path
       inkscape:connector-curvature="0"
       d="m 23.490723,14.499512 q 0,1.296386 -0.205078,2.314453 -0.197754,1.018066 -0.644532,1.728515 -0.439453,0.71045 -1.142578,1.083985 Q 20.802734,20 19.813965,20 18.883789,20 18.195312,19.626465 17.506836,19.25293 17.052734,18.54248 q -0.454101,-0.710449 -0.681152,-1.728515 -0.219727,-1.018067 -0.219727,-2.314453 0,-1.296387 0.197754,-2.321778 0.205078,-1.02539 0.644532,-1.735839 0.439453,-0.7104497 1.135254,-1.0839848 0.6958,-0.3808594 1.68457,-0.3808594 0.922851,0 1.611328,0.3735351 0.688477,0.3735352 1.149902,1.0839841 0.461426,0.71045 0.688477,1.73584 0.227051,1.025391 0.227051,2.329102 z m -5.083008,0 q 0,1.831054 0.314941,2.753906 0.314942,0.922852 1.091309,0.922852 0.761719,0 1.091308,-0.915528 0.336914,-0.915527 0.336914,-2.76123 0,-1.838379 -0.336914,-2.761231 -0.329589,-0.930176 -1.091308,-0.930176 -0.388184,0 -0.65918,0.234375 -0.263672,0.234375 -0.432129,0.695801 -0.168457,0.461426 -0.241699,1.157227 -0.07324,0.688476 -0.07324,1.604004 z"
       style="font-style:normal;font-variant:normal;font-weight:bold;font-stretch:normal;font-size:15px;font-family:'Droid Sans';-inkscape-font-specification:'Droid Sans Bold';fill:#4d4d4d;fill-opacity:1"
       id="path5685" />
    <path
       inkscape:connector-curvature="0"
       d="m 31.898926,17.634277 -1.289063,0 0,2.219239 -2.20459,0 0,-2.219239 -4.423828,0 0,-1.574707 4.54834,-6.9140622 2.080078,0 0,6.7309572 1.289063,0 0,1.757812 z m -3.493653,-1.757812 0,-1.816406 q 0,-0.09522 0,-0.270996 0.0073,-0.183106 0.01465,-0.410157 0.0073,-0.227051 0.01465,-0.46875 0.01465,-0.241699 0.02197,-0.461426 0.01465,-0.219726 0.02197,-0.380859 0.01465,-0.168457 0.02197,-0.241699 l -0.06592,0 q -0.131836,0.307617 -0.300293,0.651855 -0.161132,0.344239 -0.373535,0.688477 l -1.787109,2.709961 2.43164,0 z"
       style="font-style:normal;font-variant:normal;font-weight:bold;font-stretch:normal;font-size:15px;font-family:'Droid Sans';-inkscape-font-specification:'Droid Sans Bold';fill:#4d4d4d;fill-opacity:1"
       id="path5687" />
    <path
       inkscape:connector-curvature="0"
       d="m 36.352051,9.0063477 q 0.666504,0 1.259765,0.1611328 0.593262,0.1611328 1.040039,0.4833984 0.446778,0.3222656 0.71045,0.8056641 0.263672,0.483398 0.263672,1.135254 0,0.483398 -0.146485,0.878906 -0.146484,0.388184 -0.402832,0.710449 -0.256348,0.314942 -0.60791,0.563965 -0.351563,0.249024 -0.761719,0.454102 0.424805,0.227051 0.827637,0.505371 0.410156,0.27832 0.725098,0.629883 0.314941,0.344238 0.505371,0.776367 0.190429,0.432129 0.190429,0.966797 0,0.666504 -0.263671,1.208496 -0.263672,0.541992 -0.739747,0.922851 -0.476074,0.38086 -1.142578,0.585938 Q 37.150391,20 36.352051,20 35.487793,20 34.813965,19.802246 34.140137,19.604492 33.678711,19.238281 33.217285,18.87207 32.975586,18.337402 32.741211,17.802734 32.741211,17.13623 q 0,-0.549316 0.161133,-0.988769 0.161133,-0.439453 0.439453,-0.791016 0.27832,-0.351562 0.651855,-0.622558 0.373535,-0.270996 0.79834,-0.476074 -0.358887,-0.227051 -0.673828,-0.490723 -0.314941,-0.270996 -0.549316,-0.593262 -0.227051,-0.32959 -0.366211,-0.725098 -0.131836,-0.395507 -0.131836,-0.871582 0,-0.637207 0.263672,-1.113281 0.270996,-0.4833982 0.725097,-0.8056639 0.454102,-0.3295898 1.047364,-0.4907226 0.593261,-0.1611328 1.245117,-0.1611328 z m -1.516114,7.9980473 q 0,0.292968 0.09521,0.541992 0.09522,0.241699 0.278321,0.41748 0.190429,0.175781 0.46875,0.27832 0.27832,0.09521 0.644531,0.09521 0.769043,0 1.149902,-0.358886 0.38086,-0.366211 0.38086,-0.959473 0,-0.307617 -0.131836,-0.549316 -0.124512,-0.249024 -0.32959,-0.454102 -0.197754,-0.212402 -0.454102,-0.388184 -0.256347,-0.175781 -0.512695,-0.336914 L 36.26416,15.187988 q -0.322265,0.161133 -0.585937,0.351563 -0.263672,0.183105 -0.454102,0.410156 -0.183105,0.219727 -0.285644,0.483398 -0.10254,0.263672 -0.10254,0.57129 z m 1.501465,-6.342774 q -0.241699,0 -0.454101,0.07324 -0.205078,0.07324 -0.358887,0.212403 -0.146484,0.13916 -0.234375,0.344238 -0.08789,0.205078 -0.08789,0.461426 0,0.307617 0.08789,0.534668 0.09522,0.219726 0.249023,0.395507 0.161133,0.168458 0.366211,0.307618 0.212403,0.131836 0.446778,0.263672 0.227051,-0.117188 0.432129,-0.256348 0.205078,-0.13916 0.358886,-0.314942 0.161133,-0.183105 0.256348,-0.410156 0.09522,-0.227051 0.09522,-0.520019 0,-0.256348 -0.08789,-0.461426 -0.08789,-0.205078 -0.241699,-0.344238 -0.153809,-0.139161 -0.366211,-0.212403 -0.212402,-0.07324 -0.461426,-0.07324 z"
       style="font-style:normal;font-variant:normal;font-weight:bold;font-stretch:normal;font-size:15px;font-family:'Droid Sans';-inkscape-font-specification:'Droid Sans Bold';fill:#4d4d4d;fill-opacity:1"
       id="path5689" />
  </g>
  <g
     id="g4378"
     style="opacity:0.2;fill:#000000;fill-opacity:1;enable-background:new"
     transform="matrix(0.05624993,0,0,0.05624993,8.5712293,13.431257)">
    <path
       inkscape:connector-curvature="0"
       id="path4380"
       style="fill:#000000;fill-opacity:1;enable-background:new"
       d="m 169.38,209.42 c 0,-11.268 0.0413,-47.099 0.0413,-47.099 l -9.2023,0 -0.0413,-16 c 13.531,0 9.0207,0.37559 15.786,-26.667 l 17.457,0 0,26.667 18.625,0 0.0413,16 -18.625,0 -0.0413,40.338 c -9e-5,4.196 0.87209,7.3592 2.6164,9.4894 1.7442,2.1303 4.0375,3.1954 6.88,3.1954 3.6152,0.35253 9.129,-1.4172 9.129,-1.4172 l 0,15.775 c -0.45223,0.32276 -22.225,6.9566 -33.828,0 -11.276,-6.7606 -8.8391,-20.282 -8.8391,-20.282 z" />
    <path
       inkscape:connector-curvature="0"
       id="path4382"
       style="fill:#000000;fill-opacity:1;enable-background:new"
       d="m 106.27,99 c -15.242,1.35e-4 -26.627,5.7792 -34.109,17.324 -7.4826,11.48 -11.205,28.069 -11.205,49.789 0,22.176 3.7229,39.094 11.205,50.704 5.2336,8.1205 12.23,13.385 20.99,15.819 0,0 1.7799,-0.0942 1.9247,1.8062 3.015,24.51 18.331,24.558 35.79,24.558 0,0 2.2552,0 2.2552,-2.2535 l 0,-13.521 c 0,-2.2535 -2.2552,-2.2535 -2.2552,-2.2535 -8.723,0 -10.984,0.57341 -13.32,-8.169 2.9545,-0.73167 5.6982,-1.728 8.2455,-3.0282 5.7504,-3.0003 10.494,-7.3588 14.236,-13.099 3.7412,-5.805 6.5144,-12.929 8.316,-21.408 1.8705,-8.4792 2.8189,-18.197 2.8189,-29.155 0,-21.981 -3.7957,-38.651 -11.417,-50 C 132.1238,104.699 120.9581,99 106.2701,99 Z m -0.14094,10.986 c 3.1951,1.3e-4 5.6415,1.1248 7.6817,3.4507 1.2032,1.3229 2.2614,3.0622 3.2418,5.1409 0.55407,1.5313 1.1063,3.1555 1.5505,5 1.1986,4.9784 2.049,11.015 2.5371,18.169 0.4871,7.142 0.70463,15.28 0.70472,24.366 -9e-5,9.1515 -0.21771,17.376 -0.70472,24.648 -0.488,7.2183 -1.34,13.346 -2.5371,18.451 -0.45033,1.8953 -0.97887,3.6211 -1.5505,5.2113 -0.0943,0.20575 -0.18526,0.43498 -0.28189,0.6338 -0.8968,1.8452 -1.8788,3.3984 -2.9599,4.6479 -2.0471,2.4535 -4.5009,3.5916 -7.6817,3.5916 -3.1809,2e-5 -5.6347,-1.1381 -7.6816,-3.5916 -2.002,-2.4917 -3.6488,-6.1311 -4.8627,-10.986 -1.2181,-4.9351 -2.0445,-10.97 -2.5371,-18.099 -0.49366,-7.2077 -0.77528,-15.396 -0.77519,-24.507 -9e-5,-9.0457 0.28162,-17.079 0.77519,-24.155 0.49249,-7.0624 1.3206,-13.016 2.5371,-17.817 1.2129,-4.7866 2.875,-8.3508 4.8627,-10.704 2.0401,-2.3258 4.4866,-3.4506 7.6816,-3.4507 z" />
  </g>
  <g
     transform="matrix(0.05624993,0,0,0.05624993,8.5712293,12.431257)"
     style="fill:#ffffff;fill-opacity:1;enable-background:new"
     id="g4162">
    <path
       d="m 169.38,209.42 c 0,-11.268 0.0413,-47.099 0.0413,-47.099 l -9.2023,0 -0.0413,-16 c 13.531,0 9.0207,0.37559 15.786,-26.667 l 17.457,0 0,26.667 18.625,0 0.0413,16 -18.625,0 -0.0413,40.338 c -9e-5,4.196 0.87209,7.3592 2.6164,9.4894 1.7442,2.1303 4.0375,3.1954 6.88,3.1954 3.6152,0.35253 9.129,-1.4172 9.129,-1.4172 l 0,15.775 c -0.45223,0.32276 -22.225,6.9566 -33.828,0 -11.276,-6.7606 -8.8391,-20.282 -8.8391,-20.282 z"
       style="fill:#ffffff;fill-opacity:1;enable-background:new"
       id="path4164"
       inkscape:connector-curvature="0" />
    <path
       d="m 106.27,99 c -15.242,1.35e-4 -26.627,5.7792 -34.109,17.324 -7.4826,11.48 -11.205,28.069 -11.205,49.789 0,22.176 3.7229,39.094 11.205,50.704 5.2336,8.1205 12.23,13.385 20.99,15.819 0,0 1.7799,-0.0942 1.9247,1.8062 3.015,24.51 18.331,24.558 35.79,24.558 0,0 2.2552,0 2.2552,-2.2535 l 0,-13.521 c 0,-2.2535 -2.2552,-2.2535 -2.2552,-2.2535 -8.723,0 -10.984,0.57341 -13.32,-8.169 2.9545,-0.73167 5.6982,-1.728 8.2455,-3.0282 5.7504,-3.0003 10.494,-7.3588 14.236,-13.099 3.7412,-5.805 6.5144,-12.929 8.316,-21.408 1.8705,-8.4792 2.8189,-18.197 2.8189,-29.155 0,-21.981 -3.7957,-38.651 -11.417,-50 C 132.1238,104.699 120.9581,99 106.2701,99 Z m -0.14094,10.986 c 3.1951,1.3e-4 5.6415,1.1248 7.6817,3.4507 1.2032,1.3229 2.2614,3.0622 3.2418,5.1409 0.55407,1.5313 1.1063,3.1555 1.5505,5 1.1986,4.9784 2.049,11.015 2.5371,18.169 0.4871,7.142 0.70463,15.28 0.70472,24.366 -9e-5,9.1515 -0.21771,17.376 -0.70472,24.648 -0.488,7.2183 -1.34,13.346 -2.5371,18.451 -0.45033,1.8953 -0.97887,3.6211 -1.5505,5.2113 -0.0943,0.20575 -0.18526,0.43498 -0.28189,0.6338 -0.8968,1.8452 -1.8788,3.3984 -2.9599,4.6479 -2.0471,2.4535 -4.5009,3.5916 -7.6817,3.5916 -3.1809,2e-5 -5.6347,-1.1381 -7.6816,-3.5916 -2.002,-2.4917 -3.6488,-6.1311 -4.8627,-10.986 -1.2181,-4.9351 -2.0445,-10.97 -2.5371,-18.099 -0.49366,-7.2077 -0.77528,-15.396 -0.77519,-24.507 -9e-5,-9.0457 0.28162,-17.079 0.77519,-24.155 0.49249,-7.0624 1.3206,-13.016 2.5371,-17.817 1.2129,-4.7866 2.875,-8.3508 4.8627,-10.704 2.0401,-2.3258 4.4866,-3.4506 7.6816,-3.4507 z"
       style="fill:#ffffff;fill-opacity:1;enable-background:new"
       id="path4166"
       inkscape:connector-curvature="0" />
  </g>
</svg>
