<?xml version="1.0" encoding="UTF-8" standalone="no"?>
<!-- Created with Inkscape (http://www.inkscape.org/) -->

<svg
   xmlns:dc="http://purl.org/dc/elements/1.1/"
   xmlns:cc="http://creativecommons.org/ns#"
   xmlns:rdf="http://www.w3.org/1999/02/22-rdf-syntax-ns#"
   xmlns:svg="http://www.w3.org/2000/svg"
   xmlns="http://www.w3.org/2000/svg"
   xmlns:sodipodi="http://sodipodi.sourceforge.net/DTD/sodipodi-0.dtd"
   xmlns:inkscape="http://www.inkscape.org/namespaces/inkscape"
   id="svg2817"
   height="32"
   width="32"
   version="1.0"
   inkscape:version="0.91 r"
   sodipodi:docname="application-x-deb.svg">
  <sodipodi:namedview
     pagecolor="#ffffff"
     bordercolor="#666666"
     borderopacity="1"
     objecttolerance="10"
     gridtolerance="10"
     guidetolerance="10"
     inkscape:pageopacity="0"
     inkscape:pageshadow="2"
     inkscape:window-width="1600"
     inkscape:window-height="846"
     id="namedview243"
     showgrid="false"
     inkscape:zoom="7.375"
     inkscape:cx="16"
     inkscape:cy="16"
     inkscape:window-x="-5"
     inkscape:window-y="28"
     inkscape:window-maximized="1"
     inkscape:current-layer="svg2817" />
  <metadata
     id="metadata57">
    <rdf:RDF>
      <cc:Work
         rdf:about="">
        <dc:format>image/svg+xml</dc:format>
        <dc:type
           rdf:resource="http://purl.org/dc/dcmitype/StillImage" />
        <dc:title />
      </cc:Work>
    </rdf:RDF>
  </metadata>
  <defs
     id="defs2819">
    <filter
       id="filter5085"
       style="color-interpolation-filters:sRGB"
       height="1.2167"
       width="1.2697"
       y="-.10834"
       x="-.13485">
      <feGaussianBlur
         id="feGaussianBlur5087"
         stdDeviation="4.0708421" />
    </filter>
  </defs>
  <text
     id="text4087-2-6-5"
     opacity=".8"
     xml:space="preserve"
     font-size="12.666px"
     y="-5.1873989"
     x="877.22626"
     font-family="'Bitstream Vera Sans'"
     fill="#000000"><tspan
       id="tspan4089-7-2-9"
       y="-5.1873989"
       x="877.22626" /></text>
  <text
     id="text4087-2-6-5-5"
     opacity=".8"
     xml:space="preserve"
     font-size="12.666px"
     y="-45.929108"
     x="901.18719"
     font-family="'Bitstream Vera Sans'"
     fill="#000000"><tspan
       id="tspan4089-7-2-9-6"
       y="-45.929108"
       x="901.18719" /></text>
  <text
     id="text4087-2-6-5-2"
     opacity=".8"
     xml:space="preserve"
     font-size="12.666px"
     y="-76.007248"
     x="-569.37115"
     font-family="'Bitstream Vera Sans'"
     fill="#000000"><tspan
       id="tspan4089-7-2-9-2"
       y="-76.007248"
       x="-569.37115" /></text>
  <text
     id="text4087-2-6-5-59"
     opacity=".8"
     xml:space="preserve"
     font-size="12.666px"
     y="669.5462"
     x="-2393.0571"
     font-family="'Bitstream Vera Sans'"
     fill="#000000"><tspan
       id="tspan4089-7-2-9-4"
       y="669.5462"
       x="-2393.0571" /></text>
  <text
     id="text4087-2-6-5-1"
     opacity=".8"
     xml:space="preserve"
     font-size="12.666px"
     y="-461.32822"
     x="-454.88007"
     font-family="'Bitstream Vera Sans'"
     fill="#000000"><tspan
       id="tspan4089-7-2-9-7"
       y="-461.32822"
       x="-454.88007" /></text>
  <text
     id="text4087-2-6-5-7"
     opacity=".8"
     xml:space="preserve"
     font-size="12.666px"
     y="-874.79834"
     x="352.72208"
     font-family="'Bitstream Vera Sans'"
     fill="#000000"><tspan
       id="tspan4089-7-2-9-1"
       y="-874.79834"
       x="352.72208" /></text>
  <text
     id="text4087-2-6-5-5-3"
     opacity=".8"
     xml:space="preserve"
     font-size="12.666px"
     y="-915.54004"
     x="376.68301"
     font-family="'Bitstream Vera Sans'"
     fill="#000000"><tspan
       id="tspan4089-7-2-9-6-5"
       y="-915.54004"
       x="376.68301" /></text>
  <text
     id="text4087-2-6-5-3"
     opacity=".8"
     xml:space="preserve"
     font-size="12.666px"
     y="-922.74994"
     x="-1114.7802"
     font-family="'Bitstream Vera Sans'"
     fill="#000000"><tspan
       id="tspan4089-7-2-9-18"
       y="-922.74994"
       x="-1114.7802" /></text>
  <text
     id="text4087-2-6-5-4"
     opacity=".8"
     xml:space="preserve"
     font-size="12.666px"
     y="-1195.9841"
     x="345.7626"
     font-family="'Bitstream Vera Sans'"
     fill="#000000"><tspan
       id="tspan4089-7-2-9-9"
       y="-1195.9841"
       x="345.7626" /></text>
  <text
     id="text4087-2-6-5-7-1"
     opacity=".8"
     xml:space="preserve"
     font-size="12.666px"
     y="-569.29272"
     x="1831.8861"
     font-family="'Bitstream Vera Sans'"
     fill="#000000"><tspan
       id="tspan4089-7-2-9-1-8"
       y="-569.29272"
       x="1831.8861" /></text>
  <text
     id="text4087-2-6-5-5-5"
     opacity=".8"
     xml:space="preserve"
     font-size="12.666px"
     y="-610.03448"
     x="1855.8469"
     font-family="'Bitstream Vera Sans'"
     fill="#000000"><tspan
       id="tspan4089-7-2-9-6-9"
       y="-610.03448"
       x="1855.8469" /></text>
  <text
     id="text4087-2-6-5-75"
     opacity=".8"
     xml:space="preserve"
     font-size="12.666px"
     y="-617.24438"
     x="364.38376"
     font-family="'Bitstream Vera Sans'"
     fill="#000000"><tspan
       id="tspan4089-7-2-9-3"
       y="-617.24438"
       x="364.38376" /></text>
  <text
     id="text4087-2-6-5-4-8"
     opacity=".8"
     xml:space="preserve"
     font-size="12.666px"
     y="-890.47839"
     x="1824.9266"
     font-family="'Bitstream Vera Sans'"
     fill="#000000"><tspan
       id="tspan4089-7-2-9-9-8"
       y="-890.47839"
       x="1824.9266" /></text>
  <text
     id="text4087-2-6-5-45"
     opacity=".8"
     xml:space="preserve"
     font-size="12.666px"
     y="-665.33569"
     x="-573.43256"
     font-family="'Bitstream Vera Sans'"
     fill="#000000"><tspan
       id="tspan4089-7-2-9-75"
       y="-665.33569"
       x="-573.43256" /></text>
  <text
     id="text4087-2-6-5-59-7"
     opacity=".8"
     xml:space="preserve"
     font-size="12.666px"
     y="80.217857"
     x="-2397.1182"
     font-family="'Bitstream Vera Sans'"
     fill="#000000"><tspan
       id="tspan4089-7-2-9-4-0"
       y="80.217857"
       x="-2397.1182" /></text>
  <text
     id="text4087-2-6-5-8"
     opacity=".8"
     xml:space="preserve"
     font-size="12.666px"
     y="173.09"
     x="-682.36279"
     font-family="'Bitstream Vera Sans'"
     fill="#000000"><tspan
       id="tspan4089-7-2-9-19"
       y="173.09"
       x="-682.36279" /></text>
  <text
     id="text4087-2-6-5-7-5"
     opacity=".8"
     xml:space="preserve"
     font-size="12.666px"
     y="-6.0921478"
     x="426.66153"
     font-family="'Bitstream Vera Sans'"
     fill="#000000"><tspan
       id="tspan4089-7-2-9-1-2"
       y="-6.0921478"
       x="426.66153" /></text>
  <text
     id="text4087-2-6-5-5-0"
     opacity=".8"
     xml:space="preserve"
     font-size="12.666px"
     y="-46.833855"
     x="450.62247"
     font-family="'Bitstream Vera Sans'"
     fill="#000000"><tspan
       id="tspan4089-7-2-9-6-2"
       y="-46.833855"
       x="450.62247" /></text>
  <text
     id="text4087-2-6-5-26"
     opacity=".8"
     xml:space="preserve"
     font-size="12.666px"
     y="-54.043827"
     x="-1040.8407"
     font-family="'Bitstream Vera Sans'"
     fill="#000000"><tspan
       id="tspan4089-7-2-9-90"
       y="-54.043827"
       x="-1040.8407" /></text>
  <text
     id="text4087-2-6-5-4-3"
     opacity=".8"
     xml:space="preserve"
     font-size="12.666px"
     y="-327.27789"
     x="419.70206"
     font-family="'Bitstream Vera Sans'"
     fill="#000000"><tspan
       id="tspan4089-7-2-9-9-5"
       y="-327.27789"
       x="419.70206" /></text>
  <text
     id="text4087-2-6-5-55"
     opacity=".8"
     xml:space="preserve"
     font-size="12.666px"
     y="-56.758072"
     x="-608.03253"
     font-family="'Bitstream Vera Sans'"
     fill="#000000"><tspan
       id="tspan4089-7-2-9-32"
       y="-56.758072"
       x="-608.03253" /></text>
  <text
     id="text4087-2-6-5-59-9"
     opacity=".8"
     xml:space="preserve"
     font-size="12.666px"
     y="688.79541"
     x="-2431.7185"
     font-family="'Bitstream Vera Sans'"
     fill="#000000"><tspan
       id="tspan4089-7-2-9-4-1"
       y="688.79541"
       x="-2431.7185" /></text>
  <text
     id="text4087-2-6-5-1-8"
     opacity=".8"
     xml:space="preserve"
     font-size="12.666px"
     y="-918.28857"
     x="-456.93948"
     font-family="'Bitstream Vera Sans'"
     fill="#000000"><tspan
       id="tspan4089-7-2-9-7-8"
       y="-918.28857"
       x="-456.93948" /></text>
  <text
     id="text4087-2-6-5-7-8"
     opacity=".8"
     xml:space="preserve"
     font-size="12.666px"
     y="-1331.7588"
     x="350.66266"
     font-family="'Bitstream Vera Sans'"
     fill="#000000"><tspan
       id="tspan4089-7-2-9-1-9"
       y="-1331.7588"
       x="350.66266" /></text>
  <text
     id="text4087-2-6-5-5-52"
     opacity=".8"
     xml:space="preserve"
     font-size="12.666px"
     y="-1372.5005"
     x="374.62357"
     font-family="'Bitstream Vera Sans'"
     fill="#000000"><tspan
       id="tspan4089-7-2-9-6-4"
       y="-1372.5005"
       x="374.62357" /></text>
  <text
     id="text4087-2-6-5-3-4"
     opacity=".8"
     xml:space="preserve"
     font-size="12.666px"
     y="-1379.7104"
     x="-1116.8396"
     font-family="'Bitstream Vera Sans'"
     fill="#000000"><tspan
       id="tspan4089-7-2-9-18-3"
       y="-1379.7104"
       x="-1116.8396" /></text>
  <text
     id="text4087-2-6-5-4-7"
     opacity=".8"
     xml:space="preserve"
     font-size="12.666px"
     y="-1652.9446"
     x="343.70316"
     font-family="'Bitstream Vera Sans'"
     fill="#000000"><tspan
       id="tspan4089-7-2-9-9-54"
       y="-1652.9446"
       x="343.70316" /></text>
  <text
     id="text4087-2-6-5-7-1-2"
     opacity=".8"
     xml:space="preserve"
     font-size="12.666px"
     y="-1026.2533"
     x="1829.8265"
     font-family="'Bitstream Vera Sans'"
     fill="#000000"><tspan
       id="tspan4089-7-2-9-1-8-0"
       y="-1026.2533"
       x="1829.8265" /></text>
  <text
     id="text4087-2-6-5-5-5-6"
     opacity=".8"
     xml:space="preserve"
     font-size="12.666px"
     y="-1066.9949"
     x="1853.7874"
     font-family="'Bitstream Vera Sans'"
     fill="#000000"><tspan
       id="tspan4089-7-2-9-6-9-8"
       y="-1066.9949"
       x="1853.7874" /></text>
  <text
     id="text4087-2-6-5-75-4"
     opacity=".8"
     xml:space="preserve"
     font-size="12.666px"
     y="-1074.2048"
     x="362.32431"
     font-family="'Bitstream Vera Sans'"
     fill="#000000"><tspan
       id="tspan4089-7-2-9-3-9"
       y="-1074.2048"
       x="362.32431" /></text>
  <text
     id="text4087-2-6-5-4-8-1"
     opacity=".8"
     xml:space="preserve"
     font-size="12.666px"
     y="-1347.439"
     x="1822.8671"
     font-family="'Bitstream Vera Sans'"
     fill="#000000"><tspan
       id="tspan4089-7-2-9-9-8-8"
       y="-1347.439"
       x="1822.8671" /></text>
  <text
     id="text4087-2-6-5-45-0"
     opacity=".8"
     xml:space="preserve"
     font-size="12.666px"
     y="-1122.2961"
     x="-575.492"
     font-family="'Bitstream Vera Sans'"
     fill="#000000"><tspan
       id="tspan4089-7-2-9-75-2"
       y="-1122.2961"
       x="-575.492" /></text>
  <text
     id="text4087-2-6-5-59-5"
     opacity=".8"
     xml:space="preserve"
     font-size="12.666px"
     y="-376.74261"
     x="-2399.1777"
     font-family="'Bitstream Vera Sans'"
     fill="#000000"><tspan
       id="tspan4089-7-2-9-4-00"
       y="-376.74261"
       x="-2399.1777" /></text>
  <text
     id="text4087-2-6-5-264"
     opacity=".8"
     xml:space="preserve"
     font-size="12.666px"
     y="-283.87045"
     x="-684.42224"
     font-family="'Bitstream Vera Sans'"
     fill="#000000"><tspan
       id="tspan4089-7-2-9-8"
       y="-283.87045"
       x="-684.42224" /></text>
  <text
     id="text4087-2-6-5-42"
     opacity=".8"
     xml:space="preserve"
     font-size="12.666px"
     y="-42.956276"
     x="155.5923"
     font-family="'Bitstream Vera Sans'"
     fill="#000000"><tspan
       id="tspan4089-7-2-9-93"
       y="-42.956276"
       x="155.5923" /></text>
  <text
     id="text4087-2-6-5-5-05"
     opacity=".8"
     xml:space="preserve"
     font-size="12.666px"
     y="-83.697998"
     x="179.55324"
     font-family="'Bitstream Vera Sans'"
     fill="#000000"><tspan
       id="tspan4089-7-2-9-6-49"
       y="-83.697998"
       x="179.55324" /></text>
  <text
     id="text4087-2-6-5-1-4"
     opacity=".8"
     xml:space="preserve"
     font-size="12.666px"
     y="-277.72662"
     x="-1090.2634"
     font-family="'Bitstream Vera Sans'"
     fill="#000000"><tspan
       id="tspan4089-7-2-9-7-7"
       y="-277.72662"
       x="-1090.2634" /></text>
  <text
     id="text4087-2-6-5-7-56"
     opacity=".8"
     xml:space="preserve"
     font-size="12.666px"
     y="-691.19678"
     x="-282.66141"
     font-family="'Bitstream Vera Sans'"
     fill="#000000"><tspan
       id="tspan4089-7-2-9-1-1"
       y="-691.19678"
       x="-282.66141" /></text>
  <text
     id="text4087-2-6-5-5-8"
     opacity=".8"
     xml:space="preserve"
     font-size="12.666px"
     y="-731.93848"
     x="-258.70047"
     font-family="'Bitstream Vera Sans'"
     fill="#000000"><tspan
       id="tspan4089-7-2-9-6-7"
       y="-731.93848"
       x="-258.70047" /></text>
  <text
     id="text4087-2-6-5-3-42"
     opacity=".8"
     xml:space="preserve"
     font-size="12.666px"
     y="-739.14838"
     x="-1750.1636"
     font-family="'Bitstream Vera Sans'"
     fill="#000000"><tspan
       id="tspan4089-7-2-9-18-39"
       y="-739.14838"
       x="-1750.1636" /></text>
  <text
     id="text4087-2-6-5-4-4"
     opacity=".8"
     xml:space="preserve"
     font-size="12.666px"
     y="-1012.3825"
     x="-289.62085"
     font-family="'Bitstream Vera Sans'"
     fill="#000000"><tspan
       id="tspan4089-7-2-9-9-3"
       y="-1012.3825"
       x="-289.62085" /></text>
  <text
     id="text4087-2-6-5-7-1-0"
     opacity=".8"
     xml:space="preserve"
     font-size="12.666px"
     y="-385.69113"
     x="1196.5026"
     font-family="'Bitstream Vera Sans'"
     fill="#000000"><tspan
       id="tspan4089-7-2-9-1-8-5"
       y="-385.69113"
       x="1196.5026" /></text>
  <text
     id="text4087-2-6-5-5-5-5"
     opacity=".8"
     xml:space="preserve"
     font-size="12.666px"
     y="-426.43286"
     x="1220.4634"
     font-family="'Bitstream Vera Sans'"
     fill="#000000"><tspan
       id="tspan4089-7-2-9-6-9-2"
       y="-426.43286"
       x="1220.4634" /></text>
  <text
     id="text4087-2-6-5-75-9"
     opacity=".8"
     xml:space="preserve"
     font-size="12.666px"
     y="-433.64282"
     x="-270.99973"
     font-family="'Bitstream Vera Sans'"
     fill="#000000"><tspan
       id="tspan4089-7-2-9-3-1"
       y="-433.64282"
       x="-270.99973" /></text>
  <text
     id="text4087-2-6-5-4-8-18"
     opacity=".8"
     xml:space="preserve"
     font-size="12.666px"
     y="-706.87689"
     x="1189.5431"
     font-family="'Bitstream Vera Sans'"
     fill="#000000"><tspan
       id="tspan4089-7-2-9-9-8-4"
       y="-706.87689"
       x="1189.5431" /></text>
  <text
     id="text4087-2-6-5-45-3"
     opacity=".8"
     xml:space="preserve"
     font-size="12.666px"
     y="-481.7341"
     x="-1208.816"
     font-family="'Bitstream Vera Sans'"
     fill="#000000"><tspan
       id="tspan4089-7-2-9-75-7"
       y="-481.7341"
       x="-1208.816" /></text>
  <text
     id="text4087-2-6-5-59-8"
     opacity=".8"
     xml:space="preserve"
     font-size="12.666px"
     y="263.81946"
     x="-3032.5017"
     font-family="'Bitstream Vera Sans'"
     fill="#000000"><tspan
       id="tspan4089-7-2-9-4-2"
       y="263.81946"
       x="-3032.5017" /></text>
  <g
     id="layer4-0"
     transform="matrix(.90475 0 0 .90475 -716.75 -692.29)">
    <text
       id="text4087-2-6-5-20"
       opacity=".8"
       xml:space="preserve"
       font-size="14px"
       y="1159.4154"
       x="-664.2738"
       font-family="'Bitstream Vera Sans'"
       fill="#000000"><tspan
         id="tspan4089-7-2-9-82"
         y="1159.4154"
         x="-664.2738" /></text>
  </g>
  <text
     id="text4087-2-6-5-9"
     opacity=".8"
     xml:space="preserve"
     font-size="12.666px"
     y="2.0505886"
     x="877.22626"
     font-family="'Bitstream Vera Sans'"
     fill="#000000"><tspan
       id="tspan4089-7-2-9-43"
       y="2.0505886"
       x="877.22626" /></text>
  <text
     id="text4087-2-6-5-5-51"
     opacity=".8"
     xml:space="preserve"
     font-size="12.666px"
     y="-38.691116"
     x="901.18719"
     font-family="'Bitstream Vera Sans'"
     fill="#000000"><tspan
       id="tspan4089-7-2-9-6-74"
       y="-38.691116"
       x="901.18719" /></text>
  <text
     id="text4087-2-6-5-2-3"
     opacity=".8"
     xml:space="preserve"
     font-size="12.666px"
     y="-68.769257"
     x="-569.37115"
     font-family="'Bitstream Vera Sans'"
     fill="#000000"><tspan
       id="tspan4089-7-2-9-2-1"
       y="-68.769257"
       x="-569.37115" /></text>
  <text
     id="text4087-2-6-5-59-4"
     opacity=".8"
     xml:space="preserve"
     font-size="12.666px"
     y="676.78418"
     x="-2393.0571"
     font-family="'Bitstream Vera Sans'"
     fill="#000000"><tspan
       id="tspan4089-7-2-9-4-6"
       y="676.78418"
       x="-2393.0571" /></text>
  <text
     id="text4087-2-6-5-1-9"
     opacity=".8"
     xml:space="preserve"
     font-size="12.666px"
     y="-454.09021"
     x="-454.88007"
     font-family="'Bitstream Vera Sans'"
     fill="#000000"><tspan
       id="tspan4089-7-2-9-7-4"
       y="-454.09021"
       x="-454.88007" /></text>
  <text
     id="text4087-2-6-5-7-2"
     opacity=".8"
     xml:space="preserve"
     font-size="12.666px"
     y="-867.5603"
     x="352.72208"
     font-family="'Bitstream Vera Sans'"
     fill="#000000"><tspan
       id="tspan4089-7-2-9-1-26"
       y="-867.5603"
       x="352.72208" /></text>
  <text
     id="text4087-2-6-5-5-3-4"
     opacity=".8"
     xml:space="preserve"
     font-size="12.666px"
     y="-908.30206"
     x="376.68301"
     font-family="'Bitstream Vera Sans'"
     fill="#000000"><tspan
       id="tspan4089-7-2-9-6-5-1"
       y="-908.30206"
       x="376.68301" /></text>
  <text
     id="text4087-2-6-5-3-2"
     opacity=".8"
     xml:space="preserve"
     font-size="12.666px"
     y="-915.51196"
     x="-1114.7802"
     font-family="'Bitstream Vera Sans'"
     fill="#000000"><tspan
       id="tspan4089-7-2-9-18-8"
       y="-915.51196"
       x="-1114.7802" /></text>
  <text
     id="text4087-2-6-5-4-89"
     opacity=".8"
     xml:space="preserve"
     font-size="12.666px"
     y="-1188.7461"
     x="345.7626"
     font-family="'Bitstream Vera Sans'"
     fill="#000000"><tspan
       id="tspan4089-7-2-9-9-2"
       y="-1188.7461"
       x="345.7626" /></text>
  <text
     id="text4087-2-6-5-7-1-8"
     opacity=".8"
     xml:space="preserve"
     font-size="12.666px"
     y="-562.05475"
     x="1831.8861"
     font-family="'Bitstream Vera Sans'"
     fill="#000000"><tspan
       id="tspan4089-7-2-9-1-8-8"
       y="-562.05475"
       x="1831.8861" /></text>
  <text
     id="text4087-2-6-5-5-5-8"
     opacity=".8"
     xml:space="preserve"
     font-size="12.666px"
     y="-602.79651"
     x="1855.8469"
     font-family="'Bitstream Vera Sans'"
     fill="#000000"><tspan
       id="tspan4089-7-2-9-6-9-6"
       y="-602.79651"
       x="1855.8469" /></text>
  <text
     id="text4087-2-6-5-75-8"
     opacity=".8"
     xml:space="preserve"
     font-size="12.666px"
     y="-610.00641"
     x="364.38376"
     font-family="'Bitstream Vera Sans'"
     fill="#000000"><tspan
       id="tspan4089-7-2-9-3-3"
       y="-610.00641"
       x="364.38376" /></text>
  <text
     id="text4087-2-6-5-4-8-8"
     opacity=".8"
     xml:space="preserve"
     font-size="12.666px"
     y="-883.24036"
     x="1824.9266"
     font-family="'Bitstream Vera Sans'"
     fill="#000000"><tspan
       id="tspan4089-7-2-9-9-8-3"
       y="-883.24036"
       x="1824.9266" /></text>
  <text
     id="text4087-2-6-5-45-33"
     opacity=".8"
     xml:space="preserve"
     font-size="12.666px"
     y="-658.09772"
     x="-573.43256"
     font-family="'Bitstream Vera Sans'"
     fill="#000000"><tspan
       id="tspan4089-7-2-9-75-8"
       y="-658.09772"
       x="-573.43256" /></text>
  <text
     id="text4087-2-6-5-59-7-0"
     opacity=".8"
     xml:space="preserve"
     font-size="12.666px"
     y="87.455849"
     x="-2397.1182"
     font-family="'Bitstream Vera Sans'"
     fill="#000000"><tspan
       id="tspan4089-7-2-9-4-0-4"
       y="87.455849"
       x="-2397.1182" /></text>
  <text
     id="text4087-2-6-5-8-7"
     opacity=".8"
     xml:space="preserve"
     font-size="12.666px"
     y="180.32799"
     x="-682.36279"
     font-family="'Bitstream Vera Sans'"
     fill="#000000"><tspan
       id="tspan4089-7-2-9-19-6"
       y="180.32799"
       x="-682.36279" /></text>
  <text
     id="text4087-2-6-5-7-5-8"
     opacity=".8"
     xml:space="preserve"
     font-size="12.666px"
     y="1.1458397"
     x="426.66153"
     font-family="'Bitstream Vera Sans'"
     fill="#000000"><tspan
       id="tspan4089-7-2-9-1-2-9"
       y="1.1458397"
       x="426.66153" /></text>
  <text
     id="text4087-2-6-5-5-0-0"
     opacity=".8"
     xml:space="preserve"
     font-size="12.666px"
     y="-39.595863"
     x="450.62247"
     font-family="'Bitstream Vera Sans'"
     fill="#000000"><tspan
       id="tspan4089-7-2-9-6-2-6"
       y="-39.595863"
       x="450.62247" /></text>
  <text
     id="text4087-2-6-5-26-8"
     opacity=".8"
     xml:space="preserve"
     font-size="12.666px"
     y="-46.805836"
     x="-1040.8407"
     font-family="'Bitstream Vera Sans'"
     fill="#000000"><tspan
       id="tspan4089-7-2-9-90-7"
       y="-46.805836"
       x="-1040.8407" /></text>
  <text
     id="text4087-2-6-5-4-3-9"
     opacity=".8"
     xml:space="preserve"
     font-size="12.666px"
     y="-320.03989"
     x="419.70206"
     font-family="'Bitstream Vera Sans'"
     fill="#000000"><tspan
       id="tspan4089-7-2-9-9-5-0"
       y="-320.03989"
       x="419.70206" /></text>
  <text
     id="text4087-2-6-5-55-3"
     opacity=".8"
     xml:space="preserve"
     font-size="12.666px"
     y="-49.520081"
     x="-608.03253"
     font-family="'Bitstream Vera Sans'"
     fill="#000000"><tspan
       id="tspan4089-7-2-9-32-3"
       y="-49.520081"
       x="-608.03253" /></text>
  <text
     id="text4087-2-6-5-59-9-3"
     opacity=".8"
     xml:space="preserve"
     font-size="12.666px"
     y="696.03345"
     x="-2431.7185"
     font-family="'Bitstream Vera Sans'"
     fill="#000000"><tspan
       id="tspan4089-7-2-9-4-1-7"
       y="696.03345"
       x="-2431.7185" /></text>
  <text
     id="text4087-2-6-5-1-8-3"
     opacity=".8"
     xml:space="preserve"
     font-size="12.666px"
     y="-911.0506"
     x="-456.93948"
     font-family="'Bitstream Vera Sans'"
     fill="#000000"><tspan
       id="tspan4089-7-2-9-7-8-2"
       y="-911.0506"
       x="-456.93948" /></text>
  <text
     id="text4087-2-6-5-7-8-6"
     opacity=".8"
     xml:space="preserve"
     font-size="12.666px"
     y="-1324.5208"
     x="350.66266"
     font-family="'Bitstream Vera Sans'"
     fill="#000000"><tspan
       id="tspan4089-7-2-9-1-9-5"
       y="-1324.5208"
       x="350.66266" /></text>
  <text
     id="text4087-2-6-5-5-52-2"
     opacity=".8"
     xml:space="preserve"
     font-size="12.666px"
     y="-1365.2626"
     x="374.62357"
     font-family="'Bitstream Vera Sans'"
     fill="#000000"><tspan
       id="tspan4089-7-2-9-6-4-6"
       y="-1365.2626"
       x="374.62357" /></text>
  <text
     id="text4087-2-6-5-3-4-5"
     opacity=".8"
     xml:space="preserve"
     font-size="12.666px"
     y="-1372.4724"
     x="-1116.8396"
     font-family="'Bitstream Vera Sans'"
     fill="#000000"><tspan
       id="tspan4089-7-2-9-18-3-8"
       y="-1372.4724"
       x="-1116.8396" /></text>
  <text
     id="text4087-2-6-5-4-7-7"
     opacity=".8"
     xml:space="preserve"
     font-size="12.666px"
     y="-1645.7065"
     x="343.70316"
     font-family="'Bitstream Vera Sans'"
     fill="#000000"><tspan
       id="tspan4089-7-2-9-9-54-9"
       y="-1645.7065"
       x="343.70316" /></text>
  <text
     id="text4087-2-6-5-7-1-2-6"
     opacity=".8"
     xml:space="preserve"
     font-size="12.666px"
     y="-1019.0153"
     x="1829.8265"
     font-family="'Bitstream Vera Sans'"
     fill="#000000"><tspan
       id="tspan4089-7-2-9-1-8-0-0"
       y="-1019.0153"
       x="1829.8265" /></text>
  <text
     id="text4087-2-6-5-5-5-6-4"
     opacity=".8"
     xml:space="preserve"
     font-size="12.666px"
     y="-1059.757"
     x="1853.7874"
     font-family="'Bitstream Vera Sans'"
     fill="#000000"><tspan
       id="tspan4089-7-2-9-6-9-8-1"
       y="-1059.757"
       x="1853.7874" /></text>
  <text
     id="text4087-2-6-5-75-4-0"
     opacity=".8"
     xml:space="preserve"
     font-size="12.666px"
     y="-1066.9668"
     x="362.32431"
     font-family="'Bitstream Vera Sans'"
     fill="#000000"><tspan
       id="tspan4089-7-2-9-3-9-4"
       y="-1066.9668"
       x="362.32431" /></text>
  <text
     id="text4087-2-6-5-4-8-1-8"
     opacity=".8"
     xml:space="preserve"
     font-size="12.666px"
     y="-1340.2009"
     x="1822.8671"
     font-family="'Bitstream Vera Sans'"
     fill="#000000"><tspan
       id="tspan4089-7-2-9-9-8-8-7"
       y="-1340.2009"
       x="1822.8671" /></text>
  <text
     id="text4087-2-6-5-45-0-0"
     opacity=".8"
     xml:space="preserve"
     font-size="12.666px"
     y="-1115.0581"
     x="-575.492"
     font-family="'Bitstream Vera Sans'"
     fill="#000000"><tspan
       id="tspan4089-7-2-9-75-2-8"
       y="-1115.0581"
       x="-575.492" /></text>
  <text
     id="text4087-2-6-5-59-5-6"
     opacity=".8"
     xml:space="preserve"
     font-size="12.666px"
     y="-369.50461"
     x="-2399.1777"
     font-family="'Bitstream Vera Sans'"
     fill="#000000"><tspan
       id="tspan4089-7-2-9-4-00-2"
       y="-369.50461"
       x="-2399.1777" /></text>
  <text
     id="text4087-2-6-5-264-4"
     opacity=".8"
     xml:space="preserve"
     font-size="12.666px"
     y="-276.63245"
     x="-684.42224"
     font-family="'Bitstream Vera Sans'"
     fill="#000000"><tspan
       id="tspan4089-7-2-9-8-7"
       y="-276.63245"
       x="-684.42224" /></text>
  <text
     id="text4087-2-6-5-42-9"
     opacity=".8"
     xml:space="preserve"
     font-size="12.666px"
     y="-35.718292"
     x="155.5923"
     font-family="'Bitstream Vera Sans'"
     fill="#000000"><tspan
       id="tspan4089-7-2-9-93-3"
       y="-35.718292"
       x="155.5923" /></text>
  <text
     id="text4087-2-6-5-5-05-9"
     opacity=".8"
     xml:space="preserve"
     font-size="12.666px"
     y="-76.460007"
     x="179.55324"
     font-family="'Bitstream Vera Sans'"
     fill="#000000"><tspan
       id="tspan4089-7-2-9-6-49-2"
       y="-76.460007"
       x="179.55324" /></text>
  <text
     id="text4087-2-6-5-1-4-8"
     opacity=".8"
     xml:space="preserve"
     font-size="12.666px"
     y="-270.48859"
     x="-1090.2634"
     font-family="'Bitstream Vera Sans'"
     fill="#000000"><tspan
       id="tspan4089-7-2-9-7-7-3"
       y="-270.48859"
       x="-1090.2634" /></text>
  <text
     id="text4087-2-6-5-7-56-0"
     opacity=".8"
     xml:space="preserve"
     font-size="12.666px"
     y="-683.9588"
     x="-282.66141"
     font-family="'Bitstream Vera Sans'"
     fill="#000000"><tspan
       id="tspan4089-7-2-9-1-1-1"
       y="-683.9588"
       x="-282.66141" /></text>
  <text
     id="text4087-2-6-5-5-8-7"
     opacity=".8"
     xml:space="preserve"
     font-size="12.666px"
     y="-724.7005"
     x="-258.70047"
     font-family="'Bitstream Vera Sans'"
     fill="#000000"><tspan
       id="tspan4089-7-2-9-6-7-8"
       y="-724.7005"
       x="-258.70047" /></text>
  <text
     id="text4087-2-6-5-3-42-9"
     opacity=".8"
     xml:space="preserve"
     font-size="12.666px"
     y="-731.91046"
     x="-1750.1636"
     font-family="'Bitstream Vera Sans'"
     fill="#000000"><tspan
       id="tspan4089-7-2-9-18-39-1"
       y="-731.91046"
       x="-1750.1636" /></text>
  <text
     id="text4087-2-6-5-4-4-5"
     opacity=".8"
     xml:space="preserve"
     font-size="12.666px"
     y="-1005.1445"
     x="-289.62085"
     font-family="'Bitstream Vera Sans'"
     fill="#000000"><tspan
       id="tspan4089-7-2-9-9-3-4"
       y="-1005.1445"
       x="-289.62085" /></text>
  <text
     id="text4087-2-6-5-7-1-0-9"
     opacity=".8"
     xml:space="preserve"
     font-size="12.666px"
     y="-378.45316"
     x="1196.5026"
     font-family="'Bitstream Vera Sans'"
     fill="#000000"><tspan
       id="tspan4089-7-2-9-1-8-5-2"
       y="-378.45316"
       x="1196.5026" /></text>
  <text
     id="text4087-2-6-5-5-5-5-5"
     opacity=".8"
     xml:space="preserve"
     font-size="12.666px"
     y="-419.19489"
     x="1220.4634"
     font-family="'Bitstream Vera Sans'"
     fill="#000000"><tspan
       id="tspan4089-7-2-9-6-9-2-7"
       y="-419.19489"
       x="1220.4634" /></text>
  <text
     id="text4087-2-6-5-75-9-4"
     opacity=".8"
     xml:space="preserve"
     font-size="12.666px"
     y="-426.40482"
     x="-270.99973"
     font-family="'Bitstream Vera Sans'"
     fill="#000000"><tspan
       id="tspan4089-7-2-9-3-1-9"
       y="-426.40482"
       x="-270.99973" /></text>
  <text
     id="text4087-2-6-5-4-8-18-9"
     opacity=".8"
     xml:space="preserve"
     font-size="12.666px"
     y="-699.63892"
     x="1189.5431"
     font-family="'Bitstream Vera Sans'"
     fill="#000000"><tspan
       id="tspan4089-7-2-9-9-8-4-4"
       y="-699.63892"
       x="1189.5431" /></text>
  <text
     id="text4087-2-6-5-45-3-5"
     opacity=".8"
     xml:space="preserve"
     font-size="12.666px"
     y="-474.49609"
     x="-1208.816"
     font-family="'Bitstream Vera Sans'"
     fill="#000000"><tspan
       id="tspan4089-7-2-9-75-7-9"
       y="-474.49609"
       x="-1208.816" /></text>
  <text
     id="text4087-2-6-5-59-8-3"
     opacity=".8"
     xml:space="preserve"
     font-size="12.666px"
     y="271.05743"
     x="-3032.5017"
     font-family="'Bitstream Vera Sans'"
     fill="#000000"><tspan
       id="tspan4089-7-2-9-4-2-5"
       y="271.05743"
       x="-3032.5017" /></text>
  <g
     id="layer4-0-7"
     transform="matrix(.90475 0 0 .90475 -716.75 -685.05)">
    <text
       id="text4087-2-6-5-20-0"
       opacity=".8"
       xml:space="preserve"
       font-size="14px"
       y="1159.4154"
       x="-664.2738"
       font-family="'Bitstream Vera Sans'"
       fill="#000000"><tspan
         id="tspan4089-7-2-9-82-8"
         y="1159.4154"
         x="-664.2738" /></text>
  </g>
  <text
     id="text7276"
     xml:space="preserve"
     font-size="12.666px"
     y="-377.22546"
     x="435.90427"
     font-family="'Droid Sans'"
     fill="#000000"><tspan
       id="tspan7278"
       y="-377.22546"
       x="435.90427" /><tspan
       id="tspan7280"
       y="-361.3924"
       x="435.90427" /></text>
  <text
     id="text4087-2-6-5-51"
     opacity=".8"
     xml:space="preserve"
     font-size="12.666px"
     y="-859.27002"
     x="901.0882"
     font-family="'Bitstream Vera Sans'"
     fill="#000000"><tspan
       id="tspan4089-7-2-9-97"
       y="-859.27002"
       x="901.0882" /></text>
  <text
     id="text4087-2-6-5-59-2"
     opacity=".8"
     xml:space="preserve"
     font-size="12.666px"
     y="-113.71655"
     x="-922.59778"
     font-family="'Bitstream Vera Sans'"
     fill="#000000"><tspan
       id="tspan4089-7-2-9-4-4"
       y="-113.71655"
       x="-922.59778" /></text>
  <text
     id="text4087-2-6-5-7-7"
     opacity=".8"
     xml:space="preserve"
     font-size="12.666px"
     y="-1144.2659"
     x="1628.1677"
     font-family="'Bitstream Vera Sans'"
     fill="#000000"><tspan
       id="tspan4089-7-2-9-1-6"
       y="-1144.2659"
       x="1628.1677" /></text>
  <text
     id="text4087-2-6-5-5-6"
     opacity=".8"
     xml:space="preserve"
     font-size="12.666px"
     y="-1185.0076"
     x="1652.1285"
     font-family="'Bitstream Vera Sans'"
     fill="#000000"><tspan
       id="tspan4089-7-2-9-6-53"
       y="-1185.0076"
       x="1652.1285" /></text>
  <text
     id="text4087-2-6-5-54"
     opacity=".8"
     xml:space="preserve"
     font-size="12.666px"
     y="-1192.2175"
     x="160.66542"
     font-family="'Bitstream Vera Sans'"
     fill="#000000"><tspan
       id="tspan4089-7-2-9-0"
       y="-1192.2175"
       x="160.66542" /></text>
  <text
     id="text4087-2-6-5-4-1"
     opacity=".8"
     xml:space="preserve"
     font-size="12.666px"
     y="-1465.4517"
     x="1621.2083"
     font-family="'Bitstream Vera Sans'"
     fill="#000000"><tspan
       id="tspan4089-7-2-9-9-28"
       y="-1465.4517"
       x="1621.2083" /></text>
  <rect
     id="rect4255"
     ry="1.5"
     rx="1.5"
     transform="matrix(0,-1,-1,0,0,0)"
     height="28"
     width="28"
     y="-30"
     x="-30"
     style="fill:#f9548f;fill-opacity:1" />
  <path
     style="opacity:0.1;fill:#ffffff"
     inkscape:connector-curvature="0"
     id="rect4632"
     d="M 3.5,2 C 2.669,2 2,2.669 2,3.5 l 0,1 C 2,3.669 2.669,3 3.5,3 l 25,0 C 29.331,3 30,3.669 30,4.5 l 0,-1 C 30,2.669 29.331,2 28.5,2 l -25,0 z" />
  <path
     style="fill:#ffffff;fill-opacity:1;filter:url(#filter5085)"
     inkscape:connector-curvature="0"
     transform="matrix(0.22573133,0,0,0.22987585,18.085753,17.215922)"
     d="m -1.2744,-1.099 c -1.494,0.02 0.281,0.768 2.232,1.069 0.541,-0.422 1.027,-0.846 1.463,-1.26 -1.213,0.297 -2.449,0.304 -3.695,0.191"
     id="path5021" />
  <path
     style="fill:#ffffff;fill-opacity:1;filter:url(#filter5085)"
     inkscape:connector-curvature="0"
     transform="matrix(0.22573133,0,0,0.22987585,18.085753,17.215922)"
     d="m 6.7426,-3.098 c 0.893,-1.229 1.541,-2.573 1.77,-3.963 -0.201,0.99 -0.736,1.845 -1.244,2.749 -2.793,1.759 -0.264,-1.044 -0.002,-2.111 -3.002,3.783 -0.414,2.268 -0.524,3.325"
     id="path5023" />
  <path
     style="fill:#ffffff;fill-opacity:1;filter:url(#filter5085)"
     inkscape:connector-curvature="0"
     transform="matrix(0.22573133,0,0,0.22987585,18.085753,17.215922)"
     d="m 9.7056,-10.802 c 0.182,-2.691 -0.529,-1.839 -0.768,-0.814 0.278,0.146 0.499,1.898 0.768,0.814"
     id="path5025" />
  <path
     style="fill:#ffffff;fill-opacity:1;filter:url(#filter5085)"
     inkscape:connector-curvature="0"
     transform="matrix(0.22573133,0,0,0.22987585,18.085753,17.215922)"
     d="m -6.9424,-47.581 c 0.798,0.142 1.724,0.252 1.591,0.443 0.876,-0.193 1.073,-0.367 -1.591,-0.443"
     id="path5027" />
  <path
     style="fill:#ffffff;fill-opacity:1"
     inkscape:connector-curvature="0"
     d="m 21.907743,14.990012 c 0.0186,0.519392 -0.145713,0.771774 -0.294321,1.218081 l -0.267242,0.138233 c -0.218466,0.44157 0.02169,0.280337 -0.134761,0.631399 -0.341441,0.315378 -1.034692,0.986547 -1.256618,1.048004 -0.162246,-0.0038 0.109754,-0.199068 0.145298,-0.275391 -0.456568,0.325911 -0.36645,0.489296 -1.064825,0.687722 l -0.02025,-0.04752 c -1.72168,0.842727 -4.113496,-0.827031 -4.082076,-3.104923 -0.01819,0.144472 -0.05229,0.108354 -0.09033,0.166396 -0.08888,-1.171885 0.520429,-2.348903 1.548025,-2.830213 1.005156,-0.517241 2.18347,-0.305271 2.902869,0.393201 -0.395184,-0.538739 -1.182478,-1.109895 -2.114782,-1.057085 -0.913759,0.01548 -1.76886,0.619356 -2.054022,1.275234 -0.467936,0.306347 -0.522501,1.181559 -0.726297,1.341864 -0.274686,2.09818 0.516088,3.004338 1.854002,4.070899 0.209991,0.147473 0.05911,0.170048 0.08722,0.282271 -0.444376,-0.216273 -0.851126,-0.543043 -1.185947,-0.943115 0.177748,0.270229 0.369343,0.532936 0.617168,0.739319 -0.419368,-0.147266 -0.979276,-1.056197 -1.142335,-1.093214 0.722362,1.345319 2.930424,2.359367 4.08723,1.856143 -0.535316,0.02063 -1.215087,0.01139 -1.816139,-0.219709 -0.253187,-0.135222 -0.596076,-0.414917 -0.534692,-0.467154 1.578256,0.61291 3.208152,0.463927 4.573503,-0.674387 0.347646,-0.28163 0.727119,-0.760383 0.836873,-0.766839 -0.165141,0.258403 0.02831,0.124256 -0.09859,0.352355 0.345575,-0.580661 -0.150679,-0.236479 0.357568,-1.002696 l 0.18767,0.268728 c -0.07027,-0.482415 0.575618,-1.067548 0.509893,-1.829886 0.148191,-0.233034 0.165141,0.251099 0.008,0.787262 0.218049,-0.594846 0.05767,-0.690516 0.11347,-1.181559 0.06015,0.165103 0.140133,0.340313 0.180851,0.514664 -0.142195,-0.575074 0.145297,-0.968058 0.21681,-1.302379 -0.07068,-0.03225 -0.219288,0.254109 -0.253603,-0.424799 0.0053,-0.294955 0.07917,-0.15457 0.107474,-0.22723 -0.0554,-0.03332 -0.201517,-0.259479 -0.290188,-0.693092 0.06386,-0.102116 0.17196,0.264207 0.2596,0.279043 -0.05643,-0.344617 -0.153356,-0.607531 -0.157499,-0.872172 -0.256289,-0.556804 -0.09073,0.07439 -0.298246,-0.239056 -0.272822,-0.884432 0.226118,-0.205307 0.260007,-0.606889 0.412955,0.622367 0.64837,1.587652 0.756884,1.98723 -0.08267,-0.487351 -0.215988,-0.959669 -0.379066,-1.416489 0.12587,0.05525 -0.20234,-1.002498 0.163485,-0.302042 C 23.029422,9.9571342 21.750205,8.561967 20.573179,7.9075197 20.716821,8.0444601 20.898504,8.2164426 20.833601,8.2435286 20.247854,7.8812826 20.350788,7.8526962 20.266875,7.6996266 19.790464,7.4977647 19.758637,7.7161803 19.443442,7.700057 18.544362,7.2038813 18.371183,7.256553 17.543746,6.9461199 l 0.03763,0.1831663 c -0.595461,-0.2063829 -0.693845,0.077823 -1.3373,4.303e-4 -0.03906,-0.031587 0.206275,-0.1152242 0.408406,-0.145538 -0.575826,0.079116 -0.548955,-0.1182348 -1.112401,0.021716 0.138686,-0.1012567 0.285846,-0.1685473 0.433829,-0.2545336 -0.469383,0.029662 -1.121024,0.2842058 -0.919953,0.052455 -0.765766,0.3555732 -2.125982,0.8545423 -2.88929,1.5990033 l -0.02398,-0.1668298 c -0.349708,0.436624 -1.525128,1.3040578 -1.618795,1.8701596 l -0.09363,0.02257 c -0.181673,0.320531 -0.299693,0.683636 -0.4439592,1.013159 -0.2378931,0.422005 -0.3488854,0.162526 -0.3149871,0.228741 -0.4681442,0.987199 -0.7010715,1.81656 -0.9017656,2.497165 0.1430272,0.222503 0.00357,1.339791 0.057459,2.233906 -0.2347908,4.416582 2.9799819,8.704347 6.4940129,9.694112 0.515057,0.191981 1.280803,0.185101 1.932305,0.204014 -0.768452,-0.228741 -0.867669,-0.121038 -1.616713,-0.39255 -0.540065,-0.264859 -0.658293,-0.566901 -1.041037,-0.912376 l 0.151502,0.278401 c -0.750274,-0.27624 -0.436317,-0.341813 -1.046884,-0.542816 l 0.16184,-0.219492 C 13.61677,24.191641 13.215798,23.784897 13.106253,23.55895 l -0.266211,0.01097 c -0.319537,-0.409759 -0.490049,-0.70578 -0.477451,-0.935162 l -0.08599,0.159515 c -0.09734,-0.173917 -1.176234,-1.53879 -0.616544,-1.221043 -0.103965,-0.09846 -0.242234,-0.160591 -0.392081,-0.444145 l 0.113887,-0.135223 c -0.268898,-0.360519 -0.49563,-0.822511 -0.478265,-0.97644 0.143642,0.201645 0.243266,0.239491 0.342067,0.274098 -0.680198,-1.755063 -0.718437,-0.09653 -1.233326,-1.786453 l 0.108713,-0.009 c -0.0833,-0.131363 -0.1343446,-0.273032 -0.2013088,-0.412548 l 0.047537,-0.491231 C 9.4778505,17.004122 9.8304528,15.088822 9.9013519,14.038647 9.9499198,13.611696 10.309966,13.157008 10.583413,12.443888 l -0.166588,-0.02966 c 0.318704,-0.577868 1.819212,-2.32156 2.514525,-2.232129 0.336693,-0.4398515 -0.06697,-0.0017 -0.132898,-0.112223 0.739728,-0.7960766 0.972249,-0.5623905 1.471407,-0.7057766 0.538002,-0.3321395 -0.46194,0.1298431 -0.206889,-0.1266252 0.930708,-0.2470119 0.659323,-0.5619561 1.873231,-0.6872882 0.12814,0.075671 -0.297007,0.1169517 -0.403658,0.2151977 0.775073,-0.3947018 2.45317,-0.3046289 3.543667,0.21885 1.26425,0.615062 2.685701,2.4323133 2.741901,4.1420693 l 0.06386,0.01784 c -0.03224,0.679766 0.100039,1.465942 -0.129587,2.187808 l 0.155218,-0.34203"
     id="path3032" />
  <path
     style="fill:#ffffff;fill-opacity:1;filter:url(#filter5085)"
     inkscape:connector-curvature="0"
     transform="matrix(0.22573133,0,0,0.22987585,18.085753,17.215922)"
     d="m -5.3504,-47.138 -0.561,0.117 0.523,-0.048 0.038,-0.069"
     id="path5029" />
  <path
     style="fill:#ffffff;fill-opacity:1;filter:url(#filter5085)"
     inkscape:connector-curvature="0"
     transform="matrix(0.22573133,0,0,0.22987585,18.085753,17.215922)"
     d="m -17.585,0.95103 -0.211,1.047 c 0.983,1.335 1.763,2.781 3.016,3.821 -0.902,-1.759 -1.571,-2.486 -2.805,-4.868"
     id="path5033" />
  <path
     style="fill:#ffffff;fill-opacity:1;filter:url(#filter5085)"
     inkscape:connector-curvature="0"
     transform="matrix(0.22573133,0,0,0.22987585,18.085753,17.215922)"
     d="m -15.264,0.86103 c -0.52,-0.576 -0.826,-1.268 -1.172,-1.956 0.33,1.211 1.006,2.252 1.633,3.312 l -0.461,-1.356"
     id="path5035" />
  <path
     style="fill:#ffffff;fill-opacity:1;filter:url(#filter5085)"
     inkscape:connector-curvature="0"
     transform="matrix(0.22573133,0,0,0.22987585,18.085753,17.215922)"
     d="m 25.82,-8.069 -0.219,0.552 c -0.402,2.858 -1.273,5.686 -2.605,8.309 1.472,-2.767 2.421,-5.794 2.824,-8.861"
     id="path5037" />
  <path
     style="fill:#ffffff;fill-opacity:1;filter:url(#filter5085)"
     inkscape:connector-curvature="0"
     transform="matrix(0.22573133,0,0,0.22987585,18.085753,17.215922)"
     d="m -6.6454,-48.298 c 1.009,-0.369 2.482,-0.203 3.556,-0.446 -1.398,0.117 -2.789,0.187 -4.162,0.362 l 0.606,0.084"
     id="path5039" />
  <path
     style="fill:#ffffff;fill-opacity:1;filter:url(#filter5085)"
     inkscape:connector-curvature="0"
     transform="matrix(0.22573133,0,0,0.22987585,18.085753,17.215922)"
     d="m -42.116,-29.436 c 0.233,2.154 -1.62,2.991 0.41,1.569 1.09,-2.454 -0.424,-0.677 -0.41,-1.569"
     id="path5041" />
  <path
     style="fill:#ffffff;fill-opacity:1;filter:url(#filter5085)"
     inkscape:connector-curvature="0"
     transform="matrix(0.22573133,0,0,0.22987585,18.085753,17.215922)"
     d="m -44.504,-19.462 c 0.469,-1.437 0.553,-2.299 0.732,-3.132 -1.293,1.654 -0.596,2.007 -0.732,3.132"
     id="path5043" />
  <path
     style="fill:#ffffff;fill-opacity:1"
     inkscape:connector-curvature="0"
     d="m 17.798311,16.963224 c -0.337249,0.0045 0.06343,0.176543 0.503837,0.245739 0.122123,-0.097 0.231827,-0.194469 0.330251,-0.289635 -0.273814,0.06828 -0.552821,0.06988 -0.834088,0.04391"
     id="path3022" />
  <path
     style="fill:#ffffff;fill-opacity:1"
     inkscape:connector-curvature="0"
     d="m 19.608206,16.504223 c 0.201576,-0.282518 0.347854,-0.59147 0.399544,-0.910995 -0.04538,0.227576 -0.166141,0.424118 -0.280811,0.631922 -0.63048,0.404346 -0.0596,-0.239984 -4.51e-4,-0.485258 -0.67766,0.869615 -0.09346,0.521356 -0.118287,0.764331"
     id="path3024" />
  <path
     style="fill:#ffffff;fill-opacity:1"
     inkscape:connector-curvature="0"
     d="m 20.276261,14.733366 c 0.04108,-0.618586 -0.119417,-0.422736 -0.173367,-0.187115 0.06276,0.03356 0.112637,0.436298 0.173367,0.187115"
     id="path3026" />
  <path
     style="fill:#ffffff;fill-opacity:1"
     inkscape:connector-curvature="0"
     d="m 16.518698,6.2788541 c 0.180137,0.032643 0.389167,0.057933 0.359144,0.1018292 0.19774,-0.04437 0.242214,-0.084367 -0.359144,-0.1018292"
     id="path3028" />
  <path
     style="fill:#ffffff;fill-opacity:1"
     inkscape:connector-curvature="0"
     d="m 16.878496,6.3805254 -0.126633,0.026899 0.118059,-0.011036 0.0086,-0.015863"
     id="path3030" />
  <path
     style="fill:#ffffff;fill-opacity:1"
     inkscape:connector-curvature="0"
     d="m 14.116077,17.435058 -0.04763,0.240675 c 0.221896,0.30688 0.397969,0.639276 0.680812,0.878351 -0.203608,-0.404346 -0.354624,-0.571471 -0.633186,-1.118976"
     id="path3034" />
  <path
     style="fill:#ffffff;fill-opacity:1"
     inkscape:connector-curvature="0"
     d="m 14.640411,17.414329 c -0.11795,-0.132271 -0.186341,-0.291194 -0.264645,-0.450117 0.07449,0.278382 0.22709,0.517674 0.36862,0.76134 l -0.104074,-0.310937"
     id="path3036" />
  <path
     style="fill:#ffffff;fill-opacity:1"
     inkscape:connector-curvature="0"
     d="m 23.913892,15.361161 -0.04944,0.126892 c -0.09074,0.656974 -0.287363,1.307019 -0.588038,1.910038 0.332283,-0.636057 0.546507,-1.331894 0.637478,-2.03688"
     id="path3038" />
  <path
     style="fill:#ffffff;fill-opacity:1"
     inkscape:connector-curvature="0"
     d="m 16.586098,6.1140084 c 0.227763,-0.084822 0.560274,-0.04666 0.802717,-0.1025202 -0.315572,0.026899 -0.629578,0.042988 -0.93951,0.083213 l 0.136793,0.019308"
     id="path3040" />
  <path
     style="fill:#ffffff;fill-opacity:1"
     inkscape:connector-curvature="0"
     d="m 8.5783546,10.449352 c 0.052592,0.495149 -0.3656859,0.687554 0.092546,0.360666 0.2460505,-0.564108 -0.095708,-0.155626 -0.092546,-0.360666"
     id="path3042" />
  <path
     style="fill:#ffffff;fill-opacity:1"
     inkscape:connector-curvature="0"
     d="m 8.0391527,12.742385 c 0.1058679,-0.330333 0.1248292,-0.528484 0.1652396,-0.719961 -0.2918728,0.380211 -0.1345428,0.46136 -0.1652396,0.719961"
     id="path3044" />
  <path
     style="opacity:0.3"
     inkscape:connector-curvature="0"
     id="rect4379"
     d="m 2,27.5 0,1 C 2,29.331 2.669,30 3.5,30 l 25,0 c 0.831,0 1.5,-0.669 1.5,-1.5 l 0,-1 c 0,0.831 -0.669,1.5 -1.5,1.5 l -25,0 C 2.669,29 2,28.331 2,27.5 Z" />
</svg>
