<?xml version="1.0" encoding="UTF-8" standalone="no"?>
<!-- Created with Inkscape (http://www.inkscape.org/) -->
<svg id="svg2817" xmlns:rdf="http://www.w3.org/1999/02/22-rdf-syntax-ns#" xmlns="http://www.w3.org/2000/svg" height="32" width="32" version="1.0" xmlns:cc="http://creativecommons.org/ns#" xmlns:xlink="http://www.w3.org/1999/xlink" xmlns:dc="http://purl.org/dc/elements/1.1/">
 <metadata id="metadata57">
  <rdf:RDF>
   <cc:Work rdf:about="">
    <dc:format>image/svg+xml</dc:format>
    <dc:type rdf:resource="http://purl.org/dc/dcmitype/StillImage"/>
    <dc:title/>
   </cc:Work>
  </rdf:RDF>
 </metadata>
 <defs id="defs2819">
  <filter id="filter5085" style="color-interpolation-filters:sRGB" height="1.2167" width="1.2697" y="-.10834" x="-.13485">
   <feGaussianBlur id="feGaussianBlur5087" stdDeviation="4.0708421"/>
  </filter>
 </defs>
 <text id="text4087-2-6-5" opacity=".8" xml:space="preserve" font-size="12.666px" y="-5.1873989" x="877.22626" font-family="&apos;Bitstream Vera Sans&apos;" fill="#000000"><tspan id="tspan4089-7-2-9" y="-5.1873989" x="877.22626"/></text>
 <text id="text4087-2-6-5-5" opacity=".8" xml:space="preserve" font-size="12.666px" y="-45.929108" x="901.18719" font-family="&apos;Bitstream Vera Sans&apos;" fill="#000000"><tspan id="tspan4089-7-2-9-6" y="-45.929108" x="901.18719"/></text>
 <text id="text4087-2-6-5-2" opacity=".8" xml:space="preserve" font-size="12.666px" y="-76.007248" x="-569.37115" font-family="&apos;Bitstream Vera Sans&apos;" fill="#000000"><tspan id="tspan4089-7-2-9-2" y="-76.007248" x="-569.37115"/></text>
 <text id="text4087-2-6-5-59" opacity=".8" xml:space="preserve" font-size="12.666px" y="669.5462" x="-2393.0571" font-family="&apos;Bitstream Vera Sans&apos;" fill="#000000"><tspan id="tspan4089-7-2-9-4" y="669.5462" x="-2393.0571"/></text>
 <text id="text4087-2-6-5-1" opacity=".8" xml:space="preserve" font-size="12.666px" y="-461.32822" x="-454.88007" font-family="&apos;Bitstream Vera Sans&apos;" fill="#000000"><tspan id="tspan4089-7-2-9-7" y="-461.32822" x="-454.88007"/></text>
 <text id="text4087-2-6-5-7" opacity=".8" xml:space="preserve" font-size="12.666px" y="-874.79834" x="352.72208" font-family="&apos;Bitstream Vera Sans&apos;" fill="#000000"><tspan id="tspan4089-7-2-9-1" y="-874.79834" x="352.72208"/></text>
 <text id="text4087-2-6-5-5-3" opacity=".8" xml:space="preserve" font-size="12.666px" y="-915.54004" x="376.68301" font-family="&apos;Bitstream Vera Sans&apos;" fill="#000000"><tspan id="tspan4089-7-2-9-6-5" y="-915.54004" x="376.68301"/></text>
 <text id="text4087-2-6-5-3" opacity=".8" xml:space="preserve" font-size="12.666px" y="-922.74994" x="-1114.7802" font-family="&apos;Bitstream Vera Sans&apos;" fill="#000000"><tspan id="tspan4089-7-2-9-18" y="-922.74994" x="-1114.7802"/></text>
 <text id="text4087-2-6-5-4" opacity=".8" xml:space="preserve" font-size="12.666px" y="-1195.9841" x="345.7626" font-family="&apos;Bitstream Vera Sans&apos;" fill="#000000"><tspan id="tspan4089-7-2-9-9" y="-1195.9841" x="345.7626"/></text>
 <text id="text4087-2-6-5-7-1" opacity=".8" xml:space="preserve" font-size="12.666px" y="-569.29272" x="1831.8861" font-family="&apos;Bitstream Vera Sans&apos;" fill="#000000"><tspan id="tspan4089-7-2-9-1-8" y="-569.29272" x="1831.8861"/></text>
 <text id="text4087-2-6-5-5-5" opacity=".8" xml:space="preserve" font-size="12.666px" y="-610.03448" x="1855.8469" font-family="&apos;Bitstream Vera Sans&apos;" fill="#000000"><tspan id="tspan4089-7-2-9-6-9" y="-610.03448" x="1855.8469"/></text>
 <text id="text4087-2-6-5-75" opacity=".8" xml:space="preserve" font-size="12.666px" y="-617.24438" x="364.38376" font-family="&apos;Bitstream Vera Sans&apos;" fill="#000000"><tspan id="tspan4089-7-2-9-3" y="-617.24438" x="364.38376"/></text>
 <text id="text4087-2-6-5-4-8" opacity=".8" xml:space="preserve" font-size="12.666px" y="-890.47839" x="1824.9266" font-family="&apos;Bitstream Vera Sans&apos;" fill="#000000"><tspan id="tspan4089-7-2-9-9-8" y="-890.47839" x="1824.9266"/></text>
 <text id="text4087-2-6-5-45" opacity=".8" xml:space="preserve" font-size="12.666px" y="-665.33569" x="-573.43256" font-family="&apos;Bitstream Vera Sans&apos;" fill="#000000"><tspan id="tspan4089-7-2-9-75" y="-665.33569" x="-573.43256"/></text>
 <text id="text4087-2-6-5-59-7" opacity=".8" xml:space="preserve" font-size="12.666px" y="80.217857" x="-2397.1182" font-family="&apos;Bitstream Vera Sans&apos;" fill="#000000"><tspan id="tspan4089-7-2-9-4-0" y="80.217857" x="-2397.1182"/></text>
 <text id="text4087-2-6-5-8" opacity=".8" xml:space="preserve" font-size="12.666px" y="173.09" x="-682.36279" font-family="&apos;Bitstream Vera Sans&apos;" fill="#000000"><tspan id="tspan4089-7-2-9-19" y="173.09" x="-682.36279"/></text>
 <text id="text4087-2-6-5-7-5" opacity=".8" xml:space="preserve" font-size="12.666px" y="-6.0921478" x="426.66153" font-family="&apos;Bitstream Vera Sans&apos;" fill="#000000"><tspan id="tspan4089-7-2-9-1-2" y="-6.0921478" x="426.66153"/></text>
 <text id="text4087-2-6-5-5-0" opacity=".8" xml:space="preserve" font-size="12.666px" y="-46.833855" x="450.62247" font-family="&apos;Bitstream Vera Sans&apos;" fill="#000000"><tspan id="tspan4089-7-2-9-6-2" y="-46.833855" x="450.62247"/></text>
 <text id="text4087-2-6-5-26" opacity=".8" xml:space="preserve" font-size="12.666px" y="-54.043827" x="-1040.8407" font-family="&apos;Bitstream Vera Sans&apos;" fill="#000000"><tspan id="tspan4089-7-2-9-90" y="-54.043827" x="-1040.8407"/></text>
 <text id="text4087-2-6-5-4-3" opacity=".8" xml:space="preserve" font-size="12.666px" y="-327.27789" x="419.70206" font-family="&apos;Bitstream Vera Sans&apos;" fill="#000000"><tspan id="tspan4089-7-2-9-9-5" y="-327.27789" x="419.70206"/></text>
 <text id="text4087-2-6-5-55" opacity=".8" xml:space="preserve" font-size="12.666px" y="-56.758072" x="-608.03253" font-family="&apos;Bitstream Vera Sans&apos;" fill="#000000"><tspan id="tspan4089-7-2-9-32" y="-56.758072" x="-608.03253"/></text>
 <text id="text4087-2-6-5-59-9" opacity=".8" xml:space="preserve" font-size="12.666px" y="688.79541" x="-2431.7185" font-family="&apos;Bitstream Vera Sans&apos;" fill="#000000"><tspan id="tspan4089-7-2-9-4-1" y="688.79541" x="-2431.7185"/></text>
 <text id="text4087-2-6-5-1-8" opacity=".8" xml:space="preserve" font-size="12.666px" y="-918.28857" x="-456.93948" font-family="&apos;Bitstream Vera Sans&apos;" fill="#000000"><tspan id="tspan4089-7-2-9-7-8" y="-918.28857" x="-456.93948"/></text>
 <text id="text4087-2-6-5-7-8" opacity=".8" xml:space="preserve" font-size="12.666px" y="-1331.7588" x="350.66266" font-family="&apos;Bitstream Vera Sans&apos;" fill="#000000"><tspan id="tspan4089-7-2-9-1-9" y="-1331.7588" x="350.66266"/></text>
 <text id="text4087-2-6-5-5-52" opacity=".8" xml:space="preserve" font-size="12.666px" y="-1372.5005" x="374.62357" font-family="&apos;Bitstream Vera Sans&apos;" fill="#000000"><tspan id="tspan4089-7-2-9-6-4" y="-1372.5005" x="374.62357"/></text>
 <text id="text4087-2-6-5-3-4" opacity=".8" xml:space="preserve" font-size="12.666px" y="-1379.7104" x="-1116.8396" font-family="&apos;Bitstream Vera Sans&apos;" fill="#000000"><tspan id="tspan4089-7-2-9-18-3" y="-1379.7104" x="-1116.8396"/></text>
 <text id="text4087-2-6-5-4-7" opacity=".8" xml:space="preserve" font-size="12.666px" y="-1652.9446" x="343.70316" font-family="&apos;Bitstream Vera Sans&apos;" fill="#000000"><tspan id="tspan4089-7-2-9-9-54" y="-1652.9446" x="343.70316"/></text>
 <text id="text4087-2-6-5-7-1-2" opacity=".8" xml:space="preserve" font-size="12.666px" y="-1026.2533" x="1829.8265" font-family="&apos;Bitstream Vera Sans&apos;" fill="#000000"><tspan id="tspan4089-7-2-9-1-8-0" y="-1026.2533" x="1829.8265"/></text>
 <text id="text4087-2-6-5-5-5-6" opacity=".8" xml:space="preserve" font-size="12.666px" y="-1066.9949" x="1853.7874" font-family="&apos;Bitstream Vera Sans&apos;" fill="#000000"><tspan id="tspan4089-7-2-9-6-9-8" y="-1066.9949" x="1853.7874"/></text>
 <text id="text4087-2-6-5-75-4" opacity=".8" xml:space="preserve" font-size="12.666px" y="-1074.2048" x="362.32431" font-family="&apos;Bitstream Vera Sans&apos;" fill="#000000"><tspan id="tspan4089-7-2-9-3-9" y="-1074.2048" x="362.32431"/></text>
 <text id="text4087-2-6-5-4-8-1" opacity=".8" xml:space="preserve" font-size="12.666px" y="-1347.439" x="1822.8671" font-family="&apos;Bitstream Vera Sans&apos;" fill="#000000"><tspan id="tspan4089-7-2-9-9-8-8" y="-1347.439" x="1822.8671"/></text>
 <text id="text4087-2-6-5-45-0" opacity=".8" xml:space="preserve" font-size="12.666px" y="-1122.2961" x="-575.492" font-family="&apos;Bitstream Vera Sans&apos;" fill="#000000"><tspan id="tspan4089-7-2-9-75-2" y="-1122.2961" x="-575.492"/></text>
 <text id="text4087-2-6-5-59-5" opacity=".8" xml:space="preserve" font-size="12.666px" y="-376.74261" x="-2399.1777" font-family="&apos;Bitstream Vera Sans&apos;" fill="#000000"><tspan id="tspan4089-7-2-9-4-00" y="-376.74261" x="-2399.1777"/></text>
 <text id="text4087-2-6-5-264" opacity=".8" xml:space="preserve" font-size="12.666px" y="-283.87045" x="-684.42224" font-family="&apos;Bitstream Vera Sans&apos;" fill="#000000"><tspan id="tspan4089-7-2-9-8" y="-283.87045" x="-684.42224"/></text>
 <text id="text4087-2-6-5-42" opacity=".8" xml:space="preserve" font-size="12.666px" y="-42.956276" x="155.5923" font-family="&apos;Bitstream Vera Sans&apos;" fill="#000000"><tspan id="tspan4089-7-2-9-93" y="-42.956276" x="155.5923"/></text>
 <text id="text4087-2-6-5-5-05" opacity=".8" xml:space="preserve" font-size="12.666px" y="-83.697998" x="179.55324" font-family="&apos;Bitstream Vera Sans&apos;" fill="#000000"><tspan id="tspan4089-7-2-9-6-49" y="-83.697998" x="179.55324"/></text>
 <text id="text4087-2-6-5-1-4" opacity=".8" xml:space="preserve" font-size="12.666px" y="-277.72662" x="-1090.2634" font-family="&apos;Bitstream Vera Sans&apos;" fill="#000000"><tspan id="tspan4089-7-2-9-7-7" y="-277.72662" x="-1090.2634"/></text>
 <text id="text4087-2-6-5-7-56" opacity=".8" xml:space="preserve" font-size="12.666px" y="-691.19678" x="-282.66141" font-family="&apos;Bitstream Vera Sans&apos;" fill="#000000"><tspan id="tspan4089-7-2-9-1-1" y="-691.19678" x="-282.66141"/></text>
 <text id="text4087-2-6-5-5-8" opacity=".8" xml:space="preserve" font-size="12.666px" y="-731.93848" x="-258.70047" font-family="&apos;Bitstream Vera Sans&apos;" fill="#000000"><tspan id="tspan4089-7-2-9-6-7" y="-731.93848" x="-258.70047"/></text>
 <text id="text4087-2-6-5-3-42" opacity=".8" xml:space="preserve" font-size="12.666px" y="-739.14838" x="-1750.1636" font-family="&apos;Bitstream Vera Sans&apos;" fill="#000000"><tspan id="tspan4089-7-2-9-18-39" y="-739.14838" x="-1750.1636"/></text>
 <text id="text4087-2-6-5-4-4" opacity=".8" xml:space="preserve" font-size="12.666px" y="-1012.3825" x="-289.62085" font-family="&apos;Bitstream Vera Sans&apos;" fill="#000000"><tspan id="tspan4089-7-2-9-9-3" y="-1012.3825" x="-289.62085"/></text>
 <text id="text4087-2-6-5-7-1-0" opacity=".8" xml:space="preserve" font-size="12.666px" y="-385.69113" x="1196.5026" font-family="&apos;Bitstream Vera Sans&apos;" fill="#000000"><tspan id="tspan4089-7-2-9-1-8-5" y="-385.69113" x="1196.5026"/></text>
 <text id="text4087-2-6-5-5-5-5" opacity=".8" xml:space="preserve" font-size="12.666px" y="-426.43286" x="1220.4634" font-family="&apos;Bitstream Vera Sans&apos;" fill="#000000"><tspan id="tspan4089-7-2-9-6-9-2" y="-426.43286" x="1220.4634"/></text>
 <text id="text4087-2-6-5-75-9" opacity=".8" xml:space="preserve" font-size="12.666px" y="-433.64282" x="-270.99973" font-family="&apos;Bitstream Vera Sans&apos;" fill="#000000"><tspan id="tspan4089-7-2-9-3-1" y="-433.64282" x="-270.99973"/></text>
 <text id="text4087-2-6-5-4-8-18" opacity=".8" xml:space="preserve" font-size="12.666px" y="-706.87689" x="1189.5431" font-family="&apos;Bitstream Vera Sans&apos;" fill="#000000"><tspan id="tspan4089-7-2-9-9-8-4" y="-706.87689" x="1189.5431"/></text>
 <text id="text4087-2-6-5-45-3" opacity=".8" xml:space="preserve" font-size="12.666px" y="-481.7341" x="-1208.816" font-family="&apos;Bitstream Vera Sans&apos;" fill="#000000"><tspan id="tspan4089-7-2-9-75-7" y="-481.7341" x="-1208.816"/></text>
 <text id="text4087-2-6-5-59-8" opacity=".8" xml:space="preserve" font-size="12.666px" y="263.81946" x="-3032.5017" font-family="&apos;Bitstream Vera Sans&apos;" fill="#000000"><tspan id="tspan4089-7-2-9-4-2" y="263.81946" x="-3032.5017"/></text>
 <g id="layer4-0" transform="matrix(.90475 0 0 .90475 -716.75 -692.29)">
  <text id="text4087-2-6-5-20" opacity=".8" xml:space="preserve" font-size="14px" y="1159.4154" x="-664.2738" font-family="&apos;Bitstream Vera Sans&apos;" fill="#000000"><tspan id="tspan4089-7-2-9-82" y="1159.4154" x="-664.2738"/></text>
 </g>
 <text id="text4087-2-6-5-9" opacity=".8" xml:space="preserve" font-size="12.666px" y="2.0505886" x="877.22626" font-family="&apos;Bitstream Vera Sans&apos;" fill="#000000"><tspan id="tspan4089-7-2-9-43" y="2.0505886" x="877.22626"/></text>
 <text id="text4087-2-6-5-5-51" opacity=".8" xml:space="preserve" font-size="12.666px" y="-38.691116" x="901.18719" font-family="&apos;Bitstream Vera Sans&apos;" fill="#000000"><tspan id="tspan4089-7-2-9-6-74" y="-38.691116" x="901.18719"/></text>
 <text id="text4087-2-6-5-2-3" opacity=".8" xml:space="preserve" font-size="12.666px" y="-68.769257" x="-569.37115" font-family="&apos;Bitstream Vera Sans&apos;" fill="#000000"><tspan id="tspan4089-7-2-9-2-1" y="-68.769257" x="-569.37115"/></text>
 <text id="text4087-2-6-5-59-4" opacity=".8" xml:space="preserve" font-size="12.666px" y="676.78418" x="-2393.0571" font-family="&apos;Bitstream Vera Sans&apos;" fill="#000000"><tspan id="tspan4089-7-2-9-4-6" y="676.78418" x="-2393.0571"/></text>
 <text id="text4087-2-6-5-1-9" opacity=".8" xml:space="preserve" font-size="12.666px" y="-454.09021" x="-454.88007" font-family="&apos;Bitstream Vera Sans&apos;" fill="#000000"><tspan id="tspan4089-7-2-9-7-4" y="-454.09021" x="-454.88007"/></text>
 <text id="text4087-2-6-5-7-2" opacity=".8" xml:space="preserve" font-size="12.666px" y="-867.5603" x="352.72208" font-family="&apos;Bitstream Vera Sans&apos;" fill="#000000"><tspan id="tspan4089-7-2-9-1-26" y="-867.5603" x="352.72208"/></text>
 <text id="text4087-2-6-5-5-3-4" opacity=".8" xml:space="preserve" font-size="12.666px" y="-908.30206" x="376.68301" font-family="&apos;Bitstream Vera Sans&apos;" fill="#000000"><tspan id="tspan4089-7-2-9-6-5-1" y="-908.30206" x="376.68301"/></text>
 <text id="text4087-2-6-5-3-2" opacity=".8" xml:space="preserve" font-size="12.666px" y="-915.51196" x="-1114.7802" font-family="&apos;Bitstream Vera Sans&apos;" fill="#000000"><tspan id="tspan4089-7-2-9-18-8" y="-915.51196" x="-1114.7802"/></text>
 <text id="text4087-2-6-5-4-89" opacity=".8" xml:space="preserve" font-size="12.666px" y="-1188.7461" x="345.7626" font-family="&apos;Bitstream Vera Sans&apos;" fill="#000000"><tspan id="tspan4089-7-2-9-9-2" y="-1188.7461" x="345.7626"/></text>
 <text id="text4087-2-6-5-7-1-8" opacity=".8" xml:space="preserve" font-size="12.666px" y="-562.05475" x="1831.8861" font-family="&apos;Bitstream Vera Sans&apos;" fill="#000000"><tspan id="tspan4089-7-2-9-1-8-8" y="-562.05475" x="1831.8861"/></text>
 <text id="text4087-2-6-5-5-5-8" opacity=".8" xml:space="preserve" font-size="12.666px" y="-602.79651" x="1855.8469" font-family="&apos;Bitstream Vera Sans&apos;" fill="#000000"><tspan id="tspan4089-7-2-9-6-9-6" y="-602.79651" x="1855.8469"/></text>
 <text id="text4087-2-6-5-75-8" opacity=".8" xml:space="preserve" font-size="12.666px" y="-610.00641" x="364.38376" font-family="&apos;Bitstream Vera Sans&apos;" fill="#000000"><tspan id="tspan4089-7-2-9-3-3" y="-610.00641" x="364.38376"/></text>
 <text id="text4087-2-6-5-4-8-8" opacity=".8" xml:space="preserve" font-size="12.666px" y="-883.24036" x="1824.9266" font-family="&apos;Bitstream Vera Sans&apos;" fill="#000000"><tspan id="tspan4089-7-2-9-9-8-3" y="-883.24036" x="1824.9266"/></text>
 <text id="text4087-2-6-5-45-33" opacity=".8" xml:space="preserve" font-size="12.666px" y="-658.09772" x="-573.43256" font-family="&apos;Bitstream Vera Sans&apos;" fill="#000000"><tspan id="tspan4089-7-2-9-75-8" y="-658.09772" x="-573.43256"/></text>
 <text id="text4087-2-6-5-59-7-0" opacity=".8" xml:space="preserve" font-size="12.666px" y="87.455849" x="-2397.1182" font-family="&apos;Bitstream Vera Sans&apos;" fill="#000000"><tspan id="tspan4089-7-2-9-4-0-4" y="87.455849" x="-2397.1182"/></text>
 <text id="text4087-2-6-5-8-7" opacity=".8" xml:space="preserve" font-size="12.666px" y="180.32799" x="-682.36279" font-family="&apos;Bitstream Vera Sans&apos;" fill="#000000"><tspan id="tspan4089-7-2-9-19-6" y="180.32799" x="-682.36279"/></text>
 <text id="text4087-2-6-5-7-5-8" opacity=".8" xml:space="preserve" font-size="12.666px" y="1.1458397" x="426.66153" font-family="&apos;Bitstream Vera Sans&apos;" fill="#000000"><tspan id="tspan4089-7-2-9-1-2-9" y="1.1458397" x="426.66153"/></text>
 <text id="text4087-2-6-5-5-0-0" opacity=".8" xml:space="preserve" font-size="12.666px" y="-39.595863" x="450.62247" font-family="&apos;Bitstream Vera Sans&apos;" fill="#000000"><tspan id="tspan4089-7-2-9-6-2-6" y="-39.595863" x="450.62247"/></text>
 <text id="text4087-2-6-5-26-8" opacity=".8" xml:space="preserve" font-size="12.666px" y="-46.805836" x="-1040.8407" font-family="&apos;Bitstream Vera Sans&apos;" fill="#000000"><tspan id="tspan4089-7-2-9-90-7" y="-46.805836" x="-1040.8407"/></text>
 <text id="text4087-2-6-5-4-3-9" opacity=".8" xml:space="preserve" font-size="12.666px" y="-320.03989" x="419.70206" font-family="&apos;Bitstream Vera Sans&apos;" fill="#000000"><tspan id="tspan4089-7-2-9-9-5-0" y="-320.03989" x="419.70206"/></text>
 <text id="text4087-2-6-5-55-3" opacity=".8" xml:space="preserve" font-size="12.666px" y="-49.520081" x="-608.03253" font-family="&apos;Bitstream Vera Sans&apos;" fill="#000000"><tspan id="tspan4089-7-2-9-32-3" y="-49.520081" x="-608.03253"/></text>
 <text id="text4087-2-6-5-59-9-3" opacity=".8" xml:space="preserve" font-size="12.666px" y="696.03345" x="-2431.7185" font-family="&apos;Bitstream Vera Sans&apos;" fill="#000000"><tspan id="tspan4089-7-2-9-4-1-7" y="696.03345" x="-2431.7185"/></text>
 <text id="text4087-2-6-5-1-8-3" opacity=".8" xml:space="preserve" font-size="12.666px" y="-911.0506" x="-456.93948" font-family="&apos;Bitstream Vera Sans&apos;" fill="#000000"><tspan id="tspan4089-7-2-9-7-8-2" y="-911.0506" x="-456.93948"/></text>
 <text id="text4087-2-6-5-7-8-6" opacity=".8" xml:space="preserve" font-size="12.666px" y="-1324.5208" x="350.66266" font-family="&apos;Bitstream Vera Sans&apos;" fill="#000000"><tspan id="tspan4089-7-2-9-1-9-5" y="-1324.5208" x="350.66266"/></text>
 <text id="text4087-2-6-5-5-52-2" opacity=".8" xml:space="preserve" font-size="12.666px" y="-1365.2626" x="374.62357" font-family="&apos;Bitstream Vera Sans&apos;" fill="#000000"><tspan id="tspan4089-7-2-9-6-4-6" y="-1365.2626" x="374.62357"/></text>
 <text id="text4087-2-6-5-3-4-5" opacity=".8" xml:space="preserve" font-size="12.666px" y="-1372.4724" x="-1116.8396" font-family="&apos;Bitstream Vera Sans&apos;" fill="#000000"><tspan id="tspan4089-7-2-9-18-3-8" y="-1372.4724" x="-1116.8396"/></text>
 <text id="text4087-2-6-5-4-7-7" opacity=".8" xml:space="preserve" font-size="12.666px" y="-1645.7065" x="343.70316" font-family="&apos;Bitstream Vera Sans&apos;" fill="#000000"><tspan id="tspan4089-7-2-9-9-54-9" y="-1645.7065" x="343.70316"/></text>
 <text id="text4087-2-6-5-7-1-2-6" opacity=".8" xml:space="preserve" font-size="12.666px" y="-1019.0153" x="1829.8265" font-family="&apos;Bitstream Vera Sans&apos;" fill="#000000"><tspan id="tspan4089-7-2-9-1-8-0-0" y="-1019.0153" x="1829.8265"/></text>
 <text id="text4087-2-6-5-5-5-6-4" opacity=".8" xml:space="preserve" font-size="12.666px" y="-1059.757" x="1853.7874" font-family="&apos;Bitstream Vera Sans&apos;" fill="#000000"><tspan id="tspan4089-7-2-9-6-9-8-1" y="-1059.757" x="1853.7874"/></text>
 <text id="text4087-2-6-5-75-4-0" opacity=".8" xml:space="preserve" font-size="12.666px" y="-1066.9668" x="362.32431" font-family="&apos;Bitstream Vera Sans&apos;" fill="#000000"><tspan id="tspan4089-7-2-9-3-9-4" y="-1066.9668" x="362.32431"/></text>
 <text id="text4087-2-6-5-4-8-1-8" opacity=".8" xml:space="preserve" font-size="12.666px" y="-1340.2009" x="1822.8671" font-family="&apos;Bitstream Vera Sans&apos;" fill="#000000"><tspan id="tspan4089-7-2-9-9-8-8-7" y="-1340.2009" x="1822.8671"/></text>
 <text id="text4087-2-6-5-45-0-0" opacity=".8" xml:space="preserve" font-size="12.666px" y="-1115.0581" x="-575.492" font-family="&apos;Bitstream Vera Sans&apos;" fill="#000000"><tspan id="tspan4089-7-2-9-75-2-8" y="-1115.0581" x="-575.492"/></text>
 <text id="text4087-2-6-5-59-5-6" opacity=".8" xml:space="preserve" font-size="12.666px" y="-369.50461" x="-2399.1777" font-family="&apos;Bitstream Vera Sans&apos;" fill="#000000"><tspan id="tspan4089-7-2-9-4-00-2" y="-369.50461" x="-2399.1777"/></text>
 <text id="text4087-2-6-5-264-4" opacity=".8" xml:space="preserve" font-size="12.666px" y="-276.63245" x="-684.42224" font-family="&apos;Bitstream Vera Sans&apos;" fill="#000000"><tspan id="tspan4089-7-2-9-8-7" y="-276.63245" x="-684.42224"/></text>
 <text id="text4087-2-6-5-42-9" opacity=".8" xml:space="preserve" font-size="12.666px" y="-35.718292" x="155.5923" font-family="&apos;Bitstream Vera Sans&apos;" fill="#000000"><tspan id="tspan4089-7-2-9-93-3" y="-35.718292" x="155.5923"/></text>
 <text id="text4087-2-6-5-5-05-9" opacity=".8" xml:space="preserve" font-size="12.666px" y="-76.460007" x="179.55324" font-family="&apos;Bitstream Vera Sans&apos;" fill="#000000"><tspan id="tspan4089-7-2-9-6-49-2" y="-76.460007" x="179.55324"/></text>
 <text id="text4087-2-6-5-1-4-8" opacity=".8" xml:space="preserve" font-size="12.666px" y="-270.48859" x="-1090.2634" font-family="&apos;Bitstream Vera Sans&apos;" fill="#000000"><tspan id="tspan4089-7-2-9-7-7-3" y="-270.48859" x="-1090.2634"/></text>
 <text id="text4087-2-6-5-7-56-0" opacity=".8" xml:space="preserve" font-size="12.666px" y="-683.9588" x="-282.66141" font-family="&apos;Bitstream Vera Sans&apos;" fill="#000000"><tspan id="tspan4089-7-2-9-1-1-1" y="-683.9588" x="-282.66141"/></text>
 <text id="text4087-2-6-5-5-8-7" opacity=".8" xml:space="preserve" font-size="12.666px" y="-724.7005" x="-258.70047" font-family="&apos;Bitstream Vera Sans&apos;" fill="#000000"><tspan id="tspan4089-7-2-9-6-7-8" y="-724.7005" x="-258.70047"/></text>
 <text id="text4087-2-6-5-3-42-9" opacity=".8" xml:space="preserve" font-size="12.666px" y="-731.91046" x="-1750.1636" font-family="&apos;Bitstream Vera Sans&apos;" fill="#000000"><tspan id="tspan4089-7-2-9-18-39-1" y="-731.91046" x="-1750.1636"/></text>
 <text id="text4087-2-6-5-4-4-5" opacity=".8" xml:space="preserve" font-size="12.666px" y="-1005.1445" x="-289.62085" font-family="&apos;Bitstream Vera Sans&apos;" fill="#000000"><tspan id="tspan4089-7-2-9-9-3-4" y="-1005.1445" x="-289.62085"/></text>
 <text id="text4087-2-6-5-7-1-0-9" opacity=".8" xml:space="preserve" font-size="12.666px" y="-378.45316" x="1196.5026" font-family="&apos;Bitstream Vera Sans&apos;" fill="#000000"><tspan id="tspan4089-7-2-9-1-8-5-2" y="-378.45316" x="1196.5026"/></text>
 <text id="text4087-2-6-5-5-5-5-5" opacity=".8" xml:space="preserve" font-size="12.666px" y="-419.19489" x="1220.4634" font-family="&apos;Bitstream Vera Sans&apos;" fill="#000000"><tspan id="tspan4089-7-2-9-6-9-2-7" y="-419.19489" x="1220.4634"/></text>
 <text id="text4087-2-6-5-75-9-4" opacity=".8" xml:space="preserve" font-size="12.666px" y="-426.40482" x="-270.99973" font-family="&apos;Bitstream Vera Sans&apos;" fill="#000000"><tspan id="tspan4089-7-2-9-3-1-9" y="-426.40482" x="-270.99973"/></text>
 <text id="text4087-2-6-5-4-8-18-9" opacity=".8" xml:space="preserve" font-size="12.666px" y="-699.63892" x="1189.5431" font-family="&apos;Bitstream Vera Sans&apos;" fill="#000000"><tspan id="tspan4089-7-2-9-9-8-4-4" y="-699.63892" x="1189.5431"/></text>
 <text id="text4087-2-6-5-45-3-5" opacity=".8" xml:space="preserve" font-size="12.666px" y="-474.49609" x="-1208.816" font-family="&apos;Bitstream Vera Sans&apos;" fill="#000000"><tspan id="tspan4089-7-2-9-75-7-9" y="-474.49609" x="-1208.816"/></text>
 <text id="text4087-2-6-5-59-8-3" opacity=".8" xml:space="preserve" font-size="12.666px" y="271.05743" x="-3032.5017" font-family="&apos;Bitstream Vera Sans&apos;" fill="#000000"><tspan id="tspan4089-7-2-9-4-2-5" y="271.05743" x="-3032.5017"/></text>
 <g id="layer4-0-7" transform="matrix(.90475 0 0 .90475 -716.75 -685.05)">
  <text id="text4087-2-6-5-20-0" opacity=".8" xml:space="preserve" font-size="14px" y="1159.4154" x="-664.2738" font-family="&apos;Bitstream Vera Sans&apos;" fill="#000000"><tspan id="tspan4089-7-2-9-82-8" y="1159.4154" x="-664.2738"/></text>
 </g>
 <text id="text7276" xml:space="preserve" font-size="12.666px" y="-377.22546" x="435.90427" font-family="&apos;Droid Sans&apos;" fill="#000000"><tspan id="tspan7278" y="-377.22546" x="435.90427"/><tspan id="tspan7280" y="-361.3924" x="435.90427"/></text>
 <text id="text4087-2-6-5-51" opacity=".8" xml:space="preserve" font-size="12.666px" y="-859.27002" x="901.0882" font-family="&apos;Bitstream Vera Sans&apos;" fill="#000000"><tspan id="tspan4089-7-2-9-97" y="-859.27002" x="901.0882"/></text>
 <text id="text4087-2-6-5-59-2" opacity=".8" xml:space="preserve" font-size="12.666px" y="-113.71655" x="-922.59778" font-family="&apos;Bitstream Vera Sans&apos;" fill="#000000"><tspan id="tspan4089-7-2-9-4-4" y="-113.71655" x="-922.59778"/></text>
 <text id="text4087-2-6-5-7-7" opacity=".8" xml:space="preserve" font-size="12.666px" y="-1144.2659" x="1628.1677" font-family="&apos;Bitstream Vera Sans&apos;" fill="#000000"><tspan id="tspan4089-7-2-9-1-6" y="-1144.2659" x="1628.1677"/></text>
 <text id="text4087-2-6-5-5-6" opacity=".8" xml:space="preserve" font-size="12.666px" y="-1185.0076" x="1652.1285" font-family="&apos;Bitstream Vera Sans&apos;" fill="#000000"><tspan id="tspan4089-7-2-9-6-53" y="-1185.0076" x="1652.1285"/></text>
 <text id="text4087-2-6-5-54" opacity=".8" xml:space="preserve" font-size="12.666px" y="-1192.2175" x="160.66542" font-family="&apos;Bitstream Vera Sans&apos;" fill="#000000"><tspan id="tspan4089-7-2-9-0" y="-1192.2175" x="160.66542"/></text>
 <text id="text4087-2-6-5-4-1" opacity=".8" xml:space="preserve" font-size="12.666px" y="-1465.4517" x="1621.2083" font-family="&apos;Bitstream Vera Sans&apos;" fill="#000000"><tspan id="tspan4089-7-2-9-9-28" y="-1465.4517" x="1621.2083"/></text>
 <rect id="rect4255" ry="1.5" rx="1.5" transform="matrix(0,-1,-1,0,0,0)" height="28" width="28" y="-30" x="-30" fill="#f3f3f3"/>
 <path id="rect4632" opacity=".1" d="m3.5 2c-0.831 0-1.5 0.669-1.5 1.5v1c0-0.831 0.669-1.5 1.5-1.5h25c0.831 0 1.5 0.669 1.5 1.5v-1c0-0.831-0.669-1.5-1.5-1.5h-25z" fill="#fff"/>
 <g id="g4643" transform="matrix(.99118 0 0 .98710 -2.6309 -12.25)">
  <path id="path5021" d="m-1.2744-1.099c-1.494 0.02 0.281 0.768 2.232 1.069 0.541-0.422 1.027-0.846 1.463-1.26-1.213 0.297-2.449 0.304-3.695 0.191" transform="matrix(.22774 0 0 .23288 20.901 29.851)" filter="url(#filter5085)"/>
  <path id="path5023" d="m6.7426-3.098c0.893-1.229 1.541-2.573 1.77-3.963-0.201 0.99-0.736 1.845-1.244 2.749-2.793 1.759-0.264-1.044-0.002-2.111-3.002 3.783-0.414 2.268-0.524 3.325" transform="matrix(.22774 0 0 .23288 20.901 29.851)" filter="url(#filter5085)"/>
  <path id="path5025" d="m9.7056-10.802c0.182-2.691-0.529-1.839-0.768-0.814 0.278 0.146 0.499 1.898 0.768 0.814" transform="matrix(.22774 0 0 .23288 20.901 29.851)" filter="url(#filter5085)"/>
  <path id="path5027" d="m-6.9424-47.581c0.798 0.142 1.724 0.252 1.591 0.443 0.876-0.193 1.073-0.367-1.591-0.443" transform="matrix(.22774 0 0 .23288 20.901 29.851)" filter="url(#filter5085)"/>
  <path id="path3032" fill="#d70751" d="m24.757 27.596c0.01876 0.52618-0.14701 0.78186-0.29694 1.234l-0.26962 0.14004c-0.22041 0.44734 0.02188 0.284-0.13596 0.63965-0.34448 0.3195-1.0439 0.99944-1.2678 1.0617-0.16369-0.0038 0.11073-0.20167 0.14659-0.27899-0.46063 0.33017-0.36971 0.49569-1.0743 0.69671l-0.02043-0.04814c-1.737 0.85374-4.1501-0.83784-4.1184-3.1455-0.01835 0.14636-0.05276 0.10977-0.09113 0.16857-0.08967-1.1872 0.52506-2.3796 1.5618-2.8672 1.0141-0.524 2.2029-0.30926 2.9287 0.39834-0.3987-0.54578-1.193-1.1244-2.1336-1.0709-0.92189 0.01568-1.7846 0.62745-2.0723 1.2919-0.4721 0.31035-0.52715 1.197-0.73276 1.3594-0.27713 2.1256 0.52068 3.0436 1.8705 4.1241 0.21186 0.1494 0.05964 0.17227 0.088 0.28596-0.44833-0.2191-0.8587-0.55014-1.1965-0.95544 0.17933 0.27376 0.37263 0.5399 0.62266 0.74898-0.4231-0.14919-0.98799-1.07-1.1525-1.1075 0.72879 1.3629 2.9565 2.3902 4.1236 1.8804-0.54008 0.0209-1.2259 0.01154-1.8323-0.22258-0.25544-0.13699-0.60138-0.42034-0.53945-0.47326 1.5923 0.62092 3.2367 0.46999 4.6142-0.6832 0.35074-0.28531 0.73359-0.77032 0.84432-0.77686-0.16661 0.26178 0.02856 0.12588-0.09947 0.35696 0.34865-0.58825-0.15202-0.23957 0.36075-1.0158l0.18934 0.27224c-0.0709-0.48872 0.58074-1.0815 0.51443-1.8538 0.14951-0.23608 0.16661 0.25438 0.0081 0.79755 0.21999-0.60262 0.05818-0.69954 0.11448-1.197 0.06068 0.16726 0.14138 0.34476 0.18246 0.52139-0.14346-0.58259 0.14659-0.98071 0.21874-1.3194-0.07131-0.03267-0.22124 0.25743-0.25586-0.43035 0.0053-0.29881 0.07987-0.15659 0.10843-0.2302-0.05589-0.03376-0.20331-0.26287-0.29277-0.70215 0.06443-0.10345 0.17349 0.26766 0.26191 0.28269-0.05693-0.34912-0.15472-0.61547-0.1589-0.88357-0.25857-0.56408-0.09154 0.07536-0.3009-0.24218-0.27525-0.89599 0.22813-0.20799 0.26232-0.61482 0.41663 0.6305 0.65414 1.6084 0.76362 2.0132-0.08341-0.49372-0.21791-0.97221-0.38244-1.435 0.12699 0.05597-0.20414-1.0156 0.16494-0.30599-0.3939-1.5126-1.6845-2.926-2.872-3.589 0.14492 0.13873 0.32822 0.31296 0.26274 0.3404-0.59096-0.36698-0.48711-0.39594-0.57177-0.55101-0.48065-0.2045-0.51276 0.01677-0.83076 0.000436-0.90708-0.50266-1.0818-0.4493-1.9166-0.76379l0.03796 0.18556c-0.60076-0.20908-0.70002 0.07884-1.3492 0.000436-0.03941-0.032 0.20811-0.11673 0.41204-0.14744-0.58095 0.08015-0.55384-0.11978-1.1223 0.022 0.13992-0.10258 0.28839-0.17075 0.43769-0.25786-0.47356 0.03005-1.131 0.28792-0.92814 0.05314-0.77258 0.36022-2.1449 0.86571-2.915 1.6199l-0.02419-0.16901c-0.35282 0.44233-1.5387 1.3211-1.6332 1.8946l-0.09446 0.02287c-0.18329 0.32472-0.30236 0.69257-0.44791 1.0264-0.24001 0.42752-0.35199 0.16465-0.31779 0.23173-0.47231 1.0001-0.70731 1.8403-0.90979 2.5298 0.1443 0.22541 0.0036 1.3573 0.05797 2.2631-0.23688 4.4743 3.0065 8.8181 6.5518 9.8208 0.51964 0.19449 1.2922 0.18752 1.9495 0.20668-0.77529-0.23173-0.87539-0.12262-1.6311-0.39768-0.54487-0.26832-0.66415-0.57431-1.0503-0.9243l0.15285 0.28204c-0.75695-0.27985-0.4402-0.34628-1.0562-0.54991l0.16328-0.22236c-0.24543-0.0196-0.64997-0.43166-0.76049-0.66056l-0.26858 0.01111c-0.32238-0.41511-0.49441-0.715-0.4817-0.94738l-0.08675 0.1616c-0.09821-0.17619-1.1867-1.5589-0.62203-1.237-0.10489-0.09975-0.24439-0.16269-0.39557-0.44995l0.1149-0.13699c-0.27129-0.36523-0.50004-0.83326-0.48252-0.9892 0.14492 0.20428 0.24543 0.24262 0.34511 0.27768-0.68625-1.778-0.72483-0.09779-1.2443-1.8098l0.10968-0.0091c-0.08404-0.13308-0.13554-0.2766-0.2031-0.41794l0.04796-0.49765c-0.49379-0.59587-0.13805-2.5362-0.06652-3.6001 0.049-0.43253 0.41225-0.89316 0.68813-1.6156l-0.16807-0.03005c0.32154-0.58542 1.8354-2.3519 2.5369-2.2613 0.33969-0.4456-0.06757-0.0017-0.13408-0.11369 0.74631-0.80648 0.9809-0.56974 1.4845-0.715 0.54279-0.33648-0.46605 0.13154-0.20873-0.12828 0.93899-0.25024 0.66519-0.5693 1.8899-0.69627 0.12928 0.07666-0.29965 0.11848-0.40725 0.21801 0.78197-0.39986 2.475-0.30861 3.5752 0.22171 1.2755 0.6231 2.7096 2.4641 2.7663 4.1962l0.06443 0.01807c-0.03253 0.68865 0.10093 1.4851-0.13074 2.2164l0.1566-0.3465"/>
  <path id="path5029" d="m-5.3504-47.138-0.561 0.117 0.523-0.048 0.038-0.069" transform="matrix(.22774 0 0 .23288 20.901 29.851)" filter="url(#filter5085)"/>
  <path id="path5033" d="m-17.585 0.95103-0.211 1.047c0.983 1.335 1.763 2.781 3.016 3.821-0.902-1.759-1.571-2.486-2.805-4.868" transform="matrix(.22774 0 0 .23288 20.901 29.851)" filter="url(#filter5085)"/>
  <path id="path5035" d="m-15.264 0.86103c-0.52-0.576-0.826-1.268-1.172-1.956 0.33 1.211 1.006 2.252 1.633 3.312l-0.461-1.356" transform="matrix(.22774 0 0 .23288 20.901 29.851)" filter="url(#filter5085)"/>
  <path id="path5037" d="m25.82-8.069-0.219 0.552c-0.402 2.858-1.273 5.686-2.605 8.309 1.472-2.767 2.421-5.794 2.824-8.861" transform="matrix(.22774 0 0 .23288 20.901 29.851)" filter="url(#filter5085)"/>
  <path id="path5039" d="m-6.6454-48.298c1.009-0.369 2.482-0.203 3.556-0.446-1.398 0.117-2.789 0.187-4.162 0.362l0.606 0.084" transform="matrix(.22774 0 0 .23288 20.901 29.851)" filter="url(#filter5085)"/>
  <path id="path5041" d="m-42.116-29.436c0.233 2.154-1.62 2.991 0.41 1.569 1.09-2.454-0.424-0.677-0.41-1.569" transform="matrix(.22774 0 0 .23288 20.901 29.851)" filter="url(#filter5085)"/>
  <path id="path5043" d="m-44.504-19.462c0.469-1.437 0.553-2.299 0.732-3.132-1.293 1.654-0.596 2.007-0.732 3.132" transform="matrix(.22774 0 0 .23288 20.901 29.851)" filter="url(#filter5085)"/>
  <path id="path3022" fill="#d70751" d="m20.611 29.595c-0.34025 0.0046 0.064 0.17885 0.50832 0.24895 0.12321-0.09827 0.23389-0.19701 0.33319-0.29342-0.27625 0.06917-0.55774 0.07079-0.84151 0.04448"/>
  <path id="path3024" fill="#d70751" d="m22.437 29.13c0.20337-0.28621 0.35095-0.5992 0.4031-0.9229-0.04578 0.23055-0.16762 0.42966-0.28331 0.64018-0.63609 0.40963-0.06013-0.24312-0.000455-0.4916-0.68369 0.88098-0.09429 0.52817-0.11934 0.77432"/>
  <path id="path3026" fill="#d70751" d="m23.111 27.336c0.04145-0.62667-0.12048-0.42826-0.17491-0.18956 0.06332 0.034 0.11364 0.442 0.17491 0.18956"/>
  <path id="path3028" fill="#d70751" d="m19.32 18.771c0.18174 0.03307 0.39263 0.05869 0.36234 0.10316 0.1995-0.04495 0.24437-0.08547-0.36234-0.10316"/>
  <path id="path3030" fill="#d70751" d="m19.683 18.874-0.12776 0.02725 0.11911-0.01118 0.0087-0.01607"/>
  <path id="path3034" fill="#d70751" d="m16.896 30.073-0.04805 0.24382c0.22387 0.31089 0.40151 0.64763 0.68687 0.88983-0.20542-0.40963-0.35778-0.57894-0.63882-1.1336"/>
  <path id="path3036" fill="#d70751" d="m17.425 30.052c-0.119-0.134-0.188-0.295-0.267-0.456 0.07515 0.28202 0.22911 0.52444 0.3719 0.77129l-0.105-0.315"/>
  <path id="path3038" fill="#d70751" d="m26.781 27.972-0.04988 0.12855c-0.09155 0.66556-0.28992 1.3241-0.59327 1.935 0.33524-0.64437 0.55137-1.3493 0.64315-2.0635"/>
  <path id="path3040" fill="#d70751" d="m19.388 18.604c0.22979-0.08593 0.56526-0.04727 0.80986-0.10386-0.31838 0.02725-0.63518 0.04355-0.94787 0.0843l0.13801 0.01956"/>
  <path id="path3042" fill="#d70751" d="m11.309 22.996c0.05306 0.50162-0.36894 0.69654 0.09337 0.36538 0.24824-0.57148-0.09656-0.15766-0.09337-0.36538"/>
  <path id="path3044" fill="#d70751" d="m10.765 25.319c0.10681-0.33465 0.12594-0.53539 0.16671-0.72937-0.29447 0.38518-0.13574 0.46739-0.16671 0.72937"/>
 </g>
 <path id="rect4379" opacity=".3" d="m2 27.5v1c0 0.831 0.669 1.5 1.5 1.5h25c0.831 0 1.5-0.669 1.5-1.5v-1c0 0.831-0.669 1.5-1.5 1.5h-25c-0.831 0-1.5-0.669-1.5-1.5z"/>
</svg>
