<?xml version="1.0" encoding="UTF-8" standalone="no"?>
<!-- Created with Inkscape (http://www.inkscape.org/) -->

<svg
   xmlns:dc="http://purl.org/dc/elements/1.1/"
   xmlns:cc="http://creativecommons.org/ns#"
   xmlns:rdf="http://www.w3.org/1999/02/22-rdf-syntax-ns#"
   xmlns:svg="http://www.w3.org/2000/svg"
   xmlns="http://www.w3.org/2000/svg"
   xmlns:sodipodi="http://sodipodi.sourceforge.net/DTD/sodipodi-0.dtd"
   xmlns:inkscape="http://www.inkscape.org/namespaces/inkscape"
   width="32"
   height="32"
   viewBox="0 0 32 32.000001"
   id="svg4222"
   version="1.1"
   inkscape:version="0.91 r"
   sodipodi:docname="cs-desktop.svg">
  <defs
     id="defs4224" />
  <sodipodi:namedview
     id="base"
     pagecolor="#ffffff"
     bordercolor="#666666"
     borderopacity="1.0"
     inkscape:pageopacity="0.0"
     inkscape:pageshadow="2"
     inkscape:zoom="18.55"
     inkscape:cx="14.060471"
     inkscape:cy="17.609667"
     inkscape:document-units="px"
     inkscape:current-layer="layer1"
     showgrid="false"
     units="px"
     inkscape:window-width="1600"
     inkscape:window-height="849"
     inkscape:window-x="0"
     inkscape:window-y="26"
     inkscape:window-maximized="1" />
  <metadata
     id="metadata4227">
    <rdf:RDF>
      <cc:Work
         rdf:about="">
        <dc:format>image/svg+xml</dc:format>
        <dc:type
           rdf:resource="http://purl.org/dc/dcmitype/StillImage" />
        <dc:title></dc:title>
      </cc:Work>
    </rdf:RDF>
  </metadata>
  <g
     inkscape:label="Layer 1"
     inkscape:groupmode="layer"
     id="layer1"
     transform="translate(0,-1020.3622)">
    <path
       style="fill:#4ab3e4;fill-opacity:1;stroke:none"
       d="m 2,1027.14 0,20.8333 c 0,0.7695 0.6244,1.3889 1.4,1.3889 l 25.2,0 c 0.7756,0 1.4,-0.6194 1.4,-1.3889 l 0,-20.8333 z"
       id="rect4203"
       inkscape:connector-curvature="0"
       sodipodi:nodetypes="csssscc" />
    <path
       style="fill:#4d4d4d;fill-opacity:1;stroke:none"
       d="m 3.4,1024.3622 c -0.7756,0 -1.4,0.6194 -1.4,1.3889 l 0,1.6111 28,0 0,-1.6111 c 0,-0.7695 -0.6244,-1.3889 -1.4,-1.3889 z"
       id="rect3328"
       inkscape:connector-curvature="0"
       sodipodi:nodetypes="ssccsss" />
    <g
       id="g4148"
       transform="matrix(0.95238095,0,0,0.9000009,1.0952381,104.06026)">
      <path
         sodipodi:nodetypes="ssssssccs"
         inkscape:connector-curvature="0"
         id="rect4137"
         d="m 19.5,1034.7789 c -0.3878,0 -0.7,0.3097 -0.7,0.6944 l 0,9.7222 c 0,0.3848 0.3122,0.6945 0.7,0.6945 l 7,0 c 0.3878,0 0.7,-0.3097 0.7,-0.6945 l 0,-6.25 -4.2,-4.1666 z"
         style="display:inline;fill:#e1e1e1;fill-opacity:1;stroke:none;enable-background:new" />
      <path
         sodipodi:nodetypes="csscc"
         inkscape:connector-curvature="0"
         id="path4147"
         d="m 23,1034.7789 0,3.4722 c 0,0.3835 0.313404,0.6944 0.7,0.6944 l 3.5,0 z"
         style="display:inline;fill:#f5f5f5;fill-opacity:1;stroke:none;enable-background:new" />
    </g>
    <path
       style="fill:#ffffff;fill-opacity:1;stroke:none;opacity:0.1"
       d="M 3.4003906 4 C 2.6247906 4 2 4.6191719 2 5.3886719 L 2 6.3886719 C 2 5.6191719 2.6247906 5 3.4003906 5 L 28.599609 5 C 29.375209 5 30 5.6191719 30 6.3886719 L 30 5.3886719 C 30 4.6191719 29.375209 4 28.599609 4 L 3.4003906 4 z "
       transform="translate(0,1020.3622)"
       id="path4152" />
  </g>
</svg>
