<?xml version="1.0" encoding="UTF-8" standalone="no"?>
<!-- Created with Inkscape (http://www.inkscape.org/) -->

<svg
   xmlns:dc="http://purl.org/dc/elements/1.1/"
   xmlns:cc="http://creativecommons.org/ns#"
   xmlns:rdf="http://www.w3.org/1999/02/22-rdf-syntax-ns#"
   xmlns:svg="http://www.w3.org/2000/svg"
   xmlns="http://www.w3.org/2000/svg"
   xmlns:sodipodi="http://sodipodi.sourceforge.net/DTD/sodipodi-0.dtd"
   xmlns:inkscape="http://www.inkscape.org/namespaces/inkscape"
   id="svg2817"
   height="32"
   width="32"
   version="1.0"
   inkscape:version="0.91 r13725"
   sodipodi:docname="dota2.svg">
  <defs
     id="defs223" />
  <sodipodi:namedview
     pagecolor="#262626"
     bordercolor="#666666"
     borderopacity="1"
     objecttolerance="10"
     gridtolerance="10"
     guidetolerance="10"
     inkscape:pageopacity="0"
     inkscape:pageshadow="2"
     inkscape:window-width="1600"
     inkscape:window-height="845"
     id="namedview221"
     showgrid="false"
     inkscape:zoom="1"
     inkscape:cx="24"
     inkscape:cy="13.227058"
     inkscape:window-x="0"
     inkscape:window-y="31"
     inkscape:window-maximized="1"
     inkscape:current-layer="svg2817" />
  <metadata
     id="metadata57">
    <rdf:RDF>
      <cc:Work
         rdf:about="">
        <dc:format>image/svg+xml</dc:format>
        <dc:type
           rdf:resource="http://purl.org/dc/dcmitype/StillImage" />
        <dc:title></dc:title>
      </cc:Work>
    </rdf:RDF>
  </metadata>
  <text
     id="text4087-2-6-5"
     font-size="12.666px"
     xml:space="preserve"
     y="-5.1873989"
     x="877.22626"
     style="font-size:12.66600037px;font-family:'Bitstream Vera Sans';opacity:0.8;fill:#000000"><tspan
       id="tspan4089-7-2-9"
       y="-5.1873989"
       x="877.22626" /></text>
  <text
     id="text4087-2-6-5-5"
     font-size="12.666px"
     xml:space="preserve"
     y="-45.929108"
     x="901.18719"
     style="font-size:12.66600037px;font-family:'Bitstream Vera Sans';opacity:0.8;fill:#000000"><tspan
       id="tspan4089-7-2-9-6"
       y="-45.929108"
       x="901.18719" /></text>
  <text
     id="text4087-2-6-5-2"
     font-size="12.666px"
     xml:space="preserve"
     y="-76.007248"
     x="-569.37115"
     style="font-size:12.66600037px;font-family:'Bitstream Vera Sans';opacity:0.8;fill:#000000"><tspan
       id="tspan4089-7-2-9-2"
       y="-76.007248"
       x="-569.37115" /></text>
  <text
     id="text4087-2-6-5-59"
     font-size="12.666px"
     xml:space="preserve"
     y="669.5462"
     x="-2393.0571"
     style="font-size:12.66600037px;font-family:'Bitstream Vera Sans';opacity:0.8;fill:#000000"><tspan
       id="tspan4089-7-2-9-4"
       y="669.5462"
       x="-2393.0571" /></text>
  <text
     id="text4087-2-6-5-1"
     font-size="12.666px"
     xml:space="preserve"
     y="-461.32822"
     x="-454.88007"
     style="font-size:12.66600037px;font-family:'Bitstream Vera Sans';opacity:0.8;fill:#000000"><tspan
       id="tspan4089-7-2-9-7"
       y="-461.32822"
       x="-454.88007" /></text>
  <text
     id="text4087-2-6-5-7"
     font-size="12.666px"
     xml:space="preserve"
     y="-874.79834"
     x="352.72208"
     style="font-size:12.66600037px;font-family:'Bitstream Vera Sans';opacity:0.8;fill:#000000"><tspan
       id="tspan4089-7-2-9-1"
       y="-874.79834"
       x="352.72208" /></text>
  <text
     id="text4087-2-6-5-5-3"
     font-size="12.666px"
     xml:space="preserve"
     y="-915.54004"
     x="376.68301"
     style="font-size:12.66600037px;font-family:'Bitstream Vera Sans';opacity:0.8;fill:#000000"><tspan
       id="tspan4089-7-2-9-6-5"
       y="-915.54004"
       x="376.68301" /></text>
  <text
     id="text4087-2-6-5-3"
     font-size="12.666px"
     xml:space="preserve"
     y="-922.74994"
     x="-1114.7802"
     style="font-size:12.66600037px;font-family:'Bitstream Vera Sans';opacity:0.8;fill:#000000"><tspan
       id="tspan4089-7-2-9-18"
       y="-922.74994"
       x="-1114.7802" /></text>
  <text
     id="text4087-2-6-5-4"
     font-size="12.666px"
     xml:space="preserve"
     y="-1195.9841"
     x="345.7626"
     style="font-size:12.66600037px;font-family:'Bitstream Vera Sans';opacity:0.8;fill:#000000"><tspan
       id="tspan4089-7-2-9-9"
       y="-1195.9841"
       x="345.7626" /></text>
  <text
     id="text4087-2-6-5-7-1"
     font-size="12.666px"
     xml:space="preserve"
     y="-569.29272"
     x="1831.8861"
     style="font-size:12.66600037px;font-family:'Bitstream Vera Sans';opacity:0.8;fill:#000000"><tspan
       id="tspan4089-7-2-9-1-8"
       y="-569.29272"
       x="1831.8861" /></text>
  <text
     id="text4087-2-6-5-5-5"
     font-size="12.666px"
     xml:space="preserve"
     y="-610.03448"
     x="1855.8469"
     style="font-size:12.66600037px;font-family:'Bitstream Vera Sans';opacity:0.8;fill:#000000"><tspan
       id="tspan4089-7-2-9-6-9"
       y="-610.03448"
       x="1855.8469" /></text>
  <text
     id="text4087-2-6-5-75"
     font-size="12.666px"
     xml:space="preserve"
     y="-617.24438"
     x="364.38376"
     style="font-size:12.66600037px;font-family:'Bitstream Vera Sans';opacity:0.8;fill:#000000"><tspan
       id="tspan4089-7-2-9-3"
       y="-617.24438"
       x="364.38376" /></text>
  <text
     id="text4087-2-6-5-4-8"
     font-size="12.666px"
     xml:space="preserve"
     y="-890.47839"
     x="1824.9266"
     style="font-size:12.66600037px;font-family:'Bitstream Vera Sans';opacity:0.8;fill:#000000"><tspan
       id="tspan4089-7-2-9-9-8"
       y="-890.47839"
       x="1824.9266" /></text>
  <text
     id="text4087-2-6-5-45"
     font-size="12.666px"
     xml:space="preserve"
     y="-665.33569"
     x="-573.43256"
     style="font-size:12.66600037px;font-family:'Bitstream Vera Sans';opacity:0.8;fill:#000000"><tspan
       id="tspan4089-7-2-9-75"
       y="-665.33569"
       x="-573.43256" /></text>
  <text
     id="text4087-2-6-5-59-7"
     font-size="12.666px"
     xml:space="preserve"
     y="80.217857"
     x="-2397.1182"
     style="font-size:12.66600037px;font-family:'Bitstream Vera Sans';opacity:0.8;fill:#000000"><tspan
       id="tspan4089-7-2-9-4-0"
       y="80.217857"
       x="-2397.1182" /></text>
  <text
     id="text4087-2-6-5-8"
     font-size="12.666px"
     xml:space="preserve"
     y="173.09"
     x="-682.36279"
     style="font-size:12.66600037px;font-family:'Bitstream Vera Sans';opacity:0.8;fill:#000000"><tspan
       id="tspan4089-7-2-9-19"
       y="173.09"
       x="-682.36279" /></text>
  <text
     id="text4087-2-6-5-7-5"
     font-size="12.666px"
     xml:space="preserve"
     y="-6.0921478"
     x="426.66153"
     style="font-size:12.66600037px;font-family:'Bitstream Vera Sans';opacity:0.8;fill:#000000"><tspan
       id="tspan4089-7-2-9-1-2"
       y="-6.0921478"
       x="426.66153" /></text>
  <text
     id="text4087-2-6-5-5-0"
     font-size="12.666px"
     xml:space="preserve"
     y="-46.833855"
     x="450.62247"
     style="font-size:12.66600037px;font-family:'Bitstream Vera Sans';opacity:0.8;fill:#000000"><tspan
       id="tspan4089-7-2-9-6-2"
       y="-46.833855"
       x="450.62247" /></text>
  <text
     id="text4087-2-6-5-26"
     font-size="12.666px"
     xml:space="preserve"
     y="-54.043827"
     x="-1040.8407"
     style="font-size:12.66600037px;font-family:'Bitstream Vera Sans';opacity:0.8;fill:#000000"><tspan
       id="tspan4089-7-2-9-90"
       y="-54.043827"
       x="-1040.8407" /></text>
  <text
     id="text4087-2-6-5-4-3"
     font-size="12.666px"
     xml:space="preserve"
     y="-327.27789"
     x="419.70206"
     style="font-size:12.66600037px;font-family:'Bitstream Vera Sans';opacity:0.8;fill:#000000"><tspan
       id="tspan4089-7-2-9-9-5"
       y="-327.27789"
       x="419.70206" /></text>
  <text
     id="text4087-2-6-5-55"
     font-size="12.666px"
     xml:space="preserve"
     y="-56.758072"
     x="-608.03253"
     style="font-size:12.66600037px;font-family:'Bitstream Vera Sans';opacity:0.8;fill:#000000"><tspan
       id="tspan4089-7-2-9-32"
       y="-56.758072"
       x="-608.03253" /></text>
  <text
     id="text4087-2-6-5-59-9"
     font-size="12.666px"
     xml:space="preserve"
     y="688.79541"
     x="-2431.7185"
     style="font-size:12.66600037px;font-family:'Bitstream Vera Sans';opacity:0.8;fill:#000000"><tspan
       id="tspan4089-7-2-9-4-1"
       y="688.79541"
       x="-2431.7185" /></text>
  <text
     id="text4087-2-6-5-1-8"
     font-size="12.666px"
     xml:space="preserve"
     y="-918.28857"
     x="-456.93948"
     style="font-size:12.66600037px;font-family:'Bitstream Vera Sans';opacity:0.8;fill:#000000"><tspan
       id="tspan4089-7-2-9-7-8"
       y="-918.28857"
       x="-456.93948" /></text>
  <text
     id="text4087-2-6-5-7-8"
     font-size="12.666px"
     xml:space="preserve"
     y="-1331.7588"
     x="350.66266"
     style="font-size:12.66600037px;font-family:'Bitstream Vera Sans';opacity:0.8;fill:#000000"><tspan
       id="tspan4089-7-2-9-1-9"
       y="-1331.7588"
       x="350.66266" /></text>
  <text
     id="text4087-2-6-5-5-52"
     font-size="12.666px"
     xml:space="preserve"
     y="-1372.5005"
     x="374.62357"
     style="font-size:12.66600037px;font-family:'Bitstream Vera Sans';opacity:0.8;fill:#000000"><tspan
       id="tspan4089-7-2-9-6-4"
       y="-1372.5005"
       x="374.62357" /></text>
  <text
     id="text4087-2-6-5-3-4"
     font-size="12.666px"
     xml:space="preserve"
     y="-1379.7104"
     x="-1116.8396"
     style="font-size:12.66600037px;font-family:'Bitstream Vera Sans';opacity:0.8;fill:#000000"><tspan
       id="tspan4089-7-2-9-18-3"
       y="-1379.7104"
       x="-1116.8396" /></text>
  <text
     id="text4087-2-6-5-4-7"
     font-size="12.666px"
     xml:space="preserve"
     y="-1652.9446"
     x="343.70316"
     style="font-size:12.66600037px;font-family:'Bitstream Vera Sans';opacity:0.8;fill:#000000"><tspan
       id="tspan4089-7-2-9-9-54"
       y="-1652.9446"
       x="343.70316" /></text>
  <text
     id="text4087-2-6-5-7-1-2"
     font-size="12.666px"
     xml:space="preserve"
     y="-1026.2533"
     x="1829.8265"
     style="font-size:12.66600037px;font-family:'Bitstream Vera Sans';opacity:0.8;fill:#000000"><tspan
       id="tspan4089-7-2-9-1-8-0"
       y="-1026.2533"
       x="1829.8265" /></text>
  <text
     id="text4087-2-6-5-5-5-6"
     font-size="12.666px"
     xml:space="preserve"
     y="-1066.9949"
     x="1853.7874"
     style="font-size:12.66600037px;font-family:'Bitstream Vera Sans';opacity:0.8;fill:#000000"><tspan
       id="tspan4089-7-2-9-6-9-8"
       y="-1066.9949"
       x="1853.7874" /></text>
  <text
     id="text4087-2-6-5-75-4"
     font-size="12.666px"
     xml:space="preserve"
     y="-1074.2048"
     x="362.32431"
     style="font-size:12.66600037px;font-family:'Bitstream Vera Sans';opacity:0.8;fill:#000000"><tspan
       id="tspan4089-7-2-9-3-9"
       y="-1074.2048"
       x="362.32431" /></text>
  <text
     id="text4087-2-6-5-4-8-1"
     font-size="12.666px"
     xml:space="preserve"
     y="-1347.439"
     x="1822.8671"
     style="font-size:12.66600037px;font-family:'Bitstream Vera Sans';opacity:0.8;fill:#000000"><tspan
       id="tspan4089-7-2-9-9-8-8"
       y="-1347.439"
       x="1822.8671" /></text>
  <text
     id="text4087-2-6-5-45-0"
     font-size="12.666px"
     xml:space="preserve"
     y="-1122.2961"
     x="-575.492"
     style="font-size:12.66600037px;font-family:'Bitstream Vera Sans';opacity:0.8;fill:#000000"><tspan
       id="tspan4089-7-2-9-75-2"
       y="-1122.2961"
       x="-575.492" /></text>
  <text
     id="text4087-2-6-5-59-5"
     font-size="12.666px"
     xml:space="preserve"
     y="-376.74261"
     x="-2399.1777"
     style="font-size:12.66600037px;font-family:'Bitstream Vera Sans';opacity:0.8;fill:#000000"><tspan
       id="tspan4089-7-2-9-4-00"
       y="-376.74261"
       x="-2399.1777" /></text>
  <text
     id="text4087-2-6-5-264"
     font-size="12.666px"
     xml:space="preserve"
     y="-283.87045"
     x="-684.42224"
     style="font-size:12.66600037px;font-family:'Bitstream Vera Sans';opacity:0.8;fill:#000000"><tspan
       id="tspan4089-7-2-9-8"
       y="-283.87045"
       x="-684.42224" /></text>
  <text
     id="text4087-2-6-5-42"
     font-size="12.666px"
     xml:space="preserve"
     y="-42.956276"
     x="155.5923"
     style="font-size:12.66600037px;font-family:'Bitstream Vera Sans';opacity:0.8;fill:#000000"><tspan
       id="tspan4089-7-2-9-93"
       y="-42.956276"
       x="155.5923" /></text>
  <text
     id="text4087-2-6-5-5-05"
     font-size="12.666px"
     xml:space="preserve"
     y="-83.697998"
     x="179.55324"
     style="font-size:12.66600037px;font-family:'Bitstream Vera Sans';opacity:0.8;fill:#000000"><tspan
       id="tspan4089-7-2-9-6-49"
       y="-83.697998"
       x="179.55324" /></text>
  <text
     id="text4087-2-6-5-1-4"
     font-size="12.666px"
     xml:space="preserve"
     y="-277.72662"
     x="-1090.2634"
     style="font-size:12.66600037px;font-family:'Bitstream Vera Sans';opacity:0.8;fill:#000000"><tspan
       id="tspan4089-7-2-9-7-7"
       y="-277.72662"
       x="-1090.2634" /></text>
  <text
     id="text4087-2-6-5-7-56"
     font-size="12.666px"
     xml:space="preserve"
     y="-691.19678"
     x="-282.66141"
     style="font-size:12.66600037px;font-family:'Bitstream Vera Sans';opacity:0.8;fill:#000000"><tspan
       id="tspan4089-7-2-9-1-1"
       y="-691.19678"
       x="-282.66141" /></text>
  <text
     id="text4087-2-6-5-5-8"
     font-size="12.666px"
     xml:space="preserve"
     y="-731.93848"
     x="-258.70047"
     style="font-size:12.66600037px;font-family:'Bitstream Vera Sans';opacity:0.8;fill:#000000"><tspan
       id="tspan4089-7-2-9-6-7"
       y="-731.93848"
       x="-258.70047" /></text>
  <text
     id="text4087-2-6-5-3-42"
     font-size="12.666px"
     xml:space="preserve"
     y="-739.14838"
     x="-1750.1636"
     style="font-size:12.66600037px;font-family:'Bitstream Vera Sans';opacity:0.8;fill:#000000"><tspan
       id="tspan4089-7-2-9-18-39"
       y="-739.14838"
       x="-1750.1636" /></text>
  <text
     id="text4087-2-6-5-4-4"
     font-size="12.666px"
     xml:space="preserve"
     y="-1012.3825"
     x="-289.62085"
     style="font-size:12.66600037px;font-family:'Bitstream Vera Sans';opacity:0.8;fill:#000000"><tspan
       id="tspan4089-7-2-9-9-3"
       y="-1012.3825"
       x="-289.62085" /></text>
  <text
     id="text4087-2-6-5-7-1-0"
     font-size="12.666px"
     xml:space="preserve"
     y="-385.69113"
     x="1196.5026"
     style="font-size:12.66600037px;font-family:'Bitstream Vera Sans';opacity:0.8;fill:#000000"><tspan
       id="tspan4089-7-2-9-1-8-5"
       y="-385.69113"
       x="1196.5026" /></text>
  <text
     id="text4087-2-6-5-5-5-5"
     font-size="12.666px"
     xml:space="preserve"
     y="-426.43286"
     x="1220.4634"
     style="font-size:12.66600037px;font-family:'Bitstream Vera Sans';opacity:0.8;fill:#000000"><tspan
       id="tspan4089-7-2-9-6-9-2"
       y="-426.43286"
       x="1220.4634" /></text>
  <text
     id="text4087-2-6-5-75-9"
     font-size="12.666px"
     xml:space="preserve"
     y="-433.64282"
     x="-270.99973"
     style="font-size:12.66600037px;font-family:'Bitstream Vera Sans';opacity:0.8;fill:#000000"><tspan
       id="tspan4089-7-2-9-3-1"
       y="-433.64282"
       x="-270.99973" /></text>
  <text
     id="text4087-2-6-5-4-8-18"
     font-size="12.666px"
     xml:space="preserve"
     y="-706.87689"
     x="1189.5431"
     style="font-size:12.66600037px;font-family:'Bitstream Vera Sans';opacity:0.8;fill:#000000"><tspan
       id="tspan4089-7-2-9-9-8-4"
       y="-706.87689"
       x="1189.5431" /></text>
  <text
     id="text4087-2-6-5-45-3"
     font-size="12.666px"
     xml:space="preserve"
     y="-481.7341"
     x="-1208.816"
     style="font-size:12.66600037px;font-family:'Bitstream Vera Sans';opacity:0.8;fill:#000000"><tspan
       id="tspan4089-7-2-9-75-7"
       y="-481.7341"
       x="-1208.816" /></text>
  <text
     id="text4087-2-6-5-59-8"
     font-size="12.666px"
     xml:space="preserve"
     y="263.81946"
     x="-3032.5017"
     style="font-size:12.66600037px;font-family:'Bitstream Vera Sans';opacity:0.8;fill:#000000"><tspan
       id="tspan4089-7-2-9-4-2"
       y="263.81946"
       x="-3032.5017" /></text>
  <g
     id="layer4-0"
     transform="matrix(0.90475,0,0,0.90475,-716.75,-692.29)">
    <text
       id="text4087-2-6-5-20"
       font-size="14px"
       xml:space="preserve"
       y="1159.4154"
       x="-664.2738"
       style="font-size:14px;font-family:'Bitstream Vera Sans';opacity:0.8;fill:#000000"><tspan
         id="tspan4089-7-2-9-82"
         y="1159.4154"
         x="-664.2738" /></text>
  </g>
  <text
     id="text4087-2-6-5-9"
     font-size="12.666px"
     xml:space="preserve"
     y="2.0505886"
     x="877.22626"
     style="font-size:12.66600037px;font-family:'Bitstream Vera Sans';opacity:0.8;fill:#000000"><tspan
       id="tspan4089-7-2-9-43"
       y="2.0505886"
       x="877.22626" /></text>
  <text
     id="text4087-2-6-5-5-51"
     font-size="12.666px"
     xml:space="preserve"
     y="-38.691116"
     x="901.18719"
     style="font-size:12.66600037px;font-family:'Bitstream Vera Sans';opacity:0.8;fill:#000000"><tspan
       id="tspan4089-7-2-9-6-74"
       y="-38.691116"
       x="901.18719" /></text>
  <text
     id="text4087-2-6-5-2-3"
     font-size="12.666px"
     xml:space="preserve"
     y="-68.769257"
     x="-569.37115"
     style="font-size:12.66600037px;font-family:'Bitstream Vera Sans';opacity:0.8;fill:#000000"><tspan
       id="tspan4089-7-2-9-2-1"
       y="-68.769257"
       x="-569.37115" /></text>
  <text
     id="text4087-2-6-5-59-4"
     font-size="12.666px"
     xml:space="preserve"
     y="676.78418"
     x="-2393.0571"
     style="font-size:12.66600037px;font-family:'Bitstream Vera Sans';opacity:0.8;fill:#000000"><tspan
       id="tspan4089-7-2-9-4-6"
       y="676.78418"
       x="-2393.0571" /></text>
  <text
     id="text4087-2-6-5-1-9"
     font-size="12.666px"
     xml:space="preserve"
     y="-454.09021"
     x="-454.88007"
     style="font-size:12.66600037px;font-family:'Bitstream Vera Sans';opacity:0.8;fill:#000000"><tspan
       id="tspan4089-7-2-9-7-4"
       y="-454.09021"
       x="-454.88007" /></text>
  <text
     id="text4087-2-6-5-7-2"
     font-size="12.666px"
     xml:space="preserve"
     y="-867.5603"
     x="352.72208"
     style="font-size:12.66600037px;font-family:'Bitstream Vera Sans';opacity:0.8;fill:#000000"><tspan
       id="tspan4089-7-2-9-1-26"
       y="-867.5603"
       x="352.72208" /></text>
  <text
     id="text4087-2-6-5-5-3-4"
     font-size="12.666px"
     xml:space="preserve"
     y="-908.30206"
     x="376.68301"
     style="font-size:12.66600037px;font-family:'Bitstream Vera Sans';opacity:0.8;fill:#000000"><tspan
       id="tspan4089-7-2-9-6-5-1"
       y="-908.30206"
       x="376.68301" /></text>
  <text
     id="text4087-2-6-5-3-2"
     font-size="12.666px"
     xml:space="preserve"
     y="-915.51196"
     x="-1114.7802"
     style="font-size:12.66600037px;font-family:'Bitstream Vera Sans';opacity:0.8;fill:#000000"><tspan
       id="tspan4089-7-2-9-18-8"
       y="-915.51196"
       x="-1114.7802" /></text>
  <text
     id="text4087-2-6-5-4-89"
     font-size="12.666px"
     xml:space="preserve"
     y="-1188.7461"
     x="345.7626"
     style="font-size:12.66600037px;font-family:'Bitstream Vera Sans';opacity:0.8;fill:#000000"><tspan
       id="tspan4089-7-2-9-9-2"
       y="-1188.7461"
       x="345.7626" /></text>
  <text
     id="text4087-2-6-5-7-1-8"
     font-size="12.666px"
     xml:space="preserve"
     y="-562.05475"
     x="1831.8861"
     style="font-size:12.66600037px;font-family:'Bitstream Vera Sans';opacity:0.8;fill:#000000"><tspan
       id="tspan4089-7-2-9-1-8-8"
       y="-562.05475"
       x="1831.8861" /></text>
  <text
     id="text4087-2-6-5-5-5-8"
     font-size="12.666px"
     xml:space="preserve"
     y="-602.79651"
     x="1855.8469"
     style="font-size:12.66600037px;font-family:'Bitstream Vera Sans';opacity:0.8;fill:#000000"><tspan
       id="tspan4089-7-2-9-6-9-6"
       y="-602.79651"
       x="1855.8469" /></text>
  <text
     id="text4087-2-6-5-75-8"
     font-size="12.666px"
     xml:space="preserve"
     y="-610.00641"
     x="364.38376"
     style="font-size:12.66600037px;font-family:'Bitstream Vera Sans';opacity:0.8;fill:#000000"><tspan
       id="tspan4089-7-2-9-3-3"
       y="-610.00641"
       x="364.38376" /></text>
  <text
     id="text4087-2-6-5-4-8-8"
     font-size="12.666px"
     xml:space="preserve"
     y="-883.24036"
     x="1824.9266"
     style="font-size:12.66600037px;font-family:'Bitstream Vera Sans';opacity:0.8;fill:#000000"><tspan
       id="tspan4089-7-2-9-9-8-3"
       y="-883.24036"
       x="1824.9266" /></text>
  <text
     id="text4087-2-6-5-45-33"
     font-size="12.666px"
     xml:space="preserve"
     y="-658.09772"
     x="-573.43256"
     style="font-size:12.66600037px;font-family:'Bitstream Vera Sans';opacity:0.8;fill:#000000"><tspan
       id="tspan4089-7-2-9-75-8"
       y="-658.09772"
       x="-573.43256" /></text>
  <text
     id="text4087-2-6-5-59-7-0"
     font-size="12.666px"
     xml:space="preserve"
     y="87.455849"
     x="-2397.1182"
     style="font-size:12.66600037px;font-family:'Bitstream Vera Sans';opacity:0.8;fill:#000000"><tspan
       id="tspan4089-7-2-9-4-0-4"
       y="87.455849"
       x="-2397.1182" /></text>
  <text
     id="text4087-2-6-5-8-7"
     font-size="12.666px"
     xml:space="preserve"
     y="180.32799"
     x="-682.36279"
     style="font-size:12.66600037px;font-family:'Bitstream Vera Sans';opacity:0.8;fill:#000000"><tspan
       id="tspan4089-7-2-9-19-6"
       y="180.32799"
       x="-682.36279" /></text>
  <text
     id="text4087-2-6-5-7-5-8"
     font-size="12.666px"
     xml:space="preserve"
     y="1.1458397"
     x="426.66153"
     style="font-size:12.66600037px;font-family:'Bitstream Vera Sans';opacity:0.8;fill:#000000"><tspan
       id="tspan4089-7-2-9-1-2-9"
       y="1.1458397"
       x="426.66153" /></text>
  <text
     id="text4087-2-6-5-5-0-0"
     font-size="12.666px"
     xml:space="preserve"
     y="-39.595863"
     x="450.62247"
     style="font-size:12.66600037px;font-family:'Bitstream Vera Sans';opacity:0.8;fill:#000000"><tspan
       id="tspan4089-7-2-9-6-2-6"
       y="-39.595863"
       x="450.62247" /></text>
  <text
     id="text4087-2-6-5-26-8"
     font-size="12.666px"
     xml:space="preserve"
     y="-46.805836"
     x="-1040.8407"
     style="font-size:12.66600037px;font-family:'Bitstream Vera Sans';opacity:0.8;fill:#000000"><tspan
       id="tspan4089-7-2-9-90-7"
       y="-46.805836"
       x="-1040.8407" /></text>
  <text
     id="text4087-2-6-5-4-3-9"
     font-size="12.666px"
     xml:space="preserve"
     y="-320.03989"
     x="419.70206"
     style="font-size:12.66600037px;font-family:'Bitstream Vera Sans';opacity:0.8;fill:#000000"><tspan
       id="tspan4089-7-2-9-9-5-0"
       y="-320.03989"
       x="419.70206" /></text>
  <text
     id="text4087-2-6-5-55-3"
     font-size="12.666px"
     xml:space="preserve"
     y="-49.520081"
     x="-608.03253"
     style="font-size:12.66600037px;font-family:'Bitstream Vera Sans';opacity:0.8;fill:#000000"><tspan
       id="tspan4089-7-2-9-32-3"
       y="-49.520081"
       x="-608.03253" /></text>
  <text
     id="text4087-2-6-5-59-9-3"
     font-size="12.666px"
     xml:space="preserve"
     y="696.03345"
     x="-2431.7185"
     style="font-size:12.66600037px;font-family:'Bitstream Vera Sans';opacity:0.8;fill:#000000"><tspan
       id="tspan4089-7-2-9-4-1-7"
       y="696.03345"
       x="-2431.7185" /></text>
  <text
     id="text4087-2-6-5-1-8-3"
     font-size="12.666px"
     xml:space="preserve"
     y="-911.0506"
     x="-456.93948"
     style="font-size:12.66600037px;font-family:'Bitstream Vera Sans';opacity:0.8;fill:#000000"><tspan
       id="tspan4089-7-2-9-7-8-2"
       y="-911.0506"
       x="-456.93948" /></text>
  <text
     id="text4087-2-6-5-7-8-6"
     font-size="12.666px"
     xml:space="preserve"
     y="-1324.5208"
     x="350.66266"
     style="font-size:12.66600037px;font-family:'Bitstream Vera Sans';opacity:0.8;fill:#000000"><tspan
       id="tspan4089-7-2-9-1-9-5"
       y="-1324.5208"
       x="350.66266" /></text>
  <text
     id="text4087-2-6-5-5-52-2"
     font-size="12.666px"
     xml:space="preserve"
     y="-1365.2626"
     x="374.62357"
     style="font-size:12.66600037px;font-family:'Bitstream Vera Sans';opacity:0.8;fill:#000000"><tspan
       id="tspan4089-7-2-9-6-4-6"
       y="-1365.2626"
       x="374.62357" /></text>
  <text
     id="text4087-2-6-5-3-4-5"
     font-size="12.666px"
     xml:space="preserve"
     y="-1372.4724"
     x="-1116.8396"
     style="font-size:12.66600037px;font-family:'Bitstream Vera Sans';opacity:0.8;fill:#000000"><tspan
       id="tspan4089-7-2-9-18-3-8"
       y="-1372.4724"
       x="-1116.8396" /></text>
  <text
     id="text4087-2-6-5-4-7-7"
     font-size="12.666px"
     xml:space="preserve"
     y="-1645.7065"
     x="343.70316"
     style="font-size:12.66600037px;font-family:'Bitstream Vera Sans';opacity:0.8;fill:#000000"><tspan
       id="tspan4089-7-2-9-9-54-9"
       y="-1645.7065"
       x="343.70316" /></text>
  <text
     id="text4087-2-6-5-7-1-2-6"
     font-size="12.666px"
     xml:space="preserve"
     y="-1019.0153"
     x="1829.8265"
     style="font-size:12.66600037px;font-family:'Bitstream Vera Sans';opacity:0.8;fill:#000000"><tspan
       id="tspan4089-7-2-9-1-8-0-0"
       y="-1019.0153"
       x="1829.8265" /></text>
  <text
     id="text4087-2-6-5-5-5-6-4"
     font-size="12.666px"
     xml:space="preserve"
     y="-1059.757"
     x="1853.7874"
     style="font-size:12.66600037px;font-family:'Bitstream Vera Sans';opacity:0.8;fill:#000000"><tspan
       id="tspan4089-7-2-9-6-9-8-1"
       y="-1059.757"
       x="1853.7874" /></text>
  <text
     id="text4087-2-6-5-75-4-0"
     font-size="12.666px"
     xml:space="preserve"
     y="-1066.9668"
     x="362.32431"
     style="font-size:12.66600037px;font-family:'Bitstream Vera Sans';opacity:0.8;fill:#000000"><tspan
       id="tspan4089-7-2-9-3-9-4"
       y="-1066.9668"
       x="362.32431" /></text>
  <text
     id="text4087-2-6-5-4-8-1-8"
     font-size="12.666px"
     xml:space="preserve"
     y="-1340.2009"
     x="1822.8671"
     style="font-size:12.66600037px;font-family:'Bitstream Vera Sans';opacity:0.8;fill:#000000"><tspan
       id="tspan4089-7-2-9-9-8-8-7"
       y="-1340.2009"
       x="1822.8671" /></text>
  <text
     id="text4087-2-6-5-45-0-0"
     font-size="12.666px"
     xml:space="preserve"
     y="-1115.0581"
     x="-575.492"
     style="font-size:12.66600037px;font-family:'Bitstream Vera Sans';opacity:0.8;fill:#000000"><tspan
       id="tspan4089-7-2-9-75-2-8"
       y="-1115.0581"
       x="-575.492" /></text>
  <text
     id="text4087-2-6-5-59-5-6"
     font-size="12.666px"
     xml:space="preserve"
     y="-369.50461"
     x="-2399.1777"
     style="font-size:12.66600037px;font-family:'Bitstream Vera Sans';opacity:0.8;fill:#000000"><tspan
       id="tspan4089-7-2-9-4-00-2"
       y="-369.50461"
       x="-2399.1777" /></text>
  <text
     id="text4087-2-6-5-264-4"
     font-size="12.666px"
     xml:space="preserve"
     y="-276.63245"
     x="-684.42224"
     style="font-size:12.66600037px;font-family:'Bitstream Vera Sans';opacity:0.8;fill:#000000"><tspan
       id="tspan4089-7-2-9-8-7"
       y="-276.63245"
       x="-684.42224" /></text>
  <text
     id="text4087-2-6-5-42-9"
     font-size="12.666px"
     xml:space="preserve"
     y="-35.718292"
     x="155.5923"
     style="font-size:12.66600037px;font-family:'Bitstream Vera Sans';opacity:0.8;fill:#000000"><tspan
       id="tspan4089-7-2-9-93-3"
       y="-35.718292"
       x="155.5923" /></text>
  <text
     id="text4087-2-6-5-5-05-9"
     font-size="12.666px"
     xml:space="preserve"
     y="-76.460007"
     x="179.55324"
     style="font-size:12.66600037px;font-family:'Bitstream Vera Sans';opacity:0.8;fill:#000000"><tspan
       id="tspan4089-7-2-9-6-49-2"
       y="-76.460007"
       x="179.55324" /></text>
  <text
     id="text4087-2-6-5-1-4-8"
     font-size="12.666px"
     xml:space="preserve"
     y="-270.48859"
     x="-1090.2634"
     style="font-size:12.66600037px;font-family:'Bitstream Vera Sans';opacity:0.8;fill:#000000"><tspan
       id="tspan4089-7-2-9-7-7-3"
       y="-270.48859"
       x="-1090.2634" /></text>
  <text
     id="text4087-2-6-5-7-56-0"
     font-size="12.666px"
     xml:space="preserve"
     y="-683.9588"
     x="-282.66141"
     style="font-size:12.66600037px;font-family:'Bitstream Vera Sans';opacity:0.8;fill:#000000"><tspan
       id="tspan4089-7-2-9-1-1-1"
       y="-683.9588"
       x="-282.66141" /></text>
  <text
     id="text4087-2-6-5-5-8-7"
     font-size="12.666px"
     xml:space="preserve"
     y="-724.7005"
     x="-258.70047"
     style="font-size:12.66600037px;font-family:'Bitstream Vera Sans';opacity:0.8;fill:#000000"><tspan
       id="tspan4089-7-2-9-6-7-8"
       y="-724.7005"
       x="-258.70047" /></text>
  <text
     id="text4087-2-6-5-3-42-9"
     font-size="12.666px"
     xml:space="preserve"
     y="-731.91046"
     x="-1750.1636"
     style="font-size:12.66600037px;font-family:'Bitstream Vera Sans';opacity:0.8;fill:#000000"><tspan
       id="tspan4089-7-2-9-18-39-1"
       y="-731.91046"
       x="-1750.1636" /></text>
  <text
     id="text4087-2-6-5-4-4-5"
     font-size="12.666px"
     xml:space="preserve"
     y="-1005.1445"
     x="-289.62085"
     style="font-size:12.66600037px;font-family:'Bitstream Vera Sans';opacity:0.8;fill:#000000"><tspan
       id="tspan4089-7-2-9-9-3-4"
       y="-1005.1445"
       x="-289.62085" /></text>
  <text
     id="text4087-2-6-5-7-1-0-9"
     font-size="12.666px"
     xml:space="preserve"
     y="-378.45316"
     x="1196.5026"
     style="font-size:12.66600037px;font-family:'Bitstream Vera Sans';opacity:0.8;fill:#000000"><tspan
       id="tspan4089-7-2-9-1-8-5-2"
       y="-378.45316"
       x="1196.5026" /></text>
  <text
     id="text4087-2-6-5-5-5-5-5"
     font-size="12.666px"
     xml:space="preserve"
     y="-419.19489"
     x="1220.4634"
     style="font-size:12.66600037px;font-family:'Bitstream Vera Sans';opacity:0.8;fill:#000000"><tspan
       id="tspan4089-7-2-9-6-9-2-7"
       y="-419.19489"
       x="1220.4634" /></text>
  <text
     id="text4087-2-6-5-75-9-4"
     font-size="12.666px"
     xml:space="preserve"
     y="-426.40482"
     x="-270.99973"
     style="font-size:12.66600037px;font-family:'Bitstream Vera Sans';opacity:0.8;fill:#000000"><tspan
       id="tspan4089-7-2-9-3-1-9"
       y="-426.40482"
       x="-270.99973" /></text>
  <text
     id="text4087-2-6-5-4-8-18-9"
     font-size="12.666px"
     xml:space="preserve"
     y="-699.63892"
     x="1189.5431"
     style="font-size:12.66600037px;font-family:'Bitstream Vera Sans';opacity:0.8;fill:#000000"><tspan
       id="tspan4089-7-2-9-9-8-4-4"
       y="-699.63892"
       x="1189.5431" /></text>
  <text
     id="text4087-2-6-5-45-3-5"
     font-size="12.666px"
     xml:space="preserve"
     y="-474.49609"
     x="-1208.816"
     style="font-size:12.66600037px;font-family:'Bitstream Vera Sans';opacity:0.8;fill:#000000"><tspan
       id="tspan4089-7-2-9-75-7-9"
       y="-474.49609"
       x="-1208.816" /></text>
  <text
     id="text4087-2-6-5-59-8-3"
     font-size="12.666px"
     xml:space="preserve"
     y="271.05743"
     x="-3032.5017"
     style="font-size:12.66600037px;font-family:'Bitstream Vera Sans';opacity:0.8;fill:#000000"><tspan
       id="tspan4089-7-2-9-4-2-5"
       y="271.05743"
       x="-3032.5017" /></text>
  <g
     id="layer4-0-7"
     transform="matrix(0.90475,0,0,0.90475,-716.75,-685.05)">
    <text
       id="text4087-2-6-5-20-0"
       font-size="14px"
       xml:space="preserve"
       y="1159.4154"
       x="-664.2738"
       style="font-size:14px;font-family:'Bitstream Vera Sans';opacity:0.8;fill:#000000"><tspan
         id="tspan4089-7-2-9-82-8"
         y="1159.4154"
         x="-664.2738" /></text>
  </g>
  <text
     id="text7276"
     font-size="12.666px"
     xml:space="preserve"
     y="-377.22546"
     x="435.90427"
     style="font-size:12.66600037px;font-family:'Droid Sans';fill:#000000"><tspan
       id="tspan7278"
       y="-377.22546"
       x="435.90427" /><tspan
       id="tspan7280"
       y="-361.3924"
       x="435.90427" /></text>
  <text
     id="text4087-2-6-5-51"
     font-size="12.666px"
     xml:space="preserve"
     y="-859.27002"
     x="901.0882"
     style="font-size:12.66600037px;font-family:'Bitstream Vera Sans';opacity:0.8;fill:#000000"><tspan
       id="tspan4089-7-2-9-97"
       y="-859.27002"
       x="901.0882" /></text>
  <text
     id="text4087-2-6-5-59-2"
     font-size="12.666px"
     xml:space="preserve"
     y="-113.71655"
     x="-922.59778"
     style="font-size:12.66600037px;font-family:'Bitstream Vera Sans';opacity:0.8;fill:#000000"><tspan
       id="tspan4089-7-2-9-4-4"
       y="-113.71655"
       x="-922.59778" /></text>
  <text
     id="text4087-2-6-5-7-7"
     font-size="12.666px"
     xml:space="preserve"
     y="-1144.2659"
     x="1628.1677"
     style="font-size:12.66600037px;font-family:'Bitstream Vera Sans';opacity:0.8;fill:#000000"><tspan
       id="tspan4089-7-2-9-1-6"
       y="-1144.2659"
       x="1628.1677" /></text>
  <text
     id="text4087-2-6-5-5-6"
     font-size="12.666px"
     xml:space="preserve"
     y="-1185.0076"
     x="1652.1285"
     style="font-size:12.66600037px;font-family:'Bitstream Vera Sans';opacity:0.8;fill:#000000"><tspan
       id="tspan4089-7-2-9-6-53"
       y="-1185.0076"
       x="1652.1285" /></text>
  <text
     id="text4087-2-6-5-54"
     font-size="12.666px"
     xml:space="preserve"
     y="-1192.2175"
     x="160.66542"
     style="font-size:12.66600037px;font-family:'Bitstream Vera Sans';opacity:0.8;fill:#000000"><tspan
       id="tspan4089-7-2-9-0"
       y="-1192.2175"
       x="160.66542" /></text>
  <text
     id="text4087-2-6-5-4-1"
     font-size="12.666px"
     xml:space="preserve"
     y="-1465.4517"
     x="1621.2083"
     style="font-size:12.66600037px;font-family:'Bitstream Vera Sans';opacity:0.8;fill:#000000"><tspan
       id="tspan4089-7-2-9-9-28"
       y="-1465.4517"
       x="1621.2083" /></text>
  <path
     style="display:inline;fill:#c2352a;fill-opacity:1;stroke:none;enable-background:new"
     d="M 18.207031 2 L 13.400391 2.0820312 L 12.425781 2.8164062 L 12.505859 2.8984375 L 9.3300781 2.9804688 L 9.5742188 2.6542969 L 2.3261719 2.4902344 L 2.2441406 2.9804688 L 2.1621094 3.7148438 L 2.6523438 4.6132812 L 2.4082031 6.4921875 L 2 8.125 L 2.2441406 9.6777344 L 2.3261719 10.902344 L 2.8144531 12.535156 L 2.6523438 13.351562 L 2.7324219 14.25 L 3.3027344 14.904297 L 3.4648438 15.964844 L 2.4082031 16.373047 L 2.5703125 19.640625 L 3.2226562 20.130859 L 2.8144531 22.988281 L 2.4882812 23.152344 L 2.2441406 28.625 L 2.53125 28.585938 L 3.2226562 28.728516 C 3.2226562 28.728516 4.0596689 29.01842 4.2324219 29.076172 C 4.4051819 29.133942 4.6621094 28.816406 4.6621094 28.816406 L 5.3535156 28.816406 L 5.9296875 28.701172 L 6.2480469 28.845703 L 6.5351562 28.816406 L 7.2558594 28.759766 L 7.5976562 28.613281 L 7.7441406 28.960938 L 7.859375 28.875 L 8.1777344 28.728516 L 8.8378906 28.671875 L 8.9804688 28.875 C 8.9804688 28.875 9.7862877 28.960937 10.074219 28.960938 C 10.36215 28.960938 10.30664 28.728516 10.306641 28.728516 C 10.306641 28.728516 10.391187 28.701276 10.535156 28.845703 C 10.679118 28.99008 10.882813 28.787109 10.882812 28.787109 L 11.169922 28.642578 L 11.373047 28.845703 L 11.574219 28.990234 L 12.121094 28.875 L 13.011719 28.875 L 13.216797 28.816406 L 14.050781 30 L 14.105469 29.396484 L 15.458984 29.396484 C 15.574162 29.396484 15.519531 29.798828 15.519531 29.798828 L 16.410156 29.509766 L 16.871094 29.970703 L 17.822266 29.365234 L 18.339844 29.277344 L 19.347656 29.222656 L 20.787109 29.222656 L 22.427734 29.335938 L 22.861328 29.164062 L 23.175781 28.875 L 24.041016 29.363281 L 24.673828 29.103516 C 24.673828 29.103516 25.365291 29.367612 25.480469 29.396484 C 25.59564 29.425334 26.662109 29.277344 26.662109 29.277344 L 27.322266 29.103516 L 26.892578 28.787109 L 27.179688 28.671875 L 28.388672 28.728516 L 30 29.134766 L 29.972656 18.595703 L 29.972656 17.929688 L 29.570312 17.990234 L 29.050781 18.076172 L 29.050781 17.757812 L 29.337891 17.496094 L 29.570312 17.152344 L 29.625 15.910156 L 29.539062 15.013672 L 29.164062 13.916016 L 28.822266 13.455078 L 28.763672 13.021484 L 28.849609 12.734375 L 28.876953 12.648438 L 29.251953 12.501953 L 29.310547 12.355469 L 29.023438 11.867188 L 29.283203 11.71875 L 29.689453 11.472656 L 29.851562 10.003906 L 29.933594 9.0234375 L 29.933594 5.59375 L 29.689453 4.6132812 L 29.851562 3.5527344 L 29.933594 3.1425781 L 29.201172 2.8164062 L 26.431641 2.3261719 L 26.023438 2.8984375 L 25.861328 2.2441406 L 20.568359 2.1621094 L 20.404297 3.0625 L 19.101562 3.2246094 L 18.939453 2.6542969 L 17.798828 2.4902344 L 18.207031 2 z M 22 6 L 24 8 L 24 12 L 18 8 L 22 6 z M 8 7 L 27 20 L 25 25 L 22 25 L 5 8 L 8 7 z M 6 18 L 12 24 L 9 25 L 7 25 L 5 23 L 6 18 z "
     id="path4436" />
  <path
     style="display:inline;fill:#ffffff;fill-opacity:1;stroke:none;enable-background:new;opacity:0.2"
     d="M 18.207031 2 L 13.400391 2.0820312 L 12.425781 2.8164062 L 12.505859 2.8984375 L 9.3300781 2.9804688 L 9.5742188 2.6542969 L 2.3261719 2.4902344 L 2.2441406 2.9804688 L 2.1621094 3.7148438 L 2.2597656 3.8925781 L 2.3261719 3.4902344 L 9.5742188 3.6542969 L 9.3300781 3.9804688 L 12.505859 3.8984375 L 12.425781 3.8164062 L 13.400391 3.0820312 L 18.207031 3 L 17.798828 3.4902344 L 18.939453 3.6542969 L 19.101562 4.2246094 L 20.404297 4.0625 L 20.568359 3.1621094 L 25.861328 3.2441406 L 26.023438 3.8984375 L 26.431641 3.3261719 L 29.201172 3.8164062 L 29.771484 4.0703125 L 29.851562 3.5527344 L 29.933594 3.1425781 L 29.201172 2.8164062 L 26.431641 2.3261719 L 26.023438 2.8984375 L 25.861328 2.2441406 L 20.568359 2.1621094 L 20.404297 3.0625 L 19.101562 3.2246094 L 18.939453 2.6542969 L 17.798828 2.4902344 L 18.207031 2 z M 29.783203 4.9941406 L 29.689453 5.6132812 L 29.933594 6.59375 L 29.933594 5.59375 L 29.783203 4.9941406 z M 2.546875 5.421875 L 2.4082031 6.4921875 L 2 8.125 L 2.0957031 8.7382812 L 2.4082031 7.4921875 L 2.6523438 5.6132812 L 2.546875 5.421875 z M 18.857422 8.5722656 L 18 9 L 24 13 L 24 12 L 18.857422 8.5722656 z M 5.75 8.75 L 5 9 L 22 26 L 25 26 L 27 21 L 26.685547 20.785156 L 25 25 L 22 25 L 5.75 8.75 z M 2.6953125 13.136719 L 2.6523438 13.351562 L 2.7128906 14.041016 L 2.8144531 13.535156 L 2.6953125 13.136719 z M 28.945312 13.621094 L 28.876953 13.648438 L 28.849609 13.734375 L 28.763672 14.021484 L 28.822266 14.455078 L 29.164062 14.916016 L 29.539062 16.013672 L 29.595703 16.595703 L 29.625 15.910156 L 29.539062 15.013672 L 29.164062 13.916016 L 28.945312 13.621094 z M 3.3203125 16.021484 L 2.4082031 16.373047 L 2.4570312 17.353516 L 3.4648438 16.964844 L 3.3203125 16.021484 z M 29.972656 17.929688 L 29.578125 17.988281 L 29.570312 18.152344 L 29.337891 18.496094 L 29.050781 18.757812 L 29.050781 19.076172 L 29.570312 18.990234 L 29.972656 18.929688 L 29.972656 18.595703 L 29.972656 17.929688 z M 29.972656 18.929688 L 29.972656 19.595703 L 29.998047 29.134766 L 30 29.134766 L 29.972656 18.929688 z M 3.09375 21.033203 L 2.8144531 22.988281 L 2.4882812 23.152344 L 2.2441406 28.625 L 2.2890625 28.619141 L 2.4882812 24.152344 L 2.8144531 23.988281 L 3.2226562 21.130859 L 3.09375 21.033203 z M 5.1660156 23.166016 L 5 24 L 7 26 L 9 26 L 12 25 L 11.25 24.25 L 9 25 L 7 25 L 5.1660156 23.166016 z "
     id="path4440" />
  <path
     style="display:inline;fill:#000000;fill-opacity:1;stroke:none;enable-background:new;opacity:0.3"
     d="M 2.2597656 2.8925781 L 2.2441406 2.9804688 L 2.1621094 3.7148438 L 2.546875 4.421875 L 2.6523438 3.6132812 L 2.2597656 2.8925781 z M 29.771484 3.0703125 L 29.689453 3.6132812 L 29.783203 3.9941406 L 29.851562 3.5527344 L 29.933594 3.1425781 L 29.771484 3.0703125 z M 22 5 L 18 7 L 18.857422 7.5722656 L 22 6 L 24 8 L 24 7 L 22 5 z M 8 6 L 5 7 L 5.75 7.75 L 8 7 L 26.685547 19.785156 L 27 19 L 8 6 z M 2.0957031 7.7382812 L 2 8.125 L 2.2441406 9.6777344 L 2.3261719 10.902344 L 2.6953125 12.136719 L 2.8144531 11.535156 L 2.3261719 9.9023438 L 2.2441406 8.6777344 L 2.0957031 7.7382812 z M 29.933594 8.0234375 L 29.851562 9.0039062 L 29.689453 10.472656 L 29.283203 10.71875 L 29.023438 10.867188 L 29.310547 11.355469 L 29.251953 11.501953 L 28.876953 11.648438 L 28.849609 11.734375 L 28.763672 12.021484 L 28.822266 12.455078 L 28.945312 12.621094 L 29.251953 12.501953 L 29.310547 12.355469 L 29.023438 11.867188 L 29.283203 11.71875 L 29.689453 11.472656 L 29.851562 10.003906 L 29.933594 9.0234375 L 29.933594 8.0234375 z M 2.7128906 13.041016 L 2.6523438 13.351562 L 2.7324219 14.25 L 3.3027344 14.904297 L 3.3203125 15.021484 L 3.4648438 14.964844 L 3.3027344 13.904297 L 2.7324219 13.25 L 2.7128906 13.041016 z M 29.595703 15.595703 L 29.570312 16.152344 L 29.337891 16.496094 L 29.050781 16.757812 L 29.050781 17.076172 L 29.570312 16.990234 L 29.578125 16.988281 L 29.625 15.910156 L 29.595703 15.595703 z M 2.4570312 16.353516 L 2.4082031 16.373047 L 2.5703125 19.640625 L 3.09375 20.033203 L 3.2226562 19.130859 L 2.5703125 18.640625 L 2.4570312 16.353516 z M 6 17 L 5 22 L 5.1660156 22.166016 L 6 18 L 11.25 23.25 L 12 23 L 6 17 z M 2.53125 27.585938 L 2.2890625 27.619141 L 2.2441406 28.625 L 2.53125 28.585938 L 3.2226562 28.728516 C 3.2226562 28.728516 4.0596689 29.01842 4.2324219 29.076172 C 4.4051819 29.133942 4.6621094 28.816406 4.6621094 28.816406 L 5.3535156 28.816406 L 5.9296875 28.701172 L 6.2480469 28.845703 L 6.5351562 28.816406 L 7.2558594 28.759766 L 7.5976562 28.613281 L 7.7441406 28.960938 L 7.859375 28.875 L 8.1777344 28.728516 L 8.8378906 28.671875 L 8.9804688 28.875 C 8.9804688 28.875 9.7862875 28.960937 10.074219 28.960938 C 10.36215 28.960938 10.30664 28.728516 10.306641 28.728516 C 10.306641 28.728516 10.391187 28.701276 10.535156 28.845703 C 10.679118 28.99008 10.882814 28.787109 10.882812 28.787109 L 11.169922 28.642578 L 11.373047 28.845703 L 11.574219 28.990234 L 12.121094 28.875 L 13.011719 28.875 L 13.216797 28.816406 L 14.050781 30 L 14.105469 29.396484 L 15.458984 29.396484 C 15.574162 29.396484 15.519531 29.798828 15.519531 29.798828 L 16.410156 29.509766 L 16.871094 29.970703 L 17.822266 29.365234 L 18.339844 29.277344 L 19.347656 29.222656 L 20.787109 29.222656 L 22.427734 29.335938 L 22.861328 29.164062 L 23.175781 28.875 L 24.041016 29.363281 L 24.673828 29.103516 C 24.673828 29.103516 25.365291 29.367612 25.480469 29.396484 C 25.59564 29.425334 26.662109 29.277344 26.662109 29.277344 L 27.322266 29.103516 L 26.892578 28.787109 L 27.179688 28.671875 L 28.388672 28.728516 L 30 29.134766 L 29.998047 28.134766 L 28.388672 27.728516 L 27.179688 27.671875 L 26.892578 27.787109 L 27.322266 28.103516 L 26.662109 28.277344 C 26.662109 28.277344 25.59564 28.425334 25.480469 28.396484 C 25.365291 28.367612 24.673828 28.103516 24.673828 28.103516 L 24.041016 28.363281 L 23.175781 27.875 L 22.861328 28.164062 L 22.427734 28.335938 L 20.787109 28.222656 L 19.347656 28.222656 L 18.339844 28.277344 L 17.822266 28.365234 L 16.871094 28.970703 L 16.410156 28.509766 L 15.519531 28.798828 C 15.519531 28.798828 15.574162 28.396484 15.458984 28.396484 L 14.105469 28.396484 L 14.050781 29 L 13.216797 27.816406 L 13.011719 27.875 L 12.121094 27.875 L 11.574219 27.990234 L 11.373047 27.845703 L 11.169922 27.642578 L 10.882812 27.787109 C 10.882813 27.787109 10.679118 27.99008 10.535156 27.845703 C 10.391191 27.701276 10.306641 27.728516 10.306641 27.728516 C 10.30664 27.728516 10.36215 27.960938 10.074219 27.960938 C 9.7862874 27.960937 8.9804688 27.875 8.9804688 27.875 L 8.8378906 27.671875 L 8.1777344 27.728516 L 7.859375 27.875 L 7.7441406 27.960938 L 7.5976562 27.613281 L 7.2558594 27.759766 L 6.5351562 27.816406 L 6.2480469 27.845703 L 5.9296875 27.701172 L 5.3535156 27.816406 L 4.6621094 27.816406 C 4.6621094 27.816406 4.4051819 28.133942 4.2324219 28.076172 C 4.0596689 28.01842 3.2226562 27.728516 3.2226562 27.728516 L 2.53125 27.585938 z "
     id="path4445" />
</svg>
