<?xml version="1.0" encoding="UTF-8" standalone="no"?>
<!-- Created with Inkscape (http://www.inkscape.org/) -->

<svg
   xmlns:dc="http://purl.org/dc/elements/1.1/"
   xmlns:cc="http://creativecommons.org/ns#"
   xmlns:rdf="http://www.w3.org/1999/02/22-rdf-syntax-ns#"
   xmlns:svg="http://www.w3.org/2000/svg"
   xmlns="http://www.w3.org/2000/svg"
   xmlns:sodipodi="http://sodipodi.sourceforge.net/DTD/sodipodi-0.dtd"
   xmlns:inkscape="http://www.inkscape.org/namespaces/inkscape"
   id="svg2817"
   height="32"
   width="32"
   version="1.0"
   inkscape:version="0.91 r"
   sodipodi:docname="iceweasel.svg">
  <defs
     id="defs223" />
  <sodipodi:namedview
     pagecolor="#cacaca"
     bordercolor="#666666"
     borderopacity="1"
     objecttolerance="10"
     gridtolerance="10"
     guidetolerance="10"
     inkscape:pageopacity="0"
     inkscape:pageshadow="2"
     inkscape:window-width="1600"
     inkscape:window-height="842"
     id="namedview221"
     showgrid="false"
     showguides="false"
     inkscape:zoom="1"
     inkscape:cx="20.931747"
     inkscape:cy="14.898594"
     inkscape:window-x="-4"
     inkscape:window-y="32"
     inkscape:window-maximized="1"
     inkscape:current-layer="svg2817" />
  <metadata
     id="metadata57">
    <rdf:RDF>
      <cc:Work
         rdf:about="">
        <dc:format>image/svg+xml</dc:format>
        <dc:type
           rdf:resource="http://purl.org/dc/dcmitype/StillImage" />
        <dc:title></dc:title>
      </cc:Work>
    </rdf:RDF>
  </metadata>
  <text
     id="text4087-2-6-5"
     xml:space="preserve"
     font-size="12.666px"
     y="-5.1873989"
     x="877.22626"
     style="font-size:12.66600037px;font-family:'Bitstream Vera Sans';opacity:0.8;fill:#000000"><tspan
       id="tspan4089-7-2-9"
       y="-5.1873989"
       x="877.22626" /></text>
  <text
     id="text4087-2-6-5-5"
     xml:space="preserve"
     font-size="12.666px"
     y="-45.929108"
     x="901.18719"
     style="font-size:12.66600037px;font-family:'Bitstream Vera Sans';opacity:0.8;fill:#000000"><tspan
       id="tspan4089-7-2-9-6"
       y="-45.929108"
       x="901.18719" /></text>
  <text
     id="text4087-2-6-5-2"
     xml:space="preserve"
     font-size="12.666px"
     y="-76.007248"
     x="-569.37115"
     style="font-size:12.66600037px;font-family:'Bitstream Vera Sans';opacity:0.8;fill:#000000"><tspan
       id="tspan4089-7-2-9-2"
       y="-76.007248"
       x="-569.37115" /></text>
  <text
     id="text4087-2-6-5-59"
     xml:space="preserve"
     font-size="12.666px"
     y="669.5462"
     x="-2393.0571"
     style="font-size:12.66600037px;font-family:'Bitstream Vera Sans';opacity:0.8;fill:#000000"><tspan
       id="tspan4089-7-2-9-4"
       y="669.5462"
       x="-2393.0571" /></text>
  <text
     id="text4087-2-6-5-1"
     xml:space="preserve"
     font-size="12.666px"
     y="-461.32822"
     x="-454.88007"
     style="font-size:12.66600037px;font-family:'Bitstream Vera Sans';opacity:0.8;fill:#000000"><tspan
       id="tspan4089-7-2-9-7"
       y="-461.32822"
       x="-454.88007" /></text>
  <text
     id="text4087-2-6-5-7"
     xml:space="preserve"
     font-size="12.666px"
     y="-874.79834"
     x="352.72208"
     style="font-size:12.66600037px;font-family:'Bitstream Vera Sans';opacity:0.8;fill:#000000"><tspan
       id="tspan4089-7-2-9-1"
       y="-874.79834"
       x="352.72208" /></text>
  <text
     id="text4087-2-6-5-5-3"
     xml:space="preserve"
     font-size="12.666px"
     y="-915.54004"
     x="376.68301"
     style="font-size:12.66600037px;font-family:'Bitstream Vera Sans';opacity:0.8;fill:#000000"><tspan
       id="tspan4089-7-2-9-6-5"
       y="-915.54004"
       x="376.68301" /></text>
  <text
     id="text4087-2-6-5-3"
     xml:space="preserve"
     font-size="12.666px"
     y="-922.74994"
     x="-1114.7802"
     style="font-size:12.66600037px;font-family:'Bitstream Vera Sans';opacity:0.8;fill:#000000"><tspan
       id="tspan4089-7-2-9-18"
       y="-922.74994"
       x="-1114.7802" /></text>
  <text
     id="text4087-2-6-5-4"
     xml:space="preserve"
     font-size="12.666px"
     y="-1195.9841"
     x="345.7626"
     style="font-size:12.66600037px;font-family:'Bitstream Vera Sans';opacity:0.8;fill:#000000"><tspan
       id="tspan4089-7-2-9-9"
       y="-1195.9841"
       x="345.7626" /></text>
  <text
     id="text4087-2-6-5-7-1"
     xml:space="preserve"
     font-size="12.666px"
     y="-569.29272"
     x="1831.8861"
     style="font-size:12.66600037px;font-family:'Bitstream Vera Sans';opacity:0.8;fill:#000000"><tspan
       id="tspan4089-7-2-9-1-8"
       y="-569.29272"
       x="1831.8861" /></text>
  <text
     id="text4087-2-6-5-5-5"
     xml:space="preserve"
     font-size="12.666px"
     y="-610.03448"
     x="1855.8469"
     style="font-size:12.66600037px;font-family:'Bitstream Vera Sans';opacity:0.8;fill:#000000"><tspan
       id="tspan4089-7-2-9-6-9"
       y="-610.03448"
       x="1855.8469" /></text>
  <text
     id="text4087-2-6-5-75"
     xml:space="preserve"
     font-size="12.666px"
     y="-617.24438"
     x="364.38376"
     style="font-size:12.66600037px;font-family:'Bitstream Vera Sans';opacity:0.8;fill:#000000"><tspan
       id="tspan4089-7-2-9-3"
       y="-617.24438"
       x="364.38376" /></text>
  <text
     id="text4087-2-6-5-4-8"
     xml:space="preserve"
     font-size="12.666px"
     y="-890.47839"
     x="1824.9266"
     style="font-size:12.66600037px;font-family:'Bitstream Vera Sans';opacity:0.8;fill:#000000"><tspan
       id="tspan4089-7-2-9-9-8"
       y="-890.47839"
       x="1824.9266" /></text>
  <text
     id="text4087-2-6-5-45"
     xml:space="preserve"
     font-size="12.666px"
     y="-665.33569"
     x="-573.43256"
     style="font-size:12.66600037px;font-family:'Bitstream Vera Sans';opacity:0.8;fill:#000000"><tspan
       id="tspan4089-7-2-9-75"
       y="-665.33569"
       x="-573.43256" /></text>
  <text
     id="text4087-2-6-5-59-7"
     xml:space="preserve"
     font-size="12.666px"
     y="80.217857"
     x="-2397.1182"
     style="font-size:12.66600037px;font-family:'Bitstream Vera Sans';opacity:0.8;fill:#000000"><tspan
       id="tspan4089-7-2-9-4-0"
       y="80.217857"
       x="-2397.1182" /></text>
  <text
     id="text4087-2-6-5-8"
     xml:space="preserve"
     font-size="12.666px"
     y="173.09"
     x="-682.36279"
     style="font-size:12.66600037px;font-family:'Bitstream Vera Sans';opacity:0.8;fill:#000000"><tspan
       id="tspan4089-7-2-9-19"
       y="173.09"
       x="-682.36279" /></text>
  <text
     id="text4087-2-6-5-7-5"
     xml:space="preserve"
     font-size="12.666px"
     y="-6.0921478"
     x="426.66153"
     style="font-size:12.66600037px;font-family:'Bitstream Vera Sans';opacity:0.8;fill:#000000"><tspan
       id="tspan4089-7-2-9-1-2"
       y="-6.0921478"
       x="426.66153" /></text>
  <text
     id="text4087-2-6-5-5-0"
     xml:space="preserve"
     font-size="12.666px"
     y="-46.833855"
     x="450.62247"
     style="font-size:12.66600037px;font-family:'Bitstream Vera Sans';opacity:0.8;fill:#000000"><tspan
       id="tspan4089-7-2-9-6-2"
       y="-46.833855"
       x="450.62247" /></text>
  <text
     id="text4087-2-6-5-26"
     xml:space="preserve"
     font-size="12.666px"
     y="-54.043827"
     x="-1040.8407"
     style="font-size:12.66600037px;font-family:'Bitstream Vera Sans';opacity:0.8;fill:#000000"><tspan
       id="tspan4089-7-2-9-90"
       y="-54.043827"
       x="-1040.8407" /></text>
  <text
     id="text4087-2-6-5-4-3"
     xml:space="preserve"
     font-size="12.666px"
     y="-327.27789"
     x="419.70206"
     style="font-size:12.66600037px;font-family:'Bitstream Vera Sans';opacity:0.8;fill:#000000"><tspan
       id="tspan4089-7-2-9-9-5"
       y="-327.27789"
       x="419.70206" /></text>
  <text
     id="text4087-2-6-5-55"
     xml:space="preserve"
     font-size="12.666px"
     y="-56.758072"
     x="-608.03253"
     style="font-size:12.66600037px;font-family:'Bitstream Vera Sans';opacity:0.8;fill:#000000"><tspan
       id="tspan4089-7-2-9-32"
       y="-56.758072"
       x="-608.03253" /></text>
  <text
     id="text4087-2-6-5-59-9"
     xml:space="preserve"
     font-size="12.666px"
     y="688.79541"
     x="-2431.7185"
     style="font-size:12.66600037px;font-family:'Bitstream Vera Sans';opacity:0.8;fill:#000000"><tspan
       id="tspan4089-7-2-9-4-1"
       y="688.79541"
       x="-2431.7185" /></text>
  <text
     id="text4087-2-6-5-1-8"
     xml:space="preserve"
     font-size="12.666px"
     y="-918.28857"
     x="-456.93948"
     style="font-size:12.66600037px;font-family:'Bitstream Vera Sans';opacity:0.8;fill:#000000"><tspan
       id="tspan4089-7-2-9-7-8"
       y="-918.28857"
       x="-456.93948" /></text>
  <text
     id="text4087-2-6-5-7-8"
     xml:space="preserve"
     font-size="12.666px"
     y="-1331.7588"
     x="350.66266"
     style="font-size:12.66600037px;font-family:'Bitstream Vera Sans';opacity:0.8;fill:#000000"><tspan
       id="tspan4089-7-2-9-1-9"
       y="-1331.7588"
       x="350.66266" /></text>
  <text
     id="text4087-2-6-5-5-52"
     xml:space="preserve"
     font-size="12.666px"
     y="-1372.5005"
     x="374.62357"
     style="font-size:12.66600037px;font-family:'Bitstream Vera Sans';opacity:0.8;fill:#000000"><tspan
       id="tspan4089-7-2-9-6-4"
       y="-1372.5005"
       x="374.62357" /></text>
  <text
     id="text4087-2-6-5-3-4"
     xml:space="preserve"
     font-size="12.666px"
     y="-1379.7104"
     x="-1116.8396"
     style="font-size:12.66600037px;font-family:'Bitstream Vera Sans';opacity:0.8;fill:#000000"><tspan
       id="tspan4089-7-2-9-18-3"
       y="-1379.7104"
       x="-1116.8396" /></text>
  <text
     id="text4087-2-6-5-4-7"
     xml:space="preserve"
     font-size="12.666px"
     y="-1652.9446"
     x="343.70316"
     style="font-size:12.66600037px;font-family:'Bitstream Vera Sans';opacity:0.8;fill:#000000"><tspan
       id="tspan4089-7-2-9-9-54"
       y="-1652.9446"
       x="343.70316" /></text>
  <text
     id="text4087-2-6-5-7-1-2"
     xml:space="preserve"
     font-size="12.666px"
     y="-1026.2533"
     x="1829.8265"
     style="font-size:12.66600037px;font-family:'Bitstream Vera Sans';opacity:0.8;fill:#000000"><tspan
       id="tspan4089-7-2-9-1-8-0"
       y="-1026.2533"
       x="1829.8265" /></text>
  <text
     id="text4087-2-6-5-5-5-6"
     xml:space="preserve"
     font-size="12.666px"
     y="-1066.9949"
     x="1853.7874"
     style="font-size:12.66600037px;font-family:'Bitstream Vera Sans';opacity:0.8;fill:#000000"><tspan
       id="tspan4089-7-2-9-6-9-8"
       y="-1066.9949"
       x="1853.7874" /></text>
  <text
     id="text4087-2-6-5-75-4"
     xml:space="preserve"
     font-size="12.666px"
     y="-1074.2048"
     x="362.32431"
     style="font-size:12.66600037px;font-family:'Bitstream Vera Sans';opacity:0.8;fill:#000000"><tspan
       id="tspan4089-7-2-9-3-9"
       y="-1074.2048"
       x="362.32431" /></text>
  <text
     id="text4087-2-6-5-4-8-1"
     xml:space="preserve"
     font-size="12.666px"
     y="-1347.439"
     x="1822.8671"
     style="font-size:12.66600037px;font-family:'Bitstream Vera Sans';opacity:0.8;fill:#000000"><tspan
       id="tspan4089-7-2-9-9-8-8"
       y="-1347.439"
       x="1822.8671" /></text>
  <text
     id="text4087-2-6-5-45-0"
     xml:space="preserve"
     font-size="12.666px"
     y="-1122.2961"
     x="-575.492"
     style="font-size:12.66600037px;font-family:'Bitstream Vera Sans';opacity:0.8;fill:#000000"><tspan
       id="tspan4089-7-2-9-75-2"
       y="-1122.2961"
       x="-575.492" /></text>
  <text
     id="text4087-2-6-5-59-5"
     xml:space="preserve"
     font-size="12.666px"
     y="-376.74261"
     x="-2399.1777"
     style="font-size:12.66600037px;font-family:'Bitstream Vera Sans';opacity:0.8;fill:#000000"><tspan
       id="tspan4089-7-2-9-4-00"
       y="-376.74261"
       x="-2399.1777" /></text>
  <text
     id="text4087-2-6-5-264"
     xml:space="preserve"
     font-size="12.666px"
     y="-283.87045"
     x="-684.42224"
     style="font-size:12.66600037px;font-family:'Bitstream Vera Sans';opacity:0.8;fill:#000000"><tspan
       id="tspan4089-7-2-9-8"
       y="-283.87045"
       x="-684.42224" /></text>
  <text
     id="text4087-2-6-5-42"
     xml:space="preserve"
     font-size="12.666px"
     y="-42.956276"
     x="155.5923"
     style="font-size:12.66600037px;font-family:'Bitstream Vera Sans';opacity:0.8;fill:#000000"><tspan
       id="tspan4089-7-2-9-93"
       y="-42.956276"
       x="155.5923" /></text>
  <text
     id="text4087-2-6-5-5-05"
     xml:space="preserve"
     font-size="12.666px"
     y="-83.697998"
     x="179.55324"
     style="font-size:12.66600037px;font-family:'Bitstream Vera Sans';opacity:0.8;fill:#000000"><tspan
       id="tspan4089-7-2-9-6-49"
       y="-83.697998"
       x="179.55324" /></text>
  <text
     id="text4087-2-6-5-1-4"
     xml:space="preserve"
     font-size="12.666px"
     y="-277.72662"
     x="-1090.2634"
     style="font-size:12.66600037px;font-family:'Bitstream Vera Sans';opacity:0.8;fill:#000000"><tspan
       id="tspan4089-7-2-9-7-7"
       y="-277.72662"
       x="-1090.2634" /></text>
  <text
     id="text4087-2-6-5-7-56"
     xml:space="preserve"
     font-size="12.666px"
     y="-691.19678"
     x="-282.66141"
     style="font-size:12.66600037px;font-family:'Bitstream Vera Sans';opacity:0.8;fill:#000000"><tspan
       id="tspan4089-7-2-9-1-1"
       y="-691.19678"
       x="-282.66141" /></text>
  <text
     id="text4087-2-6-5-5-8"
     xml:space="preserve"
     font-size="12.666px"
     y="-731.93848"
     x="-258.70047"
     style="font-size:12.66600037px;font-family:'Bitstream Vera Sans';opacity:0.8;fill:#000000"><tspan
       id="tspan4089-7-2-9-6-7"
       y="-731.93848"
       x="-258.70047" /></text>
  <text
     id="text4087-2-6-5-3-42"
     xml:space="preserve"
     font-size="12.666px"
     y="-739.14838"
     x="-1750.1636"
     style="font-size:12.66600037px;font-family:'Bitstream Vera Sans';opacity:0.8;fill:#000000"><tspan
       id="tspan4089-7-2-9-18-39"
       y="-739.14838"
       x="-1750.1636" /></text>
  <text
     id="text4087-2-6-5-4-4"
     xml:space="preserve"
     font-size="12.666px"
     y="-1012.3825"
     x="-289.62085"
     style="font-size:12.66600037px;font-family:'Bitstream Vera Sans';opacity:0.8;fill:#000000"><tspan
       id="tspan4089-7-2-9-9-3"
       y="-1012.3825"
       x="-289.62085" /></text>
  <text
     id="text4087-2-6-5-7-1-0"
     xml:space="preserve"
     font-size="12.666px"
     y="-385.69113"
     x="1196.5026"
     style="font-size:12.66600037px;font-family:'Bitstream Vera Sans';opacity:0.8;fill:#000000"><tspan
       id="tspan4089-7-2-9-1-8-5"
       y="-385.69113"
       x="1196.5026" /></text>
  <text
     id="text4087-2-6-5-5-5-5"
     xml:space="preserve"
     font-size="12.666px"
     y="-426.43286"
     x="1220.4634"
     style="font-size:12.66600037px;font-family:'Bitstream Vera Sans';opacity:0.8;fill:#000000"><tspan
       id="tspan4089-7-2-9-6-9-2"
       y="-426.43286"
       x="1220.4634" /></text>
  <text
     id="text4087-2-6-5-75-9"
     xml:space="preserve"
     font-size="12.666px"
     y="-433.64282"
     x="-270.99973"
     style="font-size:12.66600037px;font-family:'Bitstream Vera Sans';opacity:0.8;fill:#000000"><tspan
       id="tspan4089-7-2-9-3-1"
       y="-433.64282"
       x="-270.99973" /></text>
  <text
     id="text4087-2-6-5-4-8-18"
     xml:space="preserve"
     font-size="12.666px"
     y="-706.87689"
     x="1189.5431"
     style="font-size:12.66600037px;font-family:'Bitstream Vera Sans';opacity:0.8;fill:#000000"><tspan
       id="tspan4089-7-2-9-9-8-4"
       y="-706.87689"
       x="1189.5431" /></text>
  <text
     id="text4087-2-6-5-45-3"
     xml:space="preserve"
     font-size="12.666px"
     y="-481.7341"
     x="-1208.816"
     style="font-size:12.66600037px;font-family:'Bitstream Vera Sans';opacity:0.8;fill:#000000"><tspan
       id="tspan4089-7-2-9-75-7"
       y="-481.7341"
       x="-1208.816" /></text>
  <text
     id="text4087-2-6-5-59-8"
     xml:space="preserve"
     font-size="12.666px"
     y="263.81946"
     x="-3032.5017"
     style="font-size:12.66600037px;font-family:'Bitstream Vera Sans';opacity:0.8;fill:#000000"><tspan
       id="tspan4089-7-2-9-4-2"
       y="263.81946"
       x="-3032.5017" /></text>
  <g
     id="layer4-0"
     transform="matrix(0.90475,0,0,0.90475,-716.75,-692.29)">
    <text
       id="text4087-2-6-5-20"
       xml:space="preserve"
       font-size="14px"
       y="1159.4154"
       x="-664.2738"
       style="font-size:14px;font-family:'Bitstream Vera Sans';opacity:0.8;fill:#000000"><tspan
         id="tspan4089-7-2-9-82"
         y="1159.4154"
         x="-664.2738" /></text>
  </g>
  <text
     id="text4087-2-6-5-9"
     xml:space="preserve"
     font-size="12.666px"
     y="2.0505886"
     x="877.22626"
     style="font-size:12.66600037px;font-family:'Bitstream Vera Sans';opacity:0.8;fill:#000000"><tspan
       id="tspan4089-7-2-9-43"
       y="2.0505886"
       x="877.22626" /></text>
  <text
     id="text4087-2-6-5-5-51"
     xml:space="preserve"
     font-size="12.666px"
     y="-38.691116"
     x="901.18719"
     style="font-size:12.66600037px;font-family:'Bitstream Vera Sans';opacity:0.8;fill:#000000"><tspan
       id="tspan4089-7-2-9-6-74"
       y="-38.691116"
       x="901.18719" /></text>
  <text
     id="text4087-2-6-5-2-3"
     xml:space="preserve"
     font-size="12.666px"
     y="-68.769257"
     x="-569.37115"
     style="font-size:12.66600037px;font-family:'Bitstream Vera Sans';opacity:0.8;fill:#000000"><tspan
       id="tspan4089-7-2-9-2-1"
       y="-68.769257"
       x="-569.37115" /></text>
  <text
     id="text4087-2-6-5-59-4"
     xml:space="preserve"
     font-size="12.666px"
     y="676.78418"
     x="-2393.0571"
     style="font-size:12.66600037px;font-family:'Bitstream Vera Sans';opacity:0.8;fill:#000000"><tspan
       id="tspan4089-7-2-9-4-6"
       y="676.78418"
       x="-2393.0571" /></text>
  <text
     id="text4087-2-6-5-1-9"
     xml:space="preserve"
     font-size="12.666px"
     y="-454.09021"
     x="-454.88007"
     style="font-size:12.66600037px;font-family:'Bitstream Vera Sans';opacity:0.8;fill:#000000"><tspan
       id="tspan4089-7-2-9-7-4"
       y="-454.09021"
       x="-454.88007" /></text>
  <text
     id="text4087-2-6-5-7-2"
     xml:space="preserve"
     font-size="12.666px"
     y="-867.5603"
     x="352.72208"
     style="font-size:12.66600037px;font-family:'Bitstream Vera Sans';opacity:0.8;fill:#000000"><tspan
       id="tspan4089-7-2-9-1-26"
       y="-867.5603"
       x="352.72208" /></text>
  <text
     id="text4087-2-6-5-5-3-4"
     xml:space="preserve"
     font-size="12.666px"
     y="-908.30206"
     x="376.68301"
     style="font-size:12.66600037px;font-family:'Bitstream Vera Sans';opacity:0.8;fill:#000000"><tspan
       id="tspan4089-7-2-9-6-5-1"
       y="-908.30206"
       x="376.68301" /></text>
  <text
     id="text4087-2-6-5-3-2"
     xml:space="preserve"
     font-size="12.666px"
     y="-915.51196"
     x="-1114.7802"
     style="font-size:12.66600037px;font-family:'Bitstream Vera Sans';opacity:0.8;fill:#000000"><tspan
       id="tspan4089-7-2-9-18-8"
       y="-915.51196"
       x="-1114.7802" /></text>
  <text
     id="text4087-2-6-5-4-89"
     xml:space="preserve"
     font-size="12.666px"
     y="-1188.7461"
     x="345.7626"
     style="font-size:12.66600037px;font-family:'Bitstream Vera Sans';opacity:0.8;fill:#000000"><tspan
       id="tspan4089-7-2-9-9-2"
       y="-1188.7461"
       x="345.7626" /></text>
  <text
     id="text4087-2-6-5-7-1-8"
     xml:space="preserve"
     font-size="12.666px"
     y="-562.05475"
     x="1831.8861"
     style="font-size:12.66600037px;font-family:'Bitstream Vera Sans';opacity:0.8;fill:#000000"><tspan
       id="tspan4089-7-2-9-1-8-8"
       y="-562.05475"
       x="1831.8861" /></text>
  <text
     id="text4087-2-6-5-5-5-8"
     xml:space="preserve"
     font-size="12.666px"
     y="-602.79651"
     x="1855.8469"
     style="font-size:12.66600037px;font-family:'Bitstream Vera Sans';opacity:0.8;fill:#000000"><tspan
       id="tspan4089-7-2-9-6-9-6"
       y="-602.79651"
       x="1855.8469" /></text>
  <text
     id="text4087-2-6-5-75-8"
     xml:space="preserve"
     font-size="12.666px"
     y="-610.00641"
     x="364.38376"
     style="font-size:12.66600037px;font-family:'Bitstream Vera Sans';opacity:0.8;fill:#000000"><tspan
       id="tspan4089-7-2-9-3-3"
       y="-610.00641"
       x="364.38376" /></text>
  <text
     id="text4087-2-6-5-4-8-8"
     xml:space="preserve"
     font-size="12.666px"
     y="-883.24036"
     x="1824.9266"
     style="font-size:12.66600037px;font-family:'Bitstream Vera Sans';opacity:0.8;fill:#000000"><tspan
       id="tspan4089-7-2-9-9-8-3"
       y="-883.24036"
       x="1824.9266" /></text>
  <text
     id="text4087-2-6-5-45-33"
     xml:space="preserve"
     font-size="12.666px"
     y="-658.09772"
     x="-573.43256"
     style="font-size:12.66600037px;font-family:'Bitstream Vera Sans';opacity:0.8;fill:#000000"><tspan
       id="tspan4089-7-2-9-75-8"
       y="-658.09772"
       x="-573.43256" /></text>
  <text
     id="text4087-2-6-5-59-7-0"
     xml:space="preserve"
     font-size="12.666px"
     y="87.455849"
     x="-2397.1182"
     style="font-size:12.66600037px;font-family:'Bitstream Vera Sans';opacity:0.8;fill:#000000"><tspan
       id="tspan4089-7-2-9-4-0-4"
       y="87.455849"
       x="-2397.1182" /></text>
  <text
     id="text4087-2-6-5-8-7"
     xml:space="preserve"
     font-size="12.666px"
     y="180.32799"
     x="-682.36279"
     style="font-size:12.66600037px;font-family:'Bitstream Vera Sans';opacity:0.8;fill:#000000"><tspan
       id="tspan4089-7-2-9-19-6"
       y="180.32799"
       x="-682.36279" /></text>
  <text
     id="text4087-2-6-5-7-5-8"
     xml:space="preserve"
     font-size="12.666px"
     y="1.1458397"
     x="426.66153"
     style="font-size:12.66600037px;font-family:'Bitstream Vera Sans';opacity:0.8;fill:#000000"><tspan
       id="tspan4089-7-2-9-1-2-9"
       y="1.1458397"
       x="426.66153" /></text>
  <text
     id="text4087-2-6-5-5-0-0"
     xml:space="preserve"
     font-size="12.666px"
     y="-39.595863"
     x="450.62247"
     style="font-size:12.66600037px;font-family:'Bitstream Vera Sans';opacity:0.8;fill:#000000"><tspan
       id="tspan4089-7-2-9-6-2-6"
       y="-39.595863"
       x="450.62247" /></text>
  <text
     id="text4087-2-6-5-26-8"
     xml:space="preserve"
     font-size="12.666px"
     y="-46.805836"
     x="-1040.8407"
     style="font-size:12.66600037px;font-family:'Bitstream Vera Sans';opacity:0.8;fill:#000000"><tspan
       id="tspan4089-7-2-9-90-7"
       y="-46.805836"
       x="-1040.8407" /></text>
  <text
     id="text4087-2-6-5-4-3-9"
     xml:space="preserve"
     font-size="12.666px"
     y="-320.03989"
     x="419.70206"
     style="font-size:12.66600037px;font-family:'Bitstream Vera Sans';opacity:0.8;fill:#000000"><tspan
       id="tspan4089-7-2-9-9-5-0"
       y="-320.03989"
       x="419.70206" /></text>
  <text
     id="text4087-2-6-5-55-3"
     xml:space="preserve"
     font-size="12.666px"
     y="-49.520081"
     x="-608.03253"
     style="font-size:12.66600037px;font-family:'Bitstream Vera Sans';opacity:0.8;fill:#000000"><tspan
       id="tspan4089-7-2-9-32-3"
       y="-49.520081"
       x="-608.03253" /></text>
  <text
     id="text4087-2-6-5-59-9-3"
     xml:space="preserve"
     font-size="12.666px"
     y="696.03345"
     x="-2431.7185"
     style="font-size:12.66600037px;font-family:'Bitstream Vera Sans';opacity:0.8;fill:#000000"><tspan
       id="tspan4089-7-2-9-4-1-7"
       y="696.03345"
       x="-2431.7185" /></text>
  <text
     id="text4087-2-6-5-1-8-3"
     xml:space="preserve"
     font-size="12.666px"
     y="-911.0506"
     x="-456.93948"
     style="font-size:12.66600037px;font-family:'Bitstream Vera Sans';opacity:0.8;fill:#000000"><tspan
       id="tspan4089-7-2-9-7-8-2"
       y="-911.0506"
       x="-456.93948" /></text>
  <text
     id="text4087-2-6-5-7-8-6"
     xml:space="preserve"
     font-size="12.666px"
     y="-1324.5208"
     x="350.66266"
     style="font-size:12.66600037px;font-family:'Bitstream Vera Sans';opacity:0.8;fill:#000000"><tspan
       id="tspan4089-7-2-9-1-9-5"
       y="-1324.5208"
       x="350.66266" /></text>
  <text
     id="text4087-2-6-5-5-52-2"
     xml:space="preserve"
     font-size="12.666px"
     y="-1365.2626"
     x="374.62357"
     style="font-size:12.66600037px;font-family:'Bitstream Vera Sans';opacity:0.8;fill:#000000"><tspan
       id="tspan4089-7-2-9-6-4-6"
       y="-1365.2626"
       x="374.62357" /></text>
  <text
     id="text4087-2-6-5-3-4-5"
     xml:space="preserve"
     font-size="12.666px"
     y="-1372.4724"
     x="-1116.8396"
     style="font-size:12.66600037px;font-family:'Bitstream Vera Sans';opacity:0.8;fill:#000000"><tspan
       id="tspan4089-7-2-9-18-3-8"
       y="-1372.4724"
       x="-1116.8396" /></text>
  <text
     id="text4087-2-6-5-4-7-7"
     xml:space="preserve"
     font-size="12.666px"
     y="-1645.7065"
     x="343.70316"
     style="font-size:12.66600037px;font-family:'Bitstream Vera Sans';opacity:0.8;fill:#000000"><tspan
       id="tspan4089-7-2-9-9-54-9"
       y="-1645.7065"
       x="343.70316" /></text>
  <text
     id="text4087-2-6-5-7-1-2-6"
     xml:space="preserve"
     font-size="12.666px"
     y="-1019.0153"
     x="1829.8265"
     style="font-size:12.66600037px;font-family:'Bitstream Vera Sans';opacity:0.8;fill:#000000"><tspan
       id="tspan4089-7-2-9-1-8-0-0"
       y="-1019.0153"
       x="1829.8265" /></text>
  <text
     id="text4087-2-6-5-5-5-6-4"
     xml:space="preserve"
     font-size="12.666px"
     y="-1059.757"
     x="1853.7874"
     style="font-size:12.66600037px;font-family:'Bitstream Vera Sans';opacity:0.8;fill:#000000"><tspan
       id="tspan4089-7-2-9-6-9-8-1"
       y="-1059.757"
       x="1853.7874" /></text>
  <text
     id="text4087-2-6-5-75-4-0"
     xml:space="preserve"
     font-size="12.666px"
     y="-1066.9668"
     x="362.32431"
     style="font-size:12.66600037px;font-family:'Bitstream Vera Sans';opacity:0.8;fill:#000000"><tspan
       id="tspan4089-7-2-9-3-9-4"
       y="-1066.9668"
       x="362.32431" /></text>
  <text
     id="text4087-2-6-5-4-8-1-8"
     xml:space="preserve"
     font-size="12.666px"
     y="-1340.2009"
     x="1822.8671"
     style="font-size:12.66600037px;font-family:'Bitstream Vera Sans';opacity:0.8;fill:#000000"><tspan
       id="tspan4089-7-2-9-9-8-8-7"
       y="-1340.2009"
       x="1822.8671" /></text>
  <text
     id="text4087-2-6-5-45-0-0"
     xml:space="preserve"
     font-size="12.666px"
     y="-1115.0581"
     x="-575.492"
     style="font-size:12.66600037px;font-family:'Bitstream Vera Sans';opacity:0.8;fill:#000000"><tspan
       id="tspan4089-7-2-9-75-2-8"
       y="-1115.0581"
       x="-575.492" /></text>
  <text
     id="text4087-2-6-5-59-5-6"
     xml:space="preserve"
     font-size="12.666px"
     y="-369.50461"
     x="-2399.1777"
     style="font-size:12.66600037px;font-family:'Bitstream Vera Sans';opacity:0.8;fill:#000000"><tspan
       id="tspan4089-7-2-9-4-00-2"
       y="-369.50461"
       x="-2399.1777" /></text>
  <text
     id="text4087-2-6-5-264-4"
     xml:space="preserve"
     font-size="12.666px"
     y="-276.63245"
     x="-684.42224"
     style="font-size:12.66600037px;font-family:'Bitstream Vera Sans';opacity:0.8;fill:#000000"><tspan
       id="tspan4089-7-2-9-8-7"
       y="-276.63245"
       x="-684.42224" /></text>
  <text
     id="text4087-2-6-5-42-9"
     xml:space="preserve"
     font-size="12.666px"
     y="-35.718292"
     x="155.5923"
     style="font-size:12.66600037px;font-family:'Bitstream Vera Sans';opacity:0.8;fill:#000000"><tspan
       id="tspan4089-7-2-9-93-3"
       y="-35.718292"
       x="155.5923" /></text>
  <text
     id="text4087-2-6-5-5-05-9"
     xml:space="preserve"
     font-size="12.666px"
     y="-76.460007"
     x="179.55324"
     style="font-size:12.66600037px;font-family:'Bitstream Vera Sans';opacity:0.8;fill:#000000"><tspan
       id="tspan4089-7-2-9-6-49-2"
       y="-76.460007"
       x="179.55324" /></text>
  <text
     id="text4087-2-6-5-1-4-8"
     xml:space="preserve"
     font-size="12.666px"
     y="-270.48859"
     x="-1090.2634"
     style="font-size:12.66600037px;font-family:'Bitstream Vera Sans';opacity:0.8;fill:#000000"><tspan
       id="tspan4089-7-2-9-7-7-3"
       y="-270.48859"
       x="-1090.2634" /></text>
  <text
     id="text4087-2-6-5-7-56-0"
     xml:space="preserve"
     font-size="12.666px"
     y="-683.9588"
     x="-282.66141"
     style="font-size:12.66600037px;font-family:'Bitstream Vera Sans';opacity:0.8;fill:#000000"><tspan
       id="tspan4089-7-2-9-1-1-1"
       y="-683.9588"
       x="-282.66141" /></text>
  <text
     id="text4087-2-6-5-5-8-7"
     xml:space="preserve"
     font-size="12.666px"
     y="-724.7005"
     x="-258.70047"
     style="font-size:12.66600037px;font-family:'Bitstream Vera Sans';opacity:0.8;fill:#000000"><tspan
       id="tspan4089-7-2-9-6-7-8"
       y="-724.7005"
       x="-258.70047" /></text>
  <text
     id="text4087-2-6-5-3-42-9"
     xml:space="preserve"
     font-size="12.666px"
     y="-731.91046"
     x="-1750.1636"
     style="font-size:12.66600037px;font-family:'Bitstream Vera Sans';opacity:0.8;fill:#000000"><tspan
       id="tspan4089-7-2-9-18-39-1"
       y="-731.91046"
       x="-1750.1636" /></text>
  <text
     id="text4087-2-6-5-4-4-5"
     xml:space="preserve"
     font-size="12.666px"
     y="-1005.1445"
     x="-289.62085"
     style="font-size:12.66600037px;font-family:'Bitstream Vera Sans';opacity:0.8;fill:#000000"><tspan
       id="tspan4089-7-2-9-9-3-4"
       y="-1005.1445"
       x="-289.62085" /></text>
  <text
     id="text4087-2-6-5-7-1-0-9"
     xml:space="preserve"
     font-size="12.666px"
     y="-378.45316"
     x="1196.5026"
     style="font-size:12.66600037px;font-family:'Bitstream Vera Sans';opacity:0.8;fill:#000000"><tspan
       id="tspan4089-7-2-9-1-8-5-2"
       y="-378.45316"
       x="1196.5026" /></text>
  <text
     id="text4087-2-6-5-5-5-5-5"
     xml:space="preserve"
     font-size="12.666px"
     y="-419.19489"
     x="1220.4634"
     style="font-size:12.66600037px;font-family:'Bitstream Vera Sans';opacity:0.8;fill:#000000"><tspan
       id="tspan4089-7-2-9-6-9-2-7"
       y="-419.19489"
       x="1220.4634" /></text>
  <text
     id="text4087-2-6-5-75-9-4"
     xml:space="preserve"
     font-size="12.666px"
     y="-426.40482"
     x="-270.99973"
     style="font-size:12.66600037px;font-family:'Bitstream Vera Sans';opacity:0.8;fill:#000000"><tspan
       id="tspan4089-7-2-9-3-1-9"
       y="-426.40482"
       x="-270.99973" /></text>
  <text
     id="text4087-2-6-5-4-8-18-9"
     xml:space="preserve"
     font-size="12.666px"
     y="-699.63892"
     x="1189.5431"
     style="font-size:12.66600037px;font-family:'Bitstream Vera Sans';opacity:0.8;fill:#000000"><tspan
       id="tspan4089-7-2-9-9-8-4-4"
       y="-699.63892"
       x="1189.5431" /></text>
  <text
     id="text4087-2-6-5-45-3-5"
     xml:space="preserve"
     font-size="12.666px"
     y="-474.49609"
     x="-1208.816"
     style="font-size:12.66600037px;font-family:'Bitstream Vera Sans';opacity:0.8;fill:#000000"><tspan
       id="tspan4089-7-2-9-75-7-9"
       y="-474.49609"
       x="-1208.816" /></text>
  <text
     id="text4087-2-6-5-59-8-3"
     xml:space="preserve"
     font-size="12.666px"
     y="271.05743"
     x="-3032.5017"
     style="font-size:12.66600037px;font-family:'Bitstream Vera Sans';opacity:0.8;fill:#000000"><tspan
       id="tspan4089-7-2-9-4-2-5"
       y="271.05743"
       x="-3032.5017" /></text>
  <g
     id="layer4-0-7"
     transform="matrix(0.90475,0,0,0.90475,-716.75,-685.05)">
    <text
       id="text4087-2-6-5-20-0"
       xml:space="preserve"
       font-size="14px"
       y="1159.4154"
       x="-664.2738"
       style="font-size:14px;font-family:'Bitstream Vera Sans';opacity:0.8;fill:#000000"><tspan
         id="tspan4089-7-2-9-82-8"
         y="1159.4154"
         x="-664.2738" /></text>
  </g>
  <text
     id="text7276"
     xml:space="preserve"
     font-size="12.666px"
     y="-377.22546"
     x="435.90427"
     style="font-size:12.66600037px;font-family:'Droid Sans';fill:#000000"><tspan
       id="tspan7278"
       y="-377.22546"
       x="435.90427" /><tspan
       id="tspan7280"
       y="-361.3924"
       x="435.90427" /></text>
  <text
     id="text4087-2-6-5-51"
     xml:space="preserve"
     font-size="12.666px"
     y="-859.27002"
     x="901.0882"
     style="font-size:12.66600037px;font-family:'Bitstream Vera Sans';opacity:0.8;fill:#000000"><tspan
       id="tspan4089-7-2-9-97"
       y="-859.27002"
       x="901.0882" /></text>
  <text
     id="text4087-2-6-5-59-2"
     xml:space="preserve"
     font-size="12.666px"
     y="-113.71655"
     x="-922.59778"
     style="font-size:12.66600037px;font-family:'Bitstream Vera Sans';opacity:0.8;fill:#000000"><tspan
       id="tspan4089-7-2-9-4-4"
       y="-113.71655"
       x="-922.59778" /></text>
  <text
     id="text4087-2-6-5-7-7"
     xml:space="preserve"
     font-size="12.666px"
     y="-1144.2659"
     x="1628.1677"
     style="font-size:12.66600037px;font-family:'Bitstream Vera Sans';opacity:0.8;fill:#000000"><tspan
       id="tspan4089-7-2-9-1-6"
       y="-1144.2659"
       x="1628.1677" /></text>
  <text
     id="text4087-2-6-5-5-6"
     xml:space="preserve"
     font-size="12.666px"
     y="-1185.0076"
     x="1652.1285"
     style="font-size:12.66600037px;font-family:'Bitstream Vera Sans';opacity:0.8;fill:#000000"><tspan
       id="tspan4089-7-2-9-6-53"
       y="-1185.0076"
       x="1652.1285" /></text>
  <text
     id="text4087-2-6-5-54"
     xml:space="preserve"
     font-size="12.666px"
     y="-1192.2175"
     x="160.66542"
     style="font-size:12.66600037px;font-family:'Bitstream Vera Sans';opacity:0.8;fill:#000000"><tspan
       id="tspan4089-7-2-9-0"
       y="-1192.2175"
       x="160.66542" /></text>
  <text
     id="text4087-2-6-5-4-1"
     xml:space="preserve"
     font-size="12.666px"
     y="-1465.4517"
     x="1621.2083"
     style="font-size:12.66600037px;font-family:'Bitstream Vera Sans';opacity:0.8;fill:#000000"><tspan
       id="tspan4089-7-2-9-9-28"
       y="-1465.4517"
       x="1621.2083" /></text>
  <g
     id="g4724"
     transform="translate(-0.9999384,1)">
    <rect
       id="rect4203-9"
       transform="matrix(0,-1,-1,0,0,0)"
       rx="11"
       ry="11"
       height="22"
       width="22"
       y="-27"
       x="-27"
       style="fill:#6573c3" />
    <path
       id="rect4712"
       d="M 5.0253906,15.5 C 5.0179247,15.667082 5,15.831011 5,16 5,22.094 9.906,27 16,27 22.094,27 27,22.094 27,16 27,15.831011 26.98207,15.667082 26.97461,15.5 26.712844,21.358171 21.925011,26 16,26 10.074989,26 5.287156,21.358171 5.0253906,15.5 Z"
       style="opacity:0.3;fill:#000000;fill-opacity:1"
       inkscape:connector-curvature="0" />
    <path
       id="rect4707"
       d="M 16,5 C 9.906,5 5,9.906 5,16 5,16.168989 5.017925,16.332918 5.025391,16.5 5.287156,10.641829 10.074989,6 16,6 21.925011,6 26.712844,10.641829 26.974609,16.5 26.982075,16.332918 27,16.168989 27,16 27,9.906 22.094,5 16,5 Z"
       style="opacity:0.2;fill:#ffffff;fill-opacity:1"
       inkscape:connector-curvature="0" />
    <path
       style="opacity:0.2;fill:#000000;fill-opacity:1;fill-rule:evenodd;stroke:none;stroke-width:0.62795258;stroke-linecap:round;stroke-linejoin:round;stroke-miterlimit:4;stroke-dasharray:none;stroke-opacity:1"
       d="m 23.632332,3.0002481 c -0.0069,2.338e-4 -0.01485,0.00472 -0.02186,0.00523 -0.05095,0.00362 -0.103977,0.016904 -0.158179,0.039173 -0.04459,0.018265 -0.08944,0.038391 -0.132459,0.074427 -0.04512,0.037797 -0.08647,0.091478 -0.126028,0.154077 -0.01021,0.016072 -0.01989,0.032985 -0.02958,0.050923 -0.03579,0.066642 -0.06883,0.1423629 -0.09516,0.2376444 -0.0016,0.00564 -0.0036,0.00861 -0.0051,0.014363 -0.07302,-0.3533976 -0.837193,-0.2676763 -0.837193,-0.2676763 0,0 0.0013,0.0013 0.0013,0.00131 -1.7e-5,1.8e-6 -0.0026,0 -0.0026,0 0,0 0.06384,0.043598 0.126028,0.104459 0.03106,0.030589 0.06217,0.064794 0.08488,0.1005415 1.7e-4,2.662e-4 -1.7e-4,0.00103 0,0.00131 0.02274,0.035627 0.03628,0.071619 0.03472,0.1057646 0,0 0,0.00131 0,0.00131 -0.130875,0.015041 -0.259561,0.036362 -0.38709,0.06398 -0.02772,-0.062648 -0.02446,-0.1562789 -0.01801,-0.2559247 0.0065,-0.099645 0.0162,-0.2044127 -0.0013,-0.2911795 -5.06e-4,7.779e-4 -8e-4,0.00184 -0.0013,0.00261 -2.24e-4,-0.00117 2.35e-4,-0.00276 0,-0.00392 -0.0542,0.083348 -0.09256,0.1844063 -0.120885,0.2885681 -0.02832,0.1041618 -0.04553,0.2111812 -0.05659,0.3068484 -0.02533,0.00694 -0.04946,0.01734 -0.07459,0.02481 -0.09877,0.029105 -0.198307,0.057824 -0.293209,0.095319 -0.06759,-0.1156621 -0.143815,-0.2160852 -0.223695,-0.3107677 -0.082,-0.097196 -0.170951,-0.1803926 -0.264918,-0.2520075 -0.01718,-0.013274 -0.03387,-0.026832 -0.05143,-0.039173 -0.09539,-0.066097 -0.194801,-0.1212205 -0.300926,-0.1579944 -0.0032,-0.00113 -0.0057,-0.00413 -0.009,-0.00523 -8e-4,-2.713e-4 -0.0018,2.695e-4 -0.0026,0 -0.106965,-0.035757 -0.220089,-0.052273 -0.336935,-0.054841 -0.01158,-2.557e-4 -0.02176,-0.00532 -0.03343,-0.00523 -0.01895,1.544e-4 -0.03998,0.00938 -0.05915,0.010446 -0.09051,0.00502 -0.183456,0.020575 -0.279065,0.047006 -0.03298,0.00911 -0.06547,0.016952 -0.09902,0.028726 -0.126118,0.044283 -0.254696,0.1013137 -0.388376,0.1854149 -0.477756,0.3005642 -0.701393,0.7810376 -0.767748,1.3135726 -1.384474,0.292594 -2.942532,0.5404421 -4.317133,0.5457986 -0.01542,6.08e-5 -0.03221,0.00131 -0.04758,0.00131 -1.480846,0 -2.681601,0.435644 -3.566105,1.2378398 -0.252515,0.2288937 -0.478799,0.4873961 -0.679013,0.7743027 -1.96e-4,2.808e-4 1.96e-4,0.00102 0,0.00131 C 9.992041,7.3180122 9.8982602,7.4680034 9.8116529,7.625178 9.7675059,7.705309 9.7301249,7.7922284 9.6894822,7.8758804 c -0.039313,0.0809 -0.08231,0.1587202 -0.1183127,0.2428668 -1.56e-4,3.639e-4 1.554e-4,9.47e-4 0,0.00129 -0.07306,0.170657 -0.1389033,0.3476935 -0.1981226,0.5314169 -0.059247,0.1837944 -0.111618,0.3741715 -0.156892,0.5706079 -0.034773,0.1508915 -0.062307,0.3080099 -0.088736,0.4661477 -0.00811,0.048564 -0.01968,0.094393 -0.027007,0.1436322 -6.47e-5,4.332e-4 6.47e-5,8.797e-4 0,0.00132 -0.03098,0.2087161 -0.054133,0.4231781 -0.070731,0.6437301 -6.6e-5,8.79e-4 6.6e-5,0.0017 0,0.0026 -0.016507,0.220191 -0.026327,0.446097 -0.028293,0.677678 -0.00393,0.464944 5.26e-4,0.885773 0.01286,1.266566 2.47e-5,8.12e-4 -2.6e-5,0.0018 0,0.0026 0.01234,0.379625 0.03228,0.71982 0.057867,1.023699 3.33e-5,3.87e-4 -3.2e-5,9.47e-4 0,0.0013 0.025633,0.304052 0.057913,0.572105 0.093879,0.808252 5.73e-5,3.75e-4 -5.74e-5,9.46e-4 0,0.0013 0.03596,0.235911 0.076267,0.440264 0.1195986,0.616308 8.87e-5,3.59e-4 -8.8e-5,9.47e-4 0,0.0013 0.043313,0.175789 0.089869,0.323905 0.1376027,0.447869 1.28e-4,3.3e-4 -1.273e-4,10e-4 0,0.0013 0.047707,0.123698 0.097435,0.223013 0.146606,0.302932 1.707e-4,2.78e-4 -1.713e-4,10e-4 0,0.0013 0.049133,0.07968 0.098947,0.138883 0.1466047,0.182803 0.0481,0.04439 0.093993,0.07399 0.1376033,0.0901 0.2819528,0.1041 0.1966768,-0.02628 0.1517488,-0.08618 -0.010039,-0.01339 -0.023893,-0.03985 -0.024439,-0.04048 l 0.124743,0.07704 0.126028,0.07964 0,-0.0013 0,-0.15669 0.118313,0.01568 0.102881,0.01437 0.09645,-0.194554 0.03087,-0.06137 0.284208,0 c 0,0 0.111431,-0.06966 0.176183,-0.255925 0.007,-0.02019 0.01751,-0.03156 0.02315,-0.05485 8.4e-5,-3.46e-4 -8.5e-5,-9.47e-4 0,-0.0013 0.01925,-0.07927 0.02973,-0.176683 0.02186,-0.296403 -0.02373,-0.361403 0.129167,-0.505511 0.100308,-0.745577 -0.0093,-0.07924 -0.03788,-0.169375 -0.100308,-0.280733 -0.124523,-0.221258 -0.256618,-1.284872 -0.298355,-2.355551 -6.21e-4,-0.01592 -0.002,-0.03109 -0.0026,-0.04701 -0.01963,-0.542609 -0.01599,-1.083778 0.02443,-1.5159609 4.6e-5,-4.962e-4 -4.7e-5,-8.118e-4 0,-0.00132 0.04046,-0.4314882 0.118419,-0.7529497 0.244342,-0.857753 0.126322,-0.1042114 0.317947,-0.2432023 0.552984,-0.3956388 0.234835,-0.1523269 0.512802,-0.3188564 0.812758,-0.4792063 0.449978,-0.2405519 0.949365,-0.4677759 1.423612,-0.6136969 0.158138,-0.048608 0.312955,-0.088153 0.462964,-0.1162101 0.450405,-0.084242 0.851666,-0.1821201 1.32459,-0.2441733 0.314441,-0.041117 0.660947,-0.066228 1.073817,-0.06137 3.94e-4,4.4e-6 9.33e-4,-4.5e-6 0.0013,0 0.0094,1.126e-4 0.02135,0.00117 0.03087,0.00131 0.615333,0.00934 1.375981,0.084746 2.402266,0.2742049 0.0022,0.1845806 0.0173,0.4037365 0.0463,0.6724553 1.68e-4,0.00155 -1.69e-4,0.00236 0,0.00393 6e-5,5.54e-4 -6e-5,7.441e-4 0,0.00135 0.07956,0.7343436 0.242805,1.1602045 0.468108,1.5486051 0.225303,0.388401 0.511967,0.738489 0.838478,1.320101 3.39e-4,6.04e-4 9.33e-4,6.7e-4 0.0013,0.0013 0.09899,0.179383 0.203036,0.340589 0.312502,0.483123 3.41e-4,4.46e-4 9.33e-4,8.79e-4 0.0013,0.0013 0.109703,0.142664 0.224821,0.267092 0.34465,0.373441 0.119707,0.106242 0.244807,0.194399 0.37423,0.265065 5.05e-4,2.78e-4 8e-4,10e-4 0.0013,0.0013 0.129258,0.07042 0.262683,0.123673 0.401236,0.1593 0.556657,0.143995 1.186362,0.01024 1.877573,-0.381276 0.569181,-0.337931 0.990147,-0.496702 1.37603,-0.719462 0.09658,-0.05549 0.190177,-0.115429 0.284209,-0.182803 0.09424,-0.06752 0.187674,-0.142671 0.282922,-0.229811 0.09474,-0.08684 0.191336,-0.185189 0.290638,-0.299013 2.01e-4,-2.31e-4 -2.01e-4,-0.0011 0,-0.0013 0.0994,-0.113895 0.203746,-0.24184 0.311214,-0.390416 0.02826,-0.03908 0.03449,-0.05846 0.06044,-0.09532 0.134667,-0.1903841 0.25431,-0.3635277 0.33565,-0.5066269 0.208379,-0.1568768 0.417624,-0.3164495 0.614713,-0.446563 0.479231,-0.3265134 1.00288,-0.8327671 1.325875,-1.4088898 1.97e-4,-3.5e-4 -1.96e-4,-9.335e-4 0,-0.00127 0.161259,-0.2878662 0.272313,-0.5931427 0.303498,-0.9022652 4.4e-5,-4.341e-4 -4.3e-5,-8.727e-4 0,-0.00131 0.0077,-0.076954 0.01042,-0.1539051 0.0077,-0.2311157 -1.5e-5,-4.285e-4 1.6e-5,-8.795e-4 0,-0.00131 -0.0085,-0.2331623 -0.06637,-0.466016 -0.18662,-0.6935699 -0.0719,-0.1360537 -0.151082,-0.2498406 -0.23534,-0.3499378 -0.02655,-0.031548 -0.05596,-0.054156 -0.08359,-0.082261 -0.05859,-0.059657 -0.118343,-0.1158598 -0.181327,-0.1606059 -0.03607,-0.025537 -0.07327,-0.045795 -0.110598,-0.066592 -0.06142,-0.03441 -0.123345,-0.064088 -0.187757,-0.086178 -0.03821,-0.012968 -0.07664,-0.023871 -0.115741,-0.032644 -0.0742,-0.016935 -0.149487,-0.026227 -0.226337,-0.028726 -0.0275,-7.915e-4 -0.05454,-0.0036 -0.08231,-0.00261 -0.105283,0.00335 -0.212268,0.018032 -0.320216,0.045701 -0.0027,6.833e-4 -0.0051,6.1e-4 -0.0077,0.00131 -4.17e-4,1.091e-4 -8.67e-4,-1.095e-4 -0.0013,0 -0.213522,0.055984 -0.429352,0.1544677 -0.641719,0.2937911 -0.0013,-0.00177 -0.0027,-0.00346 -0.0039,-0.00523 -0.05874,-0.08385 -0.122642,-0.1641459 -0.189044,-0.2428674 -0.01612,-0.019113 -0.02975,-0.039955 -0.0463,-0.058759 1.41e-4,-2.98e-4 -1.39e-4,-0.001 0,-0.00131 0.03034,-0.064437 0.06698,-0.1503026 0.09517,-0.2428673 0.02811,-0.092777 0.04759,-0.1920292 0.04373,-0.2820395 -0.122801,0.1471253 -0.159232,0.4953805 -0.358797,0.2911796 -0.02499,-0.025572 -0.04083,-0.048563 -0.04887,-0.069204 -0.008,-0.020641 -0.0075,-0.038635 -0.0026,-0.054841 0.0049,-0.015134 0.02435,-0.023612 0.0373,-0.035255 0.06942,-0.062461 0.221193,-0.083568 0.221193,-0.083568 0,0 -0.0013,-0.0013 -0.0013,-0.00131 0,0 -0.237561,-0.1828685 -0.425668,-0.1919434 -0.03135,-0.00151 -0.06146,0.00194 -0.08874,0.011751 -0.02677,0.00958 -0.05171,0.025989 -0.07202,0.049617 0.07702,-0.2933252 -0.0013,-0.4496504 -0.09902,-0.5327412 -0.09785,-0.083226 -0.214764,-0.094013 -0.214764,-0.094013 0,0 -4e-6,0.0013 0,0.00131 2e-6,-2e-7 0.08755,0.094709 0.124745,0.2050008 0.0039,0.011757 0.01159,0.021901 0.01415,0.033949 8.4e-5,3.945e-4 -8.3e-5,9.132e-4 0,0.00131 0.0085,0.041287 0.0072,0.084216 -0.01029,0.124045 -1.79e-4,4.17e-4 1.84e-4,8.93e-4 0,0.00131 -0.01188,0.026511 -0.03334,0.048565 -0.05915,0.065286 -0.0086,0.00556 -0.02001,0.00618 -0.02958,0.010447 -0.01899,0.00802 -0.03784,0.017006 -0.05915,0.019586 -0.05225,-0.031839 -0.10575,-0.062493 -0.159464,-0.092708 -0.01954,-0.010989 -0.03815,-0.023371 -0.05787,-0.033949 -0.01646,-0.047345 -0.01989,-0.1105272 0,-0.1880263 2.75e-4,-0.00108 -2.86e-4,-0.00153 0,-0.00261 -0.123709,-0.044754 -0.218495,-0.00989 -0.288067,0.049618 -0.05405,-0.024414 -0.108278,-0.048058 -0.163322,-0.07051 l 0.04372,-0.2285042 0.0553,-0.2846509 -0.0013,0.00261 0,-0.00261 -0.277778,0.4426453 c -0.04152,-0.015012 -0.08279,-0.02917 -0.124742,-0.04309 -0.0098,-0.1352175 -0.05733,-0.2862589 -0.198046,-0.3760525 -0.04675,-0.029976 -0.10385,-0.053334 -0.173611,-0.066592 -0.04731,0.1792539 -0.141213,0.260155 -0.241771,0.2820394 -0.03625,-0.00704 -0.07299,-0.012306 -0.10931,-0.01828 -0.03599,-0.00622 -0.07206,-0.012971 -0.108024,-0.01828 -0.04899,-0.027311 -0.0907,-0.064166 -0.1196,-0.1070706 -0.02848,-0.042815 -0.04312,-0.090869 -0.03858,-0.1384083 0.0059,-0.061289 0.03539,-0.1138935 0.07587,-0.1579944 0.121935,-0.1313544 0.344651,-0.1893321 0.344651,-0.189332 0,0 -0.03844,-0.017774 -0.100309,-0.032644 -0.04641,-0.011153 -0.105718,-0.020498 -0.171039,-0.01828 z m -12.105208,14.9872639 0,0.352549 -0.252058,-0.160606 0,0.193249 -0.284208,-0.160606 0.06302,0.160606 -0.253344,-0.127962 0.03215,0.319906 -0.252058,-0.255926 0.09388,0.447869 -0.252058,-0.127962 0.221194,0.577136 -0.316359,-0.416531 0.221193,0.577136 -0.189043,-0.127962 0.252058,0.513156 -0.221193,-0.19325 0.253344,0.352549 -0.221194,-0.127962 c 0,0 1.136286,2.180941 3.031125,3.43148 0.47371,0.312636 1.00063,0.671287 1.590794,1.025005 0.590218,0.353743 1.243738,0.702345 1.970166,0.994973 0.907944,0.365742 1.9297,0.64325 3.085138,0.733825 0.231365,0.01817 0.467502,0.02902 0.709877,0.03133 0.483825,0.0046 0.989801,-0.02327 1.518778,-0.09141 0.528975,-0.06814 0.989074,-0.202813 1.38889,-0.386498 0.399804,-0.183685 0.738874,-0.416506 1.027521,-0.68029 0.432698,-0.395402 0.751558,-0.861214 0.985083,-1.337076 l 0,-0.0013 c 0.700711,-1.428628 0.640433,-2.949664 0.640433,-2.949664 -1.180326,2.709504 -2.241662,3.571257 -4.032926,3.081543 -0.163829,-0.04476 -0.33902,-0.109314 -0.515692,-0.17624 -0.269112,-0.102097 -0.5486,-0.220663 -0.851337,-0.372137 -3.372459,-1.687374 -8.243323,-4.618379 -8.243323,-4.618379 l -0.03087,0.224587 -0.473252,-0.416531 0,0.127964 -0.221194,-0.224588 -0.03215,0.193249 -0.221194,-0.321211 0,0.25723 -0.221194,-0.321211 z"
       id="path4722"
       inkscape:connector-curvature="0" />
    <path
       inkscape:connector-curvature="0"
       id="path4509"
       d="m 23.632332,2.0002501 c -0.0069,2.338e-4 -0.01485,0.00472 -0.02186,0.00523 -0.05095,0.00362 -0.103977,0.016904 -0.158179,0.039173 -0.04459,0.018265 -0.08944,0.038391 -0.132459,0.074427 -0.04512,0.037797 -0.08647,0.091478 -0.126028,0.154077 -0.01021,0.016072 -0.01989,0.032985 -0.02958,0.050923 -0.03579,0.066642 -0.06883,0.1423629 -0.09516,0.2376444 -0.0016,0.00564 -0.0036,0.00861 -0.0051,0.014363 -0.07302,-0.3533976 -0.837193,-0.2676763 -0.837193,-0.2676763 0,0 0.0013,0.0013 0.0013,0.00131 -1.7e-5,1.8e-6 -0.0026,0 -0.0026,0 0,0 0.06384,0.043598 0.126028,0.104459 0.03106,0.030589 0.06217,0.064794 0.08488,0.1005415 1.7e-4,2.662e-4 -1.7e-4,0.00103 0,0.00131 0.02274,0.035627 0.03628,0.071619 0.03472,0.1057646 0,0 0,0.00131 0,0.00131 -0.130875,0.015041 -0.259561,0.036362 -0.38709,0.06398 -0.02772,-0.062648 -0.02446,-0.1562789 -0.01801,-0.2559247 0.0065,-0.099645 0.0162,-0.2044127 -0.0013,-0.2911795 -5.06e-4,7.779e-4 -8e-4,0.00184 -0.0013,0.00261 -2.24e-4,-0.00117 2.35e-4,-0.00276 0,-0.00392 -0.0542,0.083348 -0.09256,0.1844063 -0.120885,0.2885681 -0.02832,0.1041618 -0.04553,0.2111812 -0.05659,0.3068484 -0.02533,0.00694 -0.04946,0.01734 -0.07459,0.02481 -0.09877,0.029105 -0.198307,0.057824 -0.293209,0.095319 -0.06759,-0.1156621 -0.143815,-0.2160852 -0.223695,-0.3107677 -0.082,-0.097196 -0.170951,-0.1803926 -0.264918,-0.2520075 -0.01718,-0.013274 -0.03387,-0.026832 -0.05143,-0.039173 -0.09539,-0.066097 -0.194801,-0.1212205 -0.300926,-0.1579944 -0.0032,-0.00113 -0.0057,-0.00413 -0.009,-0.00523 -8e-4,-2.713e-4 -0.0018,2.695e-4 -0.0026,0 -0.106965,-0.035757 -0.220089,-0.052273 -0.336935,-0.054841 -0.01158,-2.557e-4 -0.02176,-0.00532 -0.03343,-0.00523 -0.01895,1.544e-4 -0.03998,0.00938 -0.05915,0.010446 -0.09051,0.00502 -0.183456,0.020575 -0.279065,0.047006 -0.03298,0.00911 -0.06547,0.016952 -0.09902,0.028726 -0.126118,0.044283 -0.254696,0.1013137 -0.388376,0.1854149 -0.477756,0.3005642 -0.701393,0.7810376 -0.767748,1.3135726 -1.384474,0.292594 -2.942532,0.5404421 -4.317133,0.5457986 -0.01542,6.08e-5 -0.03221,0.00131 -0.04758,0.00131 -1.480846,0 -2.681601,0.435644 -3.566105,1.2378398 -0.252515,0.2288937 -0.478799,0.4873961 -0.679013,0.7743027 -1.96e-4,2.808e-4 1.96e-4,0.00102 0,0.00131 C 9.992041,6.3180142 9.8982602,6.4680054 9.8116529,6.62518 9.7675059,6.705311 9.7301249,6.7922304 9.6894822,6.8758824 c -0.039313,0.0809 -0.08231,0.1587202 -0.1183127,0.2428668 -1.56e-4,3.639e-4 1.554e-4,9.47e-4 0,0.00129 -0.07306,0.170657 -0.1389033,0.3476935 -0.1981226,0.5314169 -0.059247,0.1837944 -0.111618,0.3741715 -0.156892,0.5706079 -0.034773,0.1508915 -0.062307,0.3080099 -0.088736,0.4661477 -0.00811,0.048564 -0.01968,0.094393 -0.027007,0.1436322 -6.47e-5,4.332e-4 6.47e-5,8.797e-4 0,0.00132 -0.03098,0.2087157 -0.054133,0.4231777 -0.070731,0.64373 -6.6e-5,8.787e-4 6.6e-5,0.00173 0,0.00264 -0.016507,0.2201911 -0.026327,0.446097 -0.028293,0.6776781 -0.00393,0.464944 5.26e-4,0.885773 0.01286,1.266566 2.47e-5,8.12e-4 -2.6e-5,0.0018 0,0.0026 0.01234,0.379625 0.03228,0.71982 0.057867,1.023699 3.33e-5,3.87e-4 -3.2e-5,9.47e-4 0,0.0013 0.025633,0.304052 0.057913,0.572105 0.093879,0.808252 5.73e-5,3.75e-4 -5.74e-5,9.46e-4 0,0.0013 0.03596,0.235911 0.076267,0.440264 0.1195986,0.616308 8.87e-5,3.59e-4 -8.8e-5,9.47e-4 0,0.0013 0.043313,0.175789 0.089869,0.323905 0.1376027,0.447869 1.28e-4,3.3e-4 -1.273e-4,10e-4 0,0.0013 0.047707,0.123698 0.097435,0.223013 0.146606,0.302932 1.707e-4,2.78e-4 -1.713e-4,0.001 0,0.0013 0.049133,0.07968 0.098947,0.138883 0.1466047,0.182803 0.0481,0.04439 0.093993,0.07399 0.1376033,0.0901 0.2819528,0.1041 0.1966768,-0.02628 0.1517488,-0.08618 -0.010039,-0.01339 -0.023893,-0.03985 -0.024439,-0.04048 l 0.124743,0.07704 0.126028,0.07964 0,-0.0013 0,-0.15669 0.118313,0.01568 0.102881,0.01437 0.09645,-0.194554 0.03087,-0.06137 0.284208,0 c 0,0 0.111431,-0.06966 0.176183,-0.255925 0.007,-0.02019 0.01751,-0.03156 0.02315,-0.05485 8.4e-5,-3.46e-4 -8.5e-5,-9.47e-4 0,-0.0013 0.01925,-0.07927 0.02973,-0.176683 0.02186,-0.296403 -0.02373,-0.361403 0.129167,-0.505511 0.100308,-0.745577 -0.0093,-0.07924 -0.03788,-0.169375 -0.100308,-0.280733 -0.124523,-0.221258 -0.256618,-1.284872 -0.298355,-2.355551 -6.21e-4,-0.01592 -0.002,-0.03109 -0.0026,-0.04701 -0.01963,-0.5426085 -0.01599,-1.0837777 0.02443,-1.5159609 4.6e-5,-4.962e-4 -4.7e-5,-8.118e-4 0,-0.00132 0.04046,-0.4314882 0.118419,-0.7529497 0.244342,-0.857753 0.126322,-0.1042114 0.317947,-0.2432023 0.552984,-0.3956388 0.234835,-0.1523269 0.512802,-0.3188564 0.812758,-0.4792063 0.449978,-0.2405519 0.949365,-0.4677759 1.423612,-0.6136969 0.158138,-0.048608 0.312955,-0.088153 0.462964,-0.1162101 0.450405,-0.084242 0.851666,-0.1821201 1.32459,-0.2441733 0.314441,-0.041117 0.660947,-0.066228 1.073817,-0.06137 3.94e-4,4.4e-6 9.33e-4,-4.5e-6 0.0013,0 0.0094,1.126e-4 0.02135,0.00117 0.03087,0.00131 0.615333,0.00934 1.375981,0.084746 2.402266,0.2742049 0.0022,0.1845806 0.0173,0.4037365 0.0463,0.6724553 1.68e-4,0.00155 -1.69e-4,0.00236 0,0.00393 6e-5,5.54e-4 -6e-5,7.441e-4 0,0.00135 0.07956,0.7343436 0.242805,1.1602045 0.468108,1.5486051 0.225303,0.3884008 0.511967,0.738489 0.838478,1.320101 3.39e-4,6.04e-4 9.33e-4,6.7e-4 0.0013,0.0013 0.09899,0.179383 0.203036,0.340589 0.312502,0.483123 3.41e-4,4.46e-4 9.33e-4,8.79e-4 0.0013,0.0013 0.109703,0.142664 0.224821,0.267092 0.34465,0.373441 0.119707,0.106242 0.244807,0.194399 0.37423,0.265065 5.05e-4,2.78e-4 8e-4,10e-4 0.0013,0.0013 0.129258,0.07042 0.262683,0.123673 0.401236,0.1593 0.556657,0.143995 1.186362,0.01024 1.877573,-0.381276 0.569181,-0.337931 0.990147,-0.496702 1.37603,-0.719462 0.09658,-0.05549 0.190177,-0.115429 0.284209,-0.182803 0.09424,-0.067519 0.187674,-0.1426713 0.282922,-0.2298106 0.09474,-0.086839 0.191336,-0.1851896 0.290638,-0.2990137 2.01e-4,-2.303e-4 -2.01e-4,-0.00112 0,-0.00132 0.0994,-0.1138951 0.203746,-0.2418399 0.311214,-0.3904158 0.02826,-0.039076 0.03449,-0.058457 0.06044,-0.095322 0.134667,-0.190384 0.25431,-0.3635276 0.33565,-0.5066268 0.208379,-0.1568768 0.417624,-0.3164495 0.614713,-0.446563 0.479231,-0.3265134 1.00288,-0.8327671 1.325875,-1.4088898 1.97e-4,-3.5e-4 -1.96e-4,-9.335e-4 0,-0.00127 0.161259,-0.2878662 0.272313,-0.5931427 0.303498,-0.9022652 4.4e-5,-4.341e-4 -4.3e-5,-8.727e-4 0,-0.00131 0.0077,-0.076954 0.01042,-0.1539051 0.0077,-0.2311157 -1.5e-5,-4.285e-4 1.6e-5,-8.795e-4 0,-0.00131 -0.0085,-0.2331623 -0.06637,-0.466016 -0.18662,-0.6935699 -0.0719,-0.1360537 -0.151082,-0.2498406 -0.23534,-0.3499378 -0.02655,-0.031548 -0.05596,-0.054156 -0.08359,-0.082261 -0.05859,-0.059657 -0.118343,-0.1158598 -0.181327,-0.1606059 -0.03607,-0.025537 -0.07327,-0.045795 -0.110598,-0.066592 -0.06142,-0.03441 -0.123345,-0.064088 -0.187757,-0.086178 -0.03821,-0.012968 -0.07664,-0.023871 -0.115741,-0.032644 -0.0742,-0.016935 -0.149487,-0.026227 -0.226337,-0.028726 -0.0275,-7.915e-4 -0.05454,-0.0036 -0.08231,-0.00261 -0.105283,0.00335 -0.212268,0.018032 -0.320216,0.045701 -0.0027,6.833e-4 -0.0051,6.1e-4 -0.0077,0.00131 -4.17e-4,1.091e-4 -8.67e-4,-1.095e-4 -0.0013,0 -0.213522,0.055984 -0.429352,0.1544677 -0.641719,0.2937911 -0.0013,-0.00177 -0.0027,-0.00346 -0.0039,-0.00523 -0.05874,-0.08385 -0.122642,-0.1641459 -0.189044,-0.2428674 -0.01612,-0.019113 -0.02975,-0.039955 -0.0463,-0.058759 1.41e-4,-2.98e-4 -1.39e-4,-10e-4 0,-0.00131 0.03034,-0.064437 0.06698,-0.1503026 0.09517,-0.2428673 0.02811,-0.092777 0.04759,-0.1920292 0.04373,-0.2820395 -0.122801,0.1471253 -0.159232,0.4953805 -0.358797,0.2911796 -0.02499,-0.025572 -0.04083,-0.048563 -0.04887,-0.069204 -0.008,-0.020641 -0.0075,-0.038635 -0.0026,-0.054841 0.0049,-0.015134 0.02435,-0.023612 0.0373,-0.035255 0.06942,-0.062461 0.221193,-0.083568 0.221193,-0.083568 0,0 -0.0013,-0.0013 -0.0013,-0.00131 0,0 -0.237561,-0.1828685 -0.425668,-0.1919434 -0.03135,-0.00151 -0.06146,0.00194 -0.08874,0.011751 -0.02677,0.00958 -0.05171,0.025989 -0.07202,0.049617 0.07702,-0.2933252 -0.0013,-0.4496504 -0.09902,-0.5327412 -0.09785,-0.083226 -0.214764,-0.094013 -0.214764,-0.094013 0,0 -4e-6,0.0013 0,0.00131 2e-6,-2e-7 0.08755,0.094709 0.124745,0.2050008 0.0039,0.011757 0.01159,0.021901 0.01415,0.033949 8.4e-5,3.945e-4 -8.3e-5,9.132e-4 0,0.00131 0.0085,0.041287 0.0072,0.084216 -0.01029,0.124045 -1.79e-4,4.17e-4 1.84e-4,8.93e-4 0,0.00131 -0.01188,0.026511 -0.03334,0.048565 -0.05915,0.065286 -0.0086,0.00556 -0.02001,0.00618 -0.02958,0.010447 -0.01899,0.00802 -0.03784,0.017006 -0.05915,0.019586 -0.05225,-0.031839 -0.10575,-0.062493 -0.159464,-0.092708 -0.01954,-0.010989 -0.03815,-0.023371 -0.05787,-0.033949 -0.01646,-0.047345 -0.01989,-0.1105272 0,-0.1880263 2.75e-4,-0.00108 -2.86e-4,-0.00153 0,-0.00261 -0.123709,-0.044754 -0.218495,-0.00989 -0.288067,0.049618 -0.05405,-0.024414 -0.108278,-0.048058 -0.163322,-0.07051 l 0.04372,-0.2285042 0.0553,-0.2846509 -0.0013,0.00261 0,-0.00261 -0.277778,0.4426453 c -0.04152,-0.015012 -0.08279,-0.02917 -0.124742,-0.04309 -0.0098,-0.1352175 -0.05733,-0.2862589 -0.198046,-0.3760525 -0.04675,-0.029976 -0.10385,-0.053334 -0.173611,-0.066592 -0.04731,0.1792539 -0.141213,0.260155 -0.241771,0.2820394 -0.03625,-0.00704 -0.07299,-0.012306 -0.10931,-0.01828 -0.03599,-0.00622 -0.07206,-0.012971 -0.108024,-0.01828 -0.04899,-0.027311 -0.0907,-0.064166 -0.1196,-0.1070706 -0.02848,-0.042815 -0.04312,-0.090869 -0.03858,-0.1384083 0.0059,-0.061289 0.03539,-0.1138935 0.07587,-0.1579944 0.121935,-0.1313544 0.344651,-0.1893321 0.344651,-0.189332 0,0 -0.03844,-0.017774 -0.100309,-0.032644 -0.04641,-0.011153 -0.105718,-0.020498 -0.171039,-0.01828 z m -12.105208,14.9872639 0,0.352549 -0.252058,-0.160606 0,0.193249 -0.284208,-0.160606 0.06302,0.160606 -0.253344,-0.127962 0.03215,0.319906 -0.252058,-0.255926 0.09388,0.447869 -0.252058,-0.127962 0.221194,0.577136 -0.316359,-0.416531 0.221193,0.577136 -0.189043,-0.127962 0.252058,0.513156 -0.221193,-0.19325 0.253344,0.352549 -0.221194,-0.127962 c 0,0 1.136286,2.180941 3.031125,3.43148 0.47371,0.312636 1.00063,0.671287 1.590794,1.025005 0.590218,0.353743 1.243738,0.702345 1.970166,0.994973 0.907944,0.365742 1.9297,0.64325 3.085138,0.733825 0.231365,0.01817 0.467502,0.02902 0.709877,0.03133 0.483825,0.0046 0.989801,-0.02327 1.518778,-0.09141 0.528975,-0.06814 0.989074,-0.202813 1.38889,-0.386498 0.399804,-0.183685 0.738874,-0.416506 1.027521,-0.68029 0.432698,-0.395402 0.751558,-0.861214 0.985083,-1.337076 l 0,-0.0013 c 0.700711,-1.428628 0.640433,-2.949664 0.640433,-2.949664 -1.180326,2.709504 -2.241662,3.571257 -4.032926,3.081543 -0.163829,-0.04476 -0.33902,-0.109314 -0.515692,-0.17624 -0.269112,-0.102097 -0.5486,-0.220663 -0.851337,-0.372137 -3.372459,-1.687374 -8.243323,-4.618379 -8.243323,-4.618379 l -0.03087,0.224587 -0.473252,-0.416531 0,0.127964 -0.221194,-0.224588 -0.03215,0.193249 -0.221194,-0.321211 0,0.25723 -0.221194,-0.321211 z"
       style="opacity:1;fill:#9db9ff;fill-opacity:1;fill-rule:evenodd;stroke:none;stroke-width:0.62795258;stroke-linecap:round;stroke-linejoin:round;stroke-miterlimit:4;stroke-dasharray:none;stroke-opacity:1" />
    <circle
       r="0.5"
       cy="-0.25201899"
       cx="22.19091"
       style="opacity:1;fill:#464646;fill-opacity:1;stroke:none;stroke-width:0.25;stroke-linecap:round;stroke-linejoin:round;stroke-miterlimit:4;stroke-dasharray:none;stroke-dashoffset:0;stroke-opacity:1"
       id="circle4611"
       transform="matrix(0.96592581,0.25881912,-0.2588191,0.96592581,0,0)" />
    <circle
       r="0.5"
       cy="-0.3213689"
       cx="-26.313431"
       transform="matrix(-0.96592581,-0.2588191,-0.25881911,0.96592581,0,0)"
       id="circle4613"
       style="opacity:1;fill:#464646;fill-opacity:1;stroke:none;stroke-width:0.25;stroke-linecap:round;stroke-linejoin:round;stroke-miterlimit:4;stroke-dasharray:none;stroke-dashoffset:0;stroke-opacity:1" />
    <path
       style="fill:#464646;fill-opacity:1;fill-rule:evenodd;stroke:none;stroke-width:0.41941813px;stroke-linecap:butt;stroke-linejoin:miter;stroke-opacity:1"
       d="m 22.423322,8.7017128 c -0.380501,0.02209 -0.469234,0.074226 -0.403512,0.3924969 0.06572,0.3182689 0.246887,0.7665191 0.666401,0.8805806 0.419514,0.1140627 0.797754,-0.1820908 1.011656,-0.4243325 0.2139,-0.2422427 0.27066,-0.2515557 -0.15605,-0.5446364 C 23.115109,8.7127407 22.803825,8.6796165 22.423322,8.7017128 Z"
       id="path4615"
       sodipodi:nodetypes="czzzzz"
       inkscape:connector-curvature="0" />
    <path
       id="path4717"
       d="m 23.632812,2 c -0.0069,2.338e-4 -0.01447,0.00535 -0.02148,0.00586 -0.05095,0.00362 -0.104001,0.016794 -0.158203,0.039063 -0.04459,0.018265 -0.08979,0.038183 -0.132813,0.074219 -0.04512,0.037797 -0.0874,0.091698 -0.126953,0.1542969 -0.01021,0.016072 -0.01961,0.032843 -0.0293,0.050781 -0.03579,0.066642 -0.06937,0.1429997 -0.0957,0.2382812 -0.0016,0.00564 -0.0024,0.00792 -0.0039,0.013672 C 22.991443,2.2227755 22.226573,2.308595 22.226572,2.308595 l 0.002,0.00195 -0.0039,0 c 0,0 0.06476,0.042655 0.126953,0.1035156 0.03106,0.030589 0.06127,0.065815 0.08398,0.1015625 0.02274,0.035627 0.03672,0.071323 0.03516,0.1054688 l 0,0.00195 c -0.130875,0.015041 -0.25919,0.036835 -0.386719,0.064453 -0.02772,-0.062648 -0.02403,-0.1562136 -0.01758,-0.2558594 0.0065,-0.099645 0.01555,-0.2042488 -0.002,-0.2910156 0,0 -0.002,0.00195 -0.002,0.00195 -2.24e-4,-0.00117 2.35e-4,-0.00275 0,-0.00391 -0.0542,0.083348 -0.09082,0.1849007 -0.119141,0.2890625 -0.02832,0.1041618 -0.04558,0.2109734 -0.05664,0.3066406 -0.02533,0.00694 -0.05104,0.017921 -0.07617,0.025391 -0.09877,0.029105 -0.198067,0.056255 -0.292969,0.09375 C 21.449956,2.7378419 21.37477,2.6376397 21.29489,2.5429572 21.21289,2.4457612 21.123232,2.3626189 21.029265,2.291004 21.012085,2.27773 20.996045,2.264282 20.978485,2.251941 20.883095,2.185844 20.783828,2.1305118 20.677703,2.0937379 c -0.0032,-0.00113 -0.0065,-0.00281 -0.0098,-0.00391 0,0 -0.002,0 -0.002,0 -0.106965,-0.035757 -0.221045,-0.05212 -0.337891,-0.054688 -0.01158,-2.556e-4 -0.02153,-0.00595 -0.0332,-0.00586 -0.01895,1.544e-4 -0.03942,0.0087 -0.05859,0.00977 -0.09051,0.00502 -0.183688,0.020444 -0.279297,0.046875 -0.03298,0.00911 -0.06606,0.017523 -0.09961,0.029297 -0.126118,0.044283 -0.254992,0.1014457 -0.388672,0.1855468 -0.477756,0.3005643 -0.701223,0.7799651 -0.767578,1.3125 -1.384474,0.2925941 -2.941805,0.5415186 -4.316406,0.546875 -0.01542,6.08e-5 -0.03151,0.00195 -0.04687,0.00195 -1.480846,0 -2.681903,0.4341323 -3.566407,1.2363281 -0.252515,0.2288937 -0.479473,0.488484 -0.679687,0.7753906 C 9.9918349,6.3171417 9.8991073,6.4678254 9.8125,6.625 9.768353,6.705131 9.7300958,6.791348 9.6894531,6.875 9.6501401,6.9559 9.6063152,7.034994 9.5703125,7.1191406 9.4972525,7.2897976 9.4322662,7.4686203 9.3730469,7.6523438 9.3137999,7.8361382 9.2620709,8.0262199 9.2167969,8.2226562 9.1820239,8.3735478 9.1533821,8.5293622 9.1269531,8.6875 c -0.00811,0.048564 -0.020017,0.095292 -0.027344,0.1445312 0,0 0,0.00195 0,0.00195 -0.03098,0.2087157 -0.053714,0.4220258 -0.070312,0.6425781 -6.6e-5,8.787e-4 6.6e-5,0.003 0,0.00391 -0.016507,0.220191 -0.025378,0.4441998 -0.027344,0.6757807 -0.00253,0.29874 0.00355,0.551056 0.00781,0.814453 0.00449,-0.165915 0.00754,-0.332283 0.019531,-0.492186 0,0 0,-0.002 0,-0.002 0.016598,-0.220551 0.039333,-0.433862 0.070312,-0.6425771 0,0 0,-0.00195 0,-0.00195 C 9.1069364,9.782792 9.1188431,9.736064 9.1269531,9.6875 9.1533821,9.5293622 9.1820239,9.3735478 9.2167969,9.2226562 9.2620709,9.0262198 9.3137999,8.8361382 9.3730469,8.6523438 9.4322662,8.4686203 9.4972525,8.2897976 9.5703125,8.1191406 9.6063152,8.034994 9.6501401,7.9559 9.6894531,7.875 9.7300958,7.791348 9.768353,7.705131 9.8125,7.625 9.8991073,7.4678254 9.9918349,7.3171417 10.091797,7.1738281 c 0.200214,-0.2869066 0.427172,-0.5464969 0.679687,-0.7753906 0.884504,-0.8021958 2.085561,-1.2363281 3.566407,-1.2363281 0.01537,0 0.03145,-0.00189 0.04687,-0.00195 1.374601,-0.00536 2.931932,-0.2542809 4.316406,-0.546875 0.06636,-0.532535 0.289822,-1.0119357 0.767578,-1.3125 0.13368,-0.084101 0.262554,-0.1412638 0.388672,-0.1855468 0.03355,-0.011774 0.06663,-0.020187 0.09961,-0.029297 0.09561,-0.026431 0.188787,-0.041855 0.279297,-0.046875 0.01917,-0.00107 0.03964,-0.00961 0.05859,-0.00977 0.01167,-9e-5 0.02162,0.0056 0.0332,0.00586 0.116846,0.00257 0.230926,0.018931 0.337891,0.054688 0,0 0.002,0 0.002,0 0.0033,0.0011 0.0066,0.00278 0.0098,0.00391 0.106125,0.036774 0.205392,0.092106 0.300782,0.1582031 0.01756,0.012341 0.0336,0.025788 0.05078,0.039063 0.09397,0.071615 0.183625,0.1547572 0.265625,0.2519532 0.07988,0.094682 0.155066,0.1948847 0.222656,0.3105468 0.0949,-0.037495 0.194199,-0.064645 0.292969,-0.09375 0.02513,-0.00747 0.05084,-0.018451 0.07617,-0.025391 0.01106,-0.095667 0.02832,-0.2024788 0.05664,-0.3066406 0.02832,-0.1041618 0.06494,-0.2057145 0.119141,-0.2890625 2.35e-4,0.00116 -2.24e-4,0.00274 0,0.00391 0,0 0.002,-0.00195 0.002,-0.00195 0.0175,0.086767 0.0085,0.1913706 0.002,0.2910156 -0.0065,0.099646 -0.01014,0.1932114 0.01758,0.2558594 0.127529,-0.027618 0.255844,-0.049412 0.386719,-0.064453 l 0,-0.00195 c 0.0016,-0.034146 -0.01242,-0.069842 -0.03516,-0.1054688 -0.02271,-0.035747 -0.05292,-0.070974 -0.08398,-0.1015625 -0.06219,-0.060861 -0.126953,-0.1035156 -0.126953,-0.1035156 l 0.0039,0 -0.002,-0.00195 c 1e-6,0 0.764871,-0.085819 0.837891,0.2675781 0.0015,-0.00575 0.0023,-0.00803 0.0039,-0.013672 0.02633,-0.095282 0.05991,-0.1716393 0.0957,-0.2382812 0.0097,-0.017938 0.01909,-0.034709 0.0293,-0.050781 0.03956,-0.062599 0.08183,-0.1164999 0.126953,-0.1542969 0.04302,-0.036036 0.08822,-0.055954 0.132813,-0.074219 0.0542,-0.022269 0.107253,-0.035442 0.158203,-0.039063 0.007,-5.1e-4 0.01458,-0.00563 0.02148,-0.00586 0.06532,-0.00222 0.123512,0.00643 0.169922,0.017578 0.06187,0.01487 0.101563,0.033203 0.101563,0.033203 0,0 -0.223768,0.058099 -0.345703,0.1894532 -0.04048,0.044101 -0.07027,0.096914 -0.07617,0.1582031 -0.0045,0.047539 0.01058,0.095857 0.03906,0.1386719 0.0289,0.042905 0.07015,0.080111 0.119141,0.1074218 0.03596,0.00531 0.07338,0.011358 0.109375,0.017578 0.03632,0.00597 0.07313,0.010538 0.109375,0.017578 0.100558,-0.021884 0.192924,-0.1019961 0.240234,-0.28125 0.06976,0.013258 0.127079,0.03643 0.173829,0.066406 0.140715,0.089793 0.189418,0.2417356 0.199218,0.3769531 0.04195,0.01392 0.08153,0.027957 0.123047,0.042969 L 24.875,3.4433594 24.82031,3.7265625 24.77734,3.9550781 c 0.05504,0.022452 0.108059,0.045899 0.162109,0.070312 0.06957,-0.059508 0.165354,-0.095535 0.289063,-0.050781 -2.86e-4,0.00108 2.75e-4,0.00283 0,0.00391 -0.01989,0.077499 -0.01646,0.140155 0,0.1875 0.01972,0.010578 0.0371,0.022214 0.05664,0.033203 0.05371,0.030215 0.107906,0.061911 0.160156,0.09375 0.02131,-0.00258 0.0396,-0.011511 0.05859,-0.019531 0.0096,-0.00427 0.0207,-0.00421 0.0293,-0.00977 0.02581,-0.016721 0.04867,-0.039895 0.06055,-0.066406 0,0 0,-0.00195 0,-0.00195 0.01749,-0.039829 0.01827,-0.08176 0.0098,-0.1230469 0,0 0,-0.00195 0,-0.00195 -0.0026,-0.012048 -0.0098,-0.021446 -0.01367,-0.033203 -0.0372,-0.1102918 -0.124998,-0.2050784 -0.125,-0.2050782 l 0,-0.00195 c 0,0 0.116993,0.010524 0.214844,0.09375 0.09772,0.083091 0.176629,0.239878 0.09961,0.5332031 0.02031,-0.023628 0.04354,-0.039248 0.07031,-0.048828 0.02728,-0.00981 0.05849,-0.013229 0.08984,-0.011719 0.188107,0.00907 0.425781,0.1914062 0.425781,0.1914062 l 0,0.00195 c 0,0 -0.151283,0.01957 -0.220703,0.082031 -0.01295,0.011643 -0.03221,0.021975 -0.03711,0.037109 -0.0049,0.016206 -0.006,0.034046 0.002,0.054687 0.008,0.020641 0.02384,0.042787 0.04883,0.068359 0.199565,0.204201 0.236574,-0.1438903 0.359375,-0.2910156 0.0039,0.09001 -0.01486,0.188473 -0.04297,0.28125 -0.02819,0.092565 -0.06536,0.1797037 -0.0957,0.2441406 0.01655,0.018804 0.03075,0.039481 0.04687,0.058594 0.0664,0.078722 0.130713,0.1602906 0.189453,0.2441406 0.0012,0.00177 0.0026,0.00214 0.0039,0.00391 0.212367,-0.1393234 0.427103,-0.2369848 0.640625,-0.2929688 0,0 0.002,0 0.002,0 0.0026,-7e-4 0.0051,-0.00127 0.0078,-0.00195 0.107948,-0.027669 0.21503,-0.041572 0.320313,-0.044922 0.02777,-9.9e-4 0.05453,0.00116 0.08203,0.00195 0.07685,0.0025 0.152362,0.012362 0.226563,0.029297 0.0391,0.00877 0.07702,0.020235 0.115234,0.033203 0.06441,0.02209 0.12608,0.051527 0.1875,0.085938 0.03733,0.020797 0.07526,0.040869 0.111328,0.066406 0.06298,0.044746 0.123051,0.1004993 0.181641,0.1601562 0.02763,0.028105 0.05548,0.050483 0.08203,0.082031 0.08426,0.1000972 0.164428,0.2135557 0.236328,0.3496094 0.0462,0.087418 0.075,0.1769255 0.103516,0.265625 0.03162,-0.1120272 0.06274,-0.2241462 0.07422,-0.3378907 0.0077,-0.076954 0.01053,-0.1552112 0.0078,-0.2324218 C 28.989547,5.3039471 28.93275,5.0693508 28.8125,4.8417969 28.7406,4.7057432 28.66043,4.5922847 28.576172,4.4921875 28.549622,4.4606395 28.521771,4.4382613 28.494141,4.4101562 28.435551,4.3504993 28.375484,4.2947461 28.3125,4.25 28.27643,4.224463 28.2385,4.204391 28.201172,4.183594 c -0.06142,-0.03441 -0.123088,-0.063847 -0.1875,-0.085938 -0.03821,-0.012968 -0.07613,-0.02443 -0.115234,-0.033203 -0.0742,-0.016935 -0.149713,-0.026798 -0.226563,-0.029297 -0.0275,-7.915e-4 -0.05426,-0.00294 -0.08203,-0.00195 -0.105283,0.00335 -0.212365,0.017253 -0.320313,0.044922 -0.0027,6.833e-4 -0.0052,0.00125 -0.0078,0.00195 0,0 -0.002,0 -0.002,0 -0.213522,0.055984 -0.428258,0.1536454 -0.640625,0.2929688 -0.0013,-0.00177 -0.0027,-0.00214 -0.0039,-0.00391 -0.05874,-0.08385 -0.123051,-0.1654191 -0.189453,-0.2441406 -0.01612,-0.019113 -0.03033,-0.03979 -0.04687,-0.058594 0.03034,-0.064437 0.06751,-0.1515759 0.0957,-0.2441406 0.02811,-0.092777 0.04683,-0.1912397 0.04297,-0.28125 -0.122801,0.1471253 -0.15981,0.4952166 -0.359375,0.2910156 -0.02499,-0.025572 -0.04079,-0.047718 -0.04883,-0.068359 -0.008,-0.020641 -0.0069,-0.038482 -0.002,-0.054687 0.0049,-0.015134 0.02416,-0.025466 0.03711,-0.037109 0.06942,-0.062461 0.220703,-0.082031 0.220703,-0.082031 l 0,-0.00195 c 0,0 -0.237674,-0.1823313 -0.425781,-0.1914062 -0.03135,-0.00151 -0.06256,0.00191 -0.08984,0.011719 -0.02677,0.00958 -0.05,0.0252 -0.07031,0.048828 0.07702,-0.2933251 -0.0019,-0.4501123 -0.09961,-0.5332031 -0.09785,-0.083226 -0.214844,-0.09375 -0.214844,-0.09375 l 0,0.00195 c 2e-6,-2e-7 0.0878,0.094786 0.125,0.2050782 0.0039,0.011757 0.01111,0.021155 0.01367,0.033203 0,0 0,0.00195 0,0.00195 0.0085,0.041287 0.0077,0.083218 -0.0098,0.1230469 0,0 0,0.00195 0,0.00195 -0.01188,0.026511 -0.03474,0.049685 -0.06055,0.066406 -0.0086,0.00556 -0.01973,0.0055 -0.0293,0.00977 -0.01899,0.00802 -0.03728,0.016951 -0.05859,0.019531 -0.05225,-0.031839 -0.106442,-0.063535 -0.160156,-0.09375 -0.01954,-0.010989 -0.03692,-0.022625 -0.05664,-0.033203 -0.01646,-0.047345 -0.01989,-0.1100009 0,-0.1875 2.75e-4,-0.00108 -2.86e-4,-0.00283 0,-0.00391 C 25.104702,2.929847 25.00892,2.965871 24.939348,3.025382 24.885298,3.000968 24.832283,2.977521 24.777239,2.95507 L 24.820312,2.7265625 24.875,2.4433594 24.595703,2.8847656 c -0.04152,-0.015012 -0.0811,-0.029049 -0.123047,-0.042969 -0.0098,-0.1352175 -0.0585,-0.2871596 -0.199218,-0.3769531 -0.04675,-0.029976 -0.104068,-0.053148 -0.173829,-0.066406 -0.04731,0.1792539 -0.139676,0.2593656 -0.240234,0.28125 -0.03625,-0.00704 -0.07306,-0.011604 -0.109375,-0.017578 -0.03599,-0.00622 -0.07341,-0.012269 -0.109375,-0.017578 -0.04899,-0.027311 -0.09024,-0.064517 -0.119141,-0.1074218 -0.02848,-0.042815 -0.0436,-0.091133 -0.03906,-0.1386719 0.0059,-0.061289 0.03569,-0.1141022 0.07617,-0.1582031 0.121935,-0.1313544 0.345703,-0.1894532 0.345703,-0.1894532 0,0 -0.03969,-0.018333 -0.101563,-0.033203 C 23.756324,2.0064251 23.698133,1.997782 23.632812,2 Z m -12.847656,8.513672 c -0.01006,0.318036 -0.01257,0.652545 0,1 6e-4,0.01592 0.0013,0.03096 0.002,0.04687 0.04174,1.070679 0.174306,2.134211 0.298829,2.355469 5.21e-4,9.3e-4 0.0014,0.001 0.002,0.002 -0.0141,-0.340527 0.125739,-0.487095 0.09766,-0.720703 -0.0093,-0.07924 -0.03718,-0.169892 -0.09961,-0.28125 -0.124523,-0.221258 -0.257092,-1.28479 -0.298829,-2.355469 -6.21e-4,-0.01592 -0.0014,-0.03096 -0.002,-0.04687 z m 0.742188,6.474609 0,0.351563 -0.251953,-0.160156 0,0.193359 -0.285157,-0.160156 0.06445,0.160156 -0.253907,-0.128906 0.03125,0.320312 -0.251953,-0.255859 0.09375,0.447265 -0.251953,-0.126953 0.222656,0.576172 -0.316406,-0.416016 0.220703,0.578126 -0.189453,-0.128907 0.234375,0.476563 0.08008,0.04102 -0.09375,-0.447265 0.251953,0.255859 -0.03125,-0.320312 0.253907,0.128906 -0.06445,-0.160156 0.285157,0.160156 0,-0.193359 0.251953,0.160156 0,-0.351563 0.220703,0.320313 0,-0.257813 0.220703,0.322266 0.0332,-0.193359 0.220703,0.224609 0,-0.128906 0.472656,0.417968 0.03125,-0.224609 c 10e-7,0 4.871682,2.929814 8.244141,4.617188 0.302737,0.151474 0.582451,0.270949 0.851563,0.373046 0.176672,0.06693 0.351796,0.131022 0.515625,0.175782 1.72935,0.472787 2.779543,-0.331113 3.912109,-2.824219 0.122457,-0.716147 0.121094,-1.257813 0.121094,-1.257813 -1.180326,2.709504 -2.241939,3.571746 -4.033203,3.082032 -0.163829,-0.04476 -0.338953,-0.108856 -0.515625,-0.175782 -0.269112,-0.102097 -0.548826,-0.221573 -0.851563,-0.373046 -3.372459,-1.687374 -8.24414,-4.617188 -8.244141,-4.617188 l -0.03125,0.224609 -0.472656,-0.417968 0,0.128906 -0.220703,-0.224609 -0.0332,0.193359 -0.220703,-0.322266 0,0.257813 -0.220703,-0.320313 z m -1.136719,1.570313 0.0625,0.08594 0.08398,0.04297 -0.146484,-0.128906 z m 0.03125,0.224609 c 0,0 0.07671,0.138084 0.181641,0.314453 l -0.105469,-0.271484 -0.07617,-0.04297 z"
       style="opacity:0.1;fill:#ffffff;fill-opacity:1;fill-rule:evenodd;stroke:none;stroke-width:0.62795258;stroke-linecap:round;stroke-linejoin:round;stroke-miterlimit:4;stroke-dasharray:none;stroke-opacity:1"
       inkscape:connector-curvature="0" />
  </g>
</svg>
