<?xml version="1.0" encoding="UTF-8" standalone="no"?>
<!-- Creator: CorelDRAW X6 -->

<svg
   xmlns:dc="http://purl.org/dc/elements/1.1/"
   xmlns:cc="http://creativecommons.org/ns#"
   xmlns:rdf="http://www.w3.org/1999/02/22-rdf-syntax-ns#"
   xmlns:svg="http://www.w3.org/2000/svg"
   xmlns="http://www.w3.org/2000/svg"
   xmlns:sodipodi="http://sodipodi.sourceforge.net/DTD/sodipodi-0.dtd"
   xmlns:inkscape="http://www.inkscape.org/namespaces/inkscape"
   xml:space="preserve"
   width="32"
   height="32"
   version="1.1"
   style="clip-rule:evenodd;fill-rule:evenodd;image-rendering:optimizeQuality;shape-rendering:geometricPrecision;text-rendering:geometricPrecision"
   viewBox="0 0 2362.1958 2362.1955"
   id="svg2"
   inkscape:version="0.91 r"
   sodipodi:docname="kdepim-googledrive.svg"><metadata
     id="metadata18"><rdf:RDF><cc:Work
         rdf:about=""><dc:format>image/svg+xml</dc:format><dc:type
           rdf:resource="http://purl.org/dc/dcmitype/StillImage" /><dc:title></dc:title></cc:Work></rdf:RDF></metadata><sodipodi:namedview
     pagecolor="#ffffff"
     bordercolor="#666666"
     borderopacity="1"
     objecttolerance="10"
     gridtolerance="10"
     guidetolerance="10"
     inkscape:pageopacity="0"
     inkscape:pageshadow="2"
     inkscape:window-width="1600"
     inkscape:window-height="843"
     id="namedview16"
     showgrid="false"
     units="px"
     inkscape:zoom="1"
     inkscape:cx="18.978046"
     inkscape:cy="9.2813055"
     inkscape:window-x="-4"
     inkscape:window-y="31"
     inkscape:window-maximized="1"
     inkscape:current-layer="svg2" /><defs
     id="defs4"><style
       type="text/css"
       id="style6"><![CDATA[
    .fil2 {fill:#11A861}
    .fil0 {fill:#3777E3}
    .fil1 {fill:#FFCF63}
   ]]></style></defs><path
     style="fill:#4e8dcc;fill-opacity:1"
     d="m 2249.9361,1476.3723 -383.3796,664.3676 -1423.6448,0 379.63851,-664.3676 z"
     id="polygon4149"
     inkscape:connector-curvature="0"
     sodipodi:nodetypes="ccccc" /><path
     sodipodi:nodetypes="ccccc"
     inkscape:connector-curvature="0"
     id="path4152"
     d="m 771.40454,240.21996 767.04916,-0.16725 711.8222,1232.91249 -765.1782,3.4071 z"
     style="fill:#fcc345;fill-opacity:1" /><path
     sodipodi:nodetypes="ccccc"
     inkscape:connector-curvature="0"
     id="path4154"
     d="M 442.72419,2140.7399 59.054893,1476.5396 770.87708,243.62723 1156.417,904.58758 Z"
     style="fill:#6cbf48;fill-opacity:1" /><path
     style="fill:#ffffff;fill-opacity:1;opacity:0.1"
     d="M 20.841797 3.2519531 L 10.449219 3.2539062 L 11.027344 4.2539062 L 20.841797 4.2519531 L 29.908203 19.955078 L 30.484375 19.953125 L 20.841797 3.2519531 z "
     transform="matrix(73.818616,0,0,73.818621,0,-1.4079785e-4)"
     id="path4223" /><path
     style="fill:#000000;fill-opacity:1;opacity:0.3"
     d="M 10.449219 3.2539062 L 20.119141 20 L 30.484375 19.953125 L 29.908203 18.955078 L 20.119141 19 L 11.027344 3.2539062 L 10.449219 3.2539062 z "
     transform="matrix(73.818616,0,0,73.818621,0,-1.4079785e-4)"
     id="path4228" /><path
     style="fill:#ffffff;fill-opacity:1;opacity:0.1"
     d="M 10.443359 3.3007812 L 0.80078125 20.001953 L 1.0898438 20.501953 L 10.443359 4.3007812 L 15.375 12.755859 L 15.666016 12.253906 L 10.443359 3.3007812 z "
     transform="matrix(73.818616,0,0,73.818621,0,-1.4079785e-4)"
     id="path4233" /><path
     style="fill:#000000;fill-opacity:1;opacity:0.3"
     d="M 15.375 11.755859 L 5.9980469 28 L 1.0898438 19.501953 L 0.80078125 20.001953 L 5.9980469 29 L 15.666016 12.253906 L 15.375 11.755859 z "
     transform="matrix(73.818616,0,0,73.818621,0,-1.4079785e-4)"
     id="path4238" /><path
     style="fill:#ffffff;fill-opacity:1;opacity:0.1"
     d="M 11.142578 20 L 6 29 L 6.5722656 29 L 11.142578 21 L 29.902344 21 L 30.478516 20 L 11.142578 20 z "
     transform="matrix(73.818616,0,0,73.818621,0,-1.4079785e-4)"
     id="path4243" /><path
     style="fill:#000000;fill-opacity:1;opacity:0.3"
     d="M 29.902344 20 L 25.285156 28 L 6.5722656 28 L 6 29 L 25.285156 29 L 30.478516 20 L 29.902344 20 z "
     transform="matrix(73.818616,0,0,73.818621,0,-1.4079785e-4)"
     id="path4248" /></svg>