<?xml version="1.0" encoding="UTF-8" standalone="no"?>
<!-- Created with Inkscape (http://www.inkscape.org/) -->

<svg
   xmlns:dc="http://purl.org/dc/elements/1.1/"
   xmlns:cc="http://creativecommons.org/ns#"
   xmlns:rdf="http://www.w3.org/1999/02/22-rdf-syntax-ns#"
   xmlns:svg="http://www.w3.org/2000/svg"
   xmlns="http://www.w3.org/2000/svg"
   xmlns:sodipodi="http://sodipodi.sourceforge.net/DTD/sodipodi-0.dtd"
   xmlns:inkscape="http://www.inkscape.org/namespaces/inkscape"
   width="32"
   height="32"
   viewBox="0 0 32 32.000001"
   id="svg4430"
   version="1.1"
   inkscape:version="0.91 r"
   sodipodi:docname="maps.svg">
  <defs
     id="defs4432">
    <clipPath
       clipPathUnits="userSpaceOnUse"
       id="clipPath4484">
      <rect
         ry="2"
         rx="2"
         y="-188"
         x="-280"
         height="40"
         width="40"
         id="rect4486"
         style="fill:#1ea362;fill-opacity:1;stroke:none"
         transform="matrix(0,-1,-1,0,0,0)" />
    </clipPath>
    <clipPath
       clipPathUnits="userSpaceOnUse"
       id="clipPath4494">
      <rect
         ry="1.5"
         rx="1.5"
         y="-126"
         x="-282"
         height="28"
         width="28"
         id="rect4496"
         style="fill:#1ea362;fill-opacity:1;stroke:none"
         transform="matrix(0,-1,-1,0,0,0)" />
    </clipPath>
  </defs>
  <sodipodi:namedview
     id="base"
     pagecolor="#ffffff"
     bordercolor="#666666"
     borderopacity="1.0"
     inkscape:pageopacity="0.0"
     inkscape:pageshadow="2"
     inkscape:zoom="8.6599296"
     inkscape:cx="3.6923077"
     inkscape:cy="18.29595"
     inkscape:document-units="px"
     inkscape:current-layer="layer1"
     showgrid="false"
     units="px"
     inkscape:window-width="1600"
     inkscape:window-height="846"
     inkscape:window-x="0"
     inkscape:window-y="26"
     inkscape:window-maximized="1" />
  <metadata
     id="metadata4435">
    <rdf:RDF>
      <cc:Work
         rdf:about="">
        <dc:format>image/svg+xml</dc:format>
        <dc:type
           rdf:resource="http://purl.org/dc/dcmitype/StillImage" />
        <dc:title></dc:title>
      </cc:Work>
    </rdf:RDF>
  </metadata>
  <g
     inkscape:label="Layer 1"
     inkscape:groupmode="layer"
     id="layer1"
     transform="translate(0,-1020.3622)">
    <g
       id="g5168"
       transform="translate(1.00196e-6,0.49999997)">
      <rect
         ry="1.5"
         rx="1.5"
         y="-29.00004"
         x="-1050.8622"
         height="28"
         width="28"
         id="rect4255"
         style="fill:#e9e5dc;fill-opacity:1;stroke:none"
         transform="matrix(0,-1,-1,0,0,0)" />
      <path
         inkscape:connector-curvature="0"
         id="rect4632"
         d="m 2.50004,1022.8622 c -0.831,0 -1.5,0.669 -1.5,1.5 l 0,1 c 0,-0.831 0.669,-1.5 1.5,-1.5 l 25,0 c 0.831,0 1.5,0.669 1.5,1.5 l 0,-1 c 0,-0.831 -0.669,-1.5 -1.5,-1.5 l -25,0 z"
         style="opacity:0.1;fill:#ffffff;fill-opacity:1;stroke:none" />
      <path
         style="fill:#2095f2;fill-opacity:1;fill-rule:evenodd;stroke:none;stroke-width:1px;stroke-linecap:butt;stroke-linejoin:miter;stroke-opacity:1"
         d="m 2.40004,1050.8622 12.6,-12.6 12.6,12.6 z"
         id="path4419"
         inkscape:connector-curvature="0" />
      <path
         inkscape:connector-curvature="0"
         id="path4421"
         d="m 29.00004,1049.4622 -12.6,-12.6 12.6,-12.6 z"
         style="fill:#1ea362;fill-opacity:1;fill-rule:evenodd;stroke:none;stroke-width:1px;stroke-linecap:butt;stroke-linejoin:miter;stroke-opacity:1" />
      <g
         transform="translate(-96.99996,768.8622)"
         clip-path="url(#clipPath4494)"
         id="g4488">
        <path
           sodipodi:nodetypes="cc"
           inkscape:connector-curvature="0"
           id="path4423"
           d="m 112,268 16.8,16.8"
           style="fill:none;fill-rule:evenodd;stroke:#feea3a;stroke-width:3.5;stroke-linecap:butt;stroke-linejoin:miter;stroke-miterlimit:4;stroke-dasharray:none;stroke-opacity:1" />
        <path
           sodipodi:nodetypes="cc"
           inkscape:connector-curvature="0"
           id="path4425"
           d="m 95.2,284.8 33.6,-33.6"
           style="fill:none;fill-rule:evenodd;stroke:#ffffff;stroke-width:3.5;stroke-linecap:butt;stroke-linejoin:miter;stroke-miterlimit:4;stroke-dasharray:none;stroke-opacity:1" />
      </g>
      <g
         id="g4545"
         transform="matrix(0.800008,0,0,0.800008,-121.00117,830.45496)">
        <path
           style="color:#000000;display:inline;overflow:visible;visibility:visible;opacity:0.2;fill:#000000;fill-opacity:1;fill-rule:nonzero;stroke:none;stroke-width:2;marker:none;enable-background:new"
           d="m 179.99971,239.25666 c -5.52284,0 -10,4.47716 -10,10 0,0.34518 0.0284,0.66382 0.0624,1 0.0274,0.3345 0.0716,0.67234 0.125,1 1.14496,7.02888 5.8126,12.00672 9.8126,16.00672 4,-4 8.66744,-8.97784 9.8124,-16.00672 0.0534,-0.32766 0.0976,-0.6655 0.125,-1 0.0342,-0.33618 0.0624,-0.65482 0.0624,-1 0,-5.52284 -4.47716,-10 -10,-10 z"
           id="path4578"
           inkscape:connector-curvature="0"
           sodipodi:nodetypes="cscccccscc" />
        <path
           sodipodi:nodetypes="cscccccscc"
           inkscape:connector-curvature="0"
           id="path4547"
           d="m 179.99971,238.00667 c -5.52284,0 -10,4.47716 -10,10 0,0.34518 0.0284,0.66382 0.0624,1 0.0274,0.3345 0.0716,0.67234 0.125,1 1.14496,7.02888 5.8126,12.00672 9.8126,16.00672 4,-4 8.66744,-8.97784 9.8124,-16.00672 0.0534,-0.32766 0.0976,-0.6655 0.125,-1 0.0342,-0.33618 0.0624,-0.65482 0.0624,-1 0,-5.52284 -4.47716,-10 -10,-10 z"
           style="color:#000000;display:inline;overflow:visible;visibility:visible;fill:#f34235;fill-opacity:1;fill-rule:nonzero;stroke:none;stroke-width:2;marker:none;enable-background:new" />
        <path
           style="color:#000000;display:inline;overflow:visible;visibility:visible;fill:#ffffff;fill-opacity:1;fill-rule:nonzero;stroke:none;stroke-width:2;marker:none;enable-background:new"
           d="m 179.99972,244.25661 c 2.07104,0 3.74996,1.67892 3.74996,3.74996 0,2.07106 -1.67892,3.74997 -3.74996,3.74997 -2.07106,0 -3.74997,-1.67891 -3.74997,-3.74997 0,-2.07104 1.67891,-3.74996 3.74997,-3.74996 z"
           id="path4549"
           inkscape:connector-curvature="0"
           sodipodi:nodetypes="sssss" />
      </g>
      <path
         inkscape:connector-curvature="0"
         id="rect4379"
         d="m 1.00004,1048.3622 0,1 c 0,0.831 0.669,1.5 1.5,1.5 l 25,0 c 0.831,0 1.5,-0.669 1.5,-1.5 l 0,-1 c 0,0.831 -0.669,1.5 -1.5,1.5 l -25,0 c -0.831,0 -1.5,-0.669 -1.5,-1.5 z"
         style="opacity:0.3;fill:#000000;fill-opacity:1;stroke:none" />
    </g>
  </g>
</svg>
