<?xml version="1.0" encoding="UTF-8" standalone="no"?>
<!-- Created with Inkscape (http://www.inkscape.org/) -->

<svg
   xmlns:dc="http://purl.org/dc/elements/1.1/"
   xmlns:cc="http://creativecommons.org/ns#"
   xmlns:rdf="http://www.w3.org/1999/02/22-rdf-syntax-ns#"
   xmlns:svg="http://www.w3.org/2000/svg"
   xmlns="http://www.w3.org/2000/svg"
   xmlns:sodipodi="http://sodipodi.sourceforge.net/DTD/sodipodi-0.dtd"
   xmlns:inkscape="http://www.inkscape.org/namespaces/inkscape"
   width="32"
   height="32"
   viewBox="0 0 32 32.000001"
   id="svg4430"
   version="1.1"
   inkscape:version="0.91 r13725"
   sodipodi:docname="maps.svg">
  <defs
     id="defs4432" />
  <sodipodi:namedview
     id="base"
     pagecolor="#636363"
     bordercolor="#666666"
     borderopacity="1.0"
     inkscape:pageopacity="0"
     inkscape:pageshadow="2"
     inkscape:zoom="1"
     inkscape:cx="14.757606"
     inkscape:cy="13.674344"
     inkscape:document-units="px"
     inkscape:current-layer="layer1"
     showgrid="false"
     units="px"
     inkscape:window-width="1600"
     inkscape:window-height="847"
     inkscape:window-x="0"
     inkscape:window-y="30"
     inkscape:window-maximized="1" />
  <metadata
     id="metadata4435">
    <rdf:RDF>
      <cc:Work
         rdf:about="">
        <dc:format>image/svg+xml</dc:format>
        <dc:type
           rdf:resource="http://purl.org/dc/dcmitype/StillImage" />
        <dc:title></dc:title>
      </cc:Work>
    </rdf:RDF>
  </metadata>
  <g
     inkscape:label="Layer 1"
     inkscape:groupmode="layer"
     id="layer1"
     transform="translate(0,-1020.3622)">
    <rect
       transform="matrix(0,-1,-1,0,0,0)"
       style="fill:#e9e5dc;fill-opacity:1;stroke:none"
       id="rect4255"
       width="28"
       height="28"
       x="-1051.3622"
       y="-29.000042"
       rx="1.5"
       ry="1.5" />
    <path
       style="opacity:0.1;fill:#ffffff;fill-opacity:1;stroke:none"
       d="m 2.500041,1023.3622 c -0.831,0 -1.5,0.669 -1.5,1.5 l 0,1 c 0,-0.831 0.669,-1.5 1.5,-1.5 l 25,0 c 0.831,0 1.5,0.669 1.5,1.5 l 0,-1 c 0,-0.831 -0.669,-1.5 -1.5,-1.5 l -25,0 z"
       id="rect4632"
       inkscape:connector-curvature="0" />
    <path
       inkscape:connector-curvature="0"
       id="path4419"
       d="m 2.400041,1051.3622 12.6,-12.6 12.6,12.6 z"
       style="fill:#2095f2;fill-opacity:1;fill-rule:evenodd;stroke:none;stroke-width:1px;stroke-linecap:butt;stroke-linejoin:miter;stroke-opacity:1" />
    <path
       style="fill:#1ea362;fill-opacity:1;fill-rule:evenodd;stroke:none;stroke-width:1px;stroke-linecap:butt;stroke-linejoin:miter;stroke-opacity:1"
       d="m 29.000041,1049.9622 -12.6,-12.6 12.6,-12.6 z"
       id="path4421"
       inkscape:connector-curvature="0" />
    <path
       inkscape:connector-curvature="0"
       style="color:#000000;font-style:normal;font-variant:normal;font-weight:normal;font-stretch:normal;font-size:medium;line-height:normal;font-family:sans-serif;text-indent:0;text-align:start;text-decoration:none;text-decoration-line:none;text-decoration-style:solid;text-decoration-color:#000000;letter-spacing:normal;word-spacing:normal;text-transform:none;direction:ltr;block-progression:tb;writing-mode:lr-tb;baseline-shift:baseline;text-anchor:start;white-space:normal;clip-rule:nonzero;display:inline;overflow:visible;visibility:visible;opacity:1;isolation:auto;mix-blend-mode:normal;color-interpolation:sRGB;color-interpolation-filters:linearRGB;solid-color:#000000;solid-opacity:1;fill:#feea3a;fill-opacity:1;fill-rule:evenodd;stroke:none;stroke-width:3.5;stroke-linecap:butt;stroke-linejoin:miter;stroke-miterlimit:4;stroke-dasharray:none;stroke-dashoffset:0;stroke-opacity:1;color-rendering:auto;image-rendering:auto;shape-rendering:auto;text-rendering:auto;enable-background:accumulate"
       d="m 16.238281,1036.1239 -2.476562,2.4766 12.763672,12.7617 0.974609,0 c 0.831,0 1.5,-0.669 1.5,-1.5 l 0,-0.9746 -12.761719,-12.7637 z"
       id="path4423" />
    <path
       inkscape:connector-curvature="0"
       style="color:#000000;font-style:normal;font-variant:normal;font-weight:normal;font-stretch:normal;font-size:medium;line-height:normal;font-family:sans-serif;text-indent:0;text-align:start;text-decoration:none;text-decoration-line:none;text-decoration-style:solid;text-decoration-color:#000000;letter-spacing:normal;word-spacing:normal;text-transform:none;direction:ltr;block-progression:tb;writing-mode:lr-tb;baseline-shift:baseline;text-anchor:start;white-space:normal;clip-rule:nonzero;display:inline;overflow:visible;visibility:visible;opacity:1;isolation:auto;mix-blend-mode:normal;color-interpolation:sRGB;color-interpolation-filters:linearRGB;solid-color:#000000;solid-opacity:1;fill:#ffffff;fill-opacity:1;fill-rule:evenodd;stroke:none;stroke-width:3.5;stroke-linecap:butt;stroke-linejoin:miter;stroke-miterlimit:4;stroke-dasharray:none;stroke-dashoffset:0;stroke-opacity:1;color-rendering:auto;image-rendering:auto;shape-rendering:auto;text-rendering:auto;enable-background:accumulate"
       d="M 26.525391,1023.3622 1,1048.8876 l 0,0.9746 c 0,0.831 0.669,1.5 1.5,1.5 l 0.9746094,0 L 29,1025.8368 l 0,-0.9746 c 0,-0.831 -0.669,-1.5 -1.5,-1.5 l -0.974609,0 z"
       id="path4425" />
    <path
       style="color:#000000;display:inline;overflow:visible;visibility:visible;opacity:0.2;fill:#000000;fill-opacity:1;fill-rule:nonzero;stroke:none;stroke-width:2;marker:none;enable-background:new"
       d="m 23.000038,1023.3622 c -4.418316,0 -8.00008,3.517 -8.00008,7.8553 0,0.2711 0.02272,0.5214 0.04992,0.7855 0.02192,0.2628 0.05728,0.5282 0.100001,0.7855 0.915978,5.5214 4.650127,9.4316 7.850159,12.5737 3.200032,-3.1421 6.934021,-7.0523 7.849998,-12.5737 0.04272,-0.2573 0.07808,-0.5227 0.100001,-0.7855 0.02736,-0.2641 0.04992,-0.5144 0.04992,-0.7855 0,-4.3383 -3.581764,-7.8553 -8.00008,-7.8553 z"
       id="path4177"
       inkscape:connector-curvature="0"
       sodipodi:nodetypes="cscccccscc" />
    <path
       sodipodi:nodetypes="cscccccscc"
       inkscape:connector-curvature="0"
       id="path4547"
       d="m 23.000038,1022.3622 c -4.418316,0 -8.00008,3.517 -8.00008,7.8553 0,0.2711 0.02272,0.5214 0.04992,0.7855 0.02192,0.2628 0.05728,0.5282 0.100001,0.7855 0.915978,5.5214 4.650127,9.4316 7.850159,12.5737 3.200032,-3.1421 6.934021,-7.0523 7.849998,-12.5737 0.04272,-0.2573 0.07808,-0.5227 0.100001,-0.7855 0.02736,-0.2641 0.04992,-0.5144 0.04992,-0.7855 0,-4.3383 -3.581764,-7.8553 -8.00008,-7.8553 z"
       style="color:#000000;display:inline;overflow:visible;visibility:visible;fill:#f34235;fill-opacity:1;fill-rule:nonzero;stroke:none;stroke-width:2;marker:none;enable-background:new" />
    <path
       style="color:#000000;display:inline;overflow:visible;visibility:visible;fill:#ffffff;fill-opacity:1;fill-rule:nonzero;stroke:none;stroke-width:2;marker:none;enable-background:new"
       d="m 23.000046,1026.3622 c 1.656849,0 2.999998,1.3432 2.999998,3 0,1.6569 -1.343149,3 -2.999998,3 -1.656865,0 -3.000006,-1.3431 -3.000006,-3 0,-1.6568 1.343141,-3 3.000006,-3 z"
       id="path4549"
       inkscape:connector-curvature="0"
       sodipodi:nodetypes="sssss" />
    <path
       style="opacity:0.3;fill:#000000;fill-opacity:1;stroke:none"
       d="m 1.000041,1048.8622 0,1 c 0,0.831 0.669,1.5 1.5,1.5 l 25,0 c 0.831,0 1.5,-0.669 1.5,-1.5 l 0,-1 c 0,0.831 -0.669,1.5 -1.5,1.5 l -25,0 c -0.831,0 -1.5,-0.669 -1.5,-1.5 z"
       id="rect4379"
       inkscape:connector-curvature="0" />
  </g>
</svg>
