<?xml version="1.0" encoding="UTF-8" standalone="no"?>
<!-- Created with Inkscape (http://www.inkscape.org/) -->

<svg
   xmlns:dc="http://purl.org/dc/elements/1.1/"
   xmlns:cc="http://creativecommons.org/ns#"
   xmlns:rdf="http://www.w3.org/1999/02/22-rdf-syntax-ns#"
   xmlns:svg="http://www.w3.org/2000/svg"
   xmlns="http://www.w3.org/2000/svg"
   xmlns:sodipodi="http://sodipodi.sourceforge.net/DTD/sodipodi-0.dtd"
   xmlns:inkscape="http://www.inkscape.org/namespaces/inkscape"
   id="svg2817"
   height="32"
   width="32"
   version="1.0"
   inkscape:version="0.91 r"
   sodipodi:docname="mypaint.svg">
  <sodipodi:namedview
     pagecolor="#ffffff"
     bordercolor="#666666"
     borderopacity="1"
     objecttolerance="10"
     gridtolerance="10"
     guidetolerance="10"
     inkscape:pageopacity="0"
     inkscape:pageshadow="2"
     inkscape:window-width="1600"
     inkscape:window-height="846"
     id="namedview226"
     showgrid="false"
     inkscape:zoom="7.375"
     inkscape:cx="1.0847458"
     inkscape:cy="16"
     inkscape:window-x="0"
     inkscape:window-y="26"
     inkscape:window-maximized="1"
     inkscape:current-layer="svg2817" />
  <metadata
     id="metadata57">
    <rdf:RDF>
      <cc:Work
         rdf:about="">
        <dc:format>image/svg+xml</dc:format>
        <dc:type
           rdf:resource="http://purl.org/dc/dcmitype/StillImage" />
        <dc:title></dc:title>
      </cc:Work>
    </rdf:RDF>
  </metadata>
  <defs
     id="defs2819" />
  <text
     id="text4087-2-6-5"
     opacity=".8"
     font-size="12.666px"
     xml:space="preserve"
     y="-5.1873989"
     x="877.22626"
     font-family="'Bitstream Vera Sans'"
     fill="#000000"><tspan
       id="tspan4089-7-2-9"
       y="-5.1873989"
       x="877.22626" /></text>
  <text
     id="text4087-2-6-5-5"
     opacity=".8"
     font-size="12.666px"
     xml:space="preserve"
     y="-45.929108"
     x="901.18719"
     font-family="'Bitstream Vera Sans'"
     fill="#000000"><tspan
       id="tspan4089-7-2-9-6"
       y="-45.929108"
       x="901.18719" /></text>
  <text
     id="text4087-2-6-5-2"
     opacity=".8"
     font-size="12.666px"
     xml:space="preserve"
     y="-76.007248"
     x="-569.37115"
     font-family="'Bitstream Vera Sans'"
     fill="#000000"><tspan
       id="tspan4089-7-2-9-2"
       y="-76.007248"
       x="-569.37115" /></text>
  <text
     id="text4087-2-6-5-59"
     opacity=".8"
     font-size="12.666px"
     xml:space="preserve"
     y="669.5462"
     x="-2393.0571"
     font-family="'Bitstream Vera Sans'"
     fill="#000000"><tspan
       id="tspan4089-7-2-9-4"
       y="669.5462"
       x="-2393.0571" /></text>
  <text
     id="text4087-2-6-5-1"
     opacity=".8"
     font-size="12.666px"
     xml:space="preserve"
     y="-461.32822"
     x="-454.88007"
     font-family="'Bitstream Vera Sans'"
     fill="#000000"><tspan
       id="tspan4089-7-2-9-7"
       y="-461.32822"
       x="-454.88007" /></text>
  <text
     id="text4087-2-6-5-7"
     opacity=".8"
     font-size="12.666px"
     xml:space="preserve"
     y="-874.79834"
     x="352.72208"
     font-family="'Bitstream Vera Sans'"
     fill="#000000"><tspan
       id="tspan4089-7-2-9-1"
       y="-874.79834"
       x="352.72208" /></text>
  <text
     id="text4087-2-6-5-5-3"
     opacity=".8"
     font-size="12.666px"
     xml:space="preserve"
     y="-915.54004"
     x="376.68301"
     font-family="'Bitstream Vera Sans'"
     fill="#000000"><tspan
       id="tspan4089-7-2-9-6-5"
       y="-915.54004"
       x="376.68301" /></text>
  <text
     id="text4087-2-6-5-3"
     opacity=".8"
     font-size="12.666px"
     xml:space="preserve"
     y="-922.74994"
     x="-1114.7802"
     font-family="'Bitstream Vera Sans'"
     fill="#000000"><tspan
       id="tspan4089-7-2-9-18"
       y="-922.74994"
       x="-1114.7802" /></text>
  <text
     id="text4087-2-6-5-4"
     opacity=".8"
     font-size="12.666px"
     xml:space="preserve"
     y="-1195.9841"
     x="345.7626"
     font-family="'Bitstream Vera Sans'"
     fill="#000000"><tspan
       id="tspan4089-7-2-9-9"
       y="-1195.9841"
       x="345.7626" /></text>
  <text
     id="text4087-2-6-5-7-1"
     opacity=".8"
     font-size="12.666px"
     xml:space="preserve"
     y="-569.29272"
     x="1831.8861"
     font-family="'Bitstream Vera Sans'"
     fill="#000000"><tspan
       id="tspan4089-7-2-9-1-8"
       y="-569.29272"
       x="1831.8861" /></text>
  <text
     id="text4087-2-6-5-5-5"
     opacity=".8"
     font-size="12.666px"
     xml:space="preserve"
     y="-610.03448"
     x="1855.8469"
     font-family="'Bitstream Vera Sans'"
     fill="#000000"><tspan
       id="tspan4089-7-2-9-6-9"
       y="-610.03448"
       x="1855.8469" /></text>
  <text
     id="text4087-2-6-5-75"
     opacity=".8"
     font-size="12.666px"
     xml:space="preserve"
     y="-617.24438"
     x="364.38376"
     font-family="'Bitstream Vera Sans'"
     fill="#000000"><tspan
       id="tspan4089-7-2-9-3"
       y="-617.24438"
       x="364.38376" /></text>
  <text
     id="text4087-2-6-5-4-8"
     opacity=".8"
     font-size="12.666px"
     xml:space="preserve"
     y="-890.47839"
     x="1824.9266"
     font-family="'Bitstream Vera Sans'"
     fill="#000000"><tspan
       id="tspan4089-7-2-9-9-8"
       y="-890.47839"
       x="1824.9266" /></text>
  <text
     id="text4087-2-6-5-45"
     opacity=".8"
     font-size="12.666px"
     xml:space="preserve"
     y="-665.33569"
     x="-573.43256"
     font-family="'Bitstream Vera Sans'"
     fill="#000000"><tspan
       id="tspan4089-7-2-9-75"
       y="-665.33569"
       x="-573.43256" /></text>
  <text
     id="text4087-2-6-5-59-7"
     opacity=".8"
     font-size="12.666px"
     xml:space="preserve"
     y="80.217857"
     x="-2397.1182"
     font-family="'Bitstream Vera Sans'"
     fill="#000000"><tspan
       id="tspan4089-7-2-9-4-0"
       y="80.217857"
       x="-2397.1182" /></text>
  <text
     id="text4087-2-6-5-8"
     opacity=".8"
     font-size="12.666px"
     xml:space="preserve"
     y="173.09"
     x="-682.36279"
     font-family="'Bitstream Vera Sans'"
     fill="#000000"><tspan
       id="tspan4089-7-2-9-19"
       y="173.09"
       x="-682.36279" /></text>
  <text
     id="text4087-2-6-5-7-5"
     opacity=".8"
     font-size="12.666px"
     xml:space="preserve"
     y="-6.0921478"
     x="426.66153"
     font-family="'Bitstream Vera Sans'"
     fill="#000000"><tspan
       id="tspan4089-7-2-9-1-2"
       y="-6.0921478"
       x="426.66153" /></text>
  <text
     id="text4087-2-6-5-5-0"
     opacity=".8"
     font-size="12.666px"
     xml:space="preserve"
     y="-46.833855"
     x="450.62247"
     font-family="'Bitstream Vera Sans'"
     fill="#000000"><tspan
       id="tspan4089-7-2-9-6-2"
       y="-46.833855"
       x="450.62247" /></text>
  <text
     id="text4087-2-6-5-26"
     opacity=".8"
     font-size="12.666px"
     xml:space="preserve"
     y="-54.043827"
     x="-1040.8407"
     font-family="'Bitstream Vera Sans'"
     fill="#000000"><tspan
       id="tspan4089-7-2-9-90"
       y="-54.043827"
       x="-1040.8407" /></text>
  <text
     id="text4087-2-6-5-4-3"
     opacity=".8"
     font-size="12.666px"
     xml:space="preserve"
     y="-327.27789"
     x="419.70206"
     font-family="'Bitstream Vera Sans'"
     fill="#000000"><tspan
       id="tspan4089-7-2-9-9-5"
       y="-327.27789"
       x="419.70206" /></text>
  <text
     id="text4087-2-6-5-55"
     opacity=".8"
     font-size="12.666px"
     xml:space="preserve"
     y="-56.758072"
     x="-608.03253"
     font-family="'Bitstream Vera Sans'"
     fill="#000000"><tspan
       id="tspan4089-7-2-9-32"
       y="-56.758072"
       x="-608.03253" /></text>
  <text
     id="text4087-2-6-5-59-9"
     opacity=".8"
     font-size="12.666px"
     xml:space="preserve"
     y="688.79541"
     x="-2431.7185"
     font-family="'Bitstream Vera Sans'"
     fill="#000000"><tspan
       id="tspan4089-7-2-9-4-1"
       y="688.79541"
       x="-2431.7185" /></text>
  <text
     id="text4087-2-6-5-1-8"
     opacity=".8"
     font-size="12.666px"
     xml:space="preserve"
     y="-918.28857"
     x="-456.93948"
     font-family="'Bitstream Vera Sans'"
     fill="#000000"><tspan
       id="tspan4089-7-2-9-7-8"
       y="-918.28857"
       x="-456.93948" /></text>
  <text
     id="text4087-2-6-5-7-8"
     opacity=".8"
     font-size="12.666px"
     xml:space="preserve"
     y="-1331.7588"
     x="350.66266"
     font-family="'Bitstream Vera Sans'"
     fill="#000000"><tspan
       id="tspan4089-7-2-9-1-9"
       y="-1331.7588"
       x="350.66266" /></text>
  <text
     id="text4087-2-6-5-5-52"
     opacity=".8"
     font-size="12.666px"
     xml:space="preserve"
     y="-1372.5005"
     x="374.62357"
     font-family="'Bitstream Vera Sans'"
     fill="#000000"><tspan
       id="tspan4089-7-2-9-6-4"
       y="-1372.5005"
       x="374.62357" /></text>
  <text
     id="text4087-2-6-5-3-4"
     opacity=".8"
     font-size="12.666px"
     xml:space="preserve"
     y="-1379.7104"
     x="-1116.8396"
     font-family="'Bitstream Vera Sans'"
     fill="#000000"><tspan
       id="tspan4089-7-2-9-18-3"
       y="-1379.7104"
       x="-1116.8396" /></text>
  <text
     id="text4087-2-6-5-4-7"
     opacity=".8"
     font-size="12.666px"
     xml:space="preserve"
     y="-1652.9446"
     x="343.70316"
     font-family="'Bitstream Vera Sans'"
     fill="#000000"><tspan
       id="tspan4089-7-2-9-9-54"
       y="-1652.9446"
       x="343.70316" /></text>
  <text
     id="text4087-2-6-5-7-1-2"
     opacity=".8"
     font-size="12.666px"
     xml:space="preserve"
     y="-1026.2533"
     x="1829.8265"
     font-family="'Bitstream Vera Sans'"
     fill="#000000"><tspan
       id="tspan4089-7-2-9-1-8-0"
       y="-1026.2533"
       x="1829.8265" /></text>
  <text
     id="text4087-2-6-5-5-5-6"
     opacity=".8"
     font-size="12.666px"
     xml:space="preserve"
     y="-1066.9949"
     x="1853.7874"
     font-family="'Bitstream Vera Sans'"
     fill="#000000"><tspan
       id="tspan4089-7-2-9-6-9-8"
       y="-1066.9949"
       x="1853.7874" /></text>
  <text
     id="text4087-2-6-5-75-4"
     opacity=".8"
     font-size="12.666px"
     xml:space="preserve"
     y="-1074.2048"
     x="362.32431"
     font-family="'Bitstream Vera Sans'"
     fill="#000000"><tspan
       id="tspan4089-7-2-9-3-9"
       y="-1074.2048"
       x="362.32431" /></text>
  <text
     id="text4087-2-6-5-4-8-1"
     opacity=".8"
     font-size="12.666px"
     xml:space="preserve"
     y="-1347.439"
     x="1822.8671"
     font-family="'Bitstream Vera Sans'"
     fill="#000000"><tspan
       id="tspan4089-7-2-9-9-8-8"
       y="-1347.439"
       x="1822.8671" /></text>
  <text
     id="text4087-2-6-5-45-0"
     opacity=".8"
     font-size="12.666px"
     xml:space="preserve"
     y="-1122.2961"
     x="-575.492"
     font-family="'Bitstream Vera Sans'"
     fill="#000000"><tspan
       id="tspan4089-7-2-9-75-2"
       y="-1122.2961"
       x="-575.492" /></text>
  <text
     id="text4087-2-6-5-59-5"
     opacity=".8"
     font-size="12.666px"
     xml:space="preserve"
     y="-376.74261"
     x="-2399.1777"
     font-family="'Bitstream Vera Sans'"
     fill="#000000"><tspan
       id="tspan4089-7-2-9-4-00"
       y="-376.74261"
       x="-2399.1777" /></text>
  <text
     id="text4087-2-6-5-264"
     opacity=".8"
     font-size="12.666px"
     xml:space="preserve"
     y="-283.87045"
     x="-684.42224"
     font-family="'Bitstream Vera Sans'"
     fill="#000000"><tspan
       id="tspan4089-7-2-9-8"
       y="-283.87045"
       x="-684.42224" /></text>
  <text
     id="text4087-2-6-5-42"
     opacity=".8"
     font-size="12.666px"
     xml:space="preserve"
     y="-42.956276"
     x="155.5923"
     font-family="'Bitstream Vera Sans'"
     fill="#000000"><tspan
       id="tspan4089-7-2-9-93"
       y="-42.956276"
       x="155.5923" /></text>
  <text
     id="text4087-2-6-5-5-05"
     opacity=".8"
     font-size="12.666px"
     xml:space="preserve"
     y="-83.697998"
     x="179.55324"
     font-family="'Bitstream Vera Sans'"
     fill="#000000"><tspan
       id="tspan4089-7-2-9-6-49"
       y="-83.697998"
       x="179.55324" /></text>
  <text
     id="text4087-2-6-5-1-4"
     opacity=".8"
     font-size="12.666px"
     xml:space="preserve"
     y="-277.72662"
     x="-1090.2634"
     font-family="'Bitstream Vera Sans'"
     fill="#000000"><tspan
       id="tspan4089-7-2-9-7-7"
       y="-277.72662"
       x="-1090.2634" /></text>
  <text
     id="text4087-2-6-5-7-56"
     opacity=".8"
     font-size="12.666px"
     xml:space="preserve"
     y="-691.19678"
     x="-282.66141"
     font-family="'Bitstream Vera Sans'"
     fill="#000000"><tspan
       id="tspan4089-7-2-9-1-1"
       y="-691.19678"
       x="-282.66141" /></text>
  <text
     id="text4087-2-6-5-5-8"
     opacity=".8"
     font-size="12.666px"
     xml:space="preserve"
     y="-731.93848"
     x="-258.70047"
     font-family="'Bitstream Vera Sans'"
     fill="#000000"><tspan
       id="tspan4089-7-2-9-6-7"
       y="-731.93848"
       x="-258.70047" /></text>
  <text
     id="text4087-2-6-5-3-42"
     opacity=".8"
     font-size="12.666px"
     xml:space="preserve"
     y="-739.14838"
     x="-1750.1636"
     font-family="'Bitstream Vera Sans'"
     fill="#000000"><tspan
       id="tspan4089-7-2-9-18-39"
       y="-739.14838"
       x="-1750.1636" /></text>
  <text
     id="text4087-2-6-5-4-4"
     opacity=".8"
     font-size="12.666px"
     xml:space="preserve"
     y="-1012.3825"
     x="-289.62085"
     font-family="'Bitstream Vera Sans'"
     fill="#000000"><tspan
       id="tspan4089-7-2-9-9-3"
       y="-1012.3825"
       x="-289.62085" /></text>
  <text
     id="text4087-2-6-5-7-1-0"
     opacity=".8"
     font-size="12.666px"
     xml:space="preserve"
     y="-385.69113"
     x="1196.5026"
     font-family="'Bitstream Vera Sans'"
     fill="#000000"><tspan
       id="tspan4089-7-2-9-1-8-5"
       y="-385.69113"
       x="1196.5026" /></text>
  <text
     id="text4087-2-6-5-5-5-5"
     opacity=".8"
     font-size="12.666px"
     xml:space="preserve"
     y="-426.43286"
     x="1220.4634"
     font-family="'Bitstream Vera Sans'"
     fill="#000000"><tspan
       id="tspan4089-7-2-9-6-9-2"
       y="-426.43286"
       x="1220.4634" /></text>
  <text
     id="text4087-2-6-5-75-9"
     opacity=".8"
     font-size="12.666px"
     xml:space="preserve"
     y="-433.64282"
     x="-270.99973"
     font-family="'Bitstream Vera Sans'"
     fill="#000000"><tspan
       id="tspan4089-7-2-9-3-1"
       y="-433.64282"
       x="-270.99973" /></text>
  <text
     id="text4087-2-6-5-4-8-18"
     opacity=".8"
     font-size="12.666px"
     xml:space="preserve"
     y="-706.87689"
     x="1189.5431"
     font-family="'Bitstream Vera Sans'"
     fill="#000000"><tspan
       id="tspan4089-7-2-9-9-8-4"
       y="-706.87689"
       x="1189.5431" /></text>
  <text
     id="text4087-2-6-5-45-3"
     opacity=".8"
     font-size="12.666px"
     xml:space="preserve"
     y="-481.7341"
     x="-1208.816"
     font-family="'Bitstream Vera Sans'"
     fill="#000000"><tspan
       id="tspan4089-7-2-9-75-7"
       y="-481.7341"
       x="-1208.816" /></text>
  <text
     id="text4087-2-6-5-59-8"
     opacity=".8"
     font-size="12.666px"
     xml:space="preserve"
     y="263.81946"
     x="-3032.5017"
     font-family="'Bitstream Vera Sans'"
     fill="#000000"><tspan
       id="tspan4089-7-2-9-4-2"
       y="263.81946"
       x="-3032.5017" /></text>
  <g
     id="layer4-0"
     transform="matrix(.90475 0 0 .90475 -716.75 -692.29)">
    <text
       id="text4087-2-6-5-20"
       opacity=".8"
       font-size="14px"
       xml:space="preserve"
       y="1159.4154"
       x="-664.2738"
       font-family="'Bitstream Vera Sans'"
       fill="#000000"><tspan
         id="tspan4089-7-2-9-82"
         y="1159.4154"
         x="-664.2738" /></text>
  </g>
  <text
     id="text4087-2-6-5-9"
     opacity=".8"
     font-size="12.666px"
     xml:space="preserve"
     y="2.0505886"
     x="877.22626"
     font-family="'Bitstream Vera Sans'"
     fill="#000000"><tspan
       id="tspan4089-7-2-9-43"
       y="2.0505886"
       x="877.22626" /></text>
  <text
     id="text4087-2-6-5-5-51"
     opacity=".8"
     font-size="12.666px"
     xml:space="preserve"
     y="-38.691116"
     x="901.18719"
     font-family="'Bitstream Vera Sans'"
     fill="#000000"><tspan
       id="tspan4089-7-2-9-6-74"
       y="-38.691116"
       x="901.18719" /></text>
  <text
     id="text4087-2-6-5-2-3"
     opacity=".8"
     font-size="12.666px"
     xml:space="preserve"
     y="-68.769257"
     x="-569.37115"
     font-family="'Bitstream Vera Sans'"
     fill="#000000"><tspan
       id="tspan4089-7-2-9-2-1"
       y="-68.769257"
       x="-569.37115" /></text>
  <text
     id="text4087-2-6-5-59-4"
     opacity=".8"
     font-size="12.666px"
     xml:space="preserve"
     y="676.78418"
     x="-2393.0571"
     font-family="'Bitstream Vera Sans'"
     fill="#000000"><tspan
       id="tspan4089-7-2-9-4-6"
       y="676.78418"
       x="-2393.0571" /></text>
  <text
     id="text4087-2-6-5-1-9"
     opacity=".8"
     font-size="12.666px"
     xml:space="preserve"
     y="-454.09021"
     x="-454.88007"
     font-family="'Bitstream Vera Sans'"
     fill="#000000"><tspan
       id="tspan4089-7-2-9-7-4"
       y="-454.09021"
       x="-454.88007" /></text>
  <text
     id="text4087-2-6-5-7-2"
     opacity=".8"
     font-size="12.666px"
     xml:space="preserve"
     y="-867.5603"
     x="352.72208"
     font-family="'Bitstream Vera Sans'"
     fill="#000000"><tspan
       id="tspan4089-7-2-9-1-26"
       y="-867.5603"
       x="352.72208" /></text>
  <text
     id="text4087-2-6-5-5-3-4"
     opacity=".8"
     font-size="12.666px"
     xml:space="preserve"
     y="-908.30206"
     x="376.68301"
     font-family="'Bitstream Vera Sans'"
     fill="#000000"><tspan
       id="tspan4089-7-2-9-6-5-1"
       y="-908.30206"
       x="376.68301" /></text>
  <text
     id="text4087-2-6-5-3-2"
     opacity=".8"
     font-size="12.666px"
     xml:space="preserve"
     y="-915.51196"
     x="-1114.7802"
     font-family="'Bitstream Vera Sans'"
     fill="#000000"><tspan
       id="tspan4089-7-2-9-18-8"
       y="-915.51196"
       x="-1114.7802" /></text>
  <text
     id="text4087-2-6-5-4-89"
     opacity=".8"
     font-size="12.666px"
     xml:space="preserve"
     y="-1188.7461"
     x="345.7626"
     font-family="'Bitstream Vera Sans'"
     fill="#000000"><tspan
       id="tspan4089-7-2-9-9-2"
       y="-1188.7461"
       x="345.7626" /></text>
  <text
     id="text4087-2-6-5-7-1-8"
     opacity=".8"
     font-size="12.666px"
     xml:space="preserve"
     y="-562.05475"
     x="1831.8861"
     font-family="'Bitstream Vera Sans'"
     fill="#000000"><tspan
       id="tspan4089-7-2-9-1-8-8"
       y="-562.05475"
       x="1831.8861" /></text>
  <text
     id="text4087-2-6-5-5-5-8"
     opacity=".8"
     font-size="12.666px"
     xml:space="preserve"
     y="-602.79651"
     x="1855.8469"
     font-family="'Bitstream Vera Sans'"
     fill="#000000"><tspan
       id="tspan4089-7-2-9-6-9-6"
       y="-602.79651"
       x="1855.8469" /></text>
  <text
     id="text4087-2-6-5-75-8"
     opacity=".8"
     font-size="12.666px"
     xml:space="preserve"
     y="-610.00641"
     x="364.38376"
     font-family="'Bitstream Vera Sans'"
     fill="#000000"><tspan
       id="tspan4089-7-2-9-3-3"
       y="-610.00641"
       x="364.38376" /></text>
  <text
     id="text4087-2-6-5-4-8-8"
     opacity=".8"
     font-size="12.666px"
     xml:space="preserve"
     y="-883.24036"
     x="1824.9266"
     font-family="'Bitstream Vera Sans'"
     fill="#000000"><tspan
       id="tspan4089-7-2-9-9-8-3"
       y="-883.24036"
       x="1824.9266" /></text>
  <text
     id="text4087-2-6-5-45-33"
     opacity=".8"
     font-size="12.666px"
     xml:space="preserve"
     y="-658.09772"
     x="-573.43256"
     font-family="'Bitstream Vera Sans'"
     fill="#000000"><tspan
       id="tspan4089-7-2-9-75-8"
       y="-658.09772"
       x="-573.43256" /></text>
  <text
     id="text4087-2-6-5-59-7-0"
     opacity=".8"
     font-size="12.666px"
     xml:space="preserve"
     y="87.455849"
     x="-2397.1182"
     font-family="'Bitstream Vera Sans'"
     fill="#000000"><tspan
       id="tspan4089-7-2-9-4-0-4"
       y="87.455849"
       x="-2397.1182" /></text>
  <text
     id="text4087-2-6-5-8-7"
     opacity=".8"
     font-size="12.666px"
     xml:space="preserve"
     y="180.32799"
     x="-682.36279"
     font-family="'Bitstream Vera Sans'"
     fill="#000000"><tspan
       id="tspan4089-7-2-9-19-6"
       y="180.32799"
       x="-682.36279" /></text>
  <text
     id="text4087-2-6-5-7-5-8"
     opacity=".8"
     font-size="12.666px"
     xml:space="preserve"
     y="1.1458397"
     x="426.66153"
     font-family="'Bitstream Vera Sans'"
     fill="#000000"><tspan
       id="tspan4089-7-2-9-1-2-9"
       y="1.1458397"
       x="426.66153" /></text>
  <text
     id="text4087-2-6-5-5-0-0"
     opacity=".8"
     font-size="12.666px"
     xml:space="preserve"
     y="-39.595863"
     x="450.62247"
     font-family="'Bitstream Vera Sans'"
     fill="#000000"><tspan
       id="tspan4089-7-2-9-6-2-6"
       y="-39.595863"
       x="450.62247" /></text>
  <text
     id="text4087-2-6-5-26-8"
     opacity=".8"
     font-size="12.666px"
     xml:space="preserve"
     y="-46.805836"
     x="-1040.8407"
     font-family="'Bitstream Vera Sans'"
     fill="#000000"><tspan
       id="tspan4089-7-2-9-90-7"
       y="-46.805836"
       x="-1040.8407" /></text>
  <text
     id="text4087-2-6-5-4-3-9"
     opacity=".8"
     font-size="12.666px"
     xml:space="preserve"
     y="-320.03989"
     x="419.70206"
     font-family="'Bitstream Vera Sans'"
     fill="#000000"><tspan
       id="tspan4089-7-2-9-9-5-0"
       y="-320.03989"
       x="419.70206" /></text>
  <text
     id="text4087-2-6-5-55-3"
     opacity=".8"
     font-size="12.666px"
     xml:space="preserve"
     y="-49.520081"
     x="-608.03253"
     font-family="'Bitstream Vera Sans'"
     fill="#000000"><tspan
       id="tspan4089-7-2-9-32-3"
       y="-49.520081"
       x="-608.03253" /></text>
  <text
     id="text4087-2-6-5-59-9-3"
     opacity=".8"
     font-size="12.666px"
     xml:space="preserve"
     y="696.03345"
     x="-2431.7185"
     font-family="'Bitstream Vera Sans'"
     fill="#000000"><tspan
       id="tspan4089-7-2-9-4-1-7"
       y="696.03345"
       x="-2431.7185" /></text>
  <text
     id="text4087-2-6-5-1-8-3"
     opacity=".8"
     font-size="12.666px"
     xml:space="preserve"
     y="-911.0506"
     x="-456.93948"
     font-family="'Bitstream Vera Sans'"
     fill="#000000"><tspan
       id="tspan4089-7-2-9-7-8-2"
       y="-911.0506"
       x="-456.93948" /></text>
  <text
     id="text4087-2-6-5-7-8-6"
     opacity=".8"
     font-size="12.666px"
     xml:space="preserve"
     y="-1324.5208"
     x="350.66266"
     font-family="'Bitstream Vera Sans'"
     fill="#000000"><tspan
       id="tspan4089-7-2-9-1-9-5"
       y="-1324.5208"
       x="350.66266" /></text>
  <text
     id="text4087-2-6-5-5-52-2"
     opacity=".8"
     font-size="12.666px"
     xml:space="preserve"
     y="-1365.2626"
     x="374.62357"
     font-family="'Bitstream Vera Sans'"
     fill="#000000"><tspan
       id="tspan4089-7-2-9-6-4-6"
       y="-1365.2626"
       x="374.62357" /></text>
  <text
     id="text4087-2-6-5-3-4-5"
     opacity=".8"
     font-size="12.666px"
     xml:space="preserve"
     y="-1372.4724"
     x="-1116.8396"
     font-family="'Bitstream Vera Sans'"
     fill="#000000"><tspan
       id="tspan4089-7-2-9-18-3-8"
       y="-1372.4724"
       x="-1116.8396" /></text>
  <text
     id="text4087-2-6-5-4-7-7"
     opacity=".8"
     font-size="12.666px"
     xml:space="preserve"
     y="-1645.7065"
     x="343.70316"
     font-family="'Bitstream Vera Sans'"
     fill="#000000"><tspan
       id="tspan4089-7-2-9-9-54-9"
       y="-1645.7065"
       x="343.70316" /></text>
  <text
     id="text4087-2-6-5-7-1-2-6"
     opacity=".8"
     font-size="12.666px"
     xml:space="preserve"
     y="-1019.0153"
     x="1829.8265"
     font-family="'Bitstream Vera Sans'"
     fill="#000000"><tspan
       id="tspan4089-7-2-9-1-8-0-0"
       y="-1019.0153"
       x="1829.8265" /></text>
  <text
     id="text4087-2-6-5-5-5-6-4"
     opacity=".8"
     font-size="12.666px"
     xml:space="preserve"
     y="-1059.757"
     x="1853.7874"
     font-family="'Bitstream Vera Sans'"
     fill="#000000"><tspan
       id="tspan4089-7-2-9-6-9-8-1"
       y="-1059.757"
       x="1853.7874" /></text>
  <text
     id="text4087-2-6-5-75-4-0"
     opacity=".8"
     font-size="12.666px"
     xml:space="preserve"
     y="-1066.9668"
     x="362.32431"
     font-family="'Bitstream Vera Sans'"
     fill="#000000"><tspan
       id="tspan4089-7-2-9-3-9-4"
       y="-1066.9668"
       x="362.32431" /></text>
  <text
     id="text4087-2-6-5-4-8-1-8"
     opacity=".8"
     font-size="12.666px"
     xml:space="preserve"
     y="-1340.2009"
     x="1822.8671"
     font-family="'Bitstream Vera Sans'"
     fill="#000000"><tspan
       id="tspan4089-7-2-9-9-8-8-7"
       y="-1340.2009"
       x="1822.8671" /></text>
  <text
     id="text4087-2-6-5-45-0-0"
     opacity=".8"
     font-size="12.666px"
     xml:space="preserve"
     y="-1115.0581"
     x="-575.492"
     font-family="'Bitstream Vera Sans'"
     fill="#000000"><tspan
       id="tspan4089-7-2-9-75-2-8"
       y="-1115.0581"
       x="-575.492" /></text>
  <text
     id="text4087-2-6-5-59-5-6"
     opacity=".8"
     font-size="12.666px"
     xml:space="preserve"
     y="-369.50461"
     x="-2399.1777"
     font-family="'Bitstream Vera Sans'"
     fill="#000000"><tspan
       id="tspan4089-7-2-9-4-00-2"
       y="-369.50461"
       x="-2399.1777" /></text>
  <text
     id="text4087-2-6-5-264-4"
     opacity=".8"
     font-size="12.666px"
     xml:space="preserve"
     y="-276.63245"
     x="-684.42224"
     font-family="'Bitstream Vera Sans'"
     fill="#000000"><tspan
       id="tspan4089-7-2-9-8-7"
       y="-276.63245"
       x="-684.42224" /></text>
  <text
     id="text4087-2-6-5-42-9"
     opacity=".8"
     font-size="12.666px"
     xml:space="preserve"
     y="-35.718292"
     x="155.5923"
     font-family="'Bitstream Vera Sans'"
     fill="#000000"><tspan
       id="tspan4089-7-2-9-93-3"
       y="-35.718292"
       x="155.5923" /></text>
  <text
     id="text4087-2-6-5-5-05-9"
     opacity=".8"
     font-size="12.666px"
     xml:space="preserve"
     y="-76.460007"
     x="179.55324"
     font-family="'Bitstream Vera Sans'"
     fill="#000000"><tspan
       id="tspan4089-7-2-9-6-49-2"
       y="-76.460007"
       x="179.55324" /></text>
  <text
     id="text4087-2-6-5-1-4-8"
     opacity=".8"
     font-size="12.666px"
     xml:space="preserve"
     y="-270.48859"
     x="-1090.2634"
     font-family="'Bitstream Vera Sans'"
     fill="#000000"><tspan
       id="tspan4089-7-2-9-7-7-3"
       y="-270.48859"
       x="-1090.2634" /></text>
  <text
     id="text4087-2-6-5-7-56-0"
     opacity=".8"
     font-size="12.666px"
     xml:space="preserve"
     y="-683.9588"
     x="-282.66141"
     font-family="'Bitstream Vera Sans'"
     fill="#000000"><tspan
       id="tspan4089-7-2-9-1-1-1"
       y="-683.9588"
       x="-282.66141" /></text>
  <text
     id="text4087-2-6-5-5-8-7"
     opacity=".8"
     font-size="12.666px"
     xml:space="preserve"
     y="-724.7005"
     x="-258.70047"
     font-family="'Bitstream Vera Sans'"
     fill="#000000"><tspan
       id="tspan4089-7-2-9-6-7-8"
       y="-724.7005"
       x="-258.70047" /></text>
  <text
     id="text4087-2-6-5-3-42-9"
     opacity=".8"
     font-size="12.666px"
     xml:space="preserve"
     y="-731.91046"
     x="-1750.1636"
     font-family="'Bitstream Vera Sans'"
     fill="#000000"><tspan
       id="tspan4089-7-2-9-18-39-1"
       y="-731.91046"
       x="-1750.1636" /></text>
  <text
     id="text4087-2-6-5-4-4-5"
     opacity=".8"
     font-size="12.666px"
     xml:space="preserve"
     y="-1005.1445"
     x="-289.62085"
     font-family="'Bitstream Vera Sans'"
     fill="#000000"><tspan
       id="tspan4089-7-2-9-9-3-4"
       y="-1005.1445"
       x="-289.62085" /></text>
  <text
     id="text4087-2-6-5-7-1-0-9"
     opacity=".8"
     font-size="12.666px"
     xml:space="preserve"
     y="-378.45316"
     x="1196.5026"
     font-family="'Bitstream Vera Sans'"
     fill="#000000"><tspan
       id="tspan4089-7-2-9-1-8-5-2"
       y="-378.45316"
       x="1196.5026" /></text>
  <text
     id="text4087-2-6-5-5-5-5-5"
     opacity=".8"
     font-size="12.666px"
     xml:space="preserve"
     y="-419.19489"
     x="1220.4634"
     font-family="'Bitstream Vera Sans'"
     fill="#000000"><tspan
       id="tspan4089-7-2-9-6-9-2-7"
       y="-419.19489"
       x="1220.4634" /></text>
  <text
     id="text4087-2-6-5-75-9-4"
     opacity=".8"
     font-size="12.666px"
     xml:space="preserve"
     y="-426.40482"
     x="-270.99973"
     font-family="'Bitstream Vera Sans'"
     fill="#000000"><tspan
       id="tspan4089-7-2-9-3-1-9"
       y="-426.40482"
       x="-270.99973" /></text>
  <text
     id="text4087-2-6-5-4-8-18-9"
     opacity=".8"
     font-size="12.666px"
     xml:space="preserve"
     y="-699.63892"
     x="1189.5431"
     font-family="'Bitstream Vera Sans'"
     fill="#000000"><tspan
       id="tspan4089-7-2-9-9-8-4-4"
       y="-699.63892"
       x="1189.5431" /></text>
  <text
     id="text4087-2-6-5-45-3-5"
     opacity=".8"
     font-size="12.666px"
     xml:space="preserve"
     y="-474.49609"
     x="-1208.816"
     font-family="'Bitstream Vera Sans'"
     fill="#000000"><tspan
       id="tspan4089-7-2-9-75-7-9"
       y="-474.49609"
       x="-1208.816" /></text>
  <text
     id="text4087-2-6-5-59-8-3"
     opacity=".8"
     font-size="12.666px"
     xml:space="preserve"
     y="271.05743"
     x="-3032.5017"
     font-family="'Bitstream Vera Sans'"
     fill="#000000"><tspan
       id="tspan4089-7-2-9-4-2-5"
       y="271.05743"
       x="-3032.5017" /></text>
  <g
     id="layer4-0-7"
     transform="matrix(.90475 0 0 .90475 -716.75 -685.05)">
    <text
       id="text4087-2-6-5-20-0"
       opacity=".8"
       font-size="14px"
       xml:space="preserve"
       y="1159.4154"
       x="-664.2738"
       font-family="'Bitstream Vera Sans'"
       fill="#000000"><tspan
         id="tspan4089-7-2-9-82-8"
         y="1159.4154"
         x="-664.2738" /></text>
  </g>
  <text
     id="text7276"
     font-size="12.666px"
     xml:space="preserve"
     y="-377.22546"
     x="435.90427"
     font-family="'Droid Sans'"
     fill="#000000"><tspan
       id="tspan7278"
       y="-377.22546"
       x="435.90427" /><tspan
       id="tspan7280"
       y="-361.3924"
       x="435.90427" /></text>
  <text
     id="text4087-2-6-5-51"
     opacity=".8"
     font-size="12.666px"
     xml:space="preserve"
     y="-859.27002"
     x="901.0882"
     font-family="'Bitstream Vera Sans'"
     fill="#000000"><tspan
       id="tspan4089-7-2-9-97"
       y="-859.27002"
       x="901.0882" /></text>
  <text
     id="text4087-2-6-5-59-2"
     opacity=".8"
     font-size="12.666px"
     xml:space="preserve"
     y="-113.71655"
     x="-922.59778"
     font-family="'Bitstream Vera Sans'"
     fill="#000000"><tspan
       id="tspan4089-7-2-9-4-4"
       y="-113.71655"
       x="-922.59778" /></text>
  <text
     id="text4087-2-6-5-7-7"
     opacity=".8"
     font-size="12.666px"
     xml:space="preserve"
     y="-1144.2659"
     x="1628.1677"
     font-family="'Bitstream Vera Sans'"
     fill="#000000"><tspan
       id="tspan4089-7-2-9-1-6"
       y="-1144.2659"
       x="1628.1677" /></text>
  <text
     id="text4087-2-6-5-5-6"
     opacity=".8"
     font-size="12.666px"
     xml:space="preserve"
     y="-1185.0076"
     x="1652.1285"
     font-family="'Bitstream Vera Sans'"
     fill="#000000"><tspan
       id="tspan4089-7-2-9-6-53"
       y="-1185.0076"
       x="1652.1285" /></text>
  <text
     id="text4087-2-6-5-54"
     opacity=".8"
     font-size="12.666px"
     xml:space="preserve"
     y="-1192.2175"
     x="160.66542"
     font-family="'Bitstream Vera Sans'"
     fill="#000000"><tspan
       id="tspan4089-7-2-9-0"
       y="-1192.2175"
       x="160.66542" /></text>
  <text
     id="text4087-2-6-5-4-1"
     opacity=".8"
     font-size="12.666px"
     xml:space="preserve"
     y="-1465.4517"
     x="1621.2083"
     font-family="'Bitstream Vera Sans'"
     fill="#000000"><tspan
       id="tspan4089-7-2-9-9-28"
       y="-1465.4517"
       x="1621.2083" /></text>
  <path
     inkscape:connector-curvature="0"
     d="M 3.5,4 C 2.669,4 2,4.669 2,5.5 L 2,22 2,26.5 c 0,0 0,1.506 1.5,1.5 L 28.599609,27.90039 C 29.375609,27.897391 30,27.276 30,26.5 L 30,22 30,5.5 C 30,4.669 29.331,4 28.5,4 l -25,0 z m 0,24 25,0 c 0.43994,0 0.8198,-0.20022 1.09375,-0.5 -0.25305,0.25267 -0.6122,0.40475 -1,0.40625 L 3.5,28 Z"
     id="rect4255-7"
     style="fill:#d2d2d2;fill-opacity:1" />
  <path
     inkscape:connector-curvature="0"
     style="fill:#726639;fill-opacity:1"
     d="M 3.5,4 C 2.669,4 2,4.669 2,5.5 L 2,22 2,26.5 c 0,0 0,1.506 1.5,1.5 L 28.599609,27.90039 C 29.375609,27.897391 30,27.276 30,26.5 L 30,22 30,5.5 C 30,4.669 29.331,4 28.5,4 l -25,0 z m 0,24 25,0 c 0.43994,0 0.8198,-0.20022 1.09375,-0.5 -0.25305,0.25267 -0.6122,0.40475 -1,0.40625 L 3.5,28 Z m 0,-23 25,0 C 28.794297,5 29,5.2057028 29,5.5 l 0,16.5 0,4.5 c 0,0.239582 -0.160052,0.399446 -0.404297,0.400391 L 3.5,27 3.4960938,27 C 3.0807524,27.001661 3.1503704,26.943592 3.0820312,26.806641 3.0136923,26.669689 3,26.5 3,26.5 L 3,22 3,5.5 C 3,5.2057028 3.2057028,5 3.5,5 Z"
     id="path4355" />
  <path
     style="opacity:0.2;fill:#ffffff"
     inkscape:connector-curvature="0"
     id="rect4091"
     d="M 3.5,4 C 2.669,4 2,4.669 2,5.5 l 0,1 C 2,5.669 2.669,5 3.5,5 l 25,0 C 29.331,5 30,5.669 30,6.5 l 0,-1 C 30,4.669 29.331,4 28.5,4 l -25,0 z" />
  <path
     style="opacity:0.1"
     inkscape:connector-curvature="0"
     id="path4106"
     d="M 3.5,28 C 2.669,28 2,27.331 2,26.5 l 0,-1 C 2,26.331 2.669,27 3.5,27 l 25,0 c 0.831,0 1.5,-0.669 1.5,-1.5 l 0,1 c 0,0.831 -0.669,1.5 -1.5,1.5 l -25,0 z" />
  <path
     style="opacity:0.3"
     inkscape:connector-curvature="0"
     id="rect4092"
     d="m 2,25.5 0,1 C 2,27.331 2.669,28 3.5,28 l 25,0 c 0.831,0 1.5,-0.669 1.5,-1.5 l 0,-1 c 0,0.831 -0.669,1.5 -1.5,1.5 l -25,0 C 2.669,27 2,26.331 2,25.5 Z" />
  <path
     inkscape:connector-curvature="0"
     style="fill:#729fcf;fill-opacity:1;fill-rule:evenodd;stroke:none;stroke-width:1px;stroke-linecap:butt;stroke-linejoin:miter;stroke-opacity:1"
     d="M 10.313725,8.0000055 6.7843131,12.444447 c 0,0 1.176472,-0.888887 1.568628,-1.333332 0.392157,-0.444445 1.9607839,-3.1111095 1.9607839,-3.1111095 z m 1.568629,0 -2.0534629,2.5859355 C 10.026828,10.254921 10.313725,9.7777815 10.313725,9.7777815 L 6.7843131,14.222223 c 0,0 0.60613,-0.460152 1.093751,-0.883679 l -0.701594,0.883679 c 0,0 0.43074,-0.329479 0.85861,-0.685764 l -1.250767,1.574654 c 0,0 0.605505,-0.459487 1.092985,-0.882813 l -0.700828,0.882813 c 0,0 0.921287,-0.702033 1.399357,-1.170139 l -0.222886,0.28125 c 0,0 0.233461,-0.183396 0.415901,-0.326389 l -2.376686,2.993053 c 0,0 0.606129,-0.460152 1.093751,-0.883679 l -0.701594,0.883679 c 0,0 0.294118,-0.222222 0.637255,-0.499999 0.07233,-0.05855 0.145436,-0.122103 0.219824,-0.184027 l -1.249236,1.572915 c 0,0 0.606129,-0.460153 1.093751,-0.88368 l -0.701594,0.88368 c 0,0 0.921287,-0.702032 1.399358,-1.170139 l -0.222886,0.281249 c 0,0 0.23346,-0.183394 0.4159,-0.326388 l -2.376685,2.993054 c 0,0 1.17647,-0.888888 1.568627,-1.333333 0.12402,-0.140555 0.373161,-0.52096 0.645681,-0.951388 0.147981,-0.119905 0.302192,-0.250032 0.448069,-0.376736 l -0.701592,0.88368 c 0,0 0.23346,-0.183396 0.4159,-0.326389 l -2.376685,2.993054 c 0,0 0.921286,-0.702032 1.399357,-1.170138 l -0.222887,0.28125 c 0,0 0.294118,-0.222222 0.637256,-0.5 0.07233,-0.05855 0.145436,-0.122103 0.219822,-0.184028 l -1.249235,1.572916 c 0,0 0.60613,-0.460152 1.093751,-0.88368 l -0.701594,0.88368 c 0,0 0.60613,-0.460152 1.093751,-0.88368 l -0.701594,0.88368 c 0,0 0.923333,-0.7038 1.40089,-1.171874 l -0.224419,0.282986 c 0,0 0.430738,-0.32948 0.85861,-0.685764 l -1.250767,1.574652 c 0,0 0.29023,-0.219824 0.624235,-0.489583 l -1.800706,2.267359 c 0,0 0.60613,-0.460152 1.093751,-0.88368 l -0.701594,0.88368 c 0,0 0.294119,-0.222221 0.637255,-0.5 0.07233,-0.05855 0.145437,-0.122102 0.219823,-0.184027 l -1.249235,1.572916 c 0,0 0.60613,-0.460153 1.093751,-0.88368 l -0.701594,0.88368 c 0,0 0.921287,-0.702033 1.399357,-1.170138 l -0.222886,0.281249 c 0,0 0.294118,-0.222221 0.637255,-0.5 0.07233,-0.05855 0.145436,-0.122102 0.219823,-0.184027 l -1.2492349,1.572916 c 0,0 0.60613,-0.460153 1.09375,-0.88368 l -0.701593,0.88368 c 0,0 0.924239,-0.703809 1.4016548,-1.171875 l -0.2251838,0.282986 c 0,0 0.9242388,-0.703808 1.4016538,-1.171874 l -0.225183,0.282986 c 0,0 0.430258,-0.328894 0.857842,-0.684896 l -1.25,1.573784 c 0,0 0.605505,-0.459486 1.092985,-0.882812 l -0.700827,0.882812 c 0,0 0.606129,-0.460152 1.093749,-0.88368 l -0.701593,0.88368 c 0,0 0.605505,-0.459486 1.092984,-0.882812 l -0.700826,0.882812 c 0,0 0.606128,-0.460152 1.093749,-0.88368 l -0.701593,0.88368 c 0,0 0.60613,-0.460152 1.093749,-0.88368 l -0.701593,0.88368 c 0,0 0.60613,-0.460152 1.093751,-0.88368 l -0.701593,0.88368 c 0,0 0.430137,-0.329641 0.857843,-0.685763 l -1.250001,1.574652 c 0,0 0.60613,-0.460153 1.093751,-0.88368 l -0.701593,0.88368 c 0,0 0.430739,-0.329479 0.858608,-0.685763 l -1.250766,1.574651 c 0,0 0.60613,-0.460152 1.093751,-0.88368 l -0.701593,0.88368 c 0,0 0.921285,-0.702032 1.399356,-1.170137 l -0.222886,0.281249 c 0,0 0.294118,-0.222222 0.637255,-0.500001 0.07233,-0.05855 0.145437,-0.122102 0.219823,-0.184026 l -1.249235,1.572915 c 0,0 0.606129,-0.460152 1.09375,-0.88368 l -0.701593,0.88368 c 0,0 0.924239,-0.703808 1.401655,-1.171875 l -0.225184,0.282987 c 0,0 1.17647,-0.888889 1.568628,-1.333333 0.07153,-0.08107 0.190071,-0.251258 0.323222,-0.450521 0.18511,-0.161259 0.353532,-0.316465 0.461091,-0.438367 0.07153,-0.08107 0.190072,-0.251258 0.323224,-0.45052 0.11622,-0.101248 0.201765,-0.187142 0.293351,-0.27691 l -0.224417,0.282986 c 0,0 0.233459,-0.183396 0.415899,-0.326388 l -2.376684,2.993053 c 0,0 0.605505,-0.459487 1.092984,-0.882812 l -0.700828,0.882812 c 0,0 0.605505,-0.459487 1.092985,-0.882812 l -0.700827,0.882812 c 0,0 0.294117,-0.222222 0.637255,-0.500001 0.07233,-0.05855 0.145436,-0.122102 0.219821,-0.184026 l -1.249234,1.572915 c 0,0 0.60613,-0.460152 1.093751,-0.88368 l -0.701593,0.88368 c 0,0 0.921285,-0.702032 1.399355,-1.170137 l -0.222884,0.281249 c 0,0 0.294116,-0.222222 0.637253,-0.500001 0.07233,-0.05855 0.145437,-0.122101 0.219823,-0.184026 l -1.249234,1.572915 c 0,0 0.606128,-0.460152 1.093749,-0.883679 l -0.701591,0.883679 c 0,0 0.924238,-0.703808 1.401653,-1.171875 l -0.225184,0.282987 c 0,0 0.606129,-0.460153 1.09375,-0.88368 l -0.701593,0.88368 c 0,0 0.605504,-0.459487 1.092983,-0.882812 l -0.700826,0.882812 c 0,0 0.605505,-0.459487 1.092984,-0.882812 l -0.700828,0.882812 c 0,0 0.60613,-0.460153 1.09375,-0.88368 l -0.701592,0.88368 c 0,0 0.606128,-0.460153 1.093749,-0.88368 l -0.701592,0.88368 c 0,0 0.606129,-0.460153 1.093749,-0.88368 l -0.701593,0.88368 c 0,0 0.605505,-0.459487 1.092984,-0.882812 l -0.700827,0.882812 c 0,0 1.176471,-0.888889 1.568628,-1.333333 0.392157,-0.444444 1.960784,-3.111108 1.960784,-3.111108 l -1.678922,2.114581 c 0.584178,-0.925369 1.286765,-2.114581 1.286765,-2.114581 l -0.603554,0.759548 c 0.503516,-0.816555 0.995711,-1.648437 0.995711,-1.648437 l -0.602788,0.758681 C 25.508352,17.720224 26,16.888888 26,16.888888 l -2.053462,2.585935 c 0.197937,-0.33102 0.484834,-0.808158 0.484834,-0.808158 l -1.678922,2.114582 c 0.272036,-0.43092 0.445507,-0.712545 0.687807,-1.115451 0.238035,-0.201789 0.465406,-0.403327 0.598959,-0.554686 C 24.431372,18.666665 26,16 26,16 l -1.678921,2.114581 C 24.905255,17.189211 25.607843,16 25.607843,16 l -0.603554,0.760417 C 25.507932,15.943675 26,15.111113 26,15.111113 l -1.024816,1.28906 C 25.032144,16.304013 25.215686,16 25.215686,16 l -1.678155,2.112845 c 0.583992,-0.925169 1.285998,-2.112846 1.285998,-2.112846 l -0.0674,0.0842 c 0.448559,-0.733607 0.851716,-1.417533 0.851716,-1.417533 L 24.07062,16.60156 c 0.119221,-0.200418 0.360754,-0.601562 0.360754,-0.601562 l -1.678155,2.112846 c 0.271776,-0.430552 0.445028,-0.711289 0.68704,-1.113714 0.238035,-0.201789 0.465406,-0.403328 0.598958,-0.554688 C 24.431372,15.999999 26,13.333334 26,13.333334 l -1.678922,2.114582 c 0.584177,-0.925369 1.286765,-2.114582 1.286765,-2.114582 l -1.678156,2.112846 c 0.583993,-0.92517 1.285999,-2.112846 1.285999,-2.112846 l -1.678922,2.114582 c 0.584177,-0.925369 1.286765,-2.114582 1.286765,-2.114582 l -1.678156,2.112846 c 0.156024,-0.247174 0.306125,-0.484974 0.464155,-0.743923 0.0097,-0.01053 0.02863,-0.02551 0.03752,-0.03559 0.392157,-0.444444 1.960784,-3.111109 1.960784,-3.111109 l -1.679687,2.114582 c 0.584227,-0.925422 1.287532,-2.11458 1.287532,-2.11458 l -0.60432,0.761284 c 0.503861,-0.817063 0.996476,-1.650174 0.996476,-1.650174 l -1.676623,2.11111 c 0.583759,-0.924914 1.284467,-2.11111 1.284467,-2.11111 l -0.602788,0.758681 c 0.5033,-0.816231 0.994947,-1.6475675 0.994947,-1.6475675 l -1.679688,2.1145825 c 0.584226,-0.925423 1.287531,-2.1145825 1.287531,-2.1145825 l -0.60432,0.7612845 C 25.11522,9.7220055 25.607836,8.8888955 25.607836,8.8888955 l -1.676624,2.1111105 c 0.58376,-0.924916 1.284467,-2.1111115 1.284467,-2.1111115 L 24.188565,10.18143 c 0.05791,-0.09776 0.242801,-0.4036465 0.242801,-0.4036465 l -1.678922,2.1145815 c 0.584177,-0.925369 1.286764,-2.1145815 1.286764,-2.1145815 l -0.602787,0.7586805 c 0.503297,-0.8162335 0.994945,-1.6475695 0.994945,-1.6475695 l -1.027114,1.2934035 c 0.05807,-0.09803 0.2428,-0.4045145 0.2428,-0.4045145 l -1.026349,1.2925345 c 0.0578,-0.09758 0.242035,-0.403646 0.242035,-0.403646 l -0.602022,0.756944 C 22.763672,10.607892 23.2549,9.7777835 23.2549,9.7777835 L 21.579042,11.88629 c 0.149103,-0.236274 0.298938,-0.471724 0.450367,-0.719618 0.441177,-0.722222 0.833334,-1.3888885 0.833334,-1.3888885 L 22.259189,10.537332 C 22.762704,9.7207775 23.2549,8.8888945 23.2549,8.8888945 l -1.027114,1.2934035 c 0.05807,-0.09803 0.2428,-0.4045145 0.2428,-0.4045145 l -0.60432,0.7612845 c 0.503861,-0.8170625 0.996477,-1.6501735 0.996477,-1.6501735 l -1.024817,1.2890625 c 0.05696,-0.09616 0.240503,-0.4001735 0.240503,-0.4001735 l -1.027115,1.2925345 c 0.05791,-0.09776 0.242801,-0.403646 0.242801,-0.403646 l -2.053462,2.585936 c 0.197937,-0.331021 0.484835,-0.80816 0.484835,-0.80816 l -0.60432,0.761285 c 0.06216,-0.10079 0.113636,-0.181301 0.174632,-0.281249 0.0097,-0.01053 0.02863,-0.02551 0.03753,-0.03559 0.07142,-0.08093 0.189593,-0.250854 0.322458,-0.449652 0.185443,-0.161521 0.354133,-0.31715 0.461856,-0.439236 0.392156,-0.444444 1.960785,-3.1111095 1.960785,-3.1111095 l -1.027115,1.2942695 c 0.05823,-0.09829 0.242802,-0.4053805 0.242802,-0.4053805 l -0.60432,0.7604165 c 0.503733,-0.8168745 0.996477,-1.6493055 0.996477,-1.6493055 l -1.679687,2.1145825 c 0.584224,-0.925422 1.28753,-2.1145825 1.28753,-2.1145825 l -2.053462,2.5859365 c 0.197936,-0.33102 0.484835,-0.808159 0.484835,-0.808159 l -0.602788,0.758681 C 19.626,10.609124 20.117648,9.7777875 20.117648,9.7777875 l -0.60432,0.7604175 c 0.503733,-0.8168755 0.996476,-1.6493055 0.996476,-1.6493055 l -1.024815,1.2890625 c 0.05695,-0.09616 0.240502,-0.4001745 0.240502,-0.4001745 l -0.602023,0.7569445 c 0.502953,-0.8157235 0.99418,-1.6458325 0.99418,-1.6458325 l -1.67739,2.1119785 c 0.149681,-0.237142 0.299812,-0.474117 0.451899,-0.72309 0.441176,-0.7222225 0.833334,-1.3888885 0.833334,-1.3888885 l -1.027114,1.2925345 c 0.05791,-0.09776 0.2428,-0.4036465 0.2428,-0.4036465 l -1.026348,1.2916665 c 0.05765,-0.09731 0.242036,-0.402778 0.242036,-0.402778 l -0.605086,0.762153 c 0.06237,-0.10113 0.114194,-0.181829 0.175398,-0.282118 0.0097,-0.01053 0.02863,-0.02551 0.03753,-0.03559 0.392157,-0.444444 1.960784,-3.1111095 1.960784,-3.1111095 l -1.027114,1.292533 c 0.05791,-0.09776 0.242801,-0.403644 0.242801,-0.403644 l -1.027114,1.2942705 c 0.05823,-0.09829 0.242801,-0.4053825 0.242801,-0.4053825 l -0.60432,0.7604165 c 0.503738,-0.8168735 0.996481,-1.6493035 0.996481,-1.6493035 l -1.027113,1.2925335 c 0.05791,-0.09776 0.2428,-0.4036465 0.2428,-0.4036465 l -0.600487,0.7552105 c 0.05449,-0.08838 0.105655,-0.167368 0.159313,-0.255208 0.441176,-0.7222225 0.833334,-1.3888885 0.833334,-1.3888885 l -1.027114,1.2925345 c 0.05791,-0.09776 0.2428,-0.4036465 0.2428,-0.4036465 l -0.602022,0.7569445 c 0.502952,-0.8157225 0.994178,-1.6458325 0.994178,-1.6458325 l -1.67356,2.1059025 c 0.148556,-0.23545 0.297264,-0.470139 0.448069,-0.717014 0.441178,-0.7222225 0.833335,-1.3888885 0.833335,-1.3888885 l -1.027115,1.2925345 c 0.05791,-0.09776 0.2428,-0.4036465 0.2428,-0.4036465 l -1.027113,1.2942705 c 0.05823,-0.09829 0.2428,-0.405382 0.2428,-0.405382 l -0.602788,0.758681 c 0.05525,-0.0896 0.107209,-0.169622 0.161612,-0.258681 0.0063,-0.01025 0.0053,-0.0097 0.01148,-0.01997 0.0097,-0.01053 0.02863,-0.02551 0.03753,-0.03559 0.392157,-0.444444 1.960784,-3.1111095 1.960784,-3.1111095 l -1.024816,1.289063 c 0.05696,-0.09616 0.240503,-0.400174 0.240503,-0.400174 L 15.563419,10.17796 c 0.05696,-0.09616 0.240503,-0.4001735 0.240503,-0.4001735 l -0.60432,0.7604165 c 0.503733,-0.8168745 0.996477,-1.6493045 0.996477,-1.6493045 l -1.679688,2.1145825 c 0.584226,-0.925422 1.287531,-2.1145825 1.287531,-2.1145825 l -1.027114,1.2925345 c 0.05791,-0.09776 0.2428,-0.4036465 0.2428,-0.4036465 l -1.024816,1.2907985 c 0.05727,-0.09669 0.240502,-0.40191 0.240502,-0.40191 l -0.604319,0.760418 c 0.06203,-0.100592 0.113756,-0.180632 0.174632,-0.280384 0.0097,-0.01053 0.02863,-0.02551 0.03753,-0.03559 0.392156,-0.444445 1.960784,-3.1111105 1.960784,-3.1111105 l -1.027115,1.292534 c 0.05791,-0.09776 0.242802,-0.403644 0.242802,-0.403644 l -1.027114,1.2925335 c 0.05791,-0.09776 0.242801,-0.4036465 0.242801,-0.4036465 l -1.027114,1.2925355 c 0.05791,-0.09776 0.242799,-0.403647 0.242799,-0.403647 l -1.678914,2.114584 c 0.15631,-0.247602 0.306562,-0.486171 0.46492,-0.745658 0.0097,-0.01053 0.02863,-0.02551 0.03753,-0.03559 C 12.666673,11.555566 14.2353,8.8889005 14.2353,8.8889005 l -1.027114,1.2925345 c 0.05792,-0.09775 0.242811,-0.4036355 0.242811,-0.4036355 L 12.423883,11.07207 c 0.05823,-0.09829 0.2428,-0.405382 0.2428,-0.405382 l -0.604321,0.760416 c 0.06204,-0.100591 0.113758,-0.180632 0.174634,-0.280382 0.0097,-0.01053 0.02863,-0.02551 0.03753,-0.03559 0.392157,-0.444444 1.960785,-3.1111095 1.960785,-3.1111095 l -2.053462,2.5859365 c 0.197938,-0.33102 0.484835,-0.8081585 0.484835,-0.8081585 L 11.63957,11.070334 c 0.05791,-0.09776 0.242801,-0.403645 0.242801,-0.403645 l -0.60432,0.761284 c 0.503861,-0.817061 0.996476,-1.6501725 0.996476,-1.6501725 l -0.60432,0.7604165 C 12.173942,9.7213425 12.666684,8.8889125 12.666684,8.8889125 L 11.63957,10.181447 c 0.05791,-0.09776 0.242801,-0.4036465 0.242801,-0.4036465 L 9.0913164,13.291687 c 0.233673,-0.351802 0.51657,-0.803542 0.79274,-1.256076 0.0097,-0.01053 0.02863,-0.02551 0.03753,-0.03559 0.07153,-0.08106 0.1900706,-0.251258 0.3232226,-0.45052 0.185108,-0.161261 0.35353,-0.316466 0.461089,-0.438367 0.392158,-0.444446 1.960785,-3.1111105 1.960785,-3.1111105 l -1.027114,1.292534 c 0.05791,-0.09776 0.242802,-0.403646 0.242802,-0.403646 l -1.024817,1.2890625 c 0.05695,-0.09617 0.240503,-0.4001775 0.240503,-0.4001775 l -1.024815,1.2907985 c 0.05727,-0.09669 0.240501,-0.401909 0.240501,-0.401909 l -0.6043186,0.760416 c 0.06203,-0.100591 0.113756,-0.18063 0.174632,-0.280382 0.0097,-0.01053 0.02863,-0.02551 0.03753,-0.03559 0.3921556,-0.444444 1.9607846,-3.1111095 1.9607846,-3.1111095 z m -1.568629,0.888888 -3.5294119,4.4444425 c 0,0 1.176472,-0.888889 1.568628,-1.333333 0.392157,-0.444443 1.9607839,-3.1111095 1.9607839,-3.1111095 z m 3.209254,3.7604145 -0.510112,0.642361 c 0.09167,-0.138002 0.193327,-0.297617 0.29948,-0.465277 0.06956,-0.05636 0.139248,-0.117662 0.210632,-0.177084 z m 1.33655,0.194445 -0.324755,0.408854 c 0.07139,-0.119392 0.123368,-0.205325 0.174632,-0.291667 0.07103,-0.05609 0.06992,-0.05241 0.150123,-0.117187 z m 7.635569,0.162325 -0.526961,0.664062 c 0.101674,-0.161056 0.202228,-0.321011 0.307138,-0.491318 0.05464,-0.0419 0.123225,-0.09702 0.219823,-0.172744 z m -8.03462,0.04427 -0.225184,0.282986 c 0,0 0.154081,-0.121558 0.208334,-0.163196 l -1.102942,1.388889 c 0.156309,-0.247603 0.306562,-0.486172 0.464921,-0.745659 0.0097,-0.01053 0.02863,-0.02551 0.03753,-0.03559 0.07141,-0.08094 0.189594,-0.250854 0.322457,-0.449653 0.116717,-0.10166 0.202989,-0.187681 0.294884,-0.277777 z m -5.0153179,0.289929 -0.251226,0.315972 c 0.06454,-0.106487 0.06814,-0.113689 0.127145,-0.211805 0.04162,-0.03527 0.08368,-0.06909 0.124081,-0.104167 z m 3.9215679,0 -0.251225,0.315972 c 0.06454,-0.106487 0.06814,-0.113689 0.127145,-0.211805 0.04162,-0.03527 0.08368,-0.06909 0.12408,-0.104167 z m 6.982996,0.392361 -0.324755,0.408854 c 0.07139,-0.119392 0.123369,-0.205325 0.174632,-0.291666 0.07104,-0.05609 0.06992,-0.05241 0.150123,-0.117188 z m -7.659313,0.163193 -0.526195,0.663194 c 0.101673,-0.161057 0.202227,-0.321012 0.307138,-0.491318 0.05442,-0.04173 0.122971,-0.09657 0.219057,-0.171876 z m 7.260264,0.04341 -0.225185,0.282986 c 0,0 0.153217,-0.121206 0.206801,-0.162326 l -0.449601,0.565972 c 0.05791,-0.09776 0.2428,-0.403646 0.2428,-0.403646 l -0.602787,0.75868 c 0.0616,-0.09991 0.112639,-0.179573 0.1731,-0.278646 0.0097,-0.01053 0.02863,-0.02551 0.03753,-0.03559 0.07141,-0.08094 0.189593,-0.250853 0.322459,-0.449651 0.116715,-0.101661 0.202987,-0.187682 0.294883,-0.277779 z m -3.838083,0.289062 -0.124847,0.157986 -0.124847,0.157118 c 0.06418,-0.105916 0.0677,-0.113353 0.126379,-0.210937 0.04146,-0.03514 0.08309,-0.06923 0.123315,-0.104167 z m -1.177237,9.34e-4 -0.251225,0.315971 c 0.06454,-0.106508 0.06814,-0.11371 0.127144,-0.211825 0.04162,-0.03527 0.08368,-0.06909 0.124081,-0.104167 z m 7.558977,0.555555 -0.525429,0.661458 c 0.101169,-0.160275 0.201238,-0.319296 0.305607,-0.488715 0.05444,-0.04173 0.123352,-0.09713 0.219822,-0.172743 z m -12.9434729,1.779513 -0.520834,0.655381 c 0.10038,-0.159065 0.199819,-0.316383 0.303309,-0.484374 0.05388,-0.04131 0.122378,-0.09645 0.217525,-0.171007 z m 1.4636939,2.108484 -0.700828,0.882812 c 0,0 0.154081,-0.121558 0.208333,-0.163194 l -1.1029399,1.388887 c 0.422411,-0.669124 0.7384539,-1.197061 0.9765619,-1.598089 0.209385,-0.165311 0.38378,-0.306262 0.618873,-0.510416 z m 0.392157,0 -0.124847,0.157986 -0.124081,0.155382 c 0.06367,-0.10507 0.06737,-0.112354 0.125613,-0.209201 0.04146,-0.03514 0.08309,-0.06923 0.123315,-0.104167 z m 0.391391,9.34e-4 -0.251226,0.31597 c 0.06454,-0.106508 0.06814,-0.11371 0.127145,-0.211825 0.04162,-0.03527 0.08368,-0.06909 0.124081,-0.104167 z m -0.678615,0.55729 -0.520834,0.655382 c 0.10038,-0.159065 0.199821,-0.316383 0.303309,-0.484374 0.05388,-0.04131 0.122378,-0.09645 0.217525,-0.171008 z m 0.185355,0.162328 -0.02681,0.03472 c 0.0057,-0.0093 0.0111,-0.01758 0.01685,-0.02691 0.0025,-0.0019 0.0074,-0.0059 0.01,-0.0078 z m 9.513632,0.168402 -0.124846,0.157986 -0.124081,0.155381 c 0.06367,-0.105071 0.06737,-0.112353 0.125613,-0.209201 0.04146,-0.03514 0.08309,-0.06923 0.123314,-0.104166 z m 1.176471,0 -0.700826,0.88279 c 0,0 0.233063,-0.183694 0.415134,-0.326388 l -1.637561,2.062498 c 0.233672,-0.351801 0.51657,-0.803542 0.79274,-1.256075 0.0097,-0.01053 0.02863,-0.02551 0.03753,-0.03559 0.124018,-0.140556 0.373159,-0.520962 0.645678,-0.951388 0.147698,-0.119675 0.301666,-0.249396 0.447305,-0.375868 z m 1.176472,0 -0.25046,0.315972 c 0.06451,-0.106448 0.06818,-0.11376 0.127145,-0.211806 0.04146,-0.03514 0.08309,-0.06923 0.123315,-0.104166 z m -2.745865,9.33e-4 -0.251225,0.315971 c 0.06454,-0.106529 0.06814,-0.11373 0.127144,-0.211846 0.04162,-0.03527 0.08368,-0.06909 0.124081,-0.104167 z m 0.784314,0 -0.251226,0.315971 c 0.06454,-0.106529 0.06814,-0.11373 0.127145,-0.211846 0.04162,-0.03527 0.08368,-0.06909 0.124081,-0.104167 z m 1.17647,0 -0.251225,0.315971 c 0.06454,-0.106529 0.06814,-0.11373 0.127145,-0.211846 0.04162,-0.03527 0.08368,-0.06909 0.12408,-0.104167 z m -4.941022,0.197917 -0.800398,1.007812 c 0.211788,-0.349444 0.295,-0.489977 0.417433,-0.69618 0.07724,-0.06099 0.07538,-0.05656 0.163143,-0.127604 0.07233,-0.05855 0.145437,-0.122104 0.219822,-0.184028 z m 5.441942,0.35677 -0.526961,0.664062 c 0.101673,-0.161057 0.202227,-0.321012 0.307138,-0.491319 0.05464,-0.0419 0.123225,-0.09702 0.219823,-0.172743 z m -0.78508,9.34e-4 -0.526195,0.663193 c 0.101674,-0.161057 0.202228,-0.321011 0.307139,-0.491319 0.05442,-0.04173 0.12297,-0.09656 0.219056,-0.171874 z m -1.570925,0.0018 -0.518535,0.652777 c 0.09961,-0.157867 0.197596,-0.31515 0.300244,-0.48177 0,0 8.13e-4,-9.33e-4 8.13e-4,-9.33e-4 0.05388,-0.0413 0.122534,-0.09571 0.217524,-0.170139 z m -0.597427,0.161458 -0.02911,0.03646 c 0.0057,-0.0093 0.0111,-0.01758 0.01685,-0.02691 0.0031,-0.0023 0.0091,-0.0071 0.01225,-0.0095 z m -0.393688,9.33e-4 -0.02681,0.03472 c 0.0057,-0.0093 0.0111,-0.01758 0.01685,-0.02691 0.0025,-0.0019 0.0074,-0.0059 0.01,-0.0078 z m 1.17647,0 -0.02681,0.03472 c 0.0057,-0.0093 0.0111,-0.01758 0.01685,-0.02691 0.0025,-0.0019 0.0074,-0.0059 0.01,-0.0078 z m -4.10386,0.723958 -0.52696,0.664062 c 0.101673,-0.161057 0.202226,-0.321011 0.307138,-0.491319 0.05465,-0.0419 0.123225,-0.09702 0.219822,-0.172743 z m 0.04748,0.532118 -0.510112,0.642361 c 0.09167,-0.138003 0.193328,-0.297616 0.299479,-0.465278 0.06956,-0.05636 0.139249,-0.117662 0.210633,-0.177083 z"
     id="path4256" />
</svg>
