<?xml version="1.0" encoding="UTF-8" standalone="no"?>
<!-- Created with Inkscape (http://www.inkscape.org/) -->

<svg
   xmlns:dc="http://purl.org/dc/elements/1.1/"
   xmlns:cc="http://creativecommons.org/ns#"
   xmlns:rdf="http://www.w3.org/1999/02/22-rdf-syntax-ns#"
   xmlns:svg="http://www.w3.org/2000/svg"
   xmlns="http://www.w3.org/2000/svg"
   xmlns:sodipodi="http://sodipodi.sourceforge.net/DTD/sodipodi-0.dtd"
   xmlns:inkscape="http://www.inkscape.org/namespaces/inkscape"
   id="svg2817"
   height="32"
   width="32"
   version="1.0"
   inkscape:version="0.91 r"
   sodipodi:docname="palemoon.svg">
  <sodipodi:namedview
     pagecolor="#ffffff"
     bordercolor="#666666"
     borderopacity="1"
     objecttolerance="10"
     gridtolerance="10"
     guidetolerance="10"
     inkscape:pageopacity="0"
     inkscape:pageshadow="2"
     inkscape:window-width="1600"
     inkscape:window-height="842"
     id="namedview16"
     showgrid="false"
     inkscape:zoom="1"
     inkscape:cx="24"
     inkscape:cy="19.04644"
     inkscape:window-x="-4"
     inkscape:window-y="32"
     inkscape:window-maximized="1"
     inkscape:current-layer="svg2817" />
  <metadata
     id="metadata57">
    <rdf:RDF>
      <cc:Work
         rdf:about="">
        <dc:format>image/svg+xml</dc:format>
        <dc:type
           rdf:resource="http://purl.org/dc/dcmitype/StillImage" />
        <dc:title></dc:title>
      </cc:Work>
    </rdf:RDF>
  </metadata>
  <defs
     id="defs2819">
    <clipPath
       id="clipPath4186"
       clipPathUnits="userSpaceOnUse">
      <circle
         id="path4188"
         style="color:#000000;fill:url(#linearGradient4190)"
         cy="26"
         cx="286"
         r="10" />
    </clipPath>
  </defs>
  <circle
     r="13"
     cx="16"
     cy="16"
     style="color:#000000;fill:#37a0f2"
     id="path4230" />
  <path
     style="opacity:0.2;fill:#000000;fill-opacity:1"
     d="m 14.772363,3.0698242 a 13,13 0 0 0 -4.704882,1.3647461 c 0.06542,0.20802 -0.01088,0.4427425 -0.2500983,0.65 -0.1618533,0.1402466 -0.2945313,0.3587169 -0.2945313,0.4862305 0,0.3897912 0.3524892,0.9883404 0.6334966,1.075293 0.37407,0.1157463 0.248187,0.514551 -0.2323244,0.7350583 C 9.701515,7.4832613 9.4281009,7.7766173 9.3159181,8.0336917 9.2037346,8.2907673 9.0382114,8.5445884 8.9490236,8.5973632 c -0.089225,0.052773 -0.1625,0.2537815 -0.1625,0.446875 0,0.2696395 0.1230892,0.400363 0.528125,0.5624021 0.2900599,0.1160393 0.6370663,0.2005783 0.7718754,0.187891 0.773844,-0.072832 0.828083,0.3779477 0.151074,1.2593747 -0.3594241,0.467955 -0.5322181,0.585668 -0.7769535,0.526856 -0.228425,-0.0549 -0.3532614,0.0097 -0.4570313,0.236132 -0.109705,0.239347 -0.2889191,0.320869 -0.7706056,0.3542 -0.4734658,0.03277 -0.6856817,0.128947 -0.8632812,0.388476 -0.1294729,0.189201 -0.316706,0.342774 -0.4164063,0.342774 -0.099701,0 -0.3338842,0.126866 -0.5205076,0.281836 -0.379914,0.315482 -0.5282538,0.347231 -0.6614258,0.140918 C 5.5953589,13.052394 5.2156059,13.19017 4.6503906,13.731348 4.150564,14.209915 4.0900277,14.33791 4.1654297,14.75332 c 0.1341516,0.739115 0.5350259,1.394983 0.9927734,1.623731 0.3994322,0.199613 0.4072044,0.221143 0.1650391,0.477343 -0.1393203,0.147409 -0.3783067,0.305361 -0.5306641,0.351661 -0.4400324,0.133722 -0.192364,0.301435 0.5928711,0.401171 0.8036269,0.102065 1.0533957,0.393683 0.6779297,0.790918 -0.2093878,0.221534 -0.197597,0.262759 0.1383789,0.473536 C 6.8582792,19.283549 7.3802662,19.031345 6.7641601,18.6 6.3680846,18.322702 6.64504,18.209605 7.2262695,18.41084 c 0.4631848,0.16036 0.5548107,0.151238 0.8290041,-0.08633 0.5619601,-0.486942 1.1727768,0.233265 0.6588868,0.776953 -0.3270722,0.34603 -0.2279368,0.763692 0.1955077,0.821386 0.1870856,0.0255 0.5758317,0.199615 0.8645507,0.387207 0.2887102,0.187592 0.6032842,0.341504 0.6982422,0.341504 0.09496,0 0.362815,0.190297 0.59541,0.422755 0.47194,0.471644 0.733946,0.531527 0.86709,0.199316 0.160087,-0.399449 0.09569,-0.60527 -0.335156,-1.075293 -0.343022,-0.374228 -0.900098,-1.368988 -0.900098,-1.607227 0,-0.14732 0.566526,-0.02241 0.883594,0.194238 0.198431,0.135599 0.519502,0.310444 0.713476,0.389747 0.207067,0.08463 0.421387,0.347198 0.519238,0.634765 0.153357,0.450654 0.213787,0.490039 0.754102,0.490039 l 0.587793,0 0.08887,1.05625 c 0.10695,1.270452 0.208809,1.527808 0.644922,1.632617 0.321256,0.0772 0.663965,0.574625 0.663965,0.963575 0,0.103392 -0.231134,0.356627 -0.51289,0.562402 -0.349818,0.255466 -0.500625,0.472645 -0.477344,0.685547 0.02904,0.265833 -0.03113,0.307262 -0.40752,0.279297 -0.242775,-0.01806 -0.663491,0.06704 -0.934375,0.18916 -0.320099,0.144293 -0.667365,0.190487 -0.992773,0.132031 -0.374449,-0.06728 -0.501465,-0.04115 -0.501465,0.105371 0,0.10773 -0.130775,0.309554 -0.290723,0.448145 -0.395549,0.342746 -0.232107,0.524097 0.374512,0.415136 0.377038,-0.06772 0.524127,-0.03762 0.589063,0.124415 0.138423,0.345375 -0.21243,0.839498 -0.538282,0.75791 -0.206252,-0.05161 -0.305441,0.01869 -0.369434,0.262793 -0.02266,0.08645 -0.06313,0.159678 -0.111718,0.222168 a 13,13 0 0 0 2.056641,0.608105 c -0.06489,-0.12465 -0.138644,-0.2372 -0.210743,-0.288184 -0.335015,-0.236893 -0.110906,-0.851449 0.350391,-0.962304 0.469584,-0.112839 0.395608,-0.417707 -0.115528,-0.476074 -0.447363,-0.05108 -0.924255,-0.504198 -0.774413,-0.736329 0.100469,-0.15565 0.528927,-0.13296 1.395214,0.07236 0.391194,0.09273 0.658945,-0.09328 1.565333,-1.085449 0.524828,-0.574496 0.928111,-0.81377 1.371093,-0.81377 0.168695,0 0.771127,-0.155225 1.339355,-0.345313 1.072828,-0.358876 1.491853,-0.345917 1.452344,0.0457 -0.0822,0.814885 0.442797,0.787981 1.297461,-0.06602 0.356207,-0.355937 0.681369,-0.613016 0.723633,-0.572559 0.163499,0.156545 -0.130551,0.919125 -0.473535,1.227637 -0.434669,0.390977 -0.456228,0.638018 -0.07363,0.834082 0.209619,0.107411 0.298534,0.325628 0.331348,0.815039 l 0.04443,0.667774 0.543359,0 c 0.190609,0 0.34835,0.02614 0.476074,0.0749 a 13,13 0 0 0 6.298144,-10.728807 c -0.198881,-0.424946 -0.184575,-0.681868 0,-0.971191 a 13,13 0 0 0 -0.0584,-0.728711 c -0.118545,-0.0054 -0.239219,-0.01086 -0.37832,-0.0051 -0.65492,0.02727 -1.216211,-0.230936 -1.216211,-0.559863 0,-0.06932 -0.232316,-0.355669 -0.516699,-0.636035 -0.322116,-0.317563 -0.487679,-0.597879 -0.439258,-0.743945 0.04391,-0.132478 -0.05093,-0.346217 -0.218359,-0.491309 -0.163,-0.141237 -0.297071,-0.368872 -0.297071,-0.505273 0,-0.21779 -0.138619,-0.245152 -1.140038,-0.220899 l -1.140039,0.02793 0.01904,1.123535 c 0.03384,1.968222 0.326916,2.479075 1.231445,2.149316 0.414022,-0.150932 1.431199,-0.03665 1.720214,0.192969 0.104592,0.08313 0.256087,0.384658 0.336427,0.670312 0.08035,0.285654 0.378275,0.780001 0.662695,1.098145 0.576255,0.644601 0.621003,0.896083 0.290722,1.652929 -0.288146,0.660298 -0.598405,0.584181 -0.537012,-0.132031 l 0.0457,-0.533203 -0.4875,0.09141 c -0.269728,0.05082 -0.607822,0.250342 -0.75918,0.446875 -0.215758,0.280165 -0.31688,0.321476 -0.478613,0.192968 -0.112682,-0.08955 -0.204395,-0.278681 -0.204395,-0.418945 0,-0.140255 -0.139255,-0.296425 -0.308496,-0.347852 -0.169241,-0.05143 -0.40123,-0.30706 -0.515429,-0.56875 -0.182676,-0.418597 -0.178134,-0.546597 0.03427,-1.05498 0.215517,-0.515722 0.217636,-0.600804 0.01904,-0.790918 -0.182121,-0.174374 -0.276002,-0.179998 -0.51543,-0.03682 -0.240714,0.14393 -0.353936,0.133306 -0.639843,-0.0584 -0.19109,-0.128154 -0.524027,-0.233593 -0.740137,-0.233593 -0.438756,0 -0.571289,-0.213472 -0.571289,-0.919141 0,-0.65183 -0.388826,-0.888727 -1.313965,-0.803613 -0.642475,0.05911 -0.784081,0.01679 -1.302539,-0.382129 -0.319973,-0.246212 -0.82563,-0.839323 -1.124806,-1.319056 -0.299186,-0.479732 -0.621074,-0.980944 -0.714746,-1.113379 -0.135438,-0.191499 -0.102512,-0.375295 0.1625,-0.897558 l 0.333886,-0.6563479 -0.705859,0.095215 c -1.256103,0.1698696 -1.510053,0.3326557 -0.969922,0.6220701 0.210367,0.1127211 0.219556,0.1706296 0.05713,0.3580075 -0.106395,0.12274 -0.156458,0.316824 -0.110449,0.431641 0.04605,0.114818 -0.01212,0.385007 -0.129493,0.600488 -0.117388,0.215481 -0.215709,0.517881 -0.219628,0.672852 -0.01231,0.484718 -0.84197,0.869837 -1.765918,0.818848 -1.400232,-0.07727 -1.513719,-0.05518 -2.010938,0.40625 -0.621515,0.57677 -0.701835,0.845715 -0.412598,1.38125 0.280648,0.519626 0.778045,0.727009 1.640235,0.684277 0.771044,-0.03825 0.858237,0.02981 0.681738,0.53955 -0.149833,0.432683 -0.65337,0.599512 -0.994043,0.328809 -0.262663,-0.208723 -1.168215,-0.04742 -1.445996,0.257715 -0.116455,0.127924 -0.289272,0.462957 -0.383398,0.743945 -0.162501,0.485056 -0.209867,0.514538 -0.938183,0.585254 -0.7265887,0.07056 -0.7963889,0.04728 -1.3190435,-0.43418 -0.5834121,-0.537438 -0.682227,-0.947693 -0.4011722,-1.655468 0.1244152,-0.31332 0.2172261,-0.364273 0.5497069,-0.303418 0.6591182,0.120637 0.9191408,-0.108514 0.9191408,-0.8125 0,-0.341384 -0.06634,-0.66051 -0.147266,-0.708398 -0.0809,-0.04789 -0.1472651,-0.228799 -0.1472651,-0.402442 0,-0.173643 -0.082911,-0.396919 -0.1840819,-0.495117 -0.1474382,-0.143115 -0.1261254,-0.219694 0.1091792,-0.385938 0.1614558,-0.114068 0.4268118,-0.190866 0.5890628,-0.171387 0.16226,0.01949 0.609721,-0.05058 0.995312,-0.154882 0.557144,-0.150699 0.720742,-0.264441 0.795997,-0.557325 0.142981,-0.556444 0.492013,-1.002929 0.78457,-1.002929 0.462305,0 0.471759,-1.0869213 0.02285,-2.6672851 C 13.011262,7.4663931 12.828865,7.3177401 12.50625,7.2376952 12.24525,7.1729422 11.960931,6.9948201 11.875293,6.8416015 11.789674,6.6883837 11.633448,6.5635742 11.527442,6.5635742 c -0.105998,0 -0.313094,-0.1268653 -0.459571,-0.2818359 -0.147438,-0.1559861 -0.452523,-0.2818359 -0.684277,-0.2818359 -0.5492009,0 -0.5583119,-0.3781983 -0.01396,-0.5776368 0.575441,-0.2108214 1.470699,0.065522 1.687207,0.5205079 0.293564,0.6168948 0.618893,0.3594661 0.723632,-0.5725586 0.129548,-1.1527905 0.526981,-1.4840821 1.781152,-1.4840821 l 0.901368,0 -0.394824,-0.3948242 C 14.944884,3.3681081 14.843079,3.2174612 14.772363,3.0698242 Z m 4.673145,0.4087891 c -0.02503,0.022892 -0.0497,0.041549 -0.0749,0.067285 -0.301424,0.307791 -0.442731,0.3516714 -0.908985,0.2805664 -0.81377,-0.1241 -0.709039,0.2035714 0.191699,0.5992187 0.487104,0.2139598 0.799967,0.4578401 0.906445,0.7045899 0.513714,1.1905169 0.867141,1.8313972 1.044825,1.8966793 0.359081,0.1319312 0.572856,-0.1330596 0.652539,-0.8099606 0.09144,-0.7766459 0.354424,-0.9412953 0.826465,-0.5166992 0.183185,0.1647734 0.438962,0.2996094 0.56875,0.2996094 0.403214,0 0.70205,0.1619978 0.70205,0.3808593 0,0.1153481 0.136055,0.3932168 0.303418,0.6182619 0.246068,0.3308669 0.41336,0.4100583 0.873438,0.4100583 0.564642,0 0.911279,0.1056413 1.618652,0.4963868 0.01098,0.00605 0.02199,0.00816 0.03301,0.013962 A 13,13 0 0 0 19.445508,3.4786133 Z M 3.002539,15.94414 A 13,13 0 0 0 3,16 13,13 0 0 0 3.2539063,18.497168 c 0.4709696,0.191881 0.601103,0.115838 0.65,-0.322461 0.02524,-0.226482 0.143687,-0.48372 0.2640624,-0.572558 C 4.3539266,17.464903 4.3204305,17.394704 3.9394531,17.134961 3.6928503,16.966828 3.4498042,16.672793 3.3999024,16.482422 3.3515468,16.297925 3.187957,16.096202 3.002539,15.94414 Z m 4.0916992,4.297364 c -0.1212627,-0.01275 -0.2678801,0.05264 -0.430371,0.208203 -0.3437896,0.329157 -0.2918775,0.990466 0.097754,1.251758 0.4462456,0.299278 0.6189987,0.212112 0.6753907,-0.340234 0.069624,-0.681509 -0.075985,-1.091735 -0.3427736,-1.119727 z m 2.2064452,1.965234 c -0.1327651,0.0044 -0.279019,0.09965 -0.4252931,0.29961 -0.155233,0.212194 -0.1978678,0.485832 -0.1383785,0.901367 0.073137,0.510675 0.041223,0.619723 -0.2259764,0.756641 -0.3432981,0.175914 -0.4167371,0.698433 -0.1358402,0.967382 0.2797788,0.267878 0.5462418,0.197891 0.6423826,-0.168848 0.1369271,-0.522344 0.901472,-0.583971 1.4244142,-0.114257 0.222545,0.199897 0.404981,0.301487 0.404981,0.224707 0,-0.07675 -0.232185,-0.355413 -0.51543,-0.618262 -0.4338372,-0.40261 -0.5141603,-0.574485 -0.5141603,-1.093066 0,-0.732298 -0.2246056,-1.164499 -0.5166993,-1.155274 z m -3.623242,1.67832 a 13,13 0 0 0 0.3008789,0.379591 C 5.8897044,24.127766 5.7885461,23.996058 5.6774414,23.885058 Z m 4.3811526,1.995704 c -0.066164,0.02269 -0.093945,0.105163 -0.093945,0.250098 0,0.146682 -0.093811,0.300748 -0.2082034,0.342773 -0.1518862,0.05577 -0.1871201,0.232055 -0.1282223,0.652539 0.011037,0.07878 0.013929,0.141852 0.017771,0.206934 a 13,13 0 0 0 0.5408211,0.278027 c -0.0089,-0.22485 0.03216,-0.489603 0.149804,-0.821387 0.199503,-0.562642 0.20663,-0.703901 0.04443,-0.802344 -0.152621,-0.09263 -0.256297,-0.129334 -0.322461,-0.10664 z"
     id="path4169"
     inkscape:connector-curvature="0" />
  <circle
     r="10"
     cx="286"
     cy="26"
     transform="matrix(1.3,0,0,1.3,-355.8,-17.8)"
     clip-path="url(#clipPath4186)"
     style="color:#000000;opacity:0;stroke-width:0.45455"
     id="path4240" />
  <circle
     r="10"
     cx="286"
     cy="26"
     transform="matrix(1.3,0,0,1.3,-355.8,-17.8)"
     clip-path="url(#clipPath4186)"
     style="color:#000000;opacity:0;stroke-width:0.90908998"
     id="path4242" />
  <path
     style="color:#000000;fill:#ffffff;fill-opacity:1;opacity:0.2"
     d="M 16 3 A 13 13 0 0 0 3 16 A 13 13 0 0 0 3.0214844 16.580078 A 13 13 0 0 1 16 4 A 13 13 0 0 1 28.978516 16.419922 A 13 13 0 0 0 29 16 A 13 13 0 0 0 16 3 z "
     id="circle4238" />
  <path
     style="color:#000000;fill:#000000;fill-opacity:1;opacity:0.3"
     d="M 28.978516 15.419922 A 13 13 0 0 1 16 28 A 13 13 0 0 1 3.0214844 15.580078 A 13 13 0 0 0 3 16 A 13 13 0 0 0 16 29 A 13 13 0 0 0 29 16 A 13 13 0 0 0 28.978516 15.419922 z "
     id="circle4243" />
</svg>
