<?xml version="1.0" encoding="UTF-8" standalone="no"?>
<!-- Created with Inkscape (http://www.inkscape.org/) -->

<svg
   xmlns:dc="http://purl.org/dc/elements/1.1/"
   xmlns:cc="http://creativecommons.org/ns#"
   xmlns:rdf="http://www.w3.org/1999/02/22-rdf-syntax-ns#"
   xmlns:svg="http://www.w3.org/2000/svg"
   xmlns="http://www.w3.org/2000/svg"
   xmlns:sodipodi="http://sodipodi.sourceforge.net/DTD/sodipodi-0.dtd"
   xmlns:inkscape="http://www.inkscape.org/namespaces/inkscape"
   width="32"
   height="32"
   viewBox="0 0 32 32.000001"
   id="svg4688"
   version="1.1"
   inkscape:version="0.91 r"
   sodipodi:docname="python.svg">
  <defs
     id="defs4690" />
  <sodipodi:namedview
     id="base"
     pagecolor="#ffffff"
     bordercolor="#666666"
     borderopacity="1.0"
     inkscape:pageopacity="0"
     inkscape:pageshadow="2"
     inkscape:zoom="1"
     inkscape:cx="9.2264838"
     inkscape:cy="16.164627"
     inkscape:document-units="px"
     inkscape:current-layer="layer1"
     showgrid="false"
     units="px"
     inkscape:window-width="1600"
     inkscape:window-height="846"
     inkscape:window-x="-5"
     inkscape:window-y="28"
     inkscape:window-maximized="1" />
  <metadata
     id="metadata4693">
    <rdf:RDF>
      <cc:Work
         rdf:about="">
        <dc:format>image/svg+xml</dc:format>
        <dc:type
           rdf:resource="http://purl.org/dc/dcmitype/StillImage" />
        <dc:title></dc:title>
      </cc:Work>
    </rdf:RDF>
  </metadata>
  <g
     inkscape:label="Layer 1"
     inkscape:groupmode="layer"
     id="layer1"
     transform="translate(0,-1020.3622)">
    <path
       style="color:#000000;display:inline;overflow:visible;visibility:visible;fill:#ffc851;fill-opacity:1;fill-rule:nonzero;stroke:none;stroke-width:2;marker:none;enable-background:accumulate"
       d="M 22 10 L 22 13 C 22 14.662 20.662 16 19 16 L 13 16 C 13 16 10 16 10 19 L 10 22 L 10 24.25 C 10 26.3275 12.3415 28 15.25 28 L 16.75 28 C 19.6585 28 22 26.3275 22 24.25 L 22 22 L 24.25 22 C 26.3275 22 28 19.6585 28 16.75 L 28 15.25 C 28 12.3415 26.3275 10 24.25 10 L 22 10 z M 19 24 A 1 1 0 0 1 20 25 A 1 1 0 0 1 19 26 A 1 1 0 0 1 18 25 A 1 1 0 0 1 19 24 z "
       transform="translate(0,1020.3622)"
       id="path4204-3" />
    <path
       style="color:#000000;display:inline;overflow:visible;visibility:visible;fill:#4795d1;fill-opacity:1;fill-rule:nonzero;stroke:none;stroke-width:2;marker:none;enable-background:accumulate"
       d="M 15.25 4 C 12.3415 4 10 5.6725 10 7.75 L 10 10 L 7.75 10 C 5.6724998 10 4 12.3415 4 15.25 L 4 16.75 C 4 19.6585 5.6724998 22 7.75 22 L 10 22 L 10 19 C 10 17.338 11.338 16 13 16 L 19 16 C 19 16 22 16 22 13 L 22 10 L 22 7.75 C 22 5.6725 19.6585 4 16.75 4 L 15.25 4 z M 13 6 A 1 1 0 0 1 14 7 A 1 1 0 0 1 13 8 A 1 1 0 0 1 12 7 A 1 1 0 0 1 13 6 z "
       transform="translate(0,1020.3622)"
       id="path4202-7" />
    <path
       style="color:#000000;display:inline;overflow:visible;visibility:visible;opacity:0.1;fill:#ffffff;fill-opacity:1;fill-rule:nonzero;stroke:none;stroke-width:2;marker:none;enable-background:accumulate"
       d="M 15.25,4 C 12.3415,4 10,5.6725 10,7.75 l 0,1 C 10,6.6725 12.3415,5 15.25,5 l 1.5,0 C 19.6585,5 22,6.6725 22,8.75 l 0,-1 C 22,5.6725 19.6585,4 16.75,4 Z m -7.5,6 C 5.6724998,10 4,12.3415 4,15.25 l 0,1 C 4,13.3415 5.6724998,11 7.75,11 l 2.25,0 0,-1 z"
       transform="translate(0,1020.3622)"
       id="path5407"
       inkscape:connector-curvature="0"
       sodipodi:nodetypes="sscsscssssscsccs" />
    <path
       style="color:#000000;display:inline;overflow:visible;visibility:visible;opacity:0.1;fill:#ffffff;fill-opacity:1;fill-rule:nonzero;stroke:none;stroke-width:2;marker:none;enable-background:accumulate"
       d="m 22,10 0,1 2.25,0 c 2.0775,0 3.75,2.3415 3.75,5.25 l 0,-1 C 28,12.3415 26.3275,10 24.25,10 Z m 0,3 c 0,1.662 -1.338,3 -3,3 l -6,0 c 0,0 -3,0 -3,3 l 0,1 c 0,-3 3,-3 3,-3 l 6,0 c 1.662,0 3,-1.338 3,-3 z"
       transform="translate(0,1020.3622)"
       id="path5412"
       inkscape:connector-curvature="0"
       sodipodi:nodetypes="ccscssccscsccssc" />
    <path
       style="color:#000000;display:inline;overflow:visible;visibility:visible;fill:#000000;fill-opacity:1;fill-rule:nonzero;stroke:none;stroke-width:2;marker:none;enable-background:accumulate;opacity:0.3"
       d="m 22,12 c 0,3 -3,3 -3,3 l -6,0 c -1.662,0 -3,1.338 -3,3 l 0,1 c 0,-1.662 1.338,-3 3,-3 l 6,0 c 0,0 3,0 3,-3 z m -18,3.75 0,1 C 4,19.6585 5.6724998,22 7.75,22 L 10,22 10,21 7.75,21 C 5.6724998,21 4,18.6585 4,15.75 Z"
       transform="translate(0,1020.3622)"
       id="path5417"
       inkscape:connector-curvature="0"
       sodipodi:nodetypes="ccsscscsccssccsc" />
    <path
       style="color:#000000;display:inline;overflow:visible;visibility:visible;fill:#000000;fill-opacity:1;fill-rule:nonzero;stroke:none;stroke-width:2;marker:none;enable-background:accumulate;opacity:0.3"
       d="M 28,15.75 C 28,18.6585 26.3275,21 24.25,21 l -2.25,0 0,1 2.25,0 C 26.3275,22 28,19.6585 28,16.75 Z m -18,7.5 0,1 c 0,2.0775 2.3415,3.75 5.25,3.75 l 1.5,0 C 19.6585,28 22,26.3275 22,24.25 l 0,-1 C 22,25.3275 19.6585,27 16.75,27 l -1.5,0 C 12.3415,27 10,25.3275 10,23.25 Z"
       transform="translate(0,1020.3622)"
       id="path5422"
       inkscape:connector-curvature="0"
       sodipodi:nodetypes="csccssccsssscssc" />
  </g>
</svg>
