<?xml version="1.0" encoding="UTF-8" standalone="no"?>
<!-- Created with Inkscape (http://www.inkscape.org/) -->

<svg
   xmlns:dc="http://purl.org/dc/elements/1.1/"
   xmlns:cc="http://creativecommons.org/ns#"
   xmlns:rdf="http://www.w3.org/1999/02/22-rdf-syntax-ns#"
   xmlns:svg="http://www.w3.org/2000/svg"
   xmlns="http://www.w3.org/2000/svg"
   xmlns:sodipodi="http://sodipodi.sourceforge.net/DTD/sodipodi-0.dtd"
   xmlns:inkscape="http://www.inkscape.org/namespaces/inkscape"
   id="svg2817"
   height="32"
   width="32"
   version="1.0"
   inkscape:version="0.91 r"
   sodipodi:docname="redshift.svg">
  <sodipodi:namedview
     pagecolor="#ffffff"
     bordercolor="#666666"
     borderopacity="1"
     objecttolerance="10"
     gridtolerance="10"
     guidetolerance="10"
     inkscape:pageopacity="0"
     inkscape:pageshadow="2"
     inkscape:window-width="1600"
     inkscape:window-height="842"
     id="namedview15"
     showgrid="false"
     inkscape:zoom="1"
     inkscape:cx="10.315039"
     inkscape:cy="13.218427"
     inkscape:window-x="-4"
     inkscape:window-y="32"
     inkscape:window-maximized="1"
     inkscape:current-layer="svg2817">
    <inkscape:grid
       type="xygrid"
       id="grid4149" />
  </sodipodi:namedview>
  <metadata
     id="metadata57">
    <rdf:RDF>
      <cc:Work
         rdf:about="">
        <dc:format>image/svg+xml</dc:format>
        <dc:type
           rdf:resource="http://purl.org/dc/dcmitype/StillImage" />
        <dc:title></dc:title>
      </cc:Work>
    </rdf:RDF>
  </metadata>
  <defs
     id="defs2819" />
  <path
     inkscape:connector-curvature="0"
     style="color:#000000;fill:#e74c3c"
     d="M 15.50005,3 C 10.805657,3 7.0001004,6.813299 7.0001004,11.517241 6.9826894,14.067942 9.2351451,16.297299 10.269312,18.724139 10.730218,19.80573 11.576996,22 11.576996,22 l 7.846108,0 c 0,0 0.846778,-2.19427 1.307684,-3.275861 C 21.764955,16.297299 23.954858,14.039672 24,11.517241 24,6.813299 20.194443,3 15.50005,3 Z"
     id="path4161" />
  <path
     style="opacity:0.8;fill:none;fill-rule:evenodd;stroke:#ffffff;stroke-width:0.5;stroke-linecap:butt;stroke-linejoin:miter;stroke-miterlimit:4;stroke-dasharray:none;stroke-opacity:1"
     d="m 12.68671,21.977831 c 0,0 0.311098,-3.494481 0,-5.2 -0.332253,-1.821496 -1.961527,-5.2 -1.961527,-5.2"
     id="path4183"
     inkscape:connector-curvature="0"
     sodipodi:nodetypes="csc" />
  <path
     sodipodi:nodetypes="csc"
     inkscape:connector-curvature="0"
     id="path4185"
     d="m 18.389005,21.977831 c 0,0 -0.311097,-3.494481 0,-5.2 0.332252,-1.821496 1.961527,-5.2 1.961527,-5.2"
     style="opacity:0.8;fill:none;fill-rule:evenodd;stroke:#ffffff;stroke-width:0.5;stroke-linecap:butt;stroke-linejoin:miter;stroke-miterlimit:4;stroke-dasharray:none;stroke-opacity:1" />
  <path
     style="opacity:1;fill:#434343;fill-opacity:1;stroke:none;stroke-width:3;stroke-linecap:round;stroke-linejoin:round;stroke-miterlimit:4;stroke-dasharray:none;stroke-opacity:1"
     d="M 19.423104,22 18.11542,27.7 C 17.954332,28.40216 17.532192,29 16.807734,29 l -2.615368,0 c -0.724458,0 -1.155891,-0.595785 -1.307685,-1.3 L 11.576996,22 Z"
     id="rect4143"
     inkscape:connector-curvature="0"
     sodipodi:nodetypes="csssscc" />
  <path
     style="opacity:0.8;fill:none;stroke:#ffffff;stroke-width:0.50018388;stroke-linecap:round;stroke-linejoin:round;stroke-miterlimit:4;stroke-dasharray:none"
     inkscape:connector-curvature="0"
     d="m 12.251122,11.989179 0.812141,-2.7391848 0.54143,4.5000878 0.541426,-4.1087761 0.229297,3.6137651 0.582847,-3.026797 0.270712,2.152215 0.541426,-2.7391831 0.270717,3.5218091 0.812139,-3.9131208 0.812141,4.3044318 0.270717,-3.130496 0.812139,1.565249"
     id="path5061" />
  <path
     style="opacity:0.2;fill:#ffffff;fill-opacity:1;stroke:none;stroke-width:1;stroke-linecap:round;stroke-linejoin:round;stroke-miterlimit:4;stroke-dasharray:none;stroke-opacity:1"
     d="M 11.833984 23 L 12.056641 24 L 18.943359 24 L 19.166016 23 L 11.833984 23 z M 12.28125 25 L 12.503906 26 L 18.496094 26 L 18.71875 25 L 12.28125 25 z M 12.728516 27 L 12.884766 27.699219 C 12.907508 27.804728 12.949033 27.900998 12.984375 28 L 18.013672 28 C 18.049597 27.900689 18.091587 27.805006 18.115234 27.699219 L 18.271484 27 L 12.728516 27 z "
     id="rect4270" />
  <path
     style="color:#000000;fill:#ffffff;fill-opacity:1;opacity:0.2"
     d="M 15.5 3 C 10.805607 3 7 6.8136361 7 11.517578 C 6.9988711 11.682965 7.0083844 11.846939 7.0253906 12.009766 C 7.2888465 7.5434673 10.976633 4 15.5 4 C 19.956248 4 23.605447 7.4381542 23.964844 11.810547 C 23.973017 11.712382 23.998229 11.616532 24 11.517578 C 24 6.8136361 20.194393 3 15.5 3 z "
     id="path4280" />
  <path
     style="color:#000000;fill:#000000;fill-opacity:1;opacity:0.3"
     d="M 23.964844 10.810547 C 23.764679 13.214705 21.724066 15.392973 20.730469 17.724609 C 20.269563 18.8062 19.423828 21 19.423828 21 L 11.576172 21 C 11.576172 21 10.730437 18.8062 10.269531 17.724609 C 9.3024196 15.455125 7.2706642 13.35815 7.0253906 11.009766 C 7.0154295 11.178634 7 11.346204 7 11.517578 C 6.982589 14.068279 9.2353644 16.297769 10.269531 18.724609 C 10.730437 19.8062 11.576172 22 11.576172 22 L 19.423828 22 C 19.423828 22 20.269563 19.8062 20.730469 18.724609 C 21.764636 16.297769 23.954858 14.040009 24 11.517578 C 24 11.278949 23.98405 11.044211 23.964844 10.810547 z "
     id="path4285" />
  <path
     style="opacity:0.3;fill:#000000;fill-opacity:1;stroke:none;stroke-width:3;stroke-linecap:round;stroke-linejoin:round;stroke-miterlimit:4;stroke-dasharray:none;stroke-opacity:1"
     d="M 11.576172 22 L 12.884766 27.699219 C 13.03656 28.403434 13.466948 29 14.191406 29 L 16.808594 29 C 17.533052 29 17.954146 28.401379 18.115234 27.699219 L 19.423828 22 L 19.193359 22 L 18.115234 26.699219 C 17.954146 27.401379 17.533052 28 16.808594 28 L 14.191406 28 C 13.466948 28 13.03656 27.403434 12.884766 26.699219 L 11.806641 22 L 11.576172 22 z "
     id="path4290" />
</svg>
