<?xml version="1.0" encoding="UTF-8" standalone="no"?>
<!-- Created with Inkscape (http://www.inkscape.org/) -->

<svg
   xmlns:dc="http://purl.org/dc/elements/1.1/"
   xmlns:cc="http://creativecommons.org/ns#"
   xmlns:rdf="http://www.w3.org/1999/02/22-rdf-syntax-ns#"
   xmlns:svg="http://www.w3.org/2000/svg"
   xmlns="http://www.w3.org/2000/svg"
   xmlns:sodipodi="http://sodipodi.sourceforge.net/DTD/sodipodi-0.dtd"
   xmlns:inkscape="http://www.inkscape.org/namespaces/inkscape"
   width="32"
   height="32"
   viewBox="0 0 32 32.000001"
   id="svg4357"
   version="1.1"
   inkscape:version="0.91 r"
   sodipodi:docname="ubiquity-kde.svg">
  <defs
     id="defs4359" />
  <sodipodi:namedview
     id="base"
     pagecolor="#ffffff"
     bordercolor="#666666"
     borderopacity="1.0"
     inkscape:pageopacity="0.0"
     inkscape:pageshadow="2"
     inkscape:zoom="13.12"
     inkscape:cx="25.471037"
     inkscape:cy="11.064024"
     inkscape:document-units="px"
     inkscape:current-layer="layer1"
     showgrid="false"
     units="px"
     inkscape:window-width="1600"
     inkscape:window-height="846"
     inkscape:window-x="-5"
     inkscape:window-y="28"
     inkscape:window-maximized="1" />
  <metadata
     id="metadata4362">
    <rdf:RDF>
      <cc:Work
         rdf:about="">
        <dc:format>image/svg+xml</dc:format>
        <dc:type
           rdf:resource="http://purl.org/dc/dcmitype/StillImage" />
        <dc:title />
      </cc:Work>
    </rdf:RDF>
  </metadata>
  <g
     inkscape:label="Layer 1"
     inkscape:groupmode="layer"
     id="layer1"
     transform="translate(0,-1020.3622)">
    <path
       id="path4416-2"
       d="m 16,1028.8622 a 7.5,7.5 0 0 0 -7.5,7.5 7.5,7.5 0 0 0 7.5,7.5 7.5,7.5 0 0 0 7.5,-7.5 7.5,7.5 0 0 0 -7.5,-7.5 z m 0,4.5 c 1.6569,0 3,1.3431 3,3 0,1.6569 -1.3431,3 -3,3 -1.6569,0 -3,-1.3431 -3,-3 0,-1.6569 1.3431,-3 3,-3 z"
       inkscape:connector-curvature="0"
       style="opacity:0.3;fill:#000000;fill-opacity:1" />
    <path
       id="rect4203-6-2"
       d="m 16,1021.3622 c -8.31,0 -15,6.69 -15,15 0,8.31 6.69,15 15,15 8.31,0 15,-6.69 15,-15 0,-8.31 -6.69,-15 -15,-15 z m 0,9 a 6,6 0 0 1 6,6 6,6 0 0 1 -6,6 6,6 0 0 1 -6,-6 6,6 0 0 1 6,-6 z"
       inkscape:connector-curvature="0"
       style="fill:#d2d2d2;fill-opacity:1" />
    <path
       id="path4432"
       d="m 16,1021.3622 c 8.3024,0 14.986,6.69 14.986,15 0,0.1259 -0.006,0.2499 -0.0087,0.375 -0.198,-8.1346 -6.8,-14.625 -14.977,-14.625 -8.1766,0 -14.779,6.4904 -14.978,14.625 -0.0025,-0.125 -0.0083,-0.249 -0.0083,-0.375 0,-8.31 6.6839,-15 14.986,-15 z m 2.959,15.375 c 0.01566,0.1241 0.03806,0.2466 0.03806,0.375 0,1.6569 -1.3419,3 -2.9973,3 -1.6553,0 -2.9973,-1.3431 -2.9973,-3 0,-0.1284 0.0224,-0.2509 0.03806,-0.375 0.18614,1.4779 1.4321,2.625 2.9592,2.625 1.5271,0 2.7731,-1.1471 2.9592,-2.625 z"
       inkscape:connector-curvature="0"
       style="opacity:0.4;fill:#ffffff" />
    <path
       id="path4504"
       d="m 1.0254,1035.8622 c -0.0055,0.168 -0.0254,0.331 -0.0254,0.5 0,8.31 6.69,15 15,15 8.31,0 15,-6.69 15,-15 0,-0.169 -0.02,-0.332 -0.025,-0.5 -0.265,8.074 -6.834,14.5 -14.975,14.5 -8.1411,0 -14.71,-6.426 -14.975,-14.5 z"
       inkscape:connector-curvature="0"
       style="opacity:0.3" />
    <circle
       id="path4058-2"
       style="fill:#42a1cd;fill-opacity:1;enable-background:new"
       cy="1043.3622"
       cx="22"
       r="8" />
    <path
       style="opacity:1;fill:#ffffff;fill-opacity:1;fill-rule:nonzero;stroke:none"
       sodipodi:nodetypes="cccccccc"
       id="path5972"
       d="m 21.982787,1047.3622 -2.982787,-4 2,0 0,-4 2,0 0,4 2,0 z"
       inkscape:connector-curvature="0" />
  </g>
</svg>
