<?xml version="1.0" encoding="UTF-8" standalone="no"?>
<!-- Created with Inkscape (http://www.inkscape.org/) -->

<svg
   xmlns:dc="http://purl.org/dc/elements/1.1/"
   xmlns:cc="http://creativecommons.org/ns#"
   xmlns:rdf="http://www.w3.org/1999/02/22-rdf-syntax-ns#"
   xmlns:svg="http://www.w3.org/2000/svg"
   xmlns="http://www.w3.org/2000/svg"
   xmlns:sodipodi="http://sodipodi.sourceforge.net/DTD/sodipodi-0.dtd"
   xmlns:inkscape="http://www.inkscape.org/namespaces/inkscape"
   width="32"
   height="32"
   viewBox="0 0 32 32.000001"
   id="svg4357"
   version="1.1"
   inkscape:version="0.91 r"
   sodipodi:docname="utilities-tweak-tool.svg">
  <defs
     id="defs4359" />
  <sodipodi:namedview
     id="base"
     pagecolor="#ffffff"
     bordercolor="#666666"
     borderopacity="1.0"
     inkscape:pageopacity="0.0"
     inkscape:pageshadow="2"
     inkscape:zoom="8.6599296"
     inkscape:cx="-24.528897"
     inkscape:cy="25.01876"
     inkscape:document-units="px"
     inkscape:current-layer="layer1"
     showgrid="false"
     units="px"
     inkscape:window-width="1600"
     inkscape:window-height="846"
     inkscape:window-x="-5"
     inkscape:window-y="28"
     inkscape:window-maximized="1" />
  <metadata
     id="metadata4362">
    <rdf:RDF>
      <cc:Work
         rdf:about="">
        <dc:format>image/svg+xml</dc:format>
        <dc:type
           rdf:resource="http://purl.org/dc/dcmitype/StillImage" />
        <dc:title />
      </cc:Work>
    </rdf:RDF>
  </metadata>
  <g
     inkscape:label="Layer 1"
     inkscape:groupmode="layer"
     id="layer1"
     transform="translate(0,-1020.3622)">
    <rect
       id="rect4255"
       ry="1.5"
       rx="1.5"
       transform="matrix(0,-1,-1,0,0,0)"
       height="28"
       width="28"
       y="-30"
       x="-1050.3622"
       style="fill:#d2d2d2;fill-opacity:1" />
    <path
       id="rect4632"
       d="m 3.5,1022.3622 c -0.831,0 -1.5,0.669 -1.5,1.5 l 0,1 c 0,-0.831 0.669,-1.5 1.5,-1.5 l 25,0 c 0.831,0 1.5,0.669 1.5,1.5 l 0,-1 c 0,-0.831 -0.669,-1.5 -1.5,-1.5 l -25,0 z"
       inkscape:connector-curvature="0"
       style="opacity:0.2;fill:#ffffff" />
    <rect
       style="opacity:0.3"
       x="-26"
       y="1026.3622"
       width="20"
       height="8"
       transform="scale(-1,1)"
       rx="3.5713999"
       ry="4"
       id="rect4522" />
    <rect
       x="7"
       y="1027.3622"
       width="6"
       height="6"
       ry="2.9568999"
       style="color:#000000;fill:#ffffff;enable-background:new"
       id="rect4526" />
    <rect
       id="rect4544"
       rx="3.5713999"
       ry="4"
       height="8"
       width="20"
       y="1038.3622"
       x="6"
       style="fill:#3a596e;fill-opacity:1;opacity:0.5" />
    <rect
       id="rect4546"
       style="color:#000000;fill:#ffffff;enable-background:new"
       transform="scale(-1,1)"
       ry="2.9568999"
       height="6"
       width="6"
       y="1039.3622"
       x="-25" />
    <path
       id="rect4379"
       d="m 2,1047.8622 0,1 c 0,0.831 0.669,1.5 1.5,1.5 l 25,0 c 0.831,0 1.5,-0.669 1.5,-1.5 l 0,-1 c 0,0.831 -0.669,1.5 -1.5,1.5 l -25,0 c -0.831,0 -1.5,-0.669 -1.5,-1.5 z"
       inkscape:connector-curvature="0"
       style="opacity:0.3" />
  </g>
</svg>
