<?xml version="1.0" encoding="UTF-8" standalone="no"?>
<svg
   xmlns:dc="http://purl.org/dc/elements/1.1/"
   xmlns:cc="http://creativecommons.org/ns#"
   xmlns:rdf="http://www.w3.org/1999/02/22-rdf-syntax-ns#"
   xmlns:svg="http://www.w3.org/2000/svg"
   xmlns="http://www.w3.org/2000/svg"
   xmlns:sodipodi="http://sodipodi.sourceforge.net/DTD/sodipodi-0.dtd"
   xmlns:inkscape="http://www.inkscape.org/namespaces/inkscape"
   width="48"
   height="48"
   viewBox="0 0 48 48"
   version="1.1"
   preserveAspectRatio="xMidYMid"
   id="svg2"
   inkscape:version="0.91 r13725"
   sodipodi:docname="org.kde.plasma.gmailfeed.svg">
  <metadata
     id="metadata33">
    <rdf:RDF>
      <cc:Work
         rdf:about="">
        <dc:format>image/svg+xml</dc:format>
        <dc:type
           rdf:resource="http://purl.org/dc/dcmitype/StillImage" />
        <dc:title></dc:title>
      </cc:Work>
    </rdf:RDF>
  </metadata>
  <sodipodi:namedview
     pagecolor="#ffffff"
     bordercolor="#666666"
     borderopacity="1"
     objecttolerance="10"
     gridtolerance="10"
     guidetolerance="10"
     inkscape:pageopacity="0"
     inkscape:pageshadow="2"
     inkscape:window-width="1600"
     inkscape:window-height="848"
     id="namedview31"
     showgrid="false"
     inkscape:zoom="1"
     inkscape:cx="27.451454"
     inkscape:cy="18.375123"
     inkscape:window-x="0"
     inkscape:window-y="29"
     inkscape:window-maximized="1"
     inkscape:current-layer="svg2" />
  <defs
     id="defs4">
    <linearGradient
       x1="1.3210427"
       y1="127.76156"
       x2="211.76385"
       y2="127.76156"
       id="linearGradient-1"
       gradientTransform="matrix(0.18885351,0,0,0.12862752,3.966219,8.9999997)"
       gradientUnits="userSpaceOnUse">
      <stop
         stop-color="#000000"
         stop-opacity="0.1"
         offset="0%"
         id="stop7" />
      <stop
         stop-color="#000000"
         stop-opacity="0.2"
         offset="100%"
         id="stop9" />
    </linearGradient>
  </defs>
  <path
     style="fill:#e3e3e3"
     inkscape:connector-curvature="0"
     id="path13"
     d="M 41.5,39 6.5000001,39 C 5.1428573,39 4.0000002,37.903302 4.0000002,36.523584 l 0,-25.047169 C 4.0000002,10.132075 5.107143,9 6.5000001,9 L 41.5,9 c 1.357142,0 2.5,1.096698 2.5,2.476415 l 0,25.047169 C 44,37.903302 42.892857,39 41.5,39 l 0,0 z" />
  <path
     style="opacity:0.1;fill:#231f20"
     inkscape:connector-curvature="0"
     id="path15"
     d="M 8.9977902,38.964831 23.93983,27.112545 24.046813,26.479484 8.6411783,15.541618 8.6055171,38.43728 8.9977902,38.964831 Z" />
  <path
     inkscape:connector-curvature="0"
     style="fill:#d54b3d"
     d="m 6.5019531,9.9492188 c -1.2205505,0 -2.2205447,0.1905532 -2.4472656,1.1640622 -0.031622,0.13578 -0.048828,0.287187 -0.048828,0.455078 l 0,24.935547 c 0,1.37163 1.1053073,2.460938 2.4960937,2.460938 l 2.4960938,0 0,-27.396485 c 0,-0.167057 -0.017836,-0.319481 -0.050781,-0.455078 C 8.7205412,10.139778 7.7225006,9.9492187 6.5019531,9.9492188 Z"
     id="path17" />
  <path
     inkscape:connector-curvature="0"
     style="fill:#d54b3d"
     d="m 41.449219,9.9492188 c -1.390786,0 -2.496094,0.1752452 -2.496094,1.5468752 l 0,27.46875 0,0.03516 2.496094,0 c 1.390787,0 2.496093,-1.089308 2.496093,-2.460938 l 0,-25.042968 c 0,-1.37163 -1.105306,-1.5468752 -2.496093,-1.5468752 z"
     id="path21" />
  <path
     inkscape:connector-curvature="0"
     style="fill:url(#linearGradient-1)"
     id="path25"
     d="m 30.751117,38.964831 -26.53696,-26.374724 1.39582,0.559951 18.472496,13.118407 19.863285,-14.364702 0,24.634338 c 0,1.33646 -1.105497,2.42673 -2.496284,2.42673 l -10.698357,0 z" />
  <path
     inkscape:connector-curvature="0"
     style="fill:#d54b3d"
     d="M 41.449219,9 C 40.949962,9 40.416215,9.1405014 39.988281,9.4570312 L 23.939453,21.027344 8,9.5976562 C 7.5720657,9.2811263 7.036871,9.140625 6.5019531,9.140625 c -0.7845462,0 -1.5691027,0.3513018 -2.0683593,1.019531 -0.5884097,0.817703 -0.5550296,1.89311 -0.035156,2.720703 0.1727339,0.275865 0.399407,0.524335 0.6757813,0.726563 l 18.8652339,13.541016 11.056641,-7.951172 7.951172,-5.695313 c 1.141158,-0.808909 1.390518,-2.356995 0.570312,-3.447265 -0.235345,-0.3229262 -0.53522,-0.5642884 -0.865234,-0.7382818 -0.06937,-0.038581 -0.14063,-0.070226 -0.212891,-0.1015624 -0.06687,-0.027583 -0.134413,-0.050609 -0.203125,-0.072266 -0.117606,-0.038976 -0.235067,-0.072819 -0.357422,-0.09375 -6.37e-4,-1.089e-4 -0.0013,1.085e-4 -0.002,0 -0.0019,-3.082e-4 -0.0039,3.037e-4 -0.0059,0 C 41.731627,9.0254132 41.592359,9 41.449219,9 Z"
     id="path27" />
  <path
     inkscape:connector-curvature="0"
     style="opacity:0.3;fill:#000000;fill-opacity:1"
     d="m 4,35.523438 0,1 C 4,37.903155 5.1428572,39 6.5,39 l 35,0 c 1.392857,0 2.5,-1.096845 2.5,-2.476562 l 0,-1 C 44,36.903155 42.892857,38 41.5,38 l -35,0 C 5.1428572,38 4,36.903155 4,35.523438 Z"
     id="path4175" />
  <path
     inkscape:connector-curvature="0"
     style="opacity:0.1;fill:#ffffff;fill-opacity:1"
     d="M 6.5,9 C 5.1071429,9 4,10.132223 4,11.476562 l 0,1 C 4,11.132223 5.1071429,10 6.5,10 l 35,0 c 1.357142,0 2.5,1.096846 2.5,2.476562 l 0,-1 C 44,10.096846 42.857142,9 41.5,9 l -35,0 z"
     id="path4180" />
</svg>
