<?xml version="1.0" encoding="UTF-8" standalone="no"?>
<!-- Created with Inkscape (http://www.inkscape.org/) -->

<svg
   xmlns:dc="http://purl.org/dc/elements/1.1/"
   xmlns:cc="http://creativecommons.org/ns#"
   xmlns:rdf="http://www.w3.org/1999/02/22-rdf-syntax-ns#"
   xmlns:svg="http://www.w3.org/2000/svg"
   xmlns="http://www.w3.org/2000/svg"
   xmlns:sodipodi="http://sodipodi.sourceforge.net/DTD/sodipodi-0.dtd"
   xmlns:inkscape="http://www.inkscape.org/namespaces/inkscape"
   id="svg2817"
   height="32"
   width="32"
   version="1.0"
   inkscape:version="0.91 r13725"
   sodipodi:docname="braindump.svg">
  <defs
     id="defs15" />
  <sodipodi:namedview
     pagecolor="#ffffff"
     bordercolor="#666666"
     borderopacity="1"
     objecttolerance="10"
     gridtolerance="10"
     guidetolerance="10"
     inkscape:pageopacity="0"
     inkscape:pageshadow="2"
     inkscape:window-width="1600"
     inkscape:window-height="847"
     id="namedview13"
     showgrid="false"
     inkscape:zoom="1"
     inkscape:cx="16"
     inkscape:cy="16"
     inkscape:window-x="0"
     inkscape:window-y="30"
     inkscape:window-maximized="1"
     inkscape:current-layer="svg2817" />
  <metadata
     id="metadata57">
    <rdf:RDF>
      <cc:Work
         rdf:about="">
        <dc:format>image/svg+xml</dc:format>
        <dc:type
           rdf:resource="http://purl.org/dc/dcmitype/StillImage" />
        <dc:title></dc:title>
      </cc:Work>
    </rdf:RDF>
  </metadata>
  <path
     inkscape:connector-curvature="0"
     id="path4161"
     style="color:#000000;fill:#f5ab35;fill-opacity:1"
     d="m 15.5,3 c -4.694,0 -8.4999,3.8133 -8.4999,8.517 -0.0174,2.551 2.235,4.78 3.2689,7.207 C 10.73,19.806 11.577,22 11.577,22 l 7.8461,0 c 0,0 0.84678,-2.1943 1.3077,-3.2759 1.034,-2.427 3.224,-4.684 3.269,-7.207 0,-4.7037 -3.806,-8.517 -8.5,-8.517 z" />
  <path
     style="fill:#434343"
     inkscape:connector-curvature="0"
     id="rect4143"
     d="m 19.423,22 -1.308,5.7 C 17.954,28.402 17.532,29 16.808,29 l -2.6154,0 c -0.72446,0 -1.1559,-0.59578 -1.3077,-1.3 L 11.5769,22 Z" />
  <path
     style="opacity:0.2;fill:#ffffff"
     inkscape:connector-curvature="0"
     id="rect4270"
     d="m 11.834,23 0.223,1 6.886,0 0.223,-1 -7.332,0 z m 0.447,2 0.223,1 5.992,0 0.223,-1 -6.438,0 z m 0.448,2 0.156,0.699 c 0.023,0.106 0.064,0.202 0.099,0.301 l 5.03,0 c 0.036,-0.099 0.078,-0.195 0.101,-0.301 L 18.271,27 12.729,27 Z" />
  <path
     inkscape:connector-curvature="0"
     id="path4280"
     style="color:#000000;opacity:0.2;fill:#ffffff"
     d="M 15.5,3 C 10.806,3 7,6.8136 7,11.518 6.9989,11.683 7.0084,11.847 7.0254,12.01 7.2888,7.5435 10.977,4 15.5,4 19.956,4 23.605,7.4382 23.965,11.811 23.973,11.712 23.998,11.617 24,11.518 24,6.8136 20.194,3 15.5,3 Z" />
  <path
     inkscape:connector-curvature="0"
     id="path4285"
     style="color:#000000;opacity:0.3"
     d="m 23.965,10.811 c -0.2,2.404 -2.241,4.582 -3.235,6.914 C 20.27,18.806 19.424,21 19.424,21 l -7.848,0 c 0,0 -0.846,-2.194 -1.306,-3.275 C 9.3024,15.455 7.2707,13.358 7.0254,11.01 7.0154,11.179 7,11.346 7,11.518 c -0.0174,2.55 2.2354,4.78 3.27,7.207 0.46,1.081 1.306,3.275 1.306,3.275 l 7.848,0 c 0,0 0.846,-2.194 1.306,-3.275 1.035,-2.427 3.225,-4.685 3.27,-7.207 0,-0.239 -0.016,-0.474 -0.035,-0.707 z" />
  <path
     style="opacity:0.3"
     inkscape:connector-curvature="0"
     id="path4290"
     d="m 11.576,22 1.309,5.699 C 13.037,28.403 13.467,29 14.191,29 l 2.618,0 c 0.724,0 1.145,-0.599 1.306,-1.301 L 19.424,22 19.193,22 18.115,26.699 C 17.954,27.401 17.533,28 16.809,28 l -2.618,0 c -0.724,0 -1.154,-0.597 -1.306,-1.301 L 11.807,22 11.576,22 Z" />
  <path
     inkscape:connector-curvature="0"
     style="display:inline;opacity:0.2;fill:#000000;fill-opacity:1;fill-rule:evenodd;stroke:none;stroke-width:1px;stroke-linecap:butt;stroke-linejoin:miter;stroke-opacity:1"
     d="m 17,6 -5,8 3,0 0,6 5,-8 -3,0 0,-6 z"
     id="path4262" />
  <path
     id="path4324-1"
     d="m 17,5 -5,8 3,0 0,6 5,-8 -3,0 0,-6 z"
     style="display:inline;fill:#ffffff;fill-opacity:1;fill-rule:evenodd;stroke:none;stroke-width:1px;stroke-linecap:butt;stroke-linejoin:miter;stroke-opacity:1"
     inkscape:connector-curvature="0" />
</svg>
