<?xml version="1.0" encoding="UTF-8" standalone="no"?>
<!-- Created with Inkscape (http://www.inkscape.org/) -->

<svg
   xmlns:dc="http://purl.org/dc/elements/1.1/"
   xmlns:cc="http://creativecommons.org/ns#"
   xmlns:rdf="http://www.w3.org/1999/02/22-rdf-syntax-ns#"
   xmlns:svg="http://www.w3.org/2000/svg"
   xmlns="http://www.w3.org/2000/svg"
   xmlns:sodipodi="http://sodipodi.sourceforge.net/DTD/sodipodi-0.dtd"
   xmlns:inkscape="http://www.inkscape.org/namespaces/inkscape"
   width="32"
   height="32"
   viewBox="0 0 32 32.000001"
   id="svg4231"
   version="1.1"
   inkscape:version="0.91 r13725"
   sodipodi:docname="copyq.svg">
  <defs
     id="defs4233" />
  <sodipodi:namedview
     id="base"
     pagecolor="#ffffff"
     bordercolor="#666666"
     borderopacity="1.0"
     inkscape:pageopacity="0.0"
     inkscape:pageshadow="2"
     inkscape:zoom="9.95"
     inkscape:cx="28.952025"
     inkscape:cy="13.29601"
     inkscape:document-units="px"
     inkscape:current-layer="layer1"
     showgrid="false"
     units="px"
     inkscape:window-width="1548"
     inkscape:window-height="846"
     inkscape:window-x="52"
     inkscape:window-y="30"
     inkscape:window-maximized="1"
     inkscape:snap-page="true"
     inkscape:snap-text-baseline="true"
     inkscape:snap-center="true"
     inkscape:snap-object-midpoints="true"
     inkscape:snap-midpoints="true"
     inkscape:snap-smooth-nodes="true"
     inkscape:object-nodes="true"
     inkscape:snap-intersection-paths="true"
     inkscape:object-paths="true"
     inkscape:snap-grids="true"
     inkscape:snap-to-guides="false">
    <inkscape:grid
       type="xygrid"
       id="grid4138" />
  </sodipodi:namedview>
  <metadata
     id="metadata4236">
    <rdf:RDF>
      <cc:Work
         rdf:about="">
        <dc:format>image/svg+xml</dc:format>
        <dc:type
           rdf:resource="http://purl.org/dc/dcmitype/StillImage" />
        <dc:title></dc:title>
      </cc:Work>
    </rdf:RDF>
  </metadata>
  <g
     inkscape:label="Layer 1"
     inkscape:groupmode="layer"
     id="layer1"
     transform="translate(0,-1020.3622)">
    <path
       id="path4352"
       d="m 23,1024.3622 a 7,7 0 0 1 5.044922,2.1582 c 0.03294,0.032 0.06453,0.059 0.09766,0.092 0.730561,0.7306 1.153781,1.43 1.337891,2.1152 A 7,7 0 0 1 30,1031.3622 a 7,7 0 0 1 -7,7 7,7 0 0 1 -2.789062,-0.5898 c -0.07178,-0.029 -0.145286,-0.064 -0.21875,-0.098 a 7,7 0 0 1 -0.269532,-0.1328 c -0.03767,-0.02 -0.0732,-0.033 -0.111328,-0.055 C 12.514258,1047.0966 2,1048.3622 2,1048.3622 l 14.392578,-14.6895 c -0.160855,-0.3668 -0.243134,-0.7075 -0.269531,-1.0312 A 7,7 0 0 1 16,1031.3622 a 7,7 0 0 1 7,-7 z"
       style="opacity:1;fill:#9bcc6e;fill-opacity:1;stroke:none;stroke-width:8;stroke-linecap:round;stroke-linejoin:miter;stroke-miterlimit:4;stroke-dasharray:none;stroke-opacity:1"
       inkscape:connector-curvature="0" />
    <path
       inkscape:connector-curvature="0"
       style="opacity:0.2;fill:#ffffff;fill-opacity:1;stroke:none;stroke-width:8;stroke-linecap:round;stroke-linejoin:miter;stroke-miterlimit:4;stroke-dasharray:none;stroke-opacity:1"
       d="m 23,1024.3622 a 7,7 0 0 0 -7,7 7,7 0 0 0 0.02344,0.5195 7,7 0 0 1 6.97656,-6.5195 7,7 0 0 1 5.044922,2.1582 c 0.03294,0.032 0.06453,0.059 0.09766,0.092 0.730561,0.7306 1.153781,1.43 1.337891,2.1152 a 7,7 0 0 1 0.496089,2.1094 7,7 0 0 0 0.02344,-0.4746 7,7 0 0 0 -0.519531,-2.6348 c -0.18411,-0.6852 -0.60733,-1.3846 -1.337891,-2.1152 -0.03313,-0.033 -0.06472,-0.06 -0.09766,-0.092 A 7,7 0 0 0 23,1024.3622 Z m -6.833984,9.541 L 2,1048.3622 c 0,0 0.4969486,-0.079 1.2050781,-0.2305 l 13.1874999,-13.459 c -0.118782,-0.2708 -0.184337,-0.5234 -0.226562,-0.7695 z"
       id="path4359" />
    <path
       inkscape:connector-curvature="0"
       style="opacity:0.3;fill:#000000;fill-opacity:1;stroke:none;stroke-width:8;stroke-linecap:round;stroke-linejoin:miter;stroke-miterlimit:4;stroke-dasharray:none;stroke-opacity:1"
       d="M 29.976562,1030.8368 A 7,7 0 0 1 23,1037.3622 a 7,7 0 0 1 -2.789062,-0.5898 c -0.07178,-0.029 -0.145286,-0.064 -0.21875,-0.098 a 7,7 0 0 1 -0.269532,-0.1328 c -0.03767,-0.02 -0.0732,-0.033 -0.111328,-0.055 -5.700498,7.7189 -13.5158227,10.0243 -16.4062499,10.6445 L 2,1048.3622 c 0,0 10.514258,-1.265 17.611328,-10.875 0.03813,0.022 0.07366,0.035 0.111328,0.055 a 7,7 0 0 0 0.269532,0.1328 c 0.07346,0.034 0.146969,0.069 0.21875,0.098 A 7,7 0 0 0 23,1038.3622 a 7,7 0 0 0 7,-7 7,7 0 0 0 -0.02344,-0.5254 z m -13.953124,0.045 A 7,7 0 0 0 16,1031.3622 a 7,7 0 0 0 0.123047,1.2793 c 0.0069,0.085 0.02801,0.1746 0.04297,0.2617 l 0.226562,-0.2305 c -0.160855,-0.3668 -0.243134,-0.7075 -0.269531,-1.0312 a 7,7 0 0 1 -0.09961,-0.7598 z"
       id="path4369" />
    <path
       inkscape:connector-curvature="0"
       style="opacity:1;fill:#69d1ad;fill-opacity:1;stroke:none;stroke-width:8;stroke-linecap:round;stroke-linejoin:miter;stroke-miterlimit:4;stroke-dasharray:none;stroke-opacity:1"
       d="m 9,1024.3622 a 7,7 0 0 0 -5.0449219,2.1582 c -0.032943,0.032 -0.064527,0.059 -0.097656,0.092 -0.7305608,0.7306 -1.1537807,1.43 -1.3378907,2.1152 A 7,7 0 0 0 2,1031.3622 a 7,7 0 0 0 7,7 7,7 0 0 0 2.789062,-0.5898 c 0.07178,-0.029 0.145286,-0.064 0.21875,-0.098 a 7,7 0 0 0 0.269532,-0.1328 c 0.03767,-0.02 0.0732,-0.033 0.111328,-0.055 C 19.485742,1047.0966 30,1048.3622 30,1048.3622 l -14.392578,-14.6895 c 0.160855,-0.3668 0.243134,-0.7075 0.269531,-1.0312 A 7,7 0 0 0 16,1031.3622 a 7,7 0 0 0 -7,-7 z"
       id="path4444" />
    <path
       inkscape:connector-curvature="0"
       style="opacity:0.2;fill:#ffffff;fill-opacity:1;stroke:none;stroke-width:8;stroke-linecap:round;stroke-linejoin:miter;stroke-miterlimit:4;stroke-dasharray:none;stroke-opacity:1"
       d="m 9,1024.3622 a 7,7 0 0 0 -5.0449219,2.1582 c -0.032943,0.032 -0.064527,0.059 -0.097656,0.092 -0.7305608,0.7306 -1.1537807,1.43 -1.3378907,2.1152 A 7,7 0 0 0 2,1031.3622 a 7,7 0 0 0 0.023437,0.4746 7,7 0 0 1 0.4960937,-2.1094 c 0.1841101,-0.6852 0.6073299,-1.3846 1.3378907,-2.1152 0.033129,-0.033 0.064713,-0.06 0.097656,-0.092 A 7,7 0 0 1 9,1025.3622 a 7,7 0 0 1 6.976562,6.5195 7,7 0 0 0 0.02344,-0.5195 7,7 0 0 0 -7,-7 z m 6.833984,9.541 c -0.04222,0.2461 -0.10778,0.4987 -0.226562,0.7695 l 13.1875,13.459 C 29.503051,1048.2837 30,1048.3622 30,1048.3622 l -14.166016,-14.459 z"
       id="path4354" />
    <path
       inkscape:connector-curvature="0"
       style="opacity:0.3;fill:#000000;fill-opacity:1;stroke:none;stroke-width:8;stroke-linecap:round;stroke-linejoin:miter;stroke-miterlimit:4;stroke-dasharray:none;stroke-opacity:1"
       d="M 2.0234375,1030.8368 A 7,7 0 0 0 2,1031.3622 a 7,7 0 0 0 7,7 7,7 0 0 0 2.789062,-0.5898 c 0.07178,-0.029 0.145286,-0.064 0.21875,-0.098 a 7,7 0 0 0 0.269532,-0.1328 c 0.03767,-0.02 0.0732,-0.033 0.111328,-0.055 C 19.485742,1047.0966 30,1048.3622 30,1048.3622 l -1.205078,-1.2305 c -2.890427,-0.6202 -10.705752,-2.9256 -16.40625,-10.6445 -0.03813,0.022 -0.07366,0.035 -0.111328,0.055 a 7,7 0 0 1 -0.269532,0.1328 c -0.07346,0.034 -0.146969,0.069 -0.21875,0.098 A 7,7 0 0 1 9,1037.3622 7,7 0 0 1 2.0234375,1030.8368 Z m 13.9531245,0.045 a 7,7 0 0 1 -0.09961,0.7598 c -0.0264,0.3237 -0.108676,0.6644 -0.269531,1.0312 l 0.226562,0.2305 c 0.01496,-0.087 0.03607,-0.177 0.04297,-0.2617 A 7,7 0 0 0 16,1031.3622 a 7,7 0 0 0 -0.02344,-0.4805 z"
       id="path4364" />
    <g
       id="g4389"
       style="opacity:0.2;fill:#000000;fill-opacity:1"
       transform="translate(0,1.0000174)">
      <circle
         style="opacity:1;fill:#000000;fill-opacity:1;stroke:none"
         id="circle4391"
         cx="9"
         cy="1031.3622"
         r="3" />
      <circle
         style="opacity:1;fill:#000000;fill-opacity:1;stroke:none"
         id="circle4393"
         cx="16"
         cy="1037.3622"
         r="1" />
      <circle
         r="3"
         cy="1031.3622"
         cx="23"
         id="circle4395"
         style="opacity:1;fill:#000000;fill-opacity:1;stroke:none" />
    </g>
    <g
       id="g4384"
       style="fill:#f9f9f9;fill-opacity:1">
      <circle
         r="3"
         cy="1031.3622"
         cx="9"
         id="path4152-1"
         style="opacity:1;fill:#f9f9f9;fill-opacity:1;stroke:none" />
      <circle
         r="1"
         cy="1037.3622"
         cx="16"
         id="circle4156-4"
         style="opacity:1;fill:#f9f9f9;fill-opacity:1;stroke:none" />
      <circle
         style="opacity:1;fill:#f9f9f9;fill-opacity:1;stroke:none"
         id="circle4382"
         cx="23"
         cy="1031.3622"
         r="3" />
    </g>
  </g>
</svg>
