<?xml version="1.0" encoding="UTF-8" standalone="no"?>
<!-- Created with Inkscape (http://www.inkscape.org/) -->

<svg
   xmlns:dc="http://purl.org/dc/elements/1.1/"
   xmlns:cc="http://creativecommons.org/ns#"
   xmlns:rdf="http://www.w3.org/1999/02/22-rdf-syntax-ns#"
   xmlns:svg="http://www.w3.org/2000/svg"
   xmlns="http://www.w3.org/2000/svg"
   xmlns:xlink="http://www.w3.org/1999/xlink"
   xmlns:sodipodi="http://sodipodi.sourceforge.net/DTD/sodipodi-0.dtd"
   xmlns:inkscape="http://www.inkscape.org/namespaces/inkscape"
   id="svg2817"
   height="32"
   width="32"
   version="1.0"
   inkscape:version="0.91 r13725"
   sodipodi:docname="grid-autosport.svg">
  <defs
     id="defs221">
    <linearGradient
       inkscape:collect="always"
       id="linearGradient4358">
      <stop
         style="stop-color:#000000;stop-opacity:1;"
         offset="0"
         id="stop4360" />
      <stop
         style="stop-color:#000000;stop-opacity:0;"
         offset="1"
         id="stop4362" />
    </linearGradient>
    <linearGradient
       inkscape:collect="always"
       xlink:href="#linearGradient4358"
       id="linearGradient4364"
       x1="-17.79661"
       y1="-15.949153"
       x2="-17.79661"
       y2="-29.508474"
       gradientUnits="userSpaceOnUse"
       gradientTransform="matrix(0,-1,-1,0,0,0)" />
  </defs>
  <sodipodi:namedview
     pagecolor="#ffffff"
     bordercolor="#666666"
     borderopacity="1"
     objecttolerance="10"
     gridtolerance="10"
     guidetolerance="10"
     inkscape:pageopacity="0"
     inkscape:pageshadow="2"
     inkscape:window-width="1600"
     inkscape:window-height="845"
     id="namedview219"
     showgrid="false"
     inkscape:zoom="5.34"
     inkscape:cx="16"
     inkscape:cy="16.135593"
     inkscape:window-x="0"
     inkscape:window-y="31"
     inkscape:window-maximized="1"
     inkscape:current-layer="svg2817" />
  <metadata
     id="metadata57">
    <rdf:RDF>
      <cc:Work
         rdf:about="">
        <dc:format>image/svg+xml</dc:format>
        <dc:type
           rdf:resource="http://purl.org/dc/dcmitype/StillImage" />
        <dc:title></dc:title>
      </cc:Work>
    </rdf:RDF>
  </metadata>
  <text
     id="text4087-2-6-5"
     opacity=".8"
     font-size="12.666px"
     xml:space="preserve"
     y="-5.1873989"
     x="877.22626"
     font-family="'Bitstream Vera Sans'"
     fill="#000000"><tspan
       id="tspan4089-7-2-9"
       y="-5.1873989"
       x="877.22626" /></text>
  <text
     id="text4087-2-6-5-5"
     opacity=".8"
     font-size="12.666px"
     xml:space="preserve"
     y="-45.929108"
     x="901.18719"
     font-family="'Bitstream Vera Sans'"
     fill="#000000"><tspan
       id="tspan4089-7-2-9-6"
       y="-45.929108"
       x="901.18719" /></text>
  <text
     id="text4087-2-6-5-2"
     opacity=".8"
     font-size="12.666px"
     xml:space="preserve"
     y="-76.007248"
     x="-569.37115"
     font-family="'Bitstream Vera Sans'"
     fill="#000000"><tspan
       id="tspan4089-7-2-9-2"
       y="-76.007248"
       x="-569.37115" /></text>
  <text
     id="text4087-2-6-5-59"
     opacity=".8"
     font-size="12.666px"
     xml:space="preserve"
     y="669.5462"
     x="-2393.0571"
     font-family="'Bitstream Vera Sans'"
     fill="#000000"><tspan
       id="tspan4089-7-2-9-4"
       y="669.5462"
       x="-2393.0571" /></text>
  <text
     id="text4087-2-6-5-1"
     opacity=".8"
     font-size="12.666px"
     xml:space="preserve"
     y="-461.32822"
     x="-454.88007"
     font-family="'Bitstream Vera Sans'"
     fill="#000000"><tspan
       id="tspan4089-7-2-9-7"
       y="-461.32822"
       x="-454.88007" /></text>
  <text
     id="text4087-2-6-5-7"
     opacity=".8"
     font-size="12.666px"
     xml:space="preserve"
     y="-874.79834"
     x="352.72208"
     font-family="'Bitstream Vera Sans'"
     fill="#000000"><tspan
       id="tspan4089-7-2-9-1"
       y="-874.79834"
       x="352.72208" /></text>
  <text
     id="text4087-2-6-5-5-3"
     opacity=".8"
     font-size="12.666px"
     xml:space="preserve"
     y="-915.54004"
     x="376.68301"
     font-family="'Bitstream Vera Sans'"
     fill="#000000"><tspan
       id="tspan4089-7-2-9-6-5"
       y="-915.54004"
       x="376.68301" /></text>
  <text
     id="text4087-2-6-5-3"
     opacity=".8"
     font-size="12.666px"
     xml:space="preserve"
     y="-922.74994"
     x="-1114.7802"
     font-family="'Bitstream Vera Sans'"
     fill="#000000"><tspan
       id="tspan4089-7-2-9-18"
       y="-922.74994"
       x="-1114.7802" /></text>
  <text
     id="text4087-2-6-5-4"
     opacity=".8"
     font-size="12.666px"
     xml:space="preserve"
     y="-1195.9841"
     x="345.7626"
     font-family="'Bitstream Vera Sans'"
     fill="#000000"><tspan
       id="tspan4089-7-2-9-9"
       y="-1195.9841"
       x="345.7626" /></text>
  <text
     id="text4087-2-6-5-7-1"
     opacity=".8"
     font-size="12.666px"
     xml:space="preserve"
     y="-569.29272"
     x="1831.8861"
     font-family="'Bitstream Vera Sans'"
     fill="#000000"><tspan
       id="tspan4089-7-2-9-1-8"
       y="-569.29272"
       x="1831.8861" /></text>
  <text
     id="text4087-2-6-5-5-5"
     opacity=".8"
     font-size="12.666px"
     xml:space="preserve"
     y="-610.03448"
     x="1855.8469"
     font-family="'Bitstream Vera Sans'"
     fill="#000000"><tspan
       id="tspan4089-7-2-9-6-9"
       y="-610.03448"
       x="1855.8469" /></text>
  <text
     id="text4087-2-6-5-75"
     opacity=".8"
     font-size="12.666px"
     xml:space="preserve"
     y="-617.24438"
     x="364.38376"
     font-family="'Bitstream Vera Sans'"
     fill="#000000"><tspan
       id="tspan4089-7-2-9-3"
       y="-617.24438"
       x="364.38376" /></text>
  <text
     id="text4087-2-6-5-4-8"
     opacity=".8"
     font-size="12.666px"
     xml:space="preserve"
     y="-890.47839"
     x="1824.9266"
     font-family="'Bitstream Vera Sans'"
     fill="#000000"><tspan
       id="tspan4089-7-2-9-9-8"
       y="-890.47839"
       x="1824.9266" /></text>
  <text
     id="text4087-2-6-5-45"
     opacity=".8"
     font-size="12.666px"
     xml:space="preserve"
     y="-665.33569"
     x="-573.43256"
     font-family="'Bitstream Vera Sans'"
     fill="#000000"><tspan
       id="tspan4089-7-2-9-75"
       y="-665.33569"
       x="-573.43256" /></text>
  <text
     id="text4087-2-6-5-59-7"
     opacity=".8"
     font-size="12.666px"
     xml:space="preserve"
     y="80.217857"
     x="-2397.1182"
     font-family="'Bitstream Vera Sans'"
     fill="#000000"><tspan
       id="tspan4089-7-2-9-4-0"
       y="80.217857"
       x="-2397.1182" /></text>
  <text
     id="text4087-2-6-5-8"
     opacity=".8"
     font-size="12.666px"
     xml:space="preserve"
     y="173.09"
     x="-682.36279"
     font-family="'Bitstream Vera Sans'"
     fill="#000000"><tspan
       id="tspan4089-7-2-9-19"
       y="173.09"
       x="-682.36279" /></text>
  <text
     id="text4087-2-6-5-7-5"
     opacity=".8"
     font-size="12.666px"
     xml:space="preserve"
     y="-6.0921478"
     x="426.66153"
     font-family="'Bitstream Vera Sans'"
     fill="#000000"><tspan
       id="tspan4089-7-2-9-1-2"
       y="-6.0921478"
       x="426.66153" /></text>
  <text
     id="text4087-2-6-5-5-0"
     opacity=".8"
     font-size="12.666px"
     xml:space="preserve"
     y="-46.833855"
     x="450.62247"
     font-family="'Bitstream Vera Sans'"
     fill="#000000"><tspan
       id="tspan4089-7-2-9-6-2"
       y="-46.833855"
       x="450.62247" /></text>
  <text
     id="text4087-2-6-5-26"
     opacity=".8"
     font-size="12.666px"
     xml:space="preserve"
     y="-54.043827"
     x="-1040.8407"
     font-family="'Bitstream Vera Sans'"
     fill="#000000"><tspan
       id="tspan4089-7-2-9-90"
       y="-54.043827"
       x="-1040.8407" /></text>
  <text
     id="text4087-2-6-5-4-3"
     opacity=".8"
     font-size="12.666px"
     xml:space="preserve"
     y="-327.27789"
     x="419.70206"
     font-family="'Bitstream Vera Sans'"
     fill="#000000"><tspan
       id="tspan4089-7-2-9-9-5"
       y="-327.27789"
       x="419.70206" /></text>
  <text
     id="text4087-2-6-5-55"
     opacity=".8"
     font-size="12.666px"
     xml:space="preserve"
     y="-56.758072"
     x="-608.03253"
     font-family="'Bitstream Vera Sans'"
     fill="#000000"><tspan
       id="tspan4089-7-2-9-32"
       y="-56.758072"
       x="-608.03253" /></text>
  <text
     id="text4087-2-6-5-59-9"
     opacity=".8"
     font-size="12.666px"
     xml:space="preserve"
     y="688.79541"
     x="-2431.7185"
     font-family="'Bitstream Vera Sans'"
     fill="#000000"><tspan
       id="tspan4089-7-2-9-4-1"
       y="688.79541"
       x="-2431.7185" /></text>
  <text
     id="text4087-2-6-5-1-8"
     opacity=".8"
     font-size="12.666px"
     xml:space="preserve"
     y="-918.28857"
     x="-456.93948"
     font-family="'Bitstream Vera Sans'"
     fill="#000000"><tspan
       id="tspan4089-7-2-9-7-8"
       y="-918.28857"
       x="-456.93948" /></text>
  <text
     id="text4087-2-6-5-7-8"
     opacity=".8"
     font-size="12.666px"
     xml:space="preserve"
     y="-1331.7588"
     x="350.66266"
     font-family="'Bitstream Vera Sans'"
     fill="#000000"><tspan
       id="tspan4089-7-2-9-1-9"
       y="-1331.7588"
       x="350.66266" /></text>
  <text
     id="text4087-2-6-5-5-52"
     opacity=".8"
     font-size="12.666px"
     xml:space="preserve"
     y="-1372.5005"
     x="374.62357"
     font-family="'Bitstream Vera Sans'"
     fill="#000000"><tspan
       id="tspan4089-7-2-9-6-4"
       y="-1372.5005"
       x="374.62357" /></text>
  <text
     id="text4087-2-6-5-3-4"
     opacity=".8"
     font-size="12.666px"
     xml:space="preserve"
     y="-1379.7104"
     x="-1116.8396"
     font-family="'Bitstream Vera Sans'"
     fill="#000000"><tspan
       id="tspan4089-7-2-9-18-3"
       y="-1379.7104"
       x="-1116.8396" /></text>
  <text
     id="text4087-2-6-5-4-7"
     opacity=".8"
     font-size="12.666px"
     xml:space="preserve"
     y="-1652.9446"
     x="343.70316"
     font-family="'Bitstream Vera Sans'"
     fill="#000000"><tspan
       id="tspan4089-7-2-9-9-54"
       y="-1652.9446"
       x="343.70316" /></text>
  <text
     id="text4087-2-6-5-7-1-2"
     opacity=".8"
     font-size="12.666px"
     xml:space="preserve"
     y="-1026.2533"
     x="1829.8265"
     font-family="'Bitstream Vera Sans'"
     fill="#000000"><tspan
       id="tspan4089-7-2-9-1-8-0"
       y="-1026.2533"
       x="1829.8265" /></text>
  <text
     id="text4087-2-6-5-5-5-6"
     opacity=".8"
     font-size="12.666px"
     xml:space="preserve"
     y="-1066.9949"
     x="1853.7874"
     font-family="'Bitstream Vera Sans'"
     fill="#000000"><tspan
       id="tspan4089-7-2-9-6-9-8"
       y="-1066.9949"
       x="1853.7874" /></text>
  <text
     id="text4087-2-6-5-75-4"
     opacity=".8"
     font-size="12.666px"
     xml:space="preserve"
     y="-1074.2048"
     x="362.32431"
     font-family="'Bitstream Vera Sans'"
     fill="#000000"><tspan
       id="tspan4089-7-2-9-3-9"
       y="-1074.2048"
       x="362.32431" /></text>
  <text
     id="text4087-2-6-5-4-8-1"
     opacity=".8"
     font-size="12.666px"
     xml:space="preserve"
     y="-1347.439"
     x="1822.8671"
     font-family="'Bitstream Vera Sans'"
     fill="#000000"><tspan
       id="tspan4089-7-2-9-9-8-8"
       y="-1347.439"
       x="1822.8671" /></text>
  <text
     id="text4087-2-6-5-45-0"
     opacity=".8"
     font-size="12.666px"
     xml:space="preserve"
     y="-1122.2961"
     x="-575.492"
     font-family="'Bitstream Vera Sans'"
     fill="#000000"><tspan
       id="tspan4089-7-2-9-75-2"
       y="-1122.2961"
       x="-575.492" /></text>
  <text
     id="text4087-2-6-5-59-5"
     opacity=".8"
     font-size="12.666px"
     xml:space="preserve"
     y="-376.74261"
     x="-2399.1777"
     font-family="'Bitstream Vera Sans'"
     fill="#000000"><tspan
       id="tspan4089-7-2-9-4-00"
       y="-376.74261"
       x="-2399.1777" /></text>
  <text
     id="text4087-2-6-5-264"
     opacity=".8"
     font-size="12.666px"
     xml:space="preserve"
     y="-283.87045"
     x="-684.42224"
     font-family="'Bitstream Vera Sans'"
     fill="#000000"><tspan
       id="tspan4089-7-2-9-8"
       y="-283.87045"
       x="-684.42224" /></text>
  <text
     id="text4087-2-6-5-42"
     opacity=".8"
     font-size="12.666px"
     xml:space="preserve"
     y="-42.956276"
     x="155.5923"
     font-family="'Bitstream Vera Sans'"
     fill="#000000"><tspan
       id="tspan4089-7-2-9-93"
       y="-42.956276"
       x="155.5923" /></text>
  <text
     id="text4087-2-6-5-5-05"
     opacity=".8"
     font-size="12.666px"
     xml:space="preserve"
     y="-83.697998"
     x="179.55324"
     font-family="'Bitstream Vera Sans'"
     fill="#000000"><tspan
       id="tspan4089-7-2-9-6-49"
       y="-83.697998"
       x="179.55324" /></text>
  <text
     id="text4087-2-6-5-1-4"
     opacity=".8"
     font-size="12.666px"
     xml:space="preserve"
     y="-277.72662"
     x="-1090.2634"
     font-family="'Bitstream Vera Sans'"
     fill="#000000"><tspan
       id="tspan4089-7-2-9-7-7"
       y="-277.72662"
       x="-1090.2634" /></text>
  <text
     id="text4087-2-6-5-7-56"
     opacity=".8"
     font-size="12.666px"
     xml:space="preserve"
     y="-691.19678"
     x="-282.66141"
     font-family="'Bitstream Vera Sans'"
     fill="#000000"><tspan
       id="tspan4089-7-2-9-1-1"
       y="-691.19678"
       x="-282.66141" /></text>
  <text
     id="text4087-2-6-5-5-8"
     opacity=".8"
     font-size="12.666px"
     xml:space="preserve"
     y="-731.93848"
     x="-258.70047"
     font-family="'Bitstream Vera Sans'"
     fill="#000000"><tspan
       id="tspan4089-7-2-9-6-7"
       y="-731.93848"
       x="-258.70047" /></text>
  <text
     id="text4087-2-6-5-3-42"
     opacity=".8"
     font-size="12.666px"
     xml:space="preserve"
     y="-739.14838"
     x="-1750.1636"
     font-family="'Bitstream Vera Sans'"
     fill="#000000"><tspan
       id="tspan4089-7-2-9-18-39"
       y="-739.14838"
       x="-1750.1636" /></text>
  <text
     id="text4087-2-6-5-4-4"
     opacity=".8"
     font-size="12.666px"
     xml:space="preserve"
     y="-1012.3825"
     x="-289.62085"
     font-family="'Bitstream Vera Sans'"
     fill="#000000"><tspan
       id="tspan4089-7-2-9-9-3"
       y="-1012.3825"
       x="-289.62085" /></text>
  <text
     id="text4087-2-6-5-7-1-0"
     opacity=".8"
     font-size="12.666px"
     xml:space="preserve"
     y="-385.69113"
     x="1196.5026"
     font-family="'Bitstream Vera Sans'"
     fill="#000000"><tspan
       id="tspan4089-7-2-9-1-8-5"
       y="-385.69113"
       x="1196.5026" /></text>
  <text
     id="text4087-2-6-5-5-5-5"
     opacity=".8"
     font-size="12.666px"
     xml:space="preserve"
     y="-426.43286"
     x="1220.4634"
     font-family="'Bitstream Vera Sans'"
     fill="#000000"><tspan
       id="tspan4089-7-2-9-6-9-2"
       y="-426.43286"
       x="1220.4634" /></text>
  <text
     id="text4087-2-6-5-75-9"
     opacity=".8"
     font-size="12.666px"
     xml:space="preserve"
     y="-433.64282"
     x="-270.99973"
     font-family="'Bitstream Vera Sans'"
     fill="#000000"><tspan
       id="tspan4089-7-2-9-3-1"
       y="-433.64282"
       x="-270.99973" /></text>
  <text
     id="text4087-2-6-5-4-8-18"
     opacity=".8"
     font-size="12.666px"
     xml:space="preserve"
     y="-706.87689"
     x="1189.5431"
     font-family="'Bitstream Vera Sans'"
     fill="#000000"><tspan
       id="tspan4089-7-2-9-9-8-4"
       y="-706.87689"
       x="1189.5431" /></text>
  <text
     id="text4087-2-6-5-45-3"
     opacity=".8"
     font-size="12.666px"
     xml:space="preserve"
     y="-481.7341"
     x="-1208.816"
     font-family="'Bitstream Vera Sans'"
     fill="#000000"><tspan
       id="tspan4089-7-2-9-75-7"
       y="-481.7341"
       x="-1208.816" /></text>
  <text
     id="text4087-2-6-5-59-8"
     opacity=".8"
     font-size="12.666px"
     xml:space="preserve"
     y="263.81946"
     x="-3032.5017"
     font-family="'Bitstream Vera Sans'"
     fill="#000000"><tspan
       id="tspan4089-7-2-9-4-2"
       y="263.81946"
       x="-3032.5017" /></text>
  <g
     id="layer4-0"
     transform="matrix(.90475 0 0 .90475 -716.75 -692.29)">
    <text
       id="text4087-2-6-5-20"
       opacity=".8"
       font-size="14px"
       xml:space="preserve"
       y="1159.4154"
       x="-664.2738"
       font-family="'Bitstream Vera Sans'"
       fill="#000000"><tspan
         id="tspan4089-7-2-9-82"
         y="1159.4154"
         x="-664.2738" /></text>
  </g>
  <text
     id="text4087-2-6-5-9"
     opacity=".8"
     font-size="12.666px"
     xml:space="preserve"
     y="2.0505886"
     x="877.22626"
     font-family="'Bitstream Vera Sans'"
     fill="#000000"><tspan
       id="tspan4089-7-2-9-43"
       y="2.0505886"
       x="877.22626" /></text>
  <text
     id="text4087-2-6-5-5-51"
     opacity=".8"
     font-size="12.666px"
     xml:space="preserve"
     y="-38.691116"
     x="901.18719"
     font-family="'Bitstream Vera Sans'"
     fill="#000000"><tspan
       id="tspan4089-7-2-9-6-74"
       y="-38.691116"
       x="901.18719" /></text>
  <text
     id="text4087-2-6-5-2-3"
     opacity=".8"
     font-size="12.666px"
     xml:space="preserve"
     y="-68.769257"
     x="-569.37115"
     font-family="'Bitstream Vera Sans'"
     fill="#000000"><tspan
       id="tspan4089-7-2-9-2-1"
       y="-68.769257"
       x="-569.37115" /></text>
  <text
     id="text4087-2-6-5-59-4"
     opacity=".8"
     font-size="12.666px"
     xml:space="preserve"
     y="676.78418"
     x="-2393.0571"
     font-family="'Bitstream Vera Sans'"
     fill="#000000"><tspan
       id="tspan4089-7-2-9-4-6"
       y="676.78418"
       x="-2393.0571" /></text>
  <text
     id="text4087-2-6-5-1-9"
     opacity=".8"
     font-size="12.666px"
     xml:space="preserve"
     y="-454.09021"
     x="-454.88007"
     font-family="'Bitstream Vera Sans'"
     fill="#000000"><tspan
       id="tspan4089-7-2-9-7-4"
       y="-454.09021"
       x="-454.88007" /></text>
  <text
     id="text4087-2-6-5-7-2"
     opacity=".8"
     font-size="12.666px"
     xml:space="preserve"
     y="-867.5603"
     x="352.72208"
     font-family="'Bitstream Vera Sans'"
     fill="#000000"><tspan
       id="tspan4089-7-2-9-1-26"
       y="-867.5603"
       x="352.72208" /></text>
  <text
     id="text4087-2-6-5-5-3-4"
     opacity=".8"
     font-size="12.666px"
     xml:space="preserve"
     y="-908.30206"
     x="376.68301"
     font-family="'Bitstream Vera Sans'"
     fill="#000000"><tspan
       id="tspan4089-7-2-9-6-5-1"
       y="-908.30206"
       x="376.68301" /></text>
  <text
     id="text4087-2-6-5-3-2"
     opacity=".8"
     font-size="12.666px"
     xml:space="preserve"
     y="-915.51196"
     x="-1114.7802"
     font-family="'Bitstream Vera Sans'"
     fill="#000000"><tspan
       id="tspan4089-7-2-9-18-8"
       y="-915.51196"
       x="-1114.7802" /></text>
  <text
     id="text4087-2-6-5-4-89"
     opacity=".8"
     font-size="12.666px"
     xml:space="preserve"
     y="-1188.7461"
     x="345.7626"
     font-family="'Bitstream Vera Sans'"
     fill="#000000"><tspan
       id="tspan4089-7-2-9-9-2"
       y="-1188.7461"
       x="345.7626" /></text>
  <text
     id="text4087-2-6-5-7-1-8"
     opacity=".8"
     font-size="12.666px"
     xml:space="preserve"
     y="-562.05475"
     x="1831.8861"
     font-family="'Bitstream Vera Sans'"
     fill="#000000"><tspan
       id="tspan4089-7-2-9-1-8-8"
       y="-562.05475"
       x="1831.8861" /></text>
  <text
     id="text4087-2-6-5-5-5-8"
     opacity=".8"
     font-size="12.666px"
     xml:space="preserve"
     y="-602.79651"
     x="1855.8469"
     font-family="'Bitstream Vera Sans'"
     fill="#000000"><tspan
       id="tspan4089-7-2-9-6-9-6"
       y="-602.79651"
       x="1855.8469" /></text>
  <text
     id="text4087-2-6-5-75-8"
     opacity=".8"
     font-size="12.666px"
     xml:space="preserve"
     y="-610.00641"
     x="364.38376"
     font-family="'Bitstream Vera Sans'"
     fill="#000000"><tspan
       id="tspan4089-7-2-9-3-3"
       y="-610.00641"
       x="364.38376" /></text>
  <text
     id="text4087-2-6-5-4-8-8"
     opacity=".8"
     font-size="12.666px"
     xml:space="preserve"
     y="-883.24036"
     x="1824.9266"
     font-family="'Bitstream Vera Sans'"
     fill="#000000"><tspan
       id="tspan4089-7-2-9-9-8-3"
       y="-883.24036"
       x="1824.9266" /></text>
  <text
     id="text4087-2-6-5-45-33"
     opacity=".8"
     font-size="12.666px"
     xml:space="preserve"
     y="-658.09772"
     x="-573.43256"
     font-family="'Bitstream Vera Sans'"
     fill="#000000"><tspan
       id="tspan4089-7-2-9-75-8"
       y="-658.09772"
       x="-573.43256" /></text>
  <text
     id="text4087-2-6-5-59-7-0"
     opacity=".8"
     font-size="12.666px"
     xml:space="preserve"
     y="87.455849"
     x="-2397.1182"
     font-family="'Bitstream Vera Sans'"
     fill="#000000"><tspan
       id="tspan4089-7-2-9-4-0-4"
       y="87.455849"
       x="-2397.1182" /></text>
  <text
     id="text4087-2-6-5-8-7"
     opacity=".8"
     font-size="12.666px"
     xml:space="preserve"
     y="180.32799"
     x="-682.36279"
     font-family="'Bitstream Vera Sans'"
     fill="#000000"><tspan
       id="tspan4089-7-2-9-19-6"
       y="180.32799"
       x="-682.36279" /></text>
  <text
     id="text4087-2-6-5-7-5-8"
     opacity=".8"
     font-size="12.666px"
     xml:space="preserve"
     y="1.1458397"
     x="426.66153"
     font-family="'Bitstream Vera Sans'"
     fill="#000000"><tspan
       id="tspan4089-7-2-9-1-2-9"
       y="1.1458397"
       x="426.66153" /></text>
  <text
     id="text4087-2-6-5-5-0-0"
     opacity=".8"
     font-size="12.666px"
     xml:space="preserve"
     y="-39.595863"
     x="450.62247"
     font-family="'Bitstream Vera Sans'"
     fill="#000000"><tspan
       id="tspan4089-7-2-9-6-2-6"
       y="-39.595863"
       x="450.62247" /></text>
  <text
     id="text4087-2-6-5-26-8"
     opacity=".8"
     font-size="12.666px"
     xml:space="preserve"
     y="-46.805836"
     x="-1040.8407"
     font-family="'Bitstream Vera Sans'"
     fill="#000000"><tspan
       id="tspan4089-7-2-9-90-7"
       y="-46.805836"
       x="-1040.8407" /></text>
  <text
     id="text4087-2-6-5-4-3-9"
     opacity=".8"
     font-size="12.666px"
     xml:space="preserve"
     y="-320.03989"
     x="419.70206"
     font-family="'Bitstream Vera Sans'"
     fill="#000000"><tspan
       id="tspan4089-7-2-9-9-5-0"
       y="-320.03989"
       x="419.70206" /></text>
  <text
     id="text4087-2-6-5-55-3"
     opacity=".8"
     font-size="12.666px"
     xml:space="preserve"
     y="-49.520081"
     x="-608.03253"
     font-family="'Bitstream Vera Sans'"
     fill="#000000"><tspan
       id="tspan4089-7-2-9-32-3"
       y="-49.520081"
       x="-608.03253" /></text>
  <text
     id="text4087-2-6-5-59-9-3"
     opacity=".8"
     font-size="12.666px"
     xml:space="preserve"
     y="696.03345"
     x="-2431.7185"
     font-family="'Bitstream Vera Sans'"
     fill="#000000"><tspan
       id="tspan4089-7-2-9-4-1-7"
       y="696.03345"
       x="-2431.7185" /></text>
  <text
     id="text4087-2-6-5-1-8-3"
     opacity=".8"
     font-size="12.666px"
     xml:space="preserve"
     y="-911.0506"
     x="-456.93948"
     font-family="'Bitstream Vera Sans'"
     fill="#000000"><tspan
       id="tspan4089-7-2-9-7-8-2"
       y="-911.0506"
       x="-456.93948" /></text>
  <text
     id="text4087-2-6-5-7-8-6"
     opacity=".8"
     font-size="12.666px"
     xml:space="preserve"
     y="-1324.5208"
     x="350.66266"
     font-family="'Bitstream Vera Sans'"
     fill="#000000"><tspan
       id="tspan4089-7-2-9-1-9-5"
       y="-1324.5208"
       x="350.66266" /></text>
  <text
     id="text4087-2-6-5-5-52-2"
     opacity=".8"
     font-size="12.666px"
     xml:space="preserve"
     y="-1365.2626"
     x="374.62357"
     font-family="'Bitstream Vera Sans'"
     fill="#000000"><tspan
       id="tspan4089-7-2-9-6-4-6"
       y="-1365.2626"
       x="374.62357" /></text>
  <text
     id="text4087-2-6-5-3-4-5"
     opacity=".8"
     font-size="12.666px"
     xml:space="preserve"
     y="-1372.4724"
     x="-1116.8396"
     font-family="'Bitstream Vera Sans'"
     fill="#000000"><tspan
       id="tspan4089-7-2-9-18-3-8"
       y="-1372.4724"
       x="-1116.8396" /></text>
  <text
     id="text4087-2-6-5-4-7-7"
     opacity=".8"
     font-size="12.666px"
     xml:space="preserve"
     y="-1645.7065"
     x="343.70316"
     font-family="'Bitstream Vera Sans'"
     fill="#000000"><tspan
       id="tspan4089-7-2-9-9-54-9"
       y="-1645.7065"
       x="343.70316" /></text>
  <text
     id="text4087-2-6-5-7-1-2-6"
     opacity=".8"
     font-size="12.666px"
     xml:space="preserve"
     y="-1019.0153"
     x="1829.8265"
     font-family="'Bitstream Vera Sans'"
     fill="#000000"><tspan
       id="tspan4089-7-2-9-1-8-0-0"
       y="-1019.0153"
       x="1829.8265" /></text>
  <text
     id="text4087-2-6-5-5-5-6-4"
     opacity=".8"
     font-size="12.666px"
     xml:space="preserve"
     y="-1059.757"
     x="1853.7874"
     font-family="'Bitstream Vera Sans'"
     fill="#000000"><tspan
       id="tspan4089-7-2-9-6-9-8-1"
       y="-1059.757"
       x="1853.7874" /></text>
  <text
     id="text4087-2-6-5-75-4-0"
     opacity=".8"
     font-size="12.666px"
     xml:space="preserve"
     y="-1066.9668"
     x="362.32431"
     font-family="'Bitstream Vera Sans'"
     fill="#000000"><tspan
       id="tspan4089-7-2-9-3-9-4"
       y="-1066.9668"
       x="362.32431" /></text>
  <text
     id="text4087-2-6-5-4-8-1-8"
     opacity=".8"
     font-size="12.666px"
     xml:space="preserve"
     y="-1340.2009"
     x="1822.8671"
     font-family="'Bitstream Vera Sans'"
     fill="#000000"><tspan
       id="tspan4089-7-2-9-9-8-8-7"
       y="-1340.2009"
       x="1822.8671" /></text>
  <text
     id="text4087-2-6-5-45-0-0"
     opacity=".8"
     font-size="12.666px"
     xml:space="preserve"
     y="-1115.0581"
     x="-575.492"
     font-family="'Bitstream Vera Sans'"
     fill="#000000"><tspan
       id="tspan4089-7-2-9-75-2-8"
       y="-1115.0581"
       x="-575.492" /></text>
  <text
     id="text4087-2-6-5-59-5-6"
     opacity=".8"
     font-size="12.666px"
     xml:space="preserve"
     y="-369.50461"
     x="-2399.1777"
     font-family="'Bitstream Vera Sans'"
     fill="#000000"><tspan
       id="tspan4089-7-2-9-4-00-2"
       y="-369.50461"
       x="-2399.1777" /></text>
  <text
     id="text4087-2-6-5-264-4"
     opacity=".8"
     font-size="12.666px"
     xml:space="preserve"
     y="-276.63245"
     x="-684.42224"
     font-family="'Bitstream Vera Sans'"
     fill="#000000"><tspan
       id="tspan4089-7-2-9-8-7"
       y="-276.63245"
       x="-684.42224" /></text>
  <text
     id="text4087-2-6-5-42-9"
     opacity=".8"
     font-size="12.666px"
     xml:space="preserve"
     y="-35.718292"
     x="155.5923"
     font-family="'Bitstream Vera Sans'"
     fill="#000000"><tspan
       id="tspan4089-7-2-9-93-3"
       y="-35.718292"
       x="155.5923" /></text>
  <text
     id="text4087-2-6-5-5-05-9"
     opacity=".8"
     font-size="12.666px"
     xml:space="preserve"
     y="-76.460007"
     x="179.55324"
     font-family="'Bitstream Vera Sans'"
     fill="#000000"><tspan
       id="tspan4089-7-2-9-6-49-2"
       y="-76.460007"
       x="179.55324" /></text>
  <text
     id="text4087-2-6-5-1-4-8"
     opacity=".8"
     font-size="12.666px"
     xml:space="preserve"
     y="-270.48859"
     x="-1090.2634"
     font-family="'Bitstream Vera Sans'"
     fill="#000000"><tspan
       id="tspan4089-7-2-9-7-7-3"
       y="-270.48859"
       x="-1090.2634" /></text>
  <text
     id="text4087-2-6-5-7-56-0"
     opacity=".8"
     font-size="12.666px"
     xml:space="preserve"
     y="-683.9588"
     x="-282.66141"
     font-family="'Bitstream Vera Sans'"
     fill="#000000"><tspan
       id="tspan4089-7-2-9-1-1-1"
       y="-683.9588"
       x="-282.66141" /></text>
  <text
     id="text4087-2-6-5-5-8-7"
     opacity=".8"
     font-size="12.666px"
     xml:space="preserve"
     y="-724.7005"
     x="-258.70047"
     font-family="'Bitstream Vera Sans'"
     fill="#000000"><tspan
       id="tspan4089-7-2-9-6-7-8"
       y="-724.7005"
       x="-258.70047" /></text>
  <text
     id="text4087-2-6-5-3-42-9"
     opacity=".8"
     font-size="12.666px"
     xml:space="preserve"
     y="-731.91046"
     x="-1750.1636"
     font-family="'Bitstream Vera Sans'"
     fill="#000000"><tspan
       id="tspan4089-7-2-9-18-39-1"
       y="-731.91046"
       x="-1750.1636" /></text>
  <text
     id="text4087-2-6-5-4-4-5"
     opacity=".8"
     font-size="12.666px"
     xml:space="preserve"
     y="-1005.1445"
     x="-289.62085"
     font-family="'Bitstream Vera Sans'"
     fill="#000000"><tspan
       id="tspan4089-7-2-9-9-3-4"
       y="-1005.1445"
       x="-289.62085" /></text>
  <text
     id="text4087-2-6-5-7-1-0-9"
     opacity=".8"
     font-size="12.666px"
     xml:space="preserve"
     y="-378.45316"
     x="1196.5026"
     font-family="'Bitstream Vera Sans'"
     fill="#000000"><tspan
       id="tspan4089-7-2-9-1-8-5-2"
       y="-378.45316"
       x="1196.5026" /></text>
  <text
     id="text4087-2-6-5-5-5-5-5"
     opacity=".8"
     font-size="12.666px"
     xml:space="preserve"
     y="-419.19489"
     x="1220.4634"
     font-family="'Bitstream Vera Sans'"
     fill="#000000"><tspan
       id="tspan4089-7-2-9-6-9-2-7"
       y="-419.19489"
       x="1220.4634" /></text>
  <text
     id="text4087-2-6-5-75-9-4"
     opacity=".8"
     font-size="12.666px"
     xml:space="preserve"
     y="-426.40482"
     x="-270.99973"
     font-family="'Bitstream Vera Sans'"
     fill="#000000"><tspan
       id="tspan4089-7-2-9-3-1-9"
       y="-426.40482"
       x="-270.99973" /></text>
  <text
     id="text4087-2-6-5-4-8-18-9"
     opacity=".8"
     font-size="12.666px"
     xml:space="preserve"
     y="-699.63892"
     x="1189.5431"
     font-family="'Bitstream Vera Sans'"
     fill="#000000"><tspan
       id="tspan4089-7-2-9-9-8-4-4"
       y="-699.63892"
       x="1189.5431" /></text>
  <text
     id="text4087-2-6-5-45-3-5"
     opacity=".8"
     font-size="12.666px"
     xml:space="preserve"
     y="-474.49609"
     x="-1208.816"
     font-family="'Bitstream Vera Sans'"
     fill="#000000"><tspan
       id="tspan4089-7-2-9-75-7-9"
       y="-474.49609"
       x="-1208.816" /></text>
  <text
     id="text4087-2-6-5-59-8-3"
     opacity=".8"
     font-size="12.666px"
     xml:space="preserve"
     y="271.05743"
     x="-3032.5017"
     font-family="'Bitstream Vera Sans'"
     fill="#000000"><tspan
       id="tspan4089-7-2-9-4-2-5"
       y="271.05743"
       x="-3032.5017" /></text>
  <g
     id="layer4-0-7"
     transform="matrix(.90475 0 0 .90475 -716.75 -685.05)">
    <text
       id="text4087-2-6-5-20-0"
       opacity=".8"
       font-size="14px"
       xml:space="preserve"
       y="1159.4154"
       x="-664.2738"
       font-family="'Bitstream Vera Sans'"
       fill="#000000"><tspan
         id="tspan4089-7-2-9-82-8"
         y="1159.4154"
         x="-664.2738" /></text>
  </g>
  <text
     id="text7276"
     font-size="12.666px"
     xml:space="preserve"
     y="-377.22546"
     x="435.90427"
     font-family="'Droid Sans'"
     fill="#000000"><tspan
       id="tspan7278"
       y="-377.22546"
       x="435.90427" /><tspan
       id="tspan7280"
       y="-361.3924"
       x="435.90427" /></text>
  <text
     id="text4087-2-6-5-51"
     opacity=".8"
     font-size="12.666px"
     xml:space="preserve"
     y="-859.27002"
     x="901.0882"
     font-family="'Bitstream Vera Sans'"
     fill="#000000"><tspan
       id="tspan4089-7-2-9-97"
       y="-859.27002"
       x="901.0882" /></text>
  <text
     id="text4087-2-6-5-59-2"
     opacity=".8"
     font-size="12.666px"
     xml:space="preserve"
     y="-113.71655"
     x="-922.59778"
     font-family="'Bitstream Vera Sans'"
     fill="#000000"><tspan
       id="tspan4089-7-2-9-4-4"
       y="-113.71655"
       x="-922.59778" /></text>
  <text
     id="text4087-2-6-5-7-7"
     opacity=".8"
     font-size="12.666px"
     xml:space="preserve"
     y="-1144.2659"
     x="1628.1677"
     font-family="'Bitstream Vera Sans'"
     fill="#000000"><tspan
       id="tspan4089-7-2-9-1-6"
       y="-1144.2659"
       x="1628.1677" /></text>
  <text
     id="text4087-2-6-5-5-6"
     opacity=".8"
     font-size="12.666px"
     xml:space="preserve"
     y="-1185.0076"
     x="1652.1285"
     font-family="'Bitstream Vera Sans'"
     fill="#000000"><tspan
       id="tspan4089-7-2-9-6-53"
       y="-1185.0076"
       x="1652.1285" /></text>
  <text
     id="text4087-2-6-5-54"
     opacity=".8"
     font-size="12.666px"
     xml:space="preserve"
     y="-1192.2175"
     x="160.66542"
     font-family="'Bitstream Vera Sans'"
     fill="#000000"><tspan
       id="tspan4089-7-2-9-0"
       y="-1192.2175"
       x="160.66542" /></text>
  <text
     id="text4087-2-6-5-4-1"
     opacity=".8"
     font-size="12.666px"
     xml:space="preserve"
     y="-1465.4517"
     x="1621.2083"
     font-family="'Bitstream Vera Sans'"
     fill="#000000"><tspan
       id="tspan4089-7-2-9-9-28"
       y="-1465.4517"
       x="1621.2083" /></text>
  <rect
     id="rect4255"
     ry="1.5"
     rx="1.5"
     transform="matrix(0,-1,-1,0,0,0)"
     height="28"
     width="28"
     y="-30"
     x="-30"
     style="fill:#4d4d4d;fill-opacity:1" />
  <path
     inkscape:connector-curvature="0"
     style="opacity:0.8;fill:#ffffff;fill-opacity:1"
     d="m 5.3895033,8.0000131 0.05746,0.499422 c 0.107626,0.93626 0.220987,1.237837 0.527853,1.400043 0.158026,0.0841 0.314833,0.2646089 0.348783,0.4011979 0.06624,0.267772 0.235196,0.338824 0.235196,0.09822 0,-0.0816 -0.175479,-0.4975309 -0.39021,-0.9241389 -0.214723,-0.426608 -0.391446,-0.820774 -0.392883,-0.875718 -0.0013,-0.05495 -0.08825,-0.211263 -0.193769,-0.348627 l -0.192432,-0.250403 z m 21.2210067,0 -0.192432,0.250403 c -0.10551,0.137364 -0.192468,0.293682 -0.193768,0.348627 -0.0015,0.05495 -0.178158,0.44911 -0.392882,0.875718 -0.21473,0.426608 -0.39021,0.8425399 -0.39021,0.9241389 0,0.2406 0.16895,0.169548 0.235195,-0.09822 0.03395,-0.136589 0.190758,-0.3171039 0.348784,-0.4011979 0.306865,-0.162206 0.420227,-0.463783 0.527852,-1.400043 l 0.05746,-0.499422 z m -22.2179127,0.55061 c -0.05858,0 -0.071,0.07305 -0.0294,0.174314 0.165694,0.40321 0.169035,0.623931 0.0094,0.623931 -0.08684,0 -0.157688,0.03476 -0.157688,0.07747 0,0.157248 0.319642,0.538259 0.522508,0.6225499 0.241572,0.09971 0.454353,0.122707 0.454353,0.04842 0,-0.02822 -0.04374,-0.1300899 -0.09622,-0.2255009 -0.05247,-0.09541 -0.141406,-0.362438 -0.197777,-0.593492 -0.102733,-0.421099 -0.315857,-0.72769 -0.505135,-0.72769 z m 23.2148207,0 c -0.189278,0 -0.402403,0.306592 -0.505136,0.72769 -0.05637,0.231055 -0.145305,0.498085 -0.197777,0.593496 -0.05247,0.09541 -0.09622,0.1972819 -0.09622,0.2255009 0,0.07428 0.212782,0.05129 0.454355,-0.04842 0.202865,-0.08429 0.522506,-0.4653019 0.522506,-0.6225499 0,-0.04271 -0.07085,-0.07747 -0.157687,-0.07747 -0.159681,0 -0.15634,-0.220721 0.0094,-0.623931 0.0416,-0.101263 0.02918,-0.174314 -0.0294,-0.174314 z m -11.638146,0.247635 c 0.03283,0.08752 0.002,0.150796 -0.07483,0.150796 -0.322745,0 -0.449673,1.2011719 -0.205795,1.9478849 0.06529,0.199804 0.06492,0.199804 -0.05346,0 -0.196271,-0.331325 -0.508158,-0.650218 -0.637432,-0.650218 -0.06693,0 -0.151665,0.135366 -0.187087,0.300207 -0.03539,0.164841 -0.106429,0.300207 -0.159024,0.300207 -0.05261,0 -0.06906,-0.04511 -0.03608,-0.09961 0.03294,-0.05451 0.01938,-0.173978 -0.03073,-0.265621 -0.08188,-0.149647 -0.102791,-0.144747 -0.203122,0.04704 -0.08714,0.166534 -0.07994,0.292858 0.03608,0.576896 0.187444,0.458567 0.186957,0.539542 -0.0054,0.539542 -0.203845,0 -0.121091,0.240255 0.09755,0.283605 0.192604,0.0382 0.545225,-0.248296 0.545225,-0.442702 0,-0.07066 0.04854,-0.158133 0.106907,-0.195064 0.152489,-0.0964 0.322699,0.110521 0.223168,0.271154 -0.04551,0.07346 -0.0835,0.16295 -0.08419,0.199216 -8.21e-4,0.03624 -0.124616,0.165129 -0.275284,0.286372 -0.348841,0.280659 -0.339696,0.728801 0.01604,0.780261 0.134192,0.0194 0.205835,-0.0074 0.171051,-0.06502 -0.03468,-0.05735 0.03735,-0.05346 0.17105,0.01107 0.126498,0.06107 0.275837,0.236921 0.332748,0.39013 0.09988,-0.0045 0.193744,-0.01713 0.283303,-0.03735 0.08956,0.02022 0.183423,0.03289 0.283303,0.03735 0.05692,-0.153209 0.206251,-0.329059 0.332748,-0.39013 0.1337,-0.06453 0.205726,-0.06842 0.171051,-0.01107 -0.03479,0.05763 0.03686,0.08442 0.171051,0.06502 0.355733,-0.05146 0.364877,-0.499602 0.01604,-0.780261 -0.150669,-0.121243 -0.274465,-0.250134 -0.275286,-0.286372 -6.84e-4,-0.03627 -0.03868,-0.125749 -0.08419,-0.199216 -0.09953,-0.160633 0.07068,-0.367557 0.223168,-0.271154 0.05837,0.03693 0.106908,0.124402 0.106908,0.195064 0,0.194406 0.352621,0.480901 0.545224,0.442702 0.218644,-0.04335 0.301399,-0.283605 0.09755,-0.283605 -0.192295,0 -0.192789,-0.08097 -0.0054,-0.539542 0.116011,-0.284038 0.123221,-0.410362 0.03608,-0.576896 -0.100332,-0.191789 -0.121245,-0.196685 -0.203123,-0.04704 -0.05012,0.09165 -0.06367,0.211108 -0.03073,0.265621 0.03297,0.05449 0.01652,0.09961 -0.03608,0.09961 -0.0526,0 -0.12363,-0.135366 -0.159024,-0.300207 -0.03542,-0.164841 -0.120151,-0.300207 -0.187087,-0.300207 -0.129273,0 -0.441162,0.318893 -0.637432,0.650218 -0.118374,0.199804 -0.118747,0.199804 -0.05346,0 0.243877,-0.746713 0.116951,-1.9478849 -0.205795,-1.9478849 -0.07682,0 -0.107663,-0.06327 -0.07483,-0.150796 -0.0109,0.01234 -0.01999,0.02497 -0.03073,0.03736 -0.01074,-0.01238 -0.01983,-0.02502 -0.03073,-0.03736 z M 3.1083783,9.0777131 c -0.183305,0.06531 -0.119732,1.3189339 0.08286,1.6352279 0.151141,0.235992 0.151959,0.257444 0.01069,0.201982 -0.19506,-0.07657 -0.201004,0.05792 -0.02005,0.412266 0.208546,0.408305 0.627,0.764326 1.302928,1.10952 0.335697,0.171435 0.609369,0.32768 0.609369,0.347243 0,0.108161 -0.930628,-0.165626 -1.142567,-0.336175 -0.388423,-0.313079 -0.565616,-0.262113 -0.311366,0.08993 0.116246,0.160789 0.186593,0.359186 0.156351,0.439935 -0.06144,0.163622 0.200411,0.441572 0.712266,0.755359 0.42667,0.262079 0.51827,0.264646 0.439655,0.01107 -0.08156,-0.262788 -0.03395,-0.252075 0.248559,0.05534 0.194204,0.211498 0.20237,0.24268 0.04945,0.182613 -0.13797,-0.05418 -0.163589,-0.03877 -0.104235,0.05949 0.07849,0.129892 -0.08983,0.114153 -0.668167,-0.06225 -0.151612,-0.04625 -0.168111,-0.01722 -0.108243,0.179848 0.15894,0.52345 0.419062,0.75371 1.06105,0.942124 0.346412,0.10129 0.606996,0.220996 0.57997,0.26562 -0.0598,0.09917 -0.717713,-0.012 -0.887327,-0.149412 -0.176456,-0.143081 -0.160412,0.224118 0.02138,0.489739 0.162567,0.237288 0.820375,0.581178 1.612957,0.841132 l 0.537208,0.175684 -0.489099,-0.04703 c -0.268577,-0.02553 -0.603648,-0.06354 -0.745675,-0.08578 -0.216968,-0.034 -0.25065,-0.01002 -0.208468,0.154945 0.07321,0.286517 0.569893,0.678957 0.932762,0.735991 0.172967,0.02719 0.53458,0.08775 0.803137,0.135577 l 0.487762,0.08715 -0.43698,0.127277 c -0.240651,0.0702 -0.606581,0.104387 -0.812492,0.07609 -0.365339,-0.05014 -0.370091,-0.04629 -0.233859,0.164629 0.197529,0.305903 0.670312,0.567894 1.213392,0.670969 l 0.466381,0.08854 -0.562598,-0.04012 c -0.308842,-0.02157 -0.56126,-0.0033 -0.56126,0.04012 0,0.04348 0.11631,0.198235 0.257913,0.343094 0.274229,0.280396 0.383354,0.301187 1.451261,0.275305 l 0.684203,-0.0166 -0.586652,0.261471 c -0.71151,0.317392 -0.830277,0.418692 -0.634759,0.542308 0.119373,0.07547 0.08284,0.158525 -0.208468,0.47037 -0.194567,0.208311 -0.519014,0.603756 -0.720286,0.878486 -0.912591,1.24569 -1.394095,1.647678 -1.973766,1.647678 -0.50341,0 -0.551575,0.164443 -0.07483,0.255937 0.477438,0.09162 1.126811,-0.0249 1.653046,-0.29744 0.638978,-0.330935 0.598361,-0.160567 -0.09221,0.394281 -0.190031,0.152657 -0.188118,0.15591 0.04944,0.09408 0.134282,-0.03495 0.453132,-0.193467 0.708258,-0.351395 0.488665,-0.302496 0.566716,-0.315117 0.306021,-0.04842 -0.220601,0.225685 -0.09206,0.311335 0.22985,0.152177 0.147931,-0.07315 0.345066,-0.123055 0.436982,-0.110675 0.09191,0.01235 0.373261,-0.171499 0.625404,-0.408114 0.258027,-0.242154 0.411947,-0.338429 0.351457,-0.22135 -0.05914,0.114408 -0.177085,0.265258 -0.260586,0.336175 -0.08353,0.07089 -0.151005,0.169 -0.151005,0.217201 0,0.195575 0.233103,0.06131 0.728302,-0.417799 0.3072007,-0.297219 0.5491647,-0.461892 0.5866507,-0.399815 0.03509,0.05804 0.01185,0.106525 -0.05078,0.106525 -0.06251,0 -0.08838,0.067 -0.05746,0.149411 0.03424,0.09128 4.98e-4,0.149412 -0.08686,0.149412 -0.07887,0 -0.142988,0.04334 -0.142988,0.09546 0,0.200491 0.597361,-0.127806 0.737657,-0.405348 0.189737,-0.375276 0.249135,-0.366295 0.172388,0.02629 -0.04404,0.225345 -0.02993,0.294506 0.05078,0.243485 0.06207,-0.03925 0.113588,-0.13839 0.113588,-0.219967 0,-0.08498 0.07092,-0.13577 0.167042,-0.118976 0.114406,0.02003 0.253232,-0.129695 0.436982,-0.470369 0.212849,-0.394663 0.270901,-0.44966 0.272612,-0.262854 0.0018,0.186274 0.04216,0.226265 0.195106,0.185381 0.158016,-0.04228 0.133206,0.02433 -0.137643,0.362461 -0.352543,0.439868 -0.547952,0.964258 -0.359474,0.964258 0.05952,0 0.108243,-0.04032 0.108243,-0.08993 0,-0.04957 0.143487,-0.139775 0.318048,-0.200598 l 0.316712,-0.110676 -0.320721,0.261471 c -0.437493,0.355365 -0.898557,1.201442 -0.892673,1.637995 l 0,0.0014 c 0.0043,0.311131 0.01809,0.328378 0.121607,0.159096 0.323013,-0.528267 0.737208,-0.886181 1.440569,-1.243714 l 0.775075,-0.394281 0,0.289139 c 0,0.159229 0.04382,0.290524 0.09755,0.290524 0.0537,0 0.09755,-0.09267 0.09755,-0.20475 0,-0.112083 0.08654,-0.377013 0.192432,-0.589346 0.242756,-0.48683 1.567461,-1.604792 1.901606,-1.604792 l -0.0067,-6.042871 -0.07216,-0.540927 C 15.797172,14.093608 15.64083,13.840707 14.91489,13.257114 14.287749,12.75293 13.88324,12.162818 13.88324,11.750546 c 0,-0.112085 -0.04382,-0.204749 -0.09755,-0.204749 -0.05371,0 -0.09755,0.131306 -0.09755,0.290523 l 0,0.289139 -0.775075,-0.394281 c -0.703362,-0.35749 -1.117563,-0.715454 -1.44057,-1.243714 -0.103505,-0.169288 -0.117501,-0.150659 -0.121606,0.160479 -0.0061,0.436539 0.455207,1.282608 0.892673,1.637994 l 0.322056,0.261471 -0.318048,-0.110675 c -0.174561,-0.06081 -0.316712,-0.151002 -0.316712,-0.200599 0,-0.04959 -0.0487,-0.08993 -0.108243,-0.08993 -0.188477,0 0.0059,0.523042 0.358139,0.962874 0.270849,0.338097 0.296988,0.406132 0.138978,0.363845 -0.106749,-0.02859 -0.193768,-0.0096 -0.193768,0.0415 0,0.102685 0.401925,0.501938 0.78042,0.774727 l 0.244549,0.175697 -0.277958,-0.06502 c -0.372056,-0.08708 -0.305651,0.116967 0.138979,0.4261 l 0.334084,0.232419 -0.292658,-0.06779 c -0.291949,-0.06687 -0.632911,-0.386981 -1.15192,-1.081852 -0.326023,-0.436517 -1.086531,-0.905552 -1.826771,-1.127505 -1.2364937,-0.370735 -2.5864437,-1.345528 -2.9439477,-2.124966 -0.126304,-0.275381 -0.257288,-0.502831 -0.291321,-0.504956 -0.132441,-0.0088 -0.158394,0.562034 -0.03875,0.854968 0.25247,0.61801 1.533645,1.754504 2.588482,2.296512 0.526358,0.270459 0.562578,0.441317 0.09354,0.441317 -0.380144,0 -0.36457,0.147081 0.03073,0.294674 0.5997997,0.223943 0.8062477,0.361449 0.8312007,0.557526 0.07259,0.571382 -0.3757827,0.611404 -1.6356747,0.146645 -0.881681,-0.325243 -0.8963,-0.334548 -0.648077,-0.4676 0.341294,-0.18291 0.432093,-0.577059 0.195105,-0.848049 -0.100372,-0.114748 -0.493428,-0.444049 -0.872627,-0.73184 -0.581669,-0.441498 -0.736735,-0.625742 -0.995571,-1.180075 l -0.307324,-0.657164 -0.674849,-0.204748 c -0.805698,-0.245484 -0.860333,-0.249825 -0.932763,-0.05673 -0.08119,0.216463 -0.289616,0.185073 -0.534534,-0.08162 -0.228277,-0.248569 -0.196609,-0.389159 0.06682,-0.297438 0.08875,0.03089 -0.02269,-0.132904 -0.248559,-0.3638439 -0.225876,-0.230942 -0.439263,-0.50943 -0.473062,-0.618399 -0.03381,-0.108996 -0.112456,-0.179989 -0.175061,-0.157713 z m 25.7832577,0 c -0.0626,-0.02227 -0.141253,0.04872 -0.175059,0.157713 -0.0338,0.108969 -0.247187,0.387456 -0.473064,0.618399 -0.225877,0.2309409 -0.337306,0.3947409 -0.248558,0.3638439 0.263428,-0.09172 0.295094,0.04886 0.06682,0.29744 -0.244918,0.266697 -0.45334,0.298086 -0.534534,0.08162 -0.07243,-0.193101 -0.127065,-0.188762 -0.932763,0.05673 l -0.674848,0.204749 -0.307358,0.657135 c -0.258835,0.554332 -0.413901,0.738578 -0.99557,1.180075 -0.379199,0.287791 -0.772255,0.617092 -0.872627,0.73184 -0.236988,0.27099 -0.146189,0.66514 0.195105,0.84805 0.248222,0.133051 0.233604,0.142356 -0.648123,0.467603 -1.259892,0.464758 -1.708269,0.424737 -1.635675,-0.146645 0.02495,-0.196078 0.231401,-0.333583 0.831201,-0.557526 0.395305,-0.147593 0.410879,-0.294673 0.03073,-0.294673 -0.469035,0 -0.432814,-0.17086 0.09354,-0.441318 1.054837,-0.542008 2.336011,-1.678502 2.588482,-2.296513 0.11964,-0.292933 0.09369,-0.86375 -0.03875,-0.854967 -0.03403,0.0021 -0.165017,0.229575 -0.291321,0.504956 -0.357504,0.779438 -1.707454,1.75423 -2.943947,2.124966 -0.74024,0.221953 -1.500749,0.690987 -1.826772,1.127505 -0.519009,0.694871 -0.85997,1.014986 -1.15192,1.081851 l -0.292658,0.06779 0.334084,-0.232418 c 0.44463,-0.309133 0.511036,-0.513182 0.138979,-0.426101 l -0.277958,0.06502 0.244549,-0.175696 c 0.378495,-0.272789 0.78042,-0.672042 0.78042,-0.774728 0,-0.05106 -0.08702,-0.07008 -0.193768,-0.0415 -0.15801,0.04229 -0.13187,-0.02574 0.138978,-0.363845 0.352323,-0.439832 0.546617,-0.962876 0.358139,-0.962876 -0.05954,0 -0.108243,0.04033 -0.108243,0.08993 0,0.04959 -0.142151,0.13979 -0.316712,0.2006 l -0.318048,0.110675 0.322056,-0.261471 c 0.437467,-0.355386 0.898694,-1.201456 0.892673,-1.637994 -0.0041,-0.311138 -0.0181,-0.329769 -0.121606,-0.160479 -0.323007,0.52826 -0.737208,0.886223 -1.44057,1.243713 l -0.775075,0.394281 0,-0.289139 c 0,-0.159217 -0.04385,-0.290524 -0.09755,-0.290524 -0.05374,0 -0.09755,0.09267 -0.09755,0.204751 0,0.412272 -0.40451,1.002384 -1.03165,1.506567 -0.725941,0.583594 -0.882281,0.836495 -0.983543,1.595108 l -0.07216,0.540925 -0.0067,6.042872 c 0.334145,0 1.65885,1.117963 1.901606,1.604792 0.105887,0.212334 0.192432,0.477263 0.192432,0.589346 0,0.112084 0.04385,0.204749 0.09755,0.204749 0.05374,0 0.09755,-0.131293 0.09755,-0.290522 l 0,-0.28914 0.775075,0.394281 c 0.703361,0.357533 1.117556,0.715447 1.440569,1.243713 0.103509,0.169282 0.117296,0.152036 0.121607,-0.159095 l 0,-0.0014 c 0.0059,-0.436553 -0.45518,-1.28263 -0.892673,-1.637995 l -0.320721,-0.261471 0.316712,0.110675 c 0.174561,0.06083 0.318049,0.151032 0.318049,0.2006 0,0.04959 0.04873,0.08993 0.108243,0.08993 0.188477,0 -0.0069,-0.524391 -0.359475,-0.964259 -0.270849,-0.338138 -0.295659,-0.404734 -0.137642,-0.362462 0.152944,0.04088 0.193326,9.21e-4 0.195105,-0.185381 0.0018,-0.186806 0.05976,-0.131808 0.272612,0.262854 0.18375,0.340675 0.322576,0.490394 0.436982,0.47037 0.09612,-0.0168 0.167042,0.034 0.167042,0.118977 0,0.08158 0.05152,0.180712 0.113588,0.219967 0.08071,0.05102 0.09482,-0.01814 0.05078,-0.243486 -0.07675,-0.39258 -0.01735,-0.401562 0.172387,-0.02629 0.140296,0.277542 0.737658,0.605839 0.737658,0.405349 0,-0.05212 -0.06412,-0.09546 -0.142988,-0.09546 -0.08736,0 -0.121099,-0.05813 -0.08686,-0.149411 0.03092,-0.08242 0.0051,-0.149413 -0.05746,-0.149413 -0.06262,0 -0.08587,-0.04848 -0.05078,-0.106524 0.03749,-0.06208 0.27945,0.102595 0.586651,0.399814 0.495199,0.479112 0.728302,0.613375 0.728302,0.4178 0,-0.0482 -0.06747,-0.146312 -0.151005,-0.217201 -0.0835,-0.07091 -0.201444,-0.221768 -0.260586,-0.336176 -0.06049,-0.117078 0.09343,-0.0208 0.351457,0.221351 0.252143,0.236615 0.533495,0.420475 0.625404,0.408115 0.09192,-0.01239 0.289051,0.03753 0.436982,0.110675 0.321911,0.159158 0.450451,0.0735 0.22985,-0.152178 -0.260695,-0.266697 -0.182644,-0.254076 0.306021,0.04842 0.255126,0.157928 0.573976,0.316438 0.708258,0.351394 0.237559,0.06184 0.239474,0.05859 0.04945,-0.09408 -0.690567,-0.554848 -0.731185,-0.725215 -0.09221,-0.39428 0.526235,0.272543 1.17561,0.389062 1.653047,0.297441 0.47674,-0.0915 0.428575,-0.255938 -0.07483,-0.255938 -0.579671,10e-7 -1.061176,-0.401987 -1.973767,-1.647678 -0.201272,-0.27473 -0.525718,-0.670176 -0.720285,-0.878486 -0.291307,-0.311846 -0.327841,-0.394898 -0.208468,-0.470369 0.195518,-0.123617 0.07675,-0.224918 -0.63476,-0.54231 l -0.586652,-0.26147 0.684204,0.0166 c 1.067906,0.02588 1.177032,0.0051 1.451261,-0.275305 0.141603,-0.144859 0.257912,-0.299609 0.257912,-0.343093 0,-0.04345 -0.252417,-0.0617 -0.56126,-0.04012 l -0.562597,0.04012 0.466381,-0.08854 c 0.54308,-0.103075 1.015862,-0.365067 1.213392,-0.67097 0.136232,-0.210919 0.13148,-0.214765 -0.233859,-0.16463 -0.205911,0.02829 -0.571843,-0.0059 -0.812492,-0.07609 l -0.43698,-0.127276 0.487762,-0.08715 c 0.268557,-0.04782 0.63017,-0.108384 0.803137,-0.135577 0.362867,-0.05703 0.859553,-0.449475 0.932763,-0.735991 0.04219,-0.165004 0.0085,-0.188945 -0.208469,-0.154945 -0.142027,0.02223 -0.477098,0.06025 -0.745676,0.08578 l -0.489098,0.04704 0.537207,-0.175697 c 0.792581,-0.259954 1.45039,-0.603845 1.612957,-0.841132 0.181793,-0.265621 0.197838,-0.632819 0.02139,-0.489738 -0.169614,0.137413 -0.827527,0.248577 -0.887327,0.149412 -0.02703,-0.04462 0.233557,-0.164331 0.579969,-0.265621 0.641989,-0.188413 0.90211,-0.418674 1.061051,-0.942123 0.05987,-0.197068 0.04337,-0.226102 -0.108243,-0.179848 -0.578344,0.176407 -0.746652,0.192147 -0.668167,0.06225 0.05936,-0.09825 0.03374,-0.113667 -0.104235,-0.05949 -0.152923,0.06007 -0.14476,0.02889 0.04945,-0.182614 0.282509,-0.307436 0.330115,-0.318146 0.248558,-0.05536 -0.07861,0.253576 0.01299,0.251011 0.439655,-0.01107 0.511856,-0.313786 0.773708,-0.591736 0.712267,-0.755358 -0.03024,-0.08075 0.0401,-0.279146 0.156351,-0.439935 0.25425,-0.352036 0.07705,-0.403002 -0.311366,-0.08993 -0.211939,0.17055 -1.142567,0.444337 -1.142567,0.336176 0,-0.01956 0.273671,-0.175808 0.609369,-0.347244 0.675929,-0.345193 1.094382,-0.701214 1.302927,-1.109519 0.180956,-0.354346 0.175015,-0.488835 -0.02005,-0.412266 -0.141265,0.05546 -0.14045,0.03401 0.01069,-0.201982 0.202586,-0.316294 0.266158,-1.5699209 0.08286,-1.6352279 z M 5.0220113,11.307821 c 0.05172,-0.01198 0.169801,0.01796 0.343438,0.09269 0.17892,0.07721 0.393479,0.281414 0.487762,0.463453 0.09264,0.179205 0.306532,0.47307 0.475736,0.652983 l 0,0.0014 c 0.169184,0.180034 0.279457,0.324467 0.244549,0.322342 -0.15244,-0.0096 -0.673142,-0.342374 -0.942116,-0.601797 -0.161137,-0.155406 -0.402932,-0.325976 -0.537207,-0.380446 -0.170387,-0.06911 -0.192775,-0.102346 -0.0735,-0.106526 0.198433,-0.0074 0.220417,-0.115534 0.05612,-0.283605 -0.09162,-0.09373 -0.106505,-0.148496 -0.05478,-0.160479 z m 21.9559917,0 c 0.05172,0.01198 0.03683,0.06675 -0.0548,0.160479 -0.164292,0.168071 -0.142306,0.276253 0.05612,0.283605 0.119278,0.0041 0.09689,0.03741 -0.0735,0.106526 -0.134275,0.05447 -0.376069,0.22504 -0.537206,0.380445 -0.268974,0.259423 -0.789677,0.592186 -0.942116,0.601798 -0.0349,0.0021 0.07537,-0.142308 0.244549,-0.322342 l 0,-0.0014 c 0.169203,-0.179914 0.383093,-0.473778 0.475734,-0.652984 0.09428,-0.182039 0.308844,-0.386246 0.487763,-0.463453 0.173638,-0.07473 0.291719,-0.104676 0.343438,-0.09269 z m -11.142365,0.08993 c 0.05536,-0.035 0.0721,0.0052 0.03876,0.09408 -0.06492,0.173077 -0.134969,0.204575 -0.134969,0.06088 0,-0.0517 0.04315,-0.121357 0.09622,-0.154946 z m 0.276621,0 c 0.0069,-0.01678 0.02444,-0.01751 0.05212,0 0.05307,0.03358 0.09622,0.103245 0.09622,0.154946 0,0.143702 -0.07005,0.112206 -0.13497,-0.06088 -0.01666,-0.04445 -0.0203,-0.0773 -0.01336,-0.09408 z"
     id="path4319" />
  <path
     style="opacity:0.1;fill:#ffffff"
     inkscape:connector-curvature="0"
     id="rect4632"
     d="M 3.5,2 C 2.669,2 2,2.669 2,3.5 l 0,1 C 2,3.669 2.669,3 3.5,3 l 25,0 C 29.331,3 30,3.669 30,4.5 l 0,-1 C 30,2.669 29.331,2 28.5,2 l -25,0 z" />
  <path
     style="opacity:0.3"
     inkscape:connector-curvature="0"
     id="rect4379"
     d="m 2,27.5 0,1 C 2,29.331 2.669,30 3.5,30 l 25,0 c 0.831,0 1.5,-0.669 1.5,-1.5 l 0,-1 c 0,0.831 -0.669,1.5 -1.5,1.5 l -25,0 C 2.669,29 2,28.331 2,27.5 Z" />
  <path
     style="opacity:0.15;fill:url(#linearGradient4364);fill-opacity:1"
     d="m 30,28.5 0,-25 C 30,2.669 29.331,2 28.5,2 L 16,2 l 0,28 12.5,0 c 0.831,0 1.5,-0.669 1.5,-1.5 z"
     id="rect4355"
     inkscape:connector-curvature="0"
     sodipodi:nodetypes="sssccss" />
</svg>
