<?xml version="1.0" encoding="UTF-8" standalone="no"?>
<!-- Created with Inkscape (http://www.inkscape.org/) -->
<svg id="svg4572" xmlns:rdf="http://www.w3.org/1999/02/22-rdf-syntax-ns#" xmlns="http://www.w3.org/2000/svg" height="32" width="32" version="1.1" xmlns:cc="http://creativecommons.org/ns#" xmlns:dc="http://purl.org/dc/elements/1.1/" viewBox="0 0 32 32.000001">
 <metadata id="metadata4577">
  <rdf:RDF>
   <cc:Work rdf:about="">
    <dc:format>image/svg+xml</dc:format>
    <dc:type rdf:resource="http://purl.org/dc/dcmitype/StillImage"/>
    <dc:title/>
   </cc:Work>
  </rdf:RDF>
 </metadata>
 <g id="layer1" transform="translate(0 -1020.4)">
  <g id="g4560" transform="translate(0 1020.4)">
   <path id="rect4255-8" d="m27 28.5v-25c0-0.831-0.669-1.5-1.5-1.5h-19c-0.831 0-1.5 0.669-1.5 1.5v25c0 0.831 0.669 1.5 1.5 1.5h19c0.831 0 1.5-0.669 1.5-1.5z" fill="#5fbb20"/>
   <path id="rect4208" opacity=".1" d="m6.5 2c-0.831 0-1.5 0.669-1.5 1.5v1c0-0.831 0.669-1.5 1.5-1.5h19c0.831 0 1.5 0.669 1.5 1.5v-1c0-0.831-0.669-1.5-1.5-1.5z" fill="#fff"/>
   <path id="path4009" style="enable-background:new" d="m25.625 30c0.762 0 1.375-0.657 1.375-1.474v-12.526h-22v12.526c0 0.817 0.6132 1.474 1.375 1.474z" fill="#209dbb"/>
   <path id="rect4467" fill="#4c4c4c" d="m9 6h14v1h-14z"/>
   <path id="path5246" fill="#4c4c4c" d="m9 9h14v1h-14z"/>
   <path id="path5248" fill="#4c4c4c" d="m9 12h14v1h-14z"/>
   <path id="path5257" fill="#fff" d="m9 19h14v1h-14z"/>
   <path id="path5259" fill="#fff" d="m9 22h14v1h-14z"/>
   <path id="path5261" fill="#fff" d="m9 25h14v1h-14z"/>
   <path id="rect4313" opacity=".3" d="m5 27.5v1c0 0.831 0.669 1.5 1.5 1.5h19c0.831 0 1.5-0.669 1.5-1.5v-1c0 0.831-0.669 1.5-1.5 1.5h-19c-0.831 0-1.5-0.669-1.5-1.5z"/>
  </g>
 </g>
</svg>
