<?xml version="1.0" encoding="UTF-8" standalone="no"?>
<!-- Created with Inkscape (http://www.inkscape.org/) -->

<svg
   xmlns:dc="http://purl.org/dc/elements/1.1/"
   xmlns:cc="http://creativecommons.org/ns#"
   xmlns:rdf="http://www.w3.org/1999/02/22-rdf-syntax-ns#"
   xmlns:svg="http://www.w3.org/2000/svg"
   xmlns="http://www.w3.org/2000/svg"
   xmlns:xlink="http://www.w3.org/1999/xlink"
   xmlns:sodipodi="http://sodipodi.sourceforge.net/DTD/sodipodi-0.dtd"
   xmlns:inkscape="http://www.inkscape.org/namespaces/inkscape"
   id="svg2817"
   height="32"
   width="32"
   version="1.0"
   inkscape:version="0.91 r13725"
   sodipodi:docname="otter-browser.svg">
  <defs
     id="defs218">
    <linearGradient
       inkscape:collect="always"
       xlink:href="#linearGradient4715"
       id="linearGradient4721"
       x1="24.450779"
       y1="22.184124"
       x2="24.813498"
       y2="35.787064"
       gradientUnits="userSpaceOnUse"
       gradientTransform="matrix(0.69999982,0,0,0.69999982,-0.19999732,0.40000676)" />
    <linearGradient
       inkscape:collect="always"
       id="linearGradient4715">
      <stop
         style="stop-color:#c38a39;stop-opacity:1;"
         offset="0"
         id="stop4717" />
      <stop
         style="stop-color:#c38a39;stop-opacity:0;"
         offset="1"
         id="stop4719" />
    </linearGradient>
    <filter
       inkscape:collect="always"
       id="filter4085"
       x="-0.045958582"
       width="1.0919172"
       y="-0.16613898"
       height="1.332278">
      <feGaussianBlur
         inkscape:collect="always"
         stdDeviation="2.7316268"
         id="feGaussianBlur4087" />
    </filter>
    <radialGradient
       inkscape:collect="always"
       xlink:href="#linearGradient3924"
       id="radialGradient3932"
       cx="210.9041"
       cy="744.07831"
       fx="210.9041"
       fy="744.07831"
       r="24.991377"
       gradientTransform="matrix(0.03989615,0,0,0.03152982,6.5052389,-8.5633159)"
       gradientUnits="userSpaceOnUse" />
    <linearGradient
       id="linearGradient3924">
      <stop
         style="stop-color:#ffffff;stop-opacity:1;"
         offset="0"
         id="stop3926" />
      <stop
         style="stop-color:#c9d4e6;stop-opacity:1;"
         offset="1"
         id="stop3928" />
    </linearGradient>
    <linearGradient
       inkscape:collect="always"
       xlink:href="#linearGradient4241"
       id="linearGradient4247"
       x1="182.25566"
       y1="723.83667"
       x2="229.50136"
       y2="723.83667"
       gradientUnits="userSpaceOnUse"
       gradientTransform="matrix(0.03989615,0,0,0.03989615,6.5052389,-14.78852)" />
    <linearGradient
       id="linearGradient4241">
      <stop
         style="stop-color:#000000;stop-opacity:1;"
         offset="0"
         id="stop4243" />
      <stop
         style="stop-color:#743800;stop-opacity:0.54901963;"
         offset="1"
         id="stop4245" />
    </linearGradient>
    <linearGradient
       inkscape:collect="always"
       xlink:href="#linearGradient3905"
       id="linearGradient3929"
       gradientUnits="userSpaceOnUse"
       x1="127.71897"
       y1="767.60815"
       x2="143.92509"
       y2="796.83856"
       gradientTransform="matrix(0.09700552,0.12576441,-0.08868234,0.08499467,72.498862,-62.146926)" />
    <linearGradient
       id="linearGradient3905">
      <stop
         id="stop3907"
         offset="0"
         style="stop-color:#ffffff;stop-opacity:1;" />
      <stop
         id="stop3909"
         offset="1"
         style="stop-color:#c59641;stop-opacity:0;" />
    </linearGradient>
    <radialGradient
       inkscape:collect="always"
       xlink:href="#linearGradient4145"
       id="radialGradient4171"
       cx="187.75626"
       cy="978.42615"
       fx="187.75626"
       fy="978.42615"
       r="35.24752"
       gradientTransform="matrix(0.04134953,0.02250329,-0.01633555,0.03001637,22.399069,-10.225081)"
       gradientUnits="userSpaceOnUse" />
    <linearGradient
       id="linearGradient4145">
      <stop
         style="stop-color:#9b6534;stop-opacity:1;"
         offset="0"
         id="stop4147" />
      <stop
         style="stop-color:#e6a556;stop-opacity:0;"
         offset="1"
         id="stop4149" />
    </linearGradient>
    <linearGradient
       inkscape:collect="always"
       xlink:href="#linearGradient4145"
       id="linearGradient5824"
       gradientUnits="userSpaceOnUse"
       gradientTransform="matrix(0.04603058,0.00172038,-0.00185097,0.0495245,7.3046375,-25.922546)"
       x1="248.86356"
       y1="966.33557"
       x2="123.4153"
       y2="1014.9003" />
    <radialGradient
       inkscape:collect="always"
       xlink:href="#linearGradient4145"
       id="radialGradient3919"
       gradientUnits="userSpaceOnUse"
       gradientTransform="matrix(-0.04134953,0.02250329,0.01633555,0.03001637,11.522047,-10.461309)"
       cx="187.75626"
       cy="978.42615"
       fx="187.75626"
       fy="978.42615"
       r="35.24752" />
    <linearGradient
       inkscape:collect="always"
       xlink:href="#linearGradient4145"
       id="linearGradient3921"
       gradientUnits="userSpaceOnUse"
       gradientTransform="matrix(-0.04603058,0.00172038,0.00185097,0.0495245,26.616478,-26.158773)"
       x1="248.86356"
       y1="966.33557"
       x2="123.4153"
       y2="1014.9003" />
  </defs>
  <sodipodi:namedview
     pagecolor="#ffffff"
     bordercolor="#666666"
     borderopacity="1"
     objecttolerance="10"
     gridtolerance="10"
     guidetolerance="10"
     inkscape:pageopacity="0"
     inkscape:pageshadow="2"
     inkscape:window-width="1600"
     inkscape:window-height="843"
     id="namedview216"
     showgrid="false"
     inkscape:zoom="9.28"
     inkscape:cx="-12.829268"
     inkscape:cy="16"
     inkscape:window-x="0"
     inkscape:window-y="31"
     inkscape:window-maximized="1"
     inkscape:current-layer="svg2817" />
  <metadata
     id="metadata57">
    <rdf:RDF>
      <cc:Work
         rdf:about="">
        <dc:format>image/svg+xml</dc:format>
        <dc:type
           rdf:resource="http://purl.org/dc/dcmitype/StillImage" />
        <dc:title />
      </cc:Work>
    </rdf:RDF>
  </metadata>
  <text
     id="text4087-2-6-5"
     opacity=".8"
     font-size="12.666px"
     xml:space="preserve"
     y="-5.1873989"
     x="877.22626"
     font-family="'Bitstream Vera Sans'"
     fill="#000000"><tspan
       id="tspan4089-7-2-9"
       y="-5.1873989"
       x="877.22626" /></text>
  <text
     id="text4087-2-6-5-5"
     opacity=".8"
     font-size="12.666px"
     xml:space="preserve"
     y="-45.929108"
     x="901.18719"
     font-family="'Bitstream Vera Sans'"
     fill="#000000"><tspan
       id="tspan4089-7-2-9-6"
       y="-45.929108"
       x="901.18719" /></text>
  <text
     id="text4087-2-6-5-2"
     opacity=".8"
     font-size="12.666px"
     xml:space="preserve"
     y="-76.007248"
     x="-569.37115"
     font-family="'Bitstream Vera Sans'"
     fill="#000000"><tspan
       id="tspan4089-7-2-9-2"
       y="-76.007248"
       x="-569.37115" /></text>
  <text
     id="text4087-2-6-5-59"
     opacity=".8"
     font-size="12.666px"
     xml:space="preserve"
     y="669.5462"
     x="-2393.0571"
     font-family="'Bitstream Vera Sans'"
     fill="#000000"><tspan
       id="tspan4089-7-2-9-4"
       y="669.5462"
       x="-2393.0571" /></text>
  <text
     id="text4087-2-6-5-1"
     opacity=".8"
     font-size="12.666px"
     xml:space="preserve"
     y="-461.32822"
     x="-454.88007"
     font-family="'Bitstream Vera Sans'"
     fill="#000000"><tspan
       id="tspan4089-7-2-9-7"
       y="-461.32822"
       x="-454.88007" /></text>
  <text
     id="text4087-2-6-5-7"
     opacity=".8"
     font-size="12.666px"
     xml:space="preserve"
     y="-874.79834"
     x="352.72208"
     font-family="'Bitstream Vera Sans'"
     fill="#000000"><tspan
       id="tspan4089-7-2-9-1"
       y="-874.79834"
       x="352.72208" /></text>
  <text
     id="text4087-2-6-5-5-3"
     opacity=".8"
     font-size="12.666px"
     xml:space="preserve"
     y="-915.54004"
     x="376.68301"
     font-family="'Bitstream Vera Sans'"
     fill="#000000"><tspan
       id="tspan4089-7-2-9-6-5"
       y="-915.54004"
       x="376.68301" /></text>
  <text
     id="text4087-2-6-5-3"
     opacity=".8"
     font-size="12.666px"
     xml:space="preserve"
     y="-922.74994"
     x="-1114.7802"
     font-family="'Bitstream Vera Sans'"
     fill="#000000"><tspan
       id="tspan4089-7-2-9-18"
       y="-922.74994"
       x="-1114.7802" /></text>
  <text
     id="text4087-2-6-5-4"
     opacity=".8"
     font-size="12.666px"
     xml:space="preserve"
     y="-1195.9841"
     x="345.7626"
     font-family="'Bitstream Vera Sans'"
     fill="#000000"><tspan
       id="tspan4089-7-2-9-9"
       y="-1195.9841"
       x="345.7626" /></text>
  <text
     id="text4087-2-6-5-7-1"
     opacity=".8"
     font-size="12.666px"
     xml:space="preserve"
     y="-569.29272"
     x="1831.8861"
     font-family="'Bitstream Vera Sans'"
     fill="#000000"><tspan
       id="tspan4089-7-2-9-1-8"
       y="-569.29272"
       x="1831.8861" /></text>
  <text
     id="text4087-2-6-5-5-5"
     opacity=".8"
     font-size="12.666px"
     xml:space="preserve"
     y="-610.03448"
     x="1855.8469"
     font-family="'Bitstream Vera Sans'"
     fill="#000000"><tspan
       id="tspan4089-7-2-9-6-9"
       y="-610.03448"
       x="1855.8469" /></text>
  <text
     id="text4087-2-6-5-75"
     opacity=".8"
     font-size="12.666px"
     xml:space="preserve"
     y="-617.24438"
     x="364.38376"
     font-family="'Bitstream Vera Sans'"
     fill="#000000"><tspan
       id="tspan4089-7-2-9-3"
       y="-617.24438"
       x="364.38376" /></text>
  <text
     id="text4087-2-6-5-4-8"
     opacity=".8"
     font-size="12.666px"
     xml:space="preserve"
     y="-890.47839"
     x="1824.9266"
     font-family="'Bitstream Vera Sans'"
     fill="#000000"><tspan
       id="tspan4089-7-2-9-9-8"
       y="-890.47839"
       x="1824.9266" /></text>
  <text
     id="text4087-2-6-5-45"
     opacity=".8"
     font-size="12.666px"
     xml:space="preserve"
     y="-665.33569"
     x="-573.43256"
     font-family="'Bitstream Vera Sans'"
     fill="#000000"><tspan
       id="tspan4089-7-2-9-75"
       y="-665.33569"
       x="-573.43256" /></text>
  <text
     id="text4087-2-6-5-59-7"
     opacity=".8"
     font-size="12.666px"
     xml:space="preserve"
     y="80.217857"
     x="-2397.1182"
     font-family="'Bitstream Vera Sans'"
     fill="#000000"><tspan
       id="tspan4089-7-2-9-4-0"
       y="80.217857"
       x="-2397.1182" /></text>
  <text
     id="text4087-2-6-5-8"
     opacity=".8"
     font-size="12.666px"
     xml:space="preserve"
     y="173.09"
     x="-682.36279"
     font-family="'Bitstream Vera Sans'"
     fill="#000000"><tspan
       id="tspan4089-7-2-9-19"
       y="173.09"
       x="-682.36279" /></text>
  <text
     id="text4087-2-6-5-7-5"
     opacity=".8"
     font-size="12.666px"
     xml:space="preserve"
     y="-6.0921478"
     x="426.66153"
     font-family="'Bitstream Vera Sans'"
     fill="#000000"><tspan
       id="tspan4089-7-2-9-1-2"
       y="-6.0921478"
       x="426.66153" /></text>
  <text
     id="text4087-2-6-5-5-0"
     opacity=".8"
     font-size="12.666px"
     xml:space="preserve"
     y="-46.833855"
     x="450.62247"
     font-family="'Bitstream Vera Sans'"
     fill="#000000"><tspan
       id="tspan4089-7-2-9-6-2"
       y="-46.833855"
       x="450.62247" /></text>
  <text
     id="text4087-2-6-5-26"
     opacity=".8"
     font-size="12.666px"
     xml:space="preserve"
     y="-54.043827"
     x="-1040.8407"
     font-family="'Bitstream Vera Sans'"
     fill="#000000"><tspan
       id="tspan4089-7-2-9-90"
       y="-54.043827"
       x="-1040.8407" /></text>
  <text
     id="text4087-2-6-5-4-3"
     opacity=".8"
     font-size="12.666px"
     xml:space="preserve"
     y="-327.27789"
     x="419.70206"
     font-family="'Bitstream Vera Sans'"
     fill="#000000"><tspan
       id="tspan4089-7-2-9-9-5"
       y="-327.27789"
       x="419.70206" /></text>
  <text
     id="text4087-2-6-5-55"
     opacity=".8"
     font-size="12.666px"
     xml:space="preserve"
     y="-56.758072"
     x="-608.03253"
     font-family="'Bitstream Vera Sans'"
     fill="#000000"><tspan
       id="tspan4089-7-2-9-32"
       y="-56.758072"
       x="-608.03253" /></text>
  <text
     id="text4087-2-6-5-59-9"
     opacity=".8"
     font-size="12.666px"
     xml:space="preserve"
     y="688.79541"
     x="-2431.7185"
     font-family="'Bitstream Vera Sans'"
     fill="#000000"><tspan
       id="tspan4089-7-2-9-4-1"
       y="688.79541"
       x="-2431.7185" /></text>
  <text
     id="text4087-2-6-5-1-8"
     opacity=".8"
     font-size="12.666px"
     xml:space="preserve"
     y="-918.28857"
     x="-456.93948"
     font-family="'Bitstream Vera Sans'"
     fill="#000000"><tspan
       id="tspan4089-7-2-9-7-8"
       y="-918.28857"
       x="-456.93948" /></text>
  <text
     id="text4087-2-6-5-7-8"
     opacity=".8"
     font-size="12.666px"
     xml:space="preserve"
     y="-1331.7588"
     x="350.66266"
     font-family="'Bitstream Vera Sans'"
     fill="#000000"><tspan
       id="tspan4089-7-2-9-1-9"
       y="-1331.7588"
       x="350.66266" /></text>
  <text
     id="text4087-2-6-5-5-52"
     opacity=".8"
     font-size="12.666px"
     xml:space="preserve"
     y="-1372.5005"
     x="374.62357"
     font-family="'Bitstream Vera Sans'"
     fill="#000000"><tspan
       id="tspan4089-7-2-9-6-4"
       y="-1372.5005"
       x="374.62357" /></text>
  <text
     id="text4087-2-6-5-3-4"
     opacity=".8"
     font-size="12.666px"
     xml:space="preserve"
     y="-1379.7104"
     x="-1116.8396"
     font-family="'Bitstream Vera Sans'"
     fill="#000000"><tspan
       id="tspan4089-7-2-9-18-3"
       y="-1379.7104"
       x="-1116.8396" /></text>
  <text
     id="text4087-2-6-5-4-7"
     opacity=".8"
     font-size="12.666px"
     xml:space="preserve"
     y="-1652.9446"
     x="343.70316"
     font-family="'Bitstream Vera Sans'"
     fill="#000000"><tspan
       id="tspan4089-7-2-9-9-54"
       y="-1652.9446"
       x="343.70316" /></text>
  <text
     id="text4087-2-6-5-7-1-2"
     opacity=".8"
     font-size="12.666px"
     xml:space="preserve"
     y="-1026.2533"
     x="1829.8265"
     font-family="'Bitstream Vera Sans'"
     fill="#000000"><tspan
       id="tspan4089-7-2-9-1-8-0"
       y="-1026.2533"
       x="1829.8265" /></text>
  <text
     id="text4087-2-6-5-5-5-6"
     opacity=".8"
     font-size="12.666px"
     xml:space="preserve"
     y="-1066.9949"
     x="1853.7874"
     font-family="'Bitstream Vera Sans'"
     fill="#000000"><tspan
       id="tspan4089-7-2-9-6-9-8"
       y="-1066.9949"
       x="1853.7874" /></text>
  <text
     id="text4087-2-6-5-75-4"
     opacity=".8"
     font-size="12.666px"
     xml:space="preserve"
     y="-1074.2048"
     x="362.32431"
     font-family="'Bitstream Vera Sans'"
     fill="#000000"><tspan
       id="tspan4089-7-2-9-3-9"
       y="-1074.2048"
       x="362.32431" /></text>
  <text
     id="text4087-2-6-5-4-8-1"
     opacity=".8"
     font-size="12.666px"
     xml:space="preserve"
     y="-1347.439"
     x="1822.8671"
     font-family="'Bitstream Vera Sans'"
     fill="#000000"><tspan
       id="tspan4089-7-2-9-9-8-8"
       y="-1347.439"
       x="1822.8671" /></text>
  <text
     id="text4087-2-6-5-45-0"
     opacity=".8"
     font-size="12.666px"
     xml:space="preserve"
     y="-1122.2961"
     x="-575.492"
     font-family="'Bitstream Vera Sans'"
     fill="#000000"><tspan
       id="tspan4089-7-2-9-75-2"
       y="-1122.2961"
       x="-575.492" /></text>
  <text
     id="text4087-2-6-5-59-5"
     opacity=".8"
     font-size="12.666px"
     xml:space="preserve"
     y="-376.74261"
     x="-2399.1777"
     font-family="'Bitstream Vera Sans'"
     fill="#000000"><tspan
       id="tspan4089-7-2-9-4-00"
       y="-376.74261"
       x="-2399.1777" /></text>
  <text
     id="text4087-2-6-5-264"
     opacity=".8"
     font-size="12.666px"
     xml:space="preserve"
     y="-283.87045"
     x="-684.42224"
     font-family="'Bitstream Vera Sans'"
     fill="#000000"><tspan
       id="tspan4089-7-2-9-8"
       y="-283.87045"
       x="-684.42224" /></text>
  <text
     id="text4087-2-6-5-42"
     opacity=".8"
     font-size="12.666px"
     xml:space="preserve"
     y="-42.956276"
     x="155.5923"
     font-family="'Bitstream Vera Sans'"
     fill="#000000"><tspan
       id="tspan4089-7-2-9-93"
       y="-42.956276"
       x="155.5923" /></text>
  <text
     id="text4087-2-6-5-5-05"
     opacity=".8"
     font-size="12.666px"
     xml:space="preserve"
     y="-83.697998"
     x="179.55324"
     font-family="'Bitstream Vera Sans'"
     fill="#000000"><tspan
       id="tspan4089-7-2-9-6-49"
       y="-83.697998"
       x="179.55324" /></text>
  <text
     id="text4087-2-6-5-1-4"
     opacity=".8"
     font-size="12.666px"
     xml:space="preserve"
     y="-277.72662"
     x="-1090.2634"
     font-family="'Bitstream Vera Sans'"
     fill="#000000"><tspan
       id="tspan4089-7-2-9-7-7"
       y="-277.72662"
       x="-1090.2634" /></text>
  <text
     id="text4087-2-6-5-7-56"
     opacity=".8"
     font-size="12.666px"
     xml:space="preserve"
     y="-691.19678"
     x="-282.66141"
     font-family="'Bitstream Vera Sans'"
     fill="#000000"><tspan
       id="tspan4089-7-2-9-1-1"
       y="-691.19678"
       x="-282.66141" /></text>
  <text
     id="text4087-2-6-5-5-8"
     opacity=".8"
     font-size="12.666px"
     xml:space="preserve"
     y="-731.93848"
     x="-258.70047"
     font-family="'Bitstream Vera Sans'"
     fill="#000000"><tspan
       id="tspan4089-7-2-9-6-7"
       y="-731.93848"
       x="-258.70047" /></text>
  <text
     id="text4087-2-6-5-3-42"
     opacity=".8"
     font-size="12.666px"
     xml:space="preserve"
     y="-739.14838"
     x="-1750.1636"
     font-family="'Bitstream Vera Sans'"
     fill="#000000"><tspan
       id="tspan4089-7-2-9-18-39"
       y="-739.14838"
       x="-1750.1636" /></text>
  <text
     id="text4087-2-6-5-4-4"
     opacity=".8"
     font-size="12.666px"
     xml:space="preserve"
     y="-1012.3825"
     x="-289.62085"
     font-family="'Bitstream Vera Sans'"
     fill="#000000"><tspan
       id="tspan4089-7-2-9-9-3"
       y="-1012.3825"
       x="-289.62085" /></text>
  <text
     id="text4087-2-6-5-7-1-0"
     opacity=".8"
     font-size="12.666px"
     xml:space="preserve"
     y="-385.69113"
     x="1196.5026"
     font-family="'Bitstream Vera Sans'"
     fill="#000000"><tspan
       id="tspan4089-7-2-9-1-8-5"
       y="-385.69113"
       x="1196.5026" /></text>
  <text
     id="text4087-2-6-5-5-5-5"
     opacity=".8"
     font-size="12.666px"
     xml:space="preserve"
     y="-426.43286"
     x="1220.4634"
     font-family="'Bitstream Vera Sans'"
     fill="#000000"><tspan
       id="tspan4089-7-2-9-6-9-2"
       y="-426.43286"
       x="1220.4634" /></text>
  <text
     id="text4087-2-6-5-75-9"
     opacity=".8"
     font-size="12.666px"
     xml:space="preserve"
     y="-433.64282"
     x="-270.99973"
     font-family="'Bitstream Vera Sans'"
     fill="#000000"><tspan
       id="tspan4089-7-2-9-3-1"
       y="-433.64282"
       x="-270.99973" /></text>
  <text
     id="text4087-2-6-5-4-8-18"
     opacity=".8"
     font-size="12.666px"
     xml:space="preserve"
     y="-706.87689"
     x="1189.5431"
     font-family="'Bitstream Vera Sans'"
     fill="#000000"><tspan
       id="tspan4089-7-2-9-9-8-4"
       y="-706.87689"
       x="1189.5431" /></text>
  <text
     id="text4087-2-6-5-45-3"
     opacity=".8"
     font-size="12.666px"
     xml:space="preserve"
     y="-481.7341"
     x="-1208.816"
     font-family="'Bitstream Vera Sans'"
     fill="#000000"><tspan
       id="tspan4089-7-2-9-75-7"
       y="-481.7341"
       x="-1208.816" /></text>
  <text
     id="text4087-2-6-5-59-8"
     opacity=".8"
     font-size="12.666px"
     xml:space="preserve"
     y="263.81946"
     x="-3032.5017"
     font-family="'Bitstream Vera Sans'"
     fill="#000000"><tspan
       id="tspan4089-7-2-9-4-2"
       y="263.81946"
       x="-3032.5017" /></text>
  <g
     id="layer4-0"
     transform="matrix(.90475 0 0 .90475 -716.75 -692.29)">
    <text
       id="text4087-2-6-5-20"
       opacity=".8"
       font-size="14px"
       xml:space="preserve"
       y="1159.4154"
       x="-664.2738"
       font-family="'Bitstream Vera Sans'"
       fill="#000000"><tspan
         id="tspan4089-7-2-9-82"
         y="1159.4154"
         x="-664.2738" /></text>
  </g>
  <text
     id="text4087-2-6-5-9"
     opacity=".8"
     font-size="12.666px"
     xml:space="preserve"
     y="2.0505886"
     x="877.22626"
     font-family="'Bitstream Vera Sans'"
     fill="#000000"><tspan
       id="tspan4089-7-2-9-43"
       y="2.0505886"
       x="877.22626" /></text>
  <text
     id="text4087-2-6-5-5-51"
     opacity=".8"
     font-size="12.666px"
     xml:space="preserve"
     y="-38.691116"
     x="901.18719"
     font-family="'Bitstream Vera Sans'"
     fill="#000000"><tspan
       id="tspan4089-7-2-9-6-74"
       y="-38.691116"
       x="901.18719" /></text>
  <text
     id="text4087-2-6-5-2-3"
     opacity=".8"
     font-size="12.666px"
     xml:space="preserve"
     y="-68.769257"
     x="-569.37115"
     font-family="'Bitstream Vera Sans'"
     fill="#000000"><tspan
       id="tspan4089-7-2-9-2-1"
       y="-68.769257"
       x="-569.37115" /></text>
  <text
     id="text4087-2-6-5-59-4"
     opacity=".8"
     font-size="12.666px"
     xml:space="preserve"
     y="676.78418"
     x="-2393.0571"
     font-family="'Bitstream Vera Sans'"
     fill="#000000"><tspan
       id="tspan4089-7-2-9-4-6"
       y="676.78418"
       x="-2393.0571" /></text>
  <text
     id="text4087-2-6-5-1-9"
     opacity=".8"
     font-size="12.666px"
     xml:space="preserve"
     y="-454.09021"
     x="-454.88007"
     font-family="'Bitstream Vera Sans'"
     fill="#000000"><tspan
       id="tspan4089-7-2-9-7-4"
       y="-454.09021"
       x="-454.88007" /></text>
  <text
     id="text4087-2-6-5-7-2"
     opacity=".8"
     font-size="12.666px"
     xml:space="preserve"
     y="-867.5603"
     x="352.72208"
     font-family="'Bitstream Vera Sans'"
     fill="#000000"><tspan
       id="tspan4089-7-2-9-1-26"
       y="-867.5603"
       x="352.72208" /></text>
  <text
     id="text4087-2-6-5-5-3-4"
     opacity=".8"
     font-size="12.666px"
     xml:space="preserve"
     y="-908.30206"
     x="376.68301"
     font-family="'Bitstream Vera Sans'"
     fill="#000000"><tspan
       id="tspan4089-7-2-9-6-5-1"
       y="-908.30206"
       x="376.68301" /></text>
  <text
     id="text4087-2-6-5-3-2"
     opacity=".8"
     font-size="12.666px"
     xml:space="preserve"
     y="-915.51196"
     x="-1114.7802"
     font-family="'Bitstream Vera Sans'"
     fill="#000000"><tspan
       id="tspan4089-7-2-9-18-8"
       y="-915.51196"
       x="-1114.7802" /></text>
  <text
     id="text4087-2-6-5-4-89"
     opacity=".8"
     font-size="12.666px"
     xml:space="preserve"
     y="-1188.7461"
     x="345.7626"
     font-family="'Bitstream Vera Sans'"
     fill="#000000"><tspan
       id="tspan4089-7-2-9-9-2"
       y="-1188.7461"
       x="345.7626" /></text>
  <text
     id="text4087-2-6-5-7-1-8"
     opacity=".8"
     font-size="12.666px"
     xml:space="preserve"
     y="-562.05475"
     x="1831.8861"
     font-family="'Bitstream Vera Sans'"
     fill="#000000"><tspan
       id="tspan4089-7-2-9-1-8-8"
       y="-562.05475"
       x="1831.8861" /></text>
  <text
     id="text4087-2-6-5-5-5-8"
     opacity=".8"
     font-size="12.666px"
     xml:space="preserve"
     y="-602.79651"
     x="1855.8469"
     font-family="'Bitstream Vera Sans'"
     fill="#000000"><tspan
       id="tspan4089-7-2-9-6-9-6"
       y="-602.79651"
       x="1855.8469" /></text>
  <text
     id="text4087-2-6-5-75-8"
     opacity=".8"
     font-size="12.666px"
     xml:space="preserve"
     y="-610.00641"
     x="364.38376"
     font-family="'Bitstream Vera Sans'"
     fill="#000000"><tspan
       id="tspan4089-7-2-9-3-3"
       y="-610.00641"
       x="364.38376" /></text>
  <text
     id="text4087-2-6-5-4-8-8"
     opacity=".8"
     font-size="12.666px"
     xml:space="preserve"
     y="-883.24036"
     x="1824.9266"
     font-family="'Bitstream Vera Sans'"
     fill="#000000"><tspan
       id="tspan4089-7-2-9-9-8-3"
       y="-883.24036"
       x="1824.9266" /></text>
  <text
     id="text4087-2-6-5-45-33"
     opacity=".8"
     font-size="12.666px"
     xml:space="preserve"
     y="-658.09772"
     x="-573.43256"
     font-family="'Bitstream Vera Sans'"
     fill="#000000"><tspan
       id="tspan4089-7-2-9-75-8"
       y="-658.09772"
       x="-573.43256" /></text>
  <text
     id="text4087-2-6-5-59-7-0"
     opacity=".8"
     font-size="12.666px"
     xml:space="preserve"
     y="87.455849"
     x="-2397.1182"
     font-family="'Bitstream Vera Sans'"
     fill="#000000"><tspan
       id="tspan4089-7-2-9-4-0-4"
       y="87.455849"
       x="-2397.1182" /></text>
  <text
     id="text4087-2-6-5-8-7"
     opacity=".8"
     font-size="12.666px"
     xml:space="preserve"
     y="180.32799"
     x="-682.36279"
     font-family="'Bitstream Vera Sans'"
     fill="#000000"><tspan
       id="tspan4089-7-2-9-19-6"
       y="180.32799"
       x="-682.36279" /></text>
  <text
     id="text4087-2-6-5-7-5-8"
     opacity=".8"
     font-size="12.666px"
     xml:space="preserve"
     y="1.1458397"
     x="426.66153"
     font-family="'Bitstream Vera Sans'"
     fill="#000000"><tspan
       id="tspan4089-7-2-9-1-2-9"
       y="1.1458397"
       x="426.66153" /></text>
  <text
     id="text4087-2-6-5-5-0-0"
     opacity=".8"
     font-size="12.666px"
     xml:space="preserve"
     y="-39.595863"
     x="450.62247"
     font-family="'Bitstream Vera Sans'"
     fill="#000000"><tspan
       id="tspan4089-7-2-9-6-2-6"
       y="-39.595863"
       x="450.62247" /></text>
  <text
     id="text4087-2-6-5-26-8"
     opacity=".8"
     font-size="12.666px"
     xml:space="preserve"
     y="-46.805836"
     x="-1040.8407"
     font-family="'Bitstream Vera Sans'"
     fill="#000000"><tspan
       id="tspan4089-7-2-9-90-7"
       y="-46.805836"
       x="-1040.8407" /></text>
  <text
     id="text4087-2-6-5-4-3-9"
     opacity=".8"
     font-size="12.666px"
     xml:space="preserve"
     y="-320.03989"
     x="419.70206"
     font-family="'Bitstream Vera Sans'"
     fill="#000000"><tspan
       id="tspan4089-7-2-9-9-5-0"
       y="-320.03989"
       x="419.70206" /></text>
  <text
     id="text4087-2-6-5-55-3"
     opacity=".8"
     font-size="12.666px"
     xml:space="preserve"
     y="-49.520081"
     x="-608.03253"
     font-family="'Bitstream Vera Sans'"
     fill="#000000"><tspan
       id="tspan4089-7-2-9-32-3"
       y="-49.520081"
       x="-608.03253" /></text>
  <text
     id="text4087-2-6-5-59-9-3"
     opacity=".8"
     font-size="12.666px"
     xml:space="preserve"
     y="696.03345"
     x="-2431.7185"
     font-family="'Bitstream Vera Sans'"
     fill="#000000"><tspan
       id="tspan4089-7-2-9-4-1-7"
       y="696.03345"
       x="-2431.7185" /></text>
  <text
     id="text4087-2-6-5-1-8-3"
     opacity=".8"
     font-size="12.666px"
     xml:space="preserve"
     y="-911.0506"
     x="-456.93948"
     font-family="'Bitstream Vera Sans'"
     fill="#000000"><tspan
       id="tspan4089-7-2-9-7-8-2"
       y="-911.0506"
       x="-456.93948" /></text>
  <text
     id="text4087-2-6-5-7-8-6"
     opacity=".8"
     font-size="12.666px"
     xml:space="preserve"
     y="-1324.5208"
     x="350.66266"
     font-family="'Bitstream Vera Sans'"
     fill="#000000"><tspan
       id="tspan4089-7-2-9-1-9-5"
       y="-1324.5208"
       x="350.66266" /></text>
  <text
     id="text4087-2-6-5-5-52-2"
     opacity=".8"
     font-size="12.666px"
     xml:space="preserve"
     y="-1365.2626"
     x="374.62357"
     font-family="'Bitstream Vera Sans'"
     fill="#000000"><tspan
       id="tspan4089-7-2-9-6-4-6"
       y="-1365.2626"
       x="374.62357" /></text>
  <text
     id="text4087-2-6-5-3-4-5"
     opacity=".8"
     font-size="12.666px"
     xml:space="preserve"
     y="-1372.4724"
     x="-1116.8396"
     font-family="'Bitstream Vera Sans'"
     fill="#000000"><tspan
       id="tspan4089-7-2-9-18-3-8"
       y="-1372.4724"
       x="-1116.8396" /></text>
  <text
     id="text4087-2-6-5-4-7-7"
     opacity=".8"
     font-size="12.666px"
     xml:space="preserve"
     y="-1645.7065"
     x="343.70316"
     font-family="'Bitstream Vera Sans'"
     fill="#000000"><tspan
       id="tspan4089-7-2-9-9-54-9"
       y="-1645.7065"
       x="343.70316" /></text>
  <text
     id="text4087-2-6-5-7-1-2-6"
     opacity=".8"
     font-size="12.666px"
     xml:space="preserve"
     y="-1019.0153"
     x="1829.8265"
     font-family="'Bitstream Vera Sans'"
     fill="#000000"><tspan
       id="tspan4089-7-2-9-1-8-0-0"
       y="-1019.0153"
       x="1829.8265" /></text>
  <text
     id="text4087-2-6-5-5-5-6-4"
     opacity=".8"
     font-size="12.666px"
     xml:space="preserve"
     y="-1059.757"
     x="1853.7874"
     font-family="'Bitstream Vera Sans'"
     fill="#000000"><tspan
       id="tspan4089-7-2-9-6-9-8-1"
       y="-1059.757"
       x="1853.7874" /></text>
  <text
     id="text4087-2-6-5-75-4-0"
     opacity=".8"
     font-size="12.666px"
     xml:space="preserve"
     y="-1066.9668"
     x="362.32431"
     font-family="'Bitstream Vera Sans'"
     fill="#000000"><tspan
       id="tspan4089-7-2-9-3-9-4"
       y="-1066.9668"
       x="362.32431" /></text>
  <text
     id="text4087-2-6-5-4-8-1-8"
     opacity=".8"
     font-size="12.666px"
     xml:space="preserve"
     y="-1340.2009"
     x="1822.8671"
     font-family="'Bitstream Vera Sans'"
     fill="#000000"><tspan
       id="tspan4089-7-2-9-9-8-8-7"
       y="-1340.2009"
       x="1822.8671" /></text>
  <text
     id="text4087-2-6-5-45-0-0"
     opacity=".8"
     font-size="12.666px"
     xml:space="preserve"
     y="-1115.0581"
     x="-575.492"
     font-family="'Bitstream Vera Sans'"
     fill="#000000"><tspan
       id="tspan4089-7-2-9-75-2-8"
       y="-1115.0581"
       x="-575.492" /></text>
  <text
     id="text4087-2-6-5-59-5-6"
     opacity=".8"
     font-size="12.666px"
     xml:space="preserve"
     y="-369.50461"
     x="-2399.1777"
     font-family="'Bitstream Vera Sans'"
     fill="#000000"><tspan
       id="tspan4089-7-2-9-4-00-2"
       y="-369.50461"
       x="-2399.1777" /></text>
  <text
     id="text4087-2-6-5-264-4"
     opacity=".8"
     font-size="12.666px"
     xml:space="preserve"
     y="-276.63245"
     x="-684.42224"
     font-family="'Bitstream Vera Sans'"
     fill="#000000"><tspan
       id="tspan4089-7-2-9-8-7"
       y="-276.63245"
       x="-684.42224" /></text>
  <text
     id="text4087-2-6-5-42-9"
     opacity=".8"
     font-size="12.666px"
     xml:space="preserve"
     y="-35.718292"
     x="155.5923"
     font-family="'Bitstream Vera Sans'"
     fill="#000000"><tspan
       id="tspan4089-7-2-9-93-3"
       y="-35.718292"
       x="155.5923" /></text>
  <text
     id="text4087-2-6-5-5-05-9"
     opacity=".8"
     font-size="12.666px"
     xml:space="preserve"
     y="-76.460007"
     x="179.55324"
     font-family="'Bitstream Vera Sans'"
     fill="#000000"><tspan
       id="tspan4089-7-2-9-6-49-2"
       y="-76.460007"
       x="179.55324" /></text>
  <text
     id="text4087-2-6-5-1-4-8"
     opacity=".8"
     font-size="12.666px"
     xml:space="preserve"
     y="-270.48859"
     x="-1090.2634"
     font-family="'Bitstream Vera Sans'"
     fill="#000000"><tspan
       id="tspan4089-7-2-9-7-7-3"
       y="-270.48859"
       x="-1090.2634" /></text>
  <text
     id="text4087-2-6-5-7-56-0"
     opacity=".8"
     font-size="12.666px"
     xml:space="preserve"
     y="-683.9588"
     x="-282.66141"
     font-family="'Bitstream Vera Sans'"
     fill="#000000"><tspan
       id="tspan4089-7-2-9-1-1-1"
       y="-683.9588"
       x="-282.66141" /></text>
  <text
     id="text4087-2-6-5-5-8-7"
     opacity=".8"
     font-size="12.666px"
     xml:space="preserve"
     y="-724.7005"
     x="-258.70047"
     font-family="'Bitstream Vera Sans'"
     fill="#000000"><tspan
       id="tspan4089-7-2-9-6-7-8"
       y="-724.7005"
       x="-258.70047" /></text>
  <text
     id="text4087-2-6-5-3-42-9"
     opacity=".8"
     font-size="12.666px"
     xml:space="preserve"
     y="-731.91046"
     x="-1750.1636"
     font-family="'Bitstream Vera Sans'"
     fill="#000000"><tspan
       id="tspan4089-7-2-9-18-39-1"
       y="-731.91046"
       x="-1750.1636" /></text>
  <text
     id="text4087-2-6-5-4-4-5"
     opacity=".8"
     font-size="12.666px"
     xml:space="preserve"
     y="-1005.1445"
     x="-289.62085"
     font-family="'Bitstream Vera Sans'"
     fill="#000000"><tspan
       id="tspan4089-7-2-9-9-3-4"
       y="-1005.1445"
       x="-289.62085" /></text>
  <text
     id="text4087-2-6-5-7-1-0-9"
     opacity=".8"
     font-size="12.666px"
     xml:space="preserve"
     y="-378.45316"
     x="1196.5026"
     font-family="'Bitstream Vera Sans'"
     fill="#000000"><tspan
       id="tspan4089-7-2-9-1-8-5-2"
       y="-378.45316"
       x="1196.5026" /></text>
  <text
     id="text4087-2-6-5-5-5-5-5"
     opacity=".8"
     font-size="12.666px"
     xml:space="preserve"
     y="-419.19489"
     x="1220.4634"
     font-family="'Bitstream Vera Sans'"
     fill="#000000"><tspan
       id="tspan4089-7-2-9-6-9-2-7"
       y="-419.19489"
       x="1220.4634" /></text>
  <text
     id="text4087-2-6-5-75-9-4"
     opacity=".8"
     font-size="12.666px"
     xml:space="preserve"
     y="-426.40482"
     x="-270.99973"
     font-family="'Bitstream Vera Sans'"
     fill="#000000"><tspan
       id="tspan4089-7-2-9-3-1-9"
       y="-426.40482"
       x="-270.99973" /></text>
  <text
     id="text4087-2-6-5-4-8-18-9"
     opacity=".8"
     font-size="12.666px"
     xml:space="preserve"
     y="-699.63892"
     x="1189.5431"
     font-family="'Bitstream Vera Sans'"
     fill="#000000"><tspan
       id="tspan4089-7-2-9-9-8-4-4"
       y="-699.63892"
       x="1189.5431" /></text>
  <text
     id="text4087-2-6-5-45-3-5"
     opacity=".8"
     font-size="12.666px"
     xml:space="preserve"
     y="-474.49609"
     x="-1208.816"
     font-family="'Bitstream Vera Sans'"
     fill="#000000"><tspan
       id="tspan4089-7-2-9-75-7-9"
       y="-474.49609"
       x="-1208.816" /></text>
  <text
     id="text4087-2-6-5-59-8-3"
     opacity=".8"
     font-size="12.666px"
     xml:space="preserve"
     y="271.05743"
     x="-3032.5017"
     font-family="'Bitstream Vera Sans'"
     fill="#000000"><tspan
       id="tspan4089-7-2-9-4-2-5"
       y="271.05743"
       x="-3032.5017" /></text>
  <g
     id="layer4-0-7"
     transform="matrix(.90475 0 0 .90475 -716.75 -685.05)">
    <text
       id="text4087-2-6-5-20-0"
       opacity=".8"
       font-size="14px"
       xml:space="preserve"
       y="1159.4154"
       x="-664.2738"
       font-family="'Bitstream Vera Sans'"
       fill="#000000"><tspan
         id="tspan4089-7-2-9-82-8"
         y="1159.4154"
         x="-664.2738" /></text>
  </g>
  <text
     id="text7276"
     font-size="12.666px"
     xml:space="preserve"
     y="-377.22546"
     x="435.90427"
     font-family="'Droid Sans'"
     fill="#000000"><tspan
       id="tspan7278"
       y="-377.22546"
       x="435.90427" /><tspan
       id="tspan7280"
       y="-361.3924"
       x="435.90427" /></text>
  <text
     id="text4087-2-6-5-51"
     opacity=".8"
     font-size="12.666px"
     xml:space="preserve"
     y="-859.27002"
     x="901.0882"
     font-family="'Bitstream Vera Sans'"
     fill="#000000"><tspan
       id="tspan4089-7-2-9-97"
       y="-859.27002"
       x="901.0882" /></text>
  <text
     id="text4087-2-6-5-59-2"
     opacity=".8"
     font-size="12.666px"
     xml:space="preserve"
     y="-113.71655"
     x="-922.59778"
     font-family="'Bitstream Vera Sans'"
     fill="#000000"><tspan
       id="tspan4089-7-2-9-4-4"
       y="-113.71655"
       x="-922.59778" /></text>
  <text
     id="text4087-2-6-5-7-7"
     opacity=".8"
     font-size="12.666px"
     xml:space="preserve"
     y="-1144.2659"
     x="1628.1677"
     font-family="'Bitstream Vera Sans'"
     fill="#000000"><tspan
       id="tspan4089-7-2-9-1-6"
       y="-1144.2659"
       x="1628.1677" /></text>
  <text
     id="text4087-2-6-5-5-6"
     opacity=".8"
     font-size="12.666px"
     xml:space="preserve"
     y="-1185.0076"
     x="1652.1285"
     font-family="'Bitstream Vera Sans'"
     fill="#000000"><tspan
       id="tspan4089-7-2-9-6-53"
       y="-1185.0076"
       x="1652.1285" /></text>
  <text
     id="text4087-2-6-5-54"
     opacity=".8"
     font-size="12.666px"
     xml:space="preserve"
     y="-1192.2175"
     x="160.66542"
     font-family="'Bitstream Vera Sans'"
     fill="#000000"><tspan
       id="tspan4089-7-2-9-0"
       y="-1192.2175"
       x="160.66542" /></text>
  <text
     id="text4087-2-6-5-4-1"
     opacity=".8"
     font-size="12.666px"
     xml:space="preserve"
     y="-1465.4517"
     x="1621.2083"
     font-family="'Bitstream Vera Sans'"
     fill="#000000"><tspan
       id="tspan4089-7-2-9-9-28"
       y="-1465.4517"
       x="1621.2083" /></text>
  <g
     id="g4516"
     transform="translate(0,-1.0000001)">
    <path
       style="fill:#643400;fill-opacity:1;stroke:none"
       d="m 15.560345,13.10418 c 0.615876,0 1.394711,0.09847 1.904222,0.37551 0.28388,-0.136113 0.731798,-0.04957 1.072817,-0.116523 1.511975,-0.296823 2.39299,-0.203527 2.66109,0.621365 0.165545,0.509347 0.237584,1.513881 -0.32312,2.05993 0.05832,0.158261 0.317594,1.070511 0.302566,1.158809 -0.261504,1.536522 -1.388955,1.557331 -2.043349,1.937065 -0.219038,0.235843 -0.124116,0.832504 -0.03217,1.04843 0.22974,0.488908 1.301713,2.134952 1.455093,2.610444 0.877795,2.721243 0.924841,0.921361 -0.1966,1.946282 -5.276209,4.822098 -6.596053,0.898467 -8.140593,-2.388459 -0.914809,-1.946799 -0.365303,-3.503299 -0.138083,-4.885976 -0.674142,-0.08047 -1.33991,-0.785029 -0.982165,-1.434979 0.215892,-0.338041 0.889843,-0.594207 1.308366,-0.605453 0.53958,-1.395953 1.607212,-2.326445 3.151921,-2.326445 z"
       id="path3892"
       inkscape:connector-curvature="0"
       sodipodi:nodetypes="scsscsccssscccs" />
    <path
       sodipodi:nodetypes="scsscsccssscccs"
       inkscape:connector-curvature="0"
       id="path3783"
       d="m 15.786167,13.15405 c 0.572432,0 1.231432,0.153237 1.705001,0.421403 0.263855,-0.13175 0.625801,-0.186499 0.941515,-0.257605 1.417596,-0.319278 2.53145,-0.112296 2.742215,0.823502 0.130544,0.579616 0.182793,1.430752 -0.420845,1.887716 0.124226,0.09069 0.327677,1.120941 0.290495,1.266488 -0.255225,0.999037 -0.73397,1.124837 -1.982641,1.739824 -0.203587,0.228284 -0.226606,0.902368 -0.141142,1.111374 0.213534,0.473239 1.274781,1.99895 1.417342,2.459204 0.815872,2.634035 0.822518,0.940106 -0.219813,1.93218 -4.904014,4.66756 -6.130752,0.831055 -7.566338,-2.350533 -0.850276,-1.884407 -0.524942,-3.468259 -0.313752,-4.806625 -0.626585,-0.07789 -1.347365,-0.644018 -1.014855,-1.273137 0.200663,-0.327208 0.836342,-0.58482 1.225341,-0.595705 0.501518,-1.351215 1.901735,-2.358086 3.337477,-2.358086 z"
       style="opacity:1;fill:url(#linearGradient4721);fill-opacity:1;stroke:none;stroke-width:3;stroke-miterlimit:1;stroke-dasharray:none;stroke-opacity:1" />
    <path
       sodipodi:nodetypes="cccsssc"
       inkscape:connector-curvature="0"
       id="path3911"
       d="m 12.549308,17.660667 c -0.674141,-0.08047 -1.806995,-0.974639 -1.44925,-1.624589 0.215892,-0.338041 0.907474,-0.544588 1.325998,-0.555834 -0.05683,0.01574 0.826125,0.200524 0.314929,0.11223 -1.053304,-0.181927 -1.661621,0.474143 -1.6069,0.981246 0.01713,0.158717 0.42823,0.548808 0.622312,0.619318 0.665227,0.241674 0.733126,0.244794 0.792911,0.467629 z"
       style="fill:#643400;fill-opacity:1;stroke:none" />
    <path
       style="opacity:0.20625;fill:none;stroke:#582d00;stroke-width:0.10556521;stroke-linecap:round;stroke-linejoin:round;stroke-miterlimit:4;stroke-dasharray:none;stroke-opacity:1"
       d="m 15.338923,16.369351 c 0.04691,-0.250438 0.675884,-0.335586 0.563254,-0.326718 -0.259504,0.02043 -0.342963,0.113222 -0.328689,0.139052 0.162599,0.294231 0.639541,1.532381 2.267833,1.076363 0.382279,-0.107061 0.766219,-0.131991 0.977436,-0.321343 0.588047,-0.527172 0.741429,-0.781622 1.006462,-1.109616 0.05131,-0.0635 0.11618,0.04385 0.333607,0.17629 0.03998,0.02435 0.341523,0.01996 0.335846,-0.03279"
       id="path4075"
       inkscape:connector-curvature="0"
       sodipodi:nodetypes="cssssssc" />
    <path
       style="fill:#733200;fill-opacity:1;stroke:none"
       d="m 19.460182,14.736938 c 0.927503,-0.47968 2.016045,-1.580975 0.853631,-1.705977 -0.03525,-0.0038 -0.521122,-0.02897 -0.559712,-0.03096 -1.679736,0.05885 -2.394774,0.442667 -2.281372,0.646931 0.346685,0.624464 0.837366,1.152886 1.987453,1.090005 z"
       id="path4257"
       inkscape:connector-curvature="0"
       sodipodi:nodetypes="cscsc" />
    <path
       transform="matrix(0.03989615,0,0,0.03989615,6.5052389,-14.78852)"
       style="opacity:0.51000001;fill:none;stroke:#a05200;stroke-width:2.43125129;stroke-linecap:butt;stroke-linejoin:miter;stroke-miterlimit:4;stroke-opacity:1;filter:url(#filter4085)"
       d="m 214.83453,784.56449 c 0.67665,0.82784 4.22586,-6.95631 7.60536,-7.90081 5.43359,-1.51858 20.38083,-6.12266 21.82345,-5.28454 0.91702,0.53276 -16.36928,6.5101 -15.8249,7.32066 9.0255,13.43862 10.68552,31.1067 42.50058,26.97274 36.36191,-3.88702 38.03109,-6.73682 63.71897,-38.65673 1.7039,-2.00837 20.32319,12.49306 22.82463,10.52408"
       id="path3985"
       inkscape:connector-curvature="0"
       sodipodi:nodetypes="csssccc" />
    <path
       style="fill:#643400;fill-opacity:1;stroke:none"
       d="m 13.919085,15.645719 c 0.02163,0.02957 0.152773,0.07747 0.684705,-0.01374 0.515747,-0.08843 1.278734,-0.518891 1.28133,-0.779302 0.02472,-0.469481 -0.385787,-0.75415 -1.168782,-0.741286 -0.615489,0.01012 -0.857157,1.0494 -0.797253,1.534333 z"
       id="path3934"
       inkscape:connector-curvature="0"
       sodipodi:nodetypes="cscsc" />
    <path
       sodipodi:nodetypes="ccsc"
       inkscape:connector-curvature="0"
       id="path3000"
       d="m 13.986492,15.579331 c 0.43811,0.199737 1.861739,-0.356529 1.866016,-0.773847 0,-0.415565 -0.36689,-0.632069 -1.010393,-0.632069 -0.643502,0 -0.855623,0.990352 -0.855623,1.405916 z"
       style="opacity:1;fill:url(#radialGradient3932);fill-opacity:1;stroke:none;stroke-width:3.21087432;stroke-miterlimit:1;stroke-opacity:1" />
    <path
       sodipodi:nodetypes="csssssssc"
       inkscape:connector-curvature="0"
       id="path3798"
       d="m 15.340621,16.352996 c 0.027,0.03303 -0.0077,-0.09595 0.118905,-0.155627 0.195695,-0.09221 0.263363,-0.1422 0.332073,-0.146002 0.44586,-0.02467 -0.26529,-0.01715 -0.177534,0.107547 0.344617,0.489663 0.624297,1.476668 2.252776,1.042298 0.382322,-0.101978 0.740763,-0.142182 0.952003,-0.322545 0.588115,-0.502146 0.702725,-0.794487 0.967787,-1.106911 0.05132,-0.06049 0.127377,0.04086 0.350261,0.158094 0.07238,0.03807 0.309096,0.02961 0.333561,0.01035"
       style="fill:none;stroke:#582d00;stroke-width:0.02517447;stroke-linecap:round;stroke-linejoin:round;stroke-miterlimit:4;stroke-dasharray:none;stroke-opacity:1" />
    <path
       sodipodi:nodetypes="cccc"
       inkscape:connector-curvature="0"
       id="path4191"
       d="m 15.433438,13.99721 c -0.710001,-0.511756 -1.120305,0.250804 -1.6569,0.536291 0.162288,-0.727709 1.307101,-1.18347 1.881394,-0.66472 0.03305,0.04318 -0.175956,0.120371 -0.224494,0.128429 z"
       style="fill:url(#linearGradient4247);fill-opacity:1;stroke:none" />
    <ellipse
       ry="0.35202754"
       rx="0.37476873"
       cy="14.773915"
       cx="15.192126"
       id="path3978"
       style="fill:#434343;fill-opacity:1;stroke:none;stroke-width:0.17265001;stroke-linecap:square;stroke-linejoin:miter;stroke-miterlimit:4;stroke-dasharray:none;stroke-opacity:1" />
    <g
       transform="matrix(0.69999982,0,0,0.69999982,-0.19999732,0.40000676)"
       style="fill:#582b00;fill-opacity:1"
       id="g4750">
      <g
         id="g4723"
         style="fill:#582b00;fill-opacity:1">
        <path
           inkscape:connector-curvature="0"
           d="m 26.195836,20.786364 c -0.04712,0.01902 -0.09539,0.0413 -0.143054,0.06172 -0.05113,0.02131 -0.102597,0.0431 -0.154288,0.06578 -0.07656,0.03441 -0.153036,0.07218 -0.229638,0.106859 -0.06475,0.02886 -0.129704,0.05917 -0.194597,0.08897 -0.06148,0.02766 -0.123051,0.05893 -0.183122,0.09065 -0.07776,0.04272 -0.154643,0.08598 -0.23145,0.129164 -0.105014,0.06043 -0.214055,0.119002 -0.32087,0.178729 -0.139369,0.07839 -0.275599,0.157816 -0.411593,0.237204 -0.09848,0.05761 -0.198139,0.115133 -0.289837,0.173629 -0.0615,0.03792 -0.110823,0.07497 -0.162013,0.11199 -0.03178,0.02326 -0.0657,0.04662 -0.101035,0.07025 0,0 0.121617,-0.116487 0.121617,-0.116487 l 0,0 c 0.03432,-0.02335 0.06703,-0.04647 0.0988,-0.06952 0.05155,-0.03726 0.103604,-0.07466 0.165815,-0.112721 0.09267,-0.05761 0.191403,-0.114142 0.288826,-0.170961 0.136811,-0.07966 0.273778,-0.159392 0.413592,-0.238152 0.107632,-0.06033 0.21701,-0.119869 0.323031,-0.180838 0.07809,-0.04395 0.155801,-0.08829 0.235605,-0.131377 0.06196,-0.03226 0.124873,-0.06392 0.187968,-0.09213 0.06476,-0.02953 0.129636,-0.05989 0.194253,-0.08851 0.07681,-0.03498 0.153734,-0.07257 0.230515,-0.107088 0.05246,-0.02326 0.104714,-0.04585 0.156462,-0.06726 0.04762,-0.0206 0.09545,-0.04167 0.143111,-0.06249 0,0 -0.138104,0.122582 -0.138104,0.122582 z"
           id="path3939"
           style="color:#000000;display:inline;overflow:visible;visibility:visible;fill:#582b00;fill-opacity:1;fill-rule:nonzero;stroke:none;stroke-width:1.89999998;marker:none;enable-background:accumulate" />
        <path
           style="color:#000000;display:inline;overflow:visible;visibility:visible;fill:#582b00;fill-opacity:1;fill-rule:nonzero;stroke:none;stroke-width:1.89999998;marker:none;enable-background:accumulate"
           id="path3941"
           d="m 26.479852,20.706751 c -0.04059,0.02306 -0.08075,0.04914 -0.1212,0.0735 -0.0437,0.02561 -0.08751,0.05169 -0.13112,0.07858 -0.06417,0.04054 -0.126558,0.08401 -0.190638,0.124795 -0.0544,0.03408 -0.108275,0.06945 -0.162344,0.10437 -0.05152,0.03258 -0.101309,0.06834 -0.149283,0.104272 -0.06126,0.04797 -0.121317,0.0963 -0.181325,0.144551 -0.08135,0.06718 -0.167928,0.13329 -0.251551,0.200104 -0.108876,0.08758 -0.213891,0.175636 -0.318673,0.263627 -0.07582,0.06382 -0.15293,0.127734 -0.22108,0.191409 -0.04637,0.04156 -0.0802,0.0807 -0.116051,0.120057 -0.02212,0.02468 -0.04645,0.04974 -0.07216,0.07523 0,0 0.07078,-0.118479 0.07078,-0.118479 l 0,0 c 0.02478,-0.02511 0.04795,-0.04979 0.07016,-0.07429 0.0361,-0.03962 0.07268,-0.07944 0.119732,-0.121215 0.06963,-0.06303 0.146259,-0.125948 0.221349,-0.188938 0.105512,-0.08834 0.211158,-0.176766 0.320322,-0.264729 0.08419,-0.06745 0.170636,-0.134451 0.252788,-0.202243 0.06099,-0.0491 0.121383,-0.09848 0.184634,-0.147055 0.04971,-0.03667 0.100736,-0.07295 0.153694,-0.10623 0.05407,-0.03467 0.107837,-0.07007 0.162212,-0.103919 0.06415,-0.04107 0.127102,-0.08445 0.191456,-0.125116 0.04413,-0.0275 0.08838,-0.05439 0.13269,-0.08017 0.04031,-0.02452 0.08062,-0.04947 0.120875,-0.07418 0,0 -0.08526,0.126059 -0.08526,0.126059 z"
           inkscape:connector-curvature="0" />
        <path
           inkscape:connector-curvature="0"
           d="m 26.787595,20.760926 c -0.04059,0.02306 -0.08075,0.04914 -0.121201,0.0735 -0.0437,0.02561 -0.08751,0.05169 -0.131119,0.07858 -0.06417,0.04054 -0.126559,0.08401 -0.190638,0.124795 -0.0544,0.03408 -0.108276,0.06945 -0.162344,0.10437 -0.05152,0.03258 -0.10131,0.06834 -0.149283,0.104271 -0.06126,0.04797 -0.121318,0.0963 -0.181326,0.144552 -0.08135,0.06718 -0.167927,0.13329 -0.25155,0.200103 -0.108876,0.08758 -0.213891,0.175637 -0.318673,0.263628 -0.07582,0.06382 -0.15293,0.127734 -0.22108,0.191409 -0.04636,0.04156 -0.08021,0.0807 -0.116051,0.120057 -0.02212,0.02468 -0.04645,0.04974 -0.07217,0.07523 0,0 0.07078,-0.118479 0.07078,-0.118479 l 0,0 c 0.02478,-0.02511 0.04795,-0.04979 0.07016,-0.07429 0.0361,-0.03962 0.07268,-0.07944 0.119732,-0.121215 0.06963,-0.06303 0.146259,-0.125948 0.221349,-0.188938 0.105511,-0.08834 0.211158,-0.176766 0.320322,-0.264729 0.08419,-0.06745 0.170636,-0.134451 0.252788,-0.202243 0.06099,-0.0491 0.121383,-0.09848 0.184634,-0.147055 0.04971,-0.03667 0.100735,-0.07295 0.153694,-0.10623 0.05407,-0.03467 0.107837,-0.07007 0.162212,-0.103919 0.06415,-0.04107 0.127101,-0.08445 0.191455,-0.125116 0.04413,-0.0275 0.08838,-0.05439 0.13269,-0.08017 0.04031,-0.02452 0.08062,-0.04947 0.120876,-0.07418 0,0 -0.08526,0.126058 -0.08526,0.126058 z"
           id="path3943"
           style="color:#000000;display:inline;overflow:visible;visibility:visible;fill:#582b00;fill-opacity:1;fill-rule:nonzero;stroke:none;stroke-width:1.89999998;marker:none;enable-background:accumulate" />
        <path
           style="color:#000000;display:inline;overflow:visible;visibility:visible;fill:#582b00;fill-opacity:1;fill-rule:nonzero;stroke:none;stroke-width:1.89999998;marker:none;enable-background:accumulate"
           id="path3945"
           d="m 27.205685,20.66089 c -0.03162,0.0257 -0.06128,0.05398 -0.0921,0.08081 -0.03365,0.02836 -0.0672,0.05714 -0.100111,0.0866 -0.04795,0.04421 -0.09253,0.09073 -0.140258,0.135141 -0.04079,0.03722 -0.08038,0.0755 -0.120398,0.113418 -0.03847,0.03552 -0.07352,0.07358 -0.106542,0.111556 -0.04112,0.05032 -0.08078,0.100774 -0.12042,0.151165 -0.05286,0.06986 -0.111813,0.139487 -0.167272,0.209332 -0.07191,0.09145 -0.139473,0.182797 -0.206818,0.274054 -0.04865,0.06616 -0.09864,0.132584 -0.139203,0.197578 -0.02848,0.04268 -0.04485,0.08153 -0.06323,0.120851 -0.01115,0.02461 -0.02447,0.04985 -0.03903,0.07566 0,0 0.01583,-0.113313 0.01583,-0.113313 l 0,0 c 0.01376,-0.02534 0.02603,-0.0501 0.03737,-0.07456 0.01853,-0.03958 0.03747,-0.0794 0.06657,-0.122365 0.04246,-0.06463 0.09243,-0.130115 0.14073,-0.195453 0.06795,-0.09166 0.135995,-0.183414 0.20802,-0.275242 0.05574,-0.07048 0.114114,-0.140871 0.167515,-0.211372 0.04026,-0.05126 0.07975,-0.102695 0.122685,-0.153805 0.0345,-0.03885 0.0706,-0.07754 0.110255,-0.113871 0.04014,-0.03769 0.0796,-0.07599 0.120483,-0.113005 0.04767,-0.04467 0.09288,-0.0912 0.140967,-0.135533 0.03317,-0.03007 0.06676,-0.05962 0.100985,-0.08821 0.0306,-0.02694 0.06097,-0.05426 0.09142,-0.08136 0,0 -0.02744,0.121915 -0.02744,0.121915 z"
           inkscape:connector-curvature="0" />
        <path
           inkscape:connector-curvature="0"
           d="m 27.320324,20.74842 c -0.02413,0.02664 -0.04528,0.05546 -0.06817,0.08305 -0.02532,0.02927 -0.05038,0.05892 -0.07454,0.08914 -0.03473,0.0452 -0.06509,0.0922 -0.09952,0.137558 -0.02968,0.03809 -0.05773,0.07705 -0.08635,0.115705 -0.02785,0.03631 -0.05119,0.07462 -0.07243,0.112662 -0.02537,0.05015 -0.04916,0.100284 -0.07295,0.150358 -0.03078,0.06922 -0.06805,0.138811 -0.101566,0.208266 -0.04314,0.09088 -0.08175,0.181232 -0.120164,0.271486 -0.02766,0.06542 -0.05664,0.131206 -0.07621,0.194774 -0.01479,0.04192 -0.0182,0.07916 -0.02357,0.117028 -0.003,0.02366 -0.008,0.04811 -0.01417,0.07321 0,0 -0.02363,-0.105546 -0.02363,-0.105546 l 0,0 c 0.0055,-0.02459 0.0096,-0.04849 0.01281,-0.07204 0.0054,-0.03812 0.0112,-0.0765 0.02654,-0.118738 0.02169,-0.06342 0.05099,-0.128342 0.07857,-0.192971 0.0389,-0.09068 0.07787,-0.181462 0.121005,-0.272691 0.03359,-0.07007 0.06998,-0.140303 0.101097,-0.210163 0.02414,-0.05093 0.04739,-0.101948 0.0744,-0.153 0.02249,-0.03898 0.04671,-0.07798 0.07552,-0.115144 0.02883,-0.03846 0.05673,-0.07742 0.08658,-0.115335 0.03427,-0.0456 0.0653,-0.09266 0.100126,-0.137986 0.0242,-0.0308 0.04904,-0.06116 0.07489,-0.09069 0.02262,-0.02767 0.04486,-0.05568 0.06726,-0.08349 0,0 0.01447,0.11456 0.01447,0.11456 z"
           id="path3947"
           style="color:#000000;display:inline;overflow:visible;visibility:visible;fill:#582b00;fill-opacity:1;fill-rule:nonzero;stroke:none;stroke-width:1.89999998;marker:none;enable-background:accumulate" />
        <path
           style="color:#000000;display:inline;overflow:visible;visibility:visible;fill:#582b00;fill-opacity:1;fill-rule:nonzero;stroke:none;stroke-width:1.89999998;marker:none;enable-background:accumulate"
           id="path3949"
           d="m 26.264897,20.632992 c -0.04989,0.0157 -0.10193,0.03471 -0.152791,0.05184 -0.05436,0.01773 -0.109189,0.03595 -0.164523,0.05507 -0.08223,0.02918 -0.165509,0.0619 -0.247869,0.09137 -0.06947,0.02443 -0.139604,0.05036 -0.209519,0.07577 -0.06605,0.02347 -0.133382,0.05072 -0.199482,0.07857 -0.08612,0.0378 -0.171612,0.07625 -0.25701,0.114627 -0.117222,0.05392 -0.237543,0.105536 -0.356193,0.15856 -0.154968,0.06967 -0.307381,0.140708 -0.459565,0.211729 -0.110242,0.05155 -0.221545,0.102916 -0.325822,0.156018 -0.0695,0.03424 -0.127456,0.06867 -0.187129,0.102891 -0.03714,0.02154 -0.07629,0.04299 -0.116837,0.0646 0,0 0.151325,-0.111273 0.151325,-0.111273 l 0,0 c 0.03952,-0.0214 0.07747,-0.04271 0.114531,-0.06403 0.06008,-0.03445 0.120684,-0.06899 0.190885,-0.103313 0.104876,-0.05209 0.214994,-0.102486 0.323997,-0.153309 0.153029,-0.07124 0.306226,-0.142527 0.461726,-0.212542 0.119607,-0.05359 0.240562,-0.106178 0.358895,-0.160579 0.08684,-0.03907 0.173458,-0.07857 0.261589,-0.116574 0.06803,-0.02825 0.136735,-0.05579 0.204455,-0.07969 0.0697,-0.02514 0.139785,-0.05113 0.209046,-0.07532 0.08266,-0.02976 0.166286,-0.06226 0.248756,-0.09154 0.05625,-0.01967 0.112067,-0.03865 0.167028,-0.05643 0.05087,-0.01731 0.102107,-0.0351 0.153098,-0.05263 0,0 -0.168591,0.116177 -0.168591,0.116177 z"
           inkscape:connector-curvature="0" />
      </g>
      <g
         id="g4731"
         style="fill:#582b00;fill-opacity:1">
        <path
           style="color:#000000;display:inline;overflow:visible;visibility:visible;fill:#582b00;fill-opacity:1;fill-rule:nonzero;stroke:none;stroke-width:1.89999998;marker:none;enable-background:accumulate"
           id="path3973"
           d="m 29.842587,19.894013 c 0.03538,5.86e-4 0.07312,0.0047 0.109539,0.0068 0.03875,0.0015 0.07794,0.0034 0.117718,0.0063 0.05935,0.0054 0.120449,0.01496 0.179972,0.02063 0.05007,0.0042 0.101018,0.01016 0.151668,0.0155 0.04768,0.0043 0.09733,0.01315 0.146407,0.02326 0.06442,0.01517 0.128649,0.03146 0.192803,0.04769 0.08845,0.02392 0.178072,0.04354 0.267114,0.06569 0.116424,0.02949 0.231715,0.06182 0.346859,0.09422 0.08345,0.02361 0.167478,0.04654 0.247758,0.07461 0.05315,0.01719 0.0993,0.03929 0.146434,0.06042 0.02941,0.01347 0.06002,0.02601 0.09154,0.0382 0,0 -0.12716,-0.08598 -0.12716,-0.08598 l 0,0 c -0.03082,-0.01233 -0.06066,-0.02517 -0.08995,-0.03838 -0.04746,-0.02126 -0.09526,-0.04245 -0.148861,-0.05946 -0.08033,-0.02649 -0.163339,-0.04862 -0.245798,-0.07176 -0.115728,-0.03234 -0.231576,-0.06469 -0.348435,-0.09442 -0.0898,-0.02251 -0.180117,-0.04316 -0.269393,-0.06727 -0.06525,-0.01656 -0.130502,-0.03379 -0.196209,-0.04841 -0.05038,-0.0099 -0.100957,-0.01851 -0.149795,-0.02273 -0.05044,-0.0051 -0.10137,-0.01111 -0.151239,-0.01509 -0.05979,-0.0059 -0.121036,-0.01511 -0.180564,-0.02049 -0.0405,-0.0033 -0.08054,-0.0058 -0.11967,-0.0071 -0.03649,-0.0023 -0.07335,-0.0051 -0.109975,-0.0077 0,0 0.139242,0.08549 0.139242,0.08549 z"
           inkscape:connector-curvature="0" />
        <path
           inkscape:connector-curvature="0"
           d="m 29.647939,19.934351 c 0.03403,0.0089 0.06943,0.02174 0.104083,0.03233 0.03705,0.01054 0.07442,0.02161 0.112102,0.0338 0.05597,0.01915 0.112541,0.04285 0.168593,0.06235 0.04729,0.01587 0.09499,0.03362 0.142559,0.05071 0.04495,0.01542 0.09067,0.03566 0.135502,0.05703 0.05836,0.0299 0.116264,0.06083 0.174103,0.0917 0.07935,0.04406 0.16093,0.0842 0.241303,0.126675 0.104957,0.05605 0.208096,0.11459 0.311076,0.17317 0.07459,0.04258 0.149933,0.08463 0.220338,0.13081 0.04696,0.02921 0.08592,0.06156 0.126073,0.09321 0.02499,0.02002 0.05136,0.03941 0.0787,0.05868 0,0 -0.100953,-0.113561 -0.100953,-0.113561 l 0,0 c -0.02664,-0.01924 -0.05219,-0.03874 -0.07712,-0.05849 -0.04043,-0.03184 -0.08122,-0.06369 -0.128663,-0.09284 -0.07086,-0.04465 -0.145406,-0.08569 -0.219169,-0.127581 -0.103558,-0.05866 -0.20723,-0.117355 -0.312545,-0.173737 -0.08102,-0.043 -0.163001,-0.08432 -0.243104,-0.128746 -0.05881,-0.03144 -0.117461,-0.06354 -0.177209,-0.0932 -0.04616,-0.02143 -0.09281,-0.04172 -0.138909,-0.05731 -0.04743,-0.01677 -0.09509,-0.03462 -0.142249,-0.05021 -0.05625,-0.01983 -0.113069,-0.04313 -0.169202,-0.06235 -0.03829,-0.0127 -0.07632,-0.02457 -0.113789,-0.03501 -0.03465,-0.01084 -0.06954,-0.02223 -0.104267,-0.03333 0,0 0.112749,0.115917 0.112749,0.115917 z"
           id="path3975"
           style="color:#000000;display:inline;overflow:visible;visibility:visible;fill:#582b00;fill-opacity:1;fill-rule:nonzero;stroke:none;stroke-width:1.89999998;marker:none;enable-background:accumulate" />
        <path
           style="color:#000000;display:inline;overflow:visible;visibility:visible;fill:#582b00;fill-opacity:1;fill-rule:nonzero;stroke:none;stroke-width:1.89999998;marker:none;enable-background:accumulate"
           id="path3977"
           d="m 29.511703,20.154055 c 0.03403,0.0089 0.06943,0.02174 0.104083,0.03233 0.03705,0.01054 0.07442,0.02161 0.112102,0.0338 0.05597,0.01915 0.112541,0.04285 0.168592,0.06235 0.04729,0.01587 0.09499,0.03362 0.14256,0.05071 0.04495,0.01542 0.09067,0.03566 0.135502,0.05703 0.05836,0.0299 0.116264,0.06083 0.174104,0.0917 0.07935,0.04406 0.160929,0.0842 0.241302,0.126675 0.104957,0.05605 0.208096,0.11459 0.311076,0.173171 0.07459,0.04258 0.149933,0.08463 0.220338,0.13081 0.04696,0.02921 0.08592,0.06156 0.126073,0.09321 0.02499,0.02002 0.05136,0.03941 0.0787,0.05868 0,0 -0.100954,-0.113561 -0.100954,-0.113561 l 0,0 c -0.02664,-0.01924 -0.05219,-0.03874 -0.07712,-0.05849 -0.04043,-0.03184 -0.08122,-0.06369 -0.128663,-0.09284 -0.07086,-0.04465 -0.145406,-0.08569 -0.219169,-0.127581 -0.103557,-0.05866 -0.20723,-0.117354 -0.312545,-0.173737 -0.08102,-0.043 -0.163001,-0.08432 -0.243104,-0.128746 -0.05881,-0.03144 -0.117461,-0.06354 -0.177209,-0.0932 -0.04615,-0.02143 -0.09281,-0.04172 -0.138909,-0.05731 -0.04743,-0.01677 -0.09509,-0.03462 -0.142249,-0.05021 -0.05625,-0.01983 -0.113068,-0.04313 -0.169202,-0.06235 -0.03829,-0.0127 -0.07632,-0.02457 -0.113788,-0.03501 -0.03466,-0.01084 -0.06954,-0.02223 -0.104268,-0.03333 0,0 0.112749,0.115916 0.112749,0.115916 z"
           inkscape:connector-curvature="0" />
        <path
           inkscape:connector-curvature="0"
           d="m 29.234293,20.234939 c 0.03063,0.01661 0.06157,0.03742 0.09236,0.05584 0.03313,0.01894 0.06642,0.03846 0.09974,0.05915 0.04922,0.03174 0.09787,0.06806 0.147075,0.100166 0.04167,0.02652 0.08325,0.05496 0.124874,0.08274 0.03952,0.02554 0.07856,0.05594 0.116454,0.08724 0.04881,0.04277 0.0969,0.08644 0.144956,0.130033 0.06549,0.06147 0.134132,0.119645 0.201011,0.179815 0.08719,0.07914 0.171994,0.160277 0.256633,0.241416 0.06127,0.05892 0.123396,0.117495 0.179708,0.178933 0.03797,0.03943 0.0674,0.08005 0.09817,0.120255 0.01906,0.02534 0.03963,0.05039 0.06116,0.07555 0,0 -0.06874,-0.134193 -0.06874,-0.134193 l 0,0 c -0.02086,-0.02497 -0.0406,-0.04994 -0.05968,-0.075 -0.03098,-0.04047 -0.06231,-0.08102 -0.100764,-0.120506 -0.05714,-0.06006 -0.118755,-0.117461 -0.179397,-0.175516 -0.08518,-0.08135 -0.170457,-0.162765 -0.257909,-0.242311 -0.06737,-0.06083 -0.136101,-0.120246 -0.202226,-0.182253 -0.04885,-0.04438 -0.09737,-0.08935 -0.147575,-0.132225 -0.03916,-0.03167 -0.07909,-0.06235 -0.119675,-0.08831 -0.04157,-0.02743 -0.08309,-0.05596 -0.124701,-0.08218 -0.04931,-0.03247 -0.0983,-0.06846 -0.147664,-0.100308 -0.03378,-0.02132 -0.06751,-0.04178 -0.101059,-0.06072 -0.03073,-0.01866 -0.06155,-0.03792 -0.09229,-0.05686 0,0 0.07954,0.139248 0.07954,0.139248 z"
           id="path3979"
           style="color:#000000;display:inline;overflow:visible;visibility:visible;fill:#582b00;fill-opacity:1;fill-rule:nonzero;stroke:none;stroke-width:1.89999998;marker:none;enable-background:accumulate" />
        <path
           style="color:#000000;display:inline;overflow:visible;visibility:visible;fill:#582b00;fill-opacity:1;fill-rule:nonzero;stroke:none;stroke-width:1.89999998;marker:none;enable-background:accumulate"
           id="path3981"
           d="m 29.219354,20.401184 c 0.02711,0.02148 0.05377,0.04716 0.08072,0.07045 0.02915,0.02419 0.05835,0.04899 0.08737,0.07493 0.04266,0.0395 0.08393,0.08343 0.126511,0.123293 0.03618,0.0331 0.07193,0.06808 0.10783,0.102404 0.03424,0.03177 0.06713,0.06826 0.09875,0.105455 0.04027,0.05033 0.07969,0.101424 0.11907,0.152439 0.05331,0.07156 0.110302,0.140388 0.165207,0.210893 0.07146,0.0926 0.140206,0.186788 0.208795,0.280945 0.04962,0.06834 0.100139,0.136485 0.144436,0.206493 0.03022,0.04524 0.05185,0.09023 0.07486,0.135032 0.01418,0.02818 0.02989,0.05634 0.04652,0.08475 0,0 -0.04345,-0.143923 -0.04345,-0.143923 l 0,0 c -0.01601,-0.02811 -0.03092,-0.05605 -0.04517,-0.08396 -0.02318,-0.0451 -0.04668,-0.09034 -0.07737,-0.13571 -0.04535,-0.06878 -0.09559,-0.135682 -0.144744,-0.203066 -0.06908,-0.09446 -0.138249,-0.188991 -0.209887,-0.282041 -0.05527,-0.07124 -0.112128,-0.141305 -0.165963,-0.213501 -0.04003,-0.05192 -0.07962,-0.104381 -0.12125,-0.155038 -0.03279,-0.03776 -0.06651,-0.07468 -0.101721,-0.107045 -0.03592,-0.03398 -0.07159,-0.06904 -0.107759,-0.101824 -0.04262,-0.04023 -0.08429,-0.0839 -0.127065,-0.123529 -0.02936,-0.02666 -0.05882,-0.05245 -0.08838,-0.07671 -0.02684,-0.02352 -0.05366,-0.04765 -0.08046,-0.07145 0,0 0.05315,0.150705 0.05315,0.150705 z"
           inkscape:connector-curvature="0" />
        <path
           inkscape:connector-curvature="0"
           d="m 29.724001,19.735877 c 0.0351,-0.0049 0.07312,-0.0068 0.109503,-0.01041 0.03858,-0.0046 0.07767,-0.0088 0.117517,-0.01214 0.05962,-0.004 0.121677,-0.0041 0.181515,-0.0078 0.05025,-0.0037 0.101647,-0.0058 0.152653,-0.0084 0.0479,-0.0032 0.0985,-0.0022 0.14876,6e-5 0.06629,0.0049 0.132576,0.01089 0.198781,0.01686 0.09154,0.0097 0.183508,0.01507 0.275333,0.02299 0.120153,0.01086 0.239663,0.0247 0.359041,0.03863 0.08653,0.01022 0.173535,0.01968 0.257694,0.03479 0.05548,0.0086 0.104865,0.02318 0.155064,0.03663 0.03137,0.0087 0.06377,0.01624 0.09701,0.02332 0,0 -0.14032,-0.0648 -0.14032,-0.0648 l 0,0 c -0.03258,-0.0073 -0.06426,-0.01531 -0.09547,-0.02375 -0.05053,-0.01353 -0.101405,-0.02692 -0.157303,-0.03531 -0.08394,-0.01354 -0.169793,-0.02238 -0.255275,-0.03229 -0.119945,-0.01378 -0.24001,-0.02755 -0.360632,-0.03858 -0.09264,-0.0081 -0.185468,-0.01439 -0.277855,-0.02419 -0.06734,-0.0061 -0.134803,-0.0129 -0.202273,-0.01704 -0.0515,-0.0018 -0.102995,-0.0025 -0.152021,9.9e-4 -0.05075,0.0029 -0.102154,0.0049 -0.152159,0.0087 -0.06015,0.0035 -0.122283,0.004 -0.182077,0.008 -0.04062,0.0031 -0.08065,0.0068 -0.11958,0.01168 -0.03649,0.0034 -0.07342,0.0064 -0.110091,0.0096 0,0 0.152186,0.06242 0.152186,0.06242 z"
           id="path3983"
           style="color:#000000;display:inline;overflow:visible;visibility:visible;fill:#582b00;fill-opacity:1;fill-rule:nonzero;stroke:none;stroke-width:1.89999998;marker:none;enable-background:accumulate" />
      </g>
    </g>
  </g>
  <path
     style="color:#000000;display:inline;overflow:visible;visibility:visible;opacity:0.3;fill:url(#linearGradient3929);fill-opacity:1;fill-rule:nonzero;stroke:none;marker:none;enable-background:accumulate"
     d="m 19.366369,23.655485 c -0.380272,1.022791 -2.3792,1.240889 -3.04691,0.526759 -0.818301,-0.87519 -2.302235,-2.354779 -2.51946,-3.513518 0.37299,-1.625733 4.170741,-1.29942 4.596123,0.01767 0.414782,1.284268 1.172332,2.185686 0.970247,2.96909 z"
     id="path3927"
     inkscape:connector-curvature="0"
     sodipodi:nodetypes="cscsc" />
  <path
     inkscape:connector-curvature="0"
     id="rect4255"
     d="M 16,2 C 8.244,2 2,8.244 2,16 2,23.756 8.244,30 16,30 23.756,30 30,23.756 30,16 30,8.244 23.756,2 16,2 Z m 0,6 a 6,8 0 0 1 6,8 6,8 0 0 1 -6,8 6,8 0 0 1 -6,-8 6,8 0 0 1 6,-8 z"
     style="fill:#3b94f7;fill-opacity:1" />
  <path
     style="opacity:0.2;fill:#ffffff"
     inkscape:connector-curvature="0"
     id="path4706"
     d="M 16,2 C 8.244,2 2,8.244 2,16 2,16.169 2.0195,16.333 2.0254,16.5 2.2891,8.9794 8.4128,3 16.0004,3 c 7.587,0 13.711,5.9794 13.975,13.5 0.005,-0.167 0.025,-0.331 0.025,-0.5 0,-7.756 -6.244,-14 -14,-14 z m 5.984,14.434 A 6,8 0 0 1 16,24 6,8 0 0 1 10.016,16.568 6,8 0 0 0 10,17 a 6,8 0 0 0 6,8 6,8 0 0 0 6,-8 6,8 0 0 0 -0.016,-0.566 z" />
  <path
     style="opacity:0.3"
     inkscape:connector-curvature="0"
     id="path4711"
     d="m 16,7 a 6,8 0 0 0 -6,8 6,8 0 0 0 0.01563,0.56641 6,8 0 0 1 5.984,-7.566 6,8 0 0 1 5.984,7.432 6,8 0 0 0 0.016,-0.432 6,8 0 0 0 -6,-8 z M 2.025,15.5 c -0.0059,0.167 -0.0254,0.331 -0.0254,0.5 0,7.756 6.244,14 14,14 7.756,0 14,-6.244 14,-14 0,-0.16884 -0.01952,-0.33264 -0.02539,-0.5 -0.264,7.521 -6.388,13.5 -13.975,13.5 -7.5872,0 -13.711,-5.979 -13.975,-13.5 z" />
  <path
     style="fill:#643400;fill-opacity:1;stroke:none"
     d="m 14.676372,22.415517 c -0.637082,-0.585349 -1.16086,0.08271 -1.426226,0.452673 -0.131653,0.248942 -0.209824,0.343955 -0.572598,1.147483 -0.109402,0.266796 -0.368655,0.725474 -0.07121,0.836489 0.307567,0.186315 1.078396,-1.539794 1.014353,-1.53982 -0.05218,-2.2e-5 -1.095417,1.18685 -0.796988,1.662892 0.487231,0.777213 1.101738,-1.360762 1.043465,-1.352291 -0.05081,0.0074 -0.971134,1.43014 -0.478468,1.66771 0.111165,0.04682 0.186492,-0.02773 0.309252,-0.12987 0.383171,-0.198316 0.966671,-0.613492 1.058125,-0.858649 0.02743,-0.122449 -1.033178,0.631516 -1.041763,0.820871 -0.01314,0.388668 0.234489,0.350878 0.453928,0.183825 0.419591,-0.31942 1.009351,-1.20828 1.005099,-1.296312 0.19698,-0.414474 0.225999,-0.695631 0.21406,-1.029505 -0.0073,-0.203776 -0.393641,-0.517687 -0.711032,-0.565496 z"
     id="path3802"
     inkscape:connector-curvature="0"
     sodipodi:nodetypes="ccccsssccccscsc" />
  <path
     style="fill:url(#radialGradient4171);fill-opacity:1;stroke:none"
     d="m 15.290142,23.222456 c 0.02093,-0.109277 -0.256856,-0.661571 -0.663971,-0.629602 -0.401466,-0.55168 -0.852485,-0.213429 -0.894868,-0.158863 -0.637648,0.679702 -0.612553,0.982038 -0.9897,1.390559 -0.205397,0.222485 -0.176654,0.486776 -0.172575,0.644797 7e-4,0.02592 0.01852,0.512968 0.266954,0.165588 0.180276,-0.252067 0.693722,-1.252517 0.735115,-1.217542 0.05441,0.04597 -0.677178,1.253449 -0.724746,1.395966 -0.04157,0.12454 0.170646,0.460378 0.384482,0.149211 0.283109,-0.411971 0.765985,-1.442295 0.833201,-1.399101 0.123233,0.07919 -0.835327,1.307847 -0.745348,1.55632 0.193721,0.534952 0.73704,-0.613818 1.100464,-1.162193 0.07577,-0.114327 0.10604,-0.05382 0.0982,-0.03929 -0.186989,0.346678 -1.42129,2.023513 -0.221545,1.160332 0.434606,-0.312686 0.72794,-1.051097 0.994335,-1.85618 z"
     id="path4169"
     inkscape:connector-curvature="0"
     sodipodi:nodetypes="cccsssssssssssc" />
  <path
     sodipodi:nodetypes="cscssssssccc"
     inkscape:connector-curvature="0"
     id="path4101"
     d="m 14.78223,22.557089 c -1.071266,-1.159353 -1.821383,0.936687 -2.233975,1.824442 -0.152652,0.328453 0.06635,0.637589 0.29478,0.271035 0.180275,-0.252068 0.686669,-1.270148 0.728062,-1.235173 0.05441,0.04597 -0.677857,1.253225 -0.724746,1.395966 -0.04157,0.126535 0.170646,0.469961 0.384482,0.149211 0.277283,-0.415917 0.765985,-1.442295 0.833201,-1.399101 0.123233,0.07919 -0.835327,1.307847 -0.745348,1.55632 0.193721,0.534952 0.73704,-0.613818 1.100464,-1.162193 0.07577,-0.114327 0.106731,-0.05343 0.0982,-0.03929 -0.500006,0.850727 -0.754474,1.097204 -0.760302,1.295596 0.08052,0.924598 2.694209,-2.440275 1.02518,-2.656811 z"
     style="fill:url(#linearGradient5824);fill-opacity:1;stroke:none" />
  <path
     sodipodi:nodetypes="ccccsssccccscsc"
     inkscape:connector-curvature="0"
     id="path3913"
     d="m 19.244744,22.179289 c 0.637081,-0.585349 1.16086,0.08271 1.426226,0.452673 0.131653,0.248943 0.209824,0.343955 0.572597,1.147483 0.109402,0.266796 0.368656,0.725477 0.07121,0.836492 -0.307567,0.186315 -1.078395,-1.539797 -1.014353,-1.539823 0.05219,-2.1e-5 1.095418,1.186854 0.796989,1.662895 -0.487231,0.777212 -1.101738,-1.360765 -1.043466,-1.352293 0.05081,0.0074 0.971134,1.430142 0.478469,1.667711 -0.111165,0.04682 -0.186492,-0.02773 -0.309252,-0.12987 -0.383171,-0.198315 -0.966671,-0.61349 -1.058126,-0.858652 -0.02743,-0.122448 1.033179,0.63152 1.041763,0.820875 0.01314,0.388668 -0.234489,0.350879 -0.453928,0.183826 -0.419591,-0.319421 -1.009351,-1.208284 -1.005099,-1.296315 -0.19698,-0.414475 -0.225999,-0.695631 -0.21406,-1.029505 0.0073,-0.203777 0.393641,-0.517688 0.711033,-0.565497 z"
     style="fill:#643400;fill-opacity:1;stroke:none" />
  <path
     sodipodi:nodetypes="cccsssssssssssc"
     inkscape:connector-curvature="0"
     id="path3915"
     d="m 18.630974,22.986228 c -0.02094,-0.109277 0.256855,-0.661571 0.66397,-0.629602 0.401467,-0.55168 0.852485,-0.213428 0.894869,-0.158863 0.637648,0.679702 0.612553,0.982039 0.989699,1.390559 0.205398,0.222485 0.176655,0.486776 0.172576,0.644799 -7e-4,0.02591 -0.01851,0.512969 -0.266955,0.165589 -0.180275,-0.252067 -0.693722,-1.25252 -0.735114,-1.217544 -0.05441,0.04598 0.677178,1.253451 0.724745,1.395967 0.04157,0.124541 -0.170646,0.460379 -0.384481,0.149213 -0.283109,-0.411972 -0.765985,-1.442299 -0.833201,-1.399103 -0.123233,0.07919 0.835327,1.307848 0.745347,1.556322 -0.193721,0.534951 -0.73704,-0.613819 -1.100464,-1.162197 -0.07577,-0.114327 -0.106039,-0.05382 -0.0982,-0.03929 0.18699,0.346678 1.42129,2.023517 0.221546,1.160336 -0.434607,-0.312687 -0.72794,-1.051101 -0.994335,-1.856184 z"
     style="fill:url(#radialGradient3919);fill-opacity:1;stroke:none" />
  <path
     style="fill:url(#linearGradient3921);fill-opacity:1;stroke:none"
     d="m 19.138886,22.320861 c 1.071265,-1.159353 1.821383,0.936688 2.233974,1.824445 0.152652,0.328453 -0.06635,0.637588 -0.294779,0.271034 -0.180276,-0.252067 -0.68667,-1.27015 -0.728062,-1.235174 -0.05441,0.04598 0.677856,1.253227 0.724745,1.395967 0.04157,0.126536 -0.170646,0.469962 -0.384481,0.149213 -0.277283,-0.415917 -0.765985,-1.442299 -0.833201,-1.399103 -0.123233,0.07919 0.835327,1.307848 0.745347,1.556322 -0.193721,0.534951 -0.73704,-0.613819 -1.100464,-1.162197 -0.07577,-0.114327 -0.106731,-0.05343 -0.0982,-0.03929 0.500006,0.850729 0.754474,1.097207 0.760303,1.295599 -0.08052,0.924598 -2.694209,-2.440277 -1.02518,-2.656814 z"
     id="path3917"
     inkscape:connector-curvature="0"
     sodipodi:nodetypes="cscssssssccc" />
</svg>
