<?xml version="1.0" encoding="UTF-8" standalone="no"?>
<!-- Created with Inkscape (http://www.inkscape.org/) -->

<svg
   xmlns:i="http://ns.adobe.com/AdobeIllustrator/10.0/"
   xmlns:dc="http://purl.org/dc/elements/1.1/"
   xmlns:cc="http://creativecommons.org/ns#"
   xmlns:rdf="http://www.w3.org/1999/02/22-rdf-syntax-ns#"
   xmlns:svg="http://www.w3.org/2000/svg"
   xmlns="http://www.w3.org/2000/svg"
   xmlns:sodipodi="http://sodipodi.sourceforge.net/DTD/sodipodi-0.dtd"
   xmlns:inkscape="http://www.inkscape.org/namespaces/inkscape"
   width="32"
   height="32"
   viewBox="0 0 32 32.000001"
   id="svg4363"
   version="1.1"
   inkscape:version="0.91 r13725"
   sodipodi:docname="poedit.svg">
  <defs
     id="defs4365" />
  <sodipodi:namedview
     id="base"
     pagecolor="#ffffff"
     bordercolor="#666666"
     borderopacity="1.0"
     inkscape:pageopacity="0.0"
     inkscape:pageshadow="2"
     inkscape:zoom="0.35"
     inkscape:cx="-86.428571"
     inkscape:cy="520"
     inkscape:document-units="px"
     inkscape:current-layer="layer1"
     showgrid="false"
     units="px"
     inkscape:window-width="1600"
     inkscape:window-height="846"
     inkscape:window-x="0"
     inkscape:window-y="30"
     inkscape:window-maximized="1" />
  <metadata
     id="metadata4368">
    <rdf:RDF>
      <cc:Work
         rdf:about="">
        <dc:format>image/svg+xml</dc:format>
        <dc:type
           rdf:resource="http://purl.org/dc/dcmitype/StillImage" />
        <dc:title></dc:title>
      </cc:Work>
    </rdf:RDF>
  </metadata>
  <g
     inkscape:label="Layer 1"
     inkscape:groupmode="layer"
     id="layer1"
     transform="translate(0,-1020.3622)">
    <g
       transform="translate(0,1020.3622)"
       id="g4352">
      <rect
         style="fill:#dd9f59;fill-opacity:1"
         x="-30"
         y="-30"
         width="28"
         height="28"
         transform="matrix(0,-1,-1,0,0,0)"
         rx="1.5"
         ry="1.5"
         id="rect4255" />
      <rect
         style="opacity:0.02000002;stroke:#000000;stroke-width:2"
         x="-28"
         y="-27"
         width="22"
         height="22"
         transform="matrix(0,-1,-1,0,0,0)"
         rx="1.5"
         ry="1.5"
         id="rect4651" />
      <rect
         style="opacity:0.1"
         x="-28"
         y="-27"
         width="22"
         height="22"
         ry="1.5"
         rx="1.5"
         transform="matrix(0,-1,-1,0,0,0)"
         id="rect4649" />
      <rect
         style="fill:#ffffff;fill-opacity:1"
         x="-27"
         y="-27"
         width="22"
         height="22"
         transform="matrix(0,-1,-1,0,0,0)"
         rx="1.5"
         ry="1.5"
         id="rect4629" />
      <path
         style="opacity:0.2"
         inkscape:connector-curvature="0"
         d="m 5,24.5 0,1 C 5,26.331 5.669,27 6.5,27 l 19,0 c 0.831,0 1.5,-0.669 1.5,-1.5 l 0,-1 c 0,0.831 -0.669,1.5 -1.5,1.5 l -19,0 C 5.669,26 5,25.331 5,24.5 Z"
         id="rect4635" />
      <path
         style="opacity:0.2;fill:#ffffff"
         inkscape:connector-curvature="0"
         d="M 3.5,2 C 2.669,2 2,2.669 2,3.5 l 0,1 C 2,3.669 2.669,3 3.5,3 l 25,0 C 29.331,3 30,3.669 30,4.5 l 0,-1 C 30,2.669 29.331,2 28.5,2 l -25,0 z"
         id="rect4640" />
      <path
         style="opacity:0.3"
         inkscape:connector-curvature="0"
         d="m 2,27.5 0,1 C 2,29.331 2.669,30 3.5,30 l 25,0 c 0.831,0 1.5,-0.669 1.5,-1.5 l 0,-1 c 0,0.831 -0.669,1.5 -1.5,1.5 l -25,0 C 2.669,29 2,28.331 2,27.5 Z"
         id="rect4645" />
      <path
         inkscape:connector-curvature="0"
         i:knockout="Off"
         d="m 9.4210092,9.9465729 0.5159875,-0.6329988 0.9612803,0.650063 c -0.06907,0.1088859 -0.197456,0.1519519 -0.465607,0.1519519 l -1.3886973,0 0,0.935278 c 1.2789993,0.286841 1.6958513,0.767075 1.6958513,1.131923 0,0.269776 -0.228334,0.463982 -0.495673,0.463982 -0.128387,0 -0.2681505,-0.05201 -0.3965379,-0.160078 C 9.7777313,12.064153 9.4210092,11.523788 9.0439727,11.18413 l 0,3.56072 C 9.0350343,14.804981 8.7067525,15 8.2013286,15 l -0.1885183,0 0,-3.156868 C 7.5472027,12.544387 6.9532077,13.159509 6.2186365,13.691748 L 6.1,13.581238 c 0.7833259,-0.944217 1.3285662,-2.24353 1.62597,-3.466461 l -1.5170845,0 -0.049567,-0.1682041 1.8543047,0 0,-1.5187096 C 7.4180027,8.528623 6.7833787,8.6131312 6.1893837,8.6724495 L 6.1503799,8.5619388 C 7.3993134,8.1995287 8.9155853,7.5502783 9.6696583,7.0871084 l 1.1896157,0.8093284 c -0.06013,0.05038 -0.158453,0.076382 -0.278715,0.076382 -0.09832,0 -0.20802,-0.017064 -0.336408,-0.051192 -0.3372197,0.1015724 -0.75326,0.2015196 -1.2001783,0.3030919 l 0,1.7210417 0.3770365,0 0,8.126e-4 z M 14.239601,8.2596595 15.3894,8.9755413 c -0.05932,0.077195 -0.218584,0.1438265 -0.426604,0.185268 l 0,5.2646977 c 0,0.01625 -0.276277,0.243773 -1.061228,0.243773 l 0,-0.810141 -1.872994,0 0,0.615935 c 0,0.01788 -0.119449,0.354284 -1.051477,0.354284 l 0,-6.4770645 1.101857,0.4054767 1.724292,0 0.436355,-0.4981107 z m -2.211027,5.4320885 1.872994,0 0,-4.765774 -1.872994,0 0,4.765774 z"
         id="path3896"
         style="fill:#363636;fill-opacity:1" />
      <path
         style="fill:#363636;fill-opacity:1"
         id="path3898"
         d="m 25.052367,18.070623 c -0.463982,-0.509487 -1.215618,-0.762199 -2.254906,-0.762199 -1.096169,0 -1.890871,0.255962 -2.386544,0.767074 -0.411164,0.422541 -0.642749,1.068541 -0.711819,1.916061 l -1.881932,0 0,-1.605655 c 0,-0.209646 0.03169,-0.360785 0.09588,-0.451794 0.06338,-0.0902 0.166579,-0.139764 0.310406,-0.149515 l 0.291715,-0.01706 c 0.108073,-0.0098 0.162516,-0.06338 0.162516,-0.16089 0,-0.07232 -0.0081,-0.117824 -0.02519,-0.134889 -0.01788,-0.01706 -0.06338,-0.026 -0.136513,-0.026 -0.01706,0 -0.06744,0.0016 -0.150327,0.0073 -0.325844,0.01463 -0.640312,0.02194 -0.943404,0.02194 -0.316093,0 -0.643562,-0.0073 -0.977532,-0.02194 -0.07963,-0.0057 -0.127575,-0.0073 -0.142202,-0.0073 -0.07069,0 -0.115386,0.0098 -0.134075,0.026 -0.01869,0.01707 -0.02844,0.06176 -0.02844,0.134889 0,0.09832 0.05688,0.151952 0.172266,0.16089 l 0.273027,0.01706 c 0.151139,0.0089 0.256775,0.05769 0.320156,0.147077 0.06338,0.0902 0.09507,0.240523 0.09507,0.453419 l 0,4.30748 c 0,0.210458 -0.03007,0.360785 -0.09263,0.451794 -0.06176,0.0902 -0.165766,0.13895 -0.312031,0.149514 l -0.28359,0.01706 c -0.0073,0.0024 -0.01544,0.0041 -0.02681,0.0041 -0.0967,0.0057 -0.145451,0.05444 -0.145451,0.147077 0,0.07638 0.01056,0.122699 0.03088,0.140576 0.02031,0.0195 0.06501,0.02844 0.131637,0.02844 0.01788,0 0.06338,-8.12e-4 0.136514,-0.0041 0.338845,-0.01625 0.666314,-0.02519 0.982407,-0.02519 0.303092,0 0.616748,0.0073 0.943404,0.02194 0.07963,0.0049 0.1292,0.0073 0.150327,0.0073 0.0707,0 0.115386,-0.0089 0.134076,-0.02844 0.01869,-0.01788 0.02844,-0.06501 0.02844,-0.140576 0,-0.09263 -0.04469,-0.141389 -0.135701,-0.147077 -0.01219,-0.0024 -0.0195,-0.0041 -0.026,-0.0041 l -0.282778,-0.01706 c -0.151139,-0.0098 -0.256774,-0.05851 -0.320156,-0.147889 -0.06419,-0.08857 -0.09588,-0.239711 -0.09588,-0.453419 l 0,-1.779548 1.868931,0 c 0.04713,0.935278 0.262463,1.643035 0.666315,2.093203 0.457482,0.509487 1.196116,0.763824 2.212652,0.763824 1.105919,0 1.913622,-0.256775 2.421484,-0.770324 0.507851,-0.514313 0.762188,-1.334205 0.762188,-2.458814 0,-1.139235 -0.231585,-1.962377 -0.69638,-2.470239 z m -0.712631,4.695892 c -0.337221,0.455857 -0.881648,0.683379 -1.638159,0.683379 -0.757324,0 -1.305002,-0.227522 -1.642222,-0.683379 -0.335595,-0.455044 -0.503799,-1.201804 -0.503799,-2.241092 0,-1.018161 0.169829,-1.759233 0.511112,-2.219152 0.341284,-0.45992 0.885711,-0.691505 1.634909,-0.691505 0.758948,0 1.305001,0.228335 1.641409,0.683379 0.334782,0.454232 0.501361,1.202617 0.501361,2.24028 0,1.029537 -0.168204,1.773046 -0.504611,2.22809 z"
         i:knockout="Off"
         inkscape:connector-curvature="0" />
    </g>
  </g>
</svg>
