<?xml version="1.0" encoding="UTF-8" standalone="no"?>
<svg
   xmlns:dc="http://purl.org/dc/elements/1.1/"
   xmlns:cc="http://creativecommons.org/ns#"
   xmlns:rdf="http://www.w3.org/1999/02/22-rdf-syntax-ns#"
   xmlns:svg="http://www.w3.org/2000/svg"
   xmlns="http://www.w3.org/2000/svg"
   xmlns:sodipodi="http://sodipodi.sourceforge.net/DTD/sodipodi-0.dtd"
   xmlns:inkscape="http://www.inkscape.org/namespaces/inkscape"
   viewBox="0 0 32 32"
   id="svg2"
   version="1.1"
   inkscape:version="0.91 r"
   sodipodi:docname="shutter.svg"
   width="32"
   height="32">
  <metadata
     id="metadata98">
    <rdf:RDF>
      <cc:Work
         rdf:about="">
        <dc:format>image/svg+xml</dc:format>
        <dc:type
           rdf:resource="http://purl.org/dc/dcmitype/StillImage" />
        <dc:title></dc:title>
      </cc:Work>
    </rdf:RDF>
  </metadata>
  <sodipodi:namedview
     pagecolor="#ffffff"
     bordercolor="#666666"
     borderopacity="1"
     objecttolerance="10"
     gridtolerance="10"
     guidetolerance="10"
     inkscape:pageopacity="0"
     inkscape:pageshadow="2"
     inkscape:window-width="1535"
     inkscape:window-height="876"
     id="namedview96"
     showgrid="false"
     inkscape:zoom="1"
     inkscape:cx="24"
     inkscape:cy="14.790749"
     inkscape:window-x="65"
     inkscape:window-y="24"
     inkscape:window-maximized="1"
     inkscape:current-layer="svg2" />
  <defs
     id="defs4">
    <clipPath
       id="clipPath-429196716">
      <g
         transform="translate(0,-1004.3622)"
         id="g17">
        <path
           d="m -24,13 c 0,1.105 -0.672,2 -1.5,2 -0.828,0 -1.5,-0.895 -1.5,-2 0,-1.105 0.672,-2 1.5,-2 0.828,0 1.5,0.895 1.5,2 z"
           transform="matrix(15.333333,0,0,11.5,414.99999,878.8622)"
           style="fill:#1890d0"
           id="path19"
           inkscape:connector-curvature="0" />
      </g>
    </clipPath>
  </defs>
  <g
     id="g72"
     transform="matrix(0.9615474,0,0,0.96568828,-7.5789199,-7.6536978)">
    <g
       id="g74"
       clip-path="url(#clipPath-429196716)">
      <!-- color: #eeeeee -->
      <g
         id="g76">
        <path
           style="fill:#37a0f2;fill-opacity:1;fill-rule:nonzero;stroke:none"
           d="M 36.960938,4.0019531 C 31.327015,4.0672444 22.635301,5.6335616 19.917969,8.8710938 l -0.0059,0 C 17.743851,12.023437 17.467724,24.357805 18.03125,23.597656 22.644683,17.335737 33.704129,9.6023371 40.308594,6.4941406 43.874676,4.8083786 41.342878,3.951171 36.960938,4.0019531 Z M 31.521484,14.216797 c -3.813143,0.274537 -10.519642,6.767717 -9.578125,6.730469 7.799361,-0.269019 12.670614,0.176953 18.75586,2.068359 0.902748,0.280055 -0.972691,-8.162841 -9.177735,-8.798828 z m -4.125,6.759765 c -0.201151,0.01048 -0.284468,0.06324 -0.216796,0.160157 4.456975,6.402636 6.722,10.739196 8.4375,16.876953 0.254763,0.910523 6.327391,-5.248472 2.40625,-12.484375 C 36.01233,22.855496 28.804544,20.90321 27.396484,20.976562 Z m 2.320313,5.13086 c -0.04407,-0.01149 -0.07531,0.0094 -0.08984,0.06641 -1.974416,7.550448 -3.797015,12.094645 -7.345703,17.386719 -0.530296,0.780843 8.096895,1.40049 11.048828,-6.285156 l 0.002,0.0039 C 34.108264,33.778178 30.377898,26.279711 29.716797,26.107422 Z m -2.166016,4.824219 c -0.01803,-0.0045 -0.03993,-9.13e-4 -0.06641,0.01172 -7.041993,3.367558 -11.687335,4.91016 -18.0273438,5.605469 -0.9359786,0.107607 4.1524808,7.098278 11.9296878,4.398438 l 0.0078,-0.002 c 3.279517,-1.722708 6.715119,-9.873415 6.15625,-10.013671 z"
           transform="matrix(0.7222387,0,0,0.72485766,6.6680748,7.0974008)"
           id="path78"
           inkscape:connector-curvature="0" />
        <path
           style="fill:#4d4d4d;fill-opacity:1;fill-rule:nonzero;stroke:none"
           d="m 15.916016,11.048828 c -1.423393,0.241823 -7.1360136,4.180389 -5.820313,11.257813 l 0.002,0.0039 c 1.248895,3.615882 9.249573,8.422583 8.972656,7.517578 -2.272102,-7.463534 -3.093222,-12.292242 -2.839843,-18.65625 0.0047,-0.117954 -0.111112,-0.157593 -0.314453,-0.123047 z M 6.7421875,22.195312 c -0.7334782,-0.09648 -2.4523906,7.91606 4.4003905,11.988282 3.54315,1.444421 12.427617,-1.401741 11.566406,-1.794922 -7.112607,-3.206147 -11.281419,-5.772515 -15.9003902,-10.158203 -0.021288,-0.02039 -0.042746,-0.03204 -0.066406,-0.03516 z"
           transform="matrix(0.7222387,0,0,0.72485766,6.6680748,7.0974008)"
           id="path82"
           inkscape:connector-curvature="0" />
      </g>
    </g>
  </g>
  <g
     id="g4726"
     transform="matrix(1.3846283,0,0,1.3795548,-9.2336458,-26.791553)"
     style="fill:#007e00;fill-opacity:1">
    <g
       id="g4728"
       clip-path="url(#clipPath-429196716)"
       style="fill:#007e00;fill-opacity:1">
      <!-- color: #eeeeee -->
      <g
         id="g4730"
         style="fill:#007e00;fill-opacity:1" />
    </g>
  </g>
  <g
     transform="matrix(0.9615474,0,0,0.96571627,-7.5789199,-7.6547891)"
     id="g4768"
     style="fill:#ffffff;fill-opacity:1">
    <g
       clip-path="url(#clipPath-429196716)"
       id="g4770"
       style="fill:#ffffff;fill-opacity:1">
      <!-- color: #eeeeee -->
      <g
         id="g4772"
         style="fill:#ffffff;fill-opacity:1">
        <path
           style="fill:#ffffff;fill-opacity:1;fill-rule:nonzero;stroke:none;opacity:0.1"
           d="M 24.5 2.0019531 C 20.587428 2.0476574 14.553112 3.1438618 12.666016 5.4101562 L 12.660156 5.4101562 C 11.495252 7.117351 11.121424 12.628023 11.191406 14.808594 C 11.235941 12.255825 11.645515 7.8971371 12.660156 6.4101562 L 12.666016 6.4101562 C 14.553112 4.1438618 20.587428 3.0476574 24.5 3.0019531 C 25.874609 2.9858958 26.958427 3.1056329 27.537109 3.34375 C 28.85305 2.4301067 27.175691 1.9706973 24.5 2.0019531 z M 9.8867188 6.9335938 C 8.9600008 7.0922916 5.4152188 9.5244092 5.7285156 13.910156 C 5.9655071 10.158431 9.0334054 8.0797213 9.8867188 7.9335938 C 10.003127 7.913659 10.063398 7.9380183 10.083984 7.9902344 C 10.088689 7.6683421 10.090376 7.3521781 10.103516 7.0195312 C 10.10678 6.9369627 10.027932 6.9094113 9.8867188 6.9335938 z M 10.083984 9.0566406 C 10.036844 12.73269 10.553023 15.823912 11.789062 20.091797 C 11.978675 20.157643 12.104642 20.173864 12.076172 20.080078 C 10.747601 15.681046 10.139984 12.583293 10.083984 9.0566406 z M 20.722656 9.1523438 C 20.069874 9.1997174 19.295018 9.5123686 18.507812 9.9550781 C 16.89835 11.167252 15.369809 12.46135 14.035156 13.75 C 14.011027 13.818153 14.012055 13.865682 14.072266 13.863281 C 14.319522 13.854685 14.542195 13.852167 14.78125 13.845703 C 16.104198 12.503058 18.881482 10.285961 20.722656 10.152344 C 24.853621 10.475096 26.65494 13.650509 27.105469 15.308594 C 27.709823 15.442737 26.392081 9.5952962 20.722656 9.1523438 z M 3.515625 14.736328 C 3.2831033 14.705501 2.9140261 15.861804 3.0273438 17.394531 C 3.0911432 16.400011 3.3385242 15.712848 3.515625 15.736328 C 3.532056 15.738508 3.5457629 15.747448 3.5605469 15.761719 C 6.5517562 18.624512 9.2935333 20.38215 13.652344 22.425781 C 14.351786 22.174467 14.775653 21.950309 14.603516 21.871094 C 13.634643 21.430871 12.762984 21.008519 11.933594 20.589844 C 11.982932 20.756456 12.024699 20.909645 12.076172 21.080078 C 12.219771 21.553124 9.1613059 19.794592 7.2402344 17.820312 C 5.9720449 16.922233 4.7880869 15.936559 3.5605469 14.761719 C 3.5457629 14.747448 3.532056 14.738508 3.515625 14.736328 z M 18.28125 14.84375 C 18.298765 14.869738 18.316575 14.895979 18.333984 14.921875 C 19.909092 15.143362 23.994777 16.403865 25.238281 18.070312 C 25.798164 19.111738 26.054431 20.117404 26.123047 21.058594 C 26.20942 19.848382 26.002704 18.492198 25.238281 17.070312 C 24.712455 16.36564 23.674388 15.731636 22.533203 15.21875 C 21.183436 15.004433 19.796078 14.891002 18.28125 14.84375 z M 19.398438 17.554688 C 18.03076 22.819098 16.765638 25.995107 14.306641 29.691406 C 14.235474 29.797033 14.453796 29.885282 14.783203 29.941406 C 16.931812 26.545843 18.130891 23.445075 19.408203 18.521484 C 19.418293 18.481613 19.440093 18.466609 19.470703 18.474609 C 19.861711 18.577323 21.782726 22.389403 22.015625 25.035156 C 22.176088 23.78621 21.67624 21.975147 21.066406 20.431641 C 20.57994 19.503044 20.027564 18.552919 19.398438 17.554688 z M 17.966797 20.851562 C 17.954277 20.848462 17.938302 20.850575 17.919922 20.859375 C 16.498562 21.544507 15.225568 22.109583 14.015625 22.595703 C 14.214767 22.687903 14.39743 22.777455 14.603516 22.871094 C 15.107045 23.102811 10.81919 24.547245 7.9804688 24.396484 C 7.1512645 24.552303 6.3041905 24.683293 5.4003906 24.783203 C 5.2193334 24.804184 5.3924012 25.210459 5.8105469 25.728516 C 9.944041 25.227007 13.104799 24.166573 17.730469 21.949219 C 17.966954 21.316957 18.070315 20.877749 17.966797 20.851562 z "
           transform="matrix(1.0399903,0,0,1.0355008,7.8820034,7.9265405)"
           id="path4774" />
      </g>
    </g>
  </g>
  <g
     style="fill:#000000;fill-opacity:1"
     id="g4779"
     transform="matrix(0.9615474,0,0,0.96571627,-7.5789199,-7.6547891)">
    <g
       style="fill:#000000;fill-opacity:1"
       id="g4781"
       clip-path="url(#clipPath-429196716)">
      <!-- color: #eeeeee -->
      <g
         style="fill:#000000;fill-opacity:1"
         id="g4783">
        <path
           style="fill:#000000;fill-opacity:1;fill-rule:nonzero;stroke:none;opacity:0.3"
           d="M 27.537109 2.34375 C 27.356407 2.4692099 27.125184 2.6036167 26.826172 2.7460938 C 22.239591 4.9218524 14.559345 10.335364 11.355469 14.71875 C 11.266889 14.83919 11.211881 14.446555 11.191406 13.808594 C 11.169917 15.043404 11.227876 15.892235 11.355469 15.71875 C 12.053488 14.763754 12.990469 13.758678 14.035156 12.75 C 14.208469 12.26049 16.395675 10.142904 18.507812 8.9550781 C 21.420941 6.7610411 24.515481 4.8422276 26.826172 3.7460938 C 28.184022 3.0990887 28.239516 2.6327771 27.537109 2.34375 z M 10.083984 6.9902344 C 10.078734 7.3494986 10.078442 7.7075726 10.083984 8.0566406 C 10.088386 7.713427 10.089478 7.3749259 10.103516 7.0195312 C 10.104089 7.0050277 10.088371 7.0013608 10.083984 6.9902344 z M 16.013672 12.816406 C 15.620028 12.820803 15.195531 12.834439 14.779297 12.845703 C 14.200756 13.433117 13.873243 13.871218 14.072266 13.863281 C 15.62312 13.809362 16.996283 13.803668 18.28125 13.84375 C 18.091204 13.561765 17.911781 13.289743 17.708984 12.996094 C 17.661988 12.92825 17.719682 12.890113 17.859375 12.882812 C 18.468292 12.850839 20.637171 13.371292 22.525391 14.21875 C 24.032093 14.457576 25.505459 14.811715 27.097656 15.310547 C 27.270052 15.364455 27.276288 14.937437 27.105469 14.308594 C 27.102385 14.307912 27.10084 14.311542 27.097656 14.310547 C 23.399905 13.152049 20.347537 12.767999 16.013672 12.816406 z M 5.7285156 12.916016 C 5.6915665 13.508686 5.7192071 14.139167 5.84375 14.814453 L 5.8457031 14.816406 C 6.0653882 15.457527 6.5885812 16.15061 7.2402344 16.820312 C 8.6360647 17.808787 10.152572 18.692753 11.933594 19.591797 C 11.883469 19.422545 11.837003 19.259269 11.789062 19.09375 C 10.698043 18.714962 6.5846442 15.972904 5.8457031 13.816406 L 5.84375 13.814453 C 5.7868864 13.506132 5.7494586 13.207227 5.7285156 12.916016 z M 17.859375 13.882812 C 17.719682 13.890113 17.661988 13.92825 17.708984 13.996094 C 18.336156 14.90424 18.886787 15.742854 19.398438 16.554688 C 19.401467 16.543025 19.405172 16.533167 19.408203 16.521484 C 19.418293 16.481613 19.440093 16.466609 19.470703 16.474609 C 19.695619 16.533692 20.431323 17.829225 21.060547 19.417969 C 22.134281 21.465556 22.913935 23.448498 23.568359 25.808594 C 23.708908 26.314919 26.388159 23.695067 26.123047 20.058594 C 25.902119 23.16004 23.695631 25.267092 23.568359 24.808594 C 22.462253 20.819566 21.010853 17.903609 18.333984 13.921875 C 18.140003 13.894598 17.966597 13.877182 17.859375 13.882812 z M 3.0273438 16.392578 C 2.9076438 18.25849 3.4659117 21.269419 6.5703125 23.128906 C 6.9593168 23.288755 7.4474136 23.368174 7.9804688 23.396484 C 10.016739 23.013842 11.917106 22.438827 14.015625 21.595703 C 13.8926 21.538744 13.772824 21.482269 13.652344 21.425781 C 11.921605 22.047646 8.3227148 22.849 6.5703125 22.128906 C 3.982796 20.579025 3.1618289 18.217797 3.0273438 16.392578 z M 17.966797 20.851562 C 17.954277 20.848462 17.938302 20.850575 17.919922 20.859375 C 17.854282 20.891015 17.795516 20.916084 17.730469 20.947266 C 17.080754 22.685097 15.36195 25.976803 13.691406 26.861328 L 13.685547 26.863281 C 9.788971 28.22676 6.8935685 26.070313 5.8105469 24.728516 C 5.6718895 24.745339 5.5413676 24.767619 5.4003906 24.783203 C 4.7503846 24.858525 8.2845353 29.753188 13.685547 27.863281 L 13.691406 27.861328 C 15.968922 26.655421 18.354913 20.949743 17.966797 20.851562 z M 22.015625 24.035156 C 22.004446 24.12217 21.99832 24.213759 21.980469 24.294922 L 21.978516 24.292969 C 20.324653 28.633313 16.158401 29.175712 14.783203 28.941406 C 14.625328 29.190904 14.475328 29.437841 14.306641 29.691406 C 13.938368 30.238002 19.928496 30.672973 21.978516 25.292969 L 21.980469 25.294922 C 22.060429 24.93137 22.056191 24.495986 22.015625 24.035156 z "
           transform="matrix(1.0399903,0,0,1.0355008,7.8820034,7.9265405)"
           id="path4785" />
      </g>
    </g>
  </g>
  <g
     transform="matrix(0.9615474,0,0,0.96571627,-7.5789199,-8.6544325)"
     id="g4787"
     style="fill:#005000;fill-opacity:1">
    <g
       clip-path="url(#clipPath-429196716)"
       id="g4789"
       style="fill:#005000;fill-opacity:1">
      <!-- color: #eeeeee -->
      <g
         id="g4791"
         style="fill:#005000;fill-opacity:1" />
    </g>
  </g>
  <g
     style="fill:#ff50ff;fill-opacity:1"
     id="g4796"
     transform="matrix(0.9615474,0,0,0.96571627,-7.5789199,-6.6544325)">
    <g
       style="fill:#ff50ff;fill-opacity:1"
       id="g4798"
       clip-path="url(#clipPath-429196716)">
      <!-- color: #eeeeee -->
      <g
         style="fill:#ff50ff;fill-opacity:1"
         id="g4800" />
    </g>
  </g>
</svg>
