<?xml version="1.0" encoding="UTF-8" standalone="no"?>
<!-- Created with Inkscape (http://www.inkscape.org/) -->

<svg
   xmlns:dc="http://purl.org/dc/elements/1.1/"
   xmlns:cc="http://creativecommons.org/ns#"
   xmlns:rdf="http://www.w3.org/1999/02/22-rdf-syntax-ns#"
   xmlns:svg="http://www.w3.org/2000/svg"
   xmlns="http://www.w3.org/2000/svg"
   xmlns:sodipodi="http://sodipodi.sourceforge.net/DTD/sodipodi-0.dtd"
   xmlns:inkscape="http://www.inkscape.org/namespaces/inkscape"
   width="32"
   height="32"
   viewBox="0 0 32 32.000001"
   id="svg4779"
   version="1.1"
   inkscape:version="0.91 r13725"
   sodipodi:docname="victor-vran.svg">
  <defs
     id="defs4781" />
  <sodipodi:namedview
     id="base"
     pagecolor="#ffffff"
     bordercolor="#666666"
     borderopacity="1.0"
     inkscape:pageopacity="0.0"
     inkscape:pageshadow="2"
     inkscape:zoom="1"
     inkscape:cx="9.5102189"
     inkscape:cy="13.043475"
     inkscape:document-units="px"
     inkscape:current-layer="layer1"
     showgrid="false"
     units="px"
     inkscape:window-width="1600"
     inkscape:window-height="845"
     inkscape:window-x="0"
     inkscape:window-y="31"
     inkscape:window-maximized="1" />
  <metadata
     id="metadata4784">
    <rdf:RDF>
      <cc:Work
         rdf:about="">
        <dc:format>image/svg+xml</dc:format>
        <dc:type
           rdf:resource="http://purl.org/dc/dcmitype/StillImage" />
        <dc:title></dc:title>
      </cc:Work>
    </rdf:RDF>
  </metadata>
  <g
     inkscape:label="Layer 1"
     inkscape:groupmode="layer"
     id="layer1"
     transform="translate(0,-1020.3622)">
    <rect
       style="fill:#32434d;fill-opacity:1"
       x="-1050.3622"
       y="-30"
       width="27.99995"
       height="28"
       ry="14"
       rx="13.999975"
       transform="matrix(0,-1,-1,0,0,0)"
       id="rect4203-4" />
    <path
       inkscape:connector-curvature="0"
       style="opacity:1;fill:#ffffff;fill-opacity:1;stroke:none;stroke-width:2;stroke-linecap:round;stroke-linejoin:round;stroke-miterlimit:4;stroke-dasharray:none;stroke-opacity:1"
       d="m 16.000011,1026.3683 a 10.000008,10.000008 0 0 0 -10.0000083,10 10.000008,10.000008 0 0 0 6.4843813,9.3495 c -0.0049,-0.1423 -0.0054,-0.3253 -0.01502,-0.4313 -0.02941,-0.3315 0.05096,-1.8122 0.123196,-2.2626 0.02492,-0.1556 0.115462,-0.4622 0.201323,-0.6806 0.170274,-0.433 0.3623,-1.0823 0.43119,-1.4648 0.02411,-0.1334 0.0854,-0.3891 0.136719,-0.568 0.07869,-0.2734 0.08795,-0.3922 0.0616,-0.7556 -0.0241,-0.3324 -0.01463,-0.4799 0.03906,-0.646 0.09133,-0.2834 0.08717,-0.3817 -0.01953,-0.6356 -0.0554,-0.1318 -0.08859,-0.3218 -0.09014,-0.5032 l -0.003,-0.2916 -0.08563,0.1113 c -0.04716,0.061 -0.117296,0.2363 -0.15625,0.3891 -0.17127,0.6706 -0.434132,1.0604 -1.195914,1.7803 -0.275387,0.2601 -0.517831,0.5196 -0.539364,0.5769 -0.296968,0.7909 -0.32528,0.904 -0.301982,1.208 0.01283,0.1674 0.03726,0.3507 0.05409,0.4071 0.04127,0.1383 -0.0959,0.1957 -0.207333,0.087 -0.04626,-0.044 -0.113946,-0.064 -0.15625,-0.048 -0.06031,0.026 -0.06998,0.079 -0.05259,0.2734 0.0259,0.291 0.03955,0.3108 0.229868,0.305 0.12372,0 0.155703,0.017 0.196815,0.1353 0.02747,0.079 0.03177,0.1412 0.009,0.1412 -0.02262,0 -0.04207,0.063 -0.04207,0.1458 0,0.1397 -0.0071,0.1456 -0.198317,0.1456 -0.172499,0 -0.202401,0.014 -0.214843,0.1078 -0.0092,0.069 -0.04999,0.1156 -0.114182,0.1247 -0.132936,0.021 -0.497258,-0.3714 -0.6385227,-0.6866 -0.142083,-0.3172 -0.115608,-0.8064 0.07512,-1.4167 0.07519,-0.2404 0.160431,-0.5686 0.190806,-0.7287 0.07182,-0.3791 0.15702,-0.5499 0.289964,-0.5859 0.0826,-0.021 0.159314,-0.144 0.330528,-0.5228 0.122729,-0.2716 0.270438,-0.6361 0.327525,-0.8098 0.123565,-0.3758 0.258416,-0.6 0.618991,-1.0292 0.147922,-0.1762 0.293581,-0.4033 0.324519,-0.5063 0.03097,-0.1045 0.149704,-0.4062 0.262922,-0.673 l 0.205828,-0.4854 0.02854,-0.8743 c 0.01609,-0.4808 0.05167,-0.9526 0.07962,-1.0472 0.02786,-0.094 0.1626,-0.3174 0.298978,-0.4958 0.146732,-0.1917 0.247897,-0.372 0.247897,-0.4402 0,-0.1371 0.210086,-0.4646 0.371094,-0.5785 0.06292,-0.044 0.172754,-0.095 0.24339,-0.1126 0.253209,-0.061 0.286972,-0.08 0.333533,-0.1728 0.03752,-0.077 0.01761,-0.1567 -0.09466,-0.3951 -0.07779,-0.1654 -0.168814,-0.3444 -0.202825,-0.3967 -0.05434,-0.084 -0.05124,-0.1033 0.02704,-0.1622 0.04903,-0.038 0.215204,-0.097 0.369592,-0.1292 0.262199,-0.059 0.282035,-0.069 0.294471,-0.2028 0.01201,-0.1287 -0.01457,-0.1599 -0.270432,-0.3216 -0.589688,-0.3726 -0.802004,-0.6155 -0.799282,-0.9104 0.0033,-0.3321 0.180199,-0.5205 0.688102,-0.7332 0.258137,-0.1078 0.325988,-0.1573 0.338042,-0.2479 0.0083,-0.061 0.03293,-0.134 0.05559,-0.1593 0.02263,-0.027 0.04207,-0.1375 0.04207,-0.2478 0,-0.3325 0.09602,-0.7685 0.196813,-0.8895 0.186906,-0.2245 0.335057,-0.2725 0.815808,-0.2704 0.377516,0 0.481225,0.019 0.64453,0.1099 0.219802,0.1236 0.263268,0.2112 0.413162,0.8323 0.05474,0.2271 0.136281,0.4482 0.181791,0.4913 0.04551,0.043 0.09463,0.1321 0.109678,0.1968 0.0206,0.088 0.09456,0.1458 0.297476,0.2329 0.524748,0.2249 0.806027,0.6222 0.709135,1.0007 -0.08412,0.3287 -0.514161,0.7015 -0.808293,0.7015 -0.04748,0 -0.08563,0.034 -0.08563,0.073 0,0.039 0.02809,0.072 0.0616,0.072 0.04322,0 0.06871,0.1033 0.08864,0.359 0.01553,0.198 0.05187,0.4174 0.08113,0.4868 0.05123,0.1213 0.06777,0.125 0.440205,0.1246 0.32958,-10e-5 0.438232,0.021 0.745193,0.1548 0.198001,0.086 0.376688,0.1838 0.396635,0.2194 0.01993,0.037 0.131722,0.1174 0.247897,0.1818 0.294452,0.163 0.716122,0.648 1.038162,1.1929 0.149967,0.2537 0.314968,0.5129 0.365084,0.5755 0.05011,0.061 0.09014,0.1458 0.09014,0.1862 0,0.041 0.04652,0.1424 0.102167,0.2269 0.0558,0.085 0.104144,0.2342 0.108177,0.3351 0.0093,0.237 0.18655,0.6371 0.634014,1.4302 0.278029,0.493 0.369239,0.6996 0.393631,0.891 0.0175,0.1371 0.04415,0.8248 0.0601,1.5279 0.02787,1.2299 0.03355,1.2829 0.129206,1.3927 0.09933,0.1143 0.09911,0.1142 0.05859,1.3041 -0.02231,0.6546 -0.06056,1.248 -0.08563,1.3191 -0.02509,0.071 -0.106733,0.163 -0.180289,0.2043 -0.07353,0.041 -0.144857,0.1144 -0.159255,0.1638 -0.01439,0.049 -0.148822,0.1523 -0.298978,0.23 -0.150154,0.078 -0.28321,0.1574 -0.294472,0.1772 -0.01127,0.02 0.06511,0.2172 0.16827,0.4387 0.106756,0.2293 0.234486,0.4168 0.398137,0.6175 a 10.000008,10.000008 0 0 0 4.323903,-8.2204 10.000008,10.000008 0 0 0 -10.000008,-10 z m 2.696817,9.4847 c -0.01823,0 -0.02833,0.1139 -0.02253,0.2539 0.0088,0.2063 -0.01115,0.2872 -0.102166,0.4222 -0.06187,0.092 -0.205693,0.3644 -0.320013,0.6069 l -0.207332,0.4402 0.85637,1.8209 c 0.944658,2.0068 1.03754,2.1844 1.132815,2.1844 0.03588,0 0.143715,-0.1243 0.240384,-0.2778 l 0.0016,0 c 0.09668,-0.1536 0.246872,-0.3729 0.335036,-0.4868 0.109555,-0.1412 0.17838,-0.2949 0.216347,-0.4854 0.03054,-0.1532 0.06936,-0.3007 0.08713,-0.3274 0.111554,-0.1673 0.08954,-0.3666 -0.09766,-0.8819 -0.214623,-0.5911 -0.303002,-1.0409 -0.306491,-1.5536 l -0.003,-0.3485 -0.31851,-0.1367 c -0.253669,-0.11 -0.399235,-0.219 -0.715145,-0.5379 -0.218266,-0.2204 -0.42852,-0.4011 -0.467248,-0.4011 -0.03873,0 -0.09387,-0.049 -0.123197,-0.1078 -0.05402,-0.1111 -0.125724,-0.1805 -0.186298,-0.1818 z m -0.123197,4.6033 c -0.06351,-0.052 -0.05433,0.1402 -0.04658,0.5168 0.0089,0.4267 0.150309,1.1058 0.23738,1.1373 0.03033,0.011 0.106223,0.077 0.169772,0.1458 l 0.115685,0.1247 0.05859,1.8901 c 0.02458,0.8096 0.05261,1.2515 0.07662,1.564 a 10.000008,10.000008 0 0 0 2.025242,-0.942 c -0.549093,-0.316 -1.04663,-0.9461 -1.413763,-1.8359 -0.120134,-0.2912 -0.45478,-1.0323 -0.742189,-1.6467 -0.28242,-0.6035 -0.417263,-0.9015 -0.480769,-0.954 z m 2.112382,1.3086 c -0.02986,-0.013 -0.05775,-0.011 -0.09466,0.014 -0.20359,0.1178 -0.198086,0.244 0.03156,0.7708 0.143039,0.3281 0.227948,0.4712 0.252403,0.4297 0.02019,-0.036 0.03562,-0.2629 0.03606,-0.5079 5.63e-4,-0.4086 -0.0078,-0.4568 -0.114184,-0.5935 -0.04842,-0.062 -0.08132,-0.098 -0.111178,-0.1126 z m -5.198322,2.4399 c -0.04496,0 -0.06455,0.055 -0.0646,0.1817 -1.46e-4,0.1795 -0.140358,1.0288 -0.228366,1.3838 -0.01346,0.054 -0.05962,0.3448 -0.09466,0.5529 a 10.000008,10.000008 0 0 0 0.770733,0.039 c -0.0017,-0.3279 -0.100867,-0.9139 -0.199819,-1.1673 -0.05066,-0.1297 -0.07027,-0.2964 -0.0616,-0.5289 0.01322,-0.3567 -0.01423,-0.4612 -0.121696,-0.4612 z"
       id="path4183" />
    <path
       style="fill:#ffffff;fill-opacity:1;opacity:0.2"
       d="M 16 2 C 8.244 2 2 8.2440137 2 16 C 2 16.168842 2.0195214 16.33264 2.0253906 16.5 C 2.2891326 8.9794458 8.4128418 3 16 3 C 23.587158 3 29.710867 8.9794458 29.974609 16.5 C 29.980479 16.33264 30 16.168842 30 16 C 30 8.2440137 23.756 2 16 2 z "
       transform="translate(0,1020.3622)"
       id="rect4260" />
    <path
       style="fill:#000000;fill-opacity:1;opacity:0.3"
       d="M 2.0253906 15.5 C 2.0195214 15.66736 2 15.831158 2 16 C 2 23.755986 8.244 30 16 30 C 23.756 30 30 23.755986 30 16 C 30 15.831158 29.980479 15.66736 29.974609 15.5 C 29.710867 23.020554 23.587158 29 16 29 C 8.4128418 29 2.2891326 23.020554 2.0253906 15.5 z "
       transform="translate(0,1020.3622)"
       id="rect4265" />
  </g>
</svg>
