<?xml version="1.0" encoding="UTF-8" standalone="no"?>
<svg
   xmlns:dc="http://purl.org/dc/elements/1.1/"
   xmlns:cc="http://creativecommons.org/ns#"
   xmlns:rdf="http://www.w3.org/1999/02/22-rdf-syntax-ns#"
   xmlns:svg="http://www.w3.org/2000/svg"
   xmlns="http://www.w3.org/2000/svg"
   xmlns:sodipodi="http://sodipodi.sourceforge.net/DTD/sodipodi-0.dtd"
   xmlns:inkscape="http://www.inkscape.org/namespaces/inkscape"
   width="24"
   height="24"
   version="1.1"
   id="svg2"
   inkscape:version="0.91 r"
   sodipodi:docname="configure-toolbars.svg">
  <defs
     id="defs10" />
  <sodipodi:namedview
     pagecolor="#ffffff"
     bordercolor="#666666"
     borderopacity="1"
     objecttolerance="10"
     gridtolerance="10"
     guidetolerance="10"
     inkscape:pageopacity="0"
     inkscape:pageshadow="2"
     inkscape:window-width="1600"
     inkscape:window-height="849"
     id="namedview8"
     showgrid="false"
     inkscape:zoom="14.75"
     inkscape:cx="-16"
     inkscape:cy="8"
     inkscape:window-x="0"
     inkscape:window-y="26"
     inkscape:window-maximized="1"
     inkscape:current-layer="g4953" />
  <metadata
     id="metadata90">
    <rdf:RDF>
      <cc:Work
         rdf:about="">
        <dc:format>image/svg+xml</dc:format>
        <dc:type
           rdf:resource="http://purl.org/dc/dcmitype/StillImage" />
        <dc:title />
      </cc:Work>
    </rdf:RDF>
  </metadata>
  <g
     inkscape:label="categories"
     inkscape:groupmode="layer"
     id="g4953"
     transform="translate(-522.0002,-462)">
    <path
       style="opacity:0.72;fill:#ffffff;fill-opacity:1"
       d="m 537.01759,465.9999 c -0.34541,0.13322 -0.68881,0.30433 -0.97656,0.53711 -1.37728,1.11412 -1.3943,2.94849 -0.0391,4.09766 0.28315,0.24009 0.62407,0.41847 0.96679,0.56054 0.0278,0.0113 0.0274,2.05469 0.0274,2.05469 1.48949,0.75 2.35014,1.75 2.99804,2.75 l 0,-4.74805 c 0.3454,-0.13322 0.66732,-0.32191 0.95508,-0.55468 1.37727,-1.11412 1.3943,-2.94849 0.0391,-4.09766 -0.28315,-0.24009 -0.62406,-0.41849 -0.96679,-0.56055 l -0.0215,2.23242 c -0.005,0.45867 -0.45208,0.72852 -1.0059,0.72852 l -0.99804,0 c -0.55376,-0.007 -1.00446,-0.30891 -1,-0.76758 l 0.0215,-2.23242 z m -3.02148,8 c -3.99844,0 -5.9961,3 -5.9961,6 l -1.75,0 c -0.2499,0 -0.25,0.15712 -0.25,0.25 l 0,1.5 c 0,0.25 0.13824,0.25 0.25,0.25 l 15.49414,0 c 0.19535,0.006 0.25,-0.12948 0.25,-0.25 l 0,-1.5 c 0.0212,-0.14605 -10e-5,-0.25 -0.25,-0.25 l -1.75,0 c 0,-3 -1.9996,-6 -5.99804,-6 z m 0,3 c 2.3501,0 3,1.76177 3,3 l -5.99805,0 c 0,-1.19769 0.70175,-3 2.99805,-3 z"
       id="rect7157"
       inkscape:connector-curvature="0" />
  </g>
</svg>
