<?xml version="1.0" encoding="UTF-8" standalone="no"?>
<!-- Created with Inkscape (http://www.inkscape.org/) -->

<svg
   xmlns:osb="http://www.openswatchbook.org/uri/2009/osb"
   xmlns:dc="http://purl.org/dc/elements/1.1/"
   xmlns:cc="http://creativecommons.org/ns#"
   xmlns:rdf="http://www.w3.org/1999/02/22-rdf-syntax-ns#"
   xmlns:svg="http://www.w3.org/2000/svg"
   xmlns="http://www.w3.org/2000/svg"
   xmlns:sodipodi="http://sodipodi.sourceforge.net/DTD/sodipodi-0.dtd"
   xmlns:inkscape="http://www.inkscape.org/namespaces/inkscape"
   sodipodi:docname="document-save-all.svg"
   inkscape:export-filename="/home/sam/source-symbolic.png"
   inkscape:export-xdpi="270"
   inkscape:export-ydpi="270"
   height="24"
   id="svg7384"
   style="enable-background:new"
   version="1.1"
   inkscape:version="0.91 r"
   width="24">
  <sodipodi:namedview
     inkscape:bbox-nodes="true"
     inkscape:bbox-paths="false"
     bordercolor="#666666"
     borderlayer="false"
     borderopacity="1"
     inkscape:current-layer="layer12"
     inkscape:cx="1.6502019"
     inkscape:cy="15.29931"
     gridtolerance="10"
     inkscape:guide-bbox="true"
     guidetolerance="10"
     id="namedview88"
     inkscape:object-nodes="true"
     inkscape:object-paths="true"
     objecttolerance="10"
     pagecolor="#f7f7f7"
     inkscape:pageopacity="0"
     inkscape:pageshadow="2"
     showborder="true"
     showgrid="false"
     showguides="true"
     inkscape:showpageshadow="false"
     inkscape:snap-bbox="true"
     inkscape:snap-bbox-edge-midpoints="false"
     inkscape:snap-bbox-midpoints="true"
     inkscape:snap-center="false"
     inkscape:snap-global="true"
     inkscape:snap-grids="true"
     inkscape:snap-intersection-paths="true"
     inkscape:snap-midpoints="true"
     inkscape:snap-nodes="true"
     inkscape:snap-object-midpoints="true"
     inkscape:snap-others="true"
     inkscape:snap-page="false"
     inkscape:snap-smooth-nodes="true"
     inkscape:snap-to-guides="true"
     inkscape:window-height="849"
     inkscape:window-maximized="1"
     inkscape:window-width="1600"
     inkscape:window-x="0"
     inkscape:window-y="26"
     inkscape:zoom="26.24">
    <inkscape:grid
       color="#ffffff"
       dotted="false"
       empcolor="#0800ff"
       empopacity="0.4627451"
       empspacing="4"
       enabled="true"
       id="grid4866"
       opacity="0.16470588"
       originx="-84.002699"
       originy="-297.01904"
       snapvisiblegridlinesonly="true"
       spacingx="0.25px"
       spacingy="0.25px"
       type="xygrid"
       visible="true" />
  </sodipodi:namedview>
  <metadata
     id="metadata90">
    <rdf:RDF>
      <cc:Work
         rdf:about="">
        <dc:format>image/svg+xml</dc:format>
        <dc:type
           rdf:resource="http://purl.org/dc/dcmitype/StillImage" />
        <dc:title>Paper Symbolic Icon Theme</dc:title>
      </cc:Work>
    </rdf:RDF>
  </metadata>
  <title
     id="title8473">Paper Symbolic Icon Theme</title>
  <defs
     id="defs7386">
    <linearGradient
       id="linearGradient5606"
       osb:paint="solid">
      <stop
         id="stop5608"
         offset="0"
         style="stop-color:#ffffff;stop-opacity:0.72;" />
    </linearGradient>
  </defs>
  <g
     inkscape:groupmode="layer"
     id="layer12"
     inkscape:label="actions"
     style="display:inline"
     transform="translate(-325.0029,80.019037)">
    <g
       id="g4140"
       transform="translate(3.00465,4.000493)">
      <path
         style="opacity:0.72;fill:#ffffff;fill-opacity:1;fill-rule:nonzero;stroke:none"
         id="path10456"
         d="m 330.99239,-79 0.01,6 -2.3418,0 3.33981,4.86133 0,-1.98633 c 0,-1.0106 0.90116,-1.84375 1.875,-1.84375 l 2.7832,0 0.7168,-1.03125 -2.375,0 -0.01,-6 -3.99805,0 z"
         inkscape:connector-curvature="0" />
      <path
         sodipodi:nodetypes="cccscc"
         style="opacity:0.72;fill:#ffffff;fill-opacity:1;fill-rule:nonzero;stroke:none"
         id="path10461"
         d="m 325.99825,-65.98828 0,1.96875 6.25781,0 c -0.15641,-0.26492 -0.25586,-0.56446 -0.25586,-0.88672 l 0,-1.08203 z"
         inkscape:connector-curvature="0" />
      <path
         id="path4142"
         transform="translate(325.0029,-80.019037)"
         d="m 8.8730469,9.0507812 c -0.49245,0 -0.875,0.3555901 -0.875,0.84375 l 0,5.2187498 c 0,0.48816 0.38255,0.84375 0.875,0.84375 l 6.2500001,0 c 0.49245,0 0.875,-0.35559 0.875,-0.84375 l 0,-5.2187498 c 0,-0.4881599 -0.38255,-0.84375 -0.875,-0.84375 l -6.2500001,0 z M 10,10 l 1,0 2,0 1,0 0,1 0,4 -1,0 0,-2 -2,0 0,2 -1,0 0,-2 0,-1 0,-1 0,-1 z m 1,1 0,1 2,0 0,-1 -2,0 z"
         style="color:#bebebe;display:inline;overflow:visible;visibility:visible;opacity:0.72;fill:#ffffff;fill-opacity:1;fill-rule:nonzero;stroke:none;stroke-width:2;marker:none;enable-background:new"
         inkscape:connector-curvature="0" />
    </g>
  </g>
</svg>
