<?xml version="1.0" encoding="UTF-8" standalone="no"?>
<!-- Created with Inkscape (http://www.inkscape.org/) -->

<svg
   xmlns:osb="http://www.openswatchbook.org/uri/2009/osb"
   xmlns:dc="http://purl.org/dc/elements/1.1/"
   xmlns:cc="http://creativecommons.org/ns#"
   xmlns:rdf="http://www.w3.org/1999/02/22-rdf-syntax-ns#"
   xmlns:svg="http://www.w3.org/2000/svg"
   xmlns="http://www.w3.org/2000/svg"
   xmlns:sodipodi="http://sodipodi.sourceforge.net/DTD/sodipodi-0.dtd"
   xmlns:inkscape="http://www.inkscape.org/namespaces/inkscape"
   sodipodi:docname="im-yahoo.svg"
   inkscape:export-filename="/home/sam/source-symbolic.png"
   inkscape:export-xdpi="270"
   inkscape:export-ydpi="270"
   height="24"
   id="svg7384"
   style="enable-background:new"
   version="1.1"
   inkscape:version="0.91 r"
   width="24">
  <sodipodi:namedview
     inkscape:bbox-nodes="true"
     inkscape:bbox-paths="false"
     bordercolor="#666666"
     borderlayer="false"
     borderopacity="1"
     inkscape:current-layer="layer12"
     inkscape:cx="-153.87364"
     inkscape:cy="7.4378284"
     gridtolerance="10"
     inkscape:guide-bbox="true"
     guidetolerance="10"
     id="namedview88"
     inkscape:object-nodes="true"
     inkscape:object-paths="true"
     objecttolerance="10"
     pagecolor="#f7f7f7"
     inkscape:pageopacity="0"
     inkscape:pageshadow="2"
     showborder="true"
     showgrid="false"
     showguides="true"
     inkscape:showpageshadow="false"
     inkscape:snap-bbox="true"
     inkscape:snap-bbox-edge-midpoints="false"
     inkscape:snap-bbox-midpoints="true"
     inkscape:snap-center="false"
     inkscape:snap-global="true"
     inkscape:snap-grids="true"
     inkscape:snap-intersection-paths="true"
     inkscape:snap-midpoints="true"
     inkscape:snap-nodes="true"
     inkscape:snap-object-midpoints="true"
     inkscape:snap-others="true"
     inkscape:snap-page="false"
     inkscape:snap-smooth-nodes="true"
     inkscape:snap-to-guides="true"
     inkscape:window-height="849"
     inkscape:window-maximized="1"
     inkscape:window-width="1600"
     inkscape:window-x="0"
     inkscape:window-y="26"
     inkscape:zoom="1">
    <inkscape:grid
       color="#ffffff"
       dotted="false"
       empcolor="#0800ff"
       empopacity="0.4627451"
       empspacing="4"
       enabled="true"
       id="grid4866"
       opacity="0.16470588"
       originx="-244.0004"
       originy="-316.00672"
       snapvisiblegridlinesonly="true"
       spacingx="0.25px"
       spacingy="0.25px"
       type="xygrid"
       visible="true" />
  </sodipodi:namedview>
  <metadata
     id="metadata90">
    <rdf:RDF>
      <cc:Work
         rdf:about="">
        <dc:format>image/svg+xml</dc:format>
        <dc:type
           rdf:resource="http://purl.org/dc/dcmitype/StillImage" />
        <dc:title>Paper Symbolic Icon Theme</dc:title>
      </cc:Work>
    </rdf:RDF>
  </metadata>
  <title
     id="title8473">Paper Symbolic Icon Theme</title>
  <defs
     id="defs7386">
    <linearGradient
       id="linearGradient5606"
       osb:paint="solid">
      <stop
         id="stop5608"
         offset="0"
         style="stop-color:#ffffff;stop-opacity:0.72;" />
    </linearGradient>
  </defs>
  <g
     inkscape:groupmode="layer"
     id="layer12"
     inkscape:label="actions"
     style="display:inline"
     transform="translate(-485.0006,99.00672)">
    <path
       style="opacity:0.72;fill:#ffffff;fill-opacity:1;stroke:none"
       d="m 497.0006,-94.00672 c -3.86603,0 -7,3.13412 -7,7 0,3.86603 3.13397,7 7,7 3.86603,0 7,-3.13397 7,-7 0,-3.86588 -3.13397,-7 -7,-7 z m -1.30273,3.001953 c 0.50813,0.0077 0.95287,0.0224 1.05078,0.03711 l -0.0508,0.445312 c -0.20857,0.06587 -1.21181,0.09023 -1.47266,0.177735 0.67813,1.271029 1.74986,2.907404 2.09766,3.542968 0.19135,-0.350557 1.87172,-1.808497 1.92382,-2.3125 -0.26089,-0.06596 -1.12452,-0.222656 -1.26367,-0.222656 l -0.082,-0.574219 c 0.23674,-0.04673 1.48076,0 2.09961,0 0.53406,0 1.67573,-3.07e-4 2,0.0332 l -0.29687,0.541016 c -0.17402,0.02164 -0.89714,0.225242 -1.14063,0.291016 -0.26071,0.0875 -2.6443,2.406992 -2.80078,2.976562 -0.0347,0.19712 -0.0508,0.502106 -0.0508,0.78711 l -0.0176,0.458984 c 0,0.328457 0.0727,0.857793 0.10742,1.142578 0.1566,0.04401 1.28947,0.0067 1.49805,0.05078 l -0.0254,0.587891 c -0.2038,-0.0187 -1.64457,-0.01367 -2.4668,-0.01367 -0.41739,0 -1.75768,0.0586 -2.16992,0.04297 l 0.0781,-0.560547 c 0.22605,-0.02215 1.16144,0.05115 1.36719,-0.222656 0.1022,-0.135823 0.0703,-0.281512 0.0703,-1.070313 l 0,-0.373047 c 0,-0.175336 -2.5e-4,-0.503655 -0.0351,-0.810547 -0.0869,-0.328785 -2.18566,-3.630457 -2.72461,-4.15625 -0.15661,-0.06564 -1.13748,-0.189971 -1.38086,-0.255859 l -0.0117,-0.503906 c 0.12142,-0.07679 1.21128,0.01811 2.26953,-0.03125 0.34775,-0.01618 0.9196,-0.01553 1.42774,-0.0078 z"
       id="path4143"
       inkscape:connector-curvature="0" />
  </g>
</svg>
