<?xml version="1.0" encoding="UTF-8" standalone="no"?>
<!-- Created with Inkscape (http://www.inkscape.org/) -->

<svg
   xmlns:osb="http://www.openswatchbook.org/uri/2009/osb"
   xmlns:dc="http://purl.org/dc/elements/1.1/"
   xmlns:cc="http://creativecommons.org/ns#"
   xmlns:rdf="http://www.w3.org/1999/02/22-rdf-syntax-ns#"
   xmlns:svg="http://www.w3.org/2000/svg"
   xmlns="http://www.w3.org/2000/svg"
   xmlns:sodipodi="http://sodipodi.sourceforge.net/DTD/sodipodi-0.dtd"
   xmlns:inkscape="http://www.inkscape.org/namespaces/inkscape"
   width="112"
   height="28"
   id="svg4428"
   version="1.1"
   inkscape:version="0.91 r"
   sodipodi:docname="maximize.svg">
  <defs
     id="defs4430">
    <linearGradient
       osb:paint="solid"
       id="linearGradient5606">
      <stop
         style="stop-color:#000000;stop-opacity:1;"
         offset="0"
         id="stop5608" />
    </linearGradient>
  </defs>
  <sodipodi:namedview
     id="base"
     pagecolor="#bdc3c7"
     bordercolor="#666666"
     borderopacity="1.0"
     inkscape:pageopacity="1"
     inkscape:pageshadow="2"
     inkscape:zoom="5.09"
     inkscape:cx="123.57591"
     inkscape:cy="14.381718"
     inkscape:document-units="px"
     inkscape:current-layer="layer1"
     showgrid="false"
     inkscape:snap-bbox="true"
     inkscape:window-width="1600"
     inkscape:window-height="847"
     inkscape:window-x="-4"
     inkscape:window-y="26"
     inkscape:window-maximized="1"
     showborder="true"
     inkscape:showpageshadow="false">
    <inkscape:grid
       type="xygrid"
       id="grid4436"
       empspacing="5"
       visible="true"
       enabled="true"
       snapvisiblegridlinesonly="true" />
  </sodipodi:namedview>
  <metadata
     id="metadata4433">
    <rdf:RDF>
      <cc:Work
         rdf:about="">
        <dc:format>image/svg+xml</dc:format>
        <dc:type
           rdf:resource="http://purl.org/dc/dcmitype/StillImage" />
        <dc:title />
      </cc:Work>
    </rdf:RDF>
  </metadata>
  <g
     inkscape:label="Layer 1"
     inkscape:groupmode="layer"
     id="layer1"
     transform="translate(0,-1024.3622)">
    <g
       id="4"
       inkscape:label="#g3842"
       transform="translate(81,-3)" />
    <text
       xml:space="preserve"
       style="font-size:4.95831585px;font-style:normal;font-weight:normal;line-height:125%;letter-spacing:0px;word-spacing:0px;fill:#000000;fill-opacity:1;stroke:none;font-family:Sans"
       x="-32.359913"
       y="962.20459"
       id="text3129"
       sodipodi:linespacing="125%"
       transform="scale(0.93892719,1.0650453)"><tspan
         sodipodi:role="line"
         id="tspan3131"
         x="-32.359913"
         y="962.20459">active-center</tspan></text>
    <text
       xml:space="preserve"
       style="font-size:4.95831585px;font-style:normal;font-weight:normal;line-height:125%;letter-spacing:0px;word-spacing:0px;fill:#000000;fill-opacity:1;stroke:none;font-family:Sans"
       x="11.110399"
       y="962.88507"
       id="text3129-2"
       sodipodi:linespacing="125%"
       transform="scale(0.93892719,1.0650453)"><tspan
         sodipodi:role="line"
         id="tspan3131-8"
         x="11.110399"
         y="962.88507">hover-center</tspan></text>
    <text
       xml:space="preserve"
       style="font-size:4.95831585px;font-style:normal;font-weight:normal;line-height:125%;letter-spacing:0px;word-spacing:0px;fill:#000000;fill-opacity:1;stroke:none;font-family:Sans"
       x="51.589565"
       y="962.71918"
       id="text3129-7"
       sodipodi:linespacing="125%"
       transform="scale(0.93892719,1.0650453)"><tspan
         sodipodi:role="line"
         id="tspan3131-9"
         x="51.589565"
         y="962.71918">pressed-center</tspan></text>
    <text
       xml:space="preserve"
       style="font-size:4.95831585px;font-style:normal;font-weight:normal;line-height:125%;letter-spacing:0px;word-spacing:0px;fill:#000000;fill-opacity:1;stroke:none;font-family:Sans"
       x="96.745804"
       y="963.06854"
       id="text3129-7-7"
       sodipodi:linespacing="125%"
       transform="scale(0.93892719,1.0650453)"><tspan
         sodipodi:role="line"
         id="tspan3131-9-4"
         x="96.745804"
         y="963.06854">inactive-center</tspan></text>
    <text
       xml:space="preserve"
       style="font-size:4.95831585px;font-style:normal;font-weight:normal;line-height:125%;letter-spacing:0px;word-spacing:0px;fill:#000000;fill-opacity:1;stroke:none;font-family:Sans"
       x="145.82875"
       y="962.55316"
       id="text3129-7-7-8"
       sodipodi:linespacing="125%"
       transform="scale(0.93892719,1.0650453)"><tspan
         sodipodi:role="line"
         id="tspan3131-9-4-4"
         x="145.82875"
         y="962.55316">deactivated-center</tspan></text>
    <g
       id="hover-center"
       transform="translate(39.000017,0)"
       inkscape:label="#g4326">
      <g
         id="g4328"
         inkscape:label="#g4268">
        <rect
           transform="matrix(0,-1,1,0,0,0)"
           y="-25.000017"
           x="-1048.3622"
           height="20"
           width="20"
           id="rect4330"
           style="opacity:0;fill:#eff0f1;fill-opacity:1;stroke:none;stroke-width:0.5;stroke-linecap:round;stroke-linejoin:round;stroke-miterlimit:4;stroke-dasharray:none;stroke-opacity:1" />
        <g
           transform="matrix(0.70710678,-0.70710678,0.70710678,0.70710678,-26.313708,1038.3622)"
           id="g4332"
           style="enable-background:new">
          <g
             id="g4334"
             inkscape:label="actions"
             style="display:inline"
             transform="translate(-285.00081,-0.99666)" />
        </g>
      </g>
      <path
         style="opacity:0.7;fill:#000000;fill-opacity:1;stroke:none;stroke-width:0.5;stroke-linecap:round;stroke-linejoin:round;stroke-miterlimit:4;stroke-dasharray:none;stroke-opacity:1"
         d="m -15,1033.3622 a 5,5 0 0 0 -5,5 5,5 0 0 0 5,5 5,5 0 0 0 5,-5 5,5 0 0 0 -5,-5 z m 0,2 a 3,3 0 0 1 3,3 3,3 0 0 1 -3,3 3,3 0 0 1 -3,-3 3,3 0 0 1 3,-3 z"
         id="path4336"
         inkscape:connector-curvature="0" />
    </g>
    <g
       id="pressed-center"
       transform="translate(81.000017,0)"
       inkscape:label="#g4338">
      <g
         id="g4340"
         inkscape:label="#g4268">
        <rect
           transform="matrix(0,-1,1,0,0,0)"
           y="-25.000017"
           x="-1048.3622"
           height="20"
           width="20"
           id="rect4342"
           style="opacity:0;fill:#eff0f1;fill-opacity:1;stroke:none;stroke-width:0.5;stroke-linecap:round;stroke-linejoin:round;stroke-miterlimit:4;stroke-dasharray:none;stroke-opacity:1" />
        <g
           transform="matrix(0.70710678,-0.70710678,0.70710678,0.70710678,-26.313708,1038.3622)"
           id="g4344"
           style="enable-background:new">
          <g
             id="g4346"
             inkscape:label="actions"
             style="display:inline"
             transform="translate(-285.00081,-0.99666)" />
        </g>
      </g>
      <path
         style="opacity:0.5;fill:#000000;fill-opacity:1;stroke:none;stroke-width:0.5;stroke-linecap:round;stroke-linejoin:round;stroke-miterlimit:4;stroke-dasharray:none;stroke-opacity:1"
         d="m -15,1033.3622 a 5,5 0 0 0 -5,5 5,5 0 0 0 5,5 5,5 0 0 0 5,-5 5,5 0 0 0 -5,-5 z m 0,2 a 3,3 0 0 1 3,3 3,3 0 0 1 -3,3 3,3 0 0 1 -3,-3 3,3 0 0 1 3,-3 z"
         id="path4348"
         inkscape:connector-curvature="0" />
    </g>
    <g
       transform="translate(125.00002,0)"
       id="inactive-center"
       inkscape:label="#g4350">
      <g
         inkscape:label="#g4268"
         id="g4352">
        <rect
           style="opacity:0;fill:#eff0f1;fill-opacity:1;stroke:none;stroke-width:0.5;stroke-linecap:round;stroke-linejoin:round;stroke-miterlimit:4;stroke-dasharray:none;stroke-opacity:1"
           id="rect4354"
           width="20"
           height="20"
           x="-1048.3622"
           y="-25.000017"
           transform="matrix(0,-1,1,0,0,0)" />
        <g
           style="enable-background:new"
           id="g4356"
           transform="matrix(0.70710678,-0.70710678,0.70710678,0.70710678,-26.313708,1038.3622)">
          <g
             transform="translate(-285.00081,-0.99666)"
             style="display:inline"
             inkscape:label="actions"
             id="g4358" />
        </g>
      </g>
      <path
         inkscape:connector-curvature="0"
         id="path4360"
         d="m -15,1033.3622 a 5,5 0 0 0 -5,5 5,5 0 0 0 5,5 5,5 0 0 0 5,-5 5,5 0 0 0 -5,-5 z m 0,2 a 3,3 0 0 1 3,3 3,3 0 0 1 -3,3 3,3 0 0 1 -3,-3 3,3 0 0 1 3,-3 z"
         style="opacity:0.3;fill:#000000;fill-opacity:1;stroke:none;stroke-width:0.5;stroke-linecap:round;stroke-linejoin:round;stroke-miterlimit:4;stroke-dasharray:none;stroke-opacity:1" />
    </g>
    <g
       id="deactivated-center"
       transform="translate(175.00002,0)"
       inkscape:label="#g4362">
      <g
         id="g4364"
         inkscape:label="#g4268">
        <rect
           transform="matrix(0,-1,1,0,0,0)"
           y="-25.000017"
           x="-1048.3622"
           height="20"
           width="20"
           id="rect4366"
           style="opacity:0;fill:#eff0f1;fill-opacity:1;stroke:none;stroke-width:0.5;stroke-linecap:round;stroke-linejoin:round;stroke-miterlimit:4;stroke-dasharray:none;stroke-opacity:1" />
        <g
           transform="matrix(0.70710678,-0.70710678,0.70710678,0.70710678,-26.313708,1038.3622)"
           id="g4368"
           style="enable-background:new">
          <g
             id="g4370"
             inkscape:label="actions"
             style="display:inline"
             transform="translate(-285.00081,-0.99666)" />
        </g>
      </g>
      <path
         style="opacity:0.1;fill:#000000;fill-opacity:1;stroke:none;stroke-width:0.5;stroke-linecap:round;stroke-linejoin:round;stroke-miterlimit:4;stroke-dasharray:none;stroke-opacity:1"
         d="m -15,1033.3622 a 5,5 0 0 0 -5,5 5,5 0 0 0 5,5 5,5 0 0 0 5,-5 5,5 0 0 0 -5,-5 z m 0,2 a 3,3 0 0 1 3,3 3,3 0 0 1 -3,3 3,3 0 0 1 -3,-3 3,3 0 0 1 3,-3 z"
         id="path4372"
         inkscape:connector-curvature="0" />
    </g>
    <g
       style="enable-background:new"
       id="g4242"
       transform="matrix(0.70710678,-0.70710678,0.70710678,0.70710678,-26.313708,1038.3622)">
      <g
         transform="translate(-285.00081,-0.99666)"
         style="display:inline"
         inkscape:label="actions"
         id="layer12" />
    </g>
    <g
       id="active-center"
       inkscape:label="#g4382">
      <rect
         transform="matrix(0,-1,1,0,0,0)"
         y="-25.000017"
         x="-1048.3622"
         height="20"
         width="20"
         id="rect4246"
         style="opacity:0;fill:#eff0f1;fill-opacity:1;stroke:none;stroke-width:0.5;stroke-linecap:round;stroke-linejoin:round;stroke-miterlimit:4;stroke-dasharray:none;stroke-opacity:1" />
      <path
         inkscape:connector-curvature="0"
         id="path4314"
         d="m -15,1033.3622 a 5,5 0 0 0 -5,5 5,5 0 0 0 5,5 5,5 0 0 0 5,-5 5,5 0 0 0 -5,-5 z m 0,2 a 3,3 0 0 1 3,3 3,3 0 0 1 -3,3 3,3 0 0 1 -3,-3 3,3 0 0 1 3,-3 z"
         style="opacity:0.5;fill:#000000;fill-opacity:1;stroke:none;stroke-width:0.5;stroke-linecap:round;stroke-linejoin:round;stroke-miterlimit:4;stroke-dasharray:none;stroke-opacity:1" />
    </g>
  </g>
</svg>
