<?xml version="1.0" encoding="UTF-8" standalone="no"?>
<!-- Created with Inkscape (http://www.inkscape.org/) -->

<svg
   xmlns:dc="http://purl.org/dc/elements/1.1/"
   xmlns:cc="http://creativecommons.org/ns#"
   xmlns:rdf="http://www.w3.org/1999/02/22-rdf-syntax-ns#"
   xmlns:svg="http://www.w3.org/2000/svg"
   xmlns="http://www.w3.org/2000/svg"
   xmlns:sodipodi="http://sodipodi.sourceforge.net/DTD/sodipodi-0.dtd"
   xmlns:inkscape="http://www.inkscape.org/namespaces/inkscape"
   width="64"
   height="64"
   viewBox="0 0 64 64.000001"
   id="svg4222"
   version="1.1"
   inkscape:version="0.91 r"
   sodipodi:docname="user-desktop.svg">
  <defs
     id="defs4224" />
  <sodipodi:namedview
     id="base"
     pagecolor="#ffffff"
     bordercolor="#666666"
     borderopacity="1.0"
     inkscape:pageopacity="0.0"
     inkscape:pageshadow="2"
     inkscape:zoom="8.66"
     inkscape:cx="38.170021"
     inkscape:cy="29.573691"
     inkscape:document-units="px"
     inkscape:current-layer="layer1"
     showgrid="false"
     units="px"
     inkscape:window-width="1535"
     inkscape:window-height="876"
     inkscape:window-x="65"
     inkscape:window-y="24"
     inkscape:window-maximized="1" />
  <metadata
     id="metadata4227">
    <rdf:RDF>
      <cc:Work
         rdf:about="">
        <dc:format>image/svg+xml</dc:format>
        <dc:type
           rdf:resource="http://purl.org/dc/dcmitype/StillImage" />
        <dc:title></dc:title>
      </cc:Work>
    </rdf:RDF>
  </metadata>
  <g
     inkscape:label="Layer 1"
     inkscape:groupmode="layer"
     id="layer1"
     transform="translate(0,-988.3622)">
    <path
       style="fill:#4ab3e4;fill-opacity:1;stroke:none"
       d="m 7,1003.3622 0,37.5 c 0,1.385 1.115,2.5 2.5,2.5 l 45,0 c 1.385,0 2.5,-1.115 2.5,-2.5 l 0,-37.5 z"
       id="rect4203"
       inkscape:connector-curvature="0"
       sodipodi:nodetypes="csssscc" />
    <path
       style="fill:#4d4d4d;fill-opacity:1;stroke:none"
       d="m 9.5,998.3622 c -1.385,0 -2.5,1.115 -2.5,2.5 l 0,2.5 50,0 0,-2.5 c 0,-1.385 -1.115,-2.5 -2.5,-2.5 z"
       id="rect3328"
       inkscape:connector-curvature="0"
       sodipodi:nodetypes="ssccsss" />
    <path
       inkscape:connector-curvature="0"
       style="opacity:1;fill:#4d4d4d;fill-opacity:1;stroke:none;stroke-width:3;stroke-linecap:round;stroke-linejoin:round;stroke-miterlimit:4;stroke-dasharray:none;stroke-opacity:1"
       d="m 21.6,1038.3622 c -1.4404,0 -2.6,1.115 -2.6,2.5 l 0,2.5 26,0 0,-2.5 c 0,-1.385 -1.1596,-2.5 -2.6,-2.5 l -20.8,0 z"
       id="rect4155" />
    <path
       inkscape:connector-curvature="0"
       style="opacity:0.3;fill:#000000;fill-opacity:1;stroke:none"
       d="m 7,1038.8622 0,2 c 0,1.385 1.115,2.5 2.5,2.5 l 45,0 c 1.385,0 2.5,-1.115 2.5,-2.5 l 0,-2 c 0,1.385 -1.115,2.5 -2.5,2.5 l -45,0 c -1.385,0 -2.5,-1.115 -2.5,-2.5 z"
       id="path4150" />
    <path
       inkscape:connector-curvature="0"
       style="opacity:0.2;fill:#ffffff;fill-opacity:1;stroke:none"
       d="m 9.5,998.3622 c -1.385,0 -2.5,1.115 -2.5,2.5 l 0,2 c 0,-1.385 1.115,-2.5 2.5,-2.5 l 45,0 c 1.385,0 2.5,1.115 2.5,2.5 l 0,-2 c 0,-1.385 -1.115,-2.5 -2.5,-2.5 l -45,0 z"
       id="path4155" />
  </g>
</svg>
