<?xml version="1.0" encoding="UTF-8" standalone="no"?>
<!-- Created with Inkscape (http://www.inkscape.org/) -->

<svg
   xmlns:osb="http://www.openswatchbook.org/uri/2009/osb"
   xmlns:dc="http://purl.org/dc/elements/1.1/"
   xmlns:cc="http://creativecommons.org/ns#"
   xmlns:rdf="http://www.w3.org/1999/02/22-rdf-syntax-ns#"
   xmlns:svg="http://www.w3.org/2000/svg"
   xmlns="http://www.w3.org/2000/svg"
   xmlns:sodipodi="http://sodipodi.sourceforge.net/DTD/sodipodi-0.dtd"
   xmlns:inkscape="http://www.inkscape.org/namespaces/inkscape"
   sodipodi:docname="kr_unselectall.svg"
   inkscape:export-filename="/home/sam/source-symbolic.png"
   inkscape:export-xdpi="270"
   inkscape:export-ydpi="270"
   height="16.003361"
   id="svg7384"
   style="enable-background:new"
   version="1.1"
   inkscape:version="0.91 r"
   width="16">
  <sodipodi:namedview
     inkscape:bbox-nodes="true"
     inkscape:bbox-paths="false"
     bordercolor="#666666"
     borderlayer="false"
     borderopacity="1"
     inkscape:current-layer="layer12"
     inkscape:cx="7.4206102"
     inkscape:cy="8.0765301"
     gridtolerance="10"
     inkscape:guide-bbox="true"
     guidetolerance="10"
     id="namedview88"
     inkscape:object-nodes="true"
     inkscape:object-paths="true"
     objecttolerance="10"
     pagecolor="#f7f7f7"
     inkscape:pageopacity="0"
     inkscape:pageshadow="2"
     showborder="true"
     showgrid="false"
     showguides="true"
     inkscape:showpageshadow="false"
     inkscape:snap-bbox="true"
     inkscape:snap-bbox-edge-midpoints="false"
     inkscape:snap-bbox-midpoints="true"
     inkscape:snap-center="false"
     inkscape:snap-global="false"
     inkscape:snap-grids="true"
     inkscape:snap-intersection-paths="true"
     inkscape:snap-midpoints="true"
     inkscape:snap-nodes="true"
     inkscape:snap-object-midpoints="true"
     inkscape:snap-others="true"
     inkscape:snap-page="false"
     inkscape:snap-smooth-nodes="true"
     inkscape:snap-to-guides="true"
     inkscape:window-height="842"
     inkscape:window-maximized="1"
     inkscape:window-width="1600"
     inkscape:window-x="-4"
     inkscape:window-y="32"
     inkscape:zoom="34.62">
    <inkscape:grid
       color="#000000"
       dotted="false"
       empcolor="#0800ff"
       empopacity="0.4627451"
       empspacing="4"
       enabled="true"
       id="grid4866"
       opacity="0.16470588"
       originx="-184.0002"
       originy="-296"
       snapvisiblegridlinesonly="true"
       spacingx="0.25px"
       spacingy="0.25px"
       type="xygrid"
       visible="true" />
  </sodipodi:namedview>
  <metadata
     id="metadata90">
    <rdf:RDF>
      <cc:Work
         rdf:about="">
        <dc:format>image/svg+xml</dc:format>
        <dc:type
           rdf:resource="http://purl.org/dc/dcmitype/StillImage" />
        <dc:title>Paper Symbolic Icon Theme</dc:title>
      </cc:Work>
    </rdf:RDF>
  </metadata>
  <title
     id="title8473">Paper Symbolic Icon Theme</title>
  <defs
     id="defs7386">
    <linearGradient
       id="linearGradient5606"
       osb:paint="solid">
      <stop
         id="stop5608"
         offset="0"
         style="stop-color:#000000;stop-opacity:1;" />
    </linearGradient>
  </defs>
  <g
     inkscape:groupmode="layer"
     id="layer12"
     inkscape:label="actions"
     style="display:inline"
     transform="translate(-425.0004,79.003361)">
    <g
       id="g4198"
       style="opacity:0.4">
      <path
         inkscape:connector-curvature="0"
         id="path4142"
         d="m 435.0004,-78 4,4 c 0.005,2.5471 0.0188,9.9539 0,10 0,0 0,1 -1,1 l 1,0 c 1,0 1,-1 1,-1 0.0188,-0.0461 0.005,-7.4529 0,-10 l -4,-4 -1,0 z"
         style="display:inline;opacity:1;fill:#000000;fill-opacity:1;stroke:none;enable-background:new" />
      <path
         style="display:inline;opacity:1;fill:#000000;fill-opacity:1;stroke:none;enable-background:new"
         d="M 2.84375 1.0039062 C 2.5625 1.0507863 2 1.2539062 2 2.0039062 L 2 4.0039062 L 2 11.535156 L 2 14.021484 L 2 15.003906 C 2 16.003906 3 16.003906 3 16.003906 L 3.4667969 16.003906 L 4 16.003906 A 1 1 0 0 1 3 15.003906 A 1 1 0 0 1 3.2929688 14.296875 L 5.5859375 12.003906 L 3.2929688 9.7109375 A 1 1 0 0 1 3 9.0039062 A 1 1 0 0 1 4 8.0039062 A 1 1 0 0 1 4.7070312 8.296875 A 1 1 0 0 1 4.7167969 8.3066406 L 7 10.589844 L 9.2929688 8.296875 A 1 1 0 0 1 10 8.0039062 A 1 1 0 0 1 11 9.0039062 A 1 1 0 0 1 10.697266 9.7207031 L 8.4140625 12.003906 L 10.707031 14.296875 A 1 1 0 0 1 11 15.003906 A 1 1 0 0 1 10 16.003906 L 11.115234 16.003906 L 12 16.003906 C 13 16.003906 13 15.003906 13 15.003906 C 13.000973 15.00152 12.999217 14.526111 13 14.486328 L 13 6.6484375 C 12.999521 6.378706 12.999813 6.1884313 13 5.9414062 C 13.000248 5.6138593 13.000469 5.242697 13 5.0039062 L 9 1.0039062 L 2.84375 1.0039062 z M 10 16.003906 A 1 1 0 0 1 9.2832031 15.701172 L 7 13.417969 L 4.7070312 15.710938 A 1 1 0 0 1 4 16.003906 L 5.7382812 16.003906 L 10 16.003906 z "
         transform="translate(425.0004,-79.003361)"
         id="path4140" />
    </g>
    <g
       style="enable-background:new"
       id="g4194"
       transform="matrix(0.91976351,0,0,1,425.13311,-76.499455)">
      <g
         transform="translate(-345.00021,-61)"
         style="display:inline"
         inkscape:label="actions"
         id="layer12-7" />
    </g>
    <g
       style="fill:#ffffff;fill-opacity:1;enable-background:new"
       id="g4156"
       transform="translate(424.0006,-75.00336)">
      <g
         transform="translate(-265.0004,-120.99664)"
         style="display:inline;fill:#ffffff;fill-opacity:1"
         inkscape:label="actions"
         id="layer12-3" />
    </g>
  </g>
</svg>
