<?xml version="1.0" encoding="UTF-8" standalone="no"?>
<!-- Created with Inkscape (http://www.inkscape.org/) -->

<svg
   xmlns:dc="http://purl.org/dc/elements/1.1/"
   xmlns:cc="http://creativecommons.org/ns#"
   xmlns:rdf="http://www.w3.org/1999/02/22-rdf-syntax-ns#"
   xmlns:svg="http://www.w3.org/2000/svg"
   xmlns="http://www.w3.org/2000/svg"
   xmlns:sodipodi="http://sodipodi.sourceforge.net/DTD/sodipodi-0.dtd"
   xmlns:inkscape="http://www.inkscape.org/namespaces/inkscape"
   width="16"
   height="16"
   id="svg3049"
   version="1.1"
   inkscape:version="0.91 r13725"
   sodipodi:docname="atmosphere.svg"
   inkscape:export-filename="/home/uri/.kde/share/icons/NITRUX-KDE/16x16/actions/view-right-new.png"
   inkscape:export-xdpi="30"
   inkscape:export-ydpi="30">
  <defs
     id="defs3051">
    <style
       type="text/css"
       id="current-color-scheme">
      .ColorScheme-Text {
        color:#4d4d4d;
      }
      .ColorScheme-Background {
        color:#eff0f1;
      }
      .ColorScheme-Highlight {
        color:#3daee9;
      }
      .ColorScheme-ViewText {
        color:#31363b;
      }
      .ColorScheme-ViewBackground {
        color:#fcfcfc;
      }
      .ColorScheme-ViewHover {
        color:#93cee9;
      }
      .ColorScheme-ViewFocus{
        color:#3daee9;
      }
      .ColorScheme-ButtonText {
        color:#31363b;
      }
      .ColorScheme-ButtonBackground {
        color:#eff0f1;
      }
      .ColorScheme-ButtonHover {
        color:#93cee9;
      }
      .ColorScheme-ButtonFocus{
        color:#3daee9;
      }
      </style>
  </defs>
  <sodipodi:namedview
     id="base"
     pagecolor="#ffffff"
     bordercolor="#666666"
     borderopacity="1.0"
     inkscape:pageopacity="0.0"
     inkscape:pageshadow="2"
     inkscape:zoom="1"
     inkscape:cx="-157.4333"
     inkscape:cy="6.17697"
     inkscape:document-units="px"
     inkscape:current-layer="layer1-6"
     showgrid="false"
     fit-margin-top="0"
     fit-margin-left="0"
     fit-margin-right="0"
     fit-margin-bottom="0"
     inkscape:window-width="1600"
     inkscape:window-height="847"
     inkscape:window-x="0"
     inkscape:window-y="30"
     inkscape:window-maximized="1"
     inkscape:showpageshadow="false"
     borderlayer="true"
     inkscape:snap-bbox="true"
     inkscape:snap-global="true"
     inkscape:object-nodes="true"
     showguides="false">
    <inkscape:grid
       type="xygrid"
       id="grid4085" />
    <sodipodi:guide
       position="2.0000044,14.00003"
       orientation="12,0"
       id="guide4075" />
    <sodipodi:guide
       position="2.0000044,2.0000296"
       orientation="0,12"
       id="guide4077" />
    <sodipodi:guide
       position="14,9"
       orientation="-12,0"
       id="guide4079" />
    <sodipodi:guide
       position="14,14"
       orientation="0,-12"
       id="guide4081" />
  </sodipodi:namedview>
  <metadata
     id="metadata3054">
    <rdf:RDF>
      <cc:Work
         rdf:about="">
        <dc:format>image/svg+xml</dc:format>
        <dc:type
           rdf:resource="http://purl.org/dc/dcmitype/StillImage" />
        <dc:title />
      </cc:Work>
    </rdf:RDF>
  </metadata>
  <g
     inkscape:label="Capa 1"
     inkscape:groupmode="layer"
     id="layer1"
     transform="translate(-421.71429,-531.79074)">
    <g
       transform="matrix(0.75,0,0,0.74999813,421.46429,-241.22897)"
       id="layer1-0"
       inkscape:label="Capa 1">
      <g
         transform="translate(6.2937501e-7,-2.041003e-4)"
         id="layer1-6"
         inkscape:label="Capa 1">
        <path
           style="opacity:0.72;fill:#ffffff;fill-opacity:1;stroke:none;stroke-width:2.66667008;stroke-linecap:round;stroke-linejoin:round;stroke-miterlimit:4;stroke-dasharray:none;stroke-opacity:1"
           d="M 8 1 A 6.9999994 7.0000006 0 0 0 1 8 A 6.9999994 7.0000006 0 0 0 8 15 A 6.9999994 7.0000006 0 0 0 15 8 A 6.9999994 7.0000006 0 0 0 8 1 z M 8 3 C 8.1725892 3 8.3319145 3.014 8.5 3.03125 C 8.512607 3.0335937 8.5258907 3.0319275 8.5390625 3.03125 A 4.9999997 5.0000007 0 0 1 8.8457031 3.078125 C 8.9618498 3.1005072 9.0704202 3.1272376 9.1875 3.15625 C 9.444096 3.2192498 9.698223 3.3050003 9.9375 3.40625 C 10.069426 3.4617499 10.186649 3.5272252 10.3125 3.59375 C 10.312425 3.60275 10.313325 3.61375 10.3125 3.625 C 10.34148 3.63775 10.357283 3.6917501 10.40625 3.71875 C 10.424228 3.7285 10.420558 3.7429531 10.4375 3.7519531 C 10.46648 3.7677031 10.505992 3.7840001 10.5 3.8125 C 10.491998 3.8522499 10.434248 3.8442501 10.40625 3.875 C 10.410075 3.9327499 10.358705 3.9297501 10.34375 3.96875 C 10.35275 3.9934999 10.40229 4.0012501 10.40625 4.03125 C 10.401375 4.0634999 10.331727 4.0607501 10.34375 4.09375 C 10.397758 4.1357499 10.449004 4.1035 10.5 4.09375 C 10.611991 4.0795 10.712253 4.0859999 10.78125 4.03125 C 10.77225 3.9780001 10.880989 3.9854999 10.875 3.9375 C 10.903657 3.9584999 10.940303 3.9790001 10.96875 4 C 10.957987 4.0105 10.949582 4.02525 10.9375 4.03125 C 10.916493 4.041 10.894005 4.0505 10.875 4.0625 C 10.847002 4.0805 10.813282 4.1040001 10.78125 4.125 C 10.758262 4.14075 10.7115 4.21875 10.6875 4.21875 C 10.658512 4.21875 10.61475 4.1815 10.59375 4.1875 C 10.56372 4.19725 10.565188 4.238 10.53125 4.25 C 10.465257 4.2739999 10.335495 4.2135002 10.3125 4.3125 C 10.340498 4.3694999 10.450005 4.3435001 10.5 4.375 C 10.53102 4.3952499 10.58575 4.4660251 10.59375 4.5 C 10.601752 4.5277499 10.605742 4.6575001 10.59375 4.6875 C 10.56273 4.7675248 10.466988 4.7515 10.375 4.75 L 10.3125 4.75 C 10.157516 4.74025 10.007499 4.6700253 9.9375 4.78125 C 9.94245 4.8662248 9.9565275 4.9259752 9.9375 5 C 9.9235275 5.0539999 9.8407515 5.1096751 9.84375 5.15625 C 9.844875 5.1802499 9.9002575 5.2162501 9.90625 5.25 C 9.910075 5.268 9.89818 5.296 9.90625 5.3125 C 9.9322675 5.3612499 9.985254 5.30275 10.03125 5.3125 C 10.075252 5.32225 10.125 5.386347 10.125 5.4355469 C 10.125 5.4707968 10.1158 5.526647 10.09375 5.5605469 C 10.049748 5.6265467 9.969247 5.618297 9.90625 5.6542969 C 9.854275 5.6842968 9.843505 5.758947 9.8125 5.8105469 C 9.7795 5.8667967 9.7369807 5.8886502 9.75 5.96875 C 9.7050075 6.0576998 9.655488 6.1132001 9.5625 6.15625 C 9.5354925 6.16825 9.4937475 6.1695 9.46875 6.1875 C 9.4487325 6.20175 9.43427 6.2490001 9.40625 6.28125 C 9.37127 6.3202499 9.3314975 6.3450001 9.3125 6.375 C 9.298475 6.3982499 9.2962125 6.4365001 9.28125 6.46875 C 9.2592525 6.5107499 9.2154975 6.5205001 9.1875 6.5625 C 9.1745175 6.5827499 9.1702225 6.6300001 9.15625 6.65625 C 9.12424 6.7139999 9.08775 6.7615001 9.09375 6.8125 C 9.0987 6.8604999 9.1532575 6.8620001 9.15625 6.90625 C 9.159025 6.9302499 9.12401 6.9417501 9.125 6.96875 C 9.126125 7.0069999 9.15328 7.0325001 9.15625 7.0625 C 9.163225 7.1367498 9.107715 7.1682001 9.09375 7.21875 C 9.086775 7.2427499 9.09975 7.2597969 9.09375 7.2792969 C 9.0817575 7.3160468 9.0322475 7.360122 9.03125 7.4042969 C 9.030125 7.4350468 9.09078 7.453797 9.09375 7.4980469 C 9.095925 7.5272968 9.0565075 7.5640469 9.0625 7.5917969 C 9.0735025 7.6457967 9.1767575 7.706047 9.21875 7.7480469 C 9.27575 7.8050467 9.3500078 7.844297 9.375 7.9042969 C 9.3960075 7.9552967 9.3985375 8.053697 9.4375 8.0917969 C 9.4664875 8.1195468 9.525507 8.1242969 9.5625 8.1542969 C 9.59748 8.1812968 9.6192525 8.1867969 9.65625 8.2167969 C 9.7172475 8.2647968 9.8092518 8.3800219 9.90625 8.3730469 C 9.957235 8.3632969 10.005504 8.3202969 10.0625 8.3105469 C 10.121503 8.3007969 10.190006 8.2747969 10.25 8.2792969 C 10.295983 8.2890469 10.358253 8.3135469 10.40625 8.3105469 C 10.456238 8.3007969 10.50551 8.3032968 10.5625 8.2792969 C 10.6615 8.236547 10.824766 8.1648469 10.96875 8.1855469 C 11.078739 8.2012968 11.079255 8.324072 11.15625 8.3730469 C 11.24424 8.3827969 11.305007 8.3557969 11.375 8.3730469 C 11.428018 8.3857968 11.495001 8.456422 11.5 8.4980469 C 11.505025 8.5407968 11.443485 8.5958969 11.4375 8.6230469 C 11.423528 8.6807967 11.447498 8.742247 11.4375 8.7792969 C 11.429498 8.8085468 11.40526 8.8437969 11.40625 8.8730469 C 11.40625 8.8992968 11.441735 8.963847 11.46875 8.9980469 C 11.50175 9.0400468 11.55375 9.077822 11.59375 9.1230469 C 11.66674 9.2070467 11.699005 9.2932972 11.75 9.4042969 C 11.762983 9.4320468 11.738008 9.462047 11.75 9.4980469 C 11.728003 9.6659715 11.672491 9.7808723 11.5625 9.9667969 C 11.510518 10.026797 11.436499 10.079372 11.4375 10.154297 C 11.433675 10.334296 11.539249 10.449047 11.53125 10.623047 C 11.513272 10.856971 11.549288 10.873172 11.53125 10.998047 C 11.61025 11.037797 11.554237 11.164947 11.53125 11.248047 C 11.49726 11.347047 11.456497 11.369547 11.4375 11.435547 C 11.490578 11.458797 11.566021 11.449047 11.625 11.435547 A 4.9999997 5.0000007 0 0 1 11.615234 11.445312 C 11.587937 11.473525 11.558656 11.50175 11.53125 11.529297 C 11.316922 11.743619 11.071468 11.946989 10.820312 12.121094 A 4.9999997 5.0000007 0 0 1 10.751953 12.169922 C 10.555418 12.301025 10.34583 12.411287 10.132812 12.515625 A 4.9999997 5.0000007 0 0 1 9.8203125 12.65625 A 4.9999997 5.0000007 0 0 1 9.8125 12.660156 C 9.6466406 12.727177 9.4737029 12.779918 9.2988281 12.828125 A 4.9999997 5.0000007 0 0 1 8.3730469 12.986328 C 8.2493817 12.992371 8.126598 12.998047 8 12.998047 C 7.8155968 12.998047 7.6339067 12.987147 7.4550781 12.966797 A 4.9999997 5.0000007 0 0 1 6.875 12.867188 C 6.638727 12.803736 6.4112535 12.710989 6.1875 12.623047 C 6.1781303 12.605797 6.1541245 12.580797 6.15625 12.560547 C 6.208225 12.538797 6.305756 12.634797 6.34375 12.560547 C 6.3627798 12.525297 6.3187248 12.439322 6.34375 12.404297 C 6.361735 12.380297 6.463007 12.380547 6.5 12.373047 C 6.5530197 12.363297 6.626253 12.356047 6.65625 12.341797 C 6.68925 12.320797 6.7247515 12.247197 6.71875 12.185547 C 6.7159975 12.156297 6.679185 12.148547 6.65625 12.123047 C 6.637275 12.101297 6.6692303 12.081547 6.65625 12.060547 C 6.6322702 12.025297 6.572499 12.017797 6.5625 11.966797 C 6.6344947 11.952547 6.7397615 12.026547 6.84375 11.998047 C 6.892755 11.983797 6.976999 11.887922 7 11.841797 C 7.00699 11.827547 6.99202 11.79925 7 11.78125 C 7.0090202 11.76325 7.0282245 11.7285 7.03125 11.71875 C 7.0382325 11.69175 7.02525 11.7055 7.03125 11.6875 C 7.049235 11.6365 7.094997 11.596847 7.125 11.560547 C 7.1479897 11.532797 7.197723 11.496047 7.21875 11.466797 C 7.2427298 11.436047 7.2340498 11.434 7.25 11.40625 C 7.265015 11.3152 7.1967503 11.2362 7.21875 11.15625 C 7.2427298 11.06625 7.381762 11.009775 7.46875 10.96875 C 7.4987275 10.9545 7.5375025 10.944547 7.5625 10.935547 C 7.6224925 10.914547 7.6940042 10.8945 7.75 10.875 C 7.8439953 10.84125 7.860248 10.77345 7.90625 10.6875 C 7.9282475 10.64775 7.9647375 10.59175 7.96875 10.5625 C 7.972575 10.53625 7.9638 10.53075 7.96875 10.5 C 7.9737 10.47075 7.96077 10.44 7.96875 10.40625 C 7.9797525 10.3635 8 10.266675 8 10.21875 C 8 10.179 7.96974 10.161 7.96875 10.125 C 7.961775 9.9950253 8.014515 10.008525 8.0625 9.9375 C 8.0864775 9.9022501 8.108065 9.8375499 8.125 9.8125 C 8.2059933 9.6925003 8.353749 9.6507745 8.34375 9.46875 C 8.339925 9.4087501 8.29398 9.268975 8.25 9.25 C 8.2249725 9.23875 8.1932475 9.23225 8.15625 9.21875 C 8.0382585 9.1745001 7.9354858 9.041225 7.8125 9.03125 L 7.75 9.03125 C 7.701985 9.03125 7.6477433 9.0075 7.59375 9 C 7.55976 8.99025 7.4887488 9.00975 7.46875 9 C 7.43773 8.985 7.4312175 8.923275 7.40625 8.90625 C 7.3862325 8.892 7.34349 8.8842968 7.3125 8.8730469 C 7.263495 8.8550469 7.2444962 8.81625 7.1875 8.8125 C 7.169515 8.8125 7.1449815 8.82225 7.125 8.8125 C 7.09398 8.80275 7.0602457 8.7972968 7.03125 8.7792969 C 6.99528 8.7575469 6.952498 8.7494999 6.9375 8.71875 C 6.9705 8.6109003 6.8657497 8.5942498 6.84375 8.53125 C 6.8337398 8.5020001 6.8537602 8.4321999 6.84375 8.40625 C 6.8307697 8.3695001 6.7910018 8.3432499 6.75 8.3125 C 6.6780053 8.2562501 6.634243 8.23165 6.53125 8.21875 C 6.4852698 8.209 6.4299945 8.2285 6.375 8.21875 C 6.3170078 8.209 6.2314945 8.1752499 6.1875 8.125 C 6.1454797 8.0762501 6.1307437 8.0230999 6.09375 8 C 6.05877 7.9782501 6.0239962 7.9599999 6 7.9375 C 5.9889998 7.92775 5.9787603 7.9294999 5.96875 7.90625 C 5.950765 7.8695001 5.9155003 7.8574999 5.9375 7.8125 C 5.8975153 7.7922501 5.917993 7.8505 5.875 7.84375 C 5.8360053 7.7890001 5.8067387 7.73395 5.71875 7.75 C 5.6787652 7.75975 5.640747 7.8427 5.59375 7.84375 C 5.5547552 7.84375 5.519746 7.75795 5.46875 7.75 C 5.4297552 7.74025 5.3707495 7.78575 5.34375 7.78125 C 5.3007397 7.7715 5.288973 7.7442499 5.25 7.71875 C 5.2210148 7.7 5.17225 7.65475 5.15625 7.65625 C 5.106255 7.65625 5.0689915 7.7553499 5 7.71875 C 4.96601 7.6760001 5.0712678 7.6647499 5.03125 7.625 C 5.0012748 7.5957501 4.9927627 7.642 4.96875 7.65625 C 4.9407547 7.67425 4.905993 7.67625 4.875 7.6875 C 4.8060023 7.7137499 4.7414935 7.7215001 4.6875 7.75 C 4.637505 7.7762499 4.6227472 7.7927501 4.59375 7.84375 C 4.5707603 7.8857499 4.5349972 7.9668 4.5 7.96875 C 4.4579797 7.96875 4.4442495 7.92275 4.40625 7.90625 C 4.2912615 7.8560001 4.2199905 7.93525 4.125 7.9375 C 4.037006 7.9375 3.9022514 7.8017748 3.90625 7.71875 C 3.9090025 7.6677501 3.9315045 7.5942498 3.9375 7.53125 C 3.94245 7.4810001 3.9990655 7.4205999 4 7.375 C 4.0011025 7.3127502 3.883746 7.2883 3.84375 7.28125 C 3.7497551 7.264 3.6382415 7.3232499 3.53125 7.28125 C 3.5112303 7.2475001 3.5505097 7.2212499 3.5625 7.1875 C 3.5694825 7.1695 3.55551 7.1459999 3.5625 7.125 C 3.5744902 7.0927501 3.641257 7.0649999 3.65625 7.03125 C 3.6672503 7.0050001 3.6452498 6.9704999 3.65625 6.9375 C 3.6692303 6.9015001 3.7157253 6.8699999 3.71875 6.84375 C 3.7225975 6.8100001 3.6831997 6.7717499 3.65625 6.75 C 3.5732551 6.75975 3.5167485 6.7592032 3.46875 6.7832031 C 3.360763 6.831953 3.3902434 6.9679032 3.28125 7.0019531 C 3.2442353 7.0139531 3.198248 7.0257031 3.15625 7.0332031 C 3.1385073 7.0426484 3.1157642 7.0337658 3.0957031 7.0332031 A 4.9999997 5.0000007 0 0 1 3.1074219 6.9746094 C 3.1147721 6.9634066 3.1222038 6.9521093 3.125 6.9394531 C 3.196265 6.6144789 3.3063949 6.2999274 3.4375 6.0019531 L 3.46875 6.0019531 C 3.5067547 6.0117031 3.5295052 6.0614531 3.5625 6.0644531 C 3.654493 6.0742031 3.674001 5.979653 3.75 5.9394531 C 3.827996 5.9507031 3.866506 5.9297031 3.9375 5.9394531 C 3.985515 5.9492031 4.055756 5.99625 4.09375 6 C 4.12576 6 4.1262485 5.965 4.15625 5.96875 C 4.1862253 5.9785 4.245 6.0265001 4.25 6.0625 C 4.25495 6.1074999 4.205715 6.1691751 4.21875 6.21875 C 4.265775 6.2667499 4.3705045 6.2847501 4.4375 6.3125 C 4.4815002 6.2757501 4.4444825 6.2082249 4.4375 6.15625 C 4.4363975 6.1330001 4.4402525 6.0834999 4.4375 6.0625 C 4.43255 6.0265001 4.40625 5.9994999 4.40625 5.96875 C 4.40625 5.8257254 4.5290085 5.7746999 4.625 5.71875 C 4.6659748 5.6947501 4.7140025 5.643 4.75 5.625 C 4.800985 5.6002501 4.8330025 5.6177499 4.875 5.59375 C 4.950988 5.5510001 5.0035015 5.4862499 5.0625 5.4375 C 5.0895053 5.3722502 5.0597475 5.2827248 5.0625 5.21875 C 5.0895053 5.2015 5.127282 5.21875 5.15625 5.21875 C 5.2022303 5.209 5.223996 5.1512499 5.25 5.125 C 5.265015 5.11 5.294482 5.10875 5.3125 5.09375 C 5.3584803 5.0577501 5.3662368 5.015975 5.40625 5 C 5.420275 4.99025 5.4467233 4.97625 5.46875 4.96875 C 5.49878 4.959 5.545757 4.9555 5.59375 4.9375 C 5.62477 4.92625 5.706749 4.91975 5.71875 4.90625 C 5.733765 4.89125 5.7149025 4.8357499 5.71875 4.8125 C 5.7427297 4.6995503 5.899009 4.6943499 6 4.65625 C 6.069993 4.6300001 6.1407545 4.54855 6.21875 4.5625 C 6.203735 4.6164999 6.1432487 4.6224752 6.15625 4.6875 C 6.173245 4.7784748 6.280501 4.6677968 6.3125 4.6542969 C 6.3734953 4.6280469 6.4825024 4.5905468 6.5625 4.5605469 C 6.632493 4.5357969 6.753489 4.5181998 6.6875 4.4375 C 6.6325003 4.42775 6.6104935 4.4785469 6.5625 4.4980469 C 6.5295 4.5077969 6.527978 4.4697969 6.5 4.4667969 C 6.4729947 4.4667969 6.464527 4.5025469 6.4375 4.4980469 C 6.4104948 4.4882969 6.3789975 4.4372968 6.375 4.4042969 C 6.3639998 4.3202971 6.43476 4.3099217 6.46875 4.2480469 C 6.4457603 4.1719971 6.3452425 4.2174999 6.28125 4.1875 C 6.28824 4.1425001 6.3220072 4.1038 6.375 4.09375 C 6.4180103 4.084 6.5365015 4.1017501 6.5625 4.125 C 6.577515 4.13775 6.5395597 4.1665001 6.5625 4.1875 C 6.5885153 4.2107499 6.6222541 4.19725 6.65625 4.1875 C 6.6682403 4.1305001 6.583751 4.1617499 6.59375 4.125 C 6.6617413 4.0807501 6.792005 4.105 6.875 4.09375 C 6.923015 4.084 6.988251 4.0537499 7.03125 4.03125 C 7.0712348 4.0080001 7.0830015 3.9625001 7.125 4 C 7.1369903 4.0412499 7.116685 4.0720001 7.09375 4.09375 C 7.016756 4.1619998 6.934994 4.2336002 6.875 4.3125 C 6.9120147 4.3484999 6.969254 4.33625 7.03125 4.34375 C 7.0552298 4.3535 7.0999972 4.33625 7.125 4.34375 C 7.15503 4.3535 7.1947477 4.334 7.21875 4.34375 C 7.2607695 4.3535 7.2705065 4.4375 7.3125 4.4375 C 7.380495 4.4375 7.3515225 4.3577249 7.3125 4.3125 C 7.3244925 4.2652501 7.3607975 4.2207249 7.34375 4.1875 C 7.31273 4.1252502 7.1935005 4.2059998 7.1875 4.125 C 7.1836525 4.0747501 7.2319933 4.0694999 7.25 4.03125 C 7.24202 3.9352502 7.322499 3.9307498 7.3125 3.84375 C 7.30755 3.8077501 7.275008 3.8149999 7.25 3.78125 C 7.2370197 3.76325 7.2337103 3.70145 7.21875 3.6875 C 7.166775 3.6432501 7.0685005 3.6777498 7.0625 3.59375 C 7.0597475 3.5435001 7.0694825 3.4911249 7.0625 3.4375 C 7.05551 3.3865001 7.0127277 3.228725 6.96875 3.21875 C 6.912755 3.20675 6.8794955 3.3124751 6.8125 3.34375 C 6.77653 3.361 6.693243 3.381 6.65625 3.375 C 6.6322702 3.36525 6.596753 3.3589999 6.59375 3.3125 C 6.58979 3.2697501 6.6405967 3.2509999 6.65625 3.21875 C 6.6601575 3.2105 6.6542625 3.19875 6.65625 3.1875 C 6.6808951 3.1806227 6.7058012 3.173461 6.7304688 3.1660156 A 4.9999997 5.0000007 0 0 1 7.0546875 3.09375 C 7.0679591 3.0951823 7.0812228 3.096875 7.09375 3.09375 C 7.2273044 3.0690001 7.3629458 3.04475 7.5 3.03125 C 7.6662382 3.014 7.8289017 3 8 3 z M 5.96875 3.46875 C 5.9369162 3.6512995 5.7660025 3.724075 5.5625 3.71875 C 5.5165197 3.7629999 5.5562228 3.8452752 5.53125 3.90625 C 5.5102403 3.9572499 5.425991 4.00405 5.375 4 C 5.3379853 4 5.28125 3.9414999 5.28125 3.90625 C 5.28125 3.8635001 5.3495207 3.8619999 5.3125 3.8125 C 5.31415 3.80275 5.333355 3.79175 5.34375 3.78125 C 5.3639903 3.7685 5.3858537 3.76275 5.40625 3.75 C 5.5874526 3.6384753 5.7732114 3.5567998 5.96875 3.46875 z M 10.15625 3.65625 C 10.137823 3.666 10.141222 3.677 10.125 3.6875 C 10.08699 3.7107499 10.06026 3.7395 10.03125 3.75 C 9.9902775 3.765 9.9435037 3.7757501 9.9375 3.8125 C 9.93255 3.8432499 9.9697925 3.8465001 9.96875 3.875 C 9.953735 3.9117499 9.9455325 3.9237501 9.9375 3.96875 C 9.988485 4.0516998 10.093258 3.951 10.15625 3.9375 C 10.184247 3.92775 10.20375 3.9282968 10.21875 3.9042969 C 10.235738 3.8772969 10.237055 3.8487968 10.25 3.8105469 C 10.264033 3.768547 10.31751 3.7535468 10.3125 3.7167969 C 10.308675 3.680047 10.218241 3.651 10.15625 3.65625 z M 4.6875 4.28125 C 4.734912 4.3194999 4.8015586 4.4018001 4.71875 4.4375 C 4.7087397 4.44725 4.5864965 4.4725 4.5625 4.46875 C 4.5528198 4.46875 4.539734 4.445 4.53125 4.4375 C 4.582913 4.3872501 4.6337069 4.3293249 4.6875 4.28125 z M 4.875 4.46875 C 4.8989797 4.46875 4.909483 4.52975 4.9375 4.53125 C 4.9645052 4.53125 4.9839733 4.49625 5 4.5 C 5.0420203 4.51125 5.0712678 4.5938001 5.03125 4.625 C 4.99825 4.63475 4.9927125 4.59 4.96875 4.59375 C 4.9007543 4.60575 4.8634955 4.75405 4.8125 4.75 C 4.764485 4.74025 4.7322282 4.6287749 4.78125 4.59375 C 4.7823525 4.5637501 4.77921 4.5619999 4.78125 4.53125 C 4.796265 4.51325 4.8349822 4.46575 4.875 4.46875 z M 4.625 4.5 C 4.639025 4.5 4.6512445 4.49025 4.65625 4.5 C 4.6492675 4.5532499 4.6347075 4.5690001 4.59375 4.59375 C 4.5227557 4.6364999 4.460501 4.6897502 4.4375 4.78125 C 4.43051 4.8082499 4.3464956 4.881675 4.3125 4.875 C 4.233504 4.85775 4.357015 4.7103749 4.375 4.6875 C 4.3950198 4.6627501 4.414526 4.6534999 4.4375 4.625 C 4.4604897 4.5972501 4.478055 4.547225 4.5 4.53125 C 4.5239797 4.514 4.5830075 4.4985 4.625 4.5 z M 11.40625 4.65625 C 11.48524 4.6465 11.526502 4.7336251 11.5625 4.78125 C 11.592478 4.8202499 11.669746 4.8790251 11.71875 4.90625 C 11.746748 4.92125 11.781502 4.95525 11.8125 4.96875 C 11.877487 4.9979999 11.996995 5.0922752 12 5.15625 C 12.001125 5.1884999 11.96374 5.2200001 11.96875 5.25 C 12.017762 5.25975 12.0615 5.1741999 12.0625 5.125 C 12.15441 5.2549747 12.233102 5.3926503 12.3125 5.53125 C 12.35 5.5964998 12.40294 5.6513252 12.4375 5.71875 C 12.393392 5.7315 12.382087 5.7385001 12.375 5.78125 C 12.364987 5.8374999 12.396485 5.9276 12.3125 5.9375 C 12.259528 5.94725 12.19799 5.8915 12.125 5.875 C 12.095023 5.86525 12.05525 5.88475 12.03125 5.875 C 11.976253 5.857 11.984502 5.7832999 11.9375 5.75 C 11.910493 5.73125 11.824253 5.692 11.78125 5.6875 C 11.754242 5.6875 11.746725 5.69725 11.71875 5.6875 C 11.68476 5.67775 11.62175 5.70175 11.59375 5.6875 C 11.566743 5.67025 11.50701 5.6169999 11.5 5.59375 C 11.488997 5.5570001 11.59175 5.5314999 11.59375 5.5 C 11.595925 5.4760001 11.567502 5.4429999 11.5625 5.40625 C 11.558675 5.3845001 11.567375 5.35875 11.5625 5.34375 C 11.555525 5.3175001 11.509737 5.314 11.46875 5.3125 L 11.375 5.3125 C 11.330998 5.3125 11.242495 5.305 11.1875 5.3125 L 11.09375 5.3125 C 11.006761 5.32225 10.942997 5.30275 10.875 5.3125 C 10.825987 5.3125 10.733496 5.3540001 10.6875 5.375 C 10.664512 5.38625 10.655007 5.39125 10.625 5.40625 C 10.611028 5.416 10.580538 5.42925 10.5625 5.4375 C 10.53451 5.45025 10.49575 5.4925 10.46875 5.5 C 10.429758 5.50975 10.38349 5.49025 10.3125 5.5 C 10.261522 5.5 10.188501 5.4669998 10.1875 5.40625 C 10.186375 5.3132502 10.349512 5.36025 10.4375 5.34375 C 10.4705 5.334 10.49123 5.3052499 10.53125 5.28125 C 10.550277 5.27 10.544507 5.262 10.5625 5.25 C 10.59247 5.2290001 10.65125 5.1802499 10.65625 5.15625 C 10.660075 5.1345001 10.65325 5.11025 10.65625 5.09375 C 10.660075 5.0727501 10.69175 5.0589999 10.71875 5.03125 C 10.760772 4.9892501 10.791747 4.9333999 10.84375 4.90625 C 10.87873 4.88825 10.9215 4.8742031 10.9375 4.8457031 C 10.941325 4.8134532 10.936375 4.8132031 10.9375 4.7832031 C 10.959498 4.7629532 10.982022 4.7564531 11 4.7519531 C 11.054008 4.7399532 11.09326 4.7519531 11.15625 4.7519531 C 11.18325 4.7519531 11.220997 4.7647031 11.25 4.7519531 C 11.273977 4.7362032 11.2885 4.7014531 11.3125 4.6894531 C 11.33851 4.6752032 11.374218 4.6604531 11.40625 4.6582031 L 11.40625 4.65625 z M 11.96875 5.25 L 11.84375 5.25 C 11.799748 5.25 11.744749 5.2267501 11.71875 5.25 C 11.75577 5.3099999 11.823255 5.32875 11.90625 5.34375 C 11.936227 5.3220001 11.954785 5.2882499 11.96875 5.25 z M 5.125 4.6875 L 5.21875 4.6875 C 5.2437753 4.6875 5.271251 4.67775 5.28125 4.6875 C 5.265245 4.7534998 5.114497 4.7427499 5.0625 4.71875 C 5.0652525 4.6940001 5.0929682 4.692 5.125 4.6875 z M 4.90625 4.8125 C 4.862567 4.8439999 4.8193312 4.8845001 4.75 4.90625 C 4.7119953 4.91825 4.663252 4.9169999 4.65625 4.875 C 4.6482198 4.8232501 4.7159883 4.849 4.75 4.84375 C 4.7940002 4.834 4.855254 4.81475 4.90625 4.8125 z M 11.40625 4.8125 C 11.37325 4.82375 11.357238 4.8962 11.40625 4.90625 C 11.429237 4.892 11.443545 4.8552499 11.4375 4.8125 C 11.424518 4.79825 11.41621 4.80275 11.40625 4.8125 z M 11.34375 4.96875 C 11.344875 5.0249999 11.354753 5.0764001 11.34375 5.125 C 11.37576 5.1872498 11.452756 5.1357499 11.46875 5.09375 C 11.487777 4.9897253 11.45425 4.955775 11.40625 4.96875 C 11.390252 4.9785 11.360685 4.956 11.34375 4.96875 z M 3.0625 7.3125 C 3.118864 7.3634999 3.1512925 7.4353001 3.21875 7.46875 C 3.2437753 7.4815 3.2805012 7.49175 3.3125 7.5 C 3.3385152 7.50975 3.350013 7.49175 3.375 7.5 C 3.4280198 7.518 3.4892575 7.54375 3.53125 7.5625 C 3.5952483 7.5902499 3.6637499 7.6867251 3.71875 7.71875 C 3.7215025 7.7509999 3.7087397 7.7885001 3.71875 7.8125 C 3.7447652 7.8477499 3.770497 7.8822501 3.8125 7.90625 C 3.863485 7.9339999 3.8895065 7.9775001 3.9375 8 C 3.954495 8.00975 3.973963 7.99025 4 8 C 4.065994 8.0202499 4.099253 8.11055 4.15625 8.09375 C 4.1932647 8.0825 4.1815045 8.0359999 4.1875 8 C 4.2125253 7.9730001 4.2422223 7.9375 4.28125 7.9375 C 4.3432398 7.9375 4.351999 8.0331502 4.375 8.09375 C 4.3879803 8.1274999 4.4285352 8.1515001 4.4375 8.1875 C 4.452515 8.2497498 4.4504803 8.4317751 4.4375 8.46875 C 4.421495 8.5144999 4.350499 8.5122501 4.3125 8.5625 C 4.294515 8.5864999 4.2952203 8.639225 4.28125 8.65625 C 4.2572703 8.6854999 4.2367725 8.6910001 4.21875 8.71875 C 4.2087398 8.73375 4.1964655 8.7602501 4.1875 8.78125 C 4.15747 8.8449998 4.0999857 8.8917252 4.125 8.96875 C 4.1350103 8.9994999 4.1875 9.0257501 4.1875 9.0625 C 4.1875 9.1067499 4.100751 9.1393501 4.09375 9.1875 C 4.0888 9.2227499 4.1140545 9.2657751 4.125 9.3125 C 4.13298 9.3477499 4.1977508 9.3830001 4.21875 9.40625 C 4.25373 9.4452499 4.2805013 9.5130001 4.3125 9.5625 C 4.375491 9.6595498 4.406765 9.7799752 4.46875 9.875 C 4.50175 9.9237499 4.57175 9.9484751 4.59375 10 C 4.6047503 10.02625 4.5837397 10.06975 4.59375 10.09375 C 4.62972 10.17475 4.794007 10.2726 4.875 10.3125 C 4.9130047 10.33125 4.965009 10.3235 5 10.34375 C 5.0530198 10.37375 5.160506 10.453425 5.1875 10.5 C 5.2114797 10.542 5.2067597 10.65185 5.21875 10.71875 C 5.233765 10.806725 5.2149025 10.87365 5.21875 10.96875 C 5.2215025 11.0205 5.25 11.042225 5.25 11.09375 C 5.25 11.11175 5.2511025 11.16875 5.25 11.1875 C 5.2488975 11.24975 5.25495 11.312 5.25 11.375 C 5.2472475 11.40875 5.2478025 11.4395 5.25 11.46875 C 5.2527525 11.4995 5.27927 11.5035 5.28125 11.53125 C 5.2834475 11.5605 5.2469752 11.60175 5.25 11.625 C 5.25699 11.688 5.3004993 11.723125 5.3125 11.78125 C 5.3225103 11.827 5.3497447 11.945025 5.34375 12 C 5.3399025 12.02925 5.3165155 12.06075 5.3125 12.09375 C 5.3097475 12.12 5.3163475 12.13225 5.3125 12.15625 C 5.3101776 12.175867 5.3141909 12.192738 5.3125 12.208984 A 4.9999997 5.0000007 0 0 1 5.1992188 12.140625 C 4.9404554 11.96358 4.6891613 11.751655 4.46875 11.53125 C 4.4381568 11.5005 4.404796 11.469 4.375 11.4375 C 4.194419 11.247375 4.0241375 11.029174 3.875 10.8125 C 3.8614865 10.793 3.856989 10.7695 3.84375 10.75 C 3.6707036 10.490726 3.5290643 10.227899 3.40625 9.9375 C 3.3973947 9.9165001 3.3835778 9.8959999 3.375 9.875 C 3.2696226 9.6160256 3.1860736 9.3409743 3.125 9.0625 C 3.1134733 9.0100001 3.103608 8.9594249 3.09375 8.90625 C 3.068988 8.7727503 3.0451685 8.6370247 3.03125 8.5 C 3.01418 8.3318504 3 8.1725746 3 8 C 3 7.7623256 3.030436 7.5413244 3.0625 7.3125 z M 5 7.84375 C 5.048015 7.8220001 5.0389948 7.8995 5 7.90625 C 4.9629853 7.916 4.96403 7.86175 5 7.84375 z "
           transform="matrix(1.3333333,0,0,1.3333367,0.3333327,1030.6957)"
           id="path4144" />
      </g>
    </g>
  </g>
</svg>
