<?xml version="1.0" encoding="UTF-8" standalone="no"?>
<!-- Created with Inkscape (http://www.inkscape.org/) -->

<svg
   xmlns:dc="http://purl.org/dc/elements/1.1/"
   xmlns:cc="http://creativecommons.org/ns#"
   xmlns:rdf="http://www.w3.org/1999/02/22-rdf-syntax-ns#"
   xmlns:svg="http://www.w3.org/2000/svg"
   xmlns="http://www.w3.org/2000/svg"
   xmlns:sodipodi="http://sodipodi.sourceforge.net/DTD/sodipodi-0.dtd"
   xmlns:inkscape="http://www.inkscape.org/namespaces/inkscape"
   width="16"
   height="16"
   id="svg3049"
   version="1.1"
   inkscape:version="0.91 r13725"
   sodipodi:docname="curve-connector.svg"
   inkscape:export-filename="/home/uri/.kde/share/icons/NITRUX-KDE/16x16/actions/view-right-new.png"
   inkscape:export-xdpi="30"
   inkscape:export-ydpi="30">
  <defs
     id="defs3051">
    <style
       type="text/css"
       id="current-color-scheme">
      .ColorScheme-Text {
        color:#4d4d4d;
      }
      .ColorScheme-Background {
        color:#eff0f1;
      }
      .ColorScheme-Highlight {
        color:#3daee9;
      }
      .ColorScheme-ViewText {
        color:#31363b;
      }
      .ColorScheme-ViewBackground {
        color:#fcfcfc;
      }
      .ColorScheme-ViewHover {
        color:#93cee9;
      }
      .ColorScheme-ViewFocus{
        color:#3daee9;
      }
      .ColorScheme-ButtonText {
        color:#31363b;
      }
      .ColorScheme-ButtonBackground {
        color:#eff0f1;
      }
      .ColorScheme-ButtonHover {
        color:#93cee9;
      }
      .ColorScheme-ButtonFocus{
        color:#3daee9;
      }
      </style>
  </defs>
  <sodipodi:namedview
     id="base"
     pagecolor="#ffffff"
     bordercolor="#666666"
     borderopacity="1.0"
     inkscape:pageopacity="0.0"
     inkscape:pageshadow="2"
     inkscape:zoom="1"
     inkscape:cx="-159.07845"
     inkscape:cy="7.0096856"
     inkscape:document-units="px"
     inkscape:current-layer="layer1-8"
     showgrid="false"
     fit-margin-top="0"
     fit-margin-left="0"
     fit-margin-right="0"
     fit-margin-bottom="0"
     inkscape:window-width="1600"
     inkscape:window-height="847"
     inkscape:window-x="0"
     inkscape:window-y="30"
     inkscape:window-maximized="1"
     inkscape:showpageshadow="false"
     borderlayer="true"
     inkscape:snap-bbox="true"
     inkscape:snap-global="true"
     showguides="false"
     inkscape:guide-bbox="true"
     inkscape:object-nodes="true">
    <inkscape:grid
       type="xygrid"
       id="grid4085" />
    <sodipodi:guide
       position="2,13"
       orientation="12,0"
       id="guide4075" />
    <sodipodi:guide
       position="13,2"
       orientation="0,12"
       id="guide4077" />
    <sodipodi:guide
       position="14,14.00003"
       orientation="-12,0"
       id="guide4079" />
    <sodipodi:guide
       position="14.000004,14.00003"
       orientation="0,-12"
       id="guide4081" />
  </sodipodi:namedview>
  <metadata
     id="metadata3054">
    <rdf:RDF>
      <cc:Work
         rdf:about="">
        <dc:format>image/svg+xml</dc:format>
        <dc:type
           rdf:resource="http://purl.org/dc/dcmitype/StillImage" />
        <dc:title />
      </cc:Work>
    </rdf:RDF>
  </metadata>
  <g
     inkscape:label="Capa 1"
     inkscape:groupmode="layer"
     id="layer1"
     transform="translate(-421.71429,-531.79074)">
    <g
       transform="matrix(0.75000002,0,0,0.83333404,421.46429,-327.98583)"
       id="layer1-4"
       inkscape:label="Capa 1">
      <g
         transform="matrix(0.99999997,0,0,0.89999799,0,104.10707)"
         id="layer1-8"
         inkscape:label="Capa 1">
        <path
           style="color:#4d4d4d;opacity:0.72;fill:#ffffff;fill-opacity:1;stroke:none;stroke-linecap:round"
           d="M 12.5 1 A 2.4999999 2.5000001 0 0 0 10.050781 3 L 4.5 3 C 3.1192882 3 2.0000001 4.619288 2 6 C 2.0000001 7.380712 3.1192882 9.0000002 4.5 9 L 11.5 9 C 12.328427 9 13 10.171573 13 11 C 13 11.828427 12.328427 13 11.5 13 L 5.9453125 13 A 2.4999999 2.5000001 0 0 0 3.5 11 A 2.4999999 2.5000001 0 0 0 1 13.5 A 2.4999999 2.5000001 0 0 0 3.5 16 A 2.4999999 2.5000001 0 0 0 5.9492188 14 L 11.5 14 C 12.880712 14 14 12.380712 14 11 C 14 9.6192885 12.880712 7.9999999 11.5 8 L 4.5 8 C 3.6715729 8 3.0000001 6.8284271 3 6 C 3.0000001 5.1715729 3.6715729 4 4.5 4 L 10.054688 4 A 2.4999999 2.5000001 0 0 0 12.5 6 A 2.4999999 2.5000001 0 0 0 15 3.5 A 2.4999999 2.5000001 0 0 0 12.5 1 z "
           transform="matrix(1.3333333,0,0,1.3333352,0.33333333,1030.6956)"
           id="rect4167" />
      </g>
    </g>
  </g>
</svg>
