<?xml version="1.0" encoding="UTF-8" standalone="no"?>
<!-- Created with Inkscape (http://www.inkscape.org/) -->

<svg
   xmlns:dc="http://purl.org/dc/elements/1.1/"
   xmlns:cc="http://creativecommons.org/ns#"
   xmlns:rdf="http://www.w3.org/1999/02/22-rdf-syntax-ns#"
   xmlns:svg="http://www.w3.org/2000/svg"
   xmlns="http://www.w3.org/2000/svg"
   xmlns:xlink="http://www.w3.org/1999/xlink"
   xmlns:sodipodi="http://sodipodi.sourceforge.net/DTD/sodipodi-0.dtd"
   xmlns:inkscape="http://www.inkscape.org/namespaces/inkscape"
   width="16"
   height="16"
   id="svg3869"
   version="1.1"
   inkscape:version="0.91 r13725"
   sodipodi:docname="distribute-graph.svg">
  <defs
     id="defs3871">
    <style
       type="text/css"
       id="current-color-scheme">
      .ColorScheme-Text {
        color:#4d4d4d;
      }
      .ColorScheme-Background {
        color:#eff0f1;
      }
      .ColorScheme-Highlight {
        color:#3daee9;
      }
      .ColorScheme-ViewText {
        color:#31363b;
      }
      .ColorScheme-ViewBackground {
        color:#fcfcfc;
      }
      .ColorScheme-ViewHover {
        color:#93cee9;
      }
      .ColorScheme-ViewFocus{
        color:#3daee9;
      }
      .ColorScheme-ButtonText {
        color:#31363b;
      }
      .ColorScheme-ButtonBackground {
        color:#eff0f1;
      }
      .ColorScheme-ButtonHover {
        color:#93cee9;
      }
      .ColorScheme-ButtonFocus{
        color:#3daee9;
      }
      </style>
  </defs>
  <sodipodi:namedview
     id="base"
     pagecolor="#ffffff"
     bordercolor="#666666"
     borderopacity="1.0"
     inkscape:pageopacity="0.0"
     inkscape:pageshadow="2"
     inkscape:zoom="17.15"
     inkscape:cx="-1.8657095"
     inkscape:cy="12.032563"
     inkscape:document-units="px"
     inkscape:current-layer="layer1"
     showgrid="false"
     fit-margin-top="0"
     fit-margin-left="0"
     fit-margin-right="0"
     fit-margin-bottom="0"
     inkscape:window-width="1600"
     inkscape:window-height="847"
     inkscape:window-x="0"
     inkscape:window-y="30"
     inkscape:window-maximized="1"
     inkscape:showpageshadow="false"
     showguides="false">
    <inkscape:grid
       type="xygrid"
       id="grid4132" />
    <sodipodi:guide
       position="2,20.000017"
       orientation="18,0"
       id="guide4138" />
    <sodipodi:guide
       position="2,2.0000174"
       orientation="0,18"
       id="guide4140" />
    <sodipodi:guide
       position="20,2.0000174"
       orientation="-18,0"
       id="guide4142" />
    <sodipodi:guide
       position="20,20.000017"
       orientation="0,-18"
       id="guide4144" />
    <sodipodi:guide
       position="3,19.000017"
       orientation="16,0"
       id="guide4146" />
    <sodipodi:guide
       position="3,3.0000174"
       orientation="0,16"
       id="guide4148" />
    <sodipodi:guide
       position="19,3.0000174"
       orientation="-16,0"
       id="guide4150" />
    <sodipodi:guide
       position="19,19.000017"
       orientation="0,-16"
       id="guide4152" />
  </sodipodi:namedview>
  <metadata
     id="metadata3874">
    <rdf:RDF>
      <cc:Work
         rdf:about="">
        <dc:format>image/svg+xml</dc:format>
        <dc:type
           rdf:resource="http://purl.org/dc/dcmitype/StillImage" />
        <dc:title></dc:title>
      </cc:Work>
    </rdf:RDF>
  </metadata>
  <g
     inkscape:label="Capa 1"
     inkscape:groupmode="layer"
     id="layer1"
     transform="translate(-326,-540.3622)">
    <path
       style="color:#4d4d4d;font-style:normal;font-variant:normal;font-weight:normal;font-stretch:normal;font-size:medium;line-height:normal;font-family:sans-serif;text-indent:0;text-align:start;text-decoration:none;text-decoration-line:none;text-decoration-style:solid;text-decoration-color:#ffffff;letter-spacing:normal;word-spacing:normal;text-transform:none;direction:ltr;block-progression:tb;writing-mode:lr-tb;baseline-shift:baseline;text-anchor:start;white-space:normal;clip-rule:nonzero;display:inline;overflow:visible;visibility:visible;opacity:0.72;isolation:auto;mix-blend-mode:normal;color-interpolation:sRGB;color-interpolation-filters:linearRGB;solid-color:#ffffff;solid-opacity:1;fill:#ffffff;fill-opacity:1;fill-rule:evenodd;stroke:none;stroke-width:1px;stroke-linecap:butt;stroke-linejoin:miter;stroke-miterlimit:4;stroke-dasharray:none;stroke-dashoffset:0;stroke-opacity:1;color-rendering:auto;image-rendering:auto;shape-rendering:auto;text-rendering:auto;enable-background:accumulate"
       d="m 333.5,540.3622 a 1.4999964,1.5 0 0 0 -1.5,1.5 1.4999964,1.5 0 0 0 0.11328,0.57031 l -3.89258,3.11524 a 1.4999964,1.5 0 0 0 -0.7207,-0.18555 1.4999964,1.5 0 0 0 -1.5,1.5 1.4999964,1.5 0 0 0 1,1.41211 l 0,5.17578 a 1.4999964,1.5 0 0 0 -1,1.41211 1.4999964,1.5 0 0 0 1.5,1.5 1.4999964,1.5 0 0 0 1.41211,-1 l 4.17578,0 a 1.4999964,1.5 0 0 0 1.41211,1 1.4999964,1.5 0 0 0 1.5,-1.5 1.4999964,1.5 0 0 0 -0.18555,-0.7168 l 3.11719,-3.89648 a 1.4999964,1.5 0 0 0 0.56836,0.11328 1.4999964,1.5 0 0 0 1.5,-1.5 1.4999964,1.5 0 0 0 -1.5,-1.5 1.4999964,1.5 0 0 0 -0.58398,0.11914 l -4.09375,-4.91211 A 1.4999964,1.5 0 0 0 335,541.8622 a 1.4999964,1.5 0 0 0 -1.5,-1.5 z m -0.71875,2.81641 a 1.4999964,1.5 0 0 0 0.71875,0.18359 1.4999964,1.5 0 0 0 0.58203,-0.11914 l 4.0957,4.91406 A 1.4999964,1.5 0 0 0 338,548.8622 a 1.4999964,1.5 0 0 0 0.18555,0.71875 l -3.11524,3.89453 A 1.4999964,1.5 0 0 0 334.5,553.3622 a 1.4999964,1.5 0 0 0 -1.41211,1 l -4.17578,0 A 1.4999964,1.5 0 0 0 328,553.45009 l 0,-5.17578 a 1.4999964,1.5 0 0 0 1,-1.41211 1.4999964,1.5 0 0 0 -0.11328,-0.56836 l 3.89453,-3.11523 z"
       id="path4230"
       inkscape:connector-curvature="0" />
    <use
       xlink:href="#path5724"
       height="1250"
       width="1250"
       id="use15554"
       y="0"
       x="0"
       style="fill:#8ab3df;fill-opacity:0.728823529;stroke:#ffffff;stroke-opacity:1"
       transform="matrix(0.34051305,0,0,0.34051309,212.4719,470.25267)" />
  </g>
</svg>
