<?xml version="1.0" encoding="UTF-8" standalone="no"?>
<!-- Created with Inkscape (http://www.inkscape.org/) -->

<svg
   xmlns:dc="http://purl.org/dc/elements/1.1/"
   xmlns:cc="http://creativecommons.org/ns#"
   xmlns:rdf="http://www.w3.org/1999/02/22-rdf-syntax-ns#"
   xmlns:svg="http://www.w3.org/2000/svg"
   xmlns="http://www.w3.org/2000/svg"
   xmlns:sodipodi="http://sodipodi.sourceforge.net/DTD/sodipodi-0.dtd"
   xmlns:inkscape="http://www.inkscape.org/namespaces/inkscape"
   width="16"
   height="16"
   id="svg3049"
   version="1.1"
   inkscape:version="0.91 r13725"
   sodipodi:docname="filename-and-amarok.svg"
   inkscape:export-filename="/home/uri/.kde/share/icons/NITRUX-KDE/16x16/actions/view-right-new.png"
   inkscape:export-xdpi="30"
   inkscape:export-ydpi="30">
  <defs
     id="defs3051">
    <style
       type="text/css"
       id="current-color-scheme">
      .ColorScheme-Text {
        color:#4d4d4d;
      }
      .ColorScheme-Background {
        color:#eff0f1;
      }
      .ColorScheme-Highlight {
        color:#3daee9;
      }
      .ColorScheme-ViewText {
        color:#31363b;
      }
      .ColorScheme-ViewBackground {
        color:#fcfcfc;
      }
      .ColorScheme-ViewHover {
        color:#93cee9;
      }
      .ColorScheme-ViewFocus{
        color:#3daee9;
      }
      .ColorScheme-ButtonText {
        color:#31363b;
      }
      .ColorScheme-ButtonBackground {
        color:#eff0f1;
      }
      .ColorScheme-ButtonHover {
        color:#93cee9;
      }
      .ColorScheme-ButtonFocus{
        color:#3daee9;
      }
      </style>
  </defs>
  <sodipodi:namedview
     id="base"
     pagecolor="#ffffff"
     bordercolor="#666666"
     borderopacity="1.0"
     inkscape:pageopacity="0.0"
     inkscape:pageshadow="2"
     inkscape:zoom="1"
     inkscape:cx="2.0892644"
     inkscape:cy="9.4322189"
     inkscape:document-units="px"
     inkscape:current-layer="layer1"
     showgrid="false"
     fit-margin-top="0"
     fit-margin-left="0"
     fit-margin-right="0"
     fit-margin-bottom="0"
     inkscape:window-width="1600"
     inkscape:window-height="847"
     inkscape:window-x="0"
     inkscape:window-y="30"
     inkscape:window-maximized="1"
     inkscape:showpageshadow="false"
     borderlayer="true"
     inkscape:snap-bbox="true"
     inkscape:snap-global="true"
     inkscape:object-nodes="true"
     showguides="false">
    <inkscape:grid
       type="xygrid"
       id="grid4085" />
    <sodipodi:guide
       position="2.0000044,14.00003"
       orientation="12,0"
       id="guide4075" />
    <sodipodi:guide
       position="2.0000044,2.0000296"
       orientation="0,12"
       id="guide4077" />
    <sodipodi:guide
       position="14.000004,2.0000296"
       orientation="-12,0"
       id="guide4079" />
    <sodipodi:guide
       position="14.000004,14.00003"
       orientation="0,-12"
       id="guide4081" />
  </sodipodi:namedview>
  <metadata
     id="metadata3054">
    <rdf:RDF>
      <cc:Work
         rdf:about="">
        <dc:format>image/svg+xml</dc:format>
        <dc:type
           rdf:resource="http://purl.org/dc/dcmitype/StillImage" />
        <dc:title />
      </cc:Work>
    </rdf:RDF>
  </metadata>
  <g
     inkscape:label="Capa 1"
     inkscape:groupmode="layer"
     id="layer1"
     transform="translate(-421.71429,-531.79074)">
    <path
       inkscape:connector-curvature="0"
       id="path4149"
       d="m 428.98887,532.8358 c -1.1178,0 -2.15309,0.29327 -2.95591,0.91678 -0.80478,0.62368 -1.27007,1.57669 -1.27007,2.57252 0,0.91979 0.42415,1.78537 1.02599,2.60214 -0.24211,0.16584 -0.47782,0.34518 -0.70744,0.55917 -0.2794,0.26021 -0.52332,0.54444 -0.72191,0.85355 a 1.0232926,0.97743304 0 0 0 -0.002,0.006 c -0.20359,0.32163 -0.35657,0.67906 -0.47163,1.06694 a 1.0232926,0.97743304 0 0 0 -0.002,0.0101 c -0.11563,0.40727 -0.16961,0.83387 -0.16961,1.2744 0,0.5513 0.14738,1.09884 0.4199,1.59053 a 1.0232926,0.97743304 0 0 0 0.006,0.0101 c 0.27063,0.47508 0.63725,0.89508 1.07976,1.24278 0.45013,0.35367 0.97755,0.62579 1.55967,0.82392 a 1.0232926,0.97743304 0 0 0 0.0124,0.004 c 0.60056,0.19557 1.23175,0.29242 1.87615,0.29242 1.16509,0 2.27423,-0.39721 3.3241,-0.98791 l 0.74881,0.79429 a 1.0232926,0.97743304 0 0 0 1.4128,0.0987 l 0.97427,-0.77057 a 1.0232926,0.97743304 0 0 0 0.10136,-1.41468 l -0.77363,-0.80416 c 0.4006,-0.47929 0.81289,-0.93142 1.16872,-1.52336 a 1.0232926,0.97743304 0 0 0 -0.32682,-1.30404 l -0.95773,-0.60064 a 1.0232926,0.97743304 0 0 0 -1.45418,0.33984 c -0.18994,0.32468 -0.41134,0.55057 -0.61641,0.82787 l -1.64447,-1.70711 c 0.21463,-0.12287 0.4048,-0.23709 0.57091,-0.36553 0.12924,-0.1 0.27663,-0.21723 0.44473,-0.35564 a 1.0232926,0.97743304 0 0 0 0.002,-0.002 c 0.21777,-0.1803 0.40802,-0.37123 0.56677,-0.59868 a 1.0232926,0.97743304 0 0 0 0.0106,-0.0139 c 0.10422,-0.1556 0.20522,-0.32342 0.30408,-0.49988 0.1449,-0.25233 0.24917,-0.52594 0.3082,-0.80811 0.0411,-0.19644 0.0509,-0.39911 0.06,-0.60263 a 1.0232926,0.97743304 0 0 0 0.0186,-0.18177 c 0,-0.97937 -0.40019,-1.92406 -1.17079,-2.51917 -0.74319,-0.57395 -1.70648,-0.82589 -2.75113,-0.82589 z m 1.93614,1.59646 0.006,0.008 c -0.001,-10e-4 -0.003,-9.1e-4 -0.004,-0.002 -0.002,-10e-4 -4e-4,-0.004 -0.002,-0.006 z m -1.91959,1.31195 c 0.37084,0 0.47733,0.0759 0.51093,0.10669 a 1.0232926,0.97743304 0 0 0 0.006,0.006 c 0.0372,0.0333 0.089,0.074 0.089,0.36356 0,0.11698 -0.0184,0.21286 -0.0599,0.31217 a 1.0232926,0.97743304 0 0 0 -0.006,0.0118 c -0.0506,0.12563 -0.10496,0.20835 -0.15515,0.26673 a 1.0232926,0.97743304 0 0 0 -0.0124,0.0178 c -0.0421,0.0513 -0.15124,0.1564 -0.3289,0.28057 -0.15196,0.10517 -0.27494,0.18068 -0.39922,0.25685 -0.29603,-0.41543 -0.604,-0.83917 -0.604,-1.13017 0,-0.17332 -0.0115,-0.15983 0.15721,-0.27661 0.20017,-0.13856 0.42757,-0.21536 0.80258,-0.21536 z m -1.16251,5.53426 1.88649,1.99952 c -0.33249,0.11227 -0.68899,0.36949 -1.00943,0.36949 -0.56149,0 -0.91933,-0.12733 -1.23077,-0.37146 -0.31584,-0.25253 -0.38474,-0.41044 -0.38474,-0.70734 0,-0.43064 0.0993,-0.69218 0.27718,-0.91481 a 1.0232926,0.97743304 0 0 0 0.004,-0.006 c 0.095,-0.12041 0.31545,-0.24561 0.45714,-0.36947 z"
       style="color:#4d4d4d;font-style:normal;font-variant:normal;font-weight:normal;font-stretch:normal;font-size:16.25px;line-height:125%;font-family:Oxygen-Sans;-inkscape-font-specification:Oxygen-Sans;text-indent:0;text-align:start;text-decoration:none;text-decoration-line:none;text-decoration-style:solid;text-decoration-color:#ffffff;letter-spacing:0px;word-spacing:0.01px;text-transform:none;direction:ltr;block-progression:tb;writing-mode:lr-tb;baseline-shift:baseline;text-anchor:start;white-space:normal;clip-rule:nonzero;display:inline;overflow:visible;visibility:visible;opacity:0.72;isolation:auto;mix-blend-mode:normal;color-interpolation:sRGB;color-interpolation-filters:linearRGB;solid-color:#ffffff;solid-opacity:1;fill:#ffffff;fill-opacity:1;fill-rule:nonzero;stroke:none;stroke-width:1.93222129;stroke-linecap:round;stroke-linejoin:round;stroke-miterlimit:4;stroke-dasharray:none;stroke-dashoffset:0;stroke-opacity:1;color-rendering:auto;image-rendering:auto;shape-rendering:auto;text-rendering:auto;enable-background:accumulate" />
  </g>
</svg>
