<?xml version="1.0" encoding="UTF-8" standalone="no"?>
<!-- Created with Inkscape (http://www.inkscape.org/) -->

<svg
   xmlns:osb="http://www.openswatchbook.org/uri/2009/osb"
   xmlns:dc="http://purl.org/dc/elements/1.1/"
   xmlns:cc="http://creativecommons.org/ns#"
   xmlns:rdf="http://www.w3.org/1999/02/22-rdf-syntax-ns#"
   xmlns:svg="http://www.w3.org/2000/svg"
   xmlns="http://www.w3.org/2000/svg"
   xmlns:sodipodi="http://sodipodi.sourceforge.net/DTD/sodipodi-0.dtd"
   xmlns:inkscape="http://www.inkscape.org/namespaces/inkscape"
   sodipodi:docname="binary.svg"
   inkscape:export-filename="/home/sam/source-symbolic.png"
   inkscape:export-xdpi="270"
   inkscape:export-ydpi="270"
   height="16"
   id="svg7384"
   style="enable-background:new"
   version="1.1"
   inkscape:version="0.91 r"
   width="16">
  <sodipodi:namedview
     inkscape:bbox-nodes="true"
     inkscape:bbox-paths="false"
     bordercolor="#666666"
     borderlayer="false"
     borderopacity="1"
     inkscape:current-layer="layer12"
     inkscape:cx="6.971115"
     inkscape:cy="5.964391"
     gridtolerance="10"
     inkscape:guide-bbox="true"
     guidetolerance="10"
     id="namedview88"
     inkscape:object-nodes="true"
     inkscape:object-paths="true"
     objecttolerance="10"
     pagecolor="#f7f7f7"
     inkscape:pageopacity="0"
     inkscape:pageshadow="2"
     showborder="true"
     showgrid="false"
     showguides="true"
     inkscape:showpageshadow="false"
     inkscape:snap-bbox="true"
     inkscape:snap-bbox-edge-midpoints="false"
     inkscape:snap-bbox-midpoints="true"
     inkscape:snap-center="false"
     inkscape:snap-global="true"
     inkscape:snap-grids="true"
     inkscape:snap-intersection-paths="true"
     inkscape:snap-midpoints="true"
     inkscape:snap-nodes="true"
     inkscape:snap-object-midpoints="true"
     inkscape:snap-others="true"
     inkscape:snap-page="false"
     inkscape:snap-smooth-nodes="true"
     inkscape:snap-to-guides="true"
     inkscape:window-height="842"
     inkscape:window-maximized="1"
     inkscape:window-width="1600"
     inkscape:window-x="-4"
     inkscape:window-y="32"
     inkscape:zoom="26.24">
    <inkscape:grid
       color="#000000"
       dotted="false"
       empcolor="#0800ff"
       empopacity="0.4627451"
       empspacing="4"
       enabled="true"
       id="grid4866"
       opacity="0.16470588"
       originx="-124.0002"
       originy="-336.00336"
       snapvisiblegridlinesonly="true"
       spacingx="0.25px"
       spacingy="0.25px"
       type="xygrid"
       visible="true" />
  </sodipodi:namedview>
  <metadata
     id="metadata90">
    <rdf:RDF>
      <cc:Work
         rdf:about="">
        <dc:format>image/svg+xml</dc:format>
        <dc:type
           rdf:resource="http://purl.org/dc/dcmitype/StillImage" />
        <dc:title>Paper Symbolic Icon Theme</dc:title>
      </cc:Work>
    </rdf:RDF>
  </metadata>
  <title
     id="title8473">Paper Symbolic Icon Theme</title>
  <defs
     id="defs7386">
    <linearGradient
       id="linearGradient5606"
       osb:paint="solid">
      <stop
         id="stop5608"
         offset="0"
         style="stop-color:#000000;stop-opacity:1;" />
    </linearGradient>
  </defs>
  <g
     inkscape:groupmode="layer"
     id="layer12"
     inkscape:label="actions"
     style="display:inline"
     transform="translate(-365.0004,119.00336)">
    <g
       id="g4693"
       transform="matrix(1.5,0,0,2,-188.2502,108.00336)" />
    <g
       transform="matrix(0,1.5,-2,0,158.99368,-671.25396)"
       id="g4814" />
    <g
       id="g4175"
       transform="translate(0,1)">
      <g
         transform="translate(1.0000033,0)"
         id="g4162" />
      <g
         id="g4167"
         transform="translate(1.0000033,2.9999969)" />
    </g>
    <g
       style="enable-background:new"
       id="g4232"
       transform="matrix(0.58332653,0,0,0.57142857,367.85002,-115.00342)">
      <g
         transform="translate(-465.03395,-41.017475)"
         style="display:inline"
         inkscape:label="actions"
         id="layer12-2" />
    </g>
    <g
       id="layer9"
       inkscape:label="status"
       style="display:inline"
       transform="translate(13.71295,-94.559763)" />
    <g
       id="layer1"
       inkscape:label="places"
       style="display:inline"
       transform="translate(254.71315,-711.55976)" />
    <g
       id="layer14"
       inkscape:label="mimetypes"
       style="display:inline"
       transform="translate(13.71295,-94.559763)" />
    <g
       id="layer15"
       inkscape:label="emblems"
       style="display:inline"
       transform="translate(13.71295,-94.559763)" />
    <g
       id="g71291"
       inkscape:label="emotes"
       style="display:inline"
       transform="translate(13.71295,-94.559763)" />
    <path
       style="opacity:0.5;fill:#000000;fill-opacity:1;stroke:none;stroke-width:1;stroke-linecap:round;stroke-linejoin:round;stroke-miterlimit:4;stroke-dasharray:none;stroke-opacity:1"
       d="M 2 1.1621094 L 2 15.162109 L 14 15.162109 L 14 1.1621094 L 2 1.1621094 z M 6.9902344 4 L 9.0097656 4 L 9.0976562 5.0527344 A 3.1711712 3.1428571 0 0 1 10.025391 5.5839844 L 10.990234 5.1347656 L 12 6.8652344 L 11.123047 7.4707031 A 3.1711712 3.1428571 0 0 1 11.171875 8 A 3.1711712 3.1428571 0 0 1 11.125 8.5332031 L 12 9.1347656 L 10.990234 10.865234 L 10.027344 10.416016 A 3.1711712 3.1428571 0 0 1 9.0976562 10.943359 L 9.0097656 12 L 6.9902344 12 L 6.9023438 10.947266 A 3.1711712 3.1428571 0 0 1 5.9746094 10.416016 L 5.0097656 10.865234 L 4 9.1347656 L 4.8769531 8.5292969 A 3.1711712 3.1428571 0 0 1 4.828125 8 A 3.1711712 3.1428571 0 0 1 4.875 7.4667969 L 4 6.8652344 L 5.0097656 5.1347656 L 5.9726562 5.5839844 A 3.1711712 3.1428571 0 0 1 6.9023438 5.0566406 L 6.9902344 4 z M 8 6.8574219 A 1.1531532 1.1428571 0 0 0 6.8476562 8 A 1.1531532 1.1428571 0 0 0 8 9.1425781 A 1.1531532 1.1428571 0 0 0 9.1523438 8 A 1.1531532 1.1428571 0 0 0 8 6.8574219 z "
       transform="translate(365.0004,-119.00336)"
       id="rect4395" />
    <g
       id="layer2"
       inkscape:label="categories"
       style="display:inline;fill:#ffffff;fill-opacity:1"
       transform="matrix(-0.57657658,0,0,0.57142857,622.08148,-360.14622)" />
    <g
       id="g6058"
       inkscape:label="apps"
       style="display:inline"
       transform="translate(254.71315,-561.55976)" />
    <g
       id="layer12-6"
       inkscape:label="actions"
       style="display:inline"
       transform="translate(13.71295,-94.559763)" />
  </g>
</svg>
