<?xml version="1.0" encoding="UTF-8" standalone="no"?>
<!-- Created with Inkscape (http://www.inkscape.org/) -->

<svg
   xmlns:osb="http://www.openswatchbook.org/uri/2009/osb"
   xmlns:dc="http://purl.org/dc/elements/1.1/"
   xmlns:cc="http://creativecommons.org/ns#"
   xmlns:rdf="http://www.w3.org/1999/02/22-rdf-syntax-ns#"
   xmlns:svg="http://www.w3.org/2000/svg"
   xmlns="http://www.w3.org/2000/svg"
   xmlns:sodipodi="http://sodipodi.sourceforge.net/DTD/sodipodi-0.dtd"
   xmlns:inkscape="http://www.inkscape.org/namespaces/inkscape"
   width="112"
   height="28"
   id="svg4428"
   version="1.1"
   inkscape:version="0.91 r13725"
   sodipodi:docname="keepbelow.svg">
  <defs
     id="defs4430">
    <linearGradient
       osb:paint="solid"
       id="linearGradient5606">
      <stop
         style="stop-color:#000000;stop-opacity:1;"
         offset="0"
         id="stop5608" />
    </linearGradient>
  </defs>
  <sodipodi:namedview
     id="base"
     pagecolor="#bdc3c7"
     bordercolor="#666666"
     borderopacity="1.0"
     inkscape:pageopacity="1"
     inkscape:pageshadow="2"
     inkscape:zoom="2.86"
     inkscape:cx="67.26658"
     inkscape:cy="19.569785"
     inkscape:document-units="px"
     inkscape:current-layer="layer1"
     showgrid="false"
     inkscape:snap-bbox="true"
     inkscape:window-width="1600"
     inkscape:window-height="853"
     inkscape:window-x="0"
     inkscape:window-y="24"
     inkscape:window-maximized="1"
     showborder="true"
     inkscape:showpageshadow="false">
    <inkscape:grid
       type="xygrid"
       id="grid4436"
       empspacing="5"
       visible="true"
       enabled="true"
       snapvisiblegridlinesonly="true" />
  </sodipodi:namedview>
  <metadata
     id="metadata4433">
    <rdf:RDF>
      <cc:Work
         rdf:about="">
        <dc:format>image/svg+xml</dc:format>
        <dc:type
           rdf:resource="http://purl.org/dc/dcmitype/StillImage" />
        <dc:title></dc:title>
      </cc:Work>
    </rdf:RDF>
  </metadata>
  <g
     inkscape:label="Layer 1"
     inkscape:groupmode="layer"
     id="layer1"
     transform="translate(0,-1024.3622)">
    <g
       id="4"
       inkscape:label="#g3842"
       transform="translate(81,-3)" />
    <text
       xml:space="preserve"
       style="font-size:4.95831585px;font-style:normal;font-weight:normal;line-height:125%;letter-spacing:0px;word-spacing:0px;fill:#000000;fill-opacity:1;stroke:none;font-family:Sans"
       x="-32.359913"
       y="962.20459"
       id="text3129"
       sodipodi:linespacing="125%"
       transform="scale(0.93892719,1.0650453)"><tspan
         sodipodi:role="line"
         id="tspan3131"
         x="-32.359913"
         y="962.20459">active-center</tspan></text>
    <text
       xml:space="preserve"
       style="font-size:4.95831585px;font-style:normal;font-weight:normal;line-height:125%;letter-spacing:0px;word-spacing:0px;fill:#000000;fill-opacity:1;stroke:none;font-family:Sans"
       x="11.110399"
       y="962.88507"
       id="text3129-2"
       sodipodi:linespacing="125%"
       transform="scale(0.93892719,1.0650453)"><tspan
         sodipodi:role="line"
         id="tspan3131-8"
         x="11.110399"
         y="962.88507">hover-center</tspan></text>
    <text
       xml:space="preserve"
       style="font-size:4.95831585px;font-style:normal;font-weight:normal;line-height:125%;letter-spacing:0px;word-spacing:0px;fill:#000000;fill-opacity:1;stroke:none;font-family:Sans"
       x="51.589565"
       y="962.71918"
       id="text3129-7"
       sodipodi:linespacing="125%"
       transform="scale(0.93892719,1.0650453)"><tspan
         sodipodi:role="line"
         id="tspan3131-9"
         x="51.589565"
         y="962.71918">pressed-center</tspan></text>
    <text
       xml:space="preserve"
       style="font-size:4.95831585px;font-style:normal;font-weight:normal;line-height:125%;letter-spacing:0px;word-spacing:0px;fill:#000000;fill-opacity:1;stroke:none;font-family:Sans"
       x="96.745804"
       y="963.06854"
       id="text3129-7-7"
       sodipodi:linespacing="125%"
       transform="scale(0.93892719,1.0650453)"><tspan
         sodipodi:role="line"
         id="tspan3131-9-4"
         x="96.745804"
         y="963.06854">inactive-center</tspan></text>
    <text
       xml:space="preserve"
       style="font-size:4.95831585px;font-style:normal;font-weight:normal;line-height:125%;letter-spacing:0px;word-spacing:0px;fill:#000000;fill-opacity:1;stroke:none;font-family:Sans"
       x="145.82875"
       y="962.55316"
       id="text3129-7-7-8"
       sodipodi:linespacing="125%"
       transform="scale(0.93892719,1.0650453)"><tspan
         sodipodi:role="line"
         id="tspan3131-9-4-4"
         x="145.82875"
         y="962.55316">deactivated-center</tspan></text>
    <g
       id="active-center"
       inkscape:label="#g4230">
      <rect
         transform="matrix(0,-1,1,0,0,0)"
         y="-25"
         x="-1048.3622"
         height="20"
         width="20"
         id="rect4188"
         style="opacity:0;fill:#eff0f1;fill-opacity:1;stroke:none;stroke-width:0.5;stroke-linecap:round;stroke-linejoin:round;stroke-miterlimit:4;stroke-dasharray:none;stroke-opacity:1" />
      <g
         style="enable-background:new"
         id="g4190"
         transform="matrix(0.70710678,0.70710678,-0.70710678,0.70710678,-14.757359,1030.6343)">
        <g
           transform="translate(-285.00081,-0.99666)"
           style="display:inline"
           inkscape:label="actions"
           id="g4192">
          <path
             inkscape:connector-curvature="0"
             id="path4194"
             transform="matrix(0.70710678,-0.70710678,0.70710678,0.70710678,292.41501,-12.4592)"
             d="M -17.585938,7.34375 -19,8.7578125 -14.757812,13 -10.515625,8.7578125 -11.929688,7.34375 -14.757812,10.171875 -17.585938,7.34375 Z m 0,4 L -19,12.757812 -14.757812,17 l 4.242187,-4.242188 -1.414063,-1.414062 -2.828124,2.828125 -2.828126,-2.828125 z"
             style="color:#bebebe;display:inline;overflow:visible;visibility:visible;opacity:0.5;fill:#000000;fill-opacity:1;stroke:none;stroke-width:1;marker:none" />
        </g>
      </g>
    </g>
    <g
       id="hover-center"
       inkscape:label="#g4236">
      <rect
         style="opacity:0;fill:#eff0f1;fill-opacity:1;stroke:none;stroke-width:0.5;stroke-linecap:round;stroke-linejoin:round;stroke-miterlimit:4;stroke-dasharray:none;stroke-opacity:1"
         id="rect4276"
         width="20"
         height="20"
         x="-1048.3622"
         y="14"
         transform="matrix(0,-1,1,0,0,0)" />
      <g
         transform="matrix(0.70710678,0.70710678,-0.70710678,0.70710678,24.242641,1030.6343)"
         id="g4242"
         style="enable-background:new">
        <g
           id="layer12"
           inkscape:label="actions"
           style="display:inline"
           transform="translate(-285.00081,-0.99666)">
          <path
             inkscape:connector-curvature="0"
             id="rect31992"
             transform="matrix(0.70710678,-0.70710678,0.70710678,0.70710678,264.83784,15.117965)"
             d="M 21.414062,7.34375 20,8.7578125 24.242188,13 28.484375,8.7578125 27.070312,7.34375 24.242188,10.171875 21.414062,7.34375 Z m 0,4 L 20,12.757812 24.242188,17 28.484375,12.757812 27.070312,11.34375 24.242188,14.171875 21.414062,11.34375 Z"
             style="color:#bebebe;display:inline;overflow:visible;visibility:visible;opacity:0.7;fill:#000000;fill-opacity:1;stroke:none;stroke-width:1;marker:none" />
        </g>
      </g>
    </g>
    <g
       id="pressed-center"
       inkscape:label="#g4243">
      <rect
         style="opacity:0;fill:#eff0f1;fill-opacity:1;stroke:none;stroke-width:0.5;stroke-linecap:round;stroke-linejoin:round;stroke-miterlimit:4;stroke-dasharray:none;stroke-opacity:1"
         id="rect4198"
         width="20"
         height="20"
         x="-1048.3622"
         y="56"
         transform="matrix(0,-1,1,0,0,0)" />
      <g
         transform="matrix(0.70710678,0.70710678,-0.70710678,0.70710678,66.242641,1030.6343)"
         id="g4200"
         style="enable-background:new">
        <g
           id="g4202"
           inkscape:label="actions"
           style="display:inline"
           transform="translate(-285.00081,-0.99666)">
          <path
             inkscape:connector-curvature="0"
             id="path4204"
             transform="matrix(0.70710678,-0.70710678,0.70710678,0.70710678,235.13936,44.81645)"
             d="M 63.414062,7.34375 62,8.7578125 66.242188,13 70.484375,8.7578125 69.070312,7.34375 66.242188,10.171875 63.414062,7.34375 Z m 0,4 L 62,12.757812 66.242188,17 70.484375,12.757812 69.070312,11.34375 66.242188,14.171875 63.414062,11.34375 Z"
             style="color:#bebebe;display:inline;overflow:visible;visibility:visible;opacity:0.5;fill:#000000;fill-opacity:1;stroke:none;stroke-width:1;marker:none" />
        </g>
      </g>
    </g>
    <g
       id="inactive-center"
       inkscape:label="#g4257">
      <rect
         transform="matrix(0,-1,1,0,0,0)"
         y="100"
         x="-1048.3622"
         height="20"
         width="20"
         id="rect4208"
         style="opacity:0;fill:#eff0f1;fill-opacity:1;stroke:none;stroke-width:0.5;stroke-linecap:round;stroke-linejoin:round;stroke-miterlimit:4;stroke-dasharray:none;stroke-opacity:1" />
      <g
         style="enable-background:new"
         id="g4213"
         transform="matrix(0.70710678,0.70710678,-0.70710678,0.70710678,110.24264,1030.6343)">
        <g
           transform="translate(-285.00081,-0.99666)"
           style="display:inline"
           inkscape:label="actions"
           id="g4212">
          <path
             inkscape:connector-curvature="0"
             id="path4214"
             transform="matrix(0.70710678,-0.70710678,0.70710678,0.70710678,204.02666,75.929148)"
             d="M 107.41406,7.34375 106,8.7578125 110.24219,13 114.48438,8.7578125 113.07031,7.34375 110.24219,10.171875 107.41406,7.34375 Z m 0,4 L 106,12.757812 110.24219,17 l 4.24219,-4.242188 -1.41407,-1.414062 -2.82812,2.828125 -2.82813,-2.828125 z"
             style="color:#bebebe;display:inline;overflow:visible;visibility:visible;opacity:0.3;fill:#000000;fill-opacity:1;stroke:none;stroke-width:1;marker:none" />
        </g>
      </g>
    </g>
    <g
       id="deactivated-center"
       inkscape:label="#g4263">
      <rect
         transform="matrix(0,-1,1,0,0,0)"
         y="150"
         x="-1048.3622"
         height="20"
         width="20"
         id="rect4218"
         style="opacity:0;fill:#eff0f1;fill-opacity:1;stroke:none;stroke-width:0.5;stroke-linecap:round;stroke-linejoin:round;stroke-miterlimit:4;stroke-dasharray:none;stroke-opacity:1" />
      <g
         style="enable-background:new"
         id="g4220"
         transform="matrix(0.70710678,0.70710678,-0.70710678,0.70710678,160.24264,1030.6343)">
        <g
           transform="translate(-285.00081,-0.99666)"
           style="display:inline"
           inkscape:label="actions"
           id="g4222">
          <path
             inkscape:connector-curvature="0"
             id="path4224"
             transform="matrix(0.70710678,-0.70710678,0.70710678,0.70710678,168.67132,111.28449)"
             d="M 157.41406,7.34375 156,8.7578125 160.24219,13 164.48438,8.7578125 163.07031,7.34375 160.24219,10.171875 157.41406,7.34375 Z m 0,4 L 156,12.757812 160.24219,17 l 4.24219,-4.242188 -1.41407,-1.414062 -2.82812,2.828125 -2.82813,-2.828125 z"
             style="color:#bebebe;display:inline;overflow:visible;visibility:visible;opacity:0.1;fill:#000000;fill-opacity:1;stroke:none;stroke-width:1;marker:none" />
        </g>
      </g>
    </g>
    <g
       style="enable-background:new"
       id="g4193"
       transform="matrix(0.70710678,0.70710678,-0.70710678,0.70710678,-14.757359,1024.8062)">
      <g
         transform="translate(-285.00081,-0.99666)"
         style="display:inline"
         inkscape:label="actions"
         id="g4195" />
    </g>
    <g
       transform="matrix(0.70710678,0.70710678,-0.70710678,0.70710678,24.242641,1024.8062)"
       id="g4199"
       style="enable-background:new">
      <g
         id="g4201"
         inkscape:label="actions"
         style="display:inline"
         transform="translate(-285.00081,-0.99666)" />
    </g>
    <g
       transform="matrix(0.70710678,0.70710678,-0.70710678,0.70710678,66.242641,1024.8062)"
       id="g4205"
       style="enable-background:new">
      <g
         id="g4207"
         inkscape:label="actions"
         style="display:inline"
         transform="translate(-285.00081,-0.99666)" />
    </g>
    <g
       style="enable-background:new"
       id="g4211"
       transform="matrix(0.70710678,0.70710678,-0.70710678,0.70710678,110.24264,1024.8062)">
      <g
         transform="translate(-285.00081,-0.99666)"
         style="display:inline"
         inkscape:label="actions"
         id="g4214" />
    </g>
    <g
       style="enable-background:new"
       id="g4218"
       transform="matrix(0.70710678,0.70710678,-0.70710678,0.70710678,160.24264,1024.8062)">
      <g
         transform="translate(-285.00081,-0.99666)"
         style="display:inline"
         inkscape:label="actions"
         id="g4221" />
    </g>
  </g>
</svg>
