<?xml version="1.0" encoding="UTF-8" standalone="no"?>
<!-- Created with Inkscape (http://www.inkscape.org/) -->

<svg
   xmlns:osb="http://www.openswatchbook.org/uri/2009/osb"
   xmlns:dc="http://purl.org/dc/elements/1.1/"
   xmlns:cc="http://creativecommons.org/ns#"
   xmlns:rdf="http://www.w3.org/1999/02/22-rdf-syntax-ns#"
   xmlns:svg="http://www.w3.org/2000/svg"
   xmlns="http://www.w3.org/2000/svg"
   xmlns:sodipodi="http://sodipodi.sourceforge.net/DTD/sodipodi-0.dtd"
   xmlns:inkscape="http://www.inkscape.org/namespaces/inkscape"
   sodipodi:docname="draw-spiral.svg"
   inkscape:export-filename="/home/sam/source-symbolic.png"
   inkscape:export-xdpi="270"
   inkscape:export-ydpi="270"
   height="16"
   id="svg7384"
   style="enable-background:new"
   version="1.1"
   inkscape:version="0.91 r"
   width="16">
  <sodipodi:namedview
     inkscape:bbox-nodes="true"
     inkscape:bbox-paths="false"
     bordercolor="#666666"
     borderlayer="false"
     borderopacity="1"
     inkscape:current-layer="layer12"
     inkscape:cx="6.5786538"
     inkscape:cy="4.0522673"
     gridtolerance="10"
     inkscape:guide-bbox="true"
     guidetolerance="10"
     id="namedview88"
     inkscape:object-nodes="true"
     inkscape:object-paths="true"
     objecttolerance="10"
     pagecolor="#f7f7f7"
     inkscape:pageopacity="0"
     inkscape:pageshadow="2"
     showborder="true"
     showgrid="false"
     showguides="true"
     inkscape:showpageshadow="false"
     inkscape:snap-bbox="true"
     inkscape:snap-bbox-edge-midpoints="false"
     inkscape:snap-bbox-midpoints="true"
     inkscape:snap-center="false"
     inkscape:snap-global="true"
     inkscape:snap-grids="true"
     inkscape:snap-intersection-paths="true"
     inkscape:snap-midpoints="true"
     inkscape:snap-nodes="true"
     inkscape:snap-object-midpoints="true"
     inkscape:snap-others="true"
     inkscape:snap-page="false"
     inkscape:snap-smooth-nodes="true"
     inkscape:snap-to-guides="true"
     inkscape:window-height="841"
     inkscape:window-maximized="1"
     inkscape:window-width="1600"
     inkscape:window-x="-4"
     inkscape:window-y="33"
     inkscape:zoom="34.62">
    <inkscape:grid
       color="#000000"
       dotted="false"
       empcolor="#0800ff"
       empopacity="0.4627451"
       empspacing="4"
       enabled="true"
       id="grid4866"
       opacity="0.16470588"
       originx="-24.000624"
       originy="-236.00334"
       snapvisiblegridlinesonly="true"
       spacingx="0.25px"
       spacingy="0.25px"
       type="xygrid"
       visible="true" />
  </sodipodi:namedview>
  <metadata
     id="metadata90">
    <rdf:RDF>
      <cc:Work
         rdf:about="">
        <dc:format>image/svg+xml</dc:format>
        <dc:type
           rdf:resource="http://purl.org/dc/dcmitype/StillImage" />
        <dc:title>Paper Symbolic Icon Theme</dc:title>
      </cc:Work>
    </rdf:RDF>
  </metadata>
  <title
     id="title8473">Paper Symbolic Icon Theme</title>
  <defs
     id="defs7386">
    <linearGradient
       id="linearGradient5606"
       osb:paint="solid">
      <stop
         id="stop5608"
         offset="0"
         style="stop-color:#000000;stop-opacity:1;" />
    </linearGradient>
  </defs>
  <g
     inkscape:groupmode="layer"
     id="layer12"
     inkscape:label="actions"
     style="display:inline"
     transform="translate(-265.00082,19.003342)">
    <path
       style="color:#000000;font-style:normal;font-variant:normal;font-weight:normal;font-stretch:normal;font-size:medium;line-height:normal;font-family:sans-serif;text-indent:0;text-align:start;text-decoration:none;text-decoration-line:none;text-decoration-style:solid;text-decoration-color:#000000;letter-spacing:normal;word-spacing:normal;text-transform:none;direction:ltr;block-progression:tb;writing-mode:lr-tb;baseline-shift:baseline;text-anchor:start;white-space:normal;clip-rule:nonzero;display:inline;overflow:visible;visibility:visible;opacity:0.5;isolation:auto;mix-blend-mode:normal;color-interpolation:sRGB;color-interpolation-filters:linearRGB;solid-color:#000000;solid-opacity:1;fill:#000000;fill-opacity:1;fill-rule:evenodd;stroke:none;stroke-width:1.99978244;stroke-linecap:butt;stroke-linejoin:miter;stroke-miterlimit:4;stroke-dasharray:none;stroke-dashoffset:0;stroke-opacity:1;color-rendering:auto;image-rendering:auto;shape-rendering:auto;text-rendering:auto;enable-background:accumulate"
       d="m 267.82986,-19.003342 c -3.46709,3.23193 -3.85536,8.865445 -0.56447,12.3980971 2.98161,3.200658 8.15732,3.552219 11.3891,0.475113 2.90101,-2.762158 3.20974,-7.5357421 0.37697,-10.4996071 -2.51447,-2.630836 -6.83542,-2.901811 -9.50036,-0.282712 -2.33305,2.292909 -2.56029,6.210389 -0.1797,8.6030811 2.04808,2.058492 5.51898,2.244343 7.61357,0.07461 1.76162,-1.8248221 1.90641,-4.8906011 -0.0352,-6.7065561 -1.58363,-1.481176 -4.21794,-1.581148 -5.73264,0.16099 -1.18288,1.360504 -1.23731,3.601508 0.30471,4.8218088 0.5642,0.4464938 1.25734,0.654995 1.96296,0.6046893 0.70562,-0.050305 1.46234,-0.4136685 1.90632,-1.1131781 0.29688,-0.467743 0.40082,-0.985344 0.31056,-1.53921 -0.0902,-0.553865 -0.51165,-1.210401 -1.1934,-1.429266 -0.58215,-0.186888 -0.90908,-0.158272 -1.27504,0.04545 -0.27208,0.151467 -0.50529,0.417996 -0.56097,0.83999 -0.0442,0.335391 0.0396,0.676253 0.0879,1.01109 -0.54983,-0.435123 -0.52414,-1.357963 -0.0371,-1.918123 0.71104,-0.817805 2.05785,-0.765211 2.86339,-0.01178 1.06497,0.996073 0.98052,2.780146 -0.0371,3.8342813 -1.27145,1.3170648 -3.47465,1.1995578 -4.76385,-0.096201 -1.55228,-1.5601763 -1.39875,-4.2086103 0.16406,-5.7445493 1.833,-1.801458 4.89457,-1.61001 6.66042,0.237557 2.03079,2.124779 1.80388,5.6337274 -0.31056,7.6469651 -2.39479,2.280165 -6.31558,2.015219 -8.55501,-0.388729 -2.50546,-2.6895241 -2.20258,-7.0630131 0.46681,-9.5513441 z"
       id="path4242"
       inkscape:connector-curvature="0"
       sodipodi:nodetypes="cssssssssssscssscsssssssscc" />
  </g>
</svg>
