<?xml version="1.0" encoding="UTF-8" standalone="no"?>
<!-- Created with Inkscape (http://www.inkscape.org/) -->

<svg
   xmlns:dc="http://purl.org/dc/elements/1.1/"
   xmlns:cc="http://creativecommons.org/ns#"
   xmlns:rdf="http://www.w3.org/1999/02/22-rdf-syntax-ns#"
   xmlns:svg="http://www.w3.org/2000/svg"
   xmlns="http://www.w3.org/2000/svg"
   xmlns:sodipodi="http://sodipodi.sourceforge.net/DTD/sodipodi-0.dtd"
   xmlns:inkscape="http://www.inkscape.org/namespaces/inkscape"
   width="16"
   height="16"
   id="svg4355"
   version="1.1"
   inkscape:version="0.91 r13725"
   sodipodi:docname="labplot-xy-fit-curve.svg">
  <defs
     id="defs4357">
    <style
       type="text/css"
       id="current-color-scheme">
      .ColorScheme-Text {
        color:#4d4d4d;
      }
      .ColorScheme-Background {
        color:#eff0f1;
      }
      .ColorScheme-Highlight {
        color:#3daee9;
      }
      .ColorScheme-ViewText {
        color:#31363b;
      }
      .ColorScheme-ViewBackground {
        color:#fcfcfc;
      }
      .ColorScheme-ViewHover {
        color:#93cee9;
      }
      .ColorScheme-ViewFocus{
        color:#3daee9;
      }
      .ColorScheme-ButtonText {
        color:#31363b;
      }
      .ColorScheme-ButtonBackground {
        color:#eff0f1;
      }
      .ColorScheme-ButtonHover {
        color:#93cee9;
      }
      .ColorScheme-ButtonFocus{
        color:#3daee9;
      }
      </style>
  </defs>
  <sodipodi:namedview
     id="base"
     pagecolor="#ffffff"
     bordercolor="#666666"
     borderopacity="1.0"
     inkscape:pageopacity="0.0"
     inkscape:pageshadow="2"
     inkscape:zoom="24.969047"
     inkscape:cx="1.7840692"
     inkscape:cy="12.20338"
     inkscape:document-units="px"
     inkscape:current-layer="g3845"
     showgrid="false"
     width="0px"
     height="0px"
     fit-margin-top="0"
     fit-margin-left="0"
     fit-margin-right="0"
     fit-margin-bottom="0"
     inkscape:window-width="1600"
     inkscape:window-height="847"
     inkscape:window-x="0"
     inkscape:window-y="30"
     inkscape:window-maximized="1"
     inkscape:showpageshadow="false"
     inkscape:snap-bbox="true"
     inkscape:snap-global="true"
     showguides="false">
    <inkscape:grid
       type="xygrid"
       id="grid4114" />
    <sodipodi:guide
       position="2.0000011,19.999996"
       orientation="18,0"
       id="guide4120" />
    <sodipodi:guide
       position="2.0000011,1.9999962"
       orientation="0,18"
       id="guide4122" />
    <sodipodi:guide
       position="20.000001,1.9999962"
       orientation="-18,0"
       id="guide4124" />
    <sodipodi:guide
       position="20.000001,19.999996"
       orientation="0,-18"
       id="guide4126" />
    <sodipodi:guide
       position="3.0000011,18.999996"
       orientation="16,0"
       id="guide4128" />
    <sodipodi:guide
       position="3.0000011,2.9999962"
       orientation="0,16"
       id="guide4130" />
    <sodipodi:guide
       position="19.000001,2.9999962"
       orientation="-16,0"
       id="guide4132" />
    <sodipodi:guide
       position="19.000001,18.999996"
       orientation="0,-16"
       id="guide4134" />
  </sodipodi:namedview>
  <metadata
     id="metadata4360">
    <rdf:RDF>
      <cc:Work
         rdf:about="">
        <dc:format>image/svg+xml</dc:format>
        <dc:type
           rdf:resource="http://purl.org/dc/dcmitype/StillImage" />
        <dc:title></dc:title>
      </cc:Work>
    </rdf:RDF>
  </metadata>
  <g
     inkscape:label="Capa 1"
     inkscape:groupmode="layer"
     id="layer1"
     transform="translate(-544.57141,-748.93359)">
    <g
       id="g3845"
       transform="translate(0,-0.53516)">
      <path
         style="color:#4d4d4d;font-style:normal;font-variant:normal;font-weight:normal;font-stretch:normal;font-size:medium;line-height:normal;font-family:Sans;-inkscape-font-specification:Sans;text-indent:0;text-align:start;text-decoration:none;text-decoration-line:none;letter-spacing:normal;word-spacing:normal;text-transform:none;direction:ltr;block-progression:tb;writing-mode:lr-tb;baseline-shift:baseline;text-anchor:start;display:inline;overflow:visible;visibility:visible;opacity:0.5;fill:#000000;fill-opacity:1;fill-rule:nonzero;stroke:none;stroke-width:0.41041371;marker:none;enable-background:accumulate"
         d="m 558.09485,751.46875 c -0.8178,0 -1.52536,0.72322 -1.52344,1.52344 -0.002,0.80023 0.70564,1.47656 1.52344,1.47656 0.81779,0 1.47848,-0.67633 1.47656,-1.47656 0.002,-0.80022 -0.65877,-1.52344 -1.47656,-1.52344 z m -7,1 c -0.8178,0 -1.52536,0.72322 -1.52344,1.52344 -0.002,0.80023 0.70564,1.47656 1.52344,1.47656 0.81779,0 1.47848,-0.67633 1.47656,-1.47656 0.002,-0.80022 -0.65877,-1.52344 -1.47656,-1.52344 z m -5,4 c -0.8178,0 -1.52536,0.72322 -1.52344,1.52344 -0.002,0.80023 0.70564,1.47656 1.52344,1.47656 0.64748,0 1.19109,-0.42615 1.39062,-1 l 13.08594,0 0,-1 -13.09961,0 c -0.21058,-0.56611 -0.74449,-1 -1.37695,-1 z m 13,3 c -0.8178,0 -1.52536,0.72322 -1.52344,1.52344 -0.002,0.80023 0.70564,1.47656 1.52344,1.47656 0.81779,0 1.47848,-0.67633 1.47656,-1.47656 0.002,-0.80022 -0.65877,-1.52344 -1.47656,-1.52344 z m -5.5,1 c -0.8178,0 -1.52536,0.72322 -1.52344,1.52344 -0.002,0.80023 0.70564,1.47656 1.52344,1.47656 0.81779,0 1.47848,-0.67633 1.47656,-1.47656 0.002,-0.80022 -0.65877,-1.52344 -1.47656,-1.52344 z"
         id="path5273-9-0"
         class="ColorScheme-Text"
         inkscape:connector-curvature="0" />
    </g>
  </g>
</svg>
