<?xml version="1.0" encoding="UTF-8" standalone="no"?>
<!-- Created with Inkscape (http://www.inkscape.org/) -->

<svg
   xmlns:dc="http://purl.org/dc/elements/1.1/"
   xmlns:cc="http://creativecommons.org/ns#"
   xmlns:rdf="http://www.w3.org/1999/02/22-rdf-syntax-ns#"
   xmlns:svg="http://www.w3.org/2000/svg"
   xmlns="http://www.w3.org/2000/svg"
   xmlns:sodipodi="http://sodipodi.sourceforge.net/DTD/sodipodi-0.dtd"
   xmlns:inkscape="http://www.inkscape.org/namespaces/inkscape"
   width="16"
   height="16"
   id="svg3049"
   version="1.1"
   inkscape:version="0.91 r13725"
   sodipodi:docname="office-chart-area.svg"
   inkscape:export-filename="/home/uri/.kde/share/icons/NITRUX-KDE/16x16/actions/view-right-new.png"
   inkscape:export-xdpi="30"
   inkscape:export-ydpi="30">
  <defs
     id="defs3051">
    <style
       type="text/css"
       id="current-color-scheme">
      .ColorScheme-Text {
        color:#4d4d4d;
      }
      .ColorScheme-Background {
        color:#eff0f1;
      }
      .ColorScheme-Highlight {
        color:#3daee9;
      }
      .ColorScheme-ViewText {
        color:#31363b;
      }
      .ColorScheme-ViewBackground {
        color:#fcfcfc;
      }
      .ColorScheme-ViewHover {
        color:#93cee9;
      }
      .ColorScheme-ViewFocus{
        color:#3daee9;
      }
      .ColorScheme-ButtonText {
        color:#31363b;
      }
      .ColorScheme-ButtonBackground {
        color:#eff0f1;
      }
      .ColorScheme-ButtonHover {
        color:#93cee9;
      }
      .ColorScheme-ButtonFocus{
        color:#3daee9;
      }
      </style>
  </defs>
  <sodipodi:namedview
     id="base"
     pagecolor="#ffffff"
     bordercolor="#666666"
     borderopacity="1.0"
     inkscape:pageopacity="0.0"
     inkscape:pageshadow="2"
     inkscape:zoom="32"
     inkscape:cx="1.234048"
     inkscape:cy="6.9763635"
     inkscape:document-units="px"
     inkscape:current-layer="layer1"
     showgrid="false"
     fit-margin-top="0"
     fit-margin-left="0"
     fit-margin-right="0"
     fit-margin-bottom="0"
     inkscape:window-width="1535"
     inkscape:window-height="839"
     inkscape:window-x="55"
     inkscape:window-y="30"
     inkscape:window-maximized="0"
     inkscape:showpageshadow="false"
     borderlayer="true"
     inkscape:snap-bbox="true"
     inkscape:snap-global="true"
     inkscape:object-nodes="true"
     showguides="false"
     inkscape:guide-bbox="true">
    <inkscape:grid
       type="xygrid"
       id="grid4085" />
    <sodipodi:guide
       position="2.0000044,14.00003"
       orientation="12,0"
       id="guide4075" />
    <sodipodi:guide
       position="14.000004,2.0000296"
       orientation="-12,0"
       id="guide4079" />
    <sodipodi:guide
       position="14.000004,14.00003"
       orientation="0,-12"
       id="guide4081" />
    <sodipodi:guide
       position="8,2"
       orientation="0,1"
       id="guide4178" />
  </sodipodi:namedview>
  <metadata
     id="metadata3054">
    <rdf:RDF>
      <cc:Work
         rdf:about="">
        <dc:format>image/svg+xml</dc:format>
        <dc:type
           rdf:resource="http://purl.org/dc/dcmitype/StillImage" />
        <dc:title />
      </cc:Work>
    </rdf:RDF>
  </metadata>
  <g
     inkscape:label="Capa 1"
     inkscape:groupmode="layer"
     id="layer1"
     transform="translate(-421.71429,-531.79074)">
    <g
       id="g4147">
      <path
         id="path4150"
         transform="translate(421.71429,531.79074)"
         d="M 13.960938 2.7050781 L 13.132812 3.5332031 L 11.132812 5.5332031 L 11.128906 5.5292969 L 11.123047 5.5332031 L 9 3.4101562 L 7.7050781 4.7050781 L 6.8769531 5.5332031 L 5.4101562 7 L 3 7 L 3 8 L 4.4609375 8 L 5.6875 8 L 5.875 8 L 6.875 9 L 7.703125 9.828125 L 8.9980469 11.123047 L 11.121094 9 L 11.126953 9.0039062 L 11.130859 9 L 13.130859 11 L 13.958984 11.828125 L 14 11.867188 L 14 2.7421875 L 13.960938 2.7050781 z M 3 9 L 3 11 L 7.4609375 11 L 6.9960938 10.535156 L 6.1679688 9.7070312 L 5.4609375 9 L 3 9 z M 11.126953 10.410156 L 9 12.535156 L 8.9980469 12.533203 L 8.9960938 12.535156 L 7.46875 11.007812 L 3 11.007812 L 3 13 L 13.734375 13 L 13.251953 12.535156 L 12.423828 11.707031 L 11.126953 10.410156 z "
         style="fill:#000000;fill-opacity:1;fill-rule:evenodd;stroke:none;stroke-width:1px;stroke-linecap:butt;stroke-linejoin:miter;stroke-opacity:1;opacity:0.3" />
      <path
         id="rect4223"
         transform="translate(421.71429,531.79074)"
         d="M 8.9980469 1.9980469 L 7.4707031 3.5253906 L 3 3.5253906 L 3 2 L 2 2 L 2 3.5253906 L 1.0019531 3.5253906 L 1.0019531 3.5332031 L 2 3.5332031 L 2 8 L 2 9 L 2 11 L 1 11 L 1 11.007812 L 2 11.007812 L 2 13 L 2 14 L 3 14 L 14 14 L 14 13.001953 L 14 13 L 14 11.867188 L 13.958984 11.828125 L 13.130859 11 L 11.130859 9 L 11.126953 9.0039062 L 11.121094 9 L 8.9980469 11.123047 L 7.703125 9.828125 L 6.875 9 L 5.875 8 L 5.6875 8 L 4.4609375 8 L 3 8 L 3 7 L 5.4101562 7 L 6.8769531 5.5332031 L 7.7050781 4.7050781 L 9 3.4101562 L 11.123047 5.5332031 L 11.128906 5.5292969 L 11.132812 5.5332031 L 13.132812 3.5332031 L 13.960938 2.7050781 C 13.963935 2.7100781 13.253906 1.9980469 13.253906 1.9980469 L 12.425781 2.8261719 L 11.128906 4.1230469 L 9.0019531 1.9980469 L 9 2 L 8.9980469 1.9980469 z M 3 3.5332031 L 7.4628906 3.5332031 L 6.9980469 3.9980469 L 6.1699219 4.8261719 L 4.9960938 6 L 3 6 L 3 3.5332031 z M 3 9 L 5.4609375 9 L 6.1679688 9.7070312 L 6.9960938 10.535156 L 7.4609375 11 L 3 11 L 3 9 z M 11.126953 10.410156 L 12.423828 11.707031 L 13.251953 12.535156 L 13.734375 13 L 3 13 L 3 11.007812 L 7.46875 11.007812 L 8.9960938 12.535156 L 8.9980469 12.533203 L 9 12.535156 L 11.126953 10.410156 z "
         style="fill:currentColor;fill-opacity:1;stroke:none;opacity:0.5" />
    </g>
  </g>
</svg>
