<?xml version="1.0" encoding="UTF-8" standalone="no"?>
<!-- Created with Inkscape (http://www.inkscape.org/) -->

<svg
   xmlns:dc="http://purl.org/dc/elements/1.1/"
   xmlns:cc="http://creativecommons.org/ns#"
   xmlns:rdf="http://www.w3.org/1999/02/22-rdf-syntax-ns#"
   xmlns:svg="http://www.w3.org/2000/svg"
   xmlns="http://www.w3.org/2000/svg"
   xmlns:sodipodi="http://sodipodi.sourceforge.net/DTD/sodipodi-0.dtd"
   xmlns:inkscape="http://www.inkscape.org/namespaces/inkscape"
   id="svg4358"
   height="64"
   width="64"
   version="1.1"
   viewBox="0 0 64.000001 64.000001"
   inkscape:version="0.91 r"
   sodipodi:docname="application-x-javascript.svg">
  <sodipodi:namedview
     pagecolor="#ffffff"
     bordercolor="#666666"
     borderopacity="1"
     objecttolerance="10"
     gridtolerance="10"
     guidetolerance="10"
     inkscape:pageopacity="0"
     inkscape:pageshadow="2"
     inkscape:window-width="1535"
     inkscape:window-height="876"
     id="namedview16"
     showgrid="false"
     inkscape:zoom="1"
     inkscape:cx="24"
     inkscape:cy="24"
     inkscape:window-x="65"
     inkscape:window-y="24"
     inkscape:window-maximized="1"
     inkscape:current-layer="svg4358" />
  <defs
     id="defs4360" />
  <metadata
     id="metadata4363">
    <rdf:RDF>
      <cc:Work
         rdf:about="">
        <dc:format>image/svg+xml</dc:format>
        <dc:type
           rdf:resource="http://purl.org/dc/dcmitype/StillImage" />
        <dc:title></dc:title>
      </cc:Work>
    </rdf:RDF>
  </metadata>
  <path
     id="path4750"
     d="M 14.5,7 C 13.115,7 12,8.115 12,9.5 l 0,45 c 0,1.385 1.115,2.5 2.5,2.5 l 35,0 C 50.885,57 52,55.885 52,54.5 L 52,22 38.25,20.75 37,7 Z"
     inkscape:connector-curvature="0"
     style="fill:#e67d4a" />
  <path
     id="path4756"
     d="m 37,7 0,12.5 c 0,1.38075 1.119287,2.5 2.5,2.5 L 52,22 37,7 Z"
     inkscape:connector-curvature="0"
     style="fill:#e0c0b1" />
  <path
     style="color:#000000;text-indent:0;text-decoration:none;text-decoration-line:none;text-decoration-style:solid;text-decoration-color:#000000;text-transform:none;block-progression:tb;white-space:normal;isolation:auto;mix-blend-mode:normal;solid-color:#000000;fill:#ffffff;fill-rule:evenodd;color-rendering:auto;image-rendering:auto;shape-rendering:auto"
     d="M 25.759766 29 A 1.2403398 1.2421499 0 0 0 25.642578 29.001953 A 1.2403398 1.2421499 0 0 0 25.314453 29.070312 C 25.314453 29.070312 24.538189 29.326886 23.638672 29.800781 C 22.739206 30.274688 21.646562 30.938492 20.943359 32.078125 C 20.160573 33.346482 20.45773 34.703588 20.701172 35.515625 C 20.944614 36.327662 21.078368 36.682853 20.853516 37.226562 C 20.743708 37.492058 20.070176 38.072239 19.333984 38.433594 C 18.597296 38.795024 17.929688 38.984375 17.929688 38.984375 A 1.2403398 1.2421499 0 0 0 17.042969 40.511719 A 1.2403398 1.2421499 0 0 0 17.929688 42.001953 C 17.929688 42.001953 18.597805 42.191378 19.333984 42.552734 C 20.070189 42.914088 20.743757 43.496223 20.853516 43.761719 C 21.078367 44.305365 20.94461 44.660557 20.701172 45.472656 C 20.45773 46.284693 20.160585 47.641676 20.943359 48.910156 C 21.646661 50.049777 22.739268 50.713542 23.638672 51.1875 C 24.538139 51.661407 25.314453 51.917969 25.314453 51.917969 A 1.2403398 1.2421499 0 1 0 26.095703 49.5625 C 26.095703 49.5625 25.505467 49.362665 24.794922 48.988281 C 24.084341 48.613899 23.323317 48.036941 23.054688 47.601562 C 22.750771 47.109099 22.850173 46.939344 23.076172 46.185547 C 23.302164 45.431724 23.710684 44.179385 23.144531 42.810547 C 22.643136 41.598307 21.64215 40.956795 20.746094 40.494141 C 21.642114 40.031448 22.643111 39.389926 23.144531 38.177734 C 23.710689 36.808898 23.302169 35.556518 23.076172 34.802734 C 22.85018 34.048911 22.750778 33.879157 23.054688 33.386719 C 23.323367 32.951352 24.084403 32.372444 24.794922 31.998047 C 25.505503 31.623664 26.095703 31.425781 26.095703 31.425781 A 1.2403398 1.2421499 0 0 0 25.761719 29 L 25.759766 29 z M 37.234375 29 A 1.2403398 1.2421499 0 0 0 36.904297 31.425781 C 36.904297 31.425781 37.494497 31.623664 38.205078 31.998047 C 38.915597 32.372444 39.676632 32.951352 39.945312 33.386719 C 40.249222 33.879157 40.14982 34.048911 39.923828 34.802734 C 39.697831 35.556518 39.289311 36.808898 39.855469 38.177734 C 40.356889 39.389926 41.357886 40.031448 42.253906 40.494141 C 41.35785 40.956795 40.356864 41.598307 39.855469 42.810547 C 39.289316 44.179385 39.697836 45.431724 39.923828 46.185547 C 40.149827 46.939344 40.249229 47.109099 39.945312 47.601562 C 39.676683 48.036941 38.915659 48.613899 38.205078 48.988281 C 37.494533 49.362665 36.904297 49.5625 36.904297 49.5625 A 1.2403398 1.2421499 0 1 0 37.685547 51.917969 C 37.685547 51.917969 38.461861 51.661407 39.361328 51.1875 C 40.260732 50.713542 41.353339 50.049777 42.056641 48.910156 C 42.839415 47.641676 42.54227 46.284693 42.298828 45.472656 C 42.05539 44.660557 41.921633 44.305365 42.146484 43.761719 C 42.256243 43.496223 42.929811 42.914088 43.666016 42.552734 C 44.402195 42.191378 45.070312 42.001953 45.070312 42.001953 A 1.2403398 1.2421499 0 0 0 45.957031 40.511719 A 1.2403398 1.2421499 0 0 0 45.070312 38.984375 C 45.070313 38.984375 44.402704 38.795024 43.666016 38.433594 C 42.929824 38.072239 42.256292 37.492058 42.146484 37.226562 C 41.921632 36.682853 42.055386 36.327662 42.298828 35.515625 C 42.54227 34.703588 42.839427 33.346482 42.056641 32.078125 C 41.353438 30.938492 40.260794 30.274688 39.361328 29.800781 C 38.461811 29.326886 37.683594 29.070312 37.683594 29.070312 A 1.2403398 1.2421499 0 0 0 37.357422 29.001953 A 1.2403398 1.2421499 0 0 0 37.238281 29 A 1.2403398 1.2421499 0 0 0 37.234375 29 z M 31.5 34 A 2.5 2.5 0 0 0 29 36.5 A 2.5 2.5 0 0 0 31.5 39 A 2.5 2.5 0 0 0 34 36.5 A 2.5 2.5 0 0 0 31.5 34 z M 31.5 41.5 C 30.11925 41.5 29 42.619287 29 44 C 29 45.380713 30.119287 46.5 31.5 46.5 C 32.383712 46.5 32.75 49 32.75 49 C 32.75 49 34 44.497 34 44 C 34 42.61925 32.880712 41.5 31.5 41.5 z "
     id="path4176" />
  <path
     style="fill:#ffffff;fill-opacity:1;opacity:0.2"
     d="M 14.5,7 C 13.115,7 12,8.115 12,9.5 l 0,2 C 12,10.115 13.115,9 14.5,9 L 37,9 37,7 Z"
     id="path4165"
     inkscape:connector-curvature="0"
     sodipodi:nodetypes="sscsccs" />
</svg>
