<?xml version="1.0" encoding="UTF-8" standalone="no"?>
<!-- Created with Inkscape (http://www.inkscape.org/) -->

<svg
   xmlns:dc="http://purl.org/dc/elements/1.1/"
   xmlns:cc="http://creativecommons.org/ns#"
   xmlns:rdf="http://www.w3.org/1999/02/22-rdf-syntax-ns#"
   xmlns:svg="http://www.w3.org/2000/svg"
   xmlns="http://www.w3.org/2000/svg"
   xmlns:sodipodi="http://sodipodi.sourceforge.net/DTD/sodipodi-0.dtd"
   xmlns:inkscape="http://www.inkscape.org/namespaces/inkscape"
   id="svg4346"
   height="64"
   width="64"
   version="1.1"
   viewBox="0 0 64 64.000001"
   inkscape:version="0.91 r"
   sodipodi:docname="audio-x-generic.svg">
  <defs
     id="defs12" />
  <sodipodi:namedview
     pagecolor="#ffffff"
     bordercolor="#666666"
     borderopacity="1"
     objecttolerance="10"
     gridtolerance="10"
     guidetolerance="10"
     inkscape:pageopacity="0"
     inkscape:pageshadow="2"
     inkscape:window-width="1535"
     inkscape:window-height="876"
     id="namedview10"
     showgrid="false"
     inkscape:zoom="4.3299648"
     inkscape:cx="33.483939"
     inkscape:cy="16.424242"
     inkscape:window-x="65"
     inkscape:window-y="24"
     inkscape:window-maximized="1"
     inkscape:current-layer="svg4346" />
  <metadata
     id="metadata4351">
    <rdf:RDF>
      <cc:Work
         rdf:about="">
        <dc:format>image/svg+xml</dc:format>
        <dc:type
           rdf:resource="http://purl.org/dc/dcmitype/StillImage" />
        <dc:title></dc:title>
      </cc:Work>
    </rdf:RDF>
  </metadata>
  <path
     id="path21637"
     d="m 14.5,6.999975 c -1.385,0 -2.5,1.115 -2.5,2.5 l 0,45 c 0,1.385 1.115,2.5 2.5,2.5 l 35,0 c 1.385,0 2.5,-1.115 2.5,-2.5 l 0,-32.5 -13.75,-1.25 -1.25,-13.75 z"
     inkscape:connector-curvature="0"
     style="fill:#8564c2;fill-opacity:1" />
  <path
     id="path21645"
     d="m 37,6.999975 0,12.5 c 0,1.38075 1.119287,2.5 2.5,2.5 l 12.5,0 -15,-15 z"
     inkscape:connector-curvature="0"
     style="fill:#c2b1e0;fill-opacity:1" />
  <path
     inkscape:connector-curvature="0"
     style="opacity:1;fill:#ffffff;fill-opacity:1;stroke-width:3;stroke-miterlimit:4;stroke-dasharray:none"
     d="m 26,26 0,1 0,5 0,8.419922 A 5,5 0 0 0 24,40 a 5,5 0 0 0 -5,5 5,5 0 0 0 5,5 5,5 0 0 0 4.996094,-4.908203 L 29,45.083984 29,45 l 0,-13 11,0 0,8.419922 A 5,5 0 0 0 38,40 a 5,5 0 0 0 -5,5 5,5 0 0 0 5,5 5,5 0 0 0 4.988281,-4.75 L 43,45.226562 43,45 l 0,-13 0,-5 0,-1 -17,0 z"
     id="path4154" />
  <path
     style="opacity:0.1;fill:#ffffff;fill-opacity:1"
     d="M 14.5,7 C 13.115,7 12,8.115 12,9.5 l 0,2 C 12,10.115 13.115,9 14.5,9 L 37,9 c 0,-2 0,0 0,-2 z"
     id="path4149"
     inkscape:connector-curvature="0"
     sodipodi:nodetypes="sscsccs" />
</svg>
