<?xml version="1.0" encoding="UTF-8" standalone="no"?>
<svg
   xmlns:dc="http://purl.org/dc/elements/1.1/"
   xmlns:cc="http://creativecommons.org/ns#"
   xmlns:rdf="http://www.w3.org/1999/02/22-rdf-syntax-ns#"
   xmlns:svg="http://www.w3.org/2000/svg"
   xmlns="http://www.w3.org/2000/svg"
   xmlns:sodipodi="http://sodipodi.sourceforge.net/DTD/sodipodi-0.dtd"
   xmlns:inkscape="http://www.inkscape.org/namespaces/inkscape"
   width="16"
   height="16"
   version="1.1"
   id="svg2"
   inkscape:version="0.91 r"
   sodipodi:docname="configure-toolbars.svg">
  <defs
     id="defs10" />
  <sodipodi:namedview
     pagecolor="#ffffff"
     bordercolor="#666666"
     borderopacity="1"
     objecttolerance="10"
     gridtolerance="10"
     guidetolerance="10"
     inkscape:pageopacity="0"
     inkscape:pageshadow="2"
     inkscape:window-width="1600"
     inkscape:window-height="842"
     id="namedview8"
     showgrid="false"
     inkscape:zoom="14.75"
     inkscape:cx="-5.3898305"
     inkscape:cy="8"
     inkscape:window-x="-4"
     inkscape:window-y="32"
     inkscape:window-maximized="1"
     inkscape:current-layer="g4953" />
  <metadata
     id="metadata90">
    <rdf:RDF>
      <cc:Work
         rdf:about="">
        <dc:format>image/svg+xml</dc:format>
        <dc:type
           rdf:resource="http://purl.org/dc/dcmitype/StillImage" />
        <dc:title />
      </cc:Work>
    </rdf:RDF>
  </metadata>
  <g
     inkscape:label="categories"
     inkscape:groupmode="layer"
     id="g4953"
     transform="translate(-522.0002,-462)">
    <path
       style="fill:#000000;fill-opacity:1;opacity:0.5"
       d="M 11.017578 0 C 10.672168 0.13322 10.328766 0.30432938 10.041016 0.53710938 C 8.6637356 1.6512294 8.6467131 3.4855956 10.001953 4.6347656 C 10.285103 4.8748556 10.62603 5.0532425 10.96875 5.1953125 C 10.99655 5.2066125 10.996094 7.25 10.996094 7.25 C 12.485584 8 13.346241 9 13.994141 10 L 13.994141 5.2519531 C 14.339541 5.1187331 14.661459 4.9300356 14.949219 4.6972656 C 16.326489 3.5831456 16.343521 1.7487794 14.988281 0.59960938 C 14.705131 0.35951937 14.364214 0.1811225 14.021484 0.0390625 L 14 2.2714844 C 13.995 2.7301544 13.547961 3 12.994141 3 L 11.996094 3 C 11.442334 2.993 10.991634 2.6910919 10.996094 2.2324219 L 11.017578 0 z M 7.9960938 8 C 3.9976538 8 2 11 2 14 L 0.25 14 C 0.0001 14 0 14.15712 0 14.25 L 0 15.75 C 0 16 0.13824 16 0.25 16 L 15.744141 16 C 15.939491 16.006 15.994141 15.87052 15.994141 15.75 L 15.994141 14.25 C 16.015341 14.10395 15.994041 14 15.744141 14 L 13.994141 14 C 13.994141 11 11.994534 8 7.9960938 8 z M 7.9960938 11 C 10.346194 11 10.996094 12.76177 10.996094 14 L 4.9980469 14 C 4.9980469 12.80231 5.6997938 11 7.9960938 11 z "
       transform="translate(522.0002,462)"
       id="rect7157" />
  </g>
</svg>
