<?xml version="1.0" encoding="UTF-8" standalone="no"?>
<!-- Created with Inkscape (http://www.inkscape.org/) -->

<svg
   xmlns:osb="http://www.openswatchbook.org/uri/2009/osb"
   xmlns:dc="http://purl.org/dc/elements/1.1/"
   xmlns:cc="http://creativecommons.org/ns#"
   xmlns:rdf="http://www.w3.org/1999/02/22-rdf-syntax-ns#"
   xmlns:svg="http://www.w3.org/2000/svg"
   xmlns="http://www.w3.org/2000/svg"
   xmlns:sodipodi="http://sodipodi.sourceforge.net/DTD/sodipodi-0.dtd"
   xmlns:inkscape="http://www.inkscape.org/namespaces/inkscape"
   sodipodi:docname="hint.svg"
   inkscape:export-filename="/home/sam/source-symbolic.png"
   inkscape:export-xdpi="270"
   inkscape:export-ydpi="270"
   height="16"
   id="svg7384"
   style="enable-background:new"
   version="1.1"
   inkscape:version="0.91 r13725"
   width="16.000166">
  <sodipodi:namedview
     inkscape:bbox-nodes="true"
     inkscape:bbox-paths="false"
     bordercolor="#666666"
     borderlayer="false"
     borderopacity="1"
     inkscape:current-layer="layer12"
     inkscape:cx="-11.08198"
     inkscape:cy="3.7848981"
     gridtolerance="10"
     inkscape:guide-bbox="true"
     guidetolerance="10"
     id="namedview88"
     inkscape:object-nodes="true"
     inkscape:object-paths="true"
     objecttolerance="10"
     pagecolor="#f7f7f7"
     inkscape:pageopacity="0"
     inkscape:pageshadow="2"
     showborder="true"
     showgrid="false"
     showguides="true"
     inkscape:showpageshadow="false"
     inkscape:snap-bbox="true"
     inkscape:snap-bbox-edge-midpoints="false"
     inkscape:snap-bbox-midpoints="true"
     inkscape:snap-center="false"
     inkscape:snap-global="true"
     inkscape:snap-grids="true"
     inkscape:snap-intersection-paths="true"
     inkscape:snap-midpoints="true"
     inkscape:snap-nodes="true"
     inkscape:snap-object-midpoints="true"
     inkscape:snap-others="true"
     inkscape:snap-page="false"
     inkscape:snap-smooth-nodes="true"
     inkscape:snap-to-guides="true"
     inkscape:window-height="847"
     inkscape:window-maximized="1"
     inkscape:window-width="1600"
     inkscape:window-x="0"
     inkscape:window-y="30"
     inkscape:zoom="18.55">
    <inkscape:grid
       color="#000000"
       dotted="false"
       empcolor="#0800ff"
       empopacity="0.4627451"
       empspacing="4"
       enabled="true"
       id="grid4866"
       opacity="0.16470588"
       originx="-264"
       originy="-296.00336"
       snapvisiblegridlinesonly="true"
       spacingx="0.25px"
       spacingy="0.25px"
       type="xygrid"
       visible="true" />
  </sodipodi:namedview>
  <metadata
     id="metadata90">
    <rdf:RDF>
      <cc:Work
         rdf:about="">
        <dc:format>image/svg+xml</dc:format>
        <dc:type
           rdf:resource="http://purl.org/dc/dcmitype/StillImage" />
        <dc:title>Paper Symbolic Icon Theme</dc:title>
      </cc:Work>
    </rdf:RDF>
  </metadata>
  <title
     id="title8473">Paper Symbolic Icon Theme</title>
  <defs
     id="defs7386">
    <linearGradient
       id="linearGradient5606"
       osb:paint="solid">
      <stop
         id="stop5608"
         offset="0"
         style="stop-color:#000000;stop-opacity:1;" />
    </linearGradient>
  </defs>
  <g
     inkscape:groupmode="layer"
     id="layer12"
     inkscape:label="actions"
     style="display:inline"
     transform="translate(-505.0002,79.003357)">
    <path
       style="opacity:0.5;fill:#000000;fill-opacity:1;fill-rule:evenodd;stroke:none"
       d="M 12.949219 1.6367188 L 11.074219 3.5117188 C 10.461796 3.293163 9.8274943 3.1345833 9.1757812 3.0703125 C 8.7859013 3.0248425 8.39249 3.0038963 8 3.0039062 C 6.44916 3.0190063 4.8879394 3.3732619 3.5371094 4.1386719 C 2.9987094 4.4892919 2.3523644 4.9421575 1.8652344 5.3984375 C 1.0987444 6.1488575 0.44269 7.0244263 0 8.0039062 C 0.65287282 9.4438225 1.7336462 10.665037 3.0429688 11.542969 L 1.6367188 12.949219 L 3.0507812 14.363281 L 4.9199219 12.494141 C 5.5339889 12.713767 6.1706086 12.872978 6.8242188 12.9375 C 8.7516287 13.15561 10.768631 12.822591 12.462891 11.869141 C 13.001291 11.518521 13.647636 11.065655 14.134766 10.609375 C 14.901256 9.858955 15.55731 8.9833862 16 8.0039062 C 15.346383 6.5625232 14.264342 5.339102 12.953125 4.4609375 L 14.363281 3.0507812 L 12.949219 1.6367188 z M 8 5.0039062 C 8.4529431 4.9938722 8.8859292 5.1100628 9.28125 5.3046875 L 5.3125 9.2734375 C 4.9907676 8.6067468 4.8873433 7.837554 5.1367188 7.1171875 C 5.5058788 5.8878375 6.71253 4.9886063 8 5.0039062 z M 10.695312 6.71875 C 10.891058 7.1157672 11.008581 7.5512945 11 8.0039062 C 11.0515 9.7703262 9.2910312 11.294784 7.5507812 10.964844 C 7.251542 10.929714 6.9754412 10.828429 6.7128906 10.701172 L 8.6445312 8.7675781 A 1 1 0 0 0 8.6796875 8.734375 L 8.7167969 8.6992188 A 1 1 0 0 0 8.734375 8.6796875 L 10.695312 6.71875 z "
       transform="translate(505.0002,-79.003357)"
       id="path6807" />
  </g>
</svg>
