<?xml version="1.0" encoding="UTF-8" standalone="no"?>
<!-- Created with Inkscape (http://www.inkscape.org/) -->

<svg
   xmlns:dc="http://purl.org/dc/elements/1.1/"
   xmlns:cc="http://creativecommons.org/ns#"
   xmlns:rdf="http://www.w3.org/1999/02/22-rdf-syntax-ns#"
   xmlns:svg="http://www.w3.org/2000/svg"
   xmlns="http://www.w3.org/2000/svg"
   xmlns:sodipodi="http://sodipodi.sourceforge.net/DTD/sodipodi-0.dtd"
   xmlns:inkscape="http://www.inkscape.org/namespaces/inkscape"
   width="22"
   height="22"
   id="svg2"
   version="1.1"
   inkscape:version="0.91 r"
   sodipodi:docname="im-google-talk.svg">
  <defs
     id="defs4" />
  <sodipodi:namedview
     id="base"
     pagecolor="#ffffff"
     bordercolor="#666666"
     borderopacity="1.0"
     inkscape:pageopacity="0.0"
     inkscape:pageshadow="2"
     inkscape:zoom="20.08"
     inkscape:cx="14.537022"
     inkscape:cy="11.326441"
     inkscape:document-units="px"
     inkscape:current-layer="layer1"
     showgrid="false"
     inkscape:window-width="1600"
     inkscape:window-height="843"
     inkscape:window-x="-4"
     inkscape:window-y="31"
     inkscape:window-maximized="1"
     inkscape:showpageshadow="false"
     showguides="false">
    <inkscape:grid
       type="xygrid"
       id="grid4109" />
    <sodipodi:guide
       position="2,20.000017"
       orientation="18,0"
       id="guide4113" />
    <sodipodi:guide
       position="2,2.0000174"
       orientation="0,18"
       id="guide4115" />
    <sodipodi:guide
       position="20,2.0000174"
       orientation="-18,0"
       id="guide4117" />
    <sodipodi:guide
       position="20,20.000017"
       orientation="0,-18"
       id="guide4119" />
    <sodipodi:guide
       position="3,19.000017"
       orientation="16,0"
       id="guide4121" />
    <sodipodi:guide
       position="3,3.0000174"
       orientation="0,16"
       id="guide4123" />
    <sodipodi:guide
       position="19,3.0000174"
       orientation="-16,0"
       id="guide4125" />
    <sodipodi:guide
       position="19,19.000017"
       orientation="0,-16"
       id="guide4127" />
  </sodipodi:namedview>
  <metadata
     id="metadata7">
    <rdf:RDF>
      <cc:Work
         rdf:about="">
        <dc:format>image/svg+xml</dc:format>
        <dc:type
           rdf:resource="http://purl.org/dc/dcmitype/StillImage" />
        <dc:title></dc:title>
      </cc:Work>
    </rdf:RDF>
  </metadata>
  <g
     inkscape:label="Capa 1"
     inkscape:groupmode="layer"
     id="layer1"
     transform="translate(0,-1030.3622)">
    <path
       style="fill:#000000;fill-opacity:1;stroke:none;opacity:0.5"
       d="M 11 4 C 7.1341045 4 3.9999991 6.3506 4 9.25 C 4 12.105 7.2159059 14.9295 11 15 L 11 18 C 18 14 18 11.2325 18 9.25 C 18 6.3506 14.865894 4 11 4 z M 7 7 L 10 7 L 10 10 C 10 11 9.0000005 12 8 12 L 8 11 C 8 11 9 11 9 10 L 7 10 L 7 7 z M 12 7 L 15 7 L 15 10 C 15 11 14 12 13 12 L 13 11 C 13 11 14 11 14 10 L 12 10 L 12 7 z "
       transform="translate(0,1030.3622)"
       id="path4147" />
  </g>
</svg>
