<?xml version="1.0" encoding="UTF-8" standalone="no"?>
<!-- Created with Inkscape (http://www.inkscape.org/) -->

<svg
   xmlns:osb="http://www.openswatchbook.org/uri/2009/osb"
   xmlns:dc="http://purl.org/dc/elements/1.1/"
   xmlns:cc="http://creativecommons.org/ns#"
   xmlns:rdf="http://www.w3.org/1999/02/22-rdf-syntax-ns#"
   xmlns:svg="http://www.w3.org/2000/svg"
   xmlns="http://www.w3.org/2000/svg"
   xmlns:sodipodi="http://sodipodi.sourceforge.net/DTD/sodipodi-0.dtd"
   xmlns:inkscape="http://www.inkscape.org/namespaces/inkscape"
   sodipodi:docname="im-icq.svg"
   inkscape:export-filename="/home/sam/source-symbolic.png"
   inkscape:export-xdpi="270"
   inkscape:export-ydpi="270"
   height="16"
   id="svg7384"
   style="enable-background:new"
   version="1.1"
   inkscape:version="0.91 r"
   width="16">
  <sodipodi:namedview
     inkscape:bbox-nodes="true"
     inkscape:bbox-paths="false"
     bordercolor="#666666"
     borderlayer="false"
     borderopacity="1"
     inkscape:current-layer="layer12"
     inkscape:cx="6.0921985"
     inkscape:cy="5.0718628"
     gridtolerance="10"
     inkscape:guide-bbox="true"
     guidetolerance="10"
     id="namedview88"
     inkscape:object-nodes="true"
     inkscape:object-paths="true"
     objecttolerance="10"
     pagecolor="#f7f7f7"
     inkscape:pageopacity="0"
     inkscape:pageshadow="2"
     showborder="true"
     showgrid="false"
     showguides="true"
     inkscape:showpageshadow="false"
     inkscape:snap-bbox="true"
     inkscape:snap-bbox-edge-midpoints="false"
     inkscape:snap-bbox-midpoints="true"
     inkscape:snap-center="false"
     inkscape:snap-global="true"
     inkscape:snap-grids="true"
     inkscape:snap-intersection-paths="true"
     inkscape:snap-midpoints="true"
     inkscape:snap-nodes="true"
     inkscape:snap-object-midpoints="true"
     inkscape:snap-others="true"
     inkscape:snap-page="false"
     inkscape:snap-smooth-nodes="true"
     inkscape:snap-to-guides="true"
     inkscape:window-height="842"
     inkscape:window-maximized="1"
     inkscape:window-width="1600"
     inkscape:window-x="-4"
     inkscape:window-y="32"
     inkscape:zoom="24.48">
    <inkscape:grid
       color="#000000"
       dotted="false"
       empcolor="#0800ff"
       empopacity="0.4627451"
       empspacing="4"
       enabled="true"
       id="grid4866"
       opacity="0.16470588"
       originx="-184.0002"
       originy="-336.00336"
       snapvisiblegridlinesonly="true"
       spacingx="0.25px"
       spacingy="0.25px"
       type="xygrid"
       visible="true" />
  </sodipodi:namedview>
  <metadata
     id="metadata90">
    <rdf:RDF>
      <cc:Work
         rdf:about="">
        <dc:format>image/svg+xml</dc:format>
        <dc:type
           rdf:resource="http://purl.org/dc/dcmitype/StillImage" />
        <dc:title>Paper Symbolic Icon Theme</dc:title>
      </cc:Work>
    </rdf:RDF>
  </metadata>
  <title
     id="title8473">Paper Symbolic Icon Theme</title>
  <defs
     id="defs7386">
    <linearGradient
       id="linearGradient5606"
       osb:paint="solid">
      <stop
         id="stop5608"
         offset="0"
         style="stop-color:#000000;stop-opacity:1;" />
    </linearGradient>
  </defs>
  <g
     inkscape:groupmode="layer"
     id="layer12"
     inkscape:label="actions"
     style="display:inline"
     transform="translate(-425.0004,119.00336)">
    <g
       id="g4239"
       transform="matrix(0.8660254,0.5,-0.5,0.8660254,2.511196,-231.37082)">
      <path
         id="path4231"
         transform="translate(425.0004,-119.00336)"
         d="m 8,1.0039062 c -0.94916,0 -1.7361694,0.9842569 -1.9433594,2.3105469 -1.08413,-0.7907 -2.3349093,-0.9326687 -3.0058594,-0.2617187 -0.67095,0.67095 -0.5309343,1.9236925 0.2597657,3.0078125 C 1.9842469,6.2677369 1,7.0547462 1,8.0039062 1,8.9530663 1.9842469,9.7400756 3.3105469,9.9472656 2.5198469,11.031386 2.3798312,12.282175 3.0507812,12.953125 3.7217313,13.624075 4.9725106,13.482106 6.0566406,12.691406 6.0220806,12.46979 6.0000014,12.241767 6,12.003906 6.1667183,11.338742 6.5597588,10.452819 7.0976562,9.7851562 a 2,2 0 0 1 -0.5117187,-0.3671874 2,2 0 0 1 0,-2.828125 2,2 0 0 1 2.828125,0 2,2 0 0 1 0,2.828125 2,2 0 0 1 -0.5117187,0.3691406 C 9.4398566,10.454567 9.832886,11.337406 10,12.001953 l 0,0.002 c 0,0.237861 -0.022081,0.465884 -0.056641,0.6875 1.0841196,0.7907 2.3348996,0.932669 3.0058596,0.261719 0.67095,-0.67095 0.528981,-1.921739 -0.261719,-3.0058594 1.3263,-0.20719 2.310537,-0.9941993 2.310547,-1.9433594 -10e-6,-0.94916 -0.984247,-1.7361693 -2.310547,-1.9433593 0.79071,-1.08412 0.932669,-2.3368625 0.261719,-3.0078125 -0.67096,-0.67095 -1.92174,-0.5289813 -3.0058596,0.2617187 C 9.7361694,1.9881631 8.94916,1.0039062 8,1.0039062 Z M 9.7167969,13.525391 c -0.012816,0.03257 -0.023505,0.06786 -0.037109,0.09961 0.00179,-0.0041 0.0041,-0.0076 0.00586,-0.01172 0.011756,-0.02784 0.020141,-0.05939 0.03125,-0.08789 z m -2.7714844,1.019531 c 0.00463,0.0044 0.00901,0.0094 0.013672,0.01367 0.0513,0.047 0.1059162,0.08877 0.1601562,0.128906 0.00575,0.0042 0.011828,0.0075 0.017578,0.01172 -0.065569,-0.0472 -0.1300792,-0.09705 -0.1914063,-0.154297 z m 2.09375,0.01367 c -0.056496,0.05166 -0.1157455,0.09741 -0.1757813,0.140625 0.00574,-0.0042 0.011844,-0.0075 0.017578,-0.01172 0.0542,-0.0401 0.1069031,-0.08188 0.1582031,-0.128906 z m -1.7714844,0.230468 c 0.00475,0.0029 0.00889,0.007 0.013672,0.0098 0.0624,0.0361 0.1280394,0.06119 0.1933594,0.08789 -0.070338,-0.02865 -0.1400453,-0.05816 -0.2070313,-0.09766 z m 1.4648438,0 c -0.066986,0.03949 -0.136693,0.069 -0.2070313,0.09766 0.0654,-0.0267 0.1309394,-0.05179 0.1933594,-0.08789 0.00478,-0.0028 0.00892,-0.0069 0.013672,-0.0098 z"
         style="opacity:0.5;fill:#000000;fill-opacity:1;stroke:none;stroke-width:1;stroke-linecap:round;stroke-linejoin:round;stroke-miterlimit:4;stroke-dasharray:none;stroke-opacity:1"
         inkscape:connector-curvature="0" />
      <path
         id="rect4216"
         transform="translate(425.0004,-119.00336)"
         d="M 7.0996094,9.7832031 C 6.5608127,10.451104 6.1668978,11.338025 6,12.003906 c 10e-6,1.662 0.892,2.99999 2,3 1.108,-1e-5 2,-1.338 2,-3 l 0,-0.002 C 9.8327878,11.337016 9.4403464,10.452744 8.9023438,9.7851562 A 2,2 0 0 1 8,10 2,2 0 0 1 7.0996094,9.7832031 Z"
         style="opacity:0.3;fill:#000000;fill-opacity:1;stroke:none;stroke-width:1;stroke-linecap:round;stroke-linejoin:round;stroke-miterlimit:4;stroke-dasharray:none;stroke-opacity:1"
         inkscape:connector-curvature="0" />
    </g>
  </g>
</svg>
