<?xml version="1.0" encoding="UTF-8" standalone="no"?>
<!-- Created with Inkscape (http://www.inkscape.org/) -->

<svg
   xmlns:osb="http://www.openswatchbook.org/uri/2009/osb"
   xmlns:dc="http://purl.org/dc/elements/1.1/"
   xmlns:cc="http://creativecommons.org/ns#"
   xmlns:rdf="http://www.w3.org/1999/02/22-rdf-syntax-ns#"
   xmlns:svg="http://www.w3.org/2000/svg"
   xmlns="http://www.w3.org/2000/svg"
   xmlns:sodipodi="http://sodipodi.sourceforge.net/DTD/sodipodi-0.dtd"
   xmlns:inkscape="http://www.inkscape.org/namespaces/inkscape"
   sodipodi:docname="im-yahoo.svg"
   inkscape:export-filename="/home/sam/source-symbolic.png"
   inkscape:export-xdpi="270"
   inkscape:export-ydpi="270"
   height="16"
   id="svg7384"
   style="enable-background:new"
   version="1.1"
   inkscape:version="0.91 r"
   width="16">
  <sodipodi:namedview
     inkscape:bbox-nodes="true"
     inkscape:bbox-paths="false"
     bordercolor="#666666"
     borderlayer="false"
     borderopacity="1"
     inkscape:current-layer="layer12"
     inkscape:cx="2.626365"
     inkscape:cy="7.4378284"
     gridtolerance="10"
     inkscape:guide-bbox="true"
     guidetolerance="10"
     id="namedview88"
     inkscape:object-nodes="true"
     inkscape:object-paths="true"
     objecttolerance="10"
     pagecolor="#f7f7f7"
     inkscape:pageopacity="0"
     inkscape:pageshadow="2"
     showborder="true"
     showgrid="false"
     showguides="true"
     inkscape:showpageshadow="false"
     inkscape:snap-bbox="true"
     inkscape:snap-bbox-edge-midpoints="false"
     inkscape:snap-bbox-midpoints="true"
     inkscape:snap-center="false"
     inkscape:snap-global="true"
     inkscape:snap-grids="true"
     inkscape:snap-intersection-paths="true"
     inkscape:snap-midpoints="true"
     inkscape:snap-nodes="true"
     inkscape:snap-object-midpoints="true"
     inkscape:snap-others="true"
     inkscape:snap-page="false"
     inkscape:snap-smooth-nodes="true"
     inkscape:snap-to-guides="true"
     inkscape:window-height="842"
     inkscape:window-maximized="1"
     inkscape:window-width="1600"
     inkscape:window-x="-4"
     inkscape:window-y="32"
     inkscape:zoom="1">
    <inkscape:grid
       color="#000000"
       dotted="false"
       empcolor="#0800ff"
       empopacity="0.4627451"
       empspacing="4"
       enabled="true"
       id="grid4866"
       opacity="0.16470588"
       originx="-244.0004"
       originy="-316.00672"
       snapvisiblegridlinesonly="true"
       spacingx="0.25px"
       spacingy="0.25px"
       type="xygrid"
       visible="true" />
  </sodipodi:namedview>
  <metadata
     id="metadata90">
    <rdf:RDF>
      <cc:Work
         rdf:about="">
        <dc:format>image/svg+xml</dc:format>
        <dc:type
           rdf:resource="http://purl.org/dc/dcmitype/StillImage" />
        <dc:title>Paper Symbolic Icon Theme</dc:title>
      </cc:Work>
    </rdf:RDF>
  </metadata>
  <title
     id="title8473">Paper Symbolic Icon Theme</title>
  <defs
     id="defs7386">
    <linearGradient
       id="linearGradient5606"
       osb:paint="solid">
      <stop
         id="stop5608"
         offset="0"
         style="stop-color:#000000;stop-opacity:1;" />
    </linearGradient>
  </defs>
  <g
     inkscape:groupmode="layer"
     id="layer12"
     inkscape:label="actions"
     style="display:inline"
     transform="translate(-485.0006,99.00672)">
    <path
       style="opacity:0.5;fill:#000000;fill-opacity:1;stroke:none"
       d="M 8 1.0039062 C 4.13397 1.0039062 1 4.1380262 1 8.0039062 C 1 11.869936 4.13397 15.003906 8 15.003906 C 11.86603 15.003906 15 11.869936 15 8.0039062 C 15 4.1380262 11.86603 1.0039062 8 1.0039062 z M 6.6972656 4.0058594 C 7.2053981 4.0135819 7.6501419 4.0282537 7.7480469 4.0429688 L 7.6972656 4.4882812 C 7.4886956 4.5541513 6.4854594 4.5785086 6.2246094 4.6660156 C 6.9027394 5.9370446 7.9744656 7.5734204 8.3222656 8.2089844 C 8.5136156 7.8584274 10.193994 6.4004874 10.246094 5.8964844 C 9.9852037 5.8305244 9.1215719 5.6738281 8.9824219 5.6738281 L 8.9003906 5.0996094 C 9.1371306 5.0528794 10.38115 5.0996094 11 5.0996094 C 11.53406 5.0996094 12.67573 5.0993025 13 5.1328125 L 12.703125 5.6738281 C 12.529105 5.6954681 11.80599 5.8990697 11.5625 5.9648438 C 11.30179 6.0523438 8.9181987 8.3718363 8.7617188 8.9414062 C 8.7270188 9.1385262 8.7109375 9.4435116 8.7109375 9.7285156 L 8.6933594 10.1875 C 8.6933594 10.515957 8.7661112 11.045293 8.8007812 11.330078 C 8.9573813 11.374088 10.090248 11.336789 10.298828 11.380859 L 10.273438 11.96875 C 10.069637 11.95005 8.6288706 11.955078 7.8066406 11.955078 C 7.3892506 11.955078 6.0489587 12.013677 5.6367188 11.998047 L 5.7148438 11.4375 C 5.9408937 11.41535 6.8762812 11.488653 7.0820312 11.214844 C 7.1842312 11.079021 7.1523438 10.933332 7.1523438 10.144531 L 7.1523438 9.7714844 C 7.1523438 9.5961484 7.1520875 9.2678285 7.1171875 8.9609375 C 7.0302875 8.6321515 4.9315281 5.3304805 4.3925781 4.8046875 C 4.2359681 4.7390475 3.2550988 4.6147161 3.0117188 4.5488281 L 3 4.0449219 C 3.12142 3.9681319 4.2112813 4.0630319 5.2695312 4.0136719 C 5.6172763 3.9974969 6.1891331 3.9981369 6.6972656 4.0058594 z "
       transform="translate(485.0006,-99.00672)"
       id="path4143" />
  </g>
</svg>
