<?xml version="1.0" encoding="UTF-8" standalone="no"?>
<!-- Created with Inkscape (http://www.inkscape.org/) -->

<svg
   xmlns:osb="http://www.openswatchbook.org/uri/2009/osb"
   xmlns:dc="http://purl.org/dc/elements/1.1/"
   xmlns:cc="http://creativecommons.org/ns#"
   xmlns:rdf="http://www.w3.org/1999/02/22-rdf-syntax-ns#"
   xmlns:svg="http://www.w3.org/2000/svg"
   xmlns="http://www.w3.org/2000/svg"
   xmlns:sodipodi="http://sodipodi.sourceforge.net/DTD/sodipodi-0.dtd"
   xmlns:inkscape="http://www.inkscape.org/namespaces/inkscape"
   sodipodi:docname="media-playlist-shuffle.svg"
   inkscape:export-filename="/home/sam/source-symbolic.png"
   inkscape:export-xdpi="270"
   inkscape:export-ydpi="270"
   height="16"
   id="svg7384"
   style="enable-background:new"
   version="1.1"
   inkscape:version="0.91 r"
   width="16.000196">
  <sodipodi:namedview
     inkscape:bbox-nodes="true"
     inkscape:bbox-paths="false"
     bordercolor="#666666"
     borderlayer="false"
     borderopacity="1"
     inkscape:current-layer="layer12"
     inkscape:cx="17.64134"
     inkscape:cy="5.214368"
     gridtolerance="10"
     inkscape:guide-bbox="true"
     guidetolerance="10"
     id="namedview88"
     inkscape:object-nodes="true"
     inkscape:object-paths="true"
     objecttolerance="10"
     pagecolor="#f7f7f7"
     inkscape:pageopacity="0"
     inkscape:pageshadow="2"
     showborder="true"
     showgrid="false"
     showguides="true"
     inkscape:showpageshadow="false"
     inkscape:snap-bbox="true"
     inkscape:snap-bbox-edge-midpoints="false"
     inkscape:snap-bbox-midpoints="true"
     inkscape:snap-center="false"
     inkscape:snap-global="true"
     inkscape:snap-grids="true"
     inkscape:snap-intersection-paths="true"
     inkscape:snap-midpoints="true"
     inkscape:snap-nodes="true"
     inkscape:snap-object-midpoints="true"
     inkscape:snap-others="true"
     inkscape:snap-page="false"
     inkscape:snap-smooth-nodes="true"
     inkscape:snap-to-guides="true"
     inkscape:window-height="842"
     inkscape:window-maximized="1"
     inkscape:window-width="1600"
     inkscape:window-x="-4"
     inkscape:window-y="32"
     inkscape:zoom="24.48">
    <inkscape:grid
       color="#000000"
       dotted="false"
       empcolor="#0800ff"
       empopacity="0.4627451"
       empspacing="4"
       enabled="true"
       id="grid4866"
       opacity="0.16470588"
       originx="-24.0002"
       originy="-336.00336"
       snapvisiblegridlinesonly="true"
       spacingx="0.25px"
       spacingy="0.25px"
       type="xygrid"
       visible="true" />
  </sodipodi:namedview>
  <metadata
     id="metadata90">
    <rdf:RDF>
      <cc:Work
         rdf:about="">
        <dc:format>image/svg+xml</dc:format>
        <dc:type
           rdf:resource="http://purl.org/dc/dcmitype/StillImage" />
        <dc:title>Paper Symbolic Icon Theme</dc:title>
      </cc:Work>
    </rdf:RDF>
  </metadata>
  <title
     id="title8473">Paper Symbolic Icon Theme</title>
  <defs
     id="defs7386">
    <linearGradient
       id="linearGradient5606"
       osb:paint="solid">
      <stop
         id="stop5608"
         offset="0"
         style="stop-color:#000000;stop-opacity:1;" />
    </linearGradient>
  </defs>
  <g
     inkscape:groupmode="layer"
     id="layer12"
     inkscape:label="actions"
     style="display:inline"
     transform="translate(-265.0004,119.00336)">
    <rect
       style="color:#000000;display:inline;overflow:visible;visibility:visible;fill:none;stroke:none;stroke-width:7.5;marker:none;enable-background:accumulate"
       id="rect4198"
       width="15.999997"
       height="15.999997"
       x="265.00049"
       y="-119.00336" />
    <rect
       style="color:#000000;display:inline;overflow:visible;visibility:visible;fill:none;stroke:none;stroke-width:6;marker:none;enable-background:accumulate"
       id="rect3038"
       width="15.999997"
       height="15.999997"
       x="265.00049"
       y="-119.00336" />
    <path
       style="color:#000000;display:inline;overflow:visible;visibility:visible;fill:#000000;fill-opacity:1;fill-rule:nonzero;stroke:none;stroke-width:3;marker:none;enable-background:accumulate;opacity:0.5"
       d="M 11.021484 1.5996094 L 11.021484 3.3789062 L 10.84375 3.3789062 L 10.84375 3.3769531 C 8.93206 3.3769531 7.6133819 4.5482531 6.8574219 5.6269531 C 6.1014519 6.7056631 5.8027344 7.7832031 5.8027344 7.7832031 C 5.8027344 7.7832031 5.5672744 8.6095837 4.9902344 9.4335938 C 4.4132044 10.257594 3.6000169 10.990234 2.3105469 10.990234 L 0.53320312 10.990234 L 0.53320312 12.623047 L 2.3105469 12.623047 C 4.2210769 12.623047 5.5396588 11.456569 6.2929688 10.380859 C 7.0455088 9.3062394 7.3411969 8.2346019 7.3417969 8.2324219 L 7.3417969 8.2304688 C 7.3423369 8.2284688 7.5786131 7.4012488 8.1582031 6.5742188 C 8.7385531 5.7460988 9.55544 5.0097656 10.84375 5.0097656 L 11.023438 5.0097656 L 11.023438 6.7558594 C 11.023438 6.7558594 13.393647 5.6982813 15.466797 4.1757812 C 15.466797 4.1757812 15.466797 4.1738281 15.466797 4.1738281 C 15.466797 4.1738281 15.464844 4.171875 15.464844 4.171875 C 15.464844 4.171875 15.464844 4.1699219 15.464844 4.1699219 C 15.464844 4.1699219 15.462891 4.1679688 15.462891 4.1679688 C 13.276251 2.5971988 11.021484 1.5996094 11.021484 1.5996094 z M 0.53320312 3.3769531 L 0.53320312 5.0097656 L 2.3105469 5.0097656 C 3.6000169 5.0097656 4.4132044 5.7424063 4.9902344 6.5664062 C 5.0162344 6.6036062 5.0378 6.6406744 5.0625 6.6777344 C 5.23249 6.2652444 5.5023438 5.7145938 5.9023438 5.1210938 C 5.1174537 4.2129238 3.9264669 3.3769531 2.3105469 3.3769531 L 0.53320312 3.3769531 z M 11.021484 9.2441406 L 11.021484 10.990234 L 10.84375 10.990234 C 9.55544 10.990234 8.7385531 10.253901 8.1582031 9.4257812 C 8.1342031 9.3914812 8.1146969 9.3584487 8.0917969 9.3242188 C 7.9172169 9.7457988 7.6452431 10.293966 7.2519531 10.878906 C 8.0389631 11.787866 9.22948 12.623047 10.84375 12.623047 L 11.023438 12.623047 L 11.023438 14.400391 C 11.023438 14.400391 13.393647 13.342813 15.466797 11.820312 C 15.466797 11.820312 15.466797 11.818359 15.466797 11.818359 C 15.466797 11.818359 15.464844 11.816406 15.464844 11.816406 C 15.464844 11.816406 15.464844 11.814453 15.464844 11.814453 C 15.464844 11.814453 15.462891 11.8125 15.462891 11.8125 C 13.276251 10.24173 11.021484 9.2441406 11.021484 9.2441406 z "
       transform="translate(265.0004,-119.00336)"
       id="path2194-83" />
  </g>
</svg>
