<?xml version="1.0" encoding="UTF-8" standalone="no"?>
<!-- Created with Inkscape (http://www.inkscape.org/) -->

<svg
   xmlns:osb="http://www.openswatchbook.org/uri/2009/osb"
   xmlns:dc="http://purl.org/dc/elements/1.1/"
   xmlns:cc="http://creativecommons.org/ns#"
   xmlns:rdf="http://www.w3.org/1999/02/22-rdf-syntax-ns#"
   xmlns:svg="http://www.w3.org/2000/svg"
   xmlns="http://www.w3.org/2000/svg"
   xmlns:sodipodi="http://sodipodi.sourceforge.net/DTD/sodipodi-0.dtd"
   xmlns:inkscape="http://www.inkscape.org/namespaces/inkscape"
   sodipodi:docname="snap-nodes-midpoint.svg"
   inkscape:export-filename="/home/sam/source-symbolic.png"
   inkscape:export-xdpi="270"
   inkscape:export-ydpi="270"
   height="16"
   id="svg7384"
   style="enable-background:new"
   version="1.1"
   inkscape:version="0.91 r"
   width="16">
  <sodipodi:namedview
     inkscape:bbox-nodes="true"
     inkscape:bbox-paths="true"
     bordercolor="#666666"
     borderlayer="false"
     borderopacity="1"
     inkscape:current-layer="layer1"
     inkscape:cx="-4.1664296"
     inkscape:cy="4.1828883"
     gridtolerance="10"
     inkscape:guide-bbox="true"
     guidetolerance="10"
     id="namedview88"
     inkscape:object-nodes="true"
     inkscape:object-paths="true"
     objecttolerance="10"
     pagecolor="#f7f7f7"
     inkscape:pageopacity="1"
     inkscape:pageshadow="2"
     showborder="true"
     showgrid="false"
     showguides="true"
     inkscape:showpageshadow="false"
     inkscape:snap-bbox="true"
     inkscape:snap-bbox-edge-midpoints="false"
     inkscape:snap-bbox-midpoints="false"
     inkscape:snap-center="false"
     inkscape:snap-global="true"
     inkscape:snap-grids="true"
     inkscape:snap-intersection-paths="true"
     inkscape:snap-midpoints="true"
     inkscape:snap-nodes="true"
     inkscape:snap-object-midpoints="true"
     inkscape:snap-others="true"
     inkscape:snap-page="false"
     inkscape:snap-smooth-nodes="true"
     inkscape:snap-to-guides="true"
     inkscape:window-height="841"
     inkscape:window-maximized="1"
     inkscape:window-width="1600"
     inkscape:window-x="-4"
     inkscape:window-y="33"
     inkscape:zoom="14.06">
    <inkscape:grid
       color="#000000"
       dotted="false"
       empcolor="#0800ff"
       empopacity="0.4627451"
       empspacing="4"
       enabled="true"
       id="grid4866"
       opacity="0.16470588"
       originx="-504.00018px"
       originy="-628px"
       snapvisiblegridlinesonly="true"
       spacingx="0.25px"
       spacingy="0.25px"
       type="xygrid"
       visible="true" />
  </sodipodi:namedview>
  <metadata
     id="metadata90">
    <rdf:RDF>
      <cc:Work
         rdf:about="">
        <dc:format>image/svg+xml</dc:format>
        <dc:type
           rdf:resource="http://purl.org/dc/dcmitype/StillImage" />
        <dc:title>Paper Symbolic Icon Theme</dc:title>
      </cc:Work>
    </rdf:RDF>
  </metadata>
  <title
     id="title8473">Paper Symbolic Icon Theme</title>
  <defs
     id="defs7386">
    <linearGradient
       id="linearGradient5606"
       osb:paint="solid">
      <stop
         id="stop5608"
         offset="0"
         style="stop-color:#000000;stop-opacity:1;" />
    </linearGradient>
    <filter
       inkscape:collect="always"
       color-interpolation-filters="sRGB"
       id="filter7554">
      <feBlend
         inkscape:collect="always"
         id="feBlend7556"
         in2="BackgroundImage"
         mode="darken" />
    </filter>
  </defs>
  <g
     inkscape:groupmode="layer"
     id="layer9"
     inkscape:label="status"
     style="display:inline"
     transform="translate(-745.00038,411)" />
  <g
     inkscape:groupmode="layer"
     id="layer10"
     inkscape:label="devices"
     style="display:inline;filter:url(#filter7554)"
     transform="translate(-745.00038,411)" />
  <g
     inkscape:groupmode="layer"
     id="layer1"
     inkscape:label="places"
     style="display:inline"
     transform="translate(-504.00018,-206)">
    <rect
       y="206.25"
       x="504.25018"
       height="16"
       width="16"
       id="rect5385-6-5"
       style="color:#000000;fill:none;stroke-width:0.1" />
    <rect
       y="206.25056"
       x="504.25018"
       height="16"
       width="16"
       id="rect5385-6-0-1"
       style="color:#000000;fill:none;stroke-width:0.1" />
    <path
       style="opacity:0.5;fill:#000000;fill-opacity:1;stroke:none;stroke-width:0.73050779;stroke-opacity:1"
       d="M 12.613281 0.20507812 A 0.50005 0.50005 0 0 0 12.142578 0.77929688 L 12.425781 2.8652344 L 11.388672 3.9023438 L 11.085938 1.671875 A 0.50005 0.50005 0 0 0 10.564453 1.2324219 A 0.50005 0.50005 0 0 0 10.095703 1.8066406 L 10.5 4.7910156 L 8.7910156 6.5 L 6.5 6.5 L 6.5 7.90625 L 5.2695312 8.2578125 L 5.0097656 6.3359375 A 0.50005 0.50005 0 0 0 4.4882812 5.8964844 A 0.50005 0.50005 0 0 0 4.0175781 6.46875 L 4.2988281 8.5351562 L 2.6113281 9.0175781 L 2.3710938 7.2519531 A 0.50005 0.50005 0 0 0 1.8496094 6.8125 A 0.50005 0.50005 0 0 0 1.3789062 7.3867188 L 1.6386719 9.296875 L 0.86328125 9.5175781 A 0.50005006 0.50005006 0 1 0 1.1367188 10.478516 L 1.7734375 10.296875 L 2.1601562 13.130859 L 0.64648438 14.644531 A 0.50005 0.50005 0 1 0 1.3535156 15.351562 L 2.328125 14.376953 L 2.4257812 15.089844 A 0.50005 0.50005 0 1 0 3.4160156 14.957031 L 3.2167969 13.488281 L 4.7617188 11.943359 L 5.0644531 14.173828 A 0.50005 0.50005 0 1 0 6.0546875 14.039062 L 5.6503906 11.054688 L 7.2050781 9.5 L 9.5 9.5 L 9.5 8.0898438 L 10.894531 7.6914062 L 11.140625 9.5097656 A 0.50052027 0.50052027 0 0 0 12.132812 9.3769531 L 11.865234 7.4140625 L 13 7.0898438 L 13.189453 8.484375 A 0.50005 0.50005 0 1 0 14.179688 8.3496094 L 13.970703 6.8125 L 15.136719 6.4785156 A 0.50005006 0.50005006 0 0 0 14.996094 5.4960938 A 0.50005006 0.50005006 0 0 0 14.863281 5.5175781 L 13.835938 5.8105469 L 13.484375 3.2207031 L 15.353516 1.3515625 A 0.50005 0.50005 0 0 0 14.990234 0.49414062 A 0.50005 0.50005 0 0 0 14.646484 0.64453125 L 13.314453 1.9765625 L 13.134766 0.64453125 A 0.50005 0.50005 0 0 0 12.613281 0.20507812 z M 12.595703 4.109375 L 12.863281 6.0898438 L 11.730469 6.4121094 L 11.558594 5.1464844 L 12.595703 4.109375 z M 10.669922 6.0351562 L 10.757812 6.6914062 L 9.7167969 6.9882812 L 10.669922 6.0351562 z M 6.2832031 9.0078125 L 5.4804688 9.8105469 L 5.40625 9.2578125 L 6.2832031 9.0078125 z M 4.4335938 9.5371094 L 4.5917969 10.699219 L 3.0488281 12.242188 L 2.7460938 10.017578 L 4.4335938 9.5371094 z "
       transform="translate(504.00018,206)"
       id="rect4355" />
    <g
       id="snap-nodes-intersection"
       transform="translate(-277.99982,175.99886)"
       inkscape:label="#toggle_snap_to_path_intersections">
      <g
         id="g6774">
        <rect
           y="30.001141"
           x="782"
           height="16"
           width="16"
           id="rect5385-6-4-0-5"
           style="color:#000000;fill:none;stroke-width:0.1" />
      </g>
    </g>
  </g>
  <g
     inkscape:groupmode="layer"
     id="layer14"
     inkscape:label="mimetypes"
     style="display:inline"
     transform="translate(-745.00038,411)" />
  <g
     inkscape:groupmode="layer"
     id="layer15"
     inkscape:label="emblems"
     style="display:inline"
     transform="translate(-745.00038,411)" />
  <g
     inkscape:groupmode="layer"
     id="g71291"
     inkscape:label="emotes"
     style="display:inline"
     transform="translate(-745.00038,411)" />
  <g
     inkscape:groupmode="layer"
     id="layer2"
     inkscape:label="categories"
     style="display:inline"
     transform="translate(-504.00018,-56)" />
  <g
     inkscape:groupmode="layer"
     id="g6058"
     inkscape:label="apps"
     style="display:inline"
     transform="translate(-504.00018,-56)" />
  <g
     inkscape:groupmode="layer"
     id="layer12"
     inkscape:label="actions"
     style="display:inline"
     transform="translate(-745.00038,411)" />
</svg>
